<svg width="60" height="60" viewBox="-2.14 -2.14 60 60" xmlns="http://www.w3.org/2000/svg" xmlns:xlink="http://www.w3.org/1999/xlink" id="3-D-Print-Candy--Streamline-Ultimate.svg" overflow="hidden"><path d="M31.3425 5.80417C31.3425 8.36861 29.2636 10.4475 26.6992 10.4475 24.1347 10.4475 22.0558 8.36861 22.0558 5.80417L22.0558 1.16083 31.3425 1.16083Z" stroke="#66737C" stroke-width="3.57143" stroke-linecap="round" stroke-linejoin="round" fill="none"/><path d="M31.3425 5.80417 54.5592 5.80417" stroke="#66737C" stroke-width="3.57143" stroke-linecap="round" stroke-linejoin="round" fill="none"/><path d="M1.16083 5.80417 22.0558 5.80417" stroke="#66737C" stroke-width="3.57143" stroke-linecap="round" stroke-linejoin="round" fill="none"/><path d="M21.9165 48.3487C22.821 47.4519 23.2007 46.1531 22.9218 44.9103L21.7354 35.8349C21.3121 33.7581 22.6526 31.7314 24.7294 31.3081 25.2345 31.2051 25.7552 31.205 26.2604 31.3077L35.2824 32.5242C36.5129 32.7971 37.7979 32.4273 38.6952 31.5422" stroke="#66737C" stroke-width="3.57143" stroke-linecap="round" stroke-linejoin="round" fill="none"/><path d="M31.1893 23.9503C30.3014 24.8461 29.9312 26.1325 30.2072 27.3632L31.368 36.4502C31.79 38.5272 30.4483 40.5531 28.3712 40.9751 27.867 41.0775 27.3473 41.0775 26.8431 40.9751L17.7886 39.7632C16.5459 39.487 15.2484 39.8664 14.3502 40.7685" stroke="#66737C" stroke-width="3.57143" stroke-linecap="round" stroke-linejoin="round" fill="none"/><path d="M45.0635 33.1998C46.6022 43.3415 39.6281 52.8104 29.4864 54.349 19.3446 55.8877 9.87583 48.9135 8.33716 38.7718 6.79849 28.6301 13.7726 19.1613 23.9144 17.6226 24.836 17.4828 25.7669 17.4126 26.6992 17.4125L26.6992 10.4475" stroke="#66737C" stroke-width="3.57143" stroke-linecap="round" stroke-linejoin="round" fill="none"/><path d="M40.2391 23.2724C41.5216 24.6339 42.5923 26.1803 43.4152 27.86" stroke="#66737C" stroke-width="3.57143" stroke-linecap="round" stroke-linejoin="round" fill="none"/><path d="M33.3206 18.6267C34.1926 18.9611 35.0384 19.36 35.8512 19.8201" stroke="#66737C" stroke-width="3.57143" stroke-linecap="round" stroke-linejoin="round" fill="none"/></svg>