<svg width="60" height="60" viewBox="-2.14 -2.14 60 60" xmlns="http://www.w3.org/2000/svg" xmlns:xlink="http://www.w3.org/1999/xlink" id="360-View--Streamline-Ultimate.svg" fill="none" overflow="hidden"><path d="M38.6409 47.3741C47.4117 46.1141 53.494 43.3643 53.494 40.175 53.494 35.7938 42.0173 32.2424 27.86 32.2424 13.7027 32.2424 2.22602 35.7938 2.22602 40.175 2.22602 44.556 13.7027 48.1077 27.86 48.1077L30.92 48.0455" stroke="#66737C" stroke-width="3.57143" stroke-linecap="round"/><path d="M25.4524 42.5643 30.9348 48.0464 25.4524 53.5283" stroke="#66737C" stroke-width="3.57143" stroke-linecap="round" stroke-linejoin="round"/><path d="M21.7565 19.0758 21.7565 20.069C21.7565 23.3601 24.4244 26.0282 27.7156 26.0282 31.0068 26.0282 33.6746 23.3601 33.6746 20.0691L33.6746 19.0758C33.6746 15.7847 31.0068 13.1168 27.7156 13.1168 24.4244 13.1168 21.7565 15.7847 21.7565 19.0758Z" stroke="#66737C" stroke-width="3.57143" stroke-linecap="round" stroke-linejoin="round"/><path d="M21.7565 20.069 21.7565 8.15081C21.7565 4.85969 24.4244 2.19173 27.7156 2.19173 30.3103 2.19173 32.8567 3.84995 33.6746 6.16444" stroke="#66737C" stroke-width="3.57143" stroke-linecap="round" stroke-linejoin="round"/><path d="M41.2867 8.15065 41.2867 20.0688C41.2867 23.3599 43.9547 26.028 47.2457 26.028 50.5369 26.028 53.2049 23.3599 53.2049 20.0688L53.2049 8.15065C53.2049 4.85955 50.5369 2.19158 47.2457 2.19158 43.9547 2.19158 41.2867 4.85955 41.2867 8.15065Z" stroke="#66737C" stroke-width="3.57143" stroke-linecap="round" stroke-linejoin="round"/><path d="M2.22602 22.0552C3.04405 24.3696 5.59046 26.028 8.18508 26.028 11.4762 26.028 14.1442 23.3599 14.1442 20.0688L14.1442 19.0757C14.1442 15.7845 11.4762 13.1166 8.18508 13.1166L7.98646 13.1166C10.8387 13.1166 13.151 10.8044 13.151 7.95208L13.151 7.15749C13.151 4.41488 10.9277 2.19158 8.18508 2.19158 6.56043 2.19158 5.118 2.97178 4.21201 4.17793" stroke="#66737C" stroke-width="3.57143" stroke-linecap="round" stroke-linejoin="round"/></svg>