<svg width="60" height="60" viewBox="-1.875 -1.875 60 60" xmlns="http://www.w3.org/2000/svg" xmlns:xlink="http://www.w3.org/1999/xlink" id="Accounting-Calculator--Streamline-Ultimate" fill="none" overflow="hidden"><path d="M43.9453 1.75781 12.3047 1.75781C10.3631 1.75781 8.78906 3.3318 8.78906 5.27344L8.78906 50.9766C8.78906 52.9181 10.3631 54.4922 12.3047 54.4922L43.9453 54.4922C45.8869 54.4922 47.4609 52.9181 47.4609 50.9766L47.4609 5.27344C47.4609 3.3318 45.8869 1.75781 43.9453 1.75781Z" stroke="#66737C" stroke-width="3.33333" stroke-linecap="round" stroke-linejoin="round"/><path d="M38.6719 8.78906 17.5781 8.78906C16.6073 8.78906 15.8203 9.57607 15.8203 10.5469L15.8203 17.5781C15.8203 18.5489 16.6073 19.3359 17.5781 19.3359L38.6719 19.3359C39.6427 19.3359 40.4297 18.5489 40.4297 17.5781L40.4297 10.5469C40.4297 9.57607 39.6427 8.78906 38.6719 8.78906Z" stroke="#66737C" stroke-width="3.33333" stroke-linecap="round" stroke-linejoin="round"/><path d="M18.457 29.8828C17.9716 29.8828 17.5781 29.4893 17.5781 29.0039 17.5781 28.5185 17.9716 28.125 18.457 28.125" stroke="#66737C" stroke-width="3.33333"/><path d="M18.457 29.8828C18.9424 29.8828 19.3359 29.4893 19.3359 29.0039 19.3359 28.5185 18.9424 28.125 18.457 28.125" stroke="#66737C" stroke-width="3.33333"/><path d="M18.457 38.6719C17.9716 38.6719 17.5781 38.2784 17.5781 37.793 17.5781 37.3076 17.9716 36.9141 18.457 36.9141" stroke="#66737C" stroke-width="3.33333"/><path d="M18.457 38.6719C18.9424 38.6719 19.3359 38.2784 19.3359 37.793 19.3359 37.3076 18.9424 36.9141 18.457 36.9141" stroke="#66737C" stroke-width="3.33333"/><path d="M18.457 47.4609C17.9716 47.4609 17.5781 47.0674 17.5781 46.582 17.5781 46.0966 17.9716 45.7031 18.457 45.7031" stroke="#66737C" stroke-width="3.33333"/><path d="M18.457 47.4609C18.9424 47.4609 19.3359 47.0674 19.3359 46.582 19.3359 46.0966 18.9424 45.7031 18.457 45.7031" stroke="#66737C" stroke-width="3.33333"/><path d="M28.4906 29.8828C28.0052 29.8828 27.6117 29.4893 27.6117 29.0039 27.6117 28.5185 28.0052 28.125 28.4906 28.125" stroke="#66737C" stroke-width="3.33333"/><path d="M28.4906 29.8828C28.976 29.8828 29.3695 29.4893 29.3695 29.0039 29.3695 28.5185 28.976 28.125 28.4906 28.125" stroke="#66737C" stroke-width="3.33333"/><path d="M28.4906 38.6719C28.0052 38.6719 27.6117 38.2784 27.6117 37.793 27.6117 37.3076 28.0052 36.9141 28.4906 36.9141" stroke="#66737C" stroke-width="3.33333"/><path d="M28.4906 38.6719C28.976 38.6719 29.3695 38.2784 29.3695 37.793 29.3695 37.3076 28.976 36.9141 28.4906 36.9141" stroke="#66737C" stroke-width="3.33333"/><g><path d="M28.4906 47.4609C28.0052 47.4609 27.6117 47.0674 27.6117 46.582 27.6117 46.0966 28.0052 45.7031 28.4906 45.7031" stroke="#66737C" stroke-width="3.33333"/><path d="M28.4906 47.4609C28.976 47.4609 29.3695 47.0674 29.3695 46.582 29.3695 46.0966 28.976 45.7031 28.4906 45.7031" stroke="#66737C" stroke-width="3.33333"/></g><g><path d="M37.793 29.8828C37.3076 29.8828 36.9141 29.4893 36.9141 29.0039 36.9141 28.5185 37.3076 28.125 37.793 28.125" stroke="#66737C" stroke-width="3.33333"/><path d="M37.793 29.8828C38.2784 29.8828 38.6719 29.4893 38.6719 29.0039 38.6719 28.5185 38.2784 28.125 37.793 28.125" stroke="#66737C" stroke-width="3.33333"/></g><g><path d="M37.793 38.6719C37.3076 38.6719 36.9141 38.2784 36.9141 37.793 36.9141 37.3076 37.3076 36.9141 37.793 36.9141" stroke="#66737C" stroke-width="3.33333"/><path d="M37.793 38.6719C38.2784 38.6719 38.6719 38.2784 38.6719 37.793 38.6719 37.3076 38.2784 36.9141 37.793 36.9141" stroke="#66737C" stroke-width="3.33333"/></g><g><path d="M37.793 47.4609C37.3076 47.4609 36.9141 47.0674 36.9141 46.582 36.9141 46.0966 37.3076 45.7031 37.793 45.7031" stroke="#66737C" stroke-width="3.33333"/><path d="M37.793 47.4609C38.2784 47.4609 38.6719 47.0674 38.6719 46.582 38.6719 46.0966 38.2784 45.7031 37.793 45.7031" stroke="#66737C" stroke-width="3.33333"/></g></svg>