<svg width="60" height="60" viewBox="-2.14 -2.14 60 60" xmlns="http://www.w3.org/2000/svg" xmlns:xlink="http://www.w3.org/1999/xlink" id="Adhd-Disorder-Symptoms-1--Streamline-Ultimate.svg" fill="none" overflow="hidden"><path d="M10.8546 53.9787 10.8546 39.4335C7.64662 36.4615 5.40934 32.5913 4.43494 28.3283 3.46056 24.0652 3.79432 19.6073 5.3927 15.5368 6.99105 11.4663 9.7797 7.97237 13.3945 5.51129 17.0093 3.05021 21.2822 1.73634 25.6553 1.74126 42.2297 1.74126 45.8074 15.388 51.7161 30.7157 51.8173 30.9796 51.8528 31.264 51.8196 31.5447 51.7864 31.8254 51.6856 32.0938 51.5257 32.3269 51.3657 32.5597 51.1517 32.7504 50.9016 32.8822 50.6516 33.0141 50.3734 33.0833 50.0909 33.0838L45.6797 33.0838 45.6797 40.0488C45.6797 41.8961 44.9458 43.6675 43.6397 44.9737 42.3335 46.2799 40.5618 47.0137 38.7147 47.0137L35.2322 47.0137 35.2322 53.9787" stroke="#66737C" stroke-width="3.57143" stroke-linecap="round" stroke-linejoin="round"/><path d="M24.5702 22.5024C24.0186 22.5024 23.5714 22.0552 23.5714 21.5036 23.5714 20.952 24.0186 20.5049 24.5702 20.5049" stroke="#66737C" stroke-width="3.57143" stroke-linecap="round" stroke-linejoin="round"/><path d="M24.5714 22.5024C25.123 22.5024 25.5701 22.0552 25.5701 21.5036 25.5701 20.952 25.123 20.5049 24.5714 20.5049" stroke="#66737C" stroke-width="3.57143" stroke-linecap="round" stroke-linejoin="round"/><path d="M24.5702 14.4725 24.5702 7.4998" stroke="#66737C" stroke-width="3.57143" stroke-linecap="round"/><path d="M31.6023 21.5033 38.575 21.5033" stroke="#66737C" stroke-width="3.57143" stroke-linecap="round"/><path d="M24.5702 28.5342 24.5702 35.5069" stroke="#66737C" stroke-width="3.57143" stroke-linecap="round"/><path d="M17.5404 21.5033 10.5677 21.5033" stroke="#66737C" stroke-width="3.57143" stroke-linecap="round"/><path d="M21.1546 10.9154 24.5702 7.4998 27.9858 10.9154" stroke="#66737C" stroke-width="3.57143" stroke-linecap="round" stroke-linejoin="round"/><path d="M35.1593 18.0877 38.575 21.5033 35.1593 24.9189" stroke="#66737C" stroke-width="3.57143" stroke-linecap="round" stroke-linejoin="round"/><path d="M27.9858 32.0912 24.5702 35.5069 21.1547 32.0912" stroke="#66737C" stroke-width="3.57143" stroke-linecap="round" stroke-linejoin="round"/><path d="M13.9833 24.9189 10.5677 21.5034 13.9833 18.0878" stroke="#66737C" stroke-width="3.57143" stroke-linecap="round" stroke-linejoin="round"/></svg>