<svg width="60" height="60" viewBox="-1.875 -1.875 60 60" xmlns="http://www.w3.org/2000/svg" xmlns:xlink="http://www.w3.org/1999/xlink" id="Ai-Chat-Robot--Streamline-Ultimate" fill="none" overflow="hidden"><path d="M25.2195 10.3088 7.42036 10.3088C4.83152 10.3088 2.73286 12.4075 2.73286 14.9963L2.73286 39.2393C2.73286 41.828 4.83152 43.9268 7.42036 43.9268L12.5289 43.9268 12.5289 51.7383C12.5289 53.8753 15.155 54.8974 16.5997 53.3227L24.5227 44.6862C24.9666 44.2022 25.5933 43.9268 26.2498 43.9268L42.7022 43.9268C45.2911 43.9268 47.3897 41.828 47.3897 39.2393L47.3897 32.7321" stroke="#66737C" stroke-width="3.33333" stroke-linecap="round" stroke-linejoin="round"/><path d="M37.3008 9.59531 48.8297 9.59531C48.8297 9.59531 53.5172 9.59531 53.5172 14.2828L53.5172 21.1688C53.5172 21.1688 53.5172 25.8563 48.8297 25.8563L37.3008 25.8563C37.3008 25.8563 32.6133 25.8563 32.6133 21.1688L32.6133 14.2828C32.6133 14.2828 32.6133 9.59531 37.3008 9.59531" stroke="#66737C" stroke-width="3.33333" stroke-linejoin="round"/><path d="M43.0641 3.18054 43.0641 9.59473" stroke="#66737C" stroke-width="3.33333" stroke-linecap="round" stroke-linejoin="round"/><path d="M39.2372 16.8155 39.2372 18.6585" stroke="#66737C" stroke-width="3.33333" stroke-linecap="round" stroke-linejoin="round"/><path d="M46.8909 16.8155 46.8909 18.6585" stroke="#66737C" stroke-width="3.33333" stroke-linecap="round" stroke-linejoin="round"/></svg>