<svg width="60" height="60" viewBox="-1.875 -1.875 60 60" xmlns="http://www.w3.org/2000/svg" xmlns:xlink="http://www.w3.org/1999/xlink" id="Ai-Redo-Robot--Streamline-Ultimate" fill="none" overflow="hidden"><path d="M52.8888 23.6627C54.293 31.4946 51.9687 39.8639 45.9159 45.9166 36.0898 55.7428 20.1586 55.7428 10.3325 45.9166 0.50637 36.0907 0.50637 20.1594 10.3325 10.3333 20.1586 0.507169 36.0898 0.507169 45.9159 10.3333L48.0384 12.4559" stroke="#66737C" stroke-width="3.33333" stroke-linecap="round"/><path d="M39.1022 12.6801 48.101 12.6801 48.101 3.68112" stroke="#66737C" stroke-width="3.33333" stroke-linecap="round" stroke-linejoin="round"/><path d="M20.6344 20.5266 35.6156 20.5266C35.6156 20.5266 40.3031 20.5266 40.3031 25.2141L40.3031 34.7859C40.3031 34.7859 40.3031 39.4734 35.6156 39.4734L20.6344 39.4734C20.6344 39.4734 15.9469 39.4734 15.9469 34.7859L15.9469 25.2141C15.9469 25.2141 15.9469 20.5266 20.6344 20.5266" stroke="#66737C" stroke-width="3.33333" stroke-linejoin="round"/><path d="M28.1227 13.0528 28.1227 20.5261" stroke="#66737C" stroke-width="3.33333" stroke-linecap="round" stroke-linejoin="round"/><path d="M23.6641 28.935 23.6641 31.0821" stroke="#66737C" stroke-width="3.33333" stroke-linecap="round" stroke-linejoin="round"/><path d="M32.5814 28.935 32.5814 31.0821" stroke="#66737C" stroke-width="3.33333" stroke-linecap="round" stroke-linejoin="round"/></svg>