<svg width="60" height="60" viewBox="-1.875 -1.875 60 60" xmlns="http://www.w3.org/2000/svg" xmlns:xlink="http://www.w3.org/1999/xlink" id="Ai-Settings-Robot--Streamline-Ultimate" fill="none" overflow="hidden"><path d="M39.2086 38.9648 49.4883 38.9648C49.4883 38.9648 54.1758 38.9648 54.1758 43.6523L54.1758 49.568C54.1758 49.568 54.1758 54.2555 49.4883 54.2555L39.2086 54.2555C39.2086 54.2555 34.5211 54.2555 34.5211 49.568L34.5211 43.6523C34.5211 43.6523 34.5211 38.9648 39.2086 38.9648" stroke="#66737C" stroke-width="3.33333" stroke-linejoin="round"/><path d="M44.3482 32.9339 44.3482 38.9648" stroke="#66737C" stroke-width="3.33333" stroke-linecap="round" stroke-linejoin="round"/><path d="M40.7501 45.7465 40.7501 47.4792" stroke="#66737C" stroke-width="3.33333" stroke-linecap="round" stroke-linejoin="round"/><path d="M47.9484 45.7465 47.9484 47.4792" stroke="#66737C" stroke-width="3.33333" stroke-linecap="round" stroke-linejoin="round"/><path d="M42.2768 25.9223C42.2768 25.0458 42.2159 24.1835 42.0977 23.3399L44.6974 20.2161C45.9534 18.7067 46.1358 16.5744 45.1538 14.8739L44.0782 13.0108C43.0964 11.3102 41.1586 10.4019 39.2236 10.735L35.2195 11.4243C33.8843 10.3793 32.4002 9.51558 30.8044 8.8699L29.4009 5.06229C28.7217 3.2198 26.9662 1.99585 25.0027 1.99585L22.8514 1.99585C20.8877 1.99585 19.1322 3.2198 18.4531 5.06229L17.0509 8.86685C15.4548 9.51138 13.9698 10.3738 12.633 11.4176L8.63573 10.7294C6.70055 10.3963 4.76283 11.3047 3.78098 13.0052L2.70537 14.8683C1.72353 16.5688 1.90573 18.7012 3.16184 20.2105L5.74762 23.3176C5.62983 24.1584 5.56891 25.0179 5.56891 25.8916L5.56891 25.9223C5.56891 26.7785 5.62755 27.6213 5.74106 28.4468L3.15818 31.5504C1.90208 33.0598 1.71988 35.1921 2.70171 36.8925L3.77735 38.7555C4.75917 40.4562 6.69689 41.3646 8.63208 41.0316L12.5761 40.3526C13.9326 41.4206 15.4438 42.3016 17.0711 42.9562L18.4525 46.7041C19.1315 48.5466 20.8871 49.7707 22.8507 49.7707L25.002 49.7707C26.0243 49.7707 26.9902 49.4388 27.777 48.8609" stroke="#66737C" stroke-width="3.33333" stroke-linecap="round" stroke-linejoin="round"/><path d="M15.2115 25.8893C15.2115 30.6987 19.1055 34.6071 23.9292 34.6071 28.7386 34.6071 32.647 30.7132 32.647 25.8893 32.647 21.0655 28.7531 17.157 23.9292 17.157 19.12 17.157 15.2115 21.051 15.2115 25.8748L15.2115 25.8893Z" stroke="#66737C" stroke-width="3.33333" stroke-linecap="round" stroke-linejoin="round"/></svg>