<svg width="60" height="60" viewBox="-1.875 -1.875 60 60" xmlns="http://www.w3.org/2000/svg" xmlns:xlink="http://www.w3.org/1999/xlink" id="Ai-Science-Robot--Streamline-Ultimate" fill="none" overflow="hidden"><path d="M39.2742 8.00156 49.5539 8.00156C49.5539 8.00156 54.2414 8.00156 54.2414 12.6891L54.2414 18.6047C54.2414 18.6047 54.2414 23.2922 49.5539 23.2922L39.2742 23.2922C39.2742 23.2922 34.5867 23.2922 34.5867 18.6047L34.5867 12.6891C34.5867 12.6891 34.5867 8.00156 39.2742 8.00156" stroke="#66737C" stroke-width="3.33333" stroke-linejoin="round"/><path d="M44.4145 1.97083 44.4145 8.0017" stroke="#66737C" stroke-width="3.33333" stroke-linecap="round" stroke-linejoin="round"/><path d="M40.8164 14.7833 40.8164 16.5161" stroke="#66737C" stroke-width="3.33333" stroke-linecap="round" stroke-linejoin="round"/><path d="M48.0127 14.7833 48.0127 16.5161" stroke="#66737C" stroke-width="3.33333" stroke-linecap="round" stroke-linejoin="round"/><path d="M13.5899 42.4861C23.1279 52.0242 33.2468 57.4085 38.8601 51.795 44.4602 46.1951 39.1181 36.0916 29.5512 26.5249 19.9843 16.958 9.86555 11.5738 4.2522 17.1872-1.34786 22.7872 3.99417 32.8905 13.5611 42.4573L13.5899 42.4861Z" stroke="#66737C" stroke-width="3.33333" stroke-linecap="round" stroke-linejoin="round"/><path d="M27.6255 16.1929C23.2264 18.0369 18.3421 21.7466 13.5901 26.4987L13.5613 26.5275C4.02321 36.0654-1.36094 46.1843 4.25241 51.7976 9.85245 57.3977 19.9557 52.0556 29.5226 42.4887 34.0034 38.0081 37.5663 33.4064 39.5119 29.2031" stroke="#66737C" stroke-width="3.33333" stroke-linecap="round" stroke-linejoin="round"/></svg>