<svg width="60" height="60" viewBox="-1.875 -1.875 60 60" xmlns="http://www.w3.org/2000/svg" xmlns:xlink="http://www.w3.org/1999/xlink" id="Ai-Vehicle-Robot-1--Streamline-Ultimate" fill="none" overflow="hidden"><path d="M37.4634 37.3502 11.2595 37.3502 14.1631 29.5535C15.0342 27.2433 17.3572 25.7995 19.6801 25.7995L29.0428 25.7995C31.3657 25.7995 33.6886 27.2433 34.5598 29.5535L37.4634 37.3502Z" stroke="#66737C" stroke-width="3.33333" stroke-linecap="round" stroke-linejoin="round" stroke-miterlimit="10"/><path d="M38.4073 49.9758 42.7629 49.9758C44.505 49.9758 45.6666 48.8142 45.6666 47.0721L45.6666 43.1609C45.6666 39.9668 43.0533 37.3535 39.8592 37.3535L7.91883 37.3535C4.72479 37.3535 2.11149 39.9668 2.11149 43.1609L2.11149 47.0721C2.11149 48.8142 3.27295 49.9758 5.01516 49.9758L9.37066 49.9758" stroke="#66737C" stroke-width="3.33333" stroke-linecap="round" stroke-linejoin="round" stroke-miterlimit="10"/><path d="M18.085 49.9695 29.6998 49.9695" stroke="#66737C" stroke-width="3.33333" stroke-linecap="round" stroke-linejoin="round" stroke-miterlimit="10"/><path d="M34.0554 54.3408C31.65 54.3408 29.7 52.3908 29.7 49.9854 29.7 47.58 31.65 45.63 34.0554 45.63 36.461 45.63 38.411 47.58 38.411 49.9854 38.411 52.3908 36.461 54.3408 34.0554 54.3408Z" stroke="#66737C" stroke-width="3.33333" stroke-linecap="round" stroke-linejoin="round" stroke-miterlimit="10"/><path d="M13.7262 54.3408C11.3207 54.3408 9.37066 52.3908 9.37066 49.9854 9.37066 47.58 11.3207 45.63 13.7262 45.63 16.1316 45.63 18.0817 47.58 18.0817 49.9854 18.0817 52.3908 16.1316 54.3408 13.7262 54.3408Z" stroke="#66737C" stroke-width="3.33333" stroke-linecap="round" stroke-linejoin="round" stroke-miterlimit="10"/><path d="M39.1664 7.94766 49.4461 7.94766C49.4461 7.94766 54.1336 7.94766 54.1336 12.6352L54.1336 18.5508C54.1336 18.5508 54.1336 23.2383 49.4461 23.2383L39.1664 23.2383C39.1664 23.2383 34.4789 23.2383 34.4789 18.5508L34.4789 12.6352C34.4789 12.6352 34.4789 7.94766 39.1664 7.94766" stroke="#66737C" stroke-width="3.33333" stroke-linejoin="round"/><path d="M44.307 1.9159 44.307 7.94677" stroke="#66737C" stroke-width="3.33333" stroke-linecap="round" stroke-linejoin="round"/><path d="M40.7088 14.7284 40.7088 16.4612" stroke="#66737C" stroke-width="3.33333" stroke-linecap="round" stroke-linejoin="round"/><path d="M47.9051 14.7284 47.9051 16.4612" stroke="#66737C" stroke-width="3.33333" stroke-linecap="round" stroke-linejoin="round"/></svg>