<svg width="60" height="60" viewBox="-1.875 -1.875 60 60" xmlns="http://www.w3.org/2000/svg" xmlns:xlink="http://www.w3.org/1999/xlink" id="Aircraft-Military-Plane-1--Streamline-Ultimate" overflow="hidden"><path d="M17.5781 29.8828C17.5781 35.7077 22.3001 40.4297 28.125 40.4297 33.9499 40.4297 38.6719 35.7077 38.6719 29.8828 38.6719 24.0579 33.9499 19.3359 28.125 19.3359 22.3001 19.3359 17.5781 24.0579 17.5781 29.8828Z" stroke="#66737C" stroke-width="3.57143" stroke-linecap="round" stroke-linejoin="round" fill="none"/><path d="M24.6094 26.3672 31.6406 26.3672" stroke="#66737C" stroke-width="3.57143" stroke-linecap="round" stroke-linejoin="round" fill="none"/><path d="M28.125 19.3359 28.125 12.3047" stroke="#66737C" stroke-width="3.57143" stroke-linecap="round" stroke-linejoin="round" fill="none"/><path d="M1.75781 31.6406 17.5781 29.8828" stroke="#66737C" stroke-width="3.57143" stroke-linecap="round" stroke-linejoin="round" fill="none"/><path d="M8.78906 30.8602 8.78906 35.1562" stroke="#66737C" stroke-width="3.57143" stroke-linecap="round" stroke-linejoin="round" fill="none"/><path d="M5.27344 38.6719C5.27344 40.6135 6.84744 42.1875 8.78906 42.1875 10.7307 42.1875 12.3047 40.6135 12.3047 38.6719 12.3047 36.7302 10.7307 35.1562 8.78906 35.1562 6.84744 35.1562 5.27344 36.7302 5.27344 38.6719Z" stroke="#66737C" stroke-width="3.57143" stroke-linecap="round" stroke-linejoin="round" fill="none"/><path d="M54.4922 31.6406 38.6719 29.8828" stroke="#66737C" stroke-width="3.57143" stroke-linecap="round" stroke-linejoin="round" fill="none"/><path d="M47.4609 30.8602 47.4609 35.1562" stroke="#66737C" stroke-width="3.57143" stroke-linecap="round" stroke-linejoin="round" fill="none"/><path d="M43.9453 38.6719C43.9453 40.6135 45.5193 42.1875 47.4609 42.1875 49.4026 42.1875 50.9766 40.6135 50.9766 38.6719 50.9766 36.7302 49.4026 35.1562 47.4609 35.1562 45.5193 35.1562 43.9453 36.7302 43.9453 38.6719Z" stroke="#66737C" stroke-width="3.57143" stroke-linecap="round" stroke-linejoin="round" fill="none"/></svg>