<svg width="60" height="60" viewBox="-1.875 -1.875 60 60" xmlns="http://www.w3.org/2000/svg" xmlns:xlink="http://www.w3.org/1999/xlink" id="Aircraft-Chopper-2--Streamline-Ultimate" overflow="hidden"><path d="M12.4594 17.5781 34.4531 17.5781C43.5714 17.5754 51.5468 23.7171 53.8734 32.5336 54.2695 33.9607 54.479 35.4331 54.4969 36.9141 54.5624 39.761 52.3076 42.1221 49.4606 42.1876 49.38 42.1895 49.2994 42.1894 49.2187 42.1875L29.8828 42.1875C27.7784 42.1843 25.9027 40.86 25.1953 38.8781L22.3359 30.8719C21.7244 29.1633 20.2781 27.8887 18.5063 27.4969L8.23359 25.2258C6.48605 24.8444 5.05118 23.6027 4.42266 21.9281L1.9875 15.4359C1.28676 13.5642 2.23602 11.4789 4.10773 10.7781 5.61186 10.215 7.30719 10.7106 8.27109 11.9953Z" stroke="#66737C" stroke-width="3.57143" stroke-linecap="round" stroke-linejoin="round" fill="none"/><path d="M33.3984 17.5781 33.3984 3.51562" stroke="#66737C" stroke-width="3.57143" stroke-linecap="round" stroke-linejoin="round" fill="none"/><path d="M54.4922 7.03125 12.3047 7.03125" stroke="#66737C" stroke-width="3.57143" stroke-linecap="round" stroke-linejoin="round" fill="none"/><path d="M36.9141 24.6094 36.9141 17.7281C44.724 18.6943 51.2501 24.1329 53.6086 31.6406L43.9453 31.6406C40.0621 31.6406 36.9141 28.4926 36.9141 24.6094Z" stroke="#66737C" stroke-width="3.57143" stroke-linecap="round" stroke-linejoin="round" fill="none"/><path d="M54.4922 49.2188C54.4922 51.1604 52.9182 52.7344 50.9766 52.7344L26.3672 52.7344C24.4256 52.7344 22.8516 51.1604 22.8516 49.2188" stroke="#66737C" stroke-width="3.57143" stroke-linecap="round" stroke-linejoin="round" fill="none"/><path d="M49.2188 52.7344 43.9453 42.1875" stroke="#66737C" stroke-width="3.57143" stroke-linecap="round" stroke-linejoin="round" fill="none"/><path d="M28.125 52.7344 33.3984 42.1875" stroke="#66737C" stroke-width="3.57143" stroke-linecap="round" stroke-linejoin="round" fill="none"/></svg>