<svg width="60" height="60" viewBox="-1.875 -1.875 60 60" xmlns="http://www.w3.org/2000/svg" xmlns:xlink="http://www.w3.org/1999/xlink" id="Airport-Signal--Streamline-Ultimate" overflow="hidden"><g><path d="M43.5703 54.1641 12.6797 54.1641C11.7089 54.1552 10.9291 53.3611 10.9379 52.3904 10.9389 52.2856 10.9492 52.1811 10.9688 52.0781L13.5 41.7656C13.8244 40.1192 15.2672 38.9316 16.9453 38.9297L39.3047 38.9297C40.9828 38.9316 42.4256 40.1192 42.75 41.7656L45.2812 52.0781C45.4625 53.0319 44.8363 53.952 43.8825 54.1332 43.7796 54.1528 43.6751 54.1631 43.5703 54.1641Z" stroke="#66737C" stroke-width="3.33333" stroke-linecap="round" stroke-linejoin="round" fill="none"/><path d="M38.6719 38.9297 17.5781 38.9297 17.5781 31.3125C17.5907 30.347 18.3704 29.5673 19.3359 29.5547L36.9141 29.5547C37.8796 29.5673 38.6593 30.347 38.6719 31.3125Z" stroke="#66737C" stroke-width="3.33333" stroke-linecap="round" stroke-linejoin="round" fill="none"/><path d="M35.1562 20.1797 21.0938 20.1797C20.4866 20.219 19.9626 19.7587 19.9233 19.1516 19.9227 19.1428 19.9222 19.1339 19.9219 19.125L19.9219 9.51562C19.9596 8.90337 20.4809 8.43422 21.0938 8.46094L35.1562 8.46094C35.7691 8.43422 36.2904 8.90337 36.3281 9.51562L36.3281 19.125C36.3035 19.7329 35.7908 20.2057 35.1829 20.1811 35.174 20.1807 35.1651 20.1803 35.1562 20.1797Z" stroke="#66737C" stroke-width="3.33333" stroke-linecap="round" stroke-linejoin="round" fill="none"/><path d="M28.125 19.0078 28.125 29.5547" stroke="#66737C" stroke-width="3.33333" stroke-linecap="round" stroke-linejoin="round" fill="none"/><g><path d="M43.7578 21.2109C46.2663 16.5505 46.2663 10.9417 43.7578 6.28125" stroke="#66737C" stroke-width="3.33333" stroke-linecap="round" stroke-linejoin="round" fill="none"/><path d="M12.4922 6.28125C9.98368 10.9417 9.98368 16.5505 12.4922 21.2109" stroke="#66737C" stroke-width="3.33333" stroke-linecap="round" stroke-linejoin="round" fill="none"/></g><g><path d="M4.6875 2.08594C0.732698 9.39794 0.732698 18.2114 4.6875 25.5234" stroke="#66737C" stroke-width="3.33333" stroke-linecap="round" stroke-linejoin="round" fill="none"/><path d="M51.5625 25.4062C55.4752 18.1252 55.4752 9.36702 51.5625 2.08594" stroke="#66737C" stroke-width="3.33333" stroke-linecap="round" stroke-linejoin="round" fill="none"/></g><path d="M28.125 8.46094 28.125 19.0078" stroke="#66737C" stroke-width="3.33333" stroke-linecap="round" stroke-linejoin="round" fill="none"/><path d="M28.125 47.7188 28.125 54.1641" stroke="#66737C" stroke-width="3.33333" stroke-linecap="round" stroke-linejoin="round" fill="none"/></g></svg>