<svg width="60" height="60" viewBox="-2.14 -2.14 60 60" xmlns="http://www.w3.org/2000/svg" xmlns:xlink="http://www.w3.org/1999/xlink" id="Airport-Signal--Streamline-Ultimate.svg" overflow="hidden"><defs></defs><path d="M18.5733 35.9858 18.5733 29.0208C18.5733 27.7386 19.6128 26.6992 20.895 26.6992L34.825 26.6992C36.1072 26.6992 37.1467 27.7386 37.1467 29.0208L37.1467 35.9858" stroke="#66737C" stroke-width="3.57143" stroke-linecap="round" stroke-linejoin="round" fill="none"/><path d="M27.8484 26.6945 27.8484 19.7295" stroke="#66737C" stroke-width="3.57143" stroke-linecap="round" stroke-linejoin="round" fill="none"/><path d="M20.8834 3.47786 34.8134 3.47786C34.8134 3.47786 39.4567 3.47786 39.4567 8.12119L39.4567 15.0862C39.4567 15.0862 39.4567 19.7295 34.8134 19.7295L20.8834 19.7295C20.8834 19.7295 16.2401 19.7295 16.2401 15.0862L16.2401 8.12119C16.2401 8.12119 16.2401 3.47786 20.8834 3.47786" stroke="#66737C" stroke-width="3.57143" stroke-linecap="round" stroke-linejoin="round" fill="none"/><path d="M23.2051 3.47786 23.2051 19.7295" stroke="#66737C" stroke-width="3.57143" stroke-linecap="round" stroke-linejoin="round" fill="none"/><path d="M32.4917 3.47786 32.4917 19.7295" stroke="#66737C" stroke-width="3.57143" stroke-linecap="round" stroke-linejoin="round" fill="none"/><path d="M45.3027 5.24232C46.8 9.36816 46.7934 13.89 45.2841 18.0115" stroke="#66737C" stroke-width="3.57143" stroke-linecap="round" stroke-linejoin="round" fill="none"/><path d="M49.8857 1.16083C52.9715 7.69545 53.0064 15.2609 49.9808 21.8237" stroke="#66737C" stroke-width="3.57143" stroke-linecap="round" stroke-linejoin="round" fill="none"/><path d="M10.4127 5.24232C8.92004 9.36926 8.92826 13.89 10.4359 18.0115" stroke="#66737C" stroke-width="3.57143" stroke-linecap="round" stroke-linejoin="round" fill="none"/><path d="M5.83435 1.16083C2.74846 7.69545 2.71361 15.2609 5.73916 21.8237" stroke="#66737C" stroke-width="3.57143" stroke-linecap="round" stroke-linejoin="round" fill="none"/><path d="M11.1579 37.7387C11.4167 36.7057 12.345 35.9812 13.4099 35.9812L42.2868 35.9812C43.3517 35.9812 44.2801 36.7057 44.5389 37.7387L48.3835 53.1104C48.54 53.7322 48.1628 54.363 47.541 54.5194 47.4483 54.5428 47.3531 54.5545 47.2575 54.5545L8.43926 54.5545C7.79815 54.5547 7.27831 54.0351 7.27816 53.394 7.27814 53.2984 7.28993 53.2031 7.31325 53.1104Z" stroke="#66737C" stroke-width="3.57143" stroke-linecap="round" stroke-linejoin="round" fill="none"/><path d="M32.5033 54.5592 32.5033 44.1117C32.5033 43.4706 31.9836 42.9508 31.3425 42.9508L24.3775 42.9508C23.7364 42.9508 23.2167 43.4706 23.2167 44.1117L23.2167 54.5592" stroke="#66737C" stroke-width="3.57143" stroke-linecap="round" stroke-linejoin="round" fill="none"/></svg>