<svg width="60" height="60" viewBox="-1.875 -1.875 60 60" xmlns="http://www.w3.org/2000/svg" xmlns:xlink="http://www.w3.org/1999/xlink" id="Amazon-Neptune--Streamline-Ultimate" fill="none" overflow="hidden"><path d="M28.0078 16.9922C25.6641 17.4609 22.8515 17.6953 20.039 17.6953 9.96091 17.6953 1.75781 14.1797 1.75781 9.72656 1.75781 5.27344 9.96091 1.75781 20.039 1.75781 30.1172 1.75781 38.3203 5.27344 38.3203 9.72656" stroke="#66737C" stroke-width="3.33333" stroke-linecap="round" stroke-linejoin="round" stroke-miterlimit="10"/><path d="M1.75781 9.72633 1.75781 21.9138C1.75781 26.367 9.96091 29.8826 20.039 29.8826 21.914 29.8826 24.0234 29.6482 25.6641 29.4138" stroke="#66737C" stroke-width="3.33333" stroke-linecap="round" stroke-linejoin="round" stroke-miterlimit="10"/><path d="M1.75781 21.914 1.75781 34.1016C1.75781 37.3828 5.97656 40.1953 12.3047 41.3672" stroke="#66737C" stroke-width="3.33333" stroke-linecap="round" stroke-linejoin="round" stroke-miterlimit="10"/><path d="M36.9141 42.3047C40.1501 42.3047 42.7734 39.6816 42.7734 36.4453 42.7734 33.2093 40.1501 30.5859 36.9141 30.5859 33.678 30.5859 31.0547 33.2093 31.0547 36.4453 31.0547 39.6816 33.678 42.3047 36.9141 42.3047Z" stroke="#66737C" stroke-width="3.33333" stroke-linecap="round" stroke-linejoin="round" stroke-miterlimit="10"/><path d="M36.9141 24.7266C38.8556 24.7266 40.4297 23.1527 40.4297 21.2111 40.4297 19.2694 38.8556 17.6954 36.9141 17.6954 34.9725 17.6954 33.3984 19.2694 33.3984 21.2111 33.3984 23.1527 34.9725 24.7266 36.9141 24.7266Z" stroke="#66737C" stroke-width="3.33333" stroke-linecap="round" stroke-linejoin="round" stroke-miterlimit="10"/><path d="M22.8516 45.8203C24.7931 45.8203 26.3672 44.2465 26.3672 42.3047 26.3672 40.3631 24.7931 38.7891 22.8516 38.7891 20.9099 38.7891 19.3359 40.3631 19.3359 42.3047 19.3359 44.2465 20.9099 45.8203 22.8516 45.8203Z" stroke="#66737C" stroke-width="3.33333" stroke-linecap="round" stroke-linejoin="round" stroke-miterlimit="10"/><path d="M36.9141 54.4922C38.8556 54.4922 40.4297 52.9181 40.4297 50.9766 40.4297 49.035 38.8556 47.4609 36.9141 47.4609 34.9725 47.4609 33.3984 49.035 33.3984 50.9766 33.3984 52.9181 34.9725 54.4922 36.9141 54.4922Z" stroke="#66737C" stroke-width="3.33333" stroke-linecap="round" stroke-linejoin="round" stroke-miterlimit="10"/><path d="M50.9766 50.5078C52.9181 50.5078 54.4922 48.934 54.4922 46.9922 54.4922 45.0506 52.9181 43.4766 50.9766 43.4766 49.035 43.4766 47.4609 45.0506 47.4609 46.9922 47.4609 48.934 49.035 50.5078 50.9766 50.5078Z" stroke="#66737C" stroke-width="3.33333" stroke-linecap="round" stroke-linejoin="round" stroke-miterlimit="10"/><path d="M40.3127 50.0735 47.5849 47.9353" stroke="#66737C" stroke-width="3.33333" stroke-linecap="round" stroke-linejoin="round" stroke-miterlimit="10"/><path d="M36.9141 42.3047 36.9141 47.4609" stroke="#66737C" stroke-width="3.33333" stroke-linecap="round" stroke-linejoin="round" stroke-miterlimit="10"/><path d="M26.1907 41.2212 31.4679 38.5826" stroke="#66737C" stroke-width="3.33333" stroke-linecap="round" stroke-linejoin="round" stroke-miterlimit="10"/><path d="M36.9141 24.7266 36.9141 30.5859" stroke="#66737C" stroke-width="3.33333" stroke-linecap="round" stroke-linejoin="round" stroke-miterlimit="10"/></svg>