<svg width="60" height="60" viewBox="-1.875 -1.875 60 60" xmlns="http://www.w3.org/2000/svg" xmlns:xlink="http://www.w3.org/1999/xlink" id="Amazon-Elastic-Service-Operational-Analytics--Streamline-Ultimate" fill="none" overflow="hidden"><path d="M36.9141 49.5703C43.7745 49.5703 49.3359 44.0091 49.3359 37.1487 49.3359 30.288 43.7745 24.7266 36.9141 24.7266 30.0537 24.7266 24.4922 30.288 24.4922 37.1487 24.4922 44.0091 30.0537 49.5703 36.9141 49.5703Z" stroke="#66737C" stroke-width="3.33333" stroke-linecap="round" stroke-linejoin="round" stroke-miterlimit="10"/><path d="M54.4922 54.4922 45.8156 45.8156" stroke="#66737C" stroke-width="3.33333" stroke-linecap="round" stroke-linejoin="round" stroke-miterlimit="10"/><path d="M9.25781 52.148C9.25781 53.5542 8.32031 54.4917 6.91406 54.4917L4.10156 54.4917C2.69531 54.4917 1.75781 53.5542 1.75781 52.148L1.75781 25.898C1.75781 24.4917 2.69531 23.5542 4.10156 23.5542L6.91406 23.5542C8.32031 23.5542 9.25781 24.4917 9.25781 25.898L9.25781 52.148Z" stroke="#66737C" stroke-width="3.33333" stroke-linecap="round" stroke-linejoin="round" stroke-miterlimit="10"/><path d="M24.0234 50.2727 24.0234 52.1477C24.0234 53.554 23.0861 54.4915 21.6798 54.4915L18.8673 54.4915C17.4611 54.4915 16.5236 53.554 16.5236 52.1477L16.5236 19.804C16.5236 18.3978 17.4611 17.4603 18.8673 17.4603L21.6798 17.4603C23.0861 17.4603 24.0234 18.3978 24.0234 19.804L24.0234 22.1478" stroke="#66737C" stroke-width="3.33333" stroke-linecap="round" stroke-linejoin="round" stroke-miterlimit="10"/><path d="M31.0547 15.3516 31.0547 4.10156C31.0547 2.69531 31.9922 1.75781 33.3984 1.75781L36.9141 1.75781C38.3203 1.75781 39.2578 2.69531 39.2578 4.10156L39.2578 15.3516" stroke="#66737C" stroke-width="3.33333" stroke-linecap="round" stroke-linejoin="round" stroke-miterlimit="10"/><path d="M46.2891 16.0547 46.2891 9.96094C46.2891 8.55469 47.2266 7.61719 48.6328 7.61719L52.1484 7.61719C53.5547 7.61719 54.4922 8.55469 54.4922 9.96094L54.4922 39.2578" stroke="#66737C" stroke-width="3.33333" stroke-linecap="round" stroke-linejoin="round" stroke-miterlimit="10"/></svg>