<svg width="60" height="60" viewBox="-3.075 -1.875 60 60" xmlns="http://www.w3.org/2000/svg" xmlns:xlink="http://www.w3.org/1999/xlink" id="Amazon-Web-Service-Organizations-Circle--Streamline-Ultimate" fill="none" overflow="hidden"><path d="M37.9125 21.0381 26.6625 27.3379 15.4126 21.0381 15.4126 8.88802 26.6625 2.81304 37.9125 8.88802 37.9125 21.0381Z" stroke="#66737C" stroke-width="3.33333" stroke-linecap="round" stroke-linejoin="round" stroke-miterlimit="10"/><path d="M37.9125 8.88849 26.6625 15.1885 15.4126 8.88849" stroke="#66737C" stroke-width="3.33333" stroke-linecap="round" stroke-linejoin="round" stroke-miterlimit="10"/><path d="M26.6625 15.188 26.6625 27.3377" stroke="#66737C" stroke-width="3.33333" stroke-linecap="round" stroke-linejoin="round" stroke-miterlimit="10"/><path d="M26.6625 32.2882 26.6625 43.5377" stroke="#66737C" stroke-width="3.33333" stroke-linecap="round" stroke-linejoin="round" stroke-miterlimit="10"/><path d="M8.2127 43.5377 8.2127 38.6208C8.2127 36.9817 9.1127 35.8891 10.4627 35.8891L44.2127 35.8891C45.5627 35.8891 46.4627 36.9817 46.4627 38.6208L46.4627 43.5377" stroke="#66737C" stroke-width="3.33333" stroke-linecap="round" stroke-linejoin="round" stroke-miterlimit="10"/><path d="M26.6627 53.4377C29.3965 53.4377 31.6127 51.2215 31.6127 48.4877 31.6127 45.754 29.3965 43.5377 26.6627 43.5377 23.929 43.5377 21.7127 45.754 21.7127 48.4877 21.7127 51.2215 23.929 53.4377 26.6627 53.4377Z" stroke="#66737C" stroke-width="3.33333" stroke-linecap="round" stroke-linejoin="round" stroke-miterlimit="10"/><path d="M45.7875 53.4377C48.5213 53.4377 50.7375 51.2215 50.7375 48.4877 50.7375 45.754 48.5213 43.5377 45.7875 43.5377 43.0537 43.5377 40.8375 45.754 40.8375 48.4877 40.8375 51.2215 43.0537 53.4377 45.7875 53.4377Z" stroke="#66737C" stroke-width="3.33333" stroke-linecap="round" stroke-linejoin="round" stroke-miterlimit="10"/><path d="M8.21255 53.4377C10.9463 53.4377 13.1625 51.2215 13.1625 48.4877 13.1625 45.754 10.9463 43.5377 8.21255 43.5377 5.47873 43.5377 3.26252 45.754 3.26252 48.4877 3.26252 51.2215 5.47873 53.4377 8.21255 53.4377Z" stroke="#66737C" stroke-width="3.33333" stroke-linecap="round" stroke-linejoin="round" stroke-miterlimit="10"/></svg>