<svg width="60" height="60" viewBox="-2.14 -2.14 60 60" xmlns="http://www.w3.org/2000/svg" xmlns:xlink="http://www.w3.org/1999/xlink" id="Amazon-Web-Service-License-Manager-1--Streamline-Ultimate.svg" fill="none" overflow="hidden"><path d="M37.728 39.1565 35.8707 52.9839C35.6385 54.6244 37.4958 55.7962 38.8888 54.6244L43.5322 49.9372 48.1755 54.6244C49.3363 55.7962 51.4258 54.8587 51.1937 52.9839L49.3363 39.1565" stroke="#66737C" stroke-width="3.57143" stroke-linecap="round" stroke-linejoin="round" stroke-miterlimit="10"/><path d="M43.5312 40.9308C49.3013 40.9308 53.9787 36.2533 53.9787 30.4833 53.9787 24.7132 49.3013 20.0357 43.5312 20.0357 37.7612 20.0357 33.0838 24.7132 33.0838 30.4833 33.0838 36.2533 37.7612 40.9308 43.5312 40.9308Z" stroke="#66737C" stroke-width="3.57143" stroke-linecap="round" stroke-linejoin="round" stroke-miterlimit="10"/><path d="M43.5312 29.5548C43.0669 29.5548 42.6026 30.0191 42.6026 30.4835 42.6026 30.9478 43.0669 31.4121 43.5312 31.4121" stroke="#66737C" stroke-width="3.57143" stroke-linecap="round" stroke-linejoin="round" stroke-miterlimit="10"/><path d="M43.531 29.5548C43.9953 29.5548 44.4597 30.0191 44.4597 30.4835 44.4597 30.9478 43.9953 31.4121 43.531 31.4121" stroke="#66737C" stroke-width="3.57143" stroke-linecap="round" stroke-linejoin="round" stroke-miterlimit="10"/><path d="M27.2796 55.1396 4.06292 55.1396C2.66992 55.1396 1.74125 54.2109 1.74125 52.8179L1.74125 5.22375C1.74125 3.83075 2.66992 2.90208 4.06292 2.90208L27.5117 2.90208C27.9761 2.90208 28.6726 3.1343 29.1369 3.59863L40.5131 13.8139" stroke="#66737C" stroke-width="3.57143" stroke-linecap="round" stroke-linejoin="round" stroke-miterlimit="10"/><path d="M11.9564 17.9929 27.2794 17.9929" stroke="#66737C" stroke-width="3.57143" stroke-linecap="round" stroke-linejoin="round" stroke-miterlimit="10"/><path d="M11.9564 29.6012 27.2794 29.6012" stroke="#66737C" stroke-width="3.57143" stroke-linecap="round" stroke-linejoin="round" stroke-miterlimit="10"/><path d="M11.9564 41.2096 23.5647 41.2096" stroke="#66737C" stroke-width="3.57143" stroke-linecap="round" stroke-linejoin="round" stroke-miterlimit="10"/></svg>