<svg width="60" height="60" viewBox="-1.875 -1.875 60 60" xmlns="http://www.w3.org/2000/svg" xmlns:xlink="http://www.w3.org/1999/xlink" id="Amazon-Braket-Quantum-Computing--Streamline-Ultimate" fill="none" overflow="hidden"><path d="M32.592 9.21893C39.0084 3.71899 44.7394 1.10292 47.0309 2.93623 50.6864 5.90641 45.9138 18.216 36.1198 31.0078" stroke="#66737C" stroke-width="3.33333" stroke-linecap="round" stroke-linejoin="round" stroke-miterlimit="10"/><path d="M32.5936 41.262C35.7577 41.262 38.3227 38.697 38.3227 35.5329 38.3227 32.3688 35.7577 29.8038 32.5936 29.8038 29.4295 29.8038 26.8645 32.3688 26.8645 35.5329 26.8645 38.697 29.4295 41.262 32.5936 41.262Z" stroke="#66737C" stroke-width="3.33333" stroke-linecap="round" stroke-linejoin="round" stroke-miterlimit="10"/><path d="M28.8223 39.8334C19.2357 50.0768 10.1232 55.9821 6.69823 53.242 4.8649 51.638 5.09405 47.742 7.38567 42.2421L8.06686 40.5513" stroke="#66737C" stroke-width="3.33333" stroke-linecap="round" stroke-linejoin="round" stroke-miterlimit="10"/><path d="M29.8437 48.176 42.4479 48.176C44.9686 48.176 47.0311 46.1138 47.0311 43.5928L47.0311 13.8015C47.0311 11.2807 44.9686 9.21823 42.4479 9.21823L32.5938 9.21823" stroke="#66737C" stroke-width="3.33333" stroke-linecap="round" stroke-linejoin="round" stroke-miterlimit="10"/><path d="M25.7187 9.21823 12.6564 9.21823C10.1356 9.21823 8.07309 11.2807 8.07309 13.8015L8.07309 43.5928C8.07309 46.1138 10.1356 48.176 12.6564 48.176L19.9552 48.176" stroke="#66737C" stroke-width="3.33333" stroke-linecap="round" stroke-linejoin="round" stroke-miterlimit="10"/><path d="M2.34403 12.656 8.21637 12.656" stroke="#66737C" stroke-width="3.33333" stroke-linecap="round" stroke-linejoin="round" stroke-miterlimit="10"/><path d="M2.34403 22.9683 8.07314 22.9683" stroke="#66737C" stroke-width="3.33333" stroke-linecap="round" stroke-linejoin="round" stroke-miterlimit="10"/><path d="M2.34403 33.2805 8.07314 33.2805" stroke="#66737C" stroke-width="3.33333" stroke-linecap="round" stroke-linejoin="round" stroke-miterlimit="10"/><path d="M47.0311 22.9683 53.906 22.9683" stroke="#66737C" stroke-width="3.33333" stroke-linecap="round" stroke-linejoin="round" stroke-miterlimit="10"/><path d="M47.0311 33.2805 53.906 33.2805" stroke="#66737C" stroke-width="3.33333" stroke-linecap="round" stroke-linejoin="round" stroke-miterlimit="10"/><path d="M53.906 43.5928 47.0311 43.5928" stroke="#66737C" stroke-width="3.33333" stroke-linecap="round" stroke-linejoin="round" stroke-miterlimit="10"/><path d="M43.5935 53.9067 43.5935 48.0342" stroke="#66737C" stroke-width="3.33333" stroke-linecap="round" stroke-linejoin="round" stroke-miterlimit="10"/><path d="M33.2812 53.9053 33.2812 48.1763" stroke="#66737C" stroke-width="3.33333" stroke-linecap="round" stroke-linejoin="round" stroke-miterlimit="10"/><path d="M22.9689 9.21867 22.9689 2.34375" stroke="#66737C" stroke-width="3.33333" stroke-linecap="round" stroke-linejoin="round" stroke-miterlimit="10"/><path d="M12.6565 2.34375 12.6565 9.21867" stroke="#66737C" stroke-width="3.33333" stroke-linecap="round" stroke-linejoin="round" stroke-miterlimit="10"/></svg>