<svg width="60" height="60" viewBox="-2.14 -2.14 60 60" xmlns="http://www.w3.org/2000/svg" xmlns:xlink="http://www.w3.org/1999/xlink" id="Amazon-Web-Service-Scaling--Streamline-Ultimate.svg" fill="none" overflow="hidden"><path d="M16.8321 51.6571C16.8321 53.0501 15.9034 53.9787 14.5104 53.9787L4.06292 53.9787C2.66992 53.9787 1.74125 53.0501 1.74125 51.6571L1.74125 41.2096C1.74125 39.8166 2.66992 38.8879 4.06292 38.8879L14.5104 38.8879C15.9034 38.8879 16.8321 39.8166 16.8321 41.2096L16.8321 51.6571Z" stroke="#66737C" stroke-width="3.57143" stroke-linecap="round" stroke-linejoin="round" stroke-miterlimit="10"/><path d="M1.74125 30.1817 1.74125 25.5383" stroke="#66737C" stroke-width="3.57143" stroke-linecap="round" stroke-linejoin="round" stroke-miterlimit="10"/><path d="M1.74125 18.5733 1.74125 13.93" stroke="#66737C" stroke-width="3.57143" stroke-linecap="round" stroke-linejoin="round" stroke-miterlimit="10"/><path d="M53.9787 30.1817 53.9787 25.5383" stroke="#66737C" stroke-width="3.57143" stroke-linecap="round" stroke-linejoin="round" stroke-miterlimit="10"/><path d="M53.9787 41.79 53.9787 37.1467" stroke="#66737C" stroke-width="3.57143" stroke-linecap="round" stroke-linejoin="round" stroke-miterlimit="10"/><path d="M53.9787 18.5733 53.9787 13.93" stroke="#66737C" stroke-width="3.57143" stroke-linecap="round" stroke-linejoin="round" stroke-miterlimit="10"/><path d="M1.74125 6.38458C1.74125 3.83075 3.83075 1.74125 6.38458 1.74125" stroke="#66737C" stroke-width="3.57143" stroke-linecap="round" stroke-linejoin="round" stroke-miterlimit="10"/><path d="M13.93 1.74125 18.5733 1.74125" stroke="#66737C" stroke-width="3.57143" stroke-linecap="round" stroke-linejoin="round" stroke-miterlimit="10"/><path d="M25.5383 1.74125 30.1817 1.74125" stroke="#66737C" stroke-width="3.57143" stroke-linecap="round" stroke-linejoin="round" stroke-miterlimit="10"/><path d="M37.1467 1.74125 41.79 1.74125" stroke="#66737C" stroke-width="3.57143" stroke-linecap="round" stroke-linejoin="round" stroke-miterlimit="10"/><path d="M25.5383 53.9787 30.1817 53.9787" stroke="#66737C" stroke-width="3.57143" stroke-linecap="round" stroke-linejoin="round" stroke-miterlimit="10"/><path d="M37.1467 53.9787 41.79 53.9787" stroke="#66737C" stroke-width="3.57143" stroke-linecap="round" stroke-linejoin="round" stroke-miterlimit="10"/><path d="M53.9787 6.38458C53.9787 3.83075 51.8893 1.74125 49.3354 1.74125" stroke="#66737C" stroke-width="3.57143" stroke-linecap="round" stroke-linejoin="round" stroke-miterlimit="10"/><path d="M53.9787 49.3354C53.9787 51.8893 51.8893 53.9787 49.3354 53.9787" stroke="#66737C" stroke-width="3.57143" stroke-linecap="round" stroke-linejoin="round" stroke-miterlimit="10"/><path d="M22.7522 25.3062 22.7522 33.432 30.8779 33.432" stroke="#66737C" stroke-width="3.57143" stroke-linecap="round" stroke-linejoin="round" stroke-miterlimit="10"/><path d="M22.7522 33.4318 44.8079 11.1226" stroke="#66737C" stroke-width="3.57143" stroke-linecap="round" stroke-linejoin="round" stroke-miterlimit="10"/><path d="M36.6821 11.1226 44.8079 11.1226 44.8079 19.2484" stroke="#66737C" stroke-width="3.57143" stroke-linecap="round" stroke-linejoin="round" stroke-miterlimit="10"/></svg>