<svg width="60" height="60" viewBox="-2.14 -2.14 60 60" xmlns="http://www.w3.org/2000/svg" xmlns:xlink="http://www.w3.org/1999/xlink" id="Amazon-Web-Service-Server-Migration--Streamline-Ultimate.svg" fill="none" overflow="hidden"><path d="M10.5637 11.2603C10.0993 11.2603 9.63496 11.7246 9.63496 12.189 9.63496 12.6533 10.0993 13.1176 10.5637 13.1176" stroke="#66737C" stroke-width="3.57143" stroke-linecap="round" stroke-linejoin="round" stroke-miterlimit="10"/><path d="M10.5634 11.2603C11.0278 11.2603 11.4921 11.7246 11.4921 12.189 11.4921 12.6533 11.0278 13.1176 10.5634 13.1176" stroke="#66737C" stroke-width="3.57143" stroke-linecap="round" stroke-linejoin="round" stroke-miterlimit="10"/><path d="M10.5637 32.1553C10.0993 32.1553 9.63496 32.6196 9.63496 33.084 9.63496 33.5483 10.0993 34.0126 10.5637 34.0126" stroke="#66737C" stroke-width="3.57143" stroke-linecap="round" stroke-linejoin="round" stroke-miterlimit="10"/><path d="M10.5634 32.1553C11.0278 32.1553 11.4921 32.6196 11.4921 33.084 11.4921 33.5483 11.0278 34.0126 10.5634 34.0126" stroke="#66737C" stroke-width="3.57143" stroke-linecap="round" stroke-linejoin="round" stroke-miterlimit="10"/><path d="M43.5312 1.74125C49.3354 1.74125 53.9787 6.38458 53.9787 12.1888 53.9787 17.9929 49.3354 22.6362 43.5312 22.6362L12.1888 22.6362C6.38458 22.6362 1.74125 17.9929 1.74125 12.1888 1.74125 6.38458 6.38458 1.74125 12.1888 1.74125L43.5312 1.74125Z" stroke="#66737C" stroke-width="3.57143" stroke-linecap="round" stroke-linejoin="round" stroke-miterlimit="10"/><path d="M43.5312 22.6362C49.3354 22.6362 53.9787 27.2796 53.9787 33.0838 53.9787 38.8879 49.3354 43.5312 43.5312 43.5312L12.1888 43.5312C6.38458 43.5312 1.74125 38.8879 1.74125 33.0838 1.74125 27.2796 6.38458 22.6362 12.1888 22.6362L43.5312 22.6362Z" stroke="#66737C" stroke-width="3.57143" stroke-linecap="round" stroke-linejoin="round" stroke-miterlimit="10"/><path d="M24.4936 12.1888 43.5312 12.1888" stroke="#66737C" stroke-width="3.57143" stroke-linecap="round" stroke-linejoin="round" stroke-miterlimit="10"/><path d="M24.4936 33.0838 43.5312 33.0838" stroke="#66737C" stroke-width="3.57143" stroke-linecap="round" stroke-linejoin="round" stroke-miterlimit="10"/><path d="M10.5637 49.3354 10.5637 53.9787" stroke="#66737C" stroke-width="3.57143" stroke-linecap="round" stroke-linejoin="round" stroke-miterlimit="10"/><path d="M22.172 49.8002 22.172 53.9792" stroke="#66737C" stroke-width="3.57143" stroke-linecap="round" stroke-linejoin="round" stroke-miterlimit="10"/><path d="M33.7803 49.8002 33.7803 53.9792" stroke="#66737C" stroke-width="3.57143" stroke-linecap="round" stroke-linejoin="round" stroke-miterlimit="10"/><path d="M45.3886 49.3354 45.3886 53.9787" stroke="#66737C" stroke-width="3.57143" stroke-linecap="round" stroke-linejoin="round" stroke-miterlimit="10"/></svg>