<svg width="60" height="60" viewBox="-3.075 -1.875 60 60" xmlns="http://www.w3.org/2000/svg" xmlns:xlink="http://www.w3.org/1999/xlink" id="Amazon-Web-Service-Marketplace-Cart--Streamline-Ultimate" fill="none" overflow="hidden"><path d="M14.2875 52.6496C16.6485 52.6496 18.5625 50.7357 18.5625 48.3745 18.5625 46.0136 16.6485 44.0998 14.2875 44.0998 11.9265 44.0998 10.0125 46.0136 10.0125 48.3745 10.0125 50.7357 11.9265 52.6496 14.2875 52.6496Z" stroke="#66737C" stroke-width="3.33333" stroke-linecap="round" stroke-linejoin="round" stroke-miterlimit="10"/><path d="M31.1625 52.6496C33.5234 52.6496 35.4375 50.7357 35.4375 48.3745 35.4375 46.0136 33.5234 44.0998 31.1625 44.0998 28.8016 44.0998 26.8875 46.0136 26.8875 48.3745 26.8875 50.7357 28.8016 52.6496 31.1625 52.6496Z" stroke="#66737C" stroke-width="3.33333" stroke-linecap="round" stroke-linejoin="round" stroke-miterlimit="10"/><path d="M1.6875 17.0997 6.86255 34.8745C7.31254 36.4496 8.66252 37.3498 10.0125 37.3498L34.3125 37.3498C35.8875 37.3498 37.2375 36.2245 37.4625 34.8745L44.6625 7.42464C45.3375 5.17464 47.3625 3.59966 49.6125 3.59966L52.3125 3.59966" stroke="#66737C" stroke-width="3.33333" stroke-linecap="round" stroke-linejoin="round" stroke-miterlimit="10"/><path d="M31.1623 26.0989 22.3873 31.0487 13.6123 26.0989 13.6123 16.6487 22.3873 11.6988 31.1623 16.6487 31.1623 26.0989Z" stroke="#66737C" stroke-width="3.33333" stroke-linecap="round" stroke-linejoin="round" stroke-miterlimit="10"/><path d="M31.1623 16.6492 22.3873 21.3742 13.6123 16.6492" stroke="#66737C" stroke-width="3.33333" stroke-linecap="round" stroke-linejoin="round" stroke-miterlimit="10"/><path d="M22.3874 21.3745 22.3874 30.8246" stroke="#66737C" stroke-width="3.33333" stroke-linecap="round" stroke-linejoin="round" stroke-miterlimit="10"/></svg>