<svg width="60" height="60" viewBox="-2.14 -2.14 60 60" xmlns="http://www.w3.org/2000/svg" xmlns:xlink="http://www.w3.org/1999/xlink" id="Amazon-Web-Service-Cross-Region-Data-Delivery-1--Streamline-Ultimate.svg" fill="none" overflow="hidden"><path d="M27.7439 14.0456 27.7439 20.7785C27.7439 22.868 26.1187 23.5645 25.1901 24.4931 23.7971 25.4218 23.3328 27.2791 24.0292 28.9043L24.4936 30.0651C25.4223 31.6903 27.5117 32.3868 29.1369 31.6903L30.9942 30.7616C32.1551 30.0651 32.8516 28.9043 32.8516 27.7435 32.8516 25.4218 33.7803 24.261 35.1732 23.7966L40.1121 21.557" stroke="#66737C" stroke-width="3.57143" stroke-linecap="round" stroke-linejoin="round" stroke-miterlimit="10"/><path d="M27.7439 41.9056C35.4372 41.9056 41.6739 35.6689 41.6739 27.9756 41.6739 20.2823 35.4372 14.0456 27.7439 14.0456 20.0506 14.0456 13.8139 20.2823 13.8139 27.9756 13.8139 35.6689 20.0506 41.9056 27.7439 41.9056Z" stroke="#66737C" stroke-width="3.57143" stroke-linecap="round" stroke-linejoin="round" stroke-miterlimit="10"/><path d="M6.15242 12.8848C3.36642 17.0638 1.74125 21.9393 1.74125 27.2791 1.74125 32.3868 3.1687 37.1666 5.72254 41.3456" stroke="#66737C" stroke-width="3.57143" stroke-linecap="round" stroke-linejoin="round" stroke-miterlimit="10"/><path d="M49.5676 42.3704C52.3536 38.1914 53.9787 33.3159 53.9787 27.9761 53.9787 23.1006 52.4915 18.294 50.1698 14.3472" stroke="#66737C" stroke-width="3.57143" stroke-linecap="round" stroke-linejoin="round" stroke-miterlimit="10"/><path d="M26.3509 1.74125C20.7789 1.97342 15.6712 4.06294 11.7244 7.31327" stroke="#66737C" stroke-width="3.57143" stroke-linecap="round" stroke-linejoin="round" stroke-miterlimit="10"/><path d="M29.1369 53.979C34.7089 53.7468 39.8166 51.6573 43.7634 48.407" stroke="#66737C" stroke-width="3.57143" stroke-linecap="round" stroke-linejoin="round" stroke-miterlimit="10"/><path d="M37.2627 3.59812C35.8698 3.13379 34.4767 2.66945 33.0838 2.43729" stroke="#66737C" stroke-width="3.57143" stroke-linecap="round" stroke-linejoin="round" stroke-miterlimit="10"/><path d="M18.225 52.1219C19.618 52.5862 21.011 53.0505 22.404 53.2827" stroke="#66737C" stroke-width="3.57143" stroke-linecap="round" stroke-linejoin="round" stroke-miterlimit="10"/><path d="M8.00991 50.0315C10.5744 50.0315 12.6532 47.9526 12.6532 45.3881 12.6532 42.8236 10.5744 40.7448 8.00991 40.7448 5.44547 40.7448 3.36658 42.8236 3.36658 45.3881 3.36658 47.9526 5.44547 50.0315 8.00991 50.0315Z" stroke="#66737C" stroke-width="3.57143" stroke-linecap="round" stroke-linejoin="round" stroke-miterlimit="10"/><path d="M47.4783 15.2065C50.0426 15.2065 52.1217 13.1276 52.1217 10.5631 52.1217 7.9987 50.0426 5.91979 47.4783 5.91979 44.9138 5.91979 42.835 7.9987 42.835 10.5631 42.835 13.1276 44.9138 15.2065 47.4783 15.2065Z" stroke="#66737C" stroke-width="3.57143" stroke-linecap="round" stroke-linejoin="round" stroke-miterlimit="10"/></svg>