<svg width="60" height="60" viewBox="-3.075 -1.875 60 60" xmlns="http://www.w3.org/2000/svg" xmlns:xlink="http://www.w3.org/1999/xlink" id="Amazon-Cloudtrail-2--Streamline-Ultimate" fill="none" overflow="hidden"><path d="M44.0244 36.1125C48.7285 34.9875 52.3125 30.7125 52.3125 25.5375 52.3125 19.4625 47.3843 14.5125 41.3363 14.5125 39.0962 14.5125 36.8561 15.1875 35.0642 16.5375 33.4962 8.6625 26.7759 2.8125 18.4878 2.8125 9.30366 2.8125 1.6875 10.4625 1.6875 19.6875 1.6875 27.3375 6.61561 33.6375 13.5597 35.8875" stroke="#66737C" stroke-width="3.33333" stroke-linecap="round" stroke-linejoin="round" stroke-miterlimit="10"/><path d="M29.0252 32.0625 29.0252 43.3125" stroke="#66737C" stroke-width="3.33333" stroke-linecap="round" stroke-linejoin="round" stroke-miterlimit="10"/><path d="M35.7752 41.0625 35.7752 53.4375" stroke="#66737C" stroke-width="3.33333" stroke-linecap="round" stroke-linejoin="round" stroke-miterlimit="10"/><path d="M29.0252 50.0625 29.0252 53.4375" stroke="#66737C" stroke-width="3.33333" stroke-linecap="round" stroke-linejoin="round" stroke-miterlimit="10"/><path d="M35.7752 32.0625 35.7752 34.3125" stroke="#66737C" stroke-width="3.33333" stroke-linecap="round" stroke-linejoin="round" stroke-miterlimit="10"/><path d="M22.2752 32.0625 22.2752 53.4375" stroke="#66737C" stroke-width="3.33333" stroke-linecap="round" stroke-linejoin="round" stroke-miterlimit="10"/></svg>