<svg width="60" height="60" viewBox="-2.14 -2.14 60 60" xmlns="http://www.w3.org/2000/svg" xmlns:xlink="http://www.w3.org/1999/xlink" id="American-Football-Ball-1--Streamline-Ultimate.svg" overflow="hidden"><path d="M53.9741 8.93842C54.1165 5.10594 51.1251 1.88366 47.2926 1.74125 47.1208 1.73486 46.9488 1.73486 46.7769 1.74125 38.2564 2.06628 23.818 4.179 14.002 14.002 4.18597 23.8249 2.0686 38.2471 1.74589 46.7816 1.60349 50.6141 4.59488 53.8363 8.42736 53.9787 8.5992 53.9851 8.77122 53.9851 8.94306 53.9787 17.4752 53.6584 31.9136 51.541 41.7296 41.7227 51.5456 31.9043 53.6514 17.4729 53.9741 8.93842Z" stroke="#66737C" stroke-width="3.57143" stroke-linecap="round" stroke-linejoin="round" fill="none"/><path d="M36.5662 19.1537 19.1537 36.5662" stroke="#66737C" stroke-width="3.57143" stroke-linecap="round" stroke-linejoin="round" fill="none"/><path d="M25.2481 25.2481 30.4719 30.4719" stroke="#66737C" stroke-width="3.57143" stroke-linecap="round" stroke-linejoin="round" fill="none"/><path d="M19.1537 31.3425 24.3775 36.5662" stroke="#66737C" stroke-width="3.57143" stroke-linecap="round" stroke-linejoin="round" fill="none"/><path d="M31.3425 19.1537 36.5662 24.3775" stroke="#66737C" stroke-width="3.57143" stroke-linecap="round" stroke-linejoin="round" fill="none"/><path d="M3.3107 34.6532 21.0668 52.4093" stroke="#66737C" stroke-width="3.57143" stroke-linecap="round" stroke-linejoin="round" fill="none"/><path d="M52.4093 21.0668 34.6532 3.3107" stroke="#66737C" stroke-width="3.57143" stroke-linecap="round" stroke-linejoin="round" fill="none"/></svg>