<svg width="60" height="60" viewBox="-1.875 -1.875 60 60" xmlns="http://www.w3.org/2000/svg" xmlns:xlink="http://www.w3.org/1999/xlink" id="Arrow-Thick-Down-3--Streamline-Ultimate" overflow="hidden"><path d="M47.4609 25.2117C47.4601 24.2409 46.6724 23.4546 45.7016 23.4555 45.2363 23.4559 44.7901 23.6407 44.4609 23.9695L33.3984 35.032 33.3984 3.51562C33.3984 2.54481 32.6114 1.75781 31.6406 1.75781L24.6094 1.75781C23.6386 1.75781 22.8516 2.54481 22.8516 3.51562L22.8516 35.032 11.7891 23.9695C11.1022 23.2835 9.98918 23.2842 9.30314 23.9711 8.97434 24.3003 8.78947 24.7464 8.78906 25.2117L8.78906 34.4273C8.78864 35.3599 9.15876 36.2544 9.81797 36.9141L26.8828 53.9766C27.5679 54.6626 28.6794 54.6634 29.3654 53.9783 29.366 53.9777 29.3666 53.9771 29.3672 53.9766L46.432 36.9141C47.0912 36.2544 47.4614 35.3599 47.4609 34.4273Z" stroke="#66737C" stroke-width="3.57143" stroke-linecap="round" stroke-linejoin="round" fill="none"/></svg>