<svg width="60" height="60" viewBox="-1.875 -1.875 60 60" xmlns="http://www.w3.org/2000/svg" xmlns:xlink="http://www.w3.org/1999/xlink" id="Arrow-Double-Right-1--Streamline-Ultimate" overflow="hidden"><path d="M34.1953 42.8648 43.95 27.5367 34.1953 12.2133C33.2016 10.65 34.0078 8.20312 35.5195 8.20312L41.1703 8.20312C42.2759 8.25808 43.2756 8.87787 43.8164 9.84375L54.0563 25.9359C54.6377 26.9172 54.6377 28.1375 54.0563 29.1187L43.8281 45.2344C43.2873 46.2003 42.2877 46.82 41.182 46.875L35.5195 46.875C34.0078 46.875 33.2016 44.4281 34.1953 42.8648Z" stroke="#66737C" stroke-width="3.33333" stroke-linecap="round" stroke-linejoin="round" fill="none"/><path d="M14.5008 42.8648 24.2555 27.5391 14.5008 12.2133C13.507 10.65 14.3133 8.20312 15.8227 8.20312L19.9734 8.20312C21.0792 8.25764 22.079 8.87755 22.6195 9.84375L32.8617 25.9383C33.4406 26.9202 33.4406 28.1391 32.8617 29.1211L22.6195 45.2344C22.079 46.2006 21.0792 46.8205 19.9734 46.875L15.8227 46.875C14.3133 46.875 13.507 44.4281 14.5008 42.8648Z" stroke="#66737C" stroke-width="3.33333" stroke-linecap="round" stroke-linejoin="round" fill="none"/><path d="M1.75781 45.1172 14.0625 27.5391 1.75781 9.96094" stroke="#66737C" stroke-width="3.33333" stroke-linecap="round" stroke-linejoin="round" fill="none"/></svg>