<svg width="60" height="60" viewBox="-1.875 -1.875 60 60" xmlns="http://www.w3.org/2000/svg" xmlns:xlink="http://www.w3.org/1999/xlink" id="Arrow-Thick-Right-4--Streamline-Ultimate" overflow="hidden"><defs></defs><path d="M47.4609 54.4922 8.78906 54.4922C8.78906 54.4922 1.75781 54.4922 1.75781 47.4609L1.75781 8.78906C1.75781 8.78906 1.75781 1.75781 8.78906 1.75781L47.4609 1.75781C47.4609 1.75781 54.4922 1.75781 54.4922 8.78906L54.4922 47.4609C54.4922 47.4609 54.4922 54.4922 47.4609 54.4922" stroke="#66737C" stroke-width="3.33333" stroke-linecap="round" stroke-linejoin="round" fill="none"/><path d="M14.0625 22.8516 31.6406 22.8516 24.0938 15.3047C23.4077 14.6178 23.4084 13.5048 24.0953 12.8188 24.4251 12.4894 24.8722 12.3045 25.3383 12.3047L30.1852 12.3047C31.1169 12.3049 32.0105 12.675 32.6695 13.3336L46.2188 26.8828C46.9048 27.5679 46.9056 28.6794 46.2205 29.3654 46.2199 29.366 46.2193 29.3666 46.2188 29.3672L32.6695 42.9164C32.0105 43.575 31.1169 43.9451 30.1852 43.9453L25.3383 43.9453C24.3675 43.9458 23.5801 43.1591 23.5797 42.1883 23.5795 41.7222 23.7644 41.2751 24.0938 40.9453L31.6406 33.3984 14.0625 33.3984C13.0917 33.3984 12.3047 32.6114 12.3047 31.6406L12.3047 24.6094C12.3047 23.6386 13.0917 22.8516 14.0625 22.8516Z" stroke="#66737C" stroke-width="3.33333" stroke-linecap="round" stroke-linejoin="round" fill="none"/></svg>