<svg width="60" height="60" viewBox="-1.875 -1.875 60 60" xmlns="http://www.w3.org/2000/svg" xmlns:xlink="http://www.w3.org/1999/xlink" id="Asp-1--Streamline-Ultimate" overflow="hidden"><defs></defs><path d="M5.24531 1.76719 50.9484 1.76719C50.9484 1.76719 54.4641 1.76719 54.4641 5.28281L54.4641 50.9859C54.4641 50.9859 54.4641 54.5016 50.9484 54.5016L5.24531 54.5016C5.24531 54.5016 1.72969 54.5016 1.72969 50.9859L1.72969 5.28281C1.72969 5.28281 1.72969 1.76719 5.24531 1.76719" stroke="#66737C" stroke-width="3.33333" stroke-linecap="round" stroke-linejoin="round" fill="none"/><path d="M10.5188 42.1875 10.5188 28.125C10.5188 26.1834 12.0927 24.6094 14.0344 24.6094 15.976 24.6094 17.55 26.1834 17.55 28.125L17.55 42.1875" stroke="#66737C" stroke-width="3.33333" stroke-linecap="round" stroke-linejoin="round" fill="none"/><path d="M10.5188 35.1656 17.55 35.1656" stroke="#66737C" stroke-width="3.33333" stroke-linecap="round" stroke-linejoin="round" fill="none"/><path d="M31.6125 24.6094 28.0969 24.6094C26.1552 24.6094 24.5812 26.1834 24.5812 28.125 24.5812 33.3984 31.6125 33.3984 31.6125 38.6719 31.6125 40.6135 30.0385 42.1875 28.0969 42.1875L24.5812 42.1875" stroke="#66737C" stroke-width="3.33333" stroke-linecap="round" stroke-linejoin="round" fill="none"/><path d="M38.6437 42.1969 38.6437 24.6187" stroke="#66737C" stroke-width="3.33333" stroke-linecap="round" stroke-linejoin="round" fill="none"/><path d="M38.6437 24.6094 40.4016 24.6094C43.314 24.6094 45.675 26.9704 45.675 29.8828 45.675 32.7952 43.314 35.1562 40.4016 35.1562L38.6437 35.1562" stroke="#66737C" stroke-width="3.33333" stroke-linecap="round" stroke-linejoin="round" fill="none"/></svg>