<svg width="60" height="60" viewBox="-1.875 -1.875 60 60" xmlns="http://www.w3.org/2000/svg" xmlns:xlink="http://www.w3.org/1999/xlink" id="Award-Star--Streamline-Ultimate" overflow="hidden"><path d="M7.03125 54.4922C7.03125 42.8424 16.4752 33.3984 28.125 33.3984 39.7748 33.3984 49.2188 42.8424 49.2188 54.4922Z" stroke="#66737C" stroke-width="3.33333" stroke-linecap="round" stroke-linejoin="round" fill="none"/><path d="M30.668 33.5672 33.9305 23.7773 43.5633 20.5688C44.1587 20.3697 44.48 19.7257 44.281 19.1303 44.1925 18.8655 44.0096 18.6425 43.7672 18.5039L34.7344 13.3477 34.7344 2.89453C34.7327 2.26674 34.2224 1.75916 33.5947 1.76082 33.3344 1.76151 33.0824 1.85145 32.8805 2.01562L25.9031 7.73438 16.0172 4.42734C15.4213 4.22975 14.7781 4.55264 14.5805 5.14852 14.5034 5.38082 14.5034 5.63177 14.5805 5.86406L17.8781 15.75 12.1687 22.7344C11.7727 23.2214 11.8464 23.9374 12.3335 24.3335 12.5353 24.4977 12.7874 24.5876 13.0477 24.5883L23.4961 24.5883 28.5469 33.4266" stroke="#66737C" stroke-width="3.33333" stroke-linecap="round" stroke-linejoin="round" fill="none"/></svg>