<svg width="60" height="60" viewBox="-2.14 -2.14 60 60" xmlns="http://www.w3.org/2000/svg" xmlns:xlink="http://www.w3.org/1999/xlink" id="Award-Ribbon-Star-1--Streamline-Ultimate.svg" overflow="hidden"><path d="M11.1603 30.2792 1.74125 41.79 10.4475 43.5312 13.93 53.9787 23.0867 39.4498" stroke="#66737C" stroke-width="3.57143" stroke-linecap="round" stroke-linejoin="round" fill="none"/><path d="M44.5597 30.2792 53.9787 41.79 45.2725 43.5312 41.79 53.9787 32.6333 39.4498" stroke="#66737C" stroke-width="3.57143" stroke-linecap="round" stroke-linejoin="round" fill="none"/><path d="M8.70625 20.895C8.70625 31.4733 17.2817 40.0488 27.86 40.0488 38.4383 40.0488 47.0138 31.4733 47.0138 20.895 47.0138 10.3167 38.4383 1.74125 27.86 1.74125 17.2817 1.74125 8.70625 10.3167 8.70625 20.895Z" stroke="#66737C" stroke-width="3.57143" stroke-linecap="round" stroke-linejoin="round" fill="none"/><path d="M29.0928 9.96459 31.9902 15.6713 36.9284 15.6713C37.6745 15.653 38.294 16.243 38.3122 16.9891 38.3214 17.3664 38.1724 17.7304 37.9012 17.9929L33.367 22.4459 35.879 28.2152C36.1709 28.9118 35.8429 29.713 35.1464 30.0049 34.7513 30.1705 34.3016 30.1414 33.9312 29.9263L27.86 26.5111 21.7888 29.9263C21.1357 30.3055 20.2989 30.0835 19.9196 29.4304 19.7045 29.06 19.6754 28.6102 19.841 28.2152L22.353 22.4459 17.8188 17.9836C17.2826 17.4646 17.2687 16.6092 17.7877 16.073 18.0502 15.8018 18.4142 15.6527 18.7916 15.662L23.7298 15.662 26.6295 9.96459C26.9889 9.28437 27.8317 9.02431 28.5119 9.38372 28.7595 9.51455 28.962 9.71698 29.0928 9.96459Z" stroke="#66737C" stroke-width="3.57143" stroke-linecap="round" stroke-linejoin="round" fill="none"/></svg>