<svg width="60" height="60" viewBox="-2.14 -2.14 60 60" xmlns="http://www.w3.org/2000/svg" xmlns:xlink="http://www.w3.org/1999/xlink" id="Badminton-Shuttlecock-Racquet--Streamline-Ultimate.svg" overflow="hidden"><path d="M7.68704 52.9595C6.3266 54.32 4.1209 54.32 2.76046 52.9595 1.40003 51.5991 1.40003 49.3934 2.76046 48.033L10.87 39.9327 15.7873 44.85Z" stroke="#66737C" stroke-width="3.57143" stroke-linecap="round" stroke-linejoin="round" fill="none"/><path d="M19.1537 36.5662 13.3333 42.3867" stroke="#66737C" stroke-width="3.57143" stroke-linecap="round" stroke-linejoin="round" fill="none"/><path d="M24.1848 11.8405C25.0885 10.145 26.2395 8.59334 27.6 7.23663 34.2423 0.594347 44.3044-0.113762 50.0737 5.6579 55.843 11.4296 55.1373 21.4893 48.495 28.1316 41.8527 34.7739 31.779 35.4797 26.0212 29.7104 24.1978 27.8767 22.9516 25.5489 22.4366 23.0147" stroke="#66737C" stroke-width="3.57143" stroke-linecap="round" stroke-linejoin="round" fill="none"/><path d="M22.4366 23.0124 19.1537 36.5662 32.7076 33.2834" stroke="#66737C" stroke-width="3.57143" stroke-linecap="round" stroke-linejoin="round" fill="none"/><path d="M51.9078 23.5162 32.2038 3.81218" stroke="#66737C" stroke-width="3.57143" stroke-linecap="round" stroke-linejoin="round" fill="none"/><path d="M24.1871 11.8289 43.8911 31.5329" stroke="#66737C" stroke-width="3.57143" stroke-linecap="round" stroke-linejoin="round" fill="none"/><path d="M45.9063 2.84869 23.2236 25.5314" stroke="#66737C" stroke-width="3.57143" stroke-linecap="round" stroke-linejoin="round" fill="none"/><path d="M30.1886 32.4964 52.8713 9.81369" stroke="#66737C" stroke-width="3.57143" stroke-linecap="round" stroke-linejoin="round" fill="none"/><path d="M1.74125 11.6641 11.5921 1.81322 18.5919 13.9068C19.5546 15.5719 18.9852 17.7021 17.3201 18.6647 16.2411 19.2885 14.9111 19.2882 13.8325 18.6639Z" stroke="#66737C" stroke-width="3.57143" stroke-linecap="round" stroke-linejoin="round" fill="none"/><path d="M9.53973 16.1797 16.1054 9.6117" stroke="#66737C" stroke-width="3.57143" stroke-linecap="round" stroke-linejoin="round" fill="none"/></svg>