<svg width="60" height="60" viewBox="-2.14 -2.14 60 60" xmlns="http://www.w3.org/2000/svg" xmlns:xlink="http://www.w3.org/1999/xlink" id="Begging-Hand-Coin-1--Streamline-Ultimate.svg" overflow="hidden"><defs></defs><path d="M35.1872 40.6292 49.1868 36.218 49.2843 36.1901C51.0832 35.7914 52.8648 36.9264 53.2635 38.7253 53.5925 40.2095 52.8766 41.7284 51.5224 42.4192 24.0455 56.6487 31.0546 56.0079 2.38899 46.4519" stroke="#66737C" stroke-width="3.57143" stroke-linecap="round" stroke-linejoin="round" fill="none"/><path d="M18.4758 41.8805 32.5892 41.8086C34.5126 41.8086 36.0717 40.2494 36.0717 38.3261L36.0717 38.3261" stroke="#66737C" stroke-width="3.57143" stroke-linecap="round" stroke-linejoin="round" fill="none"/><path d="M2.38899 29.0208 7.37361 29.0208C10.0102 29.0171 12.6313 29.4252 15.1419 30.2304" stroke="#66737C" stroke-width="3.57143" stroke-linecap="round" stroke-linejoin="round" fill="none"/><path d="M40.9008 13.1453 37.1258 13.1453C35.75 13.1409 34.6311 14.2528 34.6268 15.6286 34.6236 16.6518 35.2464 17.5729 36.1971 17.9511L40.0302 19.4857C41.3073 19.9975 41.9277 21.4477 41.4159 22.7248 41.0369 23.6705 40.1203 24.2901 39.1015 24.2893L35.3288 24.2893" stroke="#66737C" stroke-width="3.57143" stroke-linecap="round" stroke-linejoin="round" fill="none"/><path d="M38.1148 13.1453 38.1148 10.4475" stroke="#66737C" stroke-width="3.57143" stroke-linecap="round" stroke-linejoin="round" fill="none"/><path d="M38.1148 26.6992 38.1148 24.2893" stroke="#66737C" stroke-width="3.57143" stroke-linecap="round" stroke-linejoin="round" fill="none"/><path d="M25.3456 18.7173C25.3456 25.7695 31.0626 31.4864 38.1148 31.4864 45.167 31.4864 50.884 25.7695 50.884 18.7173 50.884 11.6651 45.167 5.94811 38.1148 5.94811 31.0626 5.94811 25.3456 11.6651 25.3456 18.7173" stroke="#66737C" stroke-width="3.57143" stroke-linecap="round" stroke-linejoin="round" fill="none"/><path d="M4.71066 9.28667C4.71066 13.1333 7.829 16.2517 11.6757 16.2517 15.5223 16.2517 18.6407 13.1333 18.6407 9.28667 18.6407 5.44 15.5223 2.32167 11.6757 2.32167 7.829 2.32167 4.71066 5.44 4.71066 9.28667" stroke="#66737C" stroke-width="3.57143" stroke-linecap="round" stroke-linejoin="round" fill="none"/></svg>