<svg width="44.8" height="44.8" viewBox="-1.6 -1.6 44.8 44.8" xmlns="http://www.w3.org/2000/svg" xmlns:xlink="http://www.w3.org/1999/xlink" id="Bill-Dollar-2--Streamline-Core" fill="none" overflow="hidden"><g id="bill-dollar-2--currency-billing-payment-finance-cash-bill-money-accounting-dollar"><path d="M37.1429 5.94286 4.45714 5.94286C2.81607 5.94286 1.48571 7.42102 1.48571 9.24444L1.48571 32.3556C1.48571 34.1789 2.81607 35.6571 4.45714 35.6571L37.1429 35.6571C38.784 35.6571 40.1143 34.1789 40.1143 32.3556L40.1143 9.24444C40.1143 7.42102 38.784 5.94286 37.1429 5.94286Z" id="Vector" stroke="#66737C" stroke-width="2.67857" stroke-linecap="round" stroke-linejoin="round"/><g id="Group 8"><path d="M8.24542 21.5429C7.83515 21.5429 7.50256 21.2103 7.50256 20.8 7.50256 20.3897 7.83515 20.0571 8.24542 20.0571" id="Ellipse 1" stroke="#66737C" stroke-width="2.67857" stroke-linecap="round" stroke-linejoin="round"/><path d="M8.24559 21.5429C8.65586 21.5429 8.98845 21.2103 8.98845 20.8 8.98845 20.3897 8.65586 20.0571 8.24559 20.0571" id="Ellipse 2" stroke="#66737C" stroke-width="2.67857" stroke-linecap="round" stroke-linejoin="round"/></g><g id="Group 9"><path d="M33.3546 21.5429C32.9442 21.5429 32.6117 21.2103 32.6117 20.8 32.6117 20.3897 32.9442 20.0571 33.3546 20.0571" id="Ellipse 1_2" stroke="#66737C" stroke-width="2.67857" stroke-linecap="round" stroke-linejoin="round"/><path d="M33.3549 21.5429C33.7649 21.5429 34.0977 21.2103 34.0977 20.8 34.0977 20.3897 33.7649 20.0571 33.3549 20.0571" id="Ellipse 2_2" stroke="#66737C" stroke-width="2.67857" stroke-linecap="round" stroke-linejoin="round"/></g><path d="M24.5928 16.8383C24.4623 16.4692 24.2611 16.1336 24.0053 15.8478 23.4612 15.2399 22.6705 14.8573 21.7904 14.8573L19.4904 14.8573C18.0255 14.8573 16.838 16.0449 16.838 17.5097 16.838 18.7562 17.7059 19.8346 18.9236 20.1009L22.4254 20.8669C23.7896 21.1653 24.7619 22.3742 24.7619 23.7706 24.7619 25.4117 23.4315 26.7432 21.7904 26.7432L19.8094 26.7432C18.5157 26.7432 17.415 25.9163 17.0071 24.7622" id="Vector 3" stroke="#66737C" stroke-width="2.67857" stroke-linecap="round" stroke-linejoin="round"/><path d="M20.7998 14.8572 20.7998 11.8857" id="Vector 2489" stroke="#66737C" stroke-width="2.67857" stroke-linecap="round" stroke-linejoin="round"/><path d="M20.7998 29.7143 20.7998 26.7429" id="Vector 2490" stroke="#66737C" stroke-width="2.67857" stroke-linecap="round" stroke-linejoin="round"/></g></svg>