<svg width="60" height="60" viewBox="-2.14 -2.14 60 60" xmlns="http://www.w3.org/2000/svg" xmlns:xlink="http://www.w3.org/1999/xlink" id="Blueprint-Person--Streamline-Ultimate.svg" fill="none" overflow="hidden"><path d="M49.6839 1.85741C52.0056 1.85741 53.8629 3.71474 53.8629 6.0364L53.8629 36.218C53.8629 33.8963 52.0056 32.039 49.6839 32.039L47.8266 32.039C46.4336 32.039 45.5049 31.1103 45.5049 29.7173L45.5049 4.17907C45.5049 2.78607 46.4336 1.85741 47.8266 1.85741L49.6839 1.85741Z" stroke="#66737C" stroke-width="3.57143" stroke-linecap="round" stroke-linejoin="round" stroke-miterlimit="10"/><path d="M53.8629 36.218C53.8629 38.5397 52.0056 40.397 49.6839 40.397L31.8071 40.397" stroke="#66737C" stroke-width="3.57143" stroke-linecap="round" stroke-linejoin="round" stroke-miterlimit="10"/><path d="M45.5049 6.03643 21.3595 6.03643C19.9665 6.03643 19.0378 6.96509 19.0378 8.35809L19.0378 9.98326" stroke="#66737C" stroke-width="3.57143" stroke-linecap="round" stroke-linejoin="round" stroke-miterlimit="10"/><path d="M16.4835 41.0935C11.3759 41.0935 7.19689 36.9145 6.96472 31.8068L6.96472 27.1635C7.19689 22.0558 11.3759 17.8768 16.4835 17.8768 21.8234 17.8768 26.0024 22.0558 26.0024 27.3957L26.0024 31.5747C26.0024 36.9145 21.8234 41.0935 16.4835 41.0935Z" stroke="#66737C" stroke-width="3.57143" stroke-linecap="round" stroke-linejoin="round" stroke-miterlimit="10"/><path d="M16.4838 22.5201 16.4838 15.5551" stroke="#66737C" stroke-width="3.57143" stroke-linecap="round" stroke-linejoin="round" stroke-miterlimit="10"/><path d="M3.71432 29.253 29.2528 29.253" stroke="#66737C" stroke-width="3.57143" stroke-linecap="round" stroke-linejoin="round" stroke-miterlimit="10"/><path d="M31.3423 53.8627C29.2528 47.8263 23.4486 43.4152 16.7158 43.4152 9.983 43.4152 3.94667 47.8263 1.85716 53.8627" stroke="#66737C" stroke-width="3.57143" stroke-linecap="round" stroke-linejoin="round" stroke-miterlimit="10"/></svg>