<svg width="60" height="60" viewBox="-2.14 -2.14 60 60" xmlns="http://www.w3.org/2000/svg" xmlns:xlink="http://www.w3.org/1999/xlink" id="Blueprint-Helmet-1--Streamline-Ultimate.svg" fill="none" overflow="hidden"><path d="M45.5049 6.03645 45.5049 4.17912C45.5049 2.78612 46.4336 1.85745 47.8266 1.85745L49.6839 1.85745C52.0056 1.85745 53.8629 3.71478 53.8629 6.03645L53.8629 36.2182M45.5049 6.03645 45.5049 29.7173C45.5049 31.1103 46.4336 32.039 47.8266 32.039L49.6839 32.039C52.0056 32.039 53.8629 33.8966 53.8629 36.2182M45.5049 6.03645 21.3595 6.03645C19.9665 6.03645 19.0378 6.96512 19.0378 8.35812L19.0378 17.849M53.8629 36.2182C53.8629 38.5399 52.0056 40.397 49.6839 40.397L44.0666 40.397" stroke="#66737C" stroke-width="3.57143" stroke-linecap="round" stroke-linejoin="round" stroke-miterlimit="10"/><path d="M25.0738 29.9495C31.8066 31.5747 36.6821 37.611 36.6821 44.576L36.6821 46.8977M18.1088 46.8977 18.1088 28.3243C18.1088 26.9313 19.0375 26.0027 20.4305 26.0027L22.7522 26.0027C24.1451 26.0027 25.0738 26.9313 25.0738 28.3243L25.0738 46.8977M18.1088 29.9495C11.376 31.5747 6.5005 37.611 6.5005 44.576L6.5005 46.8977M41.3254 51.541C41.3254 52.934 40.3968 53.8627 39.0038 53.8627L4.17884 53.8627C2.78584 53.8627 1.85716 52.934 1.85716 51.541L1.85716 49.2193C1.85716 47.8263 2.78584 46.8977 4.17884 46.8977L39.0038 46.8977C40.3968 46.8977 41.3254 47.8263 41.3254 49.2193L41.3254 51.541Z" stroke="#66737C" stroke-width="3.57143" stroke-linecap="round" stroke-linejoin="round" stroke-miterlimit="10"/></svg>