<svg width="60" height="60" viewBox="-1.875 -1.875 60 60" xmlns="http://www.w3.org/2000/svg" xmlns:xlink="http://www.w3.org/1999/xlink" id="Board-Game-Dice-1--Streamline-Ultimate" fill="none" overflow="hidden"><path d="M19.9805 9.04688 36.9141 15.8203 53.8477 9.04688" stroke="#66737C" stroke-width="3.57143" stroke-linecap="round" stroke-linejoin="round"/><path d="M36.9141 38.6719C38.0721 38.6756 39.2177 38.4361 40.2773 37.9688L52.4039 32.5781C53.0255 32.302 53.5537 31.8513 53.9243 31.2811 54.2951 30.7106 54.4922 30.045 54.4922 29.3648L54.4922 11.0836C54.4922 10.4034 54.2951 9.73774 53.9243 9.16741 53.5537 8.59706 53.0255 8.14648 52.4039 7.87031L40.2773 2.47969C39.2187 2.00835 38.0728 1.76479 36.9141 1.76479 35.7553 1.76479 34.6095 2.00835 33.5508 2.47969L21.4242 7.87031C20.804 8.14584 20.2769 8.59495 19.9063 9.16348 19.5358 9.732 19.3377 10.3956 19.3359 11.0742L19.3359 17.5781" stroke="#66737C" stroke-width="3.57143" stroke-linecap="round" stroke-linejoin="round"/><path d="M19.3359 31.6406 19.3359 54.4922" stroke="#66737C" stroke-width="3.57143" stroke-linecap="round" stroke-linejoin="round"/><path d="M2.40239 24.8672 19.336 31.6406 36.2695 24.8672" stroke="#66737C" stroke-width="3.57143" stroke-linecap="round" stroke-linejoin="round"/><path d="M15.9727 53.7773C17.0313 54.2487 18.1771 54.4922 19.336 54.4922 20.4948 54.4922 21.6406 54.2487 22.6992 53.7773L34.8258 48.3867C35.4473 48.1106 35.9756 47.6599 36.3462 47.0897 36.717 46.5192 36.9141 45.8536 36.9141 45.1734L36.9141 26.8922C36.9141 26.212 36.717 25.5464 36.3462 24.9759 35.9756 24.4057 35.4473 23.955 34.8258 23.6789L22.6992 18.2883C21.6406 17.8169 20.4948 17.5734 19.336 17.5734 18.1771 17.5734 17.0313 17.8169 15.9727 18.2883L3.84612 23.6719C3.22301 23.9487 2.69386 24.4008 2.32309 24.9729 1.95232 25.545 1.75592 26.2127 1.75783 26.8945L1.75783 45.1758C1.75774 45.8559 1.95499 46.5216 2.32565 47.092 2.69632 47.6623 3.22448 48.113 3.84612 48.3891L15.9727 53.7773Z" stroke="#66737C" stroke-width="3.57143" stroke-linecap="round" stroke-linejoin="round"/><path d="M7.03125 33.907C6.54584 33.907 6.15234 33.5135 6.15234 33.0281 6.15234 32.5427 6.54584 32.1492 7.03125 32.1492" stroke="#66737C" stroke-width="3.57143"/><path d="M7.03125 33.907C7.51666 33.907 7.91016 33.5135 7.91016 33.0281 7.91016 32.5427 7.51666 32.1492 7.03125 32.1492" stroke="#66737C" stroke-width="3.57143"/><path d="M9.66769 40.0687C9.18227 40.0687 8.78878 39.6752 8.78878 39.1898 8.78878 38.7045 9.18227 38.3109 9.66769 38.3109" stroke="#66737C" stroke-width="3.57143"/><path d="M9.66769 40.0687C10.1531 40.0687 10.5466 39.6752 10.5466 39.1898 10.5466 38.7045 10.1531 38.3109 9.66769 38.3109" stroke="#66737C" stroke-width="3.57143"/><path d="M13.1836 47.0906C12.6982 47.0906 12.3047 46.6971 12.3047 46.2117 12.3047 45.7263 12.6982 45.3328 13.1836 45.3328" stroke="#66737C" stroke-width="3.57143"/><path d="M13.1836 47.0906C13.669 47.0906 14.0625 46.6971 14.0625 46.2117 14.0625 45.7263 13.669 45.3328 13.1836 45.3328" stroke="#66737C" stroke-width="3.57143"/><path d="M26.6344 44.9508C26.149 44.9508 25.7555 44.5573 25.7555 44.0719 25.7555 43.5865 26.149 43.193 26.6344 43.193" stroke="#66737C" stroke-width="3.57143"/><path d="M26.6344 44.9508C27.1198 44.9508 27.5133 44.5573 27.5133 44.0719 27.5133 43.5865 27.1198 43.193 26.6344 43.193" stroke="#66737C" stroke-width="3.57143"/><path d="M30.4172 35.9039C29.9318 35.9039 29.5383 35.5104 29.5383 35.025 29.5383 34.5396 29.9318 34.1461 30.4172 34.1461" stroke="#66737C" stroke-width="3.57143"/><path d="M30.4172 35.9039C30.9026 35.9039 31.2961 35.5104 31.2961 35.025 31.2961 34.5396 30.9026 34.1461 30.4172 34.1461" stroke="#66737C" stroke-width="3.57143"/><g><path d="M19.3359 25.5141C18.8505 25.5141 18.457 25.1205 18.457 24.6352 18.457 24.1498 18.8505 23.7563 19.3359 23.7563" stroke="#66737C" stroke-width="3.57143"/><path d="M19.3359 25.5141C19.8214 25.5141 20.2148 25.1205 20.2148 24.6352 20.2148 24.1498 19.8214 23.7563 19.3359 23.7563" stroke="#66737C" stroke-width="3.57143"/></g><g><path d="M36.9141 9.32344C36.4287 9.32344 36.0352 8.92992 36.0352 8.44453 36.0352 7.95912 36.4287 7.56563 36.9141 7.56563" stroke="#66737C" stroke-width="3.57143"/><path d="M36.9141 9.32344C37.3995 9.32344 37.793 8.92992 37.793 8.44453 37.793 7.95912 37.3995 7.56563 36.9141 7.56563" stroke="#66737C" stroke-width="3.57143"/></g><g><path d="M48.3398 19.4367C47.8545 19.4367 47.4609 19.0432 47.4609 18.5578 47.4609 18.0724 47.8545 17.6789 48.3398 17.6789" stroke="#66737C" stroke-width="3.57143"/><path d="M48.3398 19.4367C48.8252 19.4367 49.2188 19.0432 49.2188 18.5578 49.2188 18.0724 48.8252 17.6789 48.3398 17.6789" stroke="#66737C" stroke-width="3.57143"/></g><g><path d="M48.3398 28.2258C47.8545 28.2258 47.4609 27.8323 47.4609 27.3469 47.4609 26.8615 47.8545 26.468 48.3398 26.468" stroke="#66737C" stroke-width="3.57143"/><path d="M48.3398 28.2258C48.8252 28.2258 49.2188 27.8323 49.2188 27.3469 49.2188 26.8615 48.8252 26.468 48.3398 26.468" stroke="#66737C" stroke-width="3.57143"/></g></svg>