<svg width="60" height="60" viewBox="-1.875 -1.875 60 60" xmlns="http://www.w3.org/2000/svg" xmlns:xlink="http://www.w3.org/1999/xlink" id="Board-Game-Dice-2--Streamline-Ultimate" fill="none" overflow="hidden"><path d="M34.5703 19.3359 4.10156 19.3359C2.80716 19.3359 1.75781 20.3853 1.75781 21.6797L1.75781 52.1484C1.75781 53.4429 2.80716 54.4922 4.10156 54.4922L34.5703 54.4922C35.8648 54.4922 36.9141 53.4429 36.9141 52.1484L36.9141 21.6797C36.9141 20.3853 35.8648 19.3359 34.5703 19.3359Z" stroke="#66737C" stroke-width="3.57143" stroke-linecap="round" stroke-linejoin="round"/><path d="M43.9453 36.9141 50.9766 36.9141C51.9089 36.9141 52.8033 36.5438 53.4626 35.8845 54.1219 35.2252 54.4922 34.3308 54.4922 33.3984L54.4922 5.27344C54.4922 4.34105 54.1219 3.44681 53.4626 2.78752 52.8033 2.12821 51.9089 1.75781 50.9766 1.75781L22.8516 1.75781C21.9192 1.75781 21.0249 2.12821 20.3656 2.78752 19.7063 3.44681 19.3359 4.34105 19.3359 5.27344L19.3359 12.3047" stroke="#66737C" stroke-width="3.57143" stroke-linecap="round" stroke-linejoin="round"/><path d="M9.66797 31.6406C9.18255 31.6406 8.78906 31.2471 8.78906 30.7617 8.78906 30.2763 9.18255 29.8828 9.66797 29.8828" stroke="#66737C" stroke-width="3.57143"/><path d="M9.66797 31.6406C10.1534 31.6406 10.5469 31.2471 10.5469 30.7617 10.5469 30.2763 10.1534 29.8828 9.66797 29.8828" stroke="#66737C" stroke-width="3.57143"/><path d="M19.3359 31.6406C18.8505 31.6406 18.457 31.2471 18.457 30.7617 18.457 30.2763 18.8505 29.8828 19.3359 29.8828" stroke="#66737C" stroke-width="3.57143"/><path d="M19.3359 31.6406C19.8214 31.6406 20.2148 31.2471 20.2148 30.7617 20.2148 30.2763 19.8214 29.8828 19.3359 29.8828" stroke="#66737C" stroke-width="3.57143"/><path d="M29.0039 31.6406C28.5185 31.6406 28.125 31.2471 28.125 30.7617 28.125 30.2763 28.5185 29.8828 29.0039 29.8828" stroke="#66737C" stroke-width="3.57143"/><path d="M29.0039 31.6406C29.4893 31.6406 29.8828 31.2471 29.8828 30.7617 29.8828 30.2763 29.4893 29.8828 29.0039 29.8828" stroke="#66737C" stroke-width="3.57143"/><path d="M29.0039 12.3047C28.5185 12.3047 28.125 11.9112 28.125 11.4258 28.125 10.9404 28.5185 10.5469 29.0039 10.5469" stroke="#66737C" stroke-width="3.57143"/><path d="M29.0039 12.3047C29.4893 12.3047 29.8828 11.9112 29.8828 11.4258 29.8828 10.9404 29.4893 10.5469 29.0039 10.5469" stroke="#66737C" stroke-width="3.57143"/><path d="M44.8242 12.3047C44.3388 12.3047 43.9453 11.9112 43.9453 11.4258 43.9453 10.9404 44.3388 10.5469 44.8242 10.5469" stroke="#66737C" stroke-width="3.57143"/><path d="M44.8242 12.3047C45.3096 12.3047 45.7031 11.9112 45.7031 11.4258 45.7031 10.9404 45.3096 10.5469 44.8242 10.5469" stroke="#66737C" stroke-width="3.57143"/><g><path d="M44.8242 28.125C44.3388 28.125 43.9453 27.7315 43.9453 27.2461 43.9453 26.7607 44.3388 26.3672 44.8242 26.3672" stroke="#66737C" stroke-width="3.57143"/><path d="M44.8242 28.125C45.3096 28.125 45.7031 27.7315 45.7031 27.2461 45.7031 26.7607 45.3096 26.3672 44.8242 26.3672" stroke="#66737C" stroke-width="3.57143"/></g><g><path d="M9.66797 43.9453C9.18255 43.9453 8.78906 43.5518 8.78906 43.0664 8.78906 42.581 9.18255 42.1875 9.66797 42.1875" stroke="#66737C" stroke-width="3.57143"/><path d="M9.66797 43.9453C10.1534 43.9453 10.5469 43.5518 10.5469 43.0664 10.5469 42.581 10.1534 42.1875 9.66797 42.1875" stroke="#66737C" stroke-width="3.57143"/></g><g><path d="M19.3359 43.9453C18.8505 43.9453 18.457 43.5518 18.457 43.0664 18.457 42.581 18.8505 42.1875 19.3359 42.1875" stroke="#66737C" stroke-width="3.57143"/><path d="M19.3359 43.9453C19.8214 43.9453 20.2148 43.5518 20.2148 43.0664 20.2148 42.581 19.8214 42.1875 19.3359 42.1875" stroke="#66737C" stroke-width="3.57143"/></g><g><path d="M29.0039 43.9453C28.5185 43.9453 28.125 43.5518 28.125 43.0664 28.125 42.581 28.5185 42.1875 29.0039 42.1875" stroke="#66737C" stroke-width="3.57143"/><path d="M29.0039 43.9453C29.4893 43.9453 29.8828 43.5518 29.8828 43.0664 29.8828 42.581 29.4893 42.1875 29.0039 42.1875" stroke="#66737C" stroke-width="3.57143"/></g></svg>