<svg width="60" height="60" viewBox="-1.875 -1.875 60 60" xmlns="http://www.w3.org/2000/svg" xmlns:xlink="http://www.w3.org/1999/xlink" id="Board-Game-Tic-Tac-Toe--Streamline-Ultimate" overflow="hidden"><path d="M21.0938 28.125C21.0938 32.0083 24.2417 35.1562 28.125 35.1562 32.0083 35.1562 35.1562 32.0083 35.1562 28.125 35.1562 24.2417 32.0083 21.0938 28.125 21.0938 24.2417 21.0938 21.0938 24.2417 21.0938 28.125Z" stroke="#66737C" stroke-width="3.57143" stroke-linecap="round" stroke-linejoin="round" fill="none"/><path d="M40.4297 8.78906C40.4297 12.6723 43.5777 15.8203 47.4609 15.8203 51.3442 15.8203 54.4922 12.6723 54.4922 8.78906 54.4922 4.90581 51.3442 1.75781 47.4609 1.75781 43.5777 1.75781 40.4297 4.90581 40.4297 8.78906Z" stroke="#66737C" stroke-width="3.57143" stroke-linecap="round" stroke-linejoin="round" fill="none"/><path d="M1.75781 8.78906C1.75781 12.6723 4.90581 15.8203 8.78906 15.8203 12.6723 15.8203 15.8203 12.6723 15.8203 8.78906 15.8203 4.90581 12.6723 1.75781 8.78906 1.75781 4.90581 1.75781 1.75781 4.90581 1.75781 8.78906Z" stroke="#66737C" stroke-width="3.57143" stroke-linecap="round" stroke-linejoin="round" fill="none"/><path d="M1.75781 47.4609C1.75781 51.3442 4.90581 54.4922 8.78906 54.4922 12.6723 54.4922 15.8203 51.3442 15.8203 47.4609 15.8203 43.5777 12.6723 40.4297 8.78906 40.4297 4.90581 40.4297 1.75781 43.5777 1.75781 47.4609Z" stroke="#66737C" stroke-width="3.57143" stroke-linecap="round" stroke-linejoin="round" fill="none"/><path d="M22.8516 3.51562 33.3984 14.0625" stroke="#66737C" stroke-width="3.57143" stroke-linecap="round" stroke-linejoin="round" fill="none"/><path d="M22.8516 14.0625 33.3984 3.51562" stroke="#66737C" stroke-width="3.57143" stroke-linecap="round" stroke-linejoin="round" fill="none"/><path d="M3.51562 22.8516 14.0625 33.3984" stroke="#66737C" stroke-width="3.57143" stroke-linecap="round" stroke-linejoin="round" fill="none"/><path d="M3.51562 33.3984 14.0625 22.8516" stroke="#66737C" stroke-width="3.57143" stroke-linecap="round" stroke-linejoin="round" fill="none"/><path d="M42.1875 42.1875 52.7344 52.7344" stroke="#66737C" stroke-width="3.57143" stroke-linecap="round" stroke-linejoin="round" fill="none"/><path d="M42.1875 52.7344 52.7344 42.1875" stroke="#66737C" stroke-width="3.57143" stroke-linecap="round" stroke-linejoin="round" fill="none"/><path d="M3.81797 52.432 52.432 3.81797" stroke="#66737C" stroke-width="3.57143" stroke-linecap="round" stroke-linejoin="round" fill="none"/></svg>