<svg width="60" height="60" viewBox="-1.875 -1.875 60 60" xmlns="http://www.w3.org/2000/svg" xmlns:xlink="http://www.w3.org/1999/xlink" id="Book-Cog-2--Streamline-Ultimate" fill="none" overflow="hidden"><path d="M50.7422 54.375 10.4297 54.375C7.61721 54.375 5.27344 52.0312 5.27344 49.2188 5.27344 46.4062 7.61721 44.0625 10.4297 44.0625L47.4609 44.0625M47.4609 44.0625C49.3359 44.0625 50.9766 42.4219 50.9766 40.5469L50.9766 5.3906C50.9766 3.5156 49.3359 1.87497 47.4609 1.87497L9.96094 1.87497C7.38281 1.87497 5.27344 3.98435 5.27344 6.56248L5.27344 50.1562M47.4609 44.0625 47.4609 54.375" stroke="#66737C" stroke-width="3.33333" stroke-linecap="round" stroke-linejoin="round" stroke-miterlimit="10"/><path d="M28.0078 26.2207C29.9494 26.2207 31.5234 24.6466 31.5234 22.7051 31.5234 20.7635 29.9494 19.1895 28.0078 19.1895 26.066 19.1895 24.4922 20.7635 24.4922 22.7051 24.4922 24.6466 26.066 26.2207 28.0078 26.2207Z" stroke="#66737C" stroke-width="3.33333" stroke-linecap="round" stroke-linejoin="round" stroke-miterlimit="10"/><path d="M30.8203 10.0781 31.7578 13.125C31.9922 14.2969 33.1641 14.7657 34.3359 14.5313L37.6172 13.8281C40.4297 13.125 42.3047 16.6406 40.4297 18.75L38.0859 21.0938C37.3828 22.0312 37.3828 23.2031 38.0859 24.1406L40.4297 26.4844C42.3047 28.5938 40.4297 31.875 37.6172 31.4062L34.3359 30.7031C33.1641 30.4688 32.2266 31.1719 31.7578 32.1094L30.8203 35.1562C29.8828 37.9688 26.1328 37.9688 25.1953 35.1562L24.2578 32.1094C24.0234 30.9375 22.8516 30.4688 21.6798 30.7031L18.3985 31.4062C15.586 32.1094 13.711 28.5938 15.586 26.4844L17.9298 24.1406C18.6329 23.2031 18.6329 22.0312 17.9298 21.0938L15.586 18.75C13.711 16.6406 15.586 13.3594 18.3985 13.8281L21.6798 14.5313C22.8516 14.7657 23.7891 14.0625 24.2578 13.125L25.1953 10.0781C26.1328 7.50002 30.1172 7.50002 30.8203 10.0781Z" stroke="#66737C" stroke-width="3.33333" stroke-linecap="round" stroke-linejoin="round" stroke-miterlimit="10"/></svg>