<svg width="60" height="60" viewBox="-2.14 -2.14 60 60" xmlns="http://www.w3.org/2000/svg" xmlns:xlink="http://www.w3.org/1999/xlink" id="Buildings-2--Streamline-Ultimate.svg" overflow="hidden"><defs></defs><path d="M6.38458 12.1888 28.4404 12.1888C29.0815 12.1888 29.6012 12.7085 29.6012 13.3496L29.6012 53.9787 29.6012 53.9787 5.22375 53.9787 5.22375 53.9787 5.22375 13.3496C5.22375 12.7085 5.74347 12.1888 6.38458 12.1888Z" stroke="#66737C" stroke-width="3.57143" stroke-linecap="round" stroke-linejoin="round" fill="none"/><path d="M13.3496 5.22375 21.4754 5.22375C22.1165 5.22375 22.6362 5.74347 22.6362 6.38458L22.6362 12.1888 22.6362 12.1888 12.1888 12.1888 12.1888 12.1888 12.1888 6.38458C12.1888 5.74347 12.7085 5.22375 13.3496 5.22375Z" stroke="#66737C" stroke-width="3.57143" stroke-linecap="round" stroke-linejoin="round" fill="none"/><path d="M12.1888 19.1537 22.6362 19.1537" stroke="#66737C" stroke-width="3.57143" stroke-linecap="round" stroke-linejoin="round" fill="none"/><path d="M12.1888 26.1187 22.6362 26.1187" stroke="#66737C" stroke-width="3.57143" stroke-linecap="round" stroke-linejoin="round" fill="none"/><path d="M12.1888 33.0838 22.6362 33.0838" stroke="#66737C" stroke-width="3.57143" stroke-linecap="round" stroke-linejoin="round" fill="none"/><path d="M12.1888 40.0488 22.6362 40.0488" stroke="#66737C" stroke-width="3.57143" stroke-linecap="round" stroke-linejoin="round" fill="none"/><path d="M12.1888 47.0137 22.6362 47.0137" stroke="#66737C" stroke-width="3.57143" stroke-linecap="round" stroke-linejoin="round" fill="none"/><path d="M19.1537 1.74125 19.1537 5.22375" stroke="#66737C" stroke-width="3.57143" stroke-linecap="round" stroke-linejoin="round" fill="none"/><path d="M36.5662 53.9787 50.4963 53.9787 50.4963 24.3775C50.4963 23.4158 49.7167 22.6363 48.755 22.6363L38.3075 22.6362C37.3458 22.6362 36.5662 23.4158 36.5662 24.3775L36.5662 53.9787" stroke="#66737C" stroke-width="3.57143" stroke-linecap="round" stroke-linejoin="round" fill="none"/><path d="M47.0137 19.1537 47.0137 22.6362" stroke="#66737C" stroke-width="3.57143" stroke-linecap="round" stroke-linejoin="round" fill="none"/><path d="M1.74125 53.9787 53.9787 53.9787" stroke="#66737C" stroke-width="3.57143" stroke-linecap="round" stroke-linejoin="round" fill="none"/></svg>