<svg width="60" height="60" viewBox="-1.875 -1.875 60 60" xmlns="http://www.w3.org/2000/svg" xmlns:xlink="http://www.w3.org/1999/xlink" id="Business-Deal-Men-Cash--Streamline-Ultimate" overflow="hidden"><path d="M41.3086 5.27109 35.1562 5.27109C33.4204 5.26557 32.0088 6.66823 32.0033 8.40404 31.9992 9.69498 32.7849 10.8571 33.9844 11.3344L40.207 13.268C41.8199 13.9132 42.6043 15.7437 41.9591 17.3565 41.4809 18.5518 40.3226 19.3351 39.0352 19.3336L31.6406 19.3336" stroke="#66737C" stroke-width="3.33333" stroke-linecap="round" stroke-linejoin="round" fill="none"/><path d="M36.9141 5.27109 36.9141 1.75547" stroke="#66737C" stroke-width="3.33333" stroke-linecap="round" stroke-linejoin="round" fill="none"/><path d="M36.9141 22.8492 36.9141 19.3336" stroke="#66737C" stroke-width="3.33333" stroke-linecap="round" stroke-linejoin="round" fill="none"/><path d="M49.2188 1.75547 50.9766 1.75547C52.9182 1.75547 54.4922 3.32947 54.4922 5.27109L54.4922 24.6094C54.4922 26.551 52.9182 28.125 50.9766 28.125L40.4297 28.125 29.8828 38.6719 29.8828 28.125 22.8516 28.125C20.9099 28.125 19.3359 26.551 19.3359 24.6094L19.3359 5.27109C19.3359 3.32947 20.9099 1.75547 22.8516 1.75547L26.3672 1.75547" stroke="#66737C" stroke-width="3.33333" stroke-linecap="round" stroke-linejoin="round" fill="none"/><path d="M4.62891 36.9117C4.62891 40.795 7.7769 43.943 11.6602 43.943 15.5434 43.943 18.6914 40.795 18.6914 36.9117 18.6914 33.0285 15.5434 29.8805 11.6602 29.8805 7.7769 29.8805 4.62891 33.0285 4.62891 36.9117Z" stroke="#66737C" stroke-width="3.33333" stroke-linecap="round" stroke-linejoin="round" fill="none"/><path d="M21.5625 54.4898C19.6556 49.0216 13.6768 46.1345 8.20855 48.0415 5.18801 49.0948 2.81349 51.4693 1.76016 54.4898" stroke="#66737C" stroke-width="3.33333" stroke-linecap="round" stroke-linejoin="round" fill="none"/><path d="M51.0773 34.1906C52.5871 37.7684 50.9106 41.8926 47.3329 43.4023 44.319 44.6741 40.8261 43.6994 38.9062 41.0508" stroke="#66737C" stroke-width="3.33333" stroke-linecap="round" stroke-linejoin="round" fill="none"/><path d="M54.4922 54.4898C52.5853 49.0216 46.6065 46.1345 41.1382 48.0415 38.1177 49.0948 35.7432 51.4693 34.6898 54.4898" stroke="#66737C" stroke-width="3.33333" stroke-linecap="round" stroke-linejoin="round" fill="none"/></svg>