<svg width="60" height="60" viewBox="-1.875 -1.875 60 60" xmlns="http://www.w3.org/2000/svg" xmlns:xlink="http://www.w3.org/1999/xlink" id="Business-Contract-Handshake-Sign--Streamline-Ultimate" overflow="hidden"><g><path d="M40.4297 1.75781 8.78906 1.75781C4.90581 1.75781 1.75781 4.90581 1.75781 8.78906L1.75781 50.9766C1.75781 52.9182 3.33181 54.4922 5.27344 54.4922L8.625 54.4922" stroke="#66737C" stroke-width="3.33333" stroke-linecap="round" stroke-linejoin="round" fill="none"/><path d="M8.78906 12.8906 25.7812 12.8906" stroke="#66737C" stroke-width="3.33333" stroke-linecap="round" stroke-linejoin="round" fill="none"/><path d="M8.78906 22.2656 20.1797 22.2656" stroke="#66737C" stroke-width="3.33333" stroke-linecap="round" stroke-linejoin="round" fill="none"/><path d="M35.1562 22.8516 35.1562 7.03125C35.1562 4.11881 37.5173 1.75781 40.4297 1.75781L40.4297 1.75781C43.3421 1.75781 45.7031 4.11881 45.7031 7.03125L45.7031 12.8906 35.1562 12.8906" stroke="#66737C" stroke-width="3.33333" stroke-linecap="round" stroke-linejoin="round" fill="none"/><g><path d="M50.9766 45.9609 39.75 48.2109" stroke="#66737C" stroke-width="3.33333" stroke-linecap="round" stroke-linejoin="round" fill="none"/><path d="M40.875 35.4844 35.5781 37.7109C34.7407 38.0734 33.7906 38.0734 32.9531 37.7109 31.1611 36.8986 30.367 34.7874 31.1793 32.9954 31.5138 32.2574 32.0899 31.6556 32.8125 31.2891L38.1094 28.6406C38.7624 28.306 39.485 28.1294 40.2188 28.125 40.7726 28.1194 41.3221 28.223 41.8359 28.4297L52.6641 32.8125" stroke="#66737C" stroke-width="3.33333" stroke-linecap="round" stroke-linejoin="round" fill="none"/><path d="M19.2188 48.3047 22.9453 48.3047 30.0938 53.7422C30.796 54.5381 32.0105 54.6139 32.8064 53.9117 32.8084 53.9099 32.8105 53.9081 32.8125 53.9062L42.7969 45.6562C43.6262 44.9865 43.762 43.7742 43.1016 42.9375L37.5 36.8672" stroke="#66737C" stroke-width="3.33333" stroke-linecap="round" stroke-linejoin="round" fill="none"/><path d="M32.2031 31.6641 31.6172 31.1719C30.8809 30.6879 30.0135 30.4424 29.1328 30.4688 28.5968 30.4687 28.0651 30.564 27.5625 30.75L19.1953 34.2188" stroke="#66737C" stroke-width="3.33333" stroke-linecap="round" stroke-linejoin="round" fill="none"/><path d="M15.8203 50.0625 16.5234 50.0625C17.9969 50.1421 19.2559 49.0121 19.3355 47.5386 19.3357 47.5362 19.3358 47.5337 19.3359 47.5312L19.3359 34.9922C19.2479 33.5249 17.9912 32.4044 16.5234 32.4844L15.8203 32.4844" stroke="#66737C" stroke-width="3.33333" stroke-linecap="round" stroke-linejoin="round" fill="none"/><path d="M54.4922 50.0625 53.9062 50.0625C52.4328 50.1421 51.1737 49.0121 51.0941 47.5386 51.094 47.5362 51.0939 47.5337 51.0938 47.5312L51.0938 34.9922C51.1818 33.5249 52.4385 32.4044 53.9062 32.4844L54.6094 32.4844" stroke="#66737C" stroke-width="3.33333" stroke-linecap="round" stroke-linejoin="round" fill="none"/></g></g></svg>