<svg width="60" height="60" viewBox="-2.14 -2.14 60 60" xmlns="http://www.w3.org/2000/svg" xmlns:xlink="http://www.w3.org/1999/xlink" id="Business-Contract-Approve--Streamline-Ultimate.svg" overflow="hidden"><path d="M1.74125 5.14713 5.22375 9.53973 5.22375 19.9106C5.13088 23.8296 9.67439 27.3399 13.9277 30.9432" stroke="#66737C" stroke-width="3.57143" stroke-linecap="round" stroke-linejoin="round" fill="none"/><path d="M12.1446 17.0828 16.2517 21.2897C17.3416 22.4084 19.132 22.4318 20.2507 21.3419 21.3695 20.252 21.3929 18.4616 20.303 17.3428L13.9161 10.8259 13.9161 7.42933C13.57 5.39405 12.7961 3.45533 11.6455 1.74125" stroke="#66737C" stroke-width="3.57143" stroke-linecap="round" stroke-linejoin="round" fill="none"/><path d="M13.93 18.8937 13.93 47.0137C13.93 48.9371 15.4892 50.4962 17.4125 50.4962L34.825 50.4963" stroke="#66737C" stroke-width="3.57143" stroke-linecap="round" stroke-linejoin="round" fill="none"/><path d="M53.9787 50.5705 50.4963 46.178 50.4963 35.8094C50.5775 32.4221 47.1972 29.3412 43.5312 26.2441L43.5312 38.5907 39.4683 34.4303C38.3784 33.3116 36.588 33.2882 35.4693 34.3781 34.3505 35.468 34.3271 37.2584 35.417 38.3771L41.8132 44.8964 41.8132 48.2907C42.161 50.3226 42.9348 52.2579 44.0838 53.9695" stroke="#66737C" stroke-width="3.57143" stroke-linecap="round" stroke-linejoin="round" fill="none"/><path d="M30.1306 41.79 20.895 41.79" stroke="#66737C" stroke-width="3.57143" stroke-linecap="round" stroke-linejoin="round" fill="none"/><path d="M24.3775 33.0838 20.895 33.0838" stroke="#66737C" stroke-width="3.57143" stroke-linecap="round" stroke-linejoin="round" fill="none"/><path d="M47.0137 12.1888C47.0137 17.9587 42.3362 22.6362 36.5662 22.6362 30.7963 22.6362 26.1187 17.9587 26.1187 12.1887 26.1187 6.41875 30.7963 1.74125 36.5662 1.74125" stroke="#66737C" stroke-width="3.57143" stroke-linecap="round" stroke-linejoin="round" fill="none"/><path d="M47.0137 4.3508 37.4949 13.8696C36.9851 14.3825 36.156 14.385 35.6431 13.8752 35.6413 13.8733 35.6394 13.8715 35.6376 13.8696L32.645 10.8747" stroke="#66737C" stroke-width="3.57143" stroke-linecap="round" stroke-linejoin="round" fill="none"/></svg>