<svg width="60" height="60" viewBox="-1.875 -1.875 60 60" xmlns="http://www.w3.org/2000/svg" xmlns:xlink="http://www.w3.org/1999/xlink" id="Car-Tool-Battery-Bolt--Streamline-Ultimate" overflow="hidden"><defs></defs><path d="M4.10156 13.4766 52.1484 13.4766C52.1484 13.4766 54.4922 13.4766 54.4922 15.8203L54.4922 46.2891C54.4922 46.2891 54.4922 48.6328 52.1484 48.6328L4.10156 48.6328C4.10156 48.6328 1.75781 48.6328 1.75781 46.2891L1.75781 15.8203C1.75781 15.8203 1.75781 13.4766 4.10156 13.4766" stroke="#66737C" stroke-width="3.33333" stroke-linecap="round" stroke-linejoin="round" fill="none"/><path d="M11.1328 6.44531 16.9922 6.44531C18.2866 6.44531 19.3359 7.49465 19.3359 8.78906L19.3359 13.4766 19.3359 13.4766 8.78906 13.4766 8.78906 13.4766 8.78906 8.78906C8.78906 7.49465 9.8384 6.44531 11.1328 6.44531Z" stroke="#66737C" stroke-width="3.33333" stroke-linecap="round" stroke-linejoin="round" fill="none"/><path d="M47.4609 13.4766 36.9141 13.4766 36.9141 13.4766 36.9141 8.78906C36.9141 7.49465 37.9634 6.44531 39.2578 6.44531L45.1172 6.44531C46.4116 6.44531 47.4609 7.49465 47.4609 8.78906L47.4609 13.4766 47.4609 13.4766Z" stroke="#66737C" stroke-width="3.33333" stroke-linecap="round" stroke-linejoin="round" fill="none"/><path d="M28.125 20.5078 22.8516 31.0547 31.6406 31.0547 26.3672 41.6016" stroke="#66737C" stroke-width="3.33333" stroke-linecap="round" stroke-linejoin="round" fill="none"/></svg>