<svg width="60" height="60" viewBox="-1.875 -1.875 60 60" xmlns="http://www.w3.org/2000/svg" xmlns:xlink="http://www.w3.org/1999/xlink" id="Car-Tool-Lug-Wrench--Streamline-Ultimate" overflow="hidden"><path d="M35.1562 5.27344C35.1562 9.15669 32.0083 12.3047 28.125 12.3047 24.2417 12.3047 21.0938 9.15669 21.0938 5.27344L21.0938 1.75781 35.1562 1.75781Z" stroke="#66737C" stroke-width="3.57143" stroke-linecap="round" stroke-linejoin="round" fill="none"/><path d="M21.0938 50.9766C21.0938 47.0933 24.2417 43.9453 28.125 43.9453 32.0083 43.9453 35.1562 47.0933 35.1562 50.9766L35.1562 54.4922 21.0938 54.4922Z" stroke="#66737C" stroke-width="3.57143" stroke-linecap="round" stroke-linejoin="round" fill="none"/><path d="M44.8875 24.6094 35.1562 24.6094C33.2146 24.6094 31.6406 23.0354 31.6406 21.0938L31.6406 11.3531" stroke="#66737C" stroke-width="3.57143" stroke-linecap="round" stroke-linejoin="round" fill="none"/><path d="M31.6406 44.8875 31.6406 35.1562C31.6406 33.2146 33.2146 31.6406 35.1562 31.6406L44.8875 31.6406" stroke="#66737C" stroke-width="3.57143" stroke-linecap="round" stroke-linejoin="round" fill="none"/><path d="M11.3625 31.6406 21.0938 31.6406C23.0354 31.6406 24.6094 33.2146 24.6094 35.1562L24.6094 44.8875" stroke="#66737C" stroke-width="3.57143" stroke-linecap="round" stroke-linejoin="round" fill="none"/><path d="M24.6094 11.3531 24.6094 21.0938C24.6094 23.0354 23.0354 24.6094 21.0938 24.6094L11.3625 24.6094" stroke="#66737C" stroke-width="3.57143" stroke-linecap="round" stroke-linejoin="round" fill="none"/><path d="M50.9766 35.1562C47.0933 35.1562 43.9453 32.0083 43.9453 28.125 43.9453 24.2417 47.0933 21.0938 50.9766 21.0938L54.4922 21.0938 54.4922 35.1562Z" stroke="#66737C" stroke-width="3.57143" stroke-linecap="round" stroke-linejoin="round" fill="none"/><path d="M5.27344 21.0938C9.15669 21.0938 12.3047 24.2417 12.3047 28.125 12.3047 32.0083 9.15669 35.1562 5.27344 35.1562L1.75781 35.1562 1.75781 21.0938Z" stroke="#66737C" stroke-width="3.57143" stroke-linecap="round" stroke-linejoin="round" fill="none"/></svg>