<svg width="60" height="60" viewBox="-1.875 -1.875 60 60" xmlns="http://www.w3.org/2000/svg" xmlns:xlink="http://www.w3.org/1999/xlink" id="Car-Retro-1--Streamline-Ultimate" overflow="hidden"><path d="M40.3547 40.4297C40.3547 42.3713 41.9287 43.9453 43.8703 43.9453 45.8119 43.9453 47.3859 42.3713 47.3859 40.4297 47.3859 38.4881 45.8119 36.9141 43.8703 36.9141 41.9287 36.9141 40.3547 38.4881 40.3547 40.4297Z" stroke="#66737C" stroke-width="3.57143" stroke-linecap="round" stroke-linejoin="round" fill="none"/><path d="M8.71406 40.4297C8.71406 42.3713 10.2881 43.9453 12.2297 43.9453 14.1713 43.9453 15.7453 42.3713 15.7453 40.4297 15.7453 38.4881 14.1713 36.9141 12.2297 36.9141 10.2881 36.9141 8.71406 38.4881 8.71406 40.4297Z" stroke="#66737C" stroke-width="3.57143" stroke-linecap="round" stroke-linejoin="round" fill="none"/><path d="M47.3859 40.4297 50.9766 40.4297C52.9182 40.4297 54.4922 38.8557 54.4922 36.9141 54.4574 31.0744 49.7101 26.3606 43.8703 26.3672 43.8703 26.3672 38.5969 10.5469 24.5344 10.5469 13.9875 10.5469 2.65781 16.8328 1.76016 36.8344 1.67731 38.7354 3.15121 40.3436 5.0522 40.4264 5.10092 40.4285 5.14967 40.4296 5.19844 40.4297L8.71406 40.4297" stroke="#66737C" stroke-width="3.57143" stroke-linecap="round" stroke-linejoin="round" fill="none"/><path d="M40.3547 40.4297 15.7453 40.4297" stroke="#66737C" stroke-width="3.57143" stroke-linecap="round" stroke-linejoin="round" fill="none"/><path d="M43.8703 26.3672 3.47813 26.3672" stroke="#66737C" stroke-width="3.57143" stroke-linecap="round" stroke-linejoin="round" fill="none"/><path d="M22.8516 26.3672 22.8516 10.6055" stroke="#66737C" stroke-width="3.57143" stroke-linecap="round" stroke-linejoin="round" fill="none"/></svg>