<svg width="60" height="60" viewBox="-1.875 -1.875 60 60" xmlns="http://www.w3.org/2000/svg" xmlns:xlink="http://www.w3.org/1999/xlink" id="Card-Game-Cards-Spade-Diamond--Streamline-Ultimate" fill="none" overflow="hidden"><path d="M29.3227 4.59377C29.2355 4.14227 29.0599 3.71243 28.8063 3.3288 28.5527 2.94516 28.226 2.61527 27.8449 2.35798 27.4638 2.10069 27.0356 1.92105 26.5852 1.82934 26.1345 1.73762 25.6702 1.73562 25.2188 1.82345L4.59377 5.82659C3.68358 6.00691 2.88159 6.53977 2.36264 7.30896 1.8437 8.07816 1.64989 9.02133 1.82346 9.93284L7.83049 40.8703C8.00742 41.7818 8.53917 42.5857 9.30879 43.1053 10.0784 43.6249 11.0228 43.8173 11.9344 43.6406L13.868 43.2656" stroke="#66737C" stroke-width="3.57143" stroke-linecap="round" stroke-linejoin="round"/><path d="M19.5867 16.0219 15.7641 23.8992 17.5289 25.493" stroke="#66737C" stroke-width="3.57143" stroke-linecap="round" stroke-linejoin="round"/><path d="M52.6012 16.684 29.7403 12.0652C28.4719 11.8089 27.2358 12.6295 26.9794 13.898L20.2807 47.0534C20.0244 48.322 20.845 49.5581 22.1135 49.8143L44.9742 54.4331C46.2429 54.6895 47.479 53.869 47.7352 52.6003L54.4341 19.445C54.6902 18.1764 53.8697 16.9403 52.6012 16.684Z" stroke="#66737C" stroke-width="3.57143" stroke-linecap="round" stroke-linejoin="round"/><path d="M35.9766 40.1203 36.6703 36.6891" stroke="#66737C" stroke-width="3.57143" stroke-linecap="round" stroke-linejoin="round"/><path d="M39.0984 24.675C39.0984 24.675 33.2555 27.068 32.5617 30.4992 32.4251 31.1754 32.423 31.872 32.5554 32.5491 32.688 33.2259 32.9524 33.8702 33.334 34.4452 34.1046 35.606 35.3046 36.4132 36.6703 36.6891 38.036 36.9652 39.4554 36.6872 40.616 35.9168 41.7769 35.1462 42.5841 33.9462 42.8602 32.5805 43.5539 29.1469 39.0984 24.675 39.0984 24.675Z" stroke="#66737C" stroke-width="3.57143" stroke-linecap="round" stroke-linejoin="round"/><path d="M8.33946 12.2231C7.85405 12.2231 7.46055 11.8296 7.46055 11.3442 7.46055 10.8588 7.85405 10.4653 8.33946 10.4653" stroke="#66737C" stroke-width="3.57143"/><path d="M8.33946 12.2231C8.82485 12.2231 9.21837 11.8296 9.21837 11.3442 9.21837 10.8588 8.82485 10.4653 8.33946 10.4653" stroke="#66737C" stroke-width="3.57143"/><path d="M32.2418 19.7028C31.7564 19.7028 31.3629 19.3093 31.3629 18.8239 31.3629 18.3385 31.7564 17.945 32.2418 17.945" stroke="#66737C" stroke-width="3.57143"/><path d="M32.2418 19.7028C32.7272 19.7028 33.1207 19.3093 33.1207 18.8239 33.1207 18.3385 32.7272 17.945 32.2418 17.945" stroke="#66737C" stroke-width="3.57143"/><g><path d="M42.4816 48.566C41.9963 48.566 41.6027 48.1725 41.6027 47.6871 41.6027 47.2017 41.9963 46.8082 42.4816 46.8082" stroke="#66737C" stroke-width="3.57143"/><path d="M42.4816 48.566C42.967 48.566 43.3605 48.1725 43.3605 47.6871 43.3605 47.2017 42.967 46.8082 42.4816 46.8082" stroke="#66737C" stroke-width="3.57143"/></g></svg>