<svg width="44.8" height="44.8" viewBox="-1.6 -1.6 44.8 44.8" xmlns="http://www.w3.org/2000/svg" xmlns:xlink="http://www.w3.org/1999/xlink" id="Cart-Checkout--Streamline-Core" fill="none" overflow="hidden"><g id="cart-checkout--shopping-cart-checkout-payment-proceed"><path d="M32.5261 40.1143C31.7054 40.1143 31.0404 39.449 31.0404 38.6286 31.0404 37.8082 31.7054 37.1429 32.5261 37.1429 33.3466 37.1429 34.0119 37.8082 34.0119 38.6286 34.0119 39.449 33.3466 40.1143 32.5261 40.1143Z" id="Vector" stroke="#66737C" stroke-width="2.67857" stroke-linecap="round" stroke-linejoin="round"/><path d="M13.2118 40.1143C12.3913 40.1143 11.7261 39.449 11.7261 38.6286 11.7261 37.8082 12.3913 37.1429 13.2118 37.1429 14.0324 37.1429 14.6975 37.8082 14.6975 38.6286 14.6975 39.449 14.0324 40.1143 13.2118 40.1143Z" id="Vector_2" stroke="#66737C" stroke-width="2.67857" stroke-linecap="round" stroke-linejoin="round"/><path d="M1.48571 1.48571 8.93164 1.48571 9.71541 8.91429M9.71541 8.91429 11.6293 27.0539C11.7889 28.5662 13.0671 29.7143 14.5913 29.7143L33.4116 29.7143C34.7782 29.7143 35.9694 28.7863 36.3011 27.4635L40.024 12.6064C40.4937 10.731 39.0722 8.91429 37.1345 8.91429L9.71541 8.91429Z" id="Vector 2498" stroke="#66737C" stroke-width="2.67857" stroke-linecap="round" stroke-linejoin="round"/><path d="M19.3143 19.3143 29.7143 19.3143" id="Vector 5319" stroke="#66737C" stroke-width="2.67857" stroke-linecap="round" stroke-linejoin="round"/><path d="M25.2571 14.8571 29.7143 19.3143 25.2571 23.7714" id="Vector 5320" stroke="#66737C" stroke-width="2.67857" stroke-linecap="round" stroke-linejoin="round"/></g></svg>