<svg width="60" height="60" viewBox="-1.875 -1.875 60 60" xmlns="http://www.w3.org/2000/svg" xmlns:xlink="http://www.w3.org/1999/xlink" id="Cash-Pin-Radius--Streamline-Ultimate" overflow="hidden"><path d="M43.1391 40.7648C49.9992 42.1242 54.4922 44.3906 54.4922 46.957 54.4922 51.1195 42.6867 54.4922 28.125 54.4922 13.5633 54.4922 1.75781 51.1195 1.75781 46.957 1.75781 44.3977 6.22969 42.1359 13.0641 40.7742" stroke="#66737C" stroke-width="3.33333" stroke-linecap="round" stroke-linejoin="round" fill="none"/><path d="M43.9453 17.5781C43.9453 25.1953 31.9172 42.2508 28.8375 46.4906 28.5524 46.8835 28.0028 46.9708 27.6099 46.6857 27.535 46.6314 27.4692 46.5655 27.4148 46.4906 24.3352 42.2508 12.3047 25.1953 12.3047 17.5781 12.3047 8.84081 19.3877 1.75781 28.125 1.75781 36.8623 1.75781 43.9453 8.84081 43.9453 17.5781Z" stroke="#66737C" stroke-width="3.33333" stroke-linecap="round" stroke-linejoin="round" fill="none"/><path d="M32.393 12.3047 26.25 12.3047C24.5129 12.3059 23.1057 13.7151 23.1069 15.4522 23.1078 16.7352 23.8879 17.8891 25.0781 18.368L31.3008 20.3016C32.9136 20.9468 33.6981 22.7773 33.0529 24.3901 32.5747 25.5854 31.4163 26.3687 30.1289 26.3672L22.7344 26.3672" stroke="#66737C" stroke-width="3.33333" stroke-linecap="round" stroke-linejoin="round" fill="none"/><path d="M27.9984 12.3047 27.9984 8.78906" stroke="#66737C" stroke-width="3.33333" stroke-linecap="round" stroke-linejoin="round" fill="none"/><path d="M27.9984 29.8828 27.9984 26.3672" stroke="#66737C" stroke-width="3.33333" stroke-linecap="round" stroke-linejoin="round" fill="none"/></svg>