<svg width="60" height="60" viewBox="-1.875 -1.875 60 60" xmlns="http://www.w3.org/2000/svg" xmlns:xlink="http://www.w3.org/1999/xlink" id="Ccpa-Document-Paper--Streamline-Ultimate" overflow="hidden"><g><path d="M34.5703 54.4922 34.5703 40.4297 37.2188 40.4297C39.6458 40.6071 41.4695 42.7183 41.2921 45.1454 41.1328 47.3256 39.399 49.0594 37.2188 49.2188L34.5703 49.2188" stroke="#66737C" stroke-width="3.33333" stroke-linecap="round" stroke-linejoin="round" fill="none"/><path d="M16.4062 40.4297 14.0625 40.4297C11.4737 40.4297 9.375 42.5284 9.375 45.1172L9.375 49.8047C9.375 52.3935 11.4737 54.4922 14.0625 54.4922L16.4062 54.4922" stroke="#66737C" stroke-width="3.33333" stroke-linecap="round" stroke-linejoin="round" fill="none"/><path d="M28.125 40.4297 25.7812 40.4297C23.1924 40.4297 21.0938 42.5284 21.0938 45.1172L21.0938 49.8047C21.0938 52.3935 23.1924 54.4922 25.7812 54.4922L28.125 54.4922" stroke="#66737C" stroke-width="3.33333" stroke-linecap="round" stroke-linejoin="round" fill="none"/><path d="M46.875 54.2812 46.875 43.9453C46.875 42.0037 48.449 40.4297 50.3906 40.4297 52.3323 40.4297 53.9062 42.0037 53.9062 43.9453L53.9062 54.4922" stroke="#66737C" stroke-width="3.33333" stroke-linecap="round" stroke-linejoin="round" fill="none"/><path d="M46.875 49.8047 53.9062 49.8047" stroke="#66737C" stroke-width="3.33333" stroke-linecap="round" stroke-linejoin="round" fill="none"/><path d="M41.0156 1.75781 9.375 1.75781C5.49175 1.75781 2.34375 4.90581 2.34375 8.78906L2.34375 50.9766" stroke="#66737C" stroke-width="3.33333" stroke-linecap="round" stroke-linejoin="round" fill="none"/><path d="M9.375 11.7188 25.1953 11.7188" stroke="#66737C" stroke-width="3.33333" stroke-linecap="round" stroke-linejoin="round" fill="none"/><path d="M9.375 19.9219 25.1953 19.9219" stroke="#66737C" stroke-width="3.33333" stroke-linecap="round" stroke-linejoin="round" fill="none"/><path d="M9.375 28.125 17.25 28.125" stroke="#66737C" stroke-width="3.33333" stroke-linecap="round" stroke-linejoin="round" fill="none"/><path d="M35.7422 33.3984 35.7422 7.03125C35.7422 4.11881 38.1032 1.75781 41.0156 1.75781 43.9281 1.75781 46.2891 4.11881 46.2891 7.03125L46.2891 10.5469 35.7422 10.5469" stroke="#66737C" stroke-width="3.33333" stroke-linecap="round" stroke-linejoin="round" fill="none"/></g></svg>