<svg width="60" height="60" viewBox="-1.875 -1.875 60 60" xmlns="http://www.w3.org/2000/svg" xmlns:xlink="http://www.w3.org/1999/xlink" id="Chain--Streamline-Ultimate" fill="none" overflow="hidden"><path d="M54.4922 1.75781 44.6484 11.6016" stroke="#66737C" stroke-width="3.33333" stroke-linecap="round" stroke-linejoin="round" stroke-miterlimit="10"/><path d="M11.6016 44.6484 1.75781 54.4922" stroke="#66737C" stroke-width="3.33333" stroke-linecap="round" stroke-linejoin="round" stroke-miterlimit="10"/><path d="M35.1562 21.0938 21.0938 35.1562" stroke="#66737C" stroke-width="3.33333" stroke-linecap="round" stroke-linejoin="round" stroke-miterlimit="10"/><path d="M47.5782 8.67191C47.5782 8.67191 52.8516 13.9454 47.5782 19.2188L41.4843 25.3127C41.4843 25.3127 36.2109 30.5861 30.9374 25.3127 25.6639 20.0392 25.6639 20.0392 30.9374 14.7657L37.0312 8.67191C37.0312 8.67191 42.3047 3.39844 47.5782 8.67191" stroke="#66737C" stroke-width="3.33333" stroke-linejoin="round"/><path d="M25.3125 30.9375C25.3125 30.9375 30.586 36.211 25.3125 41.4845L19.2187 47.5783C19.2187 47.5783 13.9452 52.8518 8.67177 47.5783 3.3983 42.3048 3.3983 42.3048 8.67177 37.0314L14.7656 30.9375C14.7656 30.9375 20.0391 25.6641 25.3125 30.9375" stroke="#66737C" stroke-width="3.33333" stroke-linejoin="round"/></svg>