<svg width="60" height="60" viewBox="-2.14 -2.14 60 60" xmlns="http://www.w3.org/2000/svg" xmlns:xlink="http://www.w3.org/1999/xlink" id="Champagne-Bottle-Glass--Streamline-Ultimate.svg" overflow="hidden"><path d="M25.3805 14.4593C24.7132 10.9253 24.3774 7.33668 24.3775 3.74021L24.3775 3.4825C24.3775 2.52083 23.5979 1.74125 22.6363 1.74125L19.1537 1.74125C18.1921 1.74125 17.4125 2.52083 17.4125 3.4825L17.4125 3.74021C17.4121 10.4817 16.2335 17.1712 13.93 23.5069L13.93 23.5069C11.6265 29.8426 10.4479 36.5321 10.4475 43.2735L10.4475 50.4963C10.4475 52.4196 12.0067 53.9787 13.93 53.9787L26.1187 53.9787" stroke="#66737C" stroke-width="3.57143" stroke-linecap="round" stroke-linejoin="round" fill="none"/><path d="M24.5214 29.0928C23.3424 29.4311 22.1216 29.6023 20.895 29.6013 17.9683 29.6178 15.1258 28.623 12.8481 26.7851" stroke="#66737C" stroke-width="3.57143" stroke-linecap="round" stroke-linejoin="round" fill="none"/><path d="M17.4125 41.79C17.4125 43.7133 18.9717 45.2725 20.895 45.2725 22.8183 45.2725 24.3775 43.7133 24.3775 41.79 24.3775 39.8667 22.8183 38.3075 20.895 38.3075 18.9717 38.3075 17.4125 39.8667 17.4125 41.79Z" stroke="#66737C" stroke-width="3.57143" stroke-linecap="round" stroke-linejoin="round" fill="none"/><path d="M17.1989 8.70625 24.5911 8.70625" stroke="#66737C" stroke-width="3.57143" stroke-linecap="round" stroke-linejoin="round" fill="none"/><path d="M34.825 53.9787 41.79 53.9787" stroke="#66737C" stroke-width="3.57143" stroke-linecap="round" stroke-linejoin="round" fill="none"/><path d="M38.3075 53.9787 38.3075 45.2725" stroke="#66737C" stroke-width="3.57143" stroke-linecap="round" stroke-linejoin="round" fill="none"/><path d="M42.1708 44.1558 42.1708 44.1558C39.8103 45.644 36.8047 45.644 34.4442 44.1558L34.4442 44.1558C32.2883 42.8218 31.0984 40.3614 31.3913 37.8432L33.2486 20.2101C33.3268 19.5946 33.8564 19.137 34.4767 19.1491L42.1382 19.1491C42.7586 19.137 43.2882 19.5946 43.3664 20.2101L45.2237 37.8432C45.5166 40.3614 44.3267 42.8218 42.1708 44.1558Z" stroke="#66737C" stroke-width="3.57143" stroke-linecap="round" stroke-linejoin="round" fill="none"/><path d="M32.2503 29.6012 44.3647 29.6012" stroke="#66737C" stroke-width="3.57143" stroke-linecap="round" stroke-linejoin="round" fill="none"/></svg>