<svg width="60" height="60" viewBox="-2.14 -2.14 60 60" xmlns="http://www.w3.org/2000/svg" xmlns:xlink="http://www.w3.org/1999/xlink" id="Chess-Bishop--Streamline-Ultimate.svg" fill="none" overflow="hidden"><path d="M31.6483 9.25063C32.1576 8.51058 32.4557 7.61391 32.4557 6.64758 32.4557 4.10882 30.3978 2.05073 27.8588 2.05073 25.3201 2.05073 23.2622 4.10882 23.2622 6.64758 23.2622 7.61379 23.5603 8.51037 24.0694 9.25038 20.7624 12.4882 16.4891 17.5169 16.4891 21.8827 16.4891 25.9374 18.1394 28.5461 20.7199 30.0407L18.9993 42.3421 18.5402 42.3421 15.0242 45.4009C13.5038 46.7238 12.6309 48.6403 12.6309 50.6558L12.6309 53.6693 43.0873 53.6693 43.0873 50.6558C43.0873 48.6403 42.2144 46.7238 40.6939 45.4011L37.178 42.3421 36.7197 42.3421 34.9991 30.0398C37.5787 28.5449 39.2283 25.9365 39.2283 21.8827 39.2283 17.517 34.9552 12.4885 31.6483 9.25063Z" stroke="#66737C" stroke-width="3.57143" stroke-linecap="round" stroke-linejoin="round"/><path d="M31.3244 19.4768 35.4105 15.3907" stroke="#66737C" stroke-width="3.57143" stroke-linecap="round" stroke-linejoin="round"/><path d="M18.9769 42.3444 36.7487 42.3444" stroke="#66737C" stroke-width="3.57143" stroke-linecap="round" stroke-linejoin="round"/></svg>