<svg width="60" height="60" viewBox="-2.14 -2.14 60 60" xmlns="http://www.w3.org/2000/svg" xmlns:xlink="http://www.w3.org/1999/xlink" id="Clean-Car-Cable--Streamline-Ultimate.svg" overflow="hidden"><path d="M43.5312 36.5662 43.5312 32.7843C43.5311 31.8613 43.1645 30.9761 42.512 30.3233L40.0488 26.1187 15.6713 26.1187 13.208 30.3233C12.5555 30.9761 12.1889 31.8613 12.1888 32.7843L12.1888 36.5662C12.1888 38.4896 13.7479 40.0487 15.6713 40.0487L40.0488 40.0488C41.9721 40.0488 43.5312 38.4896 43.5312 36.5663Z" stroke="#66737C" stroke-width="3.57143" stroke-linecap="round" stroke-linejoin="round" fill="none"/><path d="M34.0565 15.6713C35.4083 15.5869 36.6901 16.2796 37.3603 17.4566L40.0488 26.1187 15.6713 26.1187 18.3597 17.4566C19.0299 16.2796 20.3117 15.5869 21.6635 15.6713Z" stroke="#66737C" stroke-width="3.57143" stroke-linecap="round" stroke-linejoin="round" fill="none"/><path d="M19.1537 33.0838 22.6362 33.0838" stroke="#66737C" stroke-width="3.57143" stroke-linecap="round" stroke-linejoin="round" fill="none"/><path d="M33.0838 33.0838 36.5662 33.0838" stroke="#66737C" stroke-width="3.57143" stroke-linecap="round" stroke-linejoin="round" fill="none"/><path d="M27.86 1.74125C42.3656 1.6619 54.1889 13.3567 54.2683 27.8622 54.3476 42.3678 42.6529 54.1911 28.1473 54.2705 13.6418 54.3498 1.8184 42.6551 1.73905 28.1495 1.71526 23.7996 2.77226 19.5118 4.81514 15.6713" stroke="#66737C" stroke-width="3.57143" stroke-linecap="round" stroke-linejoin="round" fill="none"/><path d="M15.6713 40.0488 15.6713 43.5312" stroke="#66737C" stroke-width="3.57143" stroke-linecap="round" stroke-linejoin="round" fill="none"/><path d="M40.0488 40.0488 40.0488 43.5312" stroke="#66737C" stroke-width="3.57143" stroke-linecap="round" stroke-linejoin="round" fill="none"/><path d="M12.4 15.8825C10.36 17.9225 7.05249 17.9225 5.01248 15.8825 2.97246 13.8425 2.97246 10.535 5.01248 8.49498L8.70625 4.80121 16.0938 12.1888Z" stroke="#66737C" stroke-width="3.57143" stroke-linecap="round" stroke-linejoin="round" fill="none"/><path d="M9.93673 6.03169 12.4 3.57072" stroke="#66737C" stroke-width="3.57143" stroke-linecap="round" stroke-linejoin="round" fill="none"/><path d="M14.8633 10.9583 17.3243 8.49498" stroke="#66737C" stroke-width="3.57143" stroke-linecap="round" stroke-linejoin="round" fill="none"/></svg>