<svg width="60" height="60" viewBox="-1.875 -1.875 60 60" xmlns="http://www.w3.org/2000/svg" xmlns:xlink="http://www.w3.org/1999/xlink" id="Coding-Apps-Website-Lock-Star--Streamline-Ultimate" fill="none" overflow="hidden"><path d="M27.1078 2.38833C27.2016 2.19855 27.3464 2.03876 27.5262 1.92704 27.7059 1.81531 27.9134 1.7561 28.125 1.7561 28.3366 1.7561 28.5441 1.81531 28.7238 1.92704 28.9036 2.03876 29.0484 2.19855 29.1422 2.38833L31.507 7.17427C31.5891 7.33777 31.7091 7.47914 31.8572 7.58644 32.0053 7.69371 32.1769 7.76377 32.3578 7.79067L37.6617 8.55942C37.8698 8.58816 38.0655 8.6748 38.2268 8.80948 38.388 8.94417 38.5083 9.12148 38.5734 9.32114 38.6393 9.51928 38.6477 9.73198 38.598 9.93473 38.5481 10.1375 38.4422 10.3221 38.2922 10.4672L34.4531 14.2172C34.3235 14.3433 34.2262 14.4989 34.17 14.6708 34.1135 14.8426 34.0997 15.0256 34.1297 15.204L35.0367 20.4891C35.0719 20.6956 35.0482 20.9079 34.9683 21.1015 34.8881 21.2951 34.7552 21.4623 34.5844 21.5836 34.4123 21.7058 34.2098 21.7781 33.9994 21.7926 33.7889 21.807 33.5784 21.7631 33.3914 21.6657L28.6547 19.1837C28.4909 19.0982 28.3088 19.0536 28.1238 19.0536 27.9389 19.0536 27.7568 19.0982 27.593 19.1837L22.8703 21.6657C22.6832 21.7631 22.4728 21.807 22.2623 21.7926 22.0518 21.7781 21.8494 21.7058 21.6773 21.5836 21.506 21.4627 21.3723 21.2958 21.2918 21.1021 21.2114 20.9084 21.1874 20.6959 21.2227 20.4891L22.1297 15.204C22.1611 15.0258 22.1483 14.8426 22.0923 14.6705 22.0363 14.4985 21.9389 14.3428 21.8086 14.2172L17.9578 10.4672C17.8076 10.3222 17.7013 10.1377 17.6512 9.93499 17.601 9.73228 17.609 9.51954 17.6742 9.32114 17.74 9.12176 17.8602 8.94473 18.0213 8.81013 18.1825 8.67551 18.378 8.58867 18.5859 8.55942L23.8898 7.79067C24.0713 7.76433 24.2435 7.69451 24.3921 7.58716 24.5407 7.47984 24.6609 7.33819 24.743 7.17427L27.1078 2.38833Z" stroke="#66737C" stroke-width="3.33333" stroke-linecap="round" stroke-linejoin="round"/><path d="M14.8172 23.7633 12.7945 22.6992C12.6306 22.6137 12.4485 22.5691 12.2637 22.5691 12.0788 22.5691 11.8967 22.6137 11.7328 22.6992L7.00781 25.1812C6.82069 25.2787 6.61027 25.3226 6.39977 25.308 6.18928 25.2935 5.98688 25.2213 5.81484 25.0992 5.6441 24.9778 5.51107 24.8107 5.43105 24.6171 5.35104 24.4235 5.32727 24.2112 5.3625 24.0047L6.26953 18.7195C6.29995 18.5413 6.28662 18.3584 6.23067 18.1865 6.17475 18.0146 6.07788 17.8589 5.94844 17.7328L2.09531 13.9828C1.94545 13.8365 1.83969 13.6511 1.79008 13.4476 1.74047 13.2441 1.74901 13.0308 1.81472 12.832 1.88043 12.6331 2.00068 12.4567 2.16175 12.3229 2.32283 12.189 2.51827 12.1031 2.72578 12.075L8.02969 11.3062C8.21105 11.2798 8.38334 11.21 8.53188 11.1027 8.68043 10.9954 8.80083 10.8537 8.88281 10.6898L11.25 5.90386C11.3438 5.71451 11.4889 5.55525 11.6687 5.44423 11.8485 5.33318 12.0559 5.27482 12.2672 5.27573" stroke="#66737C" stroke-width="3.33333" stroke-linecap="round" stroke-linejoin="round"/><path d="M41.4328 23.7633 43.4555 22.6992C43.6193 22.6137 43.8014 22.5691 43.9863 22.5691 44.1712 22.5691 44.3534 22.6137 44.5172 22.6992L49.2398 25.1812C49.4273 25.2785 49.6383 25.3226 49.849 25.308 50.0599 25.2935 50.2627 25.2213 50.4352 25.0992 50.606 24.9778 50.7389 24.8107 50.8191 24.6171 50.899 24.4235 50.9227 24.2112 50.8875 24.0047L49.9805 18.7195C49.95 18.5413 49.9634 18.3584 50.0194 18.1865 50.0752 18.0146 50.1722 17.8589 50.3016 17.7328L54.1547 13.9828C54.3045 13.8365 54.4104 13.6511 54.4598 13.4476 54.5095 13.2441 54.5011 13.0308 54.4352 12.832 54.3696 12.6331 54.2494 12.4567 54.0884 12.3229 53.9271 12.189 53.7316 12.1031 53.5242 12.075L48.2203 11.3062C48.0389 11.2798 47.8666 11.21 47.718 11.1027 47.5695 10.9954 47.4492 10.8537 47.3672 10.6898L45 5.90386C44.9062 5.71451 44.7612 5.55525 44.5814 5.44423 44.4014 5.33318 44.1942 5.27482 43.9828 5.27573" stroke="#66737C" stroke-width="3.33333" stroke-linecap="round" stroke-linejoin="round"/><path d="M36.3281 40.4297 19.9219 40.4297C18.6275 40.4297 17.5781 41.479 17.5781 42.7734L17.5781 52.1484C17.5781 53.4429 18.6275 54.4922 19.9219 54.4922L36.3281 54.4922C37.6226 54.4922 38.6719 53.4429 38.6719 52.1484L38.6719 42.7734C38.6719 41.479 37.6226 40.4297 36.3281 40.4297Z" stroke="#66737C" stroke-width="3.33333" stroke-linecap="round" stroke-linejoin="round"/><path d="M21.0938 40.4297 21.0938 35.7422C21.0938 33.8775 21.8345 32.089 23.1532 30.7704 24.4718 29.4518 26.2603 28.7109 28.125 28.7109 29.9897 28.7109 31.7782 29.4518 33.0968 30.7704 34.4154 32.089 35.1562 33.8775 35.1562 35.7422L35.1562 40.4297" stroke="#66737C" stroke-width="3.33333" stroke-linecap="round" stroke-linejoin="round"/><path d="M28.125 48.3398C27.6396 48.3398 27.2461 47.9463 27.2461 47.4609 27.2461 46.9755 27.6396 46.582 28.125 46.582" stroke="#66737C" stroke-width="3.33333"/><path d="M28.125 48.3398C28.6104 48.3398 29.0039 47.9463 29.0039 47.4609 29.0039 46.9755 28.6104 46.582 28.125 46.582" stroke="#66737C" stroke-width="3.33333"/></svg>