<svg width="60" height="60" viewBox="-2.14 -2.14 60 60" xmlns="http://www.w3.org/2000/svg" xmlns:xlink="http://www.w3.org/1999/xlink" id="Coding-Apps-Website-Big-Data-Cloud-Network--Streamline-Ultimate.svg" overflow="hidden"><defs></defs><path d="M38.8345 23.8667C36.7739 23.8731 34.8232 24.7973 33.5133 26.3881 32.9683 20.658 27.8814 16.4547 22.1514 16.9997 16.4213 17.5446 12.218 22.6315 12.763 28.3615 13.2727 33.7206 17.78 37.8097 23.1633 37.7967L38.8345 37.7967C42.6812 37.7967 45.7995 34.6784 45.7995 30.8317 45.7995 26.9851 42.6812 23.8667 38.8345 23.8667Z" stroke="#66737C" stroke-width="3.57143" stroke-linecap="round" stroke-linejoin="round" fill="none"/><path d="M9.66742 9.66742 12.2329 12.8435" stroke="#66737C" stroke-width="3.57143" stroke-linecap="round" stroke-linejoin="round" fill="none"/><path d="M1.74125 6.38458C1.74125 8.94903 3.82014 11.0279 6.38458 11.0279 8.94903 11.0279 11.0279 8.94903 11.0279 6.38458 11.0279 3.82014 8.94903 1.74125 6.38458 1.74125 3.82014 1.74125 1.74125 3.82014 1.74125 6.38458" stroke="#66737C" stroke-width="3.57143" stroke-linecap="round" stroke-linejoin="round" fill="none"/><path d="M24.3775 6.38458C24.3775 8.94903 26.4564 11.0279 29.0208 11.0279 31.5853 11.0279 33.6642 8.94903 33.6642 6.38458 33.6642 3.82014 31.5853 1.74125 29.0208 1.74125 26.4564 1.74125 24.3775 3.82014 24.3775 6.38458" stroke="#66737C" stroke-width="3.57143" stroke-linecap="round" stroke-linejoin="round" fill="none"/><path d="M24.3775 49.3354C24.3775 51.8999 26.4564 53.9787 29.0208 53.9787 31.5853 53.9787 33.6642 51.8999 33.6642 49.3354 33.6642 46.771 31.5853 44.6921 29.0208 44.6921 26.4564 44.6921 24.3775 46.771 24.3775 49.3354" stroke="#66737C" stroke-width="3.57143" stroke-linecap="round" stroke-linejoin="round" fill="none"/><path d="M44.6921 6.38458C44.6921 8.94903 46.771 11.0279 49.3354 11.0279 51.8999 11.0279 53.9787 8.94903 53.9787 6.38458 53.9787 3.82014 51.8999 1.74125 49.3354 1.74125 46.771 1.74125 44.6921 3.82014 44.6921 6.38458" stroke="#66737C" stroke-width="3.57143" stroke-linecap="round" stroke-linejoin="round" fill="none"/><path d="M44.6921 49.3354C44.6921 51.8999 46.771 53.9787 49.3354 53.9787 51.8999 53.9787 53.9787 51.8999 53.9787 49.3354 53.9787 46.771 51.8999 44.6921 49.3354 44.6921 46.771 44.6921 44.6921 46.771 44.6921 49.3354" stroke="#66737C" stroke-width="3.57143" stroke-linecap="round" stroke-linejoin="round" fill="none"/><path d="M1.74125 49.3354C1.74125 51.8999 3.82014 53.9787 6.38458 53.9787 8.94903 53.9787 11.0279 51.8999 11.0279 49.3354 11.0279 46.771 8.94903 44.6921 6.38458 44.6921 3.82014 44.6921 1.74125 46.771 1.74125 49.3354" stroke="#66737C" stroke-width="3.57143" stroke-linecap="round" stroke-linejoin="round" fill="none"/><path d="M9.66742 46.0526 12.2329 43.0251" stroke="#66737C" stroke-width="3.57143" stroke-linecap="round" stroke-linejoin="round" fill="none"/><path d="M43.5754 12.8435 46.0549 9.6651" stroke="#66737C" stroke-width="3.57143" stroke-linecap="round" stroke-linejoin="round" fill="none"/><path d="M43.5754 43.0251 46.0526 46.0526" stroke="#66737C" stroke-width="3.57143" stroke-linecap="round" stroke-linejoin="round" fill="none"/><path d="M28.9674 44.186 28.9674 43.0251" stroke="#66737C" stroke-width="3.57143" stroke-linecap="round" stroke-linejoin="round" fill="none"/><path d="M28.9674 12.8435 28.9674 11.6826" stroke="#66737C" stroke-width="3.57143" stroke-linecap="round" stroke-linejoin="round" fill="none"/></svg>