<svg width="60" height="60" viewBox="-1.875 -1.875 60 60" xmlns="http://www.w3.org/2000/svg" xmlns:xlink="http://www.w3.org/1999/xlink" id="Coding-Apps-Website-Big-Data-Volume-Folder--Streamline-Ultimate" overflow="hidden"><defs></defs><path d="M40.4297 29.8828C40.4297 27.9412 38.8557 26.3672 36.9141 26.3672L15.8203 26.3672 13.3359 23.8805C12.6763 23.2213 11.7818 22.8511 10.8492 22.8516L5.27344 22.8516C3.33181 22.8516 1.75781 24.4256 1.75781 26.3672L1.75781 50.9766C1.75781 52.9182 3.33181 54.4922 5.27344 54.4922L36.9141 54.4922C38.8557 54.4922 40.4297 52.9182 40.4297 50.9766Z" stroke="#66737C" stroke-width="3.33333" stroke-linecap="round" stroke-linejoin="round" fill="none"/><path d="M47.4609 40.4297 47.4609 19.3359C47.4609 17.3943 45.8869 15.8203 43.9453 15.8203L22.8516 15.8203 20.3672 13.3336C19.7076 12.6744 18.813 12.3043 17.8805 12.3047L12.3047 12.3047C10.3631 12.3047 8.78906 13.8787 8.78906 15.8203" stroke="#66737C" stroke-width="3.33333" stroke-linecap="round" stroke-linejoin="round" fill="none"/><path d="M54.4922 29.8828 54.4922 8.78906C54.4922 6.84744 52.9182 5.27344 50.9766 5.27344L29.8828 5.27344 27.3984 2.78672C26.7388 2.12751 25.8443 1.75739 24.9117 1.75781L19.3359 1.75781C17.3943 1.75781 15.8203 3.33181 15.8203 5.27344" stroke="#66737C" stroke-width="3.33333" stroke-linecap="round" stroke-linejoin="round" fill="none"/></svg>