<svg width="60" height="60" viewBox="-2.14 -2.14 60 60" xmlns="http://www.w3.org/2000/svg" xmlns:xlink="http://www.w3.org/1999/xlink" id="Coding-Apps-Website-Handshake-Star--Streamline-Ultimate.svg" overflow="hidden"><defs></defs><path d="M26.8083 2.07557C27.0859 1.51909 27.762 1.293 28.3185 1.57059 28.5372 1.67966 28.7144 1.85691 28.8235 2.07557L31.1661 6.81641C31.3301 7.14561 31.6449 7.37367 32.0088 7.42701L37.2627 8.18852C37.8688 8.27083 38.2934 8.82886 38.2111 9.43491 38.1779 9.67948 38.0639 9.90595 37.8873 10.0784L34.0844 13.793C33.8225 14.0458 33.7026 14.4117 33.764 14.7704L34.6625 20.0058C34.732 20.4231 34.5582 20.8436 34.2144 21.09 33.867 21.3367 33.4106 21.3681 33.0327 21.1713L28.3406 18.7126C28.0111 18.5409 27.6184 18.5409 27.2889 18.7126L22.6107 21.1713C22.2328 21.3681 21.7764 21.3367 21.429 21.09 21.082 20.8459 20.9067 20.4239 20.9786 20.0058L21.8771 14.7704C21.9391 14.4121 21.82 14.0463 21.559 13.793L17.7445 10.0784C17.3067 9.65129 17.298 8.95015 17.725 8.51233 17.897 8.33605 18.1228 8.22211 18.3667 8.18852L23.6206 7.42933C23.9853 7.37633 24.3009 7.14828 24.4657 6.81873Z" stroke="#66737C" stroke-width="3.57143" stroke-linecap="round" stroke-linejoin="round" fill="none"/><path d="M18.4689 24.5331C18.5412 24.9506 18.3668 25.3726 18.0208 25.6173 17.6741 25.8661 17.2165 25.8976 16.839 25.6985L12.147 23.2399C11.8174 23.0681 11.4248 23.0681 11.0952 23.2399L6.41709 25.6985C6.0396 25.8976 5.58205 25.8661 5.23536 25.6173 4.88888 25.3728 4.71367 24.951 4.78496 24.5331L5.68344 19.2977C5.74627 18.9393 5.6271 18.5731 5.36537 18.3203L1.55087 14.6056C1.24695 14.3106 1.1379 13.8681 1.26995 13.4657 1.40422 13.0637 1.75364 12.7718 2.17308 12.7111L7.42933 11.9543C7.79427 11.902 8.11022 11.6737 8.27442 11.3437L10.6147 6.60282C10.8923 6.04634 11.5684 5.82025 12.1249 6.09784 12.3435 6.20691 12.5208 6.38416 12.6299 6.60282L13.4076 8.17459" stroke="#66737C" stroke-width="3.57143" stroke-linecap="round" stroke-linejoin="round" fill="none"/><path d="M37.2511 24.5331C37.1788 24.9506 37.3532 25.3726 37.6992 25.6173 38.0459 25.8661 38.5035 25.8976 38.881 25.6985L43.573 23.2399C43.9026 23.0681 44.2952 23.0681 44.6248 23.2399L49.3029 25.6985C49.6804 25.8976 50.138 25.8661 50.4846 25.6173 50.8311 25.3728 51.0063 24.951 50.935 24.5331L50.0366 19.2977C49.9737 18.9393 50.0929 18.5731 50.3546 18.3203L54.1691 14.6056C54.4713 14.3115 54.5802 13.8714 54.4501 13.4703 54.3158 13.0683 53.9664 12.7764 53.5469 12.7158L48.2907 11.9543C47.9257 11.902 47.6098 11.6737 47.4456 11.3437L45.1053 6.60282C44.8277 6.04634 44.1516 5.82025 43.5951 6.09784 43.3764 6.20691 43.1992 6.38416 43.0901 6.60282L42.3124 8.17459" stroke="#66737C" stroke-width="3.57143" stroke-linecap="round" stroke-linejoin="round" fill="none"/><path d="M42.3867 46.763 32.4128 48.7573" stroke="#66737C" stroke-width="3.57143" stroke-linecap="round" stroke-linejoin="round" fill="none"/><path d="M33.3995 37.4438 28.6935 39.4312C27.9421 39.7423 27.0957 39.7305 26.3532 39.3987 25.6032 39.061 25.0184 38.4387 24.7281 37.669 24.1456 36.1672 24.7778 34.467 26.2 33.7106L30.906 31.3611C31.488 31.0592 32.1333 30.9001 32.7889 30.8967 33.2806 30.8964 33.7683 30.9853 34.2283 31.1591L43.8958 34.9666" stroke="#66737C" stroke-width="3.57143" stroke-linecap="round" stroke-linejoin="round" fill="none"/><path d="M13.7652 48.8386 17.4682 48.8386 23.8203 53.6839C24.4375 54.3845 25.4997 54.4677 26.2186 53.872L35.0966 46.5424C35.8283 45.9377 35.9466 44.8608 35.3636 44.1117L30.4719 38.679" stroke="#66737C" stroke-width="3.57143" stroke-linecap="round" stroke-linejoin="round" fill="none"/><path d="M25.6869 34.0426 25.1715 33.6201C24.1354 32.8518 22.7749 32.676 21.5776 33.1557L13.6491 36.3271" stroke="#66737C" stroke-width="3.57143" stroke-linecap="round" stroke-linejoin="round" fill="none"/><path d="M6.33583 51.483 11.2647 51.483C12.5706 51.5529 13.6879 50.555 13.7652 49.2495L13.7652 37.005C13.6879 35.6996 12.5706 34.7016 11.2647 34.7716L6.33583 34.7716" stroke="#66737C" stroke-width="3.57143" stroke-linecap="round" stroke-linejoin="round" fill="none"/><path d="M49.0545 51.483 45.0543 51.483C43.7484 51.5529 42.6311 50.555 42.5538 49.2495L42.5538 37.0004C42.6311 35.6949 43.7484 34.697 45.0543 34.767L49.0545 34.767" stroke="#66737C" stroke-width="3.57143" stroke-linecap="round" stroke-linejoin="round" fill="none"/></svg>