<svg width="60" height="60" viewBox="-1.875 -1.875 60 60" xmlns="http://www.w3.org/2000/svg" xmlns:xlink="http://www.w3.org/1999/xlink" id="Coding-Apps-Website-Gdpr-Shield--Streamline-Ultimate" overflow="hidden"><defs></defs><path d="M8.38359 39.8438C11.5196 45.92 16.7784 50.6326 23.1609 53.0859L25.6008 54.0234C27.2256 54.6484 29.0244 54.6484 30.6492 54.0234L33.0891 53.0859C39.4716 50.6326 44.7304 45.92 47.8664 39.8438" stroke="#66737C" stroke-width="3.33333" stroke-linecap="round" stroke-linejoin="round" fill="none"/><path d="M50.9766 11.7188 50.9766 9.19453C50.9851 7.82301 50.189 6.5738 48.9422 6.00234 42.3791 3.1384 35.2854 1.69203 28.125 1.75781 20.9646 1.69203 13.8709 3.1384 7.30781 6.00234 6.06098 6.5738 5.26486 7.82301 5.27344 9.19453L5.27344 11.7188" stroke="#66737C" stroke-width="3.33333" stroke-linecap="round" stroke-linejoin="round" fill="none"/><path d="M11.4258 19.1883 4.39453 19.1883 4.39453 33.2508 11.4258 33.2508 11.4258 26.2195 9.08203 26.2195" stroke="#66737C" stroke-width="3.33333" stroke-linecap="round" stroke-linejoin="round" fill="none"/><path d="M31.3477 33.2508 31.3477 19.1883" stroke="#66737C" stroke-width="3.33333" stroke-linecap="round" stroke-linejoin="round" fill="none"/><path d="M31.3477 19.1883 33.9844 19.1883C36.4114 19.1883 38.3789 21.1558 38.3789 23.5828 38.3789 26.0098 36.4114 27.9773 33.9844 27.9773L31.3477 27.9773" stroke="#66737C" stroke-width="3.33333" stroke-linecap="round" stroke-linejoin="round" fill="none"/><path d="M44.8242 33.2508 44.8242 19.1883" stroke="#66737C" stroke-width="3.33333" stroke-linecap="round" stroke-linejoin="round" fill="none"/><path d="M44.8242 19.1883 47.4609 19.1883C49.888 19.1883 51.8555 21.1558 51.8555 23.5828 51.8555 26.0098 49.888 27.9773 47.4609 27.9773L44.8242 27.9773" stroke="#66737C" stroke-width="3.33333" stroke-linecap="round" stroke-linejoin="round" fill="none"/><path d="M51.8555 33.2508 46.582 27.9773" stroke="#66737C" stroke-width="3.33333" stroke-linecap="round" stroke-linejoin="round" fill="none"/><path d="M17.8711 19.1883 17.8711 33.2508C21.7543 33.2508 24.9023 30.1028 24.9023 26.2195 24.9023 22.3363 21.7543 19.1883 17.8711 19.1883Z" stroke="#66737C" stroke-width="3.33333" stroke-linecap="round" stroke-linejoin="round" fill="none"/></svg>