<svg width="60" height="60" viewBox="-2.14 -2.14 60 60" xmlns="http://www.w3.org/2000/svg" xmlns:xlink="http://www.w3.org/1999/xlink" id="Coding-Apps-Website-Big-Data-Globe-Cloud--Streamline-Ultimate.svg" overflow="hidden"><defs></defs><path d="M20.7627 25.3503C14.272 25.1692 9.15711 19.7607 9.33819 13.2701 9.51927 6.77941 14.9278 1.6645 21.4184 1.84558 27.5751 2.01735 32.5556 6.91134 32.8353 13.064 35.4498 9.81074 40.2065 9.29286 43.4598 11.9073 46.7131 14.5218 47.231 19.2785 44.6165 22.5318 43.182 24.3168 41.0154 25.3551 38.7254 25.3549Z" stroke="#66737C" stroke-width="3.57143" stroke-linecap="round" stroke-linejoin="round" fill="none"/><path d="M38.0753 53.8348C37.8505 53.1097 37.8051 52.3409 37.943 51.5944L38.4073 49.0986C38.925 46.263 37.0459 43.5447 34.2103 43.0271 34.1161 43.0099 34.0215 42.9953 33.9265 42.9833L32.6125 42.8185C31.0118 42.6099 29.6443 41.5628 29.0255 40.072L27.0312 33.1998" stroke="#66737C" stroke-width="3.57143" stroke-linecap="round" stroke-linejoin="round" fill="none"/><path d="M50.8027 53.8789C50.3793 48.5472 48.0696 43.541 44.2881 39.7585 35.1894 30.8355 20.5805 30.9758 11.6548 40.072 7.92558 43.788 5.55424 48.6501 4.92194 53.8766" stroke="#66737C" stroke-width="3.57143" stroke-linecap="round" stroke-linejoin="round" fill="none"/><path d="M6.99518 47.5942 14.6265 47.5942C18.0693 47.5942 20.8602 50.3851 20.8602 53.8278" stroke="#66737C" stroke-width="3.57143" stroke-linecap="round" stroke-linejoin="round" fill="none"/></svg>