<svg width="60" height="60" viewBox="-2.14 -2.14 60 60" xmlns="http://www.w3.org/2000/svg" xmlns:xlink="http://www.w3.org/1999/xlink" id="Coding-Apps-Website-Web-Form-Progress-4--Streamline-Ultimate.svg" overflow="hidden"><defs></defs><path d="M12.5695 12.7692 23.4024 26.2186C24.3087 27.1252 24.3087 28.5948 23.4024 29.5014L12.5695 42.9508" stroke="#66737C" stroke-width="3.57143" stroke-linecap="round" stroke-linejoin="round" fill="none"/><path d="M53.8789 26.2186C54.7853 27.1252 54.7853 28.5948 53.8789 29.5014L42.2706 42.2706C41.8353 42.706 41.2449 42.9507 40.6292 42.9508L27.6696 42.9508 41.119 29.5014C42.0254 28.5948 42.0254 27.1252 41.119 26.2186L27.6696 12.7692 40.6292 12.7692C41.2449 12.7693 41.8353 13.014 42.2706 13.4494Z" stroke="#66737C" stroke-width="3.57143" stroke-linecap="round" stroke-linejoin="round" fill="none"/><path d="M22.0558 12.7692 12.5695 12.7692" stroke="#66737C" stroke-width="3.57143" stroke-linecap="round" stroke-linejoin="round" fill="none"/><path d="M22.0558 42.9508 12.5695 42.9508" stroke="#66737C" stroke-width="3.57143" stroke-linecap="round" stroke-linejoin="round" fill="none"/><path d="M6.965 12.7692 1.16083 12.7692" stroke="#66737C" stroke-width="3.57143" stroke-linecap="round" stroke-linejoin="round" fill="none"/><path d="M6.965 42.9508 1.16083 42.9508" stroke="#66737C" stroke-width="3.57143" stroke-linecap="round" stroke-linejoin="round" fill="none"/></svg>