<svg width="60" height="60" viewBox="-2.14 -2.14 60 60" xmlns="http://www.w3.org/2000/svg" xmlns:xlink="http://www.w3.org/1999/xlink" id="Coffee-Cup-Hot--Streamline-Ultimate.svg" overflow="hidden"><path d="M19.1537 1.74125C15.6713 5.22375 22.6362 6.965 19.1537 10.4475" stroke="#66737C" stroke-width="3.57143" stroke-linecap="round" stroke-linejoin="round" fill="none"/><path d="M27.86 1.74125C24.3775 5.22375 31.3425 6.965 27.86 10.4475" stroke="#66737C" stroke-width="3.57143" stroke-linecap="round" stroke-linejoin="round" fill="none"/><path d="M36.5662 1.74125C33.0838 5.22375 40.0488 6.965 36.5662 10.4475" stroke="#66737C" stroke-width="3.57143" stroke-linecap="round" stroke-linejoin="round" fill="none"/><path d="M42.5747 38.3307C48.4462 39.9211 52.2375 42.4377 52.2375 45.2725 52.2375 50.0807 41.3257 53.9787 27.86 53.9787 14.3943 53.9787 3.4825 50.0807 3.4825 45.2725 3.4825 42.4377 7.27378 39.9327 13.143 38.3307" stroke="#66737C" stroke-width="3.57143" stroke-linecap="round" stroke-linejoin="round" fill="none"/><path d="M12.1888 24.3775C10.4475 36.5662 14.9446 41.79 14.9446 41.79 15.6713 43.5312 20.7278 47.0137 27.86 47.0137 34.9922 47.0137 40.0488 43.5312 40.7754 41.79 40.7754 41.79 45.2725 36.5662 43.5312 24.3775" stroke="#66737C" stroke-width="3.57143" stroke-linecap="round" stroke-linejoin="round" fill="none"/><path d="M12.1888 24.3775C12.1888 28.2242 19.205 31.3425 27.86 31.3425 36.515 31.3425 43.5312 28.2242 43.5312 24.3775 43.5312 20.5308 36.515 17.4125 27.86 17.4125 19.205 17.4125 12.1888 20.5308 12.1888 24.3775Z" stroke="#66737C" stroke-width="3.57143" stroke-linecap="round" stroke-linejoin="round" fill="none"/><path d="M16.2285 29.0441 17.4125 27.86C20.3398 25.4387 24.0653 24.1968 27.86 24.3775 31.6547 24.1968 35.3802 25.4387 38.3075 27.86L39.4916 29.0441" stroke="#66737C" stroke-width="3.57143" stroke-linecap="round" stroke-linejoin="round" fill="none"/></svg>