<svg width="60" height="60" viewBox="-2.14 -2.14 60 60" xmlns="http://www.w3.org/2000/svg" xmlns:xlink="http://www.w3.org/1999/xlink" id="Cog-Desktop--Streamline-Ultimate.svg" overflow="hidden"><g><g><path d="M31.3425 43.6473C31.5403 47.3801 32.7436 50.99 34.825 54.0948L20.895 54.0948C22.9764 50.99 24.1797 47.3801 24.3775 43.6473" stroke="#66737C" stroke-width="3.57143" stroke-linecap="round" stroke-linejoin="round" fill="none"/><path d="M15.6713 54.0948 40.0488 54.0948" stroke="#66737C" stroke-width="3.57143" stroke-linecap="round" stroke-linejoin="round" fill="none"/><path d="M1.74125 35.5215 53.9787 35.5215" stroke="#66737C" stroke-width="3.57143" stroke-linecap="round" stroke-linejoin="round" fill="none"/><path d="M42.9508 1.85733 50.4963 1.85733C52.4196 1.85733 53.9787 3.4165 53.9787 5.33983L53.9787 40.1648C53.9787 42.0882 52.4196 43.6473 50.4963 43.6473L5.22375 43.6473C3.30042 43.6473 1.74125 42.0882 1.74125 40.1648L1.74125 5.33983C1.74125 3.4165 3.30042 1.85733 5.22375 1.85733L12.7692 1.85733" stroke="#66737C" stroke-width="3.57143" stroke-linecap="round" stroke-linejoin="round" fill="none"/></g><g><path d="M19.1537 14.5104C19.1537 19.3187 23.0517 23.2167 27.86 23.2167 32.6683 23.2167 36.5662 19.3187 36.5662 14.5104 36.5662 9.70209 32.6683 5.80417 27.86 5.80417 23.0517 5.80417 19.1538 9.70209 19.1538 14.5104" stroke="#66737C" stroke-width="3.57143" stroke-linecap="round" stroke-linejoin="round" fill="none"/><path d="M27.86 5.80417 27.86 1.62517" stroke="#66737C" stroke-width="3.57143" stroke-linecap="round" stroke-linejoin="round" fill="none"/><path d="M27.86 27.3957 27.86 23.2167" stroke="#66737C" stroke-width="3.57143" stroke-linecap="round" stroke-linejoin="round" fill="none"/><path d="M36.5662 14.5104 40.7453 14.5104" stroke="#66737C" stroke-width="3.57143" stroke-linecap="round" stroke-linejoin="round" fill="none"/><path d="M14.9747 14.5104 19.1537 14.5104" stroke="#66737C" stroke-width="3.57143" stroke-linecap="round" stroke-linejoin="round" fill="none"/><path d="M19.6413 5.31662 22.2183 7.89367" stroke="#66737C" stroke-width="3.57143" stroke-linecap="round" stroke-linejoin="round" fill="none"/><path d="M36.0787 5.31662 33.5017 7.89367" stroke="#66737C" stroke-width="3.57143" stroke-linecap="round" stroke-linejoin="round" fill="none"/><path d="M19.6413 23.7042 22.2183 21.1272" stroke="#66737C" stroke-width="3.57143" stroke-linecap="round" stroke-linejoin="round" fill="none"/><path d="M36.0787 23.7042 33.5017 21.1272" stroke="#66737C" stroke-width="3.57143" stroke-linecap="round" stroke-linejoin="round" fill="none"/><path d="M27.86 12.7692C28.8217 12.7692 29.6012 13.5488 29.6012 14.5104 29.6012 15.4721 28.8217 16.2517 27.86 16.2517 26.8983 16.2517 26.1188 15.4721 26.1188 14.5104 26.1313 13.554 26.9036 12.7817 27.86 12.7692" stroke="#66737C" stroke-width="3.57143" stroke-linecap="round" stroke-linejoin="round" fill="none"/></g></g></svg>