<svg width="60" height="60" viewBox="-1.875 -1.875 60 60" xmlns="http://www.w3.org/2000/svg" xmlns:xlink="http://www.w3.org/1999/xlink" id="Common-File-Share--Streamline-Ultimate" overflow="hidden"><path d="M26.3672 42.1875C26.3672 45.0999 28.7282 47.4609 31.6406 47.4609 34.5531 47.4609 36.9141 45.0999 36.9141 42.1875 36.9141 39.2751 34.5531 36.9141 31.6406 36.9141 28.7282 36.9141 26.3672 39.2751 26.3672 42.1875Z" stroke="#66737C" stroke-width="3.33333" stroke-linecap="round" stroke-linejoin="round" fill="none"/><path d="M43.9453 49.2188C43.9453 52.1312 46.3063 54.4922 49.2188 54.4922 52.1312 54.4922 54.4922 52.1312 54.4922 49.2188 54.4922 46.3063 52.1312 43.9453 49.2188 43.9453 46.3063 43.9453 43.9453 46.3063 43.9453 49.2188Z" stroke="#66737C" stroke-width="3.33333" stroke-linecap="round" stroke-linejoin="round" fill="none"/><path d="M43.9453 31.6406C43.9453 34.5531 46.3063 36.9141 49.2188 36.9141 52.1312 36.9141 54.4922 34.5531 54.4922 31.6406 54.4922 28.7282 52.1312 26.3672 49.2188 26.3672 46.3063 26.3672 43.9453 28.7282 43.9453 31.6406Z" stroke="#66737C" stroke-width="3.33333" stroke-linecap="round" stroke-linejoin="round" fill="none"/><path d="M36.1523 39.4805 44.707 34.3477" stroke="#66737C" stroke-width="3.33333" stroke-linecap="round" stroke-linejoin="round" fill="none"/><path d="M36.5344 44.1445 44.325 47.2617" stroke="#66737C" stroke-width="3.33333" stroke-linecap="round" stroke-linejoin="round" fill="none"/><path d="M19.3359 47.4609 5.27344 47.4609C3.33181 47.4609 1.75781 45.8869 1.75781 43.9453L1.75781 5.27344C1.75781 3.33181 3.33181 1.75781 5.27344 1.75781L30.1852 1.75781C31.1169 1.75801 32.0105 2.12808 32.6695 2.78672L39.4008 9.51797C40.0594 10.177 40.4295 11.0706 40.4297 12.0023L40.4297 19.3359" stroke="#66737C" stroke-width="3.33333" stroke-linecap="round" stroke-linejoin="round" fill="none"/></svg>