<svg width="60" height="60" viewBox="-2.14 -2.14 60 60" xmlns="http://www.w3.org/2000/svg" xmlns:xlink="http://www.w3.org/1999/xlink" id="Construction-Building--Streamline-Ultimate.svg" overflow="hidden"><defs></defs><path d="M22.6362 38.3075 22.6362 13.93 15.6713 13.93 15.6713 38.3075" stroke="#66737C" stroke-width="3.57143" stroke-linecap="round" stroke-linejoin="round" fill="none"/><path d="M47.0137 24.3775 47.0137 13.93" stroke="#66737C" stroke-width="3.57143" stroke-linecap="round" stroke-linejoin="round" fill="none"/><path d="M1.74125 13.93 47.0137 13.93" stroke="#66737C" stroke-width="3.57143" stroke-linecap="round" stroke-linejoin="round" fill="none"/><path d="M3.4825 45.2725 52.2375 45.2725C52.2375 45.2725 53.9787 45.2725 53.9787 47.0137L53.9787 52.2375C53.9787 52.2375 53.9787 53.9787 52.2375 53.9787L3.4825 53.9787C3.4825 53.9787 1.74125 53.9787 1.74125 52.2375L1.74125 47.0137C1.74125 47.0137 1.74125 45.2725 3.4825 45.2725" stroke="#66737C" stroke-width="3.57143" stroke-linecap="round" stroke-linejoin="round" fill="none"/><path d="M48.755 34.825 48.755 45.2725" stroke="#66737C" stroke-width="3.57143" stroke-linecap="round" stroke-linejoin="round" fill="none"/><path d="M41.79 34.825 41.79 45.2725" stroke="#66737C" stroke-width="3.57143" stroke-linecap="round" stroke-linejoin="round" fill="none"/><path d="M34.825 34.825 34.825 45.2725" stroke="#66737C" stroke-width="3.57143" stroke-linecap="round" stroke-linejoin="round" fill="none"/><path d="M1.74125 13.93 15.6713 1.74125 47.0137 13.93" stroke="#66737C" stroke-width="3.57143" stroke-linecap="round" stroke-linejoin="round" fill="none"/><path d="M15.6713 1.74125 15.6713 13.93" stroke="#66737C" stroke-width="3.57143" stroke-linecap="round" stroke-linejoin="round" fill="none"/></svg>