<svg width="60" height="60" viewBox="-1.875 -1.875 60 60" xmlns="http://www.w3.org/2000/svg" xmlns:xlink="http://www.w3.org/1999/xlink" id="Construction-Pipe-1--Streamline-Ultimate" overflow="hidden"><path d="M1.75781 36.9141 8.78906 36.9141 8.78906 54.4922 1.75781 54.4922Z" stroke="#66737C" stroke-width="3.57143" stroke-linecap="round" stroke-linejoin="round" fill="none"/><path d="M19.3359 22.8516 36.9141 22.8516 36.9141 33.3984 19.3359 33.3984Z" stroke="#66737C" stroke-width="3.57143" stroke-linecap="round" stroke-linejoin="round" fill="none"/><path d="M47.4609 1.75781 54.4922 1.75781 54.4922 19.3359 47.4609 19.3359Z" stroke="#66737C" stroke-width="3.57143" stroke-linecap="round" stroke-linejoin="round" fill="none"/><path d="M22.2516 33.3984C20.766 37.6171 16.7772 40.4367 12.3047 40.4297L8.78906 40.4297 8.78906 50.9766 12.3047 50.9766C22.589 50.9399 31.3652 43.5308 33.1266 33.3984Z" stroke="#66737C" stroke-width="3.57143" stroke-linecap="round" stroke-linejoin="round" fill="none"/><path d="M43.9453 5.27344C33.6614 5.31108 24.8857 12.7197 23.1234 22.8516L33.9984 22.8516C35.484 18.6329 39.4728 15.8133 43.9453 15.8203L47.4609 15.8203 47.4609 5.27344Z" stroke="#66737C" stroke-width="3.57143" stroke-linecap="round" stroke-linejoin="round" fill="none"/></svg>