<svg width="44.8" height="44.8" viewBox="-1.6 -1.6 44.8 44.8" xmlns="http://www.w3.org/2000/svg" xmlns:xlink="http://www.w3.org/1999/xlink" id="Contracts--Streamline-Core" fill="none" overflow="hidden"><g id="contracts--contracts-business-agreement-meeting"><path d="M1.48571 4.45714 1.48572 15.5396C1.48572 17.0517 1.77425 18.5499 2.33583 19.9538L3.78887 23.5865C4.19248 24.5955 5.16978 25.2571 6.25655 25.2571L6.25655 25.2571C7.72438 25.2571 8.91429 24.0672 8.91429 22.5994L8.91429 11.8857 11.5143 14.4857C12.54 15.5114 14.2029 15.5114 15.2286 14.4857L15.2286 14.4857C16.2542 13.46 16.2542 11.7971 15.2286 10.7714L8.91429 4.45714" id="vector-4851" stroke="#66737C" stroke-width="2.67857" stroke-linecap="round" stroke-linejoin="round"/><path d="M8.91429 11.8857 8.91429 34.1714C8.91429 35.8125 10.2447 37.1429 11.8857 37.1429L22.2857 37.1429" id="vector-4852" stroke="#66737C" stroke-width="2.67857" stroke-linecap="round" stroke-linejoin="round"/><path d="M40.1143 37.1429 40.1143 26.0604C40.1143 24.5483 39.8258 23.0501 39.2642 21.6462L37.8111 18.0135C37.4076 17.0045 36.4303 16.3429 35.3434 16.3429L35.3434 16.3429C33.8755 16.3429 32.6857 17.5328 32.6857 19.0006L32.6857 29.7143 30.0857 27.1143C29.06 26.0886 27.3971 26.0886 26.3714 27.1143L26.3714 27.1143C25.3458 28.14 25.3458 29.8028 26.3714 30.8286L32.6857 37.1429" id="vector-4851_2" stroke="#66737C" stroke-width="2.67857" stroke-linecap="round" stroke-linejoin="round"/><path d="M32.6857 29.7143 32.6857 7.42857C32.6857 5.78748 31.3554 4.45714 29.7143 4.45714L19.3143 4.45714" id="vector-4852_2" stroke="#66737C" stroke-width="2.67857" stroke-linecap="round" stroke-linejoin="round"/></g></svg>