<svg width="44.8" height="44.8" viewBox="-1.6 -1.6 44.8 44.8" xmlns="http://www.w3.org/2000/svg" xmlns:xlink="http://www.w3.org/1999/xlink" id="Critical-Thinking-2--Streamline-Core" fill="none" overflow="hidden"><g id="critical-thinking-2--critical-thinking-nut-bolt-cog-brain-plan-head"><path d="M28.2286 40.1143 28.2286 32.6857 34.1714 32.6857C34.9594 32.6857 35.7154 32.3725 36.2725 31.8154 36.8297 31.2579 37.1429 30.5023 37.1429 29.7142L37.1429 17.8285C37.1423 14.9239 36.3676 12.0721 34.8988 9.5664 33.4301 7.06071 31.3197 4.99176 28.7857 3.57252 26.2516 2.15329 23.385 1.43505 20.481 1.49173 17.5771 1.54841 14.7408 2.37798 12.2639 3.89504 9.78711 5.41207 7.75935 7.56181 6.38934 10.1229 5.01937 12.684 4.35668 15.5639 4.46947 18.4662 4.5823 21.3685 5.46654 24.1883 7.03117 26.6354 8.59581 29.0824 10.7843 31.0681 13.3714 32.3886L13.3714 40.1143" id="Vector" stroke="#66737C" stroke-width="2.67857" stroke-linecap="round" stroke-linejoin="round"/><path d="M18.1562 11.5283 18.7984 9.87025C18.9068 9.58954 19.0973 9.34808 19.3452 9.1775 19.5931 9.00691 19.8867 8.91518 20.1876 8.91429L21.4124 8.91429C21.7133 8.91518 22.0069 9.00691 22.2548 9.1775 22.5027 9.34808 22.6932 9.58954 22.8016 9.87025L23.4438 11.5283 25.6246 12.783 27.3872 12.5141C27.6807 12.4743 27.9794 12.5226 28.2454 12.6529 28.5113 12.7832 28.7325 12.9897 28.8809 13.246L29.4784 14.2916C29.6315 14.552 29.702 14.8527 29.6807 15.1541 29.6593 15.4554 29.5471 15.7432 29.3589 15.9795L28.2685 17.3686 28.2685 19.878 29.3888 21.2672C29.577 21.5034 29.6892 21.7912 29.7105 22.0925 29.7318 22.3939 29.6614 22.6946 29.5082 22.955L28.9108 24.0006C28.7624 24.257 28.5412 24.4634 28.2752 24.5937 28.0093 24.724 27.7106 24.7724 27.4171 24.7325L25.6545 24.4637 23.4737 25.7184 22.8314 27.3764C22.7231 27.6571 22.5325 27.8986 22.2847 28.0691 22.0368 28.2397 21.7432 28.3314 21.4423 28.3323L20.1876 28.3323C19.8867 28.3314 19.5931 28.2397 19.3452 28.0691 19.0973 27.8986 18.9068 27.6571 18.7984 27.3764L18.1562 25.7184 15.9754 24.4637 14.2128 24.7325C13.9193 24.7724 13.6206 24.724 13.3546 24.5937 13.0887 24.4634 12.8675 24.257 12.7191 24.0006L12.1216 22.955C11.9685 22.6946 11.898 22.3939 11.9193 22.0925 11.9407 21.7912 12.0529 21.5034 12.2411 21.2672L13.3315 19.878 13.3315 17.3686 12.2112 15.9795C12.023 15.7432 11.9108 15.4554 11.8895 15.1541 11.8681 14.8527 11.9386 14.552 12.0918 14.2916L12.6892 13.246C12.8376 12.9897 13.0588 12.7832 13.3248 12.6529 13.5907 12.5226 13.8894 12.4743 14.1829 12.5141L15.9455 12.783 18.1562 11.5283Z" id="Vector_2" stroke="#66737C" stroke-width="2.67857" stroke-linecap="round" stroke-linejoin="round"/><path d="M19.3143 18.6249C19.3143 19.4455 19.9795 20.1106 20.8 20.1106 21.6205 20.1106 22.2857 19.4455 22.2857 18.6249 22.2857 17.8044 21.6205 17.1392 20.8 17.1392 19.9795 17.1392 19.3143 17.8044 19.3143 18.6249" id="Ellipse 1473" stroke="#66737C" stroke-width="2.67857" stroke-linecap="round" stroke-linejoin="round"/></g></svg>