<svg width="60" height="60" viewBox="-2.14 -2.14 60 60" xmlns="http://www.w3.org/2000/svg" xmlns:xlink="http://www.w3.org/1999/xlink" id="Currency-Pound-Decrease--Streamline-Ultimate.svg" overflow="hidden"><path d="M52.2375 43.5312 52.2375 53.9787 41.79 53.9787" stroke="#66737C" stroke-width="3.57143" stroke-linecap="round" stroke-linejoin="round" fill="none"/><path d="M52.2375 53.9787 40.5131 42.2543C39.1544 40.8961 37.1602 40.3924 35.3195 40.9426L22.0558 44.4855C20.2543 44.968 18.3321 44.4529 17.0132 43.1342L3.4825 29.592" stroke="#66737C" stroke-width="3.57143" stroke-linecap="round" stroke-linejoin="round" fill="none"/><path d="M7.30861 22.6107C5.4038 13.1846 11.501 3.99905 20.9272 2.09425 30.3533 0.189439 39.5388 6.28667 41.4436 15.7128 42.7742 22.2972 40.1986 29.0597 34.825 33.0907" stroke="#66737C" stroke-width="3.57143" stroke-linecap="round" stroke-linejoin="round" fill="none"/><path d="M27.86 13.93C27.86 12.0067 26.3008 10.4475 24.3775 10.4475 22.4542 10.4475 20.895 12.0067 20.895 13.93L20.895 22.6362C20.895 24.5596 19.3358 26.1187 17.4125 26.1187L27.86 26.1187" stroke="#66737C" stroke-width="3.57143" stroke-linecap="round" stroke-linejoin="round" fill="none"/><path d="M17.4125 19.1537 24.3775 19.1537" stroke="#66737C" stroke-width="3.57143" stroke-linecap="round" stroke-linejoin="round" fill="none"/></svg>