<svg width="60" height="60" viewBox="-2.14 -2.14 60 60" xmlns="http://www.w3.org/2000/svg" xmlns:xlink="http://www.w3.org/1999/xlink" id="Currency-Yuan-Decrease--Streamline-Ultimate.svg" overflow="hidden"><path d="M52.2375 43.5312 52.2375 53.9787 41.79 53.9787" stroke="#66737C" stroke-width="3.57143" stroke-linecap="round" stroke-linejoin="round" fill="none"/><path d="M52.2375 53.9787 40.5131 42.2543C39.1544 40.8961 37.1602 40.3924 35.3195 40.9426L22.0558 44.4855C20.2543 44.968 18.3321 44.4529 17.0132 43.1342L3.4825 29.592" stroke="#66737C" stroke-width="3.57143" stroke-linecap="round" stroke-linejoin="round" fill="none"/><path d="M24.3775 12.1888 24.3775 13.93C24.3775 15.8533 25.9367 17.4125 27.86 17.4125 29.7833 17.4125 31.3425 15.8533 31.3425 13.93L31.3425 12.1888" stroke="#66737C" stroke-width="3.57143" stroke-linecap="round" stroke-linejoin="round" fill="none"/><path d="M27.86 17.4125 27.86 26.1187" stroke="#66737C" stroke-width="3.57143" stroke-linecap="round" stroke-linejoin="round" fill="none"/><path d="M24.3775 22.6362 31.3425 22.6362" stroke="#66737C" stroke-width="3.57143" stroke-linecap="round" stroke-linejoin="round" fill="none"/><path d="M10.7911 22.6107C8.8863 13.1846 14.9835 3.99905 24.4097 2.09425 33.8358 0.189439 43.0213 6.28667 44.9261 15.7128 46.2567 22.2972 43.6811 29.0597 38.3075 33.0907" stroke="#66737C" stroke-width="3.57143" stroke-linecap="round" stroke-linejoin="round" fill="none"/></svg>