<svg width="60" height="60" viewBox="-2.14 -2.14 60 60" xmlns="http://www.w3.org/2000/svg" xmlns:xlink="http://www.w3.org/1999/xlink" id="Currency-Dollar-Decrease--Streamline-Ultimate.svg" overflow="hidden"><path d="M52.2375 43.5312 52.2375 53.9787 41.79 53.9787" stroke="#66737C" stroke-width="3.57143" stroke-linecap="round" stroke-linejoin="round" fill="none"/><path d="M52.2375 53.9787 40.5131 42.2543C39.1544 40.8961 37.1602 40.3924 35.3195 40.9426L22.0558 44.4855C20.2543 44.968 18.3321 44.4529 17.0132 43.1342L3.4825 29.592" stroke="#66737C" stroke-width="3.57143" stroke-linecap="round" stroke-linejoin="round" fill="none"/><path d="M7.30861 22.6107C5.4038 13.1846 11.501 3.99905 20.9272 2.09425 30.3533 0.189439 39.5388 6.28667 41.4436 15.7128 42.7742 22.2972 40.1986 29.0597 34.825 33.0907" stroke="#66737C" stroke-width="3.57143" stroke-linecap="round" stroke-linejoin="round" fill="none"/><path d="M27.86 12.198 23.1401 12.198C21.4193 12.1992 20.0253 13.5951 20.0266 15.3159 20.0274 16.5868 20.8002 17.7298 21.9792 18.2042L26.7711 20.1196C28.3688 20.7587 29.1458 22.5719 28.5067 24.1696 28.0331 25.3537 26.8856 26.1295 25.6103 26.128L20.895 26.128" stroke="#66737C" stroke-width="3.57143" stroke-linecap="round" stroke-linejoin="round" fill="none"/><path d="M24.3775 12.198 24.3775 10.4568" stroke="#66737C" stroke-width="3.57143" stroke-linecap="round" stroke-linejoin="round" fill="none"/><path d="M24.3775 27.8693 24.3775 26.128" stroke="#66737C" stroke-width="3.57143" stroke-linecap="round" stroke-linejoin="round" fill="none"/></svg>