<svg width="60" height="60" viewBox="-1.875 -1.875 60 60" xmlns="http://www.w3.org/2000/svg" xmlns:xlink="http://www.w3.org/1999/xlink" id="Customer-Relationship-Management-Asset-Coin--Streamline-Ultimate" overflow="hidden"><defs></defs><path d="M1.75781 33.3984 1.75781 54.4922" stroke="#66737C" stroke-width="3.33333" stroke-linecap="round" stroke-linejoin="round" fill="none"/><path d="M1.75781 50.9766 36.9141 50.9766C36.9141 47.0933 33.7661 43.9453 29.8828 43.9453L21.0938 43.9453C21.0938 40.0621 17.9458 36.9141 14.0625 36.9141L1.75781 36.9141" stroke="#66737C" stroke-width="3.33333" stroke-linecap="round" stroke-linejoin="round" fill="none"/><path d="M14.0625 43.9453 21.0938 43.9453" stroke="#66737C" stroke-width="3.33333" stroke-linecap="round" stroke-linejoin="round" fill="none"/><path d="M54.4922 22.8516 54.4922 1.75781" stroke="#66737C" stroke-width="3.33333" stroke-linecap="round" stroke-linejoin="round" fill="none"/><path d="M54.4922 5.27344 19.3359 5.27344C19.3359 9.15669 22.4839 12.3047 26.3672 12.3047L35.1562 12.3047C35.1562 16.1879 38.3042 19.3359 42.1875 19.3359L54.4922 19.3359" stroke="#66737C" stroke-width="3.33333" stroke-linecap="round" stroke-linejoin="round" fill="none"/><path d="M42.1875 12.3047 35.1562 12.3047" stroke="#66737C" stroke-width="3.33333" stroke-linecap="round" stroke-linejoin="round" fill="none"/><path d="M31.6406 21.0938 26.8758 21.0938C25.1387 21.095 23.7315 22.5042 23.7327 24.2413 23.7336 25.5243 24.5136 26.6781 25.7039 27.157L30.5414 29.093C32.153 29.7414 32.9337 31.5735 32.2853 33.185 31.8064 34.3753 30.6525 35.1554 29.3695 35.1562L24.6094 35.1562" stroke="#66737C" stroke-width="3.33333" stroke-linecap="round" stroke-linejoin="round" fill="none"/><path d="M28.125 21.0984 28.125 19.3406" stroke="#66737C" stroke-width="3.33333" stroke-linecap="round" stroke-linejoin="round" fill="none"/><path d="M28.125 36.9188 28.125 35.1609" stroke="#66737C" stroke-width="3.33333" stroke-linecap="round" stroke-linejoin="round" fill="none"/><path d="M11.7609 29.318C11.7328 28.9242 11.7188 28.5266 11.7188 28.125 11.7144 20.4001 17.1047 13.7209 24.6562 12.0938" stroke="#66737C" stroke-width="3.33333" stroke-linecap="round" stroke-linejoin="round" fill="none"/><path d="M44.482 26.8406C44.5148 27.2648 44.5312 27.6961 44.5312 28.1297 44.5356 35.8546 39.1453 42.5338 31.5938 44.1609" stroke="#66737C" stroke-width="3.33333" stroke-linecap="round" stroke-linejoin="round" fill="none"/></svg>