<svg width="60" height="60" viewBox="-2.14 -2.14 60 60" xmlns="http://www.w3.org/2000/svg" xmlns:xlink="http://www.w3.org/1999/xlink" id="Customer-Relationship-Management-Lead-Management-1--Streamline-Ultimate.svg" overflow="hidden"><defs></defs><path d="M4.66655 11.8451C4.66655 14.6455 6.9367 16.9157 9.73707 16.9157 12.5374 16.9157 14.8076 14.6455 14.8076 11.8451 14.8076 9.04477 12.5374 6.77462 9.73707 6.77462 6.9367 6.77462 4.66655 9.04477 4.66655 11.8451" stroke="#66737C" stroke-width="3.57143" stroke-linecap="round" stroke-linejoin="round" fill="none"/><path d="M17.7329 23.6439C15.8495 19.2295 10.7441 17.1778 6.32977 19.0612 5.74261 19.3117 5.18483 19.6261 4.66655 19.9988" stroke="#66737C" stroke-width="3.57143" stroke-linecap="round" stroke-linejoin="round" fill="none"/><path d="M40.9124 11.8451C40.9124 14.6455 43.1826 16.9157 45.9829 16.9157 48.7833 16.9157 51.0534 14.6455 51.0534 11.8451 51.0534 9.04477 48.7833 6.77462 45.9829 6.77462 43.1826 6.77462 40.9124 9.04477 40.9124 11.8451" stroke="#66737C" stroke-width="3.57143" stroke-linecap="round" stroke-linejoin="round" fill="none"/><path d="M37.9871 23.6439C39.8705 19.2295 44.9759 17.1778 49.3902 19.0612 49.9774 19.3117 50.5352 19.6261 51.0534 19.9988" stroke="#66737C" stroke-width="3.57143" stroke-linecap="round" stroke-linejoin="round" fill="none"/><path d="M20.1126 9.48865C20.1126 13.7674 23.5812 17.2361 27.86 17.2361 32.1388 17.2361 35.6074 13.7674 35.6074 9.48865 35.6074 5.20988 32.1388 1.74125 27.86 1.74125 23.5812 1.74125 20.1126 5.20988 20.1126 9.48865" stroke="#66737C" stroke-width="3.57143" stroke-linecap="round" stroke-linejoin="round" fill="none"/><path d="M41.263 26.6063C34.526 19.204 23.0639 18.6647 15.6616 25.4017 15.2414 25.7841 14.8394 26.1861 14.457 26.6063" stroke="#66737C" stroke-width="3.57143" stroke-linecap="round" stroke-linejoin="round" fill="none"/><path d="M37.0422 32.169C36.9615 37.2408 32.7846 41.287 27.7128 41.2063 22.7547 41.1275 18.7543 37.1272 18.6755 32.169" stroke="#66737C" stroke-width="3.57143" stroke-linecap="round" stroke-linejoin="round" fill="none"/><path d="M49.6697 32.1597 49.6697 35.612 45.7229 36.4014 45.7229 36.4014C45.2675 38.3149 44.5046 40.1418 43.4639 41.8109L43.4639 41.8109 45.7136 45.1634 40.8381 50.0389 37.488 47.7892 37.488 47.7892C35.8186 48.8389 33.9879 49.6068 32.0692 50.0621L32.0692 50.0621 31.2891 53.988 24.417 53.988 23.6346 50.0621 23.6346 50.0621C21.7167 49.6064 19.8868 48.8385 18.2181 47.7892L18.2181 47.7892 14.8587 50.0296 9.98317 45.1541 12.2329 41.8016 12.2329 41.8016C11.1915 40.1326 10.4278 38.3057 9.97156 36.3921L9.97156 36.3921 6.02472 35.6028 6.02472 32.1597" stroke="#66737C" stroke-width="3.57143" stroke-linecap="round" stroke-linejoin="round" fill="none"/></svg>