<svg width="60" height="60" viewBox="-2.14 -2.14 60 60" xmlns="http://www.w3.org/2000/svg" xmlns:xlink="http://www.w3.org/1999/xlink" id="Customer-Relationship-Management-Asset-Coin--Streamline-Ultimate.svg" overflow="hidden"><defs></defs><path d="M7.7474 52.6438 19.0005 54.4593C21.3465 54.7884 23.7346 54.3077 25.7705 53.0965L37.553 46.092C39.1964 45.1082 39.7369 42.9818 38.7625 41.3326L38.7625 41.3326C37.7787 39.6891 35.6523 39.1487 34.0031 40.123L24.8024 45.5929" stroke="#66737C" stroke-width="3.57143" stroke-linecap="round" stroke-linejoin="round" fill="none"/><path d="M7.7474 43.6079 12.537 40.7661C14.3058 39.7146 16.3465 39.2105 18.4015 39.3174L23.1609 39.5658C24.956 39.5791 26.4004 41.045 26.3872 42.8401 26.3868 42.8848 26.3856 42.9294 26.3834 42.974L26.3834 42.974C26.2948 44.6038 25.0113 45.9151 23.3838 46.0387L17.2964 46.0108" stroke="#66737C" stroke-width="3.57143" stroke-linecap="round" stroke-linejoin="round" fill="none"/><path d="M47.9726 3.07621 36.7195 1.26067C34.3773 0.934315 31.9938 1.41495 29.9611 2.62348L18.1786 9.62795C16.531 10.612 15.99 12.7437 16.9691 14.3943L16.9691 14.3943C17.9529 16.0378 20.0793 16.5782 21.7285 15.6039L30.9292 10.1341" stroke="#66737C" stroke-width="3.57143" stroke-linecap="round" stroke-linejoin="round" fill="none"/><path d="M47.9726 12.1121 43.1946 14.9539C41.4258 16.0054 39.3851 16.5095 37.3301 16.4026L32.5707 16.1542C30.7756 16.1409 29.3312 14.675 29.3444 12.8799 29.3448 12.8352 29.346 12.7906 29.3482 12.7459L29.3482 12.7459C29.4368 11.1162 30.7203 9.80485 32.3478 9.68135L38.4236 9.70921" stroke="#66737C" stroke-width="3.57143" stroke-linecap="round" stroke-linejoin="round" fill="none"/><path d="M30.646 21.5102 26.337 21.5102C24.7688 21.5077 23.4955 22.7769 23.493 24.345 23.4911 25.5088 24.1996 26.556 25.2806 26.9871L29.6477 28.7329C31.1043 29.3138 31.8142 30.9655 31.2333 32.4221 30.8025 33.5024 29.7566 34.2107 28.5936 34.2098L24.2893 34.2098" stroke="#66737C" stroke-width="3.57143" stroke-linecap="round" stroke-linejoin="round" fill="none"/><path d="M27.4653 21.5102 27.4653 19.9222" stroke="#66737C" stroke-width="3.57143" stroke-linecap="round" stroke-linejoin="round" fill="none"/><path d="M27.4653 35.7978 27.4653 34.2098" stroke="#66737C" stroke-width="3.57143" stroke-linecap="round" stroke-linejoin="round" fill="none"/><path d="M35.0572 39.3058C41.3752 35.1077 43.0937 26.5826 38.8955 20.2646 37.9034 18.7716 36.6286 17.4872 35.1431 16.4838" stroke="#66737C" stroke-width="3.57143" stroke-linecap="round" stroke-linejoin="round" fill="none"/><path d="M20.4632 16.0404C13.9337 19.9065 11.7746 28.3337 15.6407 34.8632 16.6792 36.6171 18.0949 38.118 19.7852 39.2571" stroke="#66737C" stroke-width="3.57143" stroke-linecap="round" stroke-linejoin="round" fill="none"/></svg>