<svg width="60" height="60" viewBox="-2.14 -2.14 60 60" xmlns="http://www.w3.org/2000/svg" xmlns:xlink="http://www.w3.org/1999/xlink" id="Customer-Relationship-Management-Lead-Score-Star--Streamline-Ultimate.svg" overflow="hidden"><defs></defs><path d="M1.74125 39.4869C1.74125 42.8527 4.46979 45.5813 7.83562 45.5813 11.2015 45.5813 13.93 42.8527 13.93 39.4869 13.93 36.1211 11.2015 33.3925 7.83563 33.3925 4.46979 33.3925 1.74125 36.1211 1.74125 39.4869" stroke="#66737C" stroke-width="3.57143" stroke-linecap="round" stroke-linejoin="round" fill="none"/><path d="M17.445 53.6676C15.1786 48.3614 9.03975 45.8971 3.73351 48.1635 3.03032 48.4639 2.36223 48.8405 1.74125 49.2867" stroke="#66737C" stroke-width="3.57143" stroke-linecap="round" stroke-linejoin="round" fill="none"/><path d="M41.79 39.4869C41.79 42.8527 44.5185 45.5813 47.8844 45.5813 51.2502 45.5813 53.9788 42.8527 53.9788 39.4869 53.9788 36.1211 51.2502 33.3925 47.8844 33.3925 44.5185 33.3925 41.79 36.1211 41.79 39.4869" stroke="#66737C" stroke-width="3.57143" stroke-linecap="round" stroke-linejoin="round" fill="none"/><path d="M38.275 53.6676C40.5414 48.3614 46.6803 45.8971 51.9865 48.1635 52.6897 48.4639 53.3578 48.8405 53.9788 49.2867" stroke="#66737C" stroke-width="3.57143" stroke-linecap="round" stroke-linejoin="round" fill="none"/><path d="M20.0244 37.7457C20.0244 42.0732 23.5325 45.5813 27.86 45.5813 32.1875 45.5813 35.6956 42.0732 35.6956 37.7457 35.6956 33.4182 32.1875 29.91 27.86 29.91 23.5325 29.91 20.0244 33.4182 20.0244 37.7457" stroke="#66737C" stroke-width="3.57143" stroke-linecap="round" stroke-linejoin="round" fill="none"/><path d="M38.275 53.6676C33.0395 47.9156 24.1323 47.4969 18.3803 52.7324 18.054 53.0293 17.7419 53.3414 17.445 53.6676" stroke="#66737C" stroke-width="3.57143" stroke-linecap="round" stroke-linejoin="round" fill="none"/><path d="M29.0928 2.8069 31.9902 8.51355 36.9284 8.51355C37.6745 8.49533 38.294 9.08534 38.3122 9.83137 38.3214 10.2087 38.1724 10.5727 37.9012 10.8352L33.367 15.2882 35.879 21.0575C36.1709 21.7541 35.8429 22.5553 35.1464 22.8472 34.7513 23.0128 34.3016 22.9837 33.9312 22.7686L27.86 19.3534 21.7888 22.7686C21.1357 23.1478 20.2989 22.9258 19.9196 22.2727 19.7045 21.9023 19.6754 21.4525 19.841 21.0575L22.353 15.2882 17.8188 10.8259C17.2826 10.3069 17.2687 9.45148 17.7877 8.91529 18.0502 8.64408 18.4142 8.49505 18.7916 8.50427L23.7298 8.50426 26.6295 2.8069C26.9889 2.12668 27.8317 1.86661 28.5119 2.22602 28.7595 2.35685 28.962 2.55928 29.0928 2.8069Z" stroke="#66737C" stroke-width="3.57143" stroke-linecap="round" stroke-linejoin="round" fill="none"/><path d="M12.1888 5.53485C11.6681 5.53068 11.1906 5.82349 10.9583 6.2894L8.05851 11.9961 3.12032 11.9961C2.37429 11.9778 1.75474 12.5678 1.73652 13.3139 1.72731 13.6912 1.87634 14.0552 2.14754 14.3177L6.68176 18.7707 4.179 24.54C3.88711 25.2366 4.21514 26.0378 4.91168 26.3297 5.30671 26.4953 5.75648 26.4662 6.12688 26.2511L12.1888 22.8359 13.7953 23.739" stroke="#66737C" stroke-width="3.57143" stroke-linecap="round" stroke-linejoin="round" fill="none"/><path d="M43.5312 5.53485C44.0519 5.53068 44.5294 5.82349 44.7617 6.2894L47.6615 11.9961 52.5997 11.9961C53.3457 11.9778 53.9653 12.5678 53.9835 13.3139 53.9927 13.6912 53.8437 14.0552 53.5725 14.3177L49.0382 18.7707 51.541 24.54C51.8329 25.2366 51.5049 26.0378 50.8083 26.3297 50.4133 26.4953 49.9635 26.4662 49.5931 26.2511L43.5312 22.8359 41.9247 23.739" stroke="#66737C" stroke-width="3.57143" stroke-linecap="round" stroke-linejoin="round" fill="none"/></svg>