<svg width="60" height="60" viewBox="-1.875 -1.875 60 60" xmlns="http://www.w3.org/2000/svg" xmlns:xlink="http://www.w3.org/1999/xlink" id="Customer-Relationship-Management-Online--Streamline-Ultimate" overflow="hidden"><defs></defs><path d="M36.668 38.782C36.668 40.7237 38.242 42.2977 40.1836 42.2977 42.1252 42.2977 43.6992 40.7237 43.6992 38.782 43.6992 36.8404 42.1252 35.2664 40.1836 35.2664 38.242 35.2664 36.668 36.8404 36.668 38.782" stroke="#66737C" stroke-width="3.33333" stroke-linecap="round" stroke-linejoin="round" fill="none"/><path d="M43.1695 25.1812 44.2078 28.5867C44.5615 29.7592 45.7634 30.457 46.957 30.1828L50.4094 29.3813C52.1002 29.0003 53.7797 30.0622 54.1607 31.753 54.3886 32.7646 54.1021 33.8234 53.3953 34.582L50.9789 37.1859C50.1423 38.0856 50.1423 39.4785 50.9789 40.3781L53.3953 42.982C54.5751 44.2517 54.5023 46.2374 53.2326 47.4173 52.4749 48.1214 51.4187 48.4069 50.4094 48.1805L46.957 47.3812C45.7634 47.1071 44.5615 47.8048 44.2078 48.9773L43.1695 52.3828C42.6752 54.0319 40.9377 54.968 39.2886 54.4737 38.2843 54.1727 37.4987 53.3871 37.1977 52.3828L36.1617 48.9844C35.807 47.8115 34.6044 47.1139 33.4102 47.3883L29.9602 48.1875C28.2712 48.5707 26.5913 47.5122 26.2081 45.8232 25.9782 44.8099 26.2651 43.7485 26.9742 42.9891L29.3883 40.3852C30.2249 39.4855 30.2249 38.0926 29.3883 37.193L26.9742 34.5891C25.7928 33.3209 25.863 31.3351 27.1312 30.1536 27.8898 29.4468 28.9486 29.1604 29.9602 29.3883L33.4102 30.1898C34.6044 30.4642 35.807 29.7666 36.1617 28.5938L37.1977 25.1883C37.69 23.5386 39.4265 22.6004 41.0761 23.0928 42.0807 23.3926 42.8673 24.1774 43.1695 25.1813Z" stroke="#66737C" stroke-width="3.33333" stroke-linecap="round" stroke-linejoin="round" fill="none"/><path d="M19.3359 54.382 21.0938 43.8352" stroke="#66737C" stroke-width="3.33333" stroke-linecap="round" stroke-linejoin="round" fill="none"/><path d="M14.0625 54.382 30.4688 54.382" stroke="#66737C" stroke-width="3.33333" stroke-linecap="round" stroke-linejoin="round" fill="none"/><path d="M21.143 43.8281 8.78906 43.8281C4.90581 43.8281 1.75781 40.6801 1.75781 36.7969L1.75781 8.67188C1.75781 4.78862 4.90581 1.64062 8.78906 1.64062L47.4609 1.64062C51.3442 1.64062 54.4922 4.78862 54.4922 8.67188L54.4922 22.1484" stroke="#66737C" stroke-width="3.33333" stroke-linecap="round" stroke-linejoin="round" fill="none"/><path d="M20.2148 11.4023 15.2203 18.0633C14.6349 18.841 13.5299 18.9968 12.7522 18.4114 12.6878 18.3629 12.6267 18.31 12.5695 18.2531L9.85781 15.5414" stroke="#66737C" stroke-width="3.33333" stroke-linecap="round" stroke-linejoin="round" fill="none"/><path d="M20.2148 24.8789 15.2203 31.5398C14.6349 32.3175 13.5299 32.4734 12.7522 31.8879 12.6878 31.8394 12.6267 31.7866 12.5695 31.7297L9.85781 29.018" stroke="#66737C" stroke-width="3.33333" stroke-linecap="round" stroke-linejoin="round" fill="none"/><path d="M30.4688 13.9523 43.3594 13.9523" stroke="#66737C" stroke-width="3.33333" stroke-linecap="round" stroke-linejoin="round" fill="none"/></svg>