<svg width="44.8" height="44.8" viewBox="-1.6 -1.6 44.8 44.8" xmlns="http://www.w3.org/2000/svg" xmlns:xlink="http://www.w3.org/1999/xlink" id="Cyborg-2--Streamline-Core" fill="none" overflow="hidden"><g id="cyborg-2--artificial-robotics-intelligence-machine-technology-android"><path d="M24.2657 4.95239C24.2657 6.86697 22.7136 8.41904 20.799 8.41904 18.8844 8.41904 17.3324 6.86697 17.3324 4.95239 17.3324 3.03778 18.8844 1.48571 20.799 1.48571 22.7136 1.48571 24.2657 3.03778 24.2657 4.95239Z" id="Ellipse 23" stroke="#66737C" stroke-width="2.67857" stroke-linecap="round" stroke-linejoin="round"/><path d="M20.8 8.4188 20.8 15.1045" id="Vector 857" stroke="#66737C" stroke-width="2.67857" stroke-linecap="round" stroke-linejoin="round"/><path d="M26 30.7665C26 30.7665 24.3657 32.5 20.8 32.5 17.2343 32.5 15.6 30.7665 15.6 30.7665" id="Rectangle 175" stroke="#66737C" stroke-width="2.67857" stroke-linecap="round" stroke-linejoin="round"/><g id="Group 625"><path d="M14.9819 24.2045C14.5716 24.2045 14.2391 23.8719 14.2391 23.4617 14.2391 23.0514 14.5716 22.7188 14.9819 22.7188" id="Vector" stroke="#66737C" stroke-width="2.67857" stroke-linecap="round" stroke-linejoin="round"/><path d="M14.9819 24.2045C15.3922 24.2045 15.7248 23.8719 15.7248 23.4617 15.7248 23.0514 15.3922 22.7188 14.9819 22.7188" id="Vector_2" stroke="#66737C" stroke-width="2.67857" stroke-linecap="round" stroke-linejoin="round"/></g><g id="Group 626"><path d="M26.6181 24.2045C26.2078 24.2045 25.8752 23.8719 25.8752 23.4617 25.8752 23.0514 26.2078 22.7188 26.6181 22.7188" id="Vector_3" stroke="#66737C" stroke-width="2.67857" stroke-linecap="round" stroke-linejoin="round"/><path d="M26.6181 24.2045C27.0284 24.2045 27.3609 23.8719 27.3609 23.4617 27.3609 23.0514 27.0284 22.7188 26.6181 22.7188" id="Vector_4" stroke="#66737C" stroke-width="2.67857" stroke-linecap="round" stroke-linejoin="round"/></g><path d="M4.45714 34.1714 4.45714 21.0474C4.45714 17.7652 7.11785 15.1045 10.4 15.1045L31.2 15.1045C34.4822 15.1045 37.1429 17.7652 37.1429 21.0474L37.1429 34.1714C37.1429 37.4537 34.4822 40.1143 31.2 40.1143L10.4 40.1143C7.11785 40.1143 4.45714 37.4537 4.45714 34.1714Z" id="Vector 2395" stroke="#66737C" stroke-width="2.67857" stroke-linecap="round" stroke-linejoin="round"/></g></svg>