<svg width="60" height="60" viewBox="-1.875 -1.875 60 60" xmlns="http://www.w3.org/2000/svg" xmlns:xlink="http://www.w3.org/1999/xlink" id="Database-Migration--Streamline-Ultimate" fill="none" overflow="hidden"><path d="M28.125 17.6953C38.2214 17.6953 46.4062 14.1276 46.4062 9.72656 46.4062 5.32554 38.2214 1.75781 28.125 1.75781 18.0286 1.75781 9.84377 5.32554 9.84377 9.72656 9.84377 14.1276 18.0286 17.6953 28.125 17.6953Z" stroke="#66737C" stroke-width="3.33333" stroke-linecap="round" stroke-linejoin="round" stroke-miterlimit="10"/><path d="M9.84377 9.72661 9.84377 21.9141C9.84377 26.3672 18.0469 29.8828 28.125 29.8828 38.2031 29.8828 46.4062 26.3672 46.4062 21.9141L46.4062 9.72661" stroke="#66737C" stroke-width="3.33333" stroke-linecap="round" stroke-linejoin="round" stroke-miterlimit="10"/><path d="M9.84377 21.914 9.84377 34.1016C9.84377 38.5547 18.0469 42.0703 28.125 42.0703 38.2031 42.0703 46.4062 38.5547 46.4062 34.1016L46.4062 21.914" stroke="#66737C" stroke-width="3.33333" stroke-linecap="round" stroke-linejoin="round" stroke-miterlimit="10"/><path d="M10.3127 45.1172 10.3127 49.8047" stroke="#66737C" stroke-width="3.33333" stroke-linecap="round" stroke-linejoin="round" stroke-miterlimit="10"/><path d="M22.0315 50.5076 22.0315 54.492" stroke="#66737C" stroke-width="3.33333" stroke-linecap="round" stroke-linejoin="round" stroke-miterlimit="10"/><path d="M33.7502 50.5076 33.7502 54.492" stroke="#66737C" stroke-width="3.33333" stroke-linecap="round" stroke-linejoin="round" stroke-miterlimit="10"/><path d="M45.469 45.1172 45.469 49.8047" stroke="#66737C" stroke-width="3.33333" stroke-linecap="round" stroke-linejoin="round" stroke-miterlimit="10"/></svg>