<svg width="60" height="60" viewBox="-2.14 -2.14 60 60" xmlns="http://www.w3.org/2000/svg" xmlns:xlink="http://www.w3.org/1999/xlink" id="Data-Transfer--Streamline-Ultimate.svg" overflow="hidden"><path d="M47.0137 12.1888 33.5922 1.74125 33.5922 6.965 14.7495 6.965C11.8006 6.96446 9.10429 8.62986 7.78455 11.267L7.78455 11.267C6.02974 14.7788 7.16439 19.0477 10.4312 21.2247L15.1628 24.3775 15.1628 20.895C15.1628 18.9717 16.722 17.4125 18.6453 17.4125L33.5922 17.4125 33.5922 22.6362Z" stroke="#66737C" stroke-width="3.57143" stroke-linecap="round" stroke-linejoin="round" fill="none"/><path d="M8.19781 43.5312 22.6362 53.9787 22.6362 48.755 40.9774 48.755C43.9267 48.7566 46.6235 47.0909 47.9424 44.453L47.9424 44.453C49.6974 40.9425 48.5637 36.6745 45.298 34.4976L40.5572 31.3425 40.5572 34.825C40.5572 36.7483 38.998 38.3075 37.0747 38.3075L22.6362 38.3075 22.6362 33.0838Z" stroke="#66737C" stroke-width="3.57143" stroke-linecap="round" stroke-linejoin="round" fill="none"/></svg>