<svg width="60" height="60" viewBox="-2.14 -2.14 60 60" xmlns="http://www.w3.org/2000/svg" xmlns:xlink="http://www.w3.org/1999/xlink" id="Delivery-Truck-Clock--Streamline-Ultimate.svg" overflow="hidden"><path d="M1.74125 17.4125C1.74125 25.1058 7.97792 31.3425 15.6713 31.3425 23.3646 31.3425 29.6012 25.1058 29.6012 17.4125 29.6012 9.71917 23.3646 3.4825 15.6712 3.4825 7.97792 3.4825 1.74125 9.71917 1.74125 17.4125Z" stroke="#66737C" stroke-width="3.57143" stroke-linecap="round" stroke-linejoin="round" fill="none"/><path d="M9.51419 17.4125 15.6713 17.4125 15.6713 11.2554" stroke="#66737C" stroke-width="3.57143" stroke-linecap="round" stroke-linejoin="round" fill="none"/><path d="M33.0838 27.86 36.5662 27.86C38.4896 27.86 40.0487 29.4192 40.0487 31.3425L40.0488 43.6195" stroke="#66737C" stroke-width="3.57143" stroke-linecap="round" stroke-linejoin="round" fill="none"/><path d="M17.4125 48.755 15.6713 48.755C13.7479 48.755 12.1888 47.1958 12.1888 45.2725L12.1888 38.3075" stroke="#66737C" stroke-width="3.57143" stroke-linecap="round" stroke-linejoin="round" fill="none"/><path d="M40.0488 31.3425 47.0137 31.3425C50.8604 31.3425 53.9787 34.4608 53.9787 38.3075L53.9787 45.2725C53.9787 47.1958 52.4196 48.755 50.4963 48.755L45.1843 48.755" stroke="#66737C" stroke-width="3.57143" stroke-linecap="round" stroke-linejoin="round" fill="none"/><path d="M36.5662 47.8844C36.5662 50.2885 38.5152 52.2375 40.9194 52.2375 43.3235 52.2375 45.2725 50.2885 45.2725 47.8844 45.2725 45.4802 43.3235 43.5312 40.9194 43.5312 38.5152 43.5312 36.5662 45.4802 36.5662 47.8844Z" stroke="#66737C" stroke-width="3.57143" stroke-linecap="round" stroke-linejoin="round" fill="none"/><path d="M17.4125 47.8844C17.4125 50.2885 19.3615 52.2375 21.7656 52.2375 24.1698 52.2375 26.1187 50.2885 26.1187 47.8844 26.1187 45.4802 24.1698 43.5312 21.7656 43.5312 19.3615 43.5312 17.4125 45.4802 17.4125 47.8844Z" stroke="#66737C" stroke-width="3.57143" stroke-linecap="round" stroke-linejoin="round" fill="none"/><path d="M36.6545 48.755 26.1187 48.755" stroke="#66737C" stroke-width="3.57143" stroke-linecap="round" stroke-linejoin="round" fill="none"/><path d="M53.9787 38.3075 47.0137 38.3075" stroke="#66737C" stroke-width="3.57143" stroke-linecap="round" stroke-linejoin="round" fill="none"/></svg>