<svg width="60" height="60" viewBox="-2.14 -2.14 60 60" xmlns="http://www.w3.org/2000/svg" xmlns:xlink="http://www.w3.org/1999/xlink" id="Delivery-Truck-3--Streamline-Ultimate.svg" overflow="hidden"><g><path d="M8.70625 44.9707C8.70625 47.8557 11.045 50.1944 13.93 50.1944 16.815 50.1944 19.1537 47.8557 19.1537 44.9707 19.1537 42.0857 16.815 39.7469 13.93 39.7469 11.045 39.7469 8.70625 42.0857 8.70625 44.9707" stroke="#66737C" stroke-width="3.57143" stroke-linecap="round" stroke-linejoin="round" fill="none"/><path d="M36.5662 44.9707C36.5662 47.8557 38.905 50.1944 41.79 50.1944 44.675 50.1944 47.0138 47.8557 47.0138 44.9707 47.0138 42.0857 44.675 39.7469 41.79 39.7469 38.905 39.7469 36.5662 42.0857 36.5662 44.9707" stroke="#66737C" stroke-width="3.57143" stroke-linecap="round" stroke-linejoin="round" fill="none"/><path d="M25.5383 32.2015 53.9787 32.2015 53.9787 41.4882C53.9787 43.4115 52.4196 44.9707 50.4963 44.9707L47.0137 44.9707" stroke="#66737C" stroke-width="3.57143" stroke-linecap="round" stroke-linejoin="round" fill="none"/><path d="M24.3775 44.9707 36.5662 44.9707" stroke="#66737C" stroke-width="3.57143" stroke-linecap="round" stroke-linejoin="round" fill="none"/><path d="M1.74125 35.684 7.45255 35.684" stroke="#66737C" stroke-width="3.57143" stroke-linecap="round" stroke-linejoin="round" fill="none"/><path d="M8.70625 44.9707 5.22375 44.9707C3.30042 44.9707 1.74125 43.4115 1.74125 41.4882L1.74125 31.6675C1.74271 30.2475 2.60625 28.9706 3.92362 28.4404L10.4475 25.8169 12.1888 13.6514 25.5383 13.6514 25.5383 44.9707 19.1537 44.9707" stroke="#66737C" stroke-width="3.57143" stroke-linecap="round" stroke-linejoin="round" fill="none"/><path d="M10.4475 25.8169 25.5383 25.8169" stroke="#66737C" stroke-width="3.57143" stroke-linecap="round" stroke-linejoin="round" fill="none"/><path d="M53.9787 32.2015 53.9787 7.84723C53.9787 6.56501 52.9393 5.52557 51.6571 5.52557L25.5383 5.52557 25.5383 32.2015" stroke="#66737C" stroke-width="3.57143" stroke-linecap="round" stroke-linejoin="round" fill="none"/><path d="M11.0279 5.52557 25.5383 5.52557 25.5383 5.52557 25.5383 13.6514 25.5383 13.6514 8.70625 13.6514 8.70625 13.6514 8.70625 7.84723C8.70625 6.56501 9.7457 5.52557 11.0279 5.52557Z" stroke="#66737C" stroke-width="3.57143" stroke-linecap="round" stroke-linejoin="round" fill="none"/></g></svg>