<svg width="60" height="60" viewBox="-2.14 -2.14 60 60" xmlns="http://www.w3.org/2000/svg" xmlns:xlink="http://www.w3.org/1999/xlink" id="Design-Tool-Magic-Wand--Streamline-Ultimate.svg" overflow="hidden"><path d="M51.4272 6.61675 48.5043 14.601 53.4285 19.5275C54.1199 20.168 54.1611 21.2477 53.5206 21.939 53.1748 22.3123 52.6805 22.5117 52.1725 22.483L43.6914 22.4157 40.6292 30.2235C40.2454 31.154 39.18 31.5972 38.2495 31.2135 37.7217 30.9959 37.3264 30.5435 37.1815 29.9913L34.6671 21.0575 25.7241 18.5524C24.7497 18.2948 24.1687 17.2961 24.4263 16.3218 24.5719 15.7714 24.966 15.3204 25.4919 15.1024L33.2997 12.0309 33.2323 3.54983C33.1714 2.61065 33.8833 1.7999 34.8225 1.73895 35.3382 1.70548 35.8413 1.90787 36.1901 2.28916L41.1167 7.21342 49.1056 4.29508C50.0859 3.99322 51.1254 4.54324 51.4272 5.52359 51.5369 5.87973 51.5369 6.26061 51.4272 6.61675Z" stroke="#66737C" stroke-width="3.57143" stroke-linecap="round" stroke-linejoin="round" fill="none"/><path d="M34.6671 21.0575 1.74125 53.9787" stroke="#66737C" stroke-width="3.57143" stroke-linecap="round" stroke-linejoin="round" fill="none"/></svg>