<svg width="60" height="60" viewBox="-2.14 -2.14 60 60" xmlns="http://www.w3.org/2000/svg" xmlns:xlink="http://www.w3.org/1999/xlink" id="Desktop-Monitor-Settings--Streamline-Ultimate.svg" overflow="hidden"><g><g><path d="M36.5662 53.9787 19.1537 53.9787 20.895 47.0137 34.825 47.0137 36.5662 53.9787Z" stroke="#66737C" stroke-width="3.57143" stroke-linecap="round" stroke-linejoin="round" fill="none"/><path d="M13.93 53.9787 41.79 53.9787" stroke="#66737C" stroke-width="3.57143" stroke-linecap="round" stroke-linejoin="round" fill="none"/><path d="M1.74125 37.7271 30.1817 37.7271" stroke="#66737C" stroke-width="3.57143" stroke-linecap="round" stroke-linejoin="round" fill="none"/><path d="M53.9787 33.0838 53.9787 40.0488C53.9787 43.8954 50.8604 47.0138 47.0137 47.0138L8.70625 47.0137C4.85959 47.0137 1.74125 43.8954 1.74125 40.0487L1.74125 15.6713C1.74125 11.8246 4.85959 8.70625 8.70625 8.70625L19.1537 8.70625" stroke="#66737C" stroke-width="3.57143" stroke-linecap="round" stroke-linejoin="round" fill="none"/></g><path d="M36.5662 17.4125C36.5662 19.3358 38.1254 20.895 40.0487 20.895 41.9721 20.895 43.5312 19.3358 43.5312 17.4125 43.5312 15.4892 41.9721 13.93 40.0487 13.93 38.1254 13.93 36.5662 15.4892 36.5662 17.4125" stroke="#66737C" stroke-width="3.57143" stroke-linecap="round" stroke-linejoin="round" fill="none"/><path d="M42.9973 3.94683 44.1117 7.31325C44.4695 8.46527 45.6499 9.15134 46.828 8.89198L50.2409 8.10262C51.9154 7.71777 53.5848 8.76325 53.9697 10.4378 54.2011 11.4448 53.9175 12.5011 53.2126 13.2567L50.8909 15.8338C50.0651 16.7242 50.0651 18.1008 50.8909 18.9912L53.2126 21.5683C54.3846 22.8247 54.3162 24.7933 53.0598 25.9653 52.3042 26.6702 51.2479 26.9538 50.2409 26.7224L46.828 25.933C45.6499 25.6737 44.4695 26.3597 44.1117 27.5117L43.0669 30.8782C42.6055 32.5066 40.9113 33.4526 39.2829 32.9912 38.2596 32.7013 37.4598 31.9015 37.1699 30.8782L36.1251 27.5117C35.7673 26.3597 34.5869 25.6737 33.4088 25.933L29.9959 26.7224C28.3214 27.1072 26.652 26.0618 26.2671 24.3872 26.0357 23.3802 26.3193 22.3239 27.0242 21.5683L29.3459 18.9912C30.1717 18.1008 30.1717 16.7242 29.3459 15.8338L27.0242 13.2567C25.8522 12.0003 25.9206 10.0317 27.177 8.8597 27.9326 8.15485 28.9889 7.87116 29.9959 8.10262L33.4088 8.89198C34.5869 9.15134 35.7673 8.46527 36.1251 7.31325L37.1467 3.94683C37.6512 2.33123 39.3698 1.4305 40.9854 1.93498 41.9456 2.2348 42.6975 2.98669 42.9973 3.94683Z" stroke="#66737C" stroke-width="3.57143" stroke-linecap="round" stroke-linejoin="round" fill="none"/></g></svg>