<svg width="60" height="60" viewBox="-1.875 -1.875 60 60" xmlns="http://www.w3.org/2000/svg" xmlns:xlink="http://www.w3.org/1999/xlink" id="Diagram-Curve-Rise-Large-Head--Streamline-Ultimate" fill="none" overflow="hidden"><path d="M53.1818 26.5024 41.7434 15.0639 30.3049 26.5024" stroke="#66737C" stroke-width="3.33333" stroke-linecap="round" stroke-linejoin="round"/><path d="M3.06816 15.0464C4.7808 13.3338 7.10365 12.3716 9.52568 12.3716L12.0127 12.3716C13.208 12.3731 14.3911 12.6109 15.4941 13.0714 16.5971 13.5318 17.5981 14.2058 18.4397 15.0545 19.2813 15.9032 19.9467 16.9099 20.3978 18.0168 20.8489 19.1236 21.0766 20.3088 21.068 21.504L21.068 34.7461C21.0853 37.1761 22.0635 39.5006 23.7891 41.2118 25.5145 42.923 27.8473 43.8816 30.2773 43.8785L32.7574 43.8785C33.9487 43.8755 35.1277 43.6362 36.2257 43.1742 37.324 42.7123 38.3196 42.0373 39.1549 41.1877 39.9902 40.3383 40.6486 39.3316 41.092 38.2259 41.5355 37.1201 41.7551 35.9374 41.738 34.7461L41.738 15.0545" stroke="#66737C" stroke-width="3.33333" stroke-linecap="round" stroke-linejoin="round"/></svg>