<svg width="60" height="60" viewBox="-2.14 -2.14 60 60" xmlns="http://www.w3.org/2000/svg" xmlns:xlink="http://www.w3.org/1999/xlink" id="Dial-Finger-1--Streamline-Ultimate.svg" fill="none" overflow="hidden"><path d="M15.6713 52.2375 11.2601 44.5133C10.5931 43.3304 10.41 41.9351 10.7493 40.6201 11.0886 39.3054 11.9238 38.1728 13.0799 37.4601 14.2359 36.7476 15.623 36.5103 16.9502 36.7982 18.2773 37.0861 19.4415 37.8766 20.1985 39.004L24.3775 45.2725 24.3775 19.1537C24.3775 17.7683 24.928 16.4397 25.9075 15.46 26.8872 14.4804 28.2159 13.93 29.6012 13.93 30.9866 13.93 32.3153 14.4804 33.295 15.46 34.2748 16.4397 34.825 17.7683 34.825 19.1537L34.825 38.3075 42.6699 38.3075C45.2576 38.4336 47.6968 39.5535 49.4791 41.4336 51.2615 43.3137 52.2496 45.809 52.2375 48.3998L52.2375 52.2375" stroke="#66737C" stroke-width="3.57143" stroke-linecap="round" stroke-linejoin="round"/><path d="M4.35313 5.22375C3.87228 5.22375 3.4825 4.83397 3.4825 4.35313 3.4825 3.87228 3.87228 3.4825 4.35313 3.4825" stroke="#66737C" stroke-width="3.57143"/><path d="M4.35313 5.22375C4.83397 5.22375 5.22375 4.83397 5.22375 4.35313 5.22375 3.87228 4.83397 3.4825 4.35313 3.4825" stroke="#66737C" stroke-width="3.57143"/><path d="M16.5419 5.22375C16.061 5.22375 15.6713 4.83397 15.6713 4.35313 15.6713 3.87228 16.061 3.4825 16.5419 3.4825" stroke="#66737C" stroke-width="3.57143"/><path d="M16.5419 5.22375C17.0227 5.22375 17.4125 4.83397 17.4125 4.35313 17.4125 3.87228 17.0227 3.4825 16.5419 3.4825" stroke="#66737C" stroke-width="3.57143"/><path d="M4.35313 17.4125C3.87228 17.4125 3.4825 17.0227 3.4825 16.5419 3.4825 16.061 3.87228 15.6713 4.35313 15.6713" stroke="#66737C" stroke-width="3.57143"/><path d="M4.35313 17.4125C4.83397 17.4125 5.22375 17.0227 5.22375 16.5419 5.22375 16.061 4.83397 15.6713 4.35313 15.6713" stroke="#66737C" stroke-width="3.57143"/><path d="M16.5419 17.4125C16.061 17.4125 15.6713 17.0227 15.6713 16.5419 15.6713 16.061 16.061 15.6713 16.5419 15.6713" stroke="#66737C" stroke-width="3.57143"/><path d="M16.5419 17.4125C17.0227 17.4125 17.4125 17.0227 17.4125 16.5419 17.4125 16.061 17.0227 15.6713 16.5419 15.6713" stroke="#66737C" stroke-width="3.57143"/><g><path d="M4.35313 29.6012C3.87228 29.6012 3.4825 29.2114 3.4825 28.7306 3.4825 28.2498 3.87228 27.86 4.35313 27.86" stroke="#66737C" stroke-width="3.57143"/><path d="M4.35313 29.6012C4.83397 29.6012 5.22375 29.2114 5.22375 28.7306 5.22375 28.2498 4.83397 27.86 4.35313 27.86" stroke="#66737C" stroke-width="3.57143"/></g><g><path d="M16.5419 29.6012C16.061 29.6012 15.6713 29.2114 15.6713 28.7306 15.6713 28.2498 16.061 27.86 16.5419 27.86" stroke="#66737C" stroke-width="3.57143"/><path d="M16.5419 29.6012C17.0227 29.6012 17.4125 29.2114 17.4125 28.7306 17.4125 28.2498 17.0227 27.86 16.5419 27.86" stroke="#66737C" stroke-width="3.57143"/></g><g><path d="M28.7306 5.22375C28.2498 5.22375 27.86 4.83397 27.86 4.35313 27.86 3.87228 28.2498 3.4825 28.7306 3.4825" stroke="#66737C" stroke-width="3.57143"/><path d="M28.7306 5.22375C29.2114 5.22375 29.6012 4.83397 29.6012 4.35313 29.6012 3.87228 29.2114 3.4825 28.7306 3.4825" stroke="#66737C" stroke-width="3.57143"/></g></svg>