<svg width="60" height="60" viewBox="-1.875 -1.875 60 60" xmlns="http://www.w3.org/2000/svg" xmlns:xlink="http://www.w3.org/1999/xlink" id="Disable--Streamline-Ultimate" overflow="hidden"><path d="M28.125 1.75781C13.5628 1.75781 1.75781 13.5628 1.75781 28.125 1.75781 42.6872 13.5628 54.4922 28.125 54.4922 42.6872 54.4922 54.4922 42.6872 54.4922 28.125 54.4664 13.5735 42.6765 1.78361 28.125 1.75781ZM28.125 10.5469C31.2504 10.5136 34.3271 11.3232 37.0312 12.8906L13.0078 37.0312C11.4404 34.3271 10.6308 31.2504 10.6641 28.125 10.6638 18.4625 18.4627 10.6113 28.125 10.5469ZM28.125 45.7031C24.9887 45.7009 21.9113 44.8506 19.2188 43.2422L43.2422 19.2188C44.8506 21.9113 45.7009 24.9887 45.7031 28.125 45.7031 37.8331 37.8331 45.7031 28.125 45.7031Z" stroke="#66737C" stroke-width="3.33333" stroke-linejoin="round" fill="none"/></svg>