<svg width="60" height="60" viewBox="-1.875 -1.875 60 60" xmlns="http://www.w3.org/2000/svg" xmlns:xlink="http://www.w3.org/1999/xlink" id="Discount-Star-Premium--Streamline-Ultimate" overflow="hidden"><path d="M1.75781 28.125C1.75781 42.6872 13.5628 54.4922 28.125 54.4922 42.6872 54.4922 54.4922 42.6872 54.4922 28.125 54.4922 13.5628 42.6872 1.75781 28.125 1.75781 13.5628 1.75781 1.75781 13.5628 1.75781 28.125Z" stroke="#66737C" stroke-width="3.33333" stroke-linecap="round" stroke-linejoin="round" fill="none"/><path d="M29.8078 15.0703 33.4219 22.8586 40.4531 22.8586C41.4038 22.8213 42.2047 23.5617 42.242 24.5124 42.2622 25.0267 42.0513 25.5231 41.6672 25.8656L35.5734 31.8703 38.9555 39.6375C39.3455 40.5772 38.9 41.6551 37.9603 42.0452 37.4308 42.265 36.8292 42.2257 36.3328 41.9391L28.1602 37.343 19.9781 41.9391C19.0971 42.4478 17.9704 42.1461 17.4616 41.265 17.1749 40.7686 17.1357 40.167 17.3555 39.6375L20.7375 31.875 14.6438 25.8703C13.9299 25.2434 13.8593 24.1564 14.4863 23.4425 14.8279 23.0536 15.3265 22.8391 15.8438 22.8586L22.875 22.8586 26.4844 15.0703C26.964 14.1526 28.0969 13.7974 29.0146 14.2771 29.3538 14.4544 29.6306 14.7312 29.8078 15.0703Z" stroke="#66737C" stroke-width="3.33333" stroke-linecap="round" stroke-linejoin="round" fill="none"/></svg>