<svg width="60" height="60" viewBox="-2.14 -2.14 60 60" xmlns="http://www.w3.org/2000/svg" xmlns:xlink="http://www.w3.org/1999/xlink" id="Dislike-1--Streamline-Ultimate.svg" fill="none" overflow="hidden"><path d="M43.3453 36.1583 53.7928 36.1583 53.7928 4.81593 43.3453 4.81593 43.3453 36.1583Z" stroke="#66737C" stroke-width="3.57143" stroke-linecap="round" stroke-linejoin="round"/><path d="M43.3432 8.30913C32.7759 8.30913 31.9148 4.10113 17.6072 3.24184 13.5899 3.00055 10.707 2.79245 8.03167 6.22274 2.15601 13.7563-0.666186 31.6719 5.03272 31.6719L16.674 31.6719C19.2384 31.6719 21.3173 33.751 21.3173 36.3153L21.3173 45.3466C21.3173 52.358 31.5742 56.0376 31.5742 48.179 31.5742 42.5429 33.7217 38.6685 37.3094 35.2554 39.0644 33.5857 41.1163 32.6919 43.3432 32.2145" stroke="#66737C" stroke-width="3.57143" stroke-linecap="round" stroke-linejoin="round"/></svg>