<svg width="60" height="60" viewBox="-1.875 -1.875 60 60" xmlns="http://www.w3.org/2000/svg" xmlns:xlink="http://www.w3.org/1999/xlink" id="Drone-Camera--Streamline-Ultimate" fill="none" overflow="hidden"><path d="M50.9766 15.3866 43.9734 15.3866C42.506 15.4259 41.0473 15.1488 39.6966 14.5741 38.3459 13.9994 37.1346 13.1407 36.1453 12.0562 35.1551 10.8968 33.9255 9.96577 32.5409 9.32742 31.1562 8.68905 29.6496 8.35847 28.125 8.35847 26.6004 8.35847 25.0938 8.68905 23.7091 9.32742 22.3245 9.96577 21.0948 10.8968 20.1047 12.0562 19.1155 13.1408 17.9043 13.9996 16.5535 14.5743 15.2027 15.149 13.744 15.4261 12.2766 15.3866L5.27344 15.3866C4.34105 15.3866 3.44681 15.7571 2.78752 16.4164 2.12821 17.0756 1.75781 17.9699 1.75781 18.9023 1.75781 19.8347 2.12821 20.7289 2.78752 21.3882 3.44681 22.0475 4.34105 22.4179 5.27344 22.4179L12.2766 22.4179C13.744 22.3785 15.2027 22.6555 16.5535 23.2302 17.9043 23.805 19.1155 24.6637 20.1047 25.7484 21.0948 26.9079 22.3245 27.8388 23.7091 28.477 25.0938 29.1155 26.6004 29.4462 28.125 29.4462 29.6496 29.4462 31.1562 29.1155 32.5409 28.477 33.9255 27.8388 35.1551 26.9079 36.1453 25.7484 37.1346 24.664 38.3459 23.8052 39.6966 23.2304 41.0473 22.6558 42.506 22.3786 43.9734 22.4179L50.9766 22.4179C51.9089 22.4179 52.8033 22.0475 53.4626 21.3882 54.1219 20.7289 54.4922 19.8347 54.4922 18.9023 54.4922 17.9699 54.1219 17.0756 53.4626 16.4164 52.8033 15.7571 51.9089 15.3866 50.9766 15.3866L50.9766 15.3866Z" stroke="#66737C" stroke-width="3.33333" stroke-linecap="round" stroke-linejoin="round"/><path d="M1.75781 4.83984 5.27344 4.83984" stroke="#66737C" stroke-width="3.33333" stroke-linecap="round" stroke-linejoin="round"/><path d="M12.3047 4.83984 15.8203 4.83984" stroke="#66737C" stroke-width="3.33333" stroke-linecap="round" stroke-linejoin="round"/><path d="M8.78906 8.35547 8.78906 15.3867" stroke="#66737C" stroke-width="3.33333" stroke-linecap="round" stroke-linejoin="round"/><path d="M40.4297 4.83984 43.9453 4.83984" stroke="#66737C" stroke-width="3.33333" stroke-linecap="round" stroke-linejoin="round"/><path d="M50.9766 4.83984 54.4922 4.83984" stroke="#66737C" stroke-width="3.33333" stroke-linecap="round" stroke-linejoin="round"/><path d="M47.4609 8.35547 47.4609 15.3867" stroke="#66737C" stroke-width="3.33333" stroke-linecap="round" stroke-linejoin="round"/><path d="M15.8203 29.4492C13.3221 30.8421 11.1378 32.7352 9.40383 35.0098 7.66985 37.2846 6.42335 39.8923 5.74214 42.6703 5.6212 43.189 5.61848 43.7283 5.7342 44.2481 5.84988 44.768 6.08105 45.2552 6.41055 45.6736 6.74006 46.092 7.15948 46.4309 7.63774 46.6652 8.11598 46.8996 8.64082 47.0234 9.17339 47.0273L12.3046 47.0273" stroke="#66737C" stroke-width="3.33333" stroke-linecap="round" stroke-linejoin="round"/><path d="M40.4297 29.4492C42.9279 30.8421 45.112 32.7352 46.8462 35.0098 48.5801 37.2846 49.8267 39.8923 50.5078 42.6703 50.6287 43.189 50.6316 43.7283 50.5158 44.2481 50.4 44.768 50.1689 45.2552 49.8394 45.6736 49.5098 46.092 49.0905 46.4309 48.6122 46.6652 48.1341 46.8996 47.6091 47.0234 47.0766 47.0273L43.9453 47.0273" stroke="#66737C" stroke-width="3.33333" stroke-linecap="round" stroke-linejoin="round"/><path d="M28.125 51.4219C32.4938 51.4219 36.0352 47.8805 36.0352 43.5117 36.0352 39.143 32.4938 35.6016 28.125 35.6016 23.7563 35.6016 20.2148 39.143 20.2148 43.5117 20.2148 47.8805 23.7563 51.4219 28.125 51.4219Z" stroke="#66737C" stroke-width="3.33333" stroke-linecap="round" stroke-linejoin="round"/><path d="M28.125 44.3906C27.6396 44.3906 27.2461 43.9971 27.2461 43.5117 27.2461 43.0263 27.6396 42.6328 28.125 42.6328" stroke="#66737C" stroke-width="3.33333"/><path d="M28.125 44.3906C28.6104 44.3906 29.0039 43.9971 29.0039 43.5117 29.0039 43.0263 28.6104 42.6328 28.125 42.6328" stroke="#66737C" stroke-width="3.33333"/></svg>