<svg width="60" height="60" viewBox="-2.14 -2.14 60 60" xmlns="http://www.w3.org/2000/svg" xmlns:xlink="http://www.w3.org/1999/xlink" id="Drugs-Medicine-Treatment--Streamline-Ultimate.svg" overflow="hidden"><defs></defs><path d="M43.5312 21.4754 43.5312 17.9929C43.5312 16.7107 42.4918 15.6712 41.2096 15.6712L29.6012 15.6713 29.6012 4.06292C29.6012 2.7807 28.5618 1.74125 27.2796 1.74125L17.9929 1.74125C16.7107 1.74125 15.6712 2.7807 15.6712 4.06292L15.6713 15.6713 4.06292 15.6713C2.7807 15.6713 1.74125 16.7107 1.74125 17.9929L1.74125 27.2796C1.74125 28.5618 2.7807 29.6012 4.06292 29.6012L15.6713 29.6012 15.6713 41.2096C15.6713 42.4918 16.7107 43.5312 17.9929 43.5312L21.4754 43.5312" stroke="#66737C" stroke-width="3.57143" stroke-linecap="round" stroke-linejoin="round" fill="none"/><path d="M42.1708 29.6918C44.8846 26.9761 49.2861 26.9745 52.0019 29.6883 54.7176 32.4021 54.7192 36.8037 52.0053 39.5194L39.7214 51.8033C37.0845 54.5954 32.6835 54.7212 29.8915 52.0843 27.0994 49.4474 26.9736 45.0464 29.6105 42.2543 29.7011 42.1591 29.7963 42.064 29.8938 41.9734Z" stroke="#66737C" stroke-width="3.57143" stroke-linecap="round" stroke-linejoin="round" fill="none"/><path d="M36.0276 35.8349 45.8552 45.6602" stroke="#66737C" stroke-width="3.57143" stroke-linecap="round" stroke-linejoin="round" fill="none"/></svg>