<svg width="60" height="60" viewBox="-1.875 -1.875 60 60" xmlns="http://www.w3.org/2000/svg" xmlns:xlink="http://www.w3.org/1999/xlink" id="E-Charging-Station--Streamline-Ultimate" overflow="hidden"><defs></defs><path d="M44.6016 2.03672 37.8164 16.2773C37.5541 16.8263 37.7865 17.4839 38.3355 17.7462 38.4666 17.8088 38.6088 17.8449 38.7539 17.8523L45.5016 18.2062 45.5016 27.2695C45.5025 27.8779 45.9964 28.3704 46.6047 28.3695 47.0303 28.3689 47.4175 28.1231 47.5992 27.7383L54.375 13.5023C54.6361 12.9514 54.4011 12.2931 53.8502 12.0321 53.7207 11.9707 53.5805 11.9351 53.4375 11.9273L46.6898 11.5734 46.6898 2.51016C46.681 1.90184 46.1807 1.4159 45.5723 1.42476 45.1597 1.43077 44.785 1.66697 44.6016 2.03672Z" stroke="#66737C" stroke-width="3.33333" stroke-linecap="round" stroke-linejoin="round" fill="none"/><path d="M5.11875 25.7133 9.60938 25.7133C12.0843 25.7133 14.0906 23.707 14.0906 21.232 14.0906 18.7571 12.0843 16.7508 9.60938 16.7508L5.11875 16.7508Z" stroke="#66737C" stroke-width="3.33333" stroke-linecap="round" stroke-linejoin="round" fill="none"/><path d="M5.11875 24.593 1.75781 24.593" stroke="#66737C" stroke-width="3.33333" stroke-linecap="round" stroke-linejoin="round" fill="none"/><path d="M5.11875 17.8711 1.75781 17.8711" stroke="#66737C" stroke-width="3.33333" stroke-linecap="round" stroke-linejoin="round" fill="none"/><path d="M32.1094 7.64062C30.815 7.64062 29.7656 8.68996 29.7656 9.98438L29.7656 52.5C29.7656 53.7944 30.815 54.8438 32.1094 54.8438L49.8281 54.8438C51.1225 54.8438 52.1719 53.7944 52.1719 52.5L52.1719 34.2047" stroke="#66737C" stroke-width="3.33333" stroke-linecap="round" stroke-linejoin="round" fill="none"/><path d="M14.0813 21.232 15.2016 21.232C17.6778 21.2307 19.6862 23.2371 19.6875 25.7133L19.6875 45.8812C19.6875 48.3562 21.6938 50.3625 24.1688 50.3625L29.7656 50.3625" stroke="#66737C" stroke-width="3.33333" stroke-linecap="round" stroke-linejoin="round" fill="none"/></svg>