<svg width="60" height="60" viewBox="-1.875 -1.875 60 60" xmlns="http://www.w3.org/2000/svg" xmlns:xlink="http://www.w3.org/1999/xlink" id="Earth-Sync--Streamline-Ultimate" overflow="hidden"><g><g><path d="M22.6172 53.9062C8.37525 50.869-0.707947 36.8615 2.32929 22.6195 5.36653 8.3776 19.3741-0.705599 33.616 2.33164 41.9778 4.11489 48.9559 9.8419 52.3359 17.6953" stroke="#66737C" stroke-width="3.33333" stroke-linecap="round" stroke-linejoin="round" fill="none"/><g><path d="M11.7188 48.75 14.0625 36.9141 16.5938 36.9141C17.6773 36.9178 18.7004 36.4149 19.3594 35.5547 20.0386 34.7137 20.2739 33.5983 19.9922 32.5547L18.2344 25.5234C17.8552 23.9544 16.4501 22.8497 14.8359 22.8516L2.34375 22.8516" stroke="#66737C" stroke-width="3.33333" stroke-linecap="round" stroke-linejoin="round" fill="none"/><path d="M49.2188 12.3047 39.6562 12.3047C38.0421 12.3029 36.637 13.4076 36.2578 14.9766L35.1562 19.4062" stroke="#66737C" stroke-width="3.33333" stroke-linecap="round" stroke-linejoin="round" fill="none"/></g></g><g><path d="M45.7031 36.9141 54.4922 36.9141 54.4922 26.3672" stroke="#66737C" stroke-width="3.33333" stroke-linecap="round" stroke-linejoin="round" fill="none"/><path d="M54.0469 36.9141C52.0982 29.396 44.424 24.8811 36.9059 26.8297 29.3878 28.7783 24.8729 36.4526 26.8215 43.9707 28.7702 51.4888 36.4444 56.0037 43.9625 54.055 46.9065 53.292 49.5238 51.5951 51.4219 49.2188" stroke="#66737C" stroke-width="3.33333" stroke-linecap="round" stroke-linejoin="round" fill="none"/></g></g></svg>