<svg width="60" height="60" viewBox="-1.875 -1.875 60 60" xmlns="http://www.w3.org/2000/svg" xmlns:xlink="http://www.w3.org/1999/xlink" id="Earth-Model-1--Streamline-Ultimate" overflow="hidden"><path d="M45.6352 1.79297 43.1484 4.27734" stroke="#66737C" stroke-width="3.57143" stroke-linecap="round" stroke-linejoin="round" fill="none"/><path d="M45.6352 1.79297 43.1484 4.27734" stroke="#66737C" stroke-width="3.57143"/><path d="M8.34609 39.082 5.85938 41.5664" stroke="#66737C" stroke-width="3.57143" stroke-linecap="round" stroke-linejoin="round" fill="none"/><path d="M8.34609 39.082 5.85938 41.5664" stroke="#66737C" stroke-width="3.57143"/><path d="M25.7461 46.2891 25.7461 53.3203" stroke="#66737C" stroke-width="3.57143" stroke-linecap="round" stroke-linejoin="round" fill="none"/><path d="M11.6836 53.3203 39.8086 53.3203" stroke="#66737C" stroke-width="3.57143" stroke-linecap="round" stroke-linejoin="round" fill="none"/><path d="M8.16797 21.6797C8.16797 31.3878 16.038 39.2578 25.7461 39.2578 35.4542 39.2578 43.3242 31.3878 43.3242 21.6797 43.3242 11.9716 35.4542 4.10156 25.7461 4.10156 16.038 4.10156 8.16797 11.9716 8.16797 21.6797Z" stroke="#66737C" stroke-width="3.57143" stroke-linecap="round" stroke-linejoin="round" fill="none"/><path d="M43.1484 4.27734C52.7595 13.8877 52.76 29.4698 43.1496 39.0809 33.5392 48.6919 17.9571 48.6924 8.34609 39.082" stroke="#66737C" stroke-width="3.57143" stroke-linecap="round" stroke-linejoin="round" fill="none"/></svg>