<svg width="60" height="60" viewBox="-1.875 -1.875 60 60" xmlns="http://www.w3.org/2000/svg" xmlns:xlink="http://www.w3.org/1999/xlink" id="Earth-Locate--Streamline-Ultimate" fill="none" overflow="hidden"><path d="M33.492 53.8205C28.4156 54.8808 23.1388 54.4139 18.3277 52.4782 13.5165 50.5427 9.38637 47.2256 6.45853 42.9452 3.5307 38.6648 1.93632 33.6131 1.87657 28.4276 1.81682 23.242 3.2944 18.1549 6.12284 13.8082 8.95127 9.46151 13.0038 6.04999 17.7691 4.00413 22.5345 1.95828 27.799 1.36975 32.8985 2.31282 37.9978 3.25589 42.7038 5.6883 46.4222 9.30312 50.1405 12.9179 52.7051 17.5532 53.7919 22.6239" stroke="#66737C" stroke-width="3.57143" stroke-linecap="round" stroke-linejoin="round"/><path d="M11.7918 48.6874 14.1251 36.9042 16.6451 36.9042C17.1773 36.9061 17.7027 36.7849 18.1804 36.5501 18.658 36.3152 19.0748 35.9733 19.3985 35.5509 19.7318 35.1382 19.9627 34.6523 20.0722 34.1332 20.1817 33.6141 20.1667 33.0764 20.0285 32.5643L18.2785 25.5642C18.0951 24.8053 17.6616 24.1303 17.0479 23.6477 16.4341 23.1652 15.6758 22.9033 14.8951 22.9042L2.45848 22.9042" stroke="#66737C" stroke-width="3.57143" stroke-linecap="round" stroke-linejoin="round"/><path d="M49.125 12.4043 39.6052 12.4043C38.8245 12.4034 38.066 12.6653 37.4524 13.1478 36.8386 13.6303 36.4052 14.3054 36.2217 15.0642L34.7051 21.1542" stroke="#66737C" stroke-width="3.57143" stroke-linecap="round" stroke-linejoin="round"/><path d="M43.875 26.4045C45.2548 26.4014 46.6214 26.6709 47.8969 27.1973 49.1721 27.724 50.3309 28.4972 51.3066 29.4729 52.282 30.4486 53.0555 31.6073 53.5821 32.8826 54.1085 34.1578 54.378 35.5247 54.375 36.9045 54.375 41.3843 48.0984 49.9245 45.2517 53.5643 45.0879 53.7731 44.8788 53.9416 44.6405 54.0577 44.4019 54.1737 44.1403 54.2339 43.875 54.2339 43.6097 54.2339 43.3481 54.1737 43.1095 54.0577 42.8712 53.9416 42.6621 53.7731 42.4983 53.5643 39.6516 49.9245 33.375 41.3843 33.375 36.9045 33.372 35.5247 33.6415 34.1578 34.1679 32.8826 34.6945 31.6073 35.468 30.4486 36.4434 29.4729 37.4191 28.4972 38.5779 27.724 39.8531 27.1973 41.1286 26.6709 42.4952 26.4014 43.875 26.4045L43.875 26.4045Z" stroke="#66737C" stroke-width="3.57143" stroke-linecap="round" stroke-linejoin="round"/><g><path d="M43.8867 37.7909C43.4034 37.7909 43.0118 37.3992 43.0118 36.9159 43.0118 36.4327 43.4034 36.0408 43.8867 36.0408" stroke="#66737C" stroke-width="3.57143"/><path d="M43.887 37.7909C44.37 37.7909 44.7619 37.3992 44.7619 36.9159 44.7619 36.4327 44.37 36.0408 43.887 36.0408" stroke="#66737C" stroke-width="3.57143"/></g></svg>