<svg width="60" height="60" viewBox="-2.14 -2.14 60 60" xmlns="http://www.w3.org/2000/svg" xmlns:xlink="http://www.w3.org/1999/xlink" id="Ecology-Leaf-Bulb--Streamline-Ultimate.svg" overflow="hidden"><g><path d="M27.86 53.9787 27.86 50.4963" stroke="#66737C" stroke-width="3.57143" stroke-linecap="round" stroke-linejoin="round" fill="none"/><path d="M22.6362 50.4963 33.0838 50.4963" stroke="#66737C" stroke-width="3.57143" stroke-linecap="round" stroke-linejoin="round" fill="none"/><path d="M47.0137 20.895C47.023 10.3167 38.4552 1.73372 27.8768 1.72442 17.2985 1.71512 8.71556 10.283 8.70626 20.8613 8.69873 29.4341 14.3885 36.9678 22.6362 39.3058L22.6362 41.79C22.6488 42.7464 23.4211 43.5187 24.3775 43.5312L31.3425 43.5312C32.2989 43.5187 33.0712 42.7464 33.0838 41.79L33.0838 39.3058C41.3242 36.978 47.0141 29.4579 47.0138 20.895Z" stroke="#66737C" stroke-width="3.57143" stroke-linecap="round" stroke-linejoin="round" fill="none"/><path d="M27.0242 27.2564C27.0242 27.2564 31.83 28.2083 33.757 25.1204 37.6806 18.8984 29.6245 13.396 28.5101 9.28667 23.9239 11.5476 20.6901 15.8592 19.8038 20.895 19.2002 25.1437 21.9165 27.5582 27.0242 27.2564Z" stroke="#66737C" stroke-width="3.57143" stroke-linecap="round" stroke-linejoin="round" fill="none"/><path d="M27.0706 33.0838C26.1895 29.8738 25.8907 26.532 26.1884 23.2167L26.3741 21.7308" stroke="#66737C" stroke-width="3.57143" stroke-linecap="round" stroke-linejoin="round" fill="none"/></g></svg>