<svg width="60" height="60" viewBox="-1.875 -1.875 60 60" xmlns="http://www.w3.org/2000/svg" xmlns:xlink="http://www.w3.org/1999/xlink" id="Empathy-Authentication-Heart-Intersect--Streamline-Ultimate" fill="none" overflow="hidden"><path d="M21.1166 12.0066C22.2425 9.13931 24.207 6.67812 26.7532 4.94449 29.2995 3.21087 32.3095 2.28536 35.3899 2.28883 47.0653 2.28883 49.5853 11.9018 53.7476 22.6989 53.8188 22.8848 53.8439 23.0852 53.8205 23.2829 53.7973 23.4806 53.7262 23.6698 53.6135 23.8338 53.5008 23.9979 53.3501 24.1322 53.1738 24.2252 52.9978 24.318 52.8019 24.3668 52.6027 24.367L49.4955 24.367 49.4955 29.2732C49.4955 30.5745 48.9785 31.8225 48.0584 32.7427 47.1384 33.6626 45.8904 34.1796 44.5891 34.1796L42.1359 34.1796 42.1359 39.0858" stroke="#66737C" stroke-width="3.33333" stroke-linecap="round" stroke-linejoin="round"/><path d="M31.2841 53.9634 31.2841 43.7175C33.544 41.6241 35.1199 38.8978 35.8062 35.8948M14.1122 53.9634 14.1122 49.0573 11.6591 49.0573C10.3579 49.0573 9.10992 48.5402 8.18984 47.6201 7.26973 46.7002 6.75281 45.4521 6.75281 44.1509L6.75281 39.2447 3.64552 39.2447C3.44644 39.2442 3.25043 39.1957 3.07434 39.1027 2.89826 39.0098 2.74741 38.8755 2.63475 38.7115 2.52211 38.5472 2.45105 38.3583 2.4277 38.1605 2.40436 37.9629 2.42941 37.7623 2.50071 37.5764 5.5323 29.7122 7.69277 22.4762 13.1543 19.1254" stroke="#66737C" stroke-width="3.33333" stroke-linecap="round" stroke-linejoin="round"/><path d="M28.6041 34.6969 20.1009 25.8602C18.6003 24.3595 18.2668 22.0254 19.1005 20.0246 20.601 17.0235 24.7692 16.3566 27.1036 18.6908L28.4374 20.0246 29.7712 18.6908C32.2723 16.1898 36.2738 16.8567 37.7742 20.0246 38.7745 22.0254 38.4412 24.3595 36.7739 25.8602L28.6041 34.6969Z" stroke="#66737C" stroke-width="3.33333" stroke-linecap="round" stroke-linejoin="round" stroke-miterlimit="10"/></svg>