<svg width="60" height="60" viewBox="-1.875 -1.875 60 60" xmlns="http://www.w3.org/2000/svg" xmlns:xlink="http://www.w3.org/1999/xlink" id="Empathy-2--Streamline-Ultimate" fill="none" overflow="hidden"><path d="M46.617 46.3976C36.4043 56.6102 19.8463 56.6102 9.63363 46.3976" stroke="#66737C" stroke-width="3.33333" stroke-linecap="round" stroke-linejoin="round"/><path d="M46.617 46.3976C36.4043 56.6102 19.8463 56.6102 9.63363 46.3976" stroke="#66737C" stroke-width="3.33333" stroke-linecap="round" stroke-linejoin="round"/><path d="M10.6287 9.85252C20.8414-0.360141 37.3995-0.360141 47.6121 9.85252" stroke="#66737C" stroke-width="3.33333" stroke-linecap="round" stroke-linejoin="round"/><path d="M10.6287 9.85252C20.8414-0.360141 37.3995-0.360141 47.6121 9.85252" stroke="#66737C" stroke-width="3.33333" stroke-linecap="round" stroke-linejoin="round"/><path d="M16.0317 45.8053 9.62557 45.8055 9.62557 52.2115" stroke="#66737C" stroke-width="3.33333" stroke-linecap="round" stroke-linejoin="round"/><path d="M41.2139 10.4448 47.6201 10.4444 47.6201 4.03861" stroke="#66737C" stroke-width="3.33333" stroke-linecap="round" stroke-linejoin="round"/><path d="M50.9498 39.0244 50.9498 32.8324C52.3155 31.5673 53.2678 29.9196 53.6827 28.1048 54.0975 26.2901 53.9555 24.3923 53.2751 22.6595 52.5947 20.9267 51.4073 19.4394 49.8687 18.3917 48.3298 17.344 46.5108 16.7847 44.6491 16.7868 37.5935 16.7868 36.0705 22.5962 33.5552 29.1213 33.5121 29.2336 33.4969 29.3548 33.5109 29.4741 33.525 29.5936 33.5681 29.708 33.6361 29.8071 33.7043 29.9062 33.7955 29.9873 33.9019 30.0436 34.0083 30.0996 34.1266 30.1291 34.2469 30.1294L36.1247 30.1294 36.1247 33.0942C36.1247 33.8808 36.4371 34.6348 36.9933 35.1909 37.5492 35.7469 38.3034 36.0593 39.0898 36.0593L40.5724 36.0593 40.5724 39.0244" stroke="#66737C" stroke-width="3.33333" stroke-linecap="round" stroke-linejoin="round"/><path d="M5.30016 39.0244 5.30016 32.8324C3.9345 31.5673 2.98209 29.9196 2.5673 28.1048 2.15249 26.2901 2.29457 24.3923 2.97499 22.6595 3.65543 20.9267 4.84256 19.4394 6.38137 18.3917 7.92019 17.344 9.73917 16.7847 11.6008 16.7868 18.6565 16.7868 20.1796 22.5962 22.6949 29.1213 22.738 29.2336 22.7531 29.3548 22.739 29.4741 22.7249 29.5936 22.6819 29.708 22.6139 29.8071 22.5458 29.9062 22.4546 29.9873 22.3482 30.0436 22.2418 30.0996 22.1234 30.1291 22.0031 30.1294L20.1252 30.1294 20.1252 33.0942C20.1252 33.8808 19.8128 34.6348 19.2568 35.1909 18.7007 35.7469 17.9466 36.0593 17.1602 36.0593L15.6777 36.0593 15.6777 39.0244" stroke="#66737C" stroke-width="3.33333" stroke-linecap="round" stroke-linejoin="round"/></svg>