<svg width="60" height="60" viewBox="-1.875 -1.875 60 60" xmlns="http://www.w3.org/2000/svg" xmlns:xlink="http://www.w3.org/1999/xlink" id="Engineer-Project-Superviser-2--Streamline-Ultimate" fill="none" overflow="hidden"><path d="M28.125 42.1877 28.125 54.3752" stroke="#66737C" stroke-width="3.33333" stroke-linecap="round" stroke-linejoin="round" stroke-miterlimit="10"/><path d="M48.6328 54.3752 48.6328 50.1565C48.6328 48.7502 47.6953 47.8127 46.2891 47.8127L9.96094 47.8127C8.55469 47.8127 7.61719 48.7502 7.61719 50.1565L7.61719 54.3752" stroke="#66737C" stroke-width="3.33333" stroke-linecap="round" stroke-linejoin="round" stroke-miterlimit="10"/><path d="M43.1091 40.5466C40.9997 34.4529 35.1403 29.9998 28.3434 29.9998 21.5467 29.9998 15.4529 34.4529 13.3435 40.5466" stroke="#66737C" stroke-width="3.33333" stroke-linecap="round" stroke-linejoin="round" stroke-miterlimit="10"/><path d="M28.2265 8.90609 28.2265 1.87483M15.3356 15.7029 41.1169 15.7029M18.6169 18.2811C18.8513 23.4373 23.07 27.656 28.2262 27.656 33.6169 27.656 37.8356 23.4373 37.8356 18.0467L37.8356 13.828C37.8356 8.43734 33.6169 4.21859 28.2262 4.21859 23.07 4.21859 18.8513 8.43734 18.6169 13.5936L18.6169 18.2811Z" stroke="#66737C" stroke-width="3.33333" stroke-linecap="round" stroke-linejoin="round" stroke-miterlimit="10"/></svg>