<svg width="60" height="60" viewBox="-2.14 -2.14 60 60" xmlns="http://www.w3.org/2000/svg" xmlns:xlink="http://www.w3.org/1999/xlink" id="Equipment-Cement--Streamline-Ultimate.svg" overflow="hidden"><g><path d="M10.4475 48.755C10.4475 51.9606 13.0461 54.5592 16.2517 54.5592 19.4572 54.5592 22.0558 51.9606 22.0558 48.755 22.0558 45.5494 19.4572 42.9508 16.2517 42.9508 13.0461 42.9508 10.4475 45.5494 10.4475 48.755" stroke="#66737C" stroke-width="3.57143" stroke-linecap="round" stroke-linejoin="round" fill="none"/><path d="M33.6642 48.755C33.6642 51.9606 36.2628 54.5592 39.4683 54.5592 42.6739 54.5592 45.2725 51.9606 45.2725 48.755 45.2725 45.5494 42.6739 42.9508 39.4683 42.9508 36.2628 42.9508 33.6642 45.5494 33.6642 48.755" stroke="#66737C" stroke-width="3.57143" stroke-linecap="round" stroke-linejoin="round" fill="none"/><path d="M45.1564 49.9158C47.9962 50.028 50.4964 48.0594 51.0535 45.2725L54.5359 26.9778C54.5996 26.6418 54.515 26.2948 54.3038 26.0259 54.0876 25.739 53.7568 25.5609 53.3983 25.5383L2.32167 25.5383C1.9744 25.5436 1.64553 25.6954 1.41622 25.9562 1.20502 26.2251 1.12037 26.5722 1.18405 26.9081L4.64333 45.2029C5.20918 47.9844 7.70374 49.9486 10.5404 49.8462" stroke="#66737C" stroke-width="3.57143" stroke-linecap="round" stroke-linejoin="round" fill="none"/><path d="M21.9398 49.9158 33.7803 49.9158" stroke="#66737C" stroke-width="3.57143" stroke-linecap="round" stroke-linejoin="round" fill="none"/><path d="M52.2375 20.895C52.2375 15.7661 48.0797 11.6083 42.9508 11.6083 42.4215 11.6076 41.8931 11.6542 41.3721 11.7476 39.5018 4.28511 31.9361-0.2483 24.4735 1.62199 19.4891 2.87122 15.5971 6.76315 14.3479 11.7476 13.8269 11.6542 13.2985 11.6076 12.7692 11.6083 7.64028 11.6083 3.4825 15.7661 3.4825 20.895" stroke="#66737C" stroke-width="3.57143" stroke-linecap="round" stroke-linejoin="round" fill="none"/></g></svg>