<svg width="60" height="60" viewBox="-2.14 -2.14 60 60" xmlns="http://www.w3.org/2000/svg" xmlns:xlink="http://www.w3.org/1999/xlink" id="Escalator-Ascend-Person--Streamline-Ultimate.svg" overflow="hidden"><path d="M17.4125 51.8033 6.965 51.8033C4.08 51.8033 1.74125 49.4646 1.74125 46.5796 1.74125 43.6946 4.08 41.3558 6.965 41.3558L15.2487 41.3559 34.6137 21.9908C35.5935 21.0114 36.9221 20.4611 38.3075 20.4608L48.755 20.4608C51.64 20.4608 53.9788 22.7996 53.9788 25.6846 53.9788 28.5696 51.64 30.9083 48.755 30.9083L40.4713 30.9083 21.1063 50.2734C20.1259 51.2519 18.7977 51.8021 17.4125 51.8033Z" stroke="#66737C" stroke-width="3.57143" stroke-linecap="round" stroke-linejoin="round" fill="none"/><path d="M43.5312 37.8733 53.9787 37.8733 53.9787 48.3208" stroke="#66737C" stroke-width="3.57143" stroke-linecap="round" stroke-linejoin="round" fill="none"/><path d="M53.9787 37.8733 40.0488 51.8033" stroke="#66737C" stroke-width="3.57143" stroke-linecap="round" stroke-linejoin="round" fill="none"/><path d="M15.6713 9.14272C15.6713 12.0277 18.01 14.3665 20.895 14.3665 23.78 14.3665 26.1187 12.0277 26.1187 9.14272 26.1187 6.25773 23.78 3.91897 20.895 3.91897 18.01 3.91897 15.6713 6.25773 15.6713 9.14272Z" stroke="#66737C" stroke-width="3.57143" stroke-linecap="round" stroke-linejoin="round" fill="none"/><path d="M15.6713 30.9083 15.6713 22.2021C15.6713 19.3171 18.01 16.9783 20.895 16.9783 23.78 16.9783 26.1187 19.3171 26.1187 22.2021" stroke="#66737C" stroke-width="3.57143" stroke-linecap="round" stroke-linejoin="round" fill="none"/></svg>