<svg width="60" height="60" viewBox="-1.875 -1.875 60 60" xmlns="http://www.w3.org/2000/svg" xmlns:xlink="http://www.w3.org/1999/xlink" id="Factory-Building-1--Streamline-Ultimate" overflow="hidden"><defs></defs><path d="M7.45078 36.0047 9.87656 10.5234 21.0094 10.5234 23.0531 31.9664" stroke="#66737C" stroke-width="3.33333" stroke-linecap="round" stroke-linejoin="round" fill="none"/><path d="M1.75781 54.4688 54.4922 54.4688 54.4922 27.1875C54.4922 25.752 53.3285 24.5883 51.893 24.5883 51.673 24.5882 51.454 24.6166 51.2414 24.6727L3.51562 37.0312C2.48111 37.2995 1.75907 38.2336 1.76016 39.3023Z" stroke="#66737C" stroke-width="3.33333" stroke-linecap="round" stroke-linejoin="round" fill="none"/><path d="M18.7617 2.06016C21.1807 2.017 23.5788 2.51424 25.7812 3.51562 43.193 10.95 50.3906 1.78125 50.3906 1.78125" stroke="#66737C" stroke-width="3.33333" stroke-linecap="round" stroke-linejoin="round" fill="none"/><path d="M46.2891 54.4711 34.5703 54.4711 34.5703 54.4711 34.5703 43.9242C34.5703 42.6298 35.6196 41.5805 36.9141 41.5805L43.9453 41.5805C45.2397 41.5805 46.2891 42.6298 46.2891 43.9242L46.2891 54.4711 46.2891 54.4711Z" stroke="#66737C" stroke-width="3.33333" stroke-linecap="round" stroke-linejoin="round" fill="none"/><path d="M26.3672 45.0938 22.8516 45.0938" stroke="#66737C" stroke-width="3.33333" stroke-linecap="round" stroke-linejoin="round" fill="none"/><path d="M14.6484 45.0938 11.1328 45.0938" stroke="#66737C" stroke-width="3.33333" stroke-linecap="round" stroke-linejoin="round" fill="none"/></svg>