<svg width="44.8" height="44.8" viewBox="-1.6 -1.6 44.8 44.8" xmlns="http://www.w3.org/2000/svg" xmlns:xlink="http://www.w3.org/1999/xlink" id="Factory-Plant--Streamline-Core" fill="none" overflow="hidden"><g id="factory-plant--business-factory-plant"><path d="M16.9678 18.4347 16.9678 28.8739 36.9117 28.8739C37.3672 28.8739 37.8037 29.0563 38.1258 29.381 38.4476 29.7056 38.6286 30.146 38.6286 30.6051L38.6286 38.6286 2.97143 38.6286 2.97143 24.9891C2.97155 24.7168 3.03534 24.4484 3.15765 24.2056 3.27995 23.9629 3.45732 23.7526 3.67533 23.592L14.238 17.0325C14.4943 16.8436 14.7975 16.7302 15.1139 16.7046 15.4302 16.679 15.7475 16.7424 16.0303 16.8877 16.3131 17.033 16.5504 17.2545 16.716 17.5276 16.8815 17.8007 16.9686 18.1147 16.9678 18.4347Z" id="Vector" stroke="#66737C" stroke-width="2.67857" stroke-linecap="round" stroke-linejoin="round"/><path d="M36.3213 28.8786 34.1619 2.97143 27.6835 2.97143 25.5241 28.8786" id="Vector_2" stroke="#66737C" stroke-width="2.67857" stroke-linecap="round" stroke-linejoin="round"/><path d="M2.97143 4.68704C10.4 10.6299 13.3714-1.2558 20.8 4.68704" id="Vector_3" stroke="#66737C" stroke-width="2.67857" stroke-linecap="round" stroke-linejoin="round"/><path d="M2.97143 11.417C10.4 17.3599 13.3714 5.47417 20.8 11.417" id="Vector_4" stroke="#66737C" stroke-width="2.67857" stroke-linecap="round" stroke-linejoin="round"/><path d="M9.47143 38.6286 9.47143 32.185" id="Vector 590" stroke="#66737C" stroke-width="2.67857" stroke-linecap="round" stroke-linejoin="round"/></g></svg>