<svg width="60" height="60" viewBox="-1.875 -1.875 60 60" xmlns="http://www.w3.org/2000/svg" xmlns:xlink="http://www.w3.org/1999/xlink" id="Factory-Industrial-Robot-Assembly-Line-1--Streamline-Ultimate" overflow="hidden"><defs></defs><path d="M11.1328 32.7094C5.95514 32.7094 1.75781 36.9067 1.75781 42.0844L1.75781 54.4922 20.5078 54.4922 20.5078 42.0844C20.5078 36.9067 16.3105 32.7094 11.1328 32.7094Z" stroke="#66737C" stroke-width="3.33333" stroke-linecap="round" stroke-linejoin="round" fill="none"/><path d="M6.44531 33.9633 6.44531 19.7859" stroke="#66737C" stroke-width="3.33333" stroke-linecap="round" stroke-linejoin="round" fill="none"/><path d="M17.5781 17.3602 17.5781 35.2758" stroke="#66737C" stroke-width="3.33333" stroke-linecap="round" stroke-linejoin="round" fill="none"/><path d="M4.10156 14.5453C4.10156 18.4286 7.24956 21.5766 11.1328 21.5766 15.0161 21.5766 18.1641 18.4286 18.1641 14.5453 18.1641 10.6621 15.0161 7.51406 11.1328 7.51406 7.24956 7.51406 4.10156 10.6621 4.10156 14.5453" stroke="#66737C" stroke-width="3.33333" stroke-linecap="round" stroke-linejoin="round" fill="none"/><path d="M27.5391 8.78906C27.5391 12.6723 30.6871 15.8203 34.5703 15.8203 38.4536 15.8203 41.6016 12.6723 41.6016 8.78906 41.6016 4.90581 38.4536 1.75781 34.5703 1.75781 30.6871 1.75781 27.5391 4.90581 27.5391 8.78906" stroke="#66737C" stroke-width="3.33333" stroke-linecap="round" stroke-linejoin="round" fill="none"/><path d="M28.4789 5.27344 15.757 9.24844" stroke="#66737C" stroke-width="3.33333" stroke-linecap="round" stroke-linejoin="round" fill="none"/><path d="M18.0938 15.5484 28.4789 12.3047" stroke="#66737C" stroke-width="3.33333" stroke-linecap="round" stroke-linejoin="round" fill="none"/><path d="M1.75781 43.2562 20.5078 43.2562" stroke="#66737C" stroke-width="3.33333" stroke-linecap="round" stroke-linejoin="round" fill="none"/><path d="M42.3703 27.1547 37.5961 15.1289" stroke="#66737C" stroke-width="3.33333" stroke-linecap="round" stroke-linejoin="round" fill="none"/><path d="M1.75781 54.4922 54.4922 54.4922" stroke="#66737C" stroke-width="3.33333" stroke-linecap="round" stroke-linejoin="round" fill="none"/><path d="M31.2492 54.4922 40.4297 35.9953 49.6102 54.4922 31.2492 54.4922Z" stroke="#66737C" stroke-width="3.33333" stroke-linecap="round" stroke-linejoin="round" fill="none"/></svg>