<svg width="60" height="60" viewBox="-1.875 -1.875 60 60" xmlns="http://www.w3.org/2000/svg" xmlns:xlink="http://www.w3.org/1999/xlink" id="Family-Home--Streamline-Ultimate" overflow="hidden"><path d="M54.4922 22.8516 28.125 3.51562 1.75781 22.8516" stroke="#66737C" stroke-width="3.57143" stroke-linecap="round" stroke-linejoin="round" fill="none"/><path d="M1.75781 38.4188C1.75781 41.8166 4.51231 44.5711 7.91016 44.5711 11.308 44.5711 14.0625 41.8166 14.0625 38.4188 14.0625 35.0209 11.308 32.2664 7.91016 32.2664 4.51231 32.2664 1.75781 35.0209 1.75781 38.4188Z" stroke="#66737C" stroke-width="3.57143" stroke-linecap="round" stroke-linejoin="round" fill="none"/><path d="M42.1875 38.4188C42.1875 41.8166 44.942 44.5711 48.3398 44.5711 51.7377 44.5711 54.4922 41.8166 54.4922 38.4188 54.4922 35.0209 51.7377 32.2664 48.3398 32.2664 44.942 32.2664 42.1875 35.0209 42.1875 38.4188Z" stroke="#66737C" stroke-width="3.57143" stroke-linecap="round" stroke-linejoin="round" fill="none"/><path d="M21.9727 38.4188C21.9727 41.8166 24.7272 44.5711 28.125 44.5711 31.5228 44.5711 34.2773 41.8166 34.2773 38.4188 34.2773 35.0209 31.5228 32.2664 28.125 32.2664 24.7272 32.2664 21.9727 35.0209 21.9727 38.4188Z" stroke="#66737C" stroke-width="3.57143" stroke-linecap="round" stroke-linejoin="round" fill="none"/><path d="M1.75781 48.3117C6.48834 44.913 13.0784 45.9926 16.4771 50.7232 16.9275 51.3501 17.3077 52.0245 17.6109 52.7344L18.4242 52.7344C20.7101 47.3768 26.9064 44.8867 32.264 47.1726 34.7657 48.24 36.7584 50.2326 37.8258 52.7344L38.6391 52.7344C40.927 47.3777 47.1243 44.8899 52.481 47.1779 53.1909 47.4811 53.8653 47.8613 54.4922 48.3117" stroke="#66737C" stroke-width="3.57143" stroke-linecap="round" stroke-linejoin="round" fill="none"/></svg>