<svg width="44.8" height="44.8" viewBox="-1.6 -1.6 44.8 44.8" xmlns="http://www.w3.org/2000/svg" xmlns:xlink="http://www.w3.org/1999/xlink" id="File-Document-Financial-Report-Statement--Streamline-Core" fill="none" overflow="hidden"><g id="file-document-financial-report-statement--file-document-financial-report-statement-money-bank-bill-payment"><path d="M37.1429 37.1429C37.1429 37.9309 36.8297 38.6868 36.2725 39.244 35.7154 39.8011 34.9594 40.1143 34.1714 40.1143L7.42857 40.1143C6.64049 40.1143 5.88471 39.8011 5.32744 39.244 4.77021 38.6868 4.45714 37.9309 4.45714 37.1429L4.45714 4.45714C4.45714 3.66906 4.77021 2.91328 5.32744 2.35602 5.88471 1.79878 6.64049 1.48571 7.42857 1.48571L26.7429 1.48571 37.1429 11.8857 37.1429 37.1429Z" id="Vector" stroke="#66737C" stroke-width="2.67857" stroke-linecap="round" stroke-linejoin="round"/><path d="M25.8569 15.889C25.683 15.3969 25.4146 14.9494 25.0736 14.5684 24.3481 13.7578 23.2939 13.2477 22.1205 13.2477L19.0538 13.2477C17.1007 13.2477 15.5173 14.8311 15.5173 16.7843 15.5173 18.4462 16.6745 19.8839 18.2981 20.2391L22.9671 21.2605C24.786 21.6583 26.0824 23.2701 26.0824 25.132 26.0824 27.3201 24.3086 29.0954 22.1205 29.0954L19.4792 29.0954C17.7542 29.0954 16.2866 27.9929 15.7427 26.4541" id="Vector 3" stroke="#66737C" stroke-width="2.67857" stroke-linecap="round" stroke-linejoin="round"/><path d="M20.8 13.2476 20.8 9.28571" id="Vector 2489" stroke="#66737C" stroke-width="2.67857" stroke-linecap="round" stroke-linejoin="round"/><path d="M20.8 33.0571 20.8 29.0951" id="Vector 2490" stroke="#66737C" stroke-width="2.67857" stroke-linecap="round" stroke-linejoin="round"/></g></svg>