<svg width="60" height="60" viewBox="-1.875 -1.875 60 60" xmlns="http://www.w3.org/2000/svg" xmlns:xlink="http://www.w3.org/1999/xlink" id="File-Sql--Streamline-Ultimate" overflow="hidden"><path d="M12.3023 54.5016 5.27109 54.5016C3.32947 54.5016 1.75547 52.9276 1.75547 50.9859L1.75547 5.28281C1.75547 3.34119 3.32947 1.76719 5.27109 1.76719L30.1805 1.76719C31.113 1.76676 32.0076 2.13688 32.6672 2.79609L46.4273 16.5562C47.0874 17.2155 47.4584 18.1101 47.4586 19.043L47.4586 26.3766" stroke="#66737C" stroke-width="3.33333" stroke-linecap="round" stroke-linejoin="round" fill="none"/><path d="M47.4586 19.3453 33.3961 19.3453C31.4545 19.3453 29.8805 17.7713 29.8805 15.8297L29.8805 1.76719" stroke="#66737C" stroke-width="3.33333" stroke-linecap="round" stroke-linejoin="round" fill="none"/><path d="M47.4586 33.4078 47.4586 47.4703C47.4586 49.4119 49.0326 50.9859 50.9742 50.9859L54.4898 50.9859" stroke="#66737C" stroke-width="3.33333" stroke-linecap="round" stroke-linejoin="round" fill="none"/><path d="M26.3648 33.4078 22.8492 33.4078C20.9076 33.4078 19.3336 34.9818 19.3336 36.9234 19.3336 42.1969 26.3648 42.1969 26.3648 47.4703 26.3648 49.4119 24.7908 50.9859 22.8492 50.9859L19.3336 50.9859" stroke="#66737C" stroke-width="3.33333" stroke-linecap="round" stroke-linejoin="round" fill="none"/><path d="M40.4273 47.4703C40.4273 49.4119 38.8533 50.9859 36.9117 50.9859 34.9701 50.9859 33.3961 49.4119 33.3961 47.4703L33.3961 36.9234C33.3961 34.9818 34.9701 33.4078 36.9117 33.4078 38.8533 33.4078 40.4273 34.9818 40.4273 36.9234Z" stroke="#66737C" stroke-width="3.33333" stroke-linecap="round" stroke-linejoin="round" fill="none"/><path d="M36.9117 50.9859 40.4273 54.5016" stroke="#66737C" stroke-width="3.33333" stroke-linecap="round" stroke-linejoin="round" fill="none"/></svg>