<svg width="60" height="60" viewBox="-1.875 -1.875 60 60" xmlns="http://www.w3.org/2000/svg" xmlns:xlink="http://www.w3.org/1999/xlink" id="Focus-Frame-Target--Streamline-Ultimate" fill="none" overflow="hidden"><path d="M28.125 38.6719C33.9499 38.6719 38.6719 33.9499 38.6719 28.125 38.6719 22.3001 33.9499 17.5781 28.125 17.5781 22.3001 17.5781 17.5781 22.3001 17.5781 28.125 17.5781 33.9499 22.3001 38.6719 28.125 38.6719Z" stroke="#66737C" stroke-width="3.33333" stroke-linecap="round" stroke-linejoin="round"/><path d="M28.125 17.5781 28.125 12.3047" stroke="#66737C" stroke-width="3.33333" stroke-linecap="round" stroke-linejoin="round"/><path d="M28.125 38.6719 28.125 43.9453" stroke="#66737C" stroke-width="3.33333" stroke-linecap="round" stroke-linejoin="round"/><path d="M38.6719 28.125 43.9453 28.125" stroke="#66737C" stroke-width="3.33333" stroke-linecap="round" stroke-linejoin="round"/><path d="M17.5781 28.125 12.3047 28.125" stroke="#66737C" stroke-width="3.33333" stroke-linecap="round" stroke-linejoin="round"/><path d="M28.125 29.0039C27.6396 29.0039 27.2461 28.6104 27.2461 28.125 27.2461 27.6396 27.6396 27.2461 28.125 27.2461" stroke="#66737C" stroke-width="3.33333"/><path d="M28.125 29.0039C28.6104 29.0039 29.0039 28.6104 29.0039 28.125 29.0039 27.6396 28.6104 27.2461 28.125 27.2461" stroke="#66737C" stroke-width="3.33333"/><path d="M1.75781 10.5469 1.75781 5.27344C1.75781 4.34105 2.12821 3.44681 2.78752 2.78752 3.44681 2.12821 4.34105 1.75781 5.27344 1.75781L10.5469 1.75781" stroke="#66737C" stroke-width="3.33333" stroke-linecap="round" stroke-linejoin="round"/><path d="M54.4922 10.5469 54.4922 5.27344C54.4922 4.34105 54.1219 3.44681 53.4626 2.78752 52.8033 2.12821 51.9089 1.75781 50.9766 1.75781L45.7031 1.75781" stroke="#66737C" stroke-width="3.33333" stroke-linecap="round" stroke-linejoin="round"/><path d="M1.75781 45.7031 1.75781 50.9766C1.75781 51.9089 2.12821 52.8033 2.78752 53.4626 3.44681 54.1219 4.34105 54.4922 5.27344 54.4922L10.5469 54.4922" stroke="#66737C" stroke-width="3.33333" stroke-linecap="round" stroke-linejoin="round"/><path d="M54.4922 45.7031 54.4922 50.9766C54.4922 51.9089 54.1219 52.8033 53.4626 53.4626 52.8033 54.1219 51.9089 54.4922 50.9766 54.4922L45.7031 54.4922" stroke="#66737C" stroke-width="3.33333" stroke-linecap="round" stroke-linejoin="round"/></svg>