<svg width="60" height="60" viewBox="-1.875 -1.875 60 60" xmlns="http://www.w3.org/2000/svg" xmlns:xlink="http://www.w3.org/1999/xlink" id="Focus-1--Streamline-Ultimate" fill="none" overflow="hidden"><path d="M10.9579 54.4922 10.9579 39.8086C7.71935 36.8084 5.4608 32.9013 4.47713 28.5977 3.49348 24.2941 3.83041 19.7938 5.44399 15.6846 7.05755 11.5754 9.87272 8.0482 13.5219 5.56371 17.1711 3.07922 21.4846 1.75285 25.8994 1.75783 42.6314 1.75783 46.2431 15.5344 52.208 31.0078 52.3102 31.2743 52.346 31.5614 52.3125 31.8448 52.279 32.1281 52.1773 32.3991 52.0158 32.6344 51.8543 32.8695 51.6382 33.0619 51.3858 33.195 51.1334 33.3281 50.8526 33.398 50.5673 33.3984L46.1142 33.3984 46.1142 40.4297C46.1142 42.2946 45.3734 44.0829 44.0548 45.4015 42.7362 46.7201 40.9477 47.4609 39.083 47.4609L35.5673 47.4609 35.5673 54.4922" stroke="#66737C" stroke-width="3.33333" stroke-linecap="round" stroke-linejoin="round"/><path d="M26.0726 35.5312C32.7623 35.5312 38.1855 30.108 38.1855 23.4181 38.1855 16.7282 32.7623 11.3051 26.0726 11.3051 19.3827 11.3051 13.9595 16.7282 13.9595 23.4181 13.9595 30.108 19.3827 35.5312 26.0726 35.5312Z" stroke="#66737C" stroke-width="3.33333" stroke-linecap="round" stroke-linejoin="round"/><path d="M26.0719 8.64916 26.0719 13.9607" stroke="#66737C" stroke-width="3.33333" stroke-linecap="round"/><path d="M40.8405 23.418 35.5291 23.418" stroke="#66737C" stroke-width="3.33333" stroke-linecap="round"/><path d="M26.0719 32.8755 26.0719 38.187" stroke="#66737C" stroke-width="3.33333" stroke-linecap="round"/><path d="M16.6145 23.418 11.303 23.418" stroke="#66737C" stroke-width="3.33333" stroke-linecap="round"/><path d="M26.0712 24.2998C25.5844 24.2998 25.1897 23.9051 25.1897 23.4182 25.1897 22.9313 25.5844 22.5366 26.0712 22.5366" stroke="#66737C" stroke-width="3.33333" stroke-linecap="round" stroke-linejoin="round"/><path d="M26.0716 24.2998C26.5584 24.2998 26.9531 23.9051 26.9531 23.4182 26.9531 22.9313 26.5584 22.5366 26.0716 22.5366" stroke="#66737C" stroke-width="3.33333" stroke-linecap="round" stroke-linejoin="round"/></svg>