<svg width="60" height="60" viewBox="-1.875 -1.875 60 60" xmlns="http://www.w3.org/2000/svg" xmlns:xlink="http://www.w3.org/1999/xlink" id="Folder-Sync--Streamline-Ultimate" overflow="hidden"><path d="M19.3359 43.9453 5.73516 43.9453" stroke="#66737C" stroke-width="3.33333" stroke-linecap="round" stroke-linejoin="round" fill="none"/><path d="M47.4609 19.3359 47.4609 12.3047C47.4609 10.3631 45.8869 8.78906 43.9453 8.78906L19.3359 8.78906 19.3359 5.27344C19.3359 3.33181 17.7619 1.75781 15.8203 1.75781L5.27344 1.75781C3.33181 1.75781 1.75781 3.33181 1.75781 5.27344L1.75781 39.9609C1.78822 42.1612 3.59656 43.9203 5.79686 43.8899 7.56024 43.8655 9.09782 42.6848 9.57656 40.9875L15.0867 21.8766C15.5213 20.3712 16.8996 19.3351 18.4664 19.3359L50.9766 19.3359" stroke="#66737C" stroke-width="3.33333" stroke-linecap="round" stroke-linejoin="round" fill="none"/><path d="M35.1562 43.9453 26.3672 43.9453 26.3672 52.7344" stroke="#66737C" stroke-width="3.33333" stroke-linecap="round" stroke-linejoin="round" fill="none"/><path d="M53.1258 45.6633C50.7907 52.4873 43.3657 56.1263 36.5417 53.7912 32.1252 52.2799 28.8511 48.5262 27.9539 43.9453" stroke="#66737C" stroke-width="3.33333" stroke-linecap="round" stroke-linejoin="round" fill="none"/><path d="M45.7031 36.9141 54.4922 36.9141 54.4922 28.125" stroke="#66737C" stroke-width="3.33333" stroke-linecap="round" stroke-linejoin="round" fill="none"/><path d="M27.7336 35.1961C30.0687 28.3721 37.4936 24.7331 44.3177 27.0682 48.7342 28.5794 52.0083 32.3331 52.9055 36.9141" stroke="#66737C" stroke-width="3.33333" stroke-linecap="round" stroke-linejoin="round" fill="none"/></svg>