<svg width="60" height="60" viewBox="-1.875 -1.875 60 60" xmlns="http://www.w3.org/2000/svg" xmlns:xlink="http://www.w3.org/1999/xlink" id="Gauge-Dashboard-1--Streamline-Ultimate" fill="none" overflow="hidden"><path d="M21.0938 35.8242 21.0938 35.1562C21.0938 33.2916 21.8345 31.503 23.1532 30.1845 24.4718 28.8659 26.2603 28.125 28.125 28.125 29.9897 28.125 31.7782 28.8659 33.0968 30.1845 34.4154 31.503 35.1562 33.2916 35.1562 35.1562L35.1562 35.8242" stroke="#66737C" stroke-width="3.33333" stroke-linecap="round" stroke-linejoin="round"/><path d="M33.4031 12.3047 28.1297 28.125" stroke="#66737C" stroke-width="3.33333" stroke-linecap="round" stroke-linejoin="round"/><path d="M50.2291 42.5039C43.8471 37.7339 36.093 35.1562 28.1252 35.1562 20.1574 35.1562 12.4034 37.7339 6.0213 42.5039" stroke="#66737C" stroke-width="3.33333" stroke-linecap="round" stroke-linejoin="round"/><path d="M28.125 54.4922C42.6872 54.4922 54.4922 42.6872 54.4922 28.125 54.4922 13.5628 42.6872 1.75781 28.125 1.75781 13.5628 1.75781 1.75781 13.5628 1.75781 28.125 1.75781 42.6872 13.5628 54.4922 28.125 54.4922Z" stroke="#66737C" stroke-width="3.33333" stroke-linecap="round" stroke-linejoin="round"/><path d="M11.4304 28.125C10.945 28.125 10.5514 27.7315 10.5514 27.2461 10.5514 26.7607 10.945 26.3672 11.4304 26.3672" stroke="#66737C" stroke-width="3.33333"/><path d="M11.4304 28.125C11.9158 28.125 12.3093 27.7315 12.3093 27.2461 12.3093 26.7607 11.9158 26.3672 11.4304 26.3672" stroke="#66737C" stroke-width="3.33333"/><path d="M14.946 19.3359C14.4606 19.3359 14.0671 18.9424 14.0671 18.457 14.0671 17.9716 14.4606 17.5781 14.946 17.5781" stroke="#66737C" stroke-width="3.33333"/><path d="M14.946 19.3359C15.4314 19.3359 15.8249 18.9424 15.8249 18.457 15.8249 17.9716 15.4314 17.5781 14.946 17.5781" stroke="#66737C" stroke-width="3.33333"/><path d="M21.9772 12.3047C21.4918 12.3047 21.0983 11.9112 21.0983 11.4258 21.0983 10.9404 21.4918 10.5469 21.9772 10.5469" stroke="#66737C" stroke-width="3.33333"/><path d="M21.9772 12.3047C22.4626 12.3047 22.8561 11.9112 22.8561 11.4258 22.8561 10.9404 22.4626 10.5469 21.9772 10.5469" stroke="#66737C" stroke-width="3.33333"/><g><path d="M41.3086 19.3359C40.8232 19.3359 40.4297 18.9424 40.4297 18.457 40.4297 17.9716 40.8232 17.5781 41.3086 17.5781" stroke="#66737C" stroke-width="3.33333"/><path d="M41.3086 19.3359C41.794 19.3359 42.1875 18.9424 42.1875 18.457 42.1875 17.9716 41.794 17.5781 41.3086 17.5781" stroke="#66737C" stroke-width="3.33333"/></g><g><path d="M44.8289 28.1084C44.3433 28.1084 43.95 27.7148 43.95 27.2295 43.95 26.7441 44.3433 26.3505 44.8289 26.3505" stroke="#66737C" stroke-width="3.33333"/><path d="M44.8289 28.1084C45.3143 28.1084 45.7078 27.7148 45.7078 27.2295 45.7078 26.7441 45.3143 26.3505 44.8289 26.3505" stroke="#66737C" stroke-width="3.33333"/></g></svg>