<svg width="60" height="60" viewBox="-1.875 -1.875 60 60" xmlns="http://www.w3.org/2000/svg" xmlns:xlink="http://www.w3.org/1999/xlink" id="Gift-Box--Streamline-Ultimate" overflow="hidden"><path d="M50.9766 26.3672 5.27344 26.3672 5.27344 50.9766C5.27344 52.9182 6.84744 54.4922 8.78906 54.4922L47.4609 54.4922C49.4026 54.4922 50.9766 52.9182 50.9766 50.9766Z" stroke="#66737C" stroke-width="3.33333" stroke-linecap="round" stroke-linejoin="round" fill="none"/><path d="M50.9766 15.8203 5.27344 15.8203C3.33181 15.8203 1.75781 17.3943 1.75781 19.3359L1.75781 24.6094C1.75781 25.5802 2.54481 26.3672 3.51562 26.3672L52.7344 26.3672C53.7052 26.3672 54.4922 25.5802 54.4922 24.6094L54.4922 19.3359C54.4922 17.3943 52.9182 15.8203 50.9766 15.8203Z" stroke="#66737C" stroke-width="3.33333" stroke-linecap="round" stroke-linejoin="round" fill="none"/><path d="M26.3672 15.8203C18.6 15.8203 10.5469 9.525 10.5469 1.75781" stroke="#66737C" stroke-width="3.33333" stroke-linecap="round" stroke-linejoin="round" fill="none"/><path d="M10.5469 1.75781C18.3141 1.75781 26.3672 8.05313 26.3672 15.8203" stroke="#66737C" stroke-width="3.33333" stroke-linecap="round" stroke-linejoin="round" fill="none"/><path d="M29.8828 15.8203C37.65 15.8203 45.7031 9.525 45.7031 1.75781" stroke="#66737C" stroke-width="3.33333" stroke-linecap="round" stroke-linejoin="round" fill="none"/><path d="M45.7031 1.75781C37.9359 1.75781 29.8828 8.05313 29.8828 15.8203" stroke="#66737C" stroke-width="3.33333" stroke-linecap="round" stroke-linejoin="round" fill="none"/><path d="M22.8516 15.8203 33.3984 15.8203 33.3984 54.4922 22.8516 54.4922Z" stroke="#66737C" stroke-width="3.33333" stroke-linecap="round" stroke-linejoin="round" fill="none"/></svg>