<svg width="60" height="60" viewBox="-1.875 -1.875 60 60" xmlns="http://www.w3.org/2000/svg" xmlns:xlink="http://www.w3.org/1999/xlink" id="Global-Business-Man-User--Streamline-Ultimate" overflow="hidden"><path d="M26.3672 52.7344C12.7758 52.7344 1.75781 41.7164 1.75781 28.125 1.75781 14.5336 12.7758 3.51562 26.3672 3.51562" stroke="#66737C" stroke-width="3.33333" stroke-linecap="round" stroke-linejoin="round" fill="none"/><path d="M26.3672 3.51562C26.3672 3.51562 14.0625 10.5469 14.0625 28.125 14.0625 45.7031 26.3672 52.7344 26.3672 52.7344" stroke="#66737C" stroke-width="3.33333" stroke-linecap="round" stroke-linejoin="round" fill="none"/><path d="M26.3672 17.5781 4.12734 17.5781" stroke="#66737C" stroke-width="3.33333" stroke-linecap="round" stroke-linejoin="round" fill="none"/><path d="M26.3672 38.6719 4.12734 38.6719" stroke="#66737C" stroke-width="3.33333" stroke-linecap="round" stroke-linejoin="round" fill="none"/><path d="M36.9141 10.5469C36.9141 14.4301 40.0621 17.5781 43.9453 17.5781 47.8286 17.5781 50.9766 14.4301 50.9766 10.5469 50.9766 6.66362 47.8286 3.51562 43.9453 3.51562 40.0621 3.51562 36.9141 6.66362 36.9141 10.5469Z" stroke="#66737C" stroke-width="3.33333" stroke-linecap="round" stroke-linejoin="round" fill="none"/><path d="M50.0625 23.0766 43.9453 31.6406 37.8281 23.0766C35.0525 25.0461 33.4019 28.2372 33.3984 31.6406L33.3984 38.6719C33.3984 40.6135 34.9724 42.1875 36.9141 42.1875L38.6719 42.1875 38.6719 49.2188C38.6719 51.1604 40.2459 52.7344 42.1875 52.7344L45.7031 52.7344C47.6448 52.7344 49.2188 51.1604 49.2188 49.2188L49.2188 42.1875 50.9766 42.1875C52.9182 42.1875 54.4922 40.6135 54.4922 38.6719L54.4922 31.6406C54.4887 28.2372 52.8381 25.0461 50.0625 23.0766Z" stroke="#66737C" stroke-width="3.33333" stroke-linecap="round" stroke-linejoin="round" fill="none"/></svg>