<svg width="60" height="60" viewBox="-1.875 -1.875 60 60" xmlns="http://www.w3.org/2000/svg" xmlns:xlink="http://www.w3.org/1999/xlink" id="Hammer-Wrench--Streamline-Ultimate" overflow="hidden"><g><g><path d="M19.4766 24.4219 17.0156 22.0781C11.7128 24.6409 5.33654 22.4197 2.77375 17.1169 1.35168 14.1745 1.35733 10.7424 2.78906 7.80469L6.14062 11.1328C7.52565 12.5178 9.77122 12.5178 11.1562 11.1328 12.5413 9.74779 12.5413 7.50221 11.1562 6.11719L7.82812 2.78906C11.91 0.854891 16.7665 1.68932 19.9688 4.875" stroke="#66737C" stroke-width="3.33333" stroke-linecap="round" stroke-linejoin="round" fill="none"/><path d="M37.0781 31.9688 39.2344 34.1016C44.5526 31.571 50.9153 33.8309 53.4459 39.1491 54.82 42.0369 54.8255 45.3889 53.4609 48.2812L50.1094 44.9531C48.7243 43.5681 46.4788 43.5681 45.0938 44.9531 43.7087 46.3382 43.7087 48.5837 45.0938 49.9688L48.4219 53.2969C44.34 55.231 39.4835 54.3966 36.2812 51.2109 33.092 48.0284 32.2646 43.1769 34.2188 39.1172L32.0391 36.9609" stroke="#66737C" stroke-width="3.33333" stroke-linecap="round" stroke-linejoin="round" fill="none"/></g><g><path d="M3.375 52.9453 3.375 52.9453C1.33696 50.8972 1.33696 47.5872 3.375 45.5391L14.3906 34.5703C15.0591 33.8843 16.1572 33.87 16.8432 34.5385 16.8539 34.549 16.8645 34.5596 16.875 34.5703L21.8438 39.5156C22.5233 40.1907 22.527 41.2888 21.8519 41.9684 21.8492 41.9711 21.8465 41.9738 21.8438 41.9766L10.8281 52.9453C8.76925 55.0016 5.43387 55.0016 3.375 52.9453Z" stroke="#66737C" stroke-width="3.33333" stroke-linecap="round" stroke-linejoin="round" fill="none"/><path d="M38.8828 2.78906 53.4609 17.3203C54.8163 18.6902 54.8163 20.8958 53.4609 22.2656L48.4922 27.2109C47.1143 28.569 44.9013 28.569 43.5234 27.2109L28.9453 12.6797C27.59 11.3098 27.59 9.10422 28.9453 7.73438L33.9141 2.78906C35.2695 1.41698 37.4806 1.40348 38.8527 2.75892 38.8628 2.76891 38.8728 2.77895 38.8828 2.78906Z" stroke="#66737C" stroke-width="3.33333" stroke-linecap="round" stroke-linejoin="round" fill="none"/><path d="M36.3984 20.1094 19.125 36.7969" stroke="#66737C" stroke-width="3.33333" stroke-linecap="round" stroke-linejoin="round" fill="none"/></g></g></svg>