<svg width="60" height="60" viewBox="-2.14 -2.14 60 60" xmlns="http://www.w3.org/2000/svg" xmlns:xlink="http://www.w3.org/1999/xlink" id="Hardware-Nuts-1--Streamline-Ultimate.svg" overflow="hidden"><path d="M27.0358 33.0838 13.3496 33.0838C12.1836 33.0852 11.0942 32.5031 10.4475 31.5329L2.32167 19.3441C1.54192 18.1744 1.54192 16.6506 2.32167 15.4809L10.4475 3.29212C11.0942 2.32193 12.1836 1.73978 13.3496 1.74125L27.0474 1.74125C28.2118 1.74133 29.299 2.3233 29.9449 3.29212L38.0707 15.4809C38.8504 16.6506 38.8504 18.1744 38.0707 19.3441L29.9449 31.5329C29.2968 32.5051 28.2043 33.0876 27.0358 33.0838Z" stroke="#66737C" stroke-width="3.57143" stroke-linecap="round" stroke-linejoin="round" fill="none"/><path d="M14.9678 17.4125C14.9678 20.2975 17.3065 22.6362 20.1915 22.6362 23.0765 22.6362 25.4153 20.2975 25.4153 17.4125 25.4153 14.5275 23.0765 12.1888 20.1915 12.1888 17.3065 12.1888 14.9678 14.5275 14.9678 17.4125Z" stroke="#66737C" stroke-width="3.57143" stroke-linecap="round" stroke-linejoin="round" fill="none"/><path d="M16.781 41.2583C20.3362 51.2227 31.296 56.4184 41.2603 52.8632 51.2247 49.308 56.4204 38.3482 52.8652 28.3838 51.4556 24.4331 48.7882 21.0542 45.2725 18.766" stroke="#66737C" stroke-width="3.57143" stroke-linecap="round" stroke-linejoin="round" fill="none"/><path d="M28.5031 40.8079C31.8034 44.303 37.3122 44.461 40.8073 41.1607 43.8728 38.266 44.4228 33.5903 42.1127 30.0633" stroke="#66737C" stroke-width="3.57143" stroke-linecap="round" stroke-linejoin="round" fill="none"/></svg>