<svg width="60" height="60" viewBox="-2.14 -2.14 60 60" xmlns="http://www.w3.org/2000/svg" xmlns:xlink="http://www.w3.org/1999/xlink" id="Hardware-Nail--Streamline-Ultimate.svg" overflow="hidden"><defs></defs><path d="M12.9503 50.1573 1.86894 53.8511 5.56271 42.7697 36.3434 11.9891 43.7309 19.3766 12.9503 50.1573Z" stroke="#66737C" stroke-width="3.57143" stroke-linecap="round" stroke-linejoin="round" fill="none"/><path d="M41.6778 2.54849 53.1695 14.0402C53.1695 14.0402 54.8111 15.6818 53.1695 17.3235L49.0653 21.4277C49.0653 21.4277 47.4236 23.0693 45.782 21.4277L34.2903 9.93599C34.2903 9.93599 32.6487 8.29432 34.2903 6.65266L38.3945 2.54849C38.3945 2.54849 40.0362 0.906824 41.6778 2.54849" stroke="#66737C" stroke-width="3.57143" stroke-linecap="round" stroke-linejoin="round" fill="none"/><path d="M8.4114 39.9211 23.1865 39.9211" stroke="#66737C" stroke-width="3.57143" stroke-linecap="round" stroke-linejoin="round" fill="none"/><path d="M15.3764 32.9561 30.1515 32.9561" stroke="#66737C" stroke-width="3.57143" stroke-linecap="round" stroke-linejoin="round" fill="none"/><path d="M22.3414 25.9911 37.1165 25.9911" stroke="#66737C" stroke-width="3.57143" stroke-linecap="round" stroke-linejoin="round" fill="none"/></svg>