<svg width="60" height="60" viewBox="-2.14 -2.14 60 60" xmlns="http://www.w3.org/2000/svg" xmlns:xlink="http://www.w3.org/1999/xlink" id="Hardware-Nuts--Streamline-Ultimate.svg" overflow="hidden"><path d="M27.0335 33.0838 13.3496 33.0838C12.1836 33.0852 11.0942 32.5031 10.4475 31.5329L2.32167 19.3441C1.54192 18.1744 1.54192 16.6506 2.32167 15.4809L10.4475 3.29212C11.0942 2.32193 12.1836 1.73978 13.3496 1.74125L27.0335 1.74125C28.1978 1.74133 29.2851 2.3233 29.9309 3.29212L38.0568 15.4809C38.8365 16.6506 38.8365 18.1744 38.0568 19.3441L29.9309 31.5329C29.2851 32.5017 28.1978 33.0837 27.0335 33.0838Z" stroke="#66737C" stroke-width="3.57143" stroke-linecap="round" stroke-linejoin="round" fill="none"/><path d="M14.9678 17.4125C14.9678 20.2975 17.3065 22.6362 20.1915 22.6362 23.0765 22.6362 25.4153 20.2975 25.4153 17.4125 25.4153 14.5275 23.0765 12.1888 20.1915 12.1888 17.3065 12.1888 14.9678 14.5275 14.9678 17.4125Z" stroke="#66737C" stroke-width="3.57143" stroke-linecap="round" stroke-linejoin="round" fill="none"/><path d="M42.3704 22.6362C43.5348 22.6363 44.622 23.2183 45.2679 24.1871L53.3937 36.3759C54.1734 37.5456 54.1734 39.0694 53.3937 40.2391L45.2679 52.4279C44.622 53.3967 43.5348 53.9787 42.3704 53.9787L28.6842 53.9787C27.5198 53.9787 26.4326 53.3967 25.7868 52.4279L17.6609 40.2391" stroke="#66737C" stroke-width="3.57143" stroke-linecap="round" stroke-linejoin="round" fill="none"/><path d="M35.5215 33.0838C38.4065 33.0838 40.7453 35.4225 40.7453 38.3075 40.7453 41.1925 38.4065 43.5313 35.5215 43.5313 32.6365 43.5313 30.2978 41.1925 30.2978 38.3075" stroke="#66737C" stroke-width="3.57143" stroke-linecap="round" stroke-linejoin="round" fill="none"/></svg>