<svg width="60" height="60" viewBox="-1.875 -1.875 60 60" xmlns="http://www.w3.org/2000/svg" xmlns:xlink="http://www.w3.org/1999/xlink" id="Headphones-Customer-Support-Human-1--Streamline-Ultimate" overflow="hidden"><g><path d="M35.8359 5.97656C47.1124 8.90206 53.8822 20.415 50.9567 31.6915 49.5396 37.1538 45.9928 41.8205 41.1094 44.6484L41.1094 54.4922" stroke="#66737C" stroke-width="3.33333" stroke-linecap="round" stroke-linejoin="round" fill="none"/><path d="M21.7734 26.3672C21.7734 31.2213 25.7084 35.1562 30.5625 35.1562 35.4166 35.1562 39.3516 31.2213 39.3516 26.3672 39.3516 21.5131 35.4166 17.5781 30.5625 17.5781 25.7084 17.5781 21.7734 21.5131 21.7734 26.3672" stroke="#66737C" stroke-width="3.33333" stroke-linecap="round" stroke-linejoin="round" fill="none"/><path d="M25.2891 19.3359 25.2891 3.51562C25.2891 2.54481 26.0761 1.75781 27.0469 1.75781L34.0781 1.75781C35.0437 1.77044 35.8233 2.55009 35.8359 3.51562L35.8359 19.3359" stroke="#66737C" stroke-width="3.33333" stroke-linecap="round" stroke-linejoin="round" fill="none"/><path d="M7.26562 36.3984C5.38265 35.9248 4.24014 34.0144 4.71377 32.1314 4.8124 31.7393 4.97795 31.3671 5.20312 31.0312L9.375 24.6328 9.375 22.875C9.375 14.5781 16.0781 7.61719 25.1953 5.76562" stroke="#66737C" stroke-width="3.33333" stroke-linecap="round" stroke-linejoin="round" fill="none"/><path d="M20.0156 54.4922 20.0156 51" stroke="#66737C" stroke-width="3.33333" stroke-linecap="round" stroke-linejoin="round" fill="none"/><path d="M30.4688 26.3672C30.4688 36.0753 22.5988 43.9453 12.8906 43.9453L9.375 43.9453" stroke="#66737C" stroke-width="3.33333" stroke-linecap="round" stroke-linejoin="round" fill="none"/></g></svg>