<svg width="60" height="60" viewBox="-2.14 -2.14 60 60" xmlns="http://www.w3.org/2000/svg" xmlns:xlink="http://www.w3.org/1999/xlink" id="Heavy-Equipment-Truck--Streamline-Ultimate.svg" overflow="hidden"><path d="M53.9787 41.79 53.9787 40.0488C53.9787 38.1254 52.4196 36.5663 50.4963 36.5663L19.1537 36.5662 19.1537 24.3775C19.1537 23.4158 18.3742 22.6363 17.4125 22.6363L12.1888 22.6362C6.41876 22.6362 1.74125 27.3138 1.74125 33.0837L1.74125 47.0137C1.74125 48.9371 3.30042 50.4962 5.22375 50.4962L6.965 50.4963" stroke="#66737C" stroke-width="3.57143" stroke-linecap="round" stroke-linejoin="round" fill="none"/><path d="M12.1888 48.755C12.1888 51.64 14.5275 53.9788 17.4125 53.9788 20.2975 53.9788 22.6362 51.64 22.6362 48.755 22.6362 45.87 20.2975 43.5312 17.4125 43.5312 14.5275 43.5312 12.1888 45.87 12.1888 48.755Z" stroke="#66737C" stroke-width="3.57143" stroke-linecap="round" stroke-linejoin="round" fill="none"/><path d="M40.0488 48.755C40.0488 51.64 42.3875 53.9788 45.2725 53.9788 48.1575 53.9788 50.4963 51.64 50.4963 48.755 50.4963 45.87 48.1575 43.5312 45.2725 43.5312 42.3875 43.5312 40.0488 45.87 40.0488 48.755Z" stroke="#66737C" stroke-width="3.57143" stroke-linecap="round" stroke-linejoin="round" fill="none"/><path d="M27.86 50.4963 34.825 50.4963" stroke="#66737C" stroke-width="3.57143" stroke-linecap="round" stroke-linejoin="round" fill="none"/><path d="M28.2942 8.10726 50.213 13.7652C52.0745 14.2464 53.1938 16.1451 52.7134 18.0068L49.6674 29.8079 27.7486 24.1453C25.8864 23.6643 24.7668 21.7647 25.2478 19.9025 25.2479 19.9021 25.248 19.9017 25.2481 19.9013L29.6012 3.04835 24.5423 1.74125" stroke="#66737C" stroke-width="3.57143" stroke-linecap="round" stroke-linejoin="round" fill="none"/><path d="M35.294 15.5227 34.356 19.1537" stroke="#66737C" stroke-width="3.57143" stroke-linecap="round" stroke-linejoin="round" fill="none"/><path d="M44.2185 18.1345 43.2805 21.7656" stroke="#66737C" stroke-width="3.57143" stroke-linecap="round" stroke-linejoin="round" fill="none"/><path d="M40.2438 27.3748 36.5662 36.5662" stroke="#66737C" stroke-width="3.57143" stroke-linecap="round" stroke-linejoin="round" fill="none"/><path d="M49.6674 29.8079 50.4963 36.5662" stroke="#66737C" stroke-width="3.57143" stroke-linecap="round" stroke-linejoin="round" fill="none"/><path d="M19.1537 33.0838 1.74125 33.0838" stroke="#66737C" stroke-width="3.57143" stroke-linecap="round" stroke-linejoin="round" fill="none"/></svg>