<svg width="60" height="60" viewBox="-1.875 -1.875 60 60" xmlns="http://www.w3.org/2000/svg" xmlns:xlink="http://www.w3.org/1999/xlink" id="Home-Improvement-4--Streamline-Ultimate" overflow="hidden"><defs></defs><path d="M53.7398 54.2742C51.4913 48.4031 44.909 45.4664 39.0379 47.715 35.9436 48.9 33.5193 51.3744 32.3977 54.4922" stroke="#66737C" stroke-width="3.33333" stroke-linecap="round" stroke-linejoin="round" fill="none"/><path d="M51.1055 35.5406C51.1811 39.9565 47.6626 43.5976 43.2467 43.6732 38.8308 43.7488 35.1897 40.2303 35.1141 35.8144 35.1125 35.7232 35.1125 35.6319 35.1141 35.5406" stroke="#66737C" stroke-width="3.33333" stroke-linecap="round" stroke-linejoin="round" fill="none"/><path d="M33.9305 35.5406 33.9305 34.3992C33.9305 29.351 38.0229 25.2586 43.0711 25.2586 48.1193 25.2586 52.2117 29.351 52.2117 34.3992" stroke="#66737C" stroke-width="3.33333" stroke-linecap="round" stroke-linejoin="round" fill="none"/><path d="M31.6453 35.5406 54.4922 35.5406" stroke="#66737C" stroke-width="3.33333" stroke-linecap="round" stroke-linejoin="round" fill="none"/><path d="M43.0687 29.7797 43.0687 25.2609" stroke="#66737C" stroke-width="3.33333" stroke-linecap="round" stroke-linejoin="round" fill="none"/><path d="M26.5312 41.4375 24.825 39.5461C23.506 38.0879 21.2546 37.9751 19.7965 39.2941 19.7083 39.3739 19.6243 39.458 19.5445 39.5461L17.8359 41.4375C16.518 42.8949 14.2681 43.0079 12.8108 41.69 12.0188 40.9738 11.5904 39.9398 11.6438 38.8734L11.775 36.3281C11.8746 34.3657 10.3645 32.6941 8.40212 32.5945 8.28196 32.5884 8.16157 32.5884 8.04141 32.5945L5.49609 32.7234C3.5351 32.8252 1.86294 31.3179 1.76123 29.3569 1.70572 28.2867 2.13587 27.2486 2.93203 26.5312L4.82344 24.825C6.2816 23.506 6.3944 21.2546 5.07539 19.7965 4.99567 19.7083 4.91158 19.6243 4.82344 19.5445L2.93203 17.8383C1.47328 16.5219 1.35791 14.2721 2.67434 12.8134 3.39119 12.019 4.42748 11.5895 5.49609 11.6438L8.04141 11.775C10.0052 11.8732 11.6768 10.3609 11.775 8.39717 11.7809 8.27866 11.7809 8.15992 11.775 8.04141L11.6438 5.49609C11.5456 3.53362 13.0569 1.86316 15.0194 1.76501 16.0858 1.71168 17.1198 2.1401 17.8359 2.93203L19.5445 4.82344C20.8635 6.2816 23.1149 6.3944 24.573 5.07539 24.6612 4.99567 24.7453 4.91158 24.825 4.82344L26.5312 2.93203C27.8456 1.47318 30.0938 1.35605 31.5526 2.67043 32.3488 3.38774 32.7789 4.42589 32.7234 5.49609L32.5945 8.04141C32.4949 10.0038 34.005 11.6754 35.9674 11.775 36.0876 11.7811 36.208 11.7811 36.3281 11.775L38.8734 11.6438C40.8358 11.5441 42.5075 13.0541 42.6071 15.0165 42.6614 16.0851 42.2319 17.1214 41.4375 17.8383L39.5461 19.5445" stroke="#66737C" stroke-width="3.33333" stroke-linecap="round" stroke-linejoin="round" fill="none"/><path d="M14.0133 22.1836C14.0133 26.6959 17.6713 30.3539 22.1836 30.3539 26.6959 30.3539 30.3539 26.6959 30.3539 22.1836 30.3539 17.6713 26.6959 14.0133 22.1836 14.0133 17.6713 14.0133 14.0133 17.6713 14.0133 22.1836" stroke="#66737C" stroke-width="3.33333" stroke-linecap="round" stroke-linejoin="round" fill="none"/></svg>