<svg width="60" height="60" viewBox="-2.14 -2.14 60 60" xmlns="http://www.w3.org/2000/svg" xmlns:xlink="http://www.w3.org/1999/xlink" id="Hospital-Cross-Pin--Streamline-Ultimate.svg" fill="none" overflow="hidden"><path d="M45.7194 19.9226C45.7194 29.8049 27.86 53.657 27.86 53.657 27.86 53.657 10.0006 29.8049 10.0006 19.9226 10.0006 15.186 11.8822 10.6434 15.2315 7.2941 18.5807 3.94481 23.1233 2.0632 27.86 2.0632 32.5967 2.0632 37.1392 3.94481 40.4885 7.2941 43.8377 10.6434 45.7194 15.186 45.7194 19.9226L45.7194 19.9226Z" stroke="#66737C" stroke-width="3.57143" stroke-linecap="round" stroke-linejoin="round"/><path d="M31.6418 11.3513 24.0799 11.3513 24.0799 16.4527 19.0186 16.4527 19.0186 23.9352 24.0799 23.9352 24.0799 29.0357 31.6418 29.0357 31.6418 23.9352 36.703 23.9352 36.703 16.4527 31.6418 16.4527 31.6418 11.3513Z" stroke="#66737C" stroke-width="3.57143" stroke-linecap="round" stroke-linejoin="round"/></svg>