<svg width="60" height="60" viewBox="-2.14 -2.14 60 60" xmlns="http://www.w3.org/2000/svg" xmlns:xlink="http://www.w3.org/1999/xlink" id="Human-Resources-Search-Team--Streamline-Ultimate.svg" overflow="hidden"><path d="M10.9118 20.3842C15.5075 25.1493 22.5741 26.5697 28.654 23.9503" stroke="#66737C" stroke-width="3.57143" stroke-linecap="round" stroke-linejoin="round" fill="none"/><path d="M9.57455 25.2481C9.57455 30.5373 13.8623 34.825 19.1514 34.825 24.4406 34.825 28.7283 30.5373 28.7283 25.2481 28.7283 19.959 24.4406 15.6713 19.1514 15.6713 13.8623 15.6713 9.57455 19.959 9.57455 25.2481Z" stroke="#66737C" stroke-width="3.57143" stroke-linecap="round" stroke-linejoin="round" fill="none"/><path d="M1.73893 27.86C1.73893 42.285 13.4327 53.9788 27.8577 53.9788 42.2827 53.9788 53.9764 42.285 53.9764 27.86 53.9764 13.435 42.2827 1.74125 27.8577 1.74125 13.4327 1.74125 1.73893 13.435 1.73893 27.86Z" stroke="#66737C" stroke-width="3.57143" stroke-linecap="round" stroke-linejoin="round" fill="none"/><path d="M34.7948 53.0454C34.2842 44.4068 26.8673 37.8177 18.2287 38.3284 13.9523 38.5811 9.96599 40.5737 7.19717 43.8424" stroke="#66737C" stroke-width="3.57143" stroke-linecap="round" stroke-linejoin="round" fill="none"/><path d="M34.8227 30.4719C34.8227 33.8377 37.5512 36.5662 40.9171 36.5662 44.2829 36.5662 47.0114 33.8377 47.0114 30.4719 47.0114 27.106 44.2829 24.3775 40.9171 24.3775 37.5512 24.3775 34.8227 27.106 34.8227 30.4719Z" stroke="#66737C" stroke-width="3.57143" stroke-linecap="round" stroke-linejoin="round" fill="none"/><path d="M49.3911 42.6444C46.0169 37.9638 39.4873 36.9048 34.8067 40.279 33.3732 41.3124 32.2252 42.6926 31.4702 44.2904" stroke="#66737C" stroke-width="3.57143" stroke-linecap="round" stroke-linejoin="round" fill="none"/></svg>