<svg width="60" height="60" viewBox="-2.14 -2.14 60 60" xmlns="http://www.w3.org/2000/svg" xmlns:xlink="http://www.w3.org/1999/xlink" id="Human-Resources-Employee--Streamline-Ultimate.svg" overflow="hidden"><path d="M26.8524 2.36114C27.1328 1.80465 27.8113 1.58088 28.3678 1.86133 28.5836 1.97011 28.7588 2.14531 28.8676 2.36114L31.2102 7.08341C31.3745 7.41197 31.6893 7.63921 32.0529 7.69168L37.3092 8.45087C37.7279 8.50969 38.0775 8.79997 38.2123 9.20076 38.3445 9.60029 38.2352 10.0402 37.9314 10.3314L34.1285 14.0322C33.8678 14.2837 33.7479 14.6477 33.8081 15.0049L34.7089 20.2217C34.7783 20.6382 34.6033 21.0576 34.2585 21.3013 33.9114 21.5491 33.4545 21.5805 33.0768 21.3825L28.3847 18.9355C28.0566 18.7613 27.6634 18.7613 27.3353 18.9355L22.6548 21.3825C22.2771 21.5805 21.8202 21.5491 21.4731 21.3013 21.1283 21.0576 20.9533 20.6382 21.0227 20.2217L21.9235 15.0049C21.9837 14.6477 21.8638 14.2837 21.6031 14.0322L17.7886 10.3314C17.4848 10.0402 17.3755 9.60029 17.5077 9.20077 17.6425 8.79997 17.9921 8.50969 18.4108 8.45087L23.6671 7.69168C24.0307 7.63921 24.3455 7.41197 24.5098 7.08341Z" stroke="#66737C" stroke-width="3.57143" stroke-linecap="round" stroke-linejoin="round" fill="none"/><path d="M14.6776 23.4488 12.674 22.4041C12.3444 22.2323 11.9518 22.2323 11.6223 22.4041L6.94411 24.8418C6.56576 25.0392 6.10885 25.0088 5.76006 24.7629 5.41529 24.5183 5.24113 24.0978 5.31197 23.681L6.21046 18.4665C6.27209 18.1096 6.15298 17.7453 5.89239 17.4938L2.07557 13.8C1.77357 13.5077 1.66534 13.0685 1.79697 12.6693 1.93176 12.2685 2.28136 11.9783 2.7001 11.9194L7.95403 11.1603C8.31849 11.1085 8.63434 10.8812 8.79912 10.552L11.144 5.82971C11.3351 5.44869 11.7253 5.20861 12.1516 5.20982" stroke="#66737C" stroke-width="3.57143" stroke-linecap="round" stroke-linejoin="round" fill="none"/><path d="M41.0424 23.4488 43.046 22.4018C43.3755 22.23 43.7682 22.23 44.0977 22.4018L48.7759 24.8418C49.1542 25.0392 49.6111 25.0088 49.9599 24.7629 50.3047 24.5183 50.4789 24.0978 50.408 23.681L49.5095 18.4665C49.4479 18.1096 49.567 17.7453 49.8276 17.4938L53.6444 13.7907C53.9464 13.4984 54.0547 13.0592 53.923 12.66 53.7882 12.2593 53.4386 11.969 53.0199 11.9102L47.766 11.151C47.4015 11.0992 47.0857 10.8719 46.9209 10.5427L44.576 5.82971C44.3849 5.44869 43.9947 5.20861 43.5684 5.20982" stroke="#66737C" stroke-width="3.57143" stroke-linecap="round" stroke-linejoin="round" fill="none"/><path d="M39.531 53.9625C33.8929 47.5181 24.098 46.8644 17.6536 52.5025 17.135 52.9562 16.6473 53.4439 16.1936 53.9625" stroke="#66737C" stroke-width="3.57143" stroke-linecap="round" stroke-linejoin="round" fill="none"/><path d="M18.2831 35.6051C18.2831 40.8942 22.5708 45.182 27.86 45.182 33.1492 45.182 37.4369 40.8942 37.4369 35.6051 37.4369 30.3159 33.1492 26.0282 27.86 26.0282 22.5708 26.0282 18.2831 30.3159 18.2831 35.6051Z" stroke="#66737C" stroke-width="3.57143" stroke-linecap="round" stroke-linejoin="round" fill="none"/></svg>