<svg width="60" height="60" viewBox="-1.875 -1.875 60 60" xmlns="http://www.w3.org/2000/svg" xmlns:xlink="http://www.w3.org/1999/xlink" id="Hyperloop--Streamline-Ultimate" fill="none" overflow="hidden"><path d="M19.5703 12.6562C17.6953 9.14062 15.1171 7.03125 12.3046 7.03125 6.44527 7.03125 1.75776 16.4062 1.75776 28.125 1.75776 39.8438 6.44527 49.2188 12.3046 49.2188 13.9453 49.2188 15.5859 48.5156 16.9921 47.1094" stroke="#66737C" stroke-width="3.33333" stroke-linecap="round" stroke-linejoin="round" stroke-miterlimit="10"/><path d="M21.6797 41.0156 49.5703 41.0156C52.3828 41.0156 54.4922 38.6719 54.4922 36.0938 54.4922 34.2188 53.5547 32.5781 51.9141 31.6406L42.7734 26.4844C35.0391 22.0312 26.1328 19.9219 17.2266 19.9219L14.1797 19.9219" stroke="#66737C" stroke-width="3.33333" stroke-linecap="round" stroke-linejoin="round" stroke-miterlimit="10"/><path d="M16.9922 30.2344C17.2511 30.2344 17.461 30.0246 17.461 29.7656 17.461 29.5066 17.2511 29.2969 16.9922 29.2969" stroke="#66737C" stroke-width="3.33333" stroke-linecap="round" stroke-linejoin="round" stroke-miterlimit="10"/><path d="M16.9922 30.2344C16.7333 30.2344 16.5234 30.0246 16.5234 29.7656 16.5234 29.5066 16.7333 29.2969 16.9922 29.2969" stroke="#66737C" stroke-width="3.33333" stroke-linecap="round" stroke-linejoin="round" stroke-miterlimit="10"/><path d="M14.1797 41.0156 9.49216 41.0156" stroke="#66737C" stroke-width="3.33333" stroke-linecap="round" stroke-linejoin="round" stroke-miterlimit="10"/><path d="M7.61719 26.9531 1.77612 26.9531" stroke="#66737C" stroke-width="3.33333" stroke-linecap="round" stroke-linejoin="round" stroke-miterlimit="10"/><path d="M9.49216 33.9844 2.17896 33.9844" stroke="#66737C" stroke-width="3.33333" stroke-linecap="round" stroke-linejoin="round" stroke-miterlimit="10"/><path d="M7.14841 19.9219 2.58178 19.9219" stroke="#66737C" stroke-width="3.33333" stroke-linecap="round" stroke-linejoin="round" stroke-miterlimit="10"/><path d="M22.3828 20.1562C22.6172 26.4844 28.7109 31.6406 36.4453 31.6406L51.963 31.6406" stroke="#66737C" stroke-width="3.33333" stroke-linecap="round" stroke-linejoin="round" stroke-miterlimit="10"/></svg>