<svg width="60" height="60" viewBox="-1.875 -1.875 60 60" xmlns="http://www.w3.org/2000/svg" xmlns:xlink="http://www.w3.org/1999/xlink" id="Idea-Cog--Streamline-Ultimate" fill="none" overflow="hidden"><style>
.MsftOfcResponsive_Stroke_66737c {
 stroke:#66737C; 
}
</style>
<path d="M32.5781 41.1652 32.5781 46.2598C32.5781 48.6035 30.7031 50.7129 28.125 50.7129M28.125 50.7129C25.5469 50.7129 23.6719 48.8379 23.6719 46.2598L23.6719 41.1652M28.125 50.7129 28.125 54.2285M39.8438 30.3223C39.8438 36.7943 34.597 42.041 28.125 42.041 21.6529 42.041 16.4062 36.7943 16.4062 30.3223 16.4062 23.8502 21.6529 18.6035 28.125 18.6035 34.597 18.6035 39.8438 23.8502 39.8438 30.3223Z" class="MsftOfcResponsive_Stroke_66737c" stroke="#66737C" stroke-width="3.33333" stroke-linecap="round" stroke-linejoin="round" stroke-miterlimit="10"/><path d="M42.6091 42.6094C43.7023 41.7895 44.7954 41.243 46.162 41.243L49.4414 41.5163C51.3544 41.7895 52.9941 40.4231 53.8139 38.7832 54.6338 36.8702 54.0874 34.9573 52.7208 33.5909L50.2612 31.4044C49.4414 30.5845 48.8948 29.4914 48.8948 28.125 48.8948 27.0319 49.4414 25.6655 50.2612 24.8456L52.7208 22.6593C54.0874 21.2928 54.6338 19.1065 53.8139 17.4667 52.9941 15.827 51.3544 14.7338 49.4414 14.7338L46.162 15.0071C44.7954 15.0071 43.429 14.4606 42.6091 13.6407 41.7893 12.5475 41.2427 11.4544 41.2427 10.0879L41.516 6.80848C41.7893 4.89546 40.4229 3.2557 38.7832 2.43584 36.87 1.61598 34.957 2.16258 33.5906 3.52903L31.4044 5.98861C30.5845 6.80848 29.4914 7.35506 28.1248 7.35506 26.7584 7.35506 25.6655 6.80848 24.8454 5.98861L22.6592 3.52903C21.2928 2.16258 19.3798 1.61598 17.4667 2.43584 15.827 3.2557 14.4606 4.89546 14.7338 6.80848L15.0071 10.0879C15.0071 11.4544 14.4606 12.5475 13.6407 13.6407 12.8209 14.4606 11.4544 15.0071 10.0879 15.0071L6.8085 14.7338C4.89546 14.7338 3.25573 15.827 2.43586 17.4667 1.61599 19.1065 2.16255 21.2928 3.52898 22.6593L5.98859 24.8456C6.80845 25.6655 7.35502 27.0319 7.35502 28.125 7.35502 29.4914 6.80845 30.5845 5.98859 31.4044L3.52898 33.5909C2.16255 34.9573 1.61599 36.8702 2.43586 38.7832 3.25573 40.4231 4.89546 41.7895 6.8085 41.5163L10.0879 41.243C11.4544 41.243 12.5475 41.7895 13.6407 42.6094" class="MsftOfcResponsive_Stroke_66737c" stroke="#66737C" stroke-width="3.33333" stroke-linecap="round" stroke-linejoin="round" stroke-miterlimit="10"/></svg>