<svg width="60" height="60" viewBox="-2.14 -2.14 60 60" xmlns="http://www.w3.org/2000/svg" xmlns:xlink="http://www.w3.org/1999/xlink" id="Insurance-Hand--Streamline-Ultimate.svg" overflow="hidden"><path d="M1.74125 33.0861 1.74125 53.9811" stroke="#66737C" stroke-width="3.57143" stroke-linecap="round" stroke-linejoin="round" fill="none"/><path d="M1.74125 50.4986 36.5662 50.4986C36.5662 46.6519 33.4479 43.5336 29.6012 43.5336L20.895 43.5336C20.895 39.6869 17.7767 36.5686 13.93 36.5686L1.74125 36.5686" stroke="#66737C" stroke-width="3.57143" stroke-linecap="round" stroke-linejoin="round" fill="none"/><path d="M13.93 43.5336 20.895 43.5336" stroke="#66737C" stroke-width="3.57143" stroke-linecap="round" stroke-linejoin="round" fill="none"/><path d="M53.9787 13.93C53.9787 12.9683 53.1992 12.1888 52.2375 12.1888L43.5312 12.1888 43.5312 3.4825C43.5312 2.52083 42.7517 1.74125 41.79 1.74125L34.825 1.74125C33.8633 1.74125 33.0838 2.52083 33.0838 3.4825L33.0838 12.1888 24.3775 12.1888C23.4158 12.1888 22.6363 12.9683 22.6363 13.93L22.6362 20.895C22.6362 21.8567 23.4158 22.6362 24.3775 22.6362L33.0838 22.6362 33.0838 31.3425C33.0838 32.3042 33.8633 33.0838 34.825 33.0838L41.79 33.0838C42.7517 33.0838 43.5312 32.3042 43.5312 31.3425L43.5312 22.6362 52.2375 22.6362C53.1992 22.6362 53.9787 21.8567 53.9787 20.895Z" stroke="#66737C" stroke-width="3.57143" stroke-linecap="round" stroke-linejoin="round" fill="none"/></svg>