<svg width="60" height="60" viewBox="-1.875 -1.875 60 60" xmlns="http://www.w3.org/2000/svg" xmlns:xlink="http://www.w3.org/1999/xlink" id="Java-1--Streamline-Ultimate" overflow="hidden"><path d="M54.4641 49.2188 54.4641 50.9766C54.4641 52.9182 52.8901 54.4922 50.9484 54.4922L5.24531 54.4922C3.30369 54.4922 1.72969 52.9182 1.72969 50.9766L1.72969 49.2188" stroke="#66737C" stroke-width="3.33333" stroke-linecap="round" stroke-linejoin="round" fill="none"/><path d="M1.72969 17.5781 1.72969 5.28281C1.72969 3.34119 3.30369 1.76719 5.24531 1.76719L50.9484 1.76719C52.8901 1.76719 54.4641 3.34119 54.4641 5.28281L54.4641 17.5781" stroke="#66737C" stroke-width="3.33333" stroke-linecap="round" stroke-linejoin="round" fill="none"/><path d="M10.5188 24.6094 10.5188 38.6719C10.5188 40.6135 8.94475 42.1875 7.00313 42.1875L3.4875 42.1875" stroke="#66737C" stroke-width="3.33333" stroke-linecap="round" stroke-linejoin="round" fill="none"/><path d="M17.55 42.1875 17.55 28.125C17.55 26.1834 19.124 24.6094 21.0656 24.6094 23.0072 24.6094 24.5812 26.1834 24.5812 28.125L24.5812 42.1875" stroke="#66737C" stroke-width="3.33333" stroke-linecap="round" stroke-linejoin="round" fill="none"/><path d="M17.55 35.1656 24.5812 35.1656" stroke="#66737C" stroke-width="3.33333" stroke-linecap="round" stroke-linejoin="round" fill="none"/><path d="M45.675 42.1875 45.675 28.125C45.675 26.1834 47.249 24.6094 49.1906 24.6094 51.1323 24.6094 52.7062 26.1834 52.7062 28.125L52.7062 42.1875" stroke="#66737C" stroke-width="3.33333" stroke-linecap="round" stroke-linejoin="round" fill="none"/><path d="M45.675 35.1656 52.7062 35.1656" stroke="#66737C" stroke-width="3.33333" stroke-linecap="round" stroke-linejoin="round" fill="none"/><path d="M31.6125 24.6094 31.6125 30.5859C31.6134 34.7154 32.8367 38.7522 35.1281 42.1875 37.4203 38.749 38.6436 34.709 38.6437 30.5766L38.6437 24.6094" stroke="#66737C" stroke-width="3.33333" stroke-linecap="round" stroke-linejoin="round" fill="none"/></svg>