<svg width="60" height="60" viewBox="-1.875 -1.875 60 60" xmlns="http://www.w3.org/2000/svg" xmlns:xlink="http://www.w3.org/1999/xlink" id="Job-Choose-Cadidate-1--Streamline-Ultimate" overflow="hidden"><path d="M46.0219 54.4922 46.2562 51.8625C46.5762 48.3408 44.2309 45.1295 40.7789 44.3625L32.2219 42.4617 32.2219 29.0039C32.2219 26.5769 30.2544 24.6094 27.8273 24.6094 25.4003 24.6094 23.4328 26.5769 23.4328 29.0039L23.4328 50.5664 19.9758 47.9813C18.3859 46.7939 16.1345 47.1202 14.9471 48.7101 13.9952 49.9847 13.9948 51.7335 14.9461 53.0086L16.0594 54.4922" stroke="#66737C" stroke-width="3.33333" stroke-linecap="round" stroke-linejoin="round" fill="none"/><path d="M20.8008 7.91016C20.8008 11.308 23.5553 14.0625 26.9531 14.0625 30.351 14.0625 33.1055 11.308 33.1055 7.91016 33.1055 4.51231 30.351 1.75781 26.9531 1.75781 23.5553 1.75781 20.8008 4.51231 20.8008 7.91016Z" stroke="#66737C" stroke-width="3.33333" stroke-linecap="round" stroke-linejoin="round" fill="none"/><path d="M32.3133 17.3789C29.0614 15.3106 24.9099 15.2969 21.6445 17.3438" stroke="#66737C" stroke-width="3.33333" stroke-linecap="round" stroke-linejoin="round" fill="none"/><path d="M4.98047 23.7305C4.98047 27.1283 7.73497 29.8828 11.1328 29.8828 14.5307 29.8828 17.2852 27.1283 17.2852 23.7305 17.2852 20.3326 14.5307 17.5781 11.1328 17.5781 7.73497 17.5781 4.98047 20.3326 4.98047 23.7305Z" stroke="#66737C" stroke-width="3.33333" stroke-linecap="round" stroke-linejoin="round" fill="none"/><path d="M15.5883 32.693C10.7591 30.2777 4.88484 32.1499 2.34375 36.9141" stroke="#66737C" stroke-width="3.33333" stroke-linecap="round" stroke-linejoin="round" fill="none"/><path d="M14.6484 10.5469 11.1328 10.5469" stroke="#66737C" stroke-width="3.33333" stroke-linecap="round" stroke-linejoin="round" fill="none"/><path d="M14.6484 3.51562 11.1328 1.75781" stroke="#66737C" stroke-width="3.33333" stroke-linecap="round" stroke-linejoin="round" fill="none"/><path d="M39.2578 10.5469 42.7734 10.5469" stroke="#66737C" stroke-width="3.33333" stroke-linecap="round" stroke-linejoin="round" fill="none"/><path d="M39.2578 3.51562 42.7734 1.75781" stroke="#66737C" stroke-width="3.33333" stroke-linecap="round" stroke-linejoin="round" fill="none"/><path d="M38.3789 23.7305C38.3789 27.1283 41.1334 29.8828 44.5312 29.8828 47.9291 29.8828 50.6836 27.1283 50.6836 23.7305 50.6836 20.3326 47.9291 17.5781 44.5312 17.5781 41.1334 17.5781 38.3789 20.3326 38.3789 23.7305Z" stroke="#66737C" stroke-width="3.33333" stroke-linecap="round" stroke-linejoin="round" fill="none"/><path d="M40.0781 32.693C44.9067 30.2774 50.7808 32.1484 53.3227 36.9117" stroke="#66737C" stroke-width="3.33333" stroke-linecap="round" stroke-linejoin="round" fill="none"/></svg>