<svg width="60" height="60" viewBox="-1.875 -1.875 60 60" xmlns="http://www.w3.org/2000/svg" xmlns:xlink="http://www.w3.org/1999/xlink" id="Language-Barrier-Question--Streamline-Ultimate" fill="none" overflow="hidden"><path d="M54.4922 29.7797C54.4922 27.6867 54.0799 25.6144 53.2791 23.6808 52.478 21.747 51.3042 19.9901 49.8241 18.5102 48.3443 17.0303 46.5874 15.8563 44.6536 15.0554 42.72 14.2544 40.6477 13.8422 38.5547 13.8422L32.2008 13.8422C27.9738 13.8422 23.9201 15.5213 20.9313 18.5102 17.9424 21.4991 16.2633 25.5527 16.2633 29.7797 16.2633 34.0066 17.9424 38.0604 20.9313 41.0491 23.9201 44.0381 27.9738 45.7172 32.2008 45.7172L34.6734 45.7172 45.3867 52.8914 45.3867 44.1258C48.1059 42.8405 50.4047 40.8103 52.0165 38.2711 53.6283 35.7316 54.4868 32.7874 54.4922 29.7797Z" stroke="#66737C" stroke-width="3.33333" stroke-linecap="round" stroke-linejoin="round"/><path d="M9.86482 30.8367 7.7906 31.9711 7.7906 23.4164C5.62563 22.3931 3.87398 20.6627 2.82441 18.5103 1.77483 16.358 1.48999 13.9122 2.01686 11.5763 2.54372 9.24037 3.85083 7.15369 5.72269 5.66025 7.59455 4.16684 9.91943 3.35583 12.314 3.36094L18.3445 3.36094C19.9319 3.36087 21.4989 3.71913 22.9286 4.40902 24.3584 5.0989 25.6139 6.10261 26.6016 7.34531" stroke="#66737C" stroke-width="3.33333" stroke-linecap="round" stroke-linejoin="round"/><path d="M31.9758 24.8438C31.9758 24.1123 32.1928 23.3972 32.599 22.789 33.0054 22.1808 33.5831 21.7068 34.2588 21.4268 34.9348 21.1469 35.6784 21.0737 36.3959 21.2164 37.1133 21.3591 37.7721 21.7113 38.2894 22.2286 38.8066 22.7458 39.1589 23.4048 39.3016 24.1223 39.4444 24.8398 39.371 25.5832 39.0912 26.2591 38.8113 26.9348 38.3372 27.5126 37.729 27.919 37.1208 28.3254 36.4057 28.5422 35.6742 28.5422L35.6742 31.0664" stroke="#66737C" stroke-width="3.33333" stroke-linecap="round" stroke-linejoin="round"/><path d="M35.4117 37.7391C34.9263 37.7391 34.5328 37.3455 34.5328 36.8602 34.5328 36.3748 34.9263 35.9813 35.4117 35.9813" stroke="#66737C" stroke-width="3.33333"/><path d="M35.4117 37.7391C35.8971 37.7391 36.2906 37.3455 36.2906 36.8602 36.2906 36.3748 35.8971 35.9813 35.4117 35.9813" stroke="#66737C" stroke-width="3.33333"/></svg>