<svg width="60" height="60" viewBox="-2.14 -2.14 60 60" xmlns="http://www.w3.org/2000/svg" xmlns:xlink="http://www.w3.org/1999/xlink" id="Light-Bulb-Shine--Streamline-Ultimate.svg" overflow="hidden"><path d="M24.3775 52.2375 31.3425 52.2375" stroke="#66737C" stroke-width="3.57143" stroke-linecap="round" stroke-linejoin="round" fill="none"/><path d="M41.79 27.86C41.8175 20.1667 35.6032 13.9078 27.9099 13.8803 20.2166 13.8527 13.9577 20.0671 13.9302 27.7603 13.9074 34.1309 18.2092 39.7051 24.3775 41.2978L24.3775 45.2725 31.3425 45.2725 31.3425 41.2978C37.4816 39.7246 41.7788 34.1974 41.79 27.86Z" stroke="#66737C" stroke-width="3.57143" stroke-linecap="round" stroke-linejoin="round" fill="none"/><path d="M27.86 6.965 27.86 3.4825" stroke="#66737C" stroke-width="3.57143" stroke-linecap="round" stroke-linejoin="round" fill="none"/><path d="M48.755 24.3775 52.2375 24.3775" stroke="#66737C" stroke-width="3.57143" stroke-linecap="round" stroke-linejoin="round" fill="none"/><path d="M3.4825 27.86 6.965 27.86" stroke="#66737C" stroke-width="3.57143" stroke-linecap="round" stroke-linejoin="round" fill="none"/><path d="M42.6351 40.8938 45.0984 43.3571" stroke="#66737C" stroke-width="3.57143" stroke-linecap="round" stroke-linejoin="round" fill="none"/><path d="M10.6216 8.88037 13.0849 11.3437" stroke="#66737C" stroke-width="3.57143" stroke-linecap="round" stroke-linejoin="round" fill="none"/><path d="M42.6351 11.3437 45.0984 8.88037" stroke="#66737C" stroke-width="3.57143" stroke-linecap="round" stroke-linejoin="round" fill="none"/><path d="M10.6216 43.3571 13.0849 40.8938" stroke="#66737C" stroke-width="3.57143" stroke-linecap="round" stroke-linejoin="round" fill="none"/></svg>