<svg width="60" height="60" viewBox="-2.14 -2.14 60 60" xmlns="http://www.w3.org/2000/svg" xmlns:xlink="http://www.w3.org/1999/xlink" id="Light-Bulb-1--Streamline-Ultimate.svg" overflow="hidden"><path d="M33.0838 48.755C33.0838 51.64 30.745 53.9788 27.86 53.9788 24.975 53.9788 22.6363 51.64 22.6363 48.755L22.6362 40.0488 33.0838 40.0488Z" stroke="#66737C" stroke-width="3.57143" stroke-linecap="round" stroke-linejoin="round" fill="none"/><path d="M33.0838 40.0488C41.4033 37.3798 47.038 29.6322 47.0138 20.895 47.0138 10.3167 38.4383 1.74125 27.86 1.74125 17.2817 1.74125 8.70625 10.3167 8.70625 20.895 8.68205 29.6322 14.3167 37.3798 22.6363 40.0488" stroke="#66737C" stroke-width="3.57143" stroke-linecap="round" stroke-linejoin="round" fill="none"/><path d="M24.3775 22.6362 20.895 22.6362C18.9717 22.6362 17.4125 21.0771 17.4125 19.1537 17.4125 17.2304 18.9717 15.6712 20.895 15.6712 22.8183 15.6712 24.3775 17.2304 24.3775 19.1537Z" stroke="#66737C" stroke-width="3.57143" stroke-linecap="round" stroke-linejoin="round" fill="none"/><path d="M31.3425 22.6362 34.825 22.6362C36.7483 22.6362 38.3075 21.0771 38.3075 19.1537 38.3075 17.2304 36.7483 15.6712 34.825 15.6712 32.9017 15.6712 31.3425 17.2304 31.3425 19.1537Z" stroke="#66737C" stroke-width="3.57143" stroke-linecap="round" stroke-linejoin="round" fill="none"/><path d="M24.3775 40.0488 24.3775 22.6362 31.3425 22.6362 31.3425 40.0488" stroke="#66737C" stroke-width="3.57143" stroke-linecap="round" stroke-linejoin="round" fill="none"/><path d="M22.6362 47.0137 33.0838 47.0137" stroke="#66737C" stroke-width="3.57143" stroke-linecap="round" stroke-linejoin="round" fill="none"/></svg>