<svg width="60" height="60" viewBox="-2.14 -2.14 60 60" xmlns="http://www.w3.org/2000/svg" xmlns:xlink="http://www.w3.org/1999/xlink" id="Like-2--Streamline-Ultimate.svg" fill="none" overflow="hidden"><path d="M1.79055 18.532 6.33499 18.532C6.9376 18.532 7.51556 18.7714 7.94168 19.1975 8.3678 19.6237 8.60721 20.2016 8.60721 20.8042L8.60721 48.0708C8.60721 48.6735 8.3678 49.2514 7.94168 49.6776 7.51556 50.1037 6.9376 50.343 6.33499 50.343L1.79055 50.343" stroke="#66737C" stroke-width="3.57143" stroke-linecap="round" stroke-linejoin="round"/><path d="M8.60721 44.3246C17.9233 49.627 24.4694 52.2556 38.7482 52.2556 47.3587 52.2556 54.9945 35.0128 53.8072 26.4935 53.4011 23.5791 52.4748 21.6177 49.5072 21.6024L38.3732 21.6024C35.4398 21.6026 33.2307 18.7355 33.9788 15.8991L35.9828 8.30082C37.0584 4.21023 31.4556 1.61383 29.0299 5.07881L17.9233 20.8139C17.5037 21.4086 16.9475 21.8937 16.3014 22.2287 15.6553 22.5636 14.9382 22.7384 14.2105 22.7385L8.60721 22.7385" stroke="#66737C" stroke-width="3.57143" stroke-linecap="round" stroke-linejoin="round"/></svg>