<svg width="60" height="60" viewBox="-1.875 -1.875 60 60" xmlns="http://www.w3.org/2000/svg" xmlns:xlink="http://www.w3.org/1999/xlink" id="Love-Compatibility-1--Streamline-Ultimate" fill="none" overflow="hidden"><path d="M27.8159 24.702 21.4418 24.702C21.914 25.4102 22.1501 26.1183 22.1501 26.8266 22.1501 28.9512 20.2615 30.6038 17.9007 30.6038 15.54 30.6038 13.6514 28.9512 13.6514 26.8266 13.6514 26.1183 13.8874 25.174 14.3596 24.702L3.26409 24.702C1.37549 21.1608 1.13942 16.6754 3.26409 12.6621 5.62484 7.94065 10.3463 5.34382 15.0678 5.34382 18.3729 5.34382 21.6779 6.5242 24.2747 9.12101L27.8159 12.6621 27.8159 24.702Z" stroke="#66737C" stroke-width="3.33333" stroke-linecap="round" stroke-linejoin="round" stroke-miterlimit="10"/><path d="M37.7309 24.702C37.0228 23.9937 36.5505 22.8133 36.5505 21.869 36.5505 19.5082 38.4391 17.6197 40.8 17.6197 43.1606 17.6197 45.0492 19.5082 45.0492 21.869 45.0492 23.0494 44.5772 23.9937 43.8689 24.702L53.0759 24.702M53.0759 24.702C52.6036 25.8823 51.6593 26.8266 50.715 27.7709L28.5241 50.9062M53.0759 24.702C54.0202 22.8133 54.4922 20.6886 54.4922 18.564 54.4922 16.4393 54.0202 14.5507 53.0759 12.6621 49.5347 5.3438 39.8557 3.21912 33.4816 8.17669M28.5241 50.9062 28.5241 37.6861C29.2322 38.3941 30.4127 38.8664 31.357 38.8664 33.7177 38.8664 35.6063 36.9778 35.6063 34.617 35.6063 32.2563 33.7177 30.3677 31.357 30.3677 30.1765 30.3677 29.2322 30.8398 28.5241 31.548M28.5241 50.9062 15.5399 37.4498" stroke="#66737C" stroke-width="3.33333" stroke-linecap="round" stroke-linejoin="round" stroke-miterlimit="10"/></svg>