<svg width="60" height="60" viewBox="-1.875 -1.875 60 60" xmlns="http://www.w3.org/2000/svg" xmlns:xlink="http://www.w3.org/1999/xlink" id="Maintenance-Wrench--Streamline-Ultimate" fill="none" overflow="hidden"><path d="M13.044 26.9686C13.7471 26.2655 14.2159 25.0936 14.2159 24.1561 14.2159 22.9843 13.7471 22.0468 13.044 21.3437L10.9347 19.4687C9.7628 18.2968 9.29407 16.6562 9.9972 15.0156 10.7003 13.6093 12.1066 12.4374 13.7472 12.6718L16.5596 12.9062C17.7315 12.9062 18.6691 12.4374 19.6066 11.7343 20.3097 11.0312 20.7784 9.85931 20.7784 8.68744L20.5441 5.87494C20.5441 4.23431 21.4816 2.82806 22.8878 2.12493 24.2941 1.42181 26.1691 1.89058 27.341 3.06246L29.2158 5.17181C29.9189 5.87494 31.091 6.34369 32.0285 6.34369 33.2004 6.34369 34.1379 5.87494 34.841 5.17181L36.716 3.06246C37.8879 1.89058 39.5285 1.42181 41.1691 2.12493 42.5754 2.82806 43.7473 4.23431 43.5129 5.87494L43.2783 8.68744C43.2783 9.85931 43.747 10.7968 44.4502 11.7343 45.1533 12.4374 46.3254 12.9062 47.4973 12.9062L50.3095 12.6718C51.9502 12.6718 53.3566 13.6093 54.0598 15.0156 54.7629 16.4218 54.2941 18.2968 53.1223 19.4687L51.0129 21.3437C50.3098 22.0468 49.841 23.2187 49.841 24.1561 49.841 25.328 50.3098 26.2655 51.0129 26.9686L53.1223 28.8436C54.2941 30.0155 54.7629 31.6563 54.0598 33.297 53.3566 34.7032 51.9502 35.8751 50.3095 35.6407L47.4973 35.4063C46.3254 35.4063 45.3877 35.8751 44.4502 36.5782 43.747 37.2813 43.2783 38.453 43.2783 39.6248L43.5129 42.4373C43.5129 44.078 42.5754 45.4845 41.1691 46.1876 39.7629 46.8907 37.8879 46.4217 36.716 45.2498L34.841 43.1405C34.1379 42.4373 32.966 41.9686 32.0285 41.9686 30.8566 41.9686 29.9189 42.4373 29.2158 43.1405L27.341 45.2498" stroke="#66737C" stroke-width="3.33333" stroke-linecap="round" stroke-linejoin="round" stroke-miterlimit="10"/><path d="M36.0131 25.3282 40.5352 20.8061C41.831 24.0548 41.3426 28.2016 38.5913 30.9532 36.0131 33.5313 32.2631 34.2345 28.9819 33.0626L19.8412 42.2032C21.013 45.4845 20.3099 49.2345 17.7318 51.8126 14.9641 54.5801 11.0616 55.0784 7.58777 53.7534L12.1067 49.2345C13.513 47.8282 13.513 45.7188 12.1067 44.3126 10.7005 42.9063 8.59116 42.9063 7.18491 44.3126L2.6584 48.8391C1.11302 45.3633 1.83712 41.4572 4.60678 38.6876 7.18491 36.1095 10.9349 35.4063 14.2162 36.5782L23.3568 27.4376C22.1849 24.1563 22.888 20.4063 25.4662 17.8282 28.2188 15.0755 32.1504 14.5893 35.61 15.8873L31.091 20.4063C29.6848 21.8125 29.6848 23.922 31.091 25.3282 32.4973 26.7345 34.6069 26.7345 36.0131 25.3282Z" stroke="#66737C" stroke-width="3.33333" stroke-linecap="round" stroke-linejoin="round" stroke-miterlimit="10"/></svg>