<svg width="60" height="60" viewBox="-1.875 -1.875 60 60" xmlns="http://www.w3.org/2000/svg" xmlns:xlink="http://www.w3.org/1999/xlink" id="Maps-Pin-1--Streamline-Ultimate" fill="none" overflow="hidden"><path d="M54.4922 21.0938 54.4922 10.8985C54.4924 10.1957 54.2817 9.50902 53.888 8.92706 53.494 8.34511 52.9345 7.89457 52.282 7.63362L38.2195 2.00861C37.3814 1.67345 36.4467 1.67345 35.6086 2.00861L20.6414 7.9969C19.8034 8.33206 18.8685 8.33206 18.0305 7.9969L4.16955 2.45159C3.90211 2.34438 3.61242 2.30459 3.32599 2.33567 3.03954 2.36677 2.76513 2.46778 2.52691 2.62983 2.2887 2.79187 2.09396 3.01001 1.95985 3.26503 1.82574 3.52003 1.75636 3.80409 1.75784 4.09221L1.75784 37.7789C1.75772 38.4818 1.96822 39.1683 2.36217 39.7502 2.75613 40.3322 3.31547 40.7829 3.96799 41.0438L18.0305 46.6688C18.8685 47.0039 19.8034 47.0039 20.6414 46.6688L27.3937 43.9664" stroke="#66737C" stroke-width="3.57143" stroke-linecap="round" stroke-linejoin="round"/><path d="M19.3359 8.24766 19.3359 46.9195" stroke="#66737C" stroke-width="3.57143" stroke-linecap="round" stroke-linejoin="round"/><path d="M36.9141 1.75781 36.9141 19.3359" stroke="#66737C" stroke-width="3.57143" stroke-linecap="round" stroke-linejoin="round"/><path d="M43.9453 26.5406C46.7426 26.5406 49.4252 27.6518 51.4031 29.6297 53.381 31.6076 54.4922 34.2902 54.4922 37.0875 54.4922 41.5898 48.1922 50.1562 45.3305 53.8172 45.1662 54.0277 44.9559 54.1978 44.7159 54.3148 44.4759 54.432 44.2123 54.4927 43.9453 54.4927 43.6784 54.4927 43.4147 54.432 43.1747 54.3148 42.9347 54.1978 42.7245 54.0277 42.5602 53.8172 39.6984 50.1586 33.3984 41.5898 33.3984 37.0875 33.3984 34.2902 34.5096 31.6076 36.4875 29.6297 38.4654 27.6518 41.148 26.5406 43.9453 26.5406Z" stroke="#66737C" stroke-width="3.57143" stroke-linecap="round" stroke-linejoin="round"/><path d="M43.9453 37.9688C43.4599 37.9688 43.0664 37.5752 43.0664 37.0898 43.0664 36.6045 43.4599 36.2109 43.9453 36.2109" stroke="#66737C" stroke-width="3.57143"/><path d="M43.9453 37.9688C44.4307 37.9688 44.8242 37.5752 44.8242 37.0898 44.8242 36.6045 44.4307 36.2109 43.9453 36.2109" stroke="#66737C" stroke-width="3.57143"/></svg>