<svg width="60" height="60" viewBox="-1.875 -1.875 60 60" xmlns="http://www.w3.org/2000/svg" xmlns:xlink="http://www.w3.org/1999/xlink" id="Measure-Caliber--Streamline-Ultimate" overflow="hidden"><defs></defs><path d="M2.78746 35.8844 35.885 2.78682C35.885 2.78682 38.3709 0.300901 40.8569 2.78682L53.4638 15.3938C53.4638 15.3938 55.9497 17.8797 53.4638 20.3656L20.3662 53.4632C20.3662 53.4632 17.8803 55.9491 15.3944 53.4632L2.78746 40.8562C2.78746 40.8562 0.301533 38.3703 2.78746 35.8844" stroke="#66737C" stroke-width="3.33333" stroke-linecap="round" stroke-linejoin="round" fill="none"/><path d="M31.6406 19.3359C31.6406 22.2484 34.0016 24.6094 36.9141 24.6094 39.8265 24.6094 42.1875 22.2484 42.1875 19.3359 42.1875 16.4235 39.8265 14.0625 36.9141 14.0625 34.0016 14.0625 31.6406 16.4235 31.6406 19.3359" stroke="#66737C" stroke-width="3.33333" stroke-linecap="round" stroke-linejoin="round" fill="none"/><path d="M14.0625 36.9141C14.0625 39.8265 16.4235 42.1875 19.3359 42.1875 22.2484 42.1875 24.6094 39.8265 24.6094 36.9141 24.6094 34.0016 22.2484 31.6406 19.3359 31.6406 16.4235 31.6406 14.0625 34.0016 14.0625 36.9141" stroke="#66737C" stroke-width="3.33333" stroke-linecap="round" stroke-linejoin="round" fill="none"/></svg>