<svg width="60" height="60" viewBox="-1.875 -1.875 60 60" xmlns="http://www.w3.org/2000/svg" xmlns:xlink="http://www.w3.org/1999/xlink" id="Measure-Ruler-Corner--Streamline-Ultimate" overflow="hidden"><path d="M1.75781 12.3047 1.75781 22.8516C1.75781 24.7932 3.33181 26.3672 5.27344 26.3672L40.4297 26.3672 40.4297 43.9453C40.4297 45.8869 42.0037 47.4609 43.9453 47.4609L50.9766 47.4609C52.9182 47.4609 54.4922 45.8869 54.4922 43.9453L54.4922 8.78906 5.27344 8.78906C3.33181 8.78906 1.75781 10.3631 1.75781 12.3047Z" stroke="#66737C" stroke-width="3.33333" stroke-linecap="round" stroke-linejoin="round" fill="none"/><path d="M40.4297 26.3672 54.4922 8.78906" stroke="#66737C" stroke-width="3.33333" stroke-linecap="round" stroke-linejoin="round" fill="none"/><path d="M8.78906 21.0938 8.78906 26.3672" stroke="#66737C" stroke-width="3.33333" stroke-linecap="round" stroke-linejoin="round" fill="none"/><path d="M19.3359 21.0938 19.3359 26.3672" stroke="#66737C" stroke-width="3.33333" stroke-linecap="round" stroke-linejoin="round" fill="none"/><path d="M29.8828 21.0938 29.8828 26.3672" stroke="#66737C" stroke-width="3.33333" stroke-linecap="round" stroke-linejoin="round" fill="none"/><path d="M14.0625 8.78906 14.0625 14.0625" stroke="#66737C" stroke-width="3.33333" stroke-linecap="round" stroke-linejoin="round" fill="none"/><path d="M24.6094 8.78906 24.6094 14.0625" stroke="#66737C" stroke-width="3.33333" stroke-linecap="round" stroke-linejoin="round" fill="none"/><path d="M35.1562 8.78906 35.1562 14.0625" stroke="#66737C" stroke-width="3.33333" stroke-linecap="round" stroke-linejoin="round" fill="none"/></svg>