<svg width="60" height="60" viewBox="-1.875 -1.875 60 60" xmlns="http://www.w3.org/2000/svg" xmlns:xlink="http://www.w3.org/1999/xlink" id="Medicine-Drug-Bottle-Search--Streamline-Ultimate" fill="none" overflow="hidden"><path d="M38.5659 52.2129C45.9877 52.2129 52.0038 46.1965 52.0038 38.775 52.0038 31.3533 45.9877 25.3369 38.5659 25.3369 31.1445 25.3369 25.128 31.3533 25.128 38.775 25.128 46.1965 31.1445 52.2129 38.5659 52.2129Z" stroke="#66737C" stroke-width="3.33333" stroke-linecap="round" stroke-linejoin="round"/><path d="M48.0642 48.2709 54.2459 54.4523" stroke="#66737C" stroke-width="3.33333" stroke-linecap="round" stroke-linejoin="round"/><path d="M38.145 33.3675C38.925 32.6299 39.9621 32.2259 41.0355 32.2409 42.109 32.2561 43.1341 32.6892 43.8933 33.4484 44.6522 34.2073 45.0853 35.2327 45.1005 36.3059 45.1155 37.3793 44.7115 38.4164 43.9741 39.1964L39.0061 44.1645C38.2303 44.907 37.1953 45.3176 36.1214 45.3089 35.0475 45.3002 34.0195 44.873 33.2557 44.1178 32.4921 43.3629 32.0531 42.3396 32.0323 41.2659 32.0114 40.1923 32.4101 39.1526 33.1439 38.3686L38.145 33.3675Z" stroke="#66737C" stroke-width="3.33333" stroke-linecap="round" stroke-linejoin="round"/><path d="M35.8929 35.6198 41.722 41.449" stroke="#66737C" stroke-width="3.33333" stroke-linecap="round" stroke-linejoin="round"/><path d="M23.8767 52.2127 8.6223 52.2127C7.7445 52.2127 6.90265 51.8641 6.28193 51.2433 5.66123 50.6227 5.31253 49.7808 5.31253 48.903L5.31253 12.4953 31.7909 12.4953 31.7909 20.3794" stroke="#66737C" stroke-width="3.33333" stroke-linecap="round" stroke-linejoin="round"/><path d="M3.65517 12.4955 33.4432 12.4955C33.8822 12.4955 34.3031 12.3211 34.6134 12.0108 34.9238 11.7004 35.0981 11.2795 35.0981 10.8406L35.0981 5.87592C35.0981 4.99809 34.7494 4.15624 34.1287 3.53555 33.5081 2.91483 32.6662 2.56612 31.7883 2.56612L5.31007 2.56612C4.43227 2.56612 3.59041 2.91483 2.9697 3.53555 2.349 4.15624 2.00029 4.99809 2.00029 5.87592L2.00029 10.8406C2.00029 11.2795 2.17464 11.7004 2.48498 12.0108 2.79534 12.3211 3.21628 12.4955 3.65517 12.4955Z" stroke="#66737C" stroke-width="3.33333" stroke-linecap="round" stroke-linejoin="round"/><path d="M5.31075 25.7344 17.6053 25.7344 17.6053 42.2834 5.31075 42.2834 5.31075 25.7344Z" stroke="#66737C" stroke-width="3.33333" stroke-linecap="round" stroke-linejoin="round"/></svg>