<svg width="60" height="60" viewBox="-1.875 -1.875 60 60" xmlns="http://www.w3.org/2000/svg" xmlns:xlink="http://www.w3.org/1999/xlink" id="Medical-Specialty-Virus--Streamline-Ultimate" overflow="hidden"><defs></defs><path d="M9.375 28.125C9.375 38.4803 17.7697 46.875 28.125 46.875 38.4803 46.875 46.875 38.4803 46.875 28.125 46.875 17.7697 38.4803 9.375 28.125 9.375 17.7697 9.375 9.375 17.7697 9.375 28.125" stroke="#66737C" stroke-width="3.33333" stroke-linecap="round" stroke-linejoin="round" fill="none"/><path d="M28.125 2.34375 28.125 9.375" stroke="#66737C" stroke-width="3.33333" stroke-linecap="round" stroke-linejoin="round" fill="none"/><path d="M23.4375 2.34375 32.8125 2.34375" stroke="#66737C" stroke-width="3.33333" stroke-linecap="round" stroke-linejoin="round" fill="none"/><path d="M46.3547 9.89531 41.3836 14.8664" stroke="#66737C" stroke-width="3.33333" stroke-linecap="round" stroke-linejoin="round" fill="none"/><path d="M43.0406 6.58125 49.6688 13.2094" stroke="#66737C" stroke-width="3.33333" stroke-linecap="round" stroke-linejoin="round" fill="none"/><path d="M53.9062 28.125 46.875 28.125" stroke="#66737C" stroke-width="3.33333" stroke-linecap="round" stroke-linejoin="round" fill="none"/><path d="M53.9062 23.4375 53.9062 32.8125" stroke="#66737C" stroke-width="3.33333" stroke-linecap="round" stroke-linejoin="round" fill="none"/><path d="M46.3547 46.3547 41.3836 41.3836" stroke="#66737C" stroke-width="3.33333" stroke-linecap="round" stroke-linejoin="round" fill="none"/><path d="M49.6688 43.0406 43.0406 49.6688" stroke="#66737C" stroke-width="3.33333" stroke-linecap="round" stroke-linejoin="round" fill="none"/><path d="M28.125 53.9062 28.125 46.875" stroke="#66737C" stroke-width="3.33333" stroke-linecap="round" stroke-linejoin="round" fill="none"/><path d="M32.8125 53.9062 23.4375 53.9062" stroke="#66737C" stroke-width="3.33333" stroke-linecap="round" stroke-linejoin="round" fill="none"/><path d="M9.89531 46.3547 14.8664 41.3836" stroke="#66737C" stroke-width="3.33333" stroke-linecap="round" stroke-linejoin="round" fill="none"/><path d="M13.2094 49.6688 6.58125 43.0406" stroke="#66737C" stroke-width="3.33333" stroke-linecap="round" stroke-linejoin="round" fill="none"/><path d="M2.34375 28.125 9.375 28.125" stroke="#66737C" stroke-width="3.33333" stroke-linecap="round" stroke-linejoin="round" fill="none"/><path d="M2.34375 32.8125 2.34375 23.4375" stroke="#66737C" stroke-width="3.33333" stroke-linecap="round" stroke-linejoin="round" fill="none"/><path d="M9.89531 9.89531 14.8664 14.8664" stroke="#66737C" stroke-width="3.33333" stroke-linecap="round" stroke-linejoin="round" fill="none"/><path d="M6.58125 13.2094 13.2094 6.58125" stroke="#66737C" stroke-width="3.33333" stroke-linecap="round" stroke-linejoin="round" fill="none"/><path d="M23.7352 16.0945C22.5633 19.3758 24.7687 23.7164 31.2352 21.5625 37.7016 19.4086 40.1414 26.0836 36.7453 28.7109" stroke="#66737C" stroke-width="3.33333" stroke-linecap="round" stroke-linejoin="round" fill="none"/><path d="M18.3797 34.6336C15.4289 29.4773 24.5016 24.9352 25.4906 33.4617 26.1211 38.9062 31.8188 38.4234 32.5805 35.0461" stroke="#66737C" stroke-width="3.33333" stroke-linecap="round" stroke-linejoin="round" fill="none"/></svg>