<svg width="60" height="60" viewBox="-1.875 -1.875 60 60" xmlns="http://www.w3.org/2000/svg" xmlns:xlink="http://www.w3.org/1999/xlink" id="Meeting-Remote--Streamline-Ultimate" overflow="hidden"><defs></defs><path d="M35.1562 26.393 21.0938 26.393C21.0938 22.5097 24.2417 19.3617 28.125 19.3617L28.125 19.3617C32.0083 19.3617 35.1562 22.5097 35.1562 26.393Z" stroke="#66737C" stroke-width="3.33333" stroke-linecap="round" stroke-linejoin="round" fill="none"/><path d="M22.8516 14.0883C22.8516 17.0007 25.2126 19.3617 28.125 19.3617 31.0374 19.3617 33.3984 17.0007 33.3984 14.0883 33.3984 11.1758 31.0374 8.81484 28.125 8.81484 25.2126 8.81484 22.8516 11.1758 22.8516 14.0883" stroke="#66737C" stroke-width="3.33333" stroke-linecap="round" stroke-linejoin="round" fill="none"/><path d="M15.8203 1.78359 40.4297 1.78359C40.4297 1.78359 47.4609 1.78359 47.4609 8.81484L47.4609 19.3617C47.4609 19.3617 47.4609 26.393 40.4297 26.393L15.8203 26.393C15.8203 26.393 8.78906 26.393 8.78906 19.3617L8.78906 8.81484C8.78906 8.81484 8.78906 1.78359 15.8203 1.78359" stroke="#66737C" stroke-width="3.33333" stroke-linecap="round" stroke-linejoin="round" fill="none"/><path d="M5.27344 42.2133C5.27344 45.1257 7.63444 47.4867 10.5469 47.4867 13.4593 47.4867 15.8203 45.1257 15.8203 42.2133 15.8203 39.3008 13.4593 36.9398 10.5469 36.9398 7.63444 36.9398 5.27344 39.3008 5.27344 42.2133" stroke="#66737C" stroke-width="3.33333" stroke-linecap="round" stroke-linejoin="round" fill="none"/><path d="M19.3359 54.518C16.7471 49.6639 10.7134 47.8276 5.85938 50.4164 4.11557 51.3464 2.68784 52.7742 1.75781 54.518" stroke="#66737C" stroke-width="3.33333" stroke-linecap="round" stroke-linejoin="round" fill="none"/><path d="M40.4297 42.2133C40.4297 45.1257 42.7907 47.4867 45.7031 47.4867 48.6156 47.4867 50.9766 45.1257 50.9766 42.2133 50.9766 39.3008 48.6156 36.9398 45.7031 36.9398 42.7907 36.9398 40.4297 39.3008 40.4297 42.2133" stroke="#66737C" stroke-width="3.33333" stroke-linecap="round" stroke-linejoin="round" fill="none"/><path d="M54.4922 54.518C51.9034 49.6639 45.8697 47.8276 41.0156 50.4164 39.2718 51.3464 37.8441 52.7742 36.9141 54.518" stroke="#66737C" stroke-width="3.33333" stroke-linecap="round" stroke-linejoin="round" fill="none"/><path d="M22.8516 42.2133C22.8516 45.1257 25.2126 47.4867 28.125 47.4867 31.0374 47.4867 33.3984 45.1257 33.3984 42.2133 33.3984 39.3008 31.0374 36.9398 28.125 36.9398 25.2126 36.9398 22.8516 39.3008 22.8516 42.2133" stroke="#66737C" stroke-width="3.33333" stroke-linecap="round" stroke-linejoin="round" fill="none"/><path d="M36.9141 54.518C34.3252 49.6639 28.2916 47.8276 23.4375 50.4164 21.6937 51.3464 20.266 52.7742 19.3359 54.518" stroke="#66737C" stroke-width="3.33333" stroke-linecap="round" stroke-linejoin="round" fill="none"/></svg>