<svg width="60" height="60" viewBox="-2.14 -2.14 60 60" xmlns="http://www.w3.org/2000/svg" xmlns:xlink="http://www.w3.org/1999/xlink" id="Messages-Bubble-Double--Streamline-Ultimate.svg" overflow="hidden"><path d="M53.9787 31.3425C53.9787 24.6108 48.5217 19.1538 41.79 19.1538L34.825 19.1537C28.0933 19.1537 22.6363 24.6108 22.6363 31.3425 22.6363 38.0742 28.0933 43.5312 34.825 43.5312L36.5662 43.5312 47.0137 53.9787 47.0137 42.3147C51.2585 40.3081 53.9694 36.0376 53.9787 31.3425Z" stroke="#66737C" stroke-width="3.57143" stroke-linecap="round" stroke-linejoin="round" fill="none"/><path d="M15.6713 29.6012 8.70625 36.5662 8.70625 24.9022C2.63235 22.0328 0.0345696 14.7829 2.90394 8.70897 4.91804 4.44553 9.21478 1.73028 13.93 1.74125L20.895 1.74125C26.2856 1.74191 31.036 5.28208 32.5776 10.4475" stroke="#66737C" stroke-width="3.57143" stroke-linecap="round" stroke-linejoin="round" fill="none"/></svg>