<svg width="60" height="60" viewBox="-1.875 -1.875 60 60" xmlns="http://www.w3.org/2000/svg" xmlns:xlink="http://www.w3.org/1999/xlink" id="Messages-Bubble-Smile--Streamline-Ultimate" overflow="hidden"><path d="M29.8828 1.75781C16.3109 1.73824 5.29276 12.7246 5.27319 26.2966 5.26655 30.8983 6.55215 35.4095 8.98359 39.3164L1.75781 54.4922 16.9312 47.2641C28.4723 54.4425 43.6474 50.9059 50.8259 39.3648 58.0043 27.8238 54.4677 12.6487 42.9266 5.47023 39.0122 3.03549 34.4926 1.74917 29.8828 1.75781Z" stroke="#66737C" stroke-width="3.33333" stroke-linecap="round" stroke-linejoin="round" fill="none"/><path d="M24.3422 22.2656C23.0682 19.6697 19.9309 18.598 17.335 19.872 16.2941 20.3829 15.4522 21.2248 14.9414 22.2656" stroke="#66737C" stroke-width="3.33333" stroke-linecap="round" stroke-linejoin="round" fill="none"/><path d="M45.4219 22.2656C44.1479 19.6697 41.0106 18.598 38.4147 19.872 37.3738 20.3829 36.5319 21.2248 36.0211 22.2656" stroke="#66737C" stroke-width="3.33333" stroke-linecap="round" stroke-linejoin="round" fill="none"/><path d="M21.1078 35.1562C26.2489 39.8439 34.1144 39.8439 39.2555 35.1562" stroke="#66737C" stroke-width="3.33333" stroke-linecap="round" stroke-linejoin="round" fill="none"/></svg>