<svg width="60" height="60" viewBox="-1.875 -1.875 60 60" xmlns="http://www.w3.org/2000/svg" xmlns:xlink="http://www.w3.org/1999/xlink" id="Microscope-2--Streamline-Ultimate" fill="none" overflow="hidden"><path d="M24.364 47.2526 11.6186 47.2526C9.02972 47.2526 6.93105 49.3514 6.93105 51.9401L6.93105 54.1366 24.364 54.1366 24.364 47.2526Z" stroke="#66737C" stroke-width="3.33333" stroke-linejoin="round"/><path d="M47.8643 51.9401C47.8643 49.3514 45.7657 47.2526 43.1768 47.2526L39.4214 47.2526 39.4214 54.1366 47.8643 54.1366 47.8643 51.9401Z" stroke="#66737C" stroke-width="3.33333" stroke-linejoin="round"/><path d="M22.2559 31.6308 22.2559 25.617 15.1579 25.617 15.1579 31.6308 22.2559 31.6308Z" stroke="#66737C" stroke-width="3.33333" stroke-linejoin="round"/><path d="M25.5649 25.617 25.5649 8.14228 12.1388 8.14228 12.1388 25.617 25.5649 25.617Z" stroke="#66737C" stroke-width="3.33333" stroke-linejoin="round"/><path d="M15.4455 2.09084 22.2559 2.09084" stroke="#66737C" stroke-width="3.33333" stroke-linecap="round"/><path d="M6.93113 40.463 26.37 40.463" stroke="#66737C" stroke-width="3.33333" stroke-linecap="round"/><path d="M25.5645 12.5565 31.893 12.5565C41.4853 12.5565 49.2616 20.3326 49.2616 29.925 49.2616 36.8203 45.2433 42.7774 39.4207 45.582" stroke="#66737C" stroke-width="3.33333" stroke-linecap="round" stroke-linejoin="round"/><path d="M25.5359 20.8774 31.8926 20.8774C36.9684 20.8774 41.0831 24.9921 41.0831 30.068 41.0831 33.4863 39.217 36.4688 36.4477 38.0522L35.1591 38.7818" stroke="#66737C" stroke-width="3.33333" stroke-linecap="round" stroke-linejoin="round"/><path d="M39.4219 54.1362 39.4219 45.5597C39.4219 41.4016 36.0511 38.0311 31.893 38.0311 27.7352 38.0311 24.3645 41.4016 24.3645 45.5597L24.3645 54.1362 39.4219 54.1362Z" stroke="#66737C" stroke-width="3.33333" stroke-linejoin="round"/><path d="M31.8937 46.0835C31.511 46.0835 31.2007 45.7732 31.2007 45.3905 31.2007 45.0075 31.511 44.6972 31.8937 44.6972" stroke="#66737C" stroke-width="3.33333" stroke-linecap="round" stroke-linejoin="round"/><path d="M31.894 46.0835C32.2767 46.0835 32.587 45.7732 32.587 45.3905 32.587 45.0075 32.2767 44.6972 31.894 44.6972" stroke="#66737C" stroke-width="3.33333" stroke-linecap="round" stroke-linejoin="round"/></svg>