<svg width="60" height="60" viewBox="-2.14 -2.14 60 60" xmlns="http://www.w3.org/2000/svg" xmlns:xlink="http://www.w3.org/1999/xlink" id="Modern-Tv-Flat-Screen--Streamline-Ultimate.svg" overflow="hidden"><defs></defs><path d="M4.06292 6.09438 51.6571 6.09438C51.6571 6.09438 53.9787 6.09438 53.9787 8.41604L53.9787 38.5977C53.9787 38.5977 53.9787 40.9194 51.6571 40.9194L4.06292 40.9194C4.06292 40.9194 1.74125 40.9194 1.74125 38.5977L1.74125 8.41604C1.74125 8.41604 1.74125 6.09438 4.06292 6.09438" stroke="#66737C" stroke-width="3.57143" stroke-linecap="round" stroke-linejoin="round" fill="none"/><path d="M17.4125 49.6256 38.3075 49.6256" stroke="#66737C" stroke-width="3.57143" stroke-linecap="round" stroke-linejoin="round" fill="none"/><path d="M27.86 40.9194 27.86 49.6256" stroke="#66737C" stroke-width="3.57143" stroke-linecap="round" stroke-linejoin="round" fill="none"/><path d="M4.06292 6.09438 51.6571 6.09438C51.6571 6.09438 53.9787 6.09438 53.9787 8.41604L53.9787 38.5977C53.9787 38.5977 53.9787 40.9194 51.6571 40.9194L4.06292 40.9194C4.06292 40.9194 1.74125 40.9194 1.74125 38.5977L1.74125 8.41604C1.74125 8.41604 1.74125 6.09438 4.06292 6.09438" stroke="#66737C" stroke-width="3.57143" stroke-linecap="round" stroke-linejoin="round" fill="none"/><path d="M17.4125 49.6256 38.3075 49.6256" stroke="#66737C" stroke-width="3.57143" stroke-linecap="round" stroke-linejoin="round" fill="none"/><path d="M27.86 40.9194 27.86 49.6256" stroke="#66737C" stroke-width="3.57143" stroke-linecap="round" stroke-linejoin="round" fill="none"/></svg>