<svg width="60" height="60" viewBox="-1.875 -1.875 60 60" xmlns="http://www.w3.org/2000/svg" xmlns:xlink="http://www.w3.org/1999/xlink" id="Monitor-Heart-Beat-Search--Streamline-Ultimate" overflow="hidden"><path d="M44.2828 42.525 54.4922 52.7344" stroke="#66737C" stroke-width="3.33333" stroke-linecap="round" stroke-linejoin="round" fill="none"/><path d="M1.75781 28.125 17.0344 28.125C17.3675 28.1251 17.6722 27.9374 17.8219 27.6398L21.9773 19.3289C22.195 18.895 22.7232 18.7198 23.1571 18.9375 23.3484 19.0335 23.4981 19.196 23.5781 19.3945L29.2031 33.457C29.3843 33.9074 29.8962 34.1256 30.3465 33.9445 30.5294 33.8709 30.6822 33.7381 30.7805 33.5672L36.2039 24.0773C36.4443 23.6556 36.981 23.5087 37.4027 23.7491 37.5218 23.8169 37.6233 23.9117 37.6992 24.0258L40.4297 28.125" stroke="#66737C" stroke-width="3.33333" stroke-linecap="round" stroke-linejoin="round" fill="none"/><path d="M6.375 19.3359C10.2559 7.32553 23.1384 0.735297 35.1488 4.61623 47.1592 8.49717 53.7495 21.3796 49.8685 33.39 45.9876 45.4004 33.1051 51.9907 21.0947 48.1098 15.38 46.2632 10.6219 42.2413 7.84922 36.9141" stroke="#66737C" stroke-width="3.33333" stroke-linecap="round" stroke-linejoin="round" fill="none"/></svg>