<svg width="60" height="60" viewBox="-1.875 -1.875 60 60" xmlns="http://www.w3.org/2000/svg" xmlns:xlink="http://www.w3.org/1999/xlink" id="Multiple-Chat--Streamline-Ultimate" overflow="hidden"><path d="M50.9766 19.3359 31.6406 19.3359 28.125 22.8492 24.6094 19.3336 5.27344 19.3336C3.33181 19.3336 1.75781 17.7596 1.75781 15.818L1.75781 5.27344C1.75781 3.33181 3.33181 1.75781 5.27344 1.75781L50.9766 1.75781C52.9182 1.75781 54.4922 3.33181 54.4922 5.27344L54.4922 15.8203C54.4922 17.7619 52.9182 19.3359 50.9766 19.3359Z" stroke="#66737C" stroke-width="3.33333" stroke-linecap="round" stroke-linejoin="round" fill="none"/><path d="M1.75781 39.5508C1.75781 42.9486 4.51231 45.7031 7.91016 45.7031 11.308 45.7031 14.0625 42.9486 14.0625 39.5508 14.0625 36.1529 11.308 33.3984 7.91016 33.3984 4.51231 33.3984 1.75781 36.1529 1.75781 39.5508Z" stroke="#66737C" stroke-width="3.33333" stroke-linecap="round" stroke-linejoin="round" fill="none"/><path d="M17.6109 53.8664C15.319 48.5114 9.11994 46.0282 3.76491 48.3202 3.0565 48.6234 2.38345 49.0033 1.75781 49.4531" stroke="#66737C" stroke-width="3.33333" stroke-linecap="round" stroke-linejoin="round" fill="none"/><path d="M42.1875 39.5508C42.1875 42.9486 44.942 45.7031 48.3398 45.7031 51.7377 45.7031 54.4922 42.9486 54.4922 39.5508 54.4922 36.1529 51.7377 33.3984 48.3398 33.3984 44.942 33.3984 42.1875 36.1529 42.1875 39.5508Z" stroke="#66737C" stroke-width="3.33333" stroke-linecap="round" stroke-linejoin="round" fill="none"/><path d="M38.6391 53.8664C40.931 48.5114 47.1301 46.0282 52.4851 48.3202 53.1935 48.6234 53.8665 49.0033 54.4922 49.4531" stroke="#66737C" stroke-width="3.33333" stroke-linecap="round" stroke-linejoin="round" fill="none"/><path d="M20.2148 37.793C20.2148 42.1616 23.7563 45.7031 28.125 45.7031 32.4937 45.7031 36.0352 42.1616 36.0352 37.793 36.0352 33.4243 32.4937 29.8828 28.125 29.8828 23.7563 29.8828 20.2148 33.4243 20.2148 37.793Z" stroke="#66737C" stroke-width="3.33333" stroke-linecap="round" stroke-linejoin="round" fill="none"/><path d="M39.1734 54.4898C34.2326 48.3873 25.2802 47.4456 19.1776 52.3864 18.4049 53.0121 17.6999 53.7171 17.0742 54.4898" stroke="#66737C" stroke-width="3.33333" stroke-linecap="round" stroke-linejoin="round" fill="none"/></svg>