<svg width="60" height="60" viewBox="-2.14 -2.14 60 60" xmlns="http://www.w3.org/2000/svg" xmlns:xlink="http://www.w3.org/1999/xlink" id="Multiple-Neutral-1--Streamline-Ultimate.svg" overflow="hidden"><path d="M7.83563 18.2831C7.83563 23.5723 12.1233 27.86 17.4125 27.86 22.7017 27.86 26.9894 23.5723 26.9894 18.2831 26.9894 12.994 22.7017 8.70625 17.4125 8.70625 12.1233 8.70625 7.83563 12.994 7.83563 18.2831Z" stroke="#66737C" stroke-width="3.57143" stroke-linecap="round" stroke-linejoin="round" fill="none"/><path d="M1.74125 47.0137C1.74125 38.3588 8.75751 31.3425 17.4125 31.3425 26.0675 31.3425 33.0838 38.3588 33.0838 47.0137" stroke="#66737C" stroke-width="3.57143" stroke-linecap="round" stroke-linejoin="round" fill="none"/><path d="M33.0861 10.2525C37.5212 7.37068 43.4528 8.62992 46.3346 13.0651 49.2164 17.5002 47.9571 23.4318 43.522 26.3136 40.3438 28.3786 36.2467 28.3751 33.0721 26.3045" stroke="#66737C" stroke-width="3.57143" stroke-linecap="round" stroke-linejoin="round" fill="none"/><path d="M34.825 31.7302C43.2748 29.8159 51.6767 35.1139 53.591 43.5637 53.8475 44.6958 53.9776 45.8529 53.9788 47.0137" stroke="#66737C" stroke-width="3.57143" stroke-linecap="round" stroke-linejoin="round" fill="none"/></svg>