<svg width="60" height="60" viewBox="-1.875 -1.875 60 60" xmlns="http://www.w3.org/2000/svg" xmlns:xlink="http://www.w3.org/1999/xlink" id="Office-Drawer--Streamline-Ultimate" overflow="hidden"><defs></defs><path d="M4.05 30.0328 52.2 30.0328C52.2 30.0328 54.4922 30.0328 54.4922 32.325L54.4922 52.1977C54.4922 52.1977 54.4922 54.4898 52.2 54.4898L4.05 54.4898C4.05 54.4898 1.75781 54.4898 1.75781 52.1977L1.75781 32.325C1.75781 32.325 1.75781 30.0328 4.05 30.0328" stroke="#66737C" stroke-width="3.33333" stroke-linecap="round" stroke-linejoin="round" fill="none"/><path d="M5.27344 30.0328 5.27344 16.3523C5.28118 15.0818 6.31612 14.0573 7.58672 14.0625L27.2461 14.0625C27.9726 14.0614 28.6574 14.4016 29.0953 14.9812L31.875 19.3312 46.9078 19.3312C48.1793 19.3274 49.2136 20.3543 49.2188 21.6258L49.2188 30.0328" stroke="#66737C" stroke-width="3.33333" stroke-linecap="round" stroke-linejoin="round" fill="none"/><path d="M21.2461 36.9094 35.0039 36.9094" stroke="#66737C" stroke-width="3.33333" stroke-linecap="round" stroke-linejoin="round" fill="none"/><path d="M46.2586 12.3 46.2586 9.32109C46.2509 8.05051 45.2159 7.02606 43.9453 7.03125L31.875 7.03125 29.0953 2.67188C28.6574 2.09225 27.9726 1.75202 27.2461 1.75312L10.5469 1.75312C9.27447 1.74794 8.23878 2.77522 8.23359 4.04762 8.23359 4.04763 8.23359 4.04764 8.23359 4.04766L8.23359 6.49219" stroke="#66737C" stroke-width="3.33333" stroke-linecap="round" stroke-linejoin="round" fill="none"/></svg>