<svg width="60" height="60" viewBox="-1.875 -1.875 60 60" xmlns="http://www.w3.org/2000/svg" xmlns:xlink="http://www.w3.org/1999/xlink" id="Office-Building-Worker--Streamline-Ultimate" fill="none" overflow="hidden"><path d="M46.2891 42.7734C49.5251 42.7734 52.1484 40.1501 52.1484 36.9141 52.1484 33.678 49.5251 31.0547 46.2891 31.0547 43.053 31.0547 40.4297 33.678 40.4297 36.9141 40.4297 40.1501 43.053 42.7734 46.2891 42.7734Z" stroke="#66737C" stroke-width="3.33333" stroke-linecap="round" stroke-linejoin="round" stroke-miterlimit="10"/><path d="M54.4922 54.4922C54.4922 50.0391 50.7422 46.2891 46.2891 46.2891 41.8359 46.2891 38.0859 50.0391 38.0859 54.4922" stroke="#66737C" stroke-width="3.33333" stroke-linecap="round" stroke-linejoin="round" stroke-miterlimit="10"/><path d="M29.8828 42.7734C33.1188 42.7734 35.7422 40.1501 35.7422 36.9141 35.7422 33.678 33.1188 31.0547 29.8828 31.0547 26.6468 31.0547 24.0234 33.678 24.0234 36.9141 24.0234 40.1501 26.6468 42.7734 29.8828 42.7734Z" stroke="#66737C" stroke-width="3.33333" stroke-linecap="round" stroke-linejoin="round" stroke-miterlimit="10"/><path d="M38.0859 54.4922C38.0859 50.0391 34.3359 46.2891 29.8828 46.2891 25.4297 46.2891 21.6797 50.0391 21.6797 54.4922" stroke="#66737C" stroke-width="3.33333" stroke-linecap="round" stroke-linejoin="round" stroke-miterlimit="10"/><path d="M13.2422 54.2578 1.75781 54.2578" stroke="#66737C" stroke-width="3.33333" stroke-linecap="round" stroke-linejoin="round" stroke-miterlimit="10"/><path d="M4.10156 54.2578 4.10156 4.12268C4.10156 2.70375 5.03906 1.75781 6.44531 1.75781L33.3984 1.75781C34.8047 1.75781 35.7422 2.70375 35.7422 4.12268L35.7422 24.9335" stroke="#66737C" stroke-width="3.33333" stroke-linecap="round" stroke-linejoin="round" stroke-miterlimit="10"/><path d="M11.8361 11.6014 28.2422 11.6014" stroke="#66737C" stroke-width="3.33333" stroke-linecap="round" stroke-linejoin="round" stroke-miterlimit="10"/><path d="M11.8361 20.9764 28.2422 20.9764" stroke="#66737C" stroke-width="3.33333" stroke-linecap="round" stroke-linejoin="round" stroke-miterlimit="10"/><path d="M11.8361 30.3516 17.9298 30.3516" stroke="#66737C" stroke-width="3.33333" stroke-linecap="round" stroke-linejoin="round" stroke-miterlimit="10"/><path d="M11.8361 39.7266 16.5236 39.7266" stroke="#66737C" stroke-width="3.33333" stroke-linecap="round" stroke-linejoin="round" stroke-miterlimit="10"/></svg>