<svg width="60" height="60" viewBox="-1.875 -1.875 60 60" xmlns="http://www.w3.org/2000/svg" xmlns:xlink="http://www.w3.org/1999/xlink" id="Online-Class-Language--Streamline-Ultimate" fill="none" overflow="hidden"><path d="M13.5936 15.8203 34.4531 15.8203" stroke="#66737C" stroke-width="3.33333" stroke-linecap="round" stroke-linejoin="round" stroke-miterlimit="10"/><path d="M18.7497 15.8203C18.7497 21.4453 25.3123 27.3047 31.8748 29.1797" stroke="#66737C" stroke-width="3.33333" stroke-linecap="round" stroke-linejoin="round" stroke-miterlimit="10"/><path d="M29.2966 15.8203C29.2966 21.4453 22.7341 27.3047 16.1716 29.1797" stroke="#66737C" stroke-width="3.33333" stroke-linecap="round" stroke-linejoin="round" stroke-miterlimit="10"/><path d="M21.3281 8.08596 23.9062 10.6641" stroke="#66737C" stroke-width="3.33333" stroke-linecap="round" stroke-linejoin="round" stroke-miterlimit="10"/><path d="M42.7734 38.5547C42.7734 38.5547 41.6016 35.2734 32.6953 34.8047 31.7578 34.8047 31.0547 35.2734 31.0547 35.9766L31.0547 49.5703C31.0547 50.2734 31.7578 50.7422 32.4609 50.7422 41.6016 50.9766 42.7734 54.4922 42.7734 54.4922L42.7734 38.5547ZM42.7734 38.5547C42.7734 38.5547 43.9453 35.2734 52.8516 34.8047 53.7891 34.8047 54.4922 35.2734 54.4922 35.9766L54.4922 49.5703C54.4922 50.2734 53.7891 50.7422 53.0859 50.7422 43.9453 50.9766 42.7734 54.4922 42.7734 54.4922" stroke="#66737C" stroke-width="3.33333" stroke-linecap="round" stroke-linejoin="round" stroke-miterlimit="10"/><path d="M50.0391 28.4766 50.0391 5.03906C50.0391 3.16406 48.6328 1.75781 46.7578 1.75781L5.03902 1.75781C3.16402 1.75781 1.75778 3.16406 1.75778 5.03906L1.75778 37.1484C1.75778 39.0234 3.16402 40.4297 5.03902 40.4297L23.3202 40.4297" stroke="#66737C" stroke-width="3.33333" stroke-linecap="round" stroke-linejoin="round" stroke-miterlimit="10"/><path d="M20.2732 40.4297 18.6326 49.8047" stroke="#66737C" stroke-width="3.33333" stroke-linecap="round" stroke-linejoin="round" stroke-miterlimit="10"/><path d="M22.7343 49.8047 16.289 49.8047" stroke="#66737C" stroke-width="3.33333" stroke-linecap="round" stroke-linejoin="round" stroke-miterlimit="10"/></svg>