<svg width="60" height="60" viewBox="-2.14 -2.14 60 60" xmlns="http://www.w3.org/2000/svg" xmlns:xlink="http://www.w3.org/1999/xlink" id="Organic-Flask--Streamline-Ultimate.svg" fill="none" overflow="hidden"><path d="M39.4683 3.4825C36.3896 3.4825 33.4369 4.70551 31.2601 6.88251 29.0831 9.05949 27.86 12.0121 27.86 15.0908 30.9388 15.0908 33.8915 13.8678 36.0683 11.6908 38.2453 9.51384 39.4683 6.56122 39.4683 3.4825Z" stroke="#66737C" stroke-width="3.57143" stroke-linecap="round" stroke-linejoin="round"/><path d="M16.3678 1.16083C17.8769 1.16083 19.3713 1.45809 20.7657 2.03563 22.16 2.61318 23.4268 3.45968 24.494 4.52683 25.5611 5.59399 26.4076 6.8609 26.9852 8.2552 27.5628 9.6495 27.86 11.1439 27.86 12.6531 24.8121 12.6531 21.889 11.4423 19.7337 9.28708 17.5785 7.13186 16.3678 4.20876 16.3678 1.16083Z" stroke="#66737C" stroke-width="3.57143" stroke-linecap="round" stroke-linejoin="round"/><path d="M27.86 40.6292 27.86 12.653" stroke="#66737C" stroke-width="3.57143" stroke-linecap="round" stroke-linejoin="round"/><path d="M20.895 20.895 20.895 26.6992 7.74508 47.3411C7.27914 48.0404 7.01169 48.853 6.97125 49.6923 6.93078 50.5315 7.11883 51.3662 7.51533 52.107 7.91185 52.8479 8.50197 53.4671 9.22277 53.8989 9.94358 54.3309 10.7681 54.5589 11.6083 54.5592L44.1117 54.5592C44.9519 54.5589 45.7765 54.3309 46.4972 53.8989 47.2181 53.4671 47.8082 52.8479 48.2048 52.107 48.6011 51.3662 48.7891 50.5315 48.7487 49.6923 48.7083 48.853 48.4409 48.0404 47.9749 47.3411L34.825 26.6992 34.825 20.895" stroke="#66737C" stroke-width="3.57143" stroke-linecap="round" stroke-linejoin="round"/><path d="M39.2617 33.6642 16.4583 33.6642" stroke="#66737C" stroke-width="3.57143" stroke-linecap="round" stroke-linejoin="round"/><path d="M15.6713 48.755C15.3507 48.755 15.0908 48.4952 15.0908 48.1746 15.0908 47.854 15.3507 47.5942 15.6713 47.5942" stroke="#66737C" stroke-width="3.57143"/><path d="M15.6713 48.755C15.9918 48.755 16.2517 48.4952 16.2517 48.1746 16.2517 47.854 15.9918 47.5942 15.6713 47.5942" stroke="#66737C" stroke-width="3.57143"/><path d="M19.1537 42.9508C18.8332 42.9508 18.5733 42.691 18.5733 42.3704 18.5733 42.0498 18.8332 41.79 19.1537 41.79" stroke="#66737C" stroke-width="3.57143"/><path d="M19.1537 42.9508C19.4743 42.9508 19.7342 42.691 19.7342 42.3704 19.7342 42.0498 19.4743 41.79 19.1537 41.79" stroke="#66737C" stroke-width="3.57143"/><path d="M28.4404 47.5942C28.1198 47.5942 27.86 47.3344 27.86 47.0137 27.86 46.6931 28.1198 46.4333 28.4404 46.4333" stroke="#66737C" stroke-width="3.57143"/><path d="M28.4404 47.5942C28.761 47.5942 29.0208 47.3344 29.0208 47.0137 29.0208 46.6931 28.761 46.4333 28.4404 46.4333" stroke="#66737C" stroke-width="3.57143"/><g><path d="M35.4054 42.9508C35.0848 42.9508 34.825 42.691 34.825 42.3704 34.825 42.0498 35.0848 41.79 35.4054 41.79" stroke="#66737C" stroke-width="3.57143"/><path d="M35.4054 42.9508C35.726 42.9508 35.9858 42.691 35.9858 42.3704 35.9858 42.0498 35.726 41.79 35.4054 41.79" stroke="#66737C" stroke-width="3.57143"/></g><g><path d="M41.2096 48.755C40.889 48.755 40.6292 48.4952 40.6292 48.1746 40.6292 47.854 40.889 47.5942 41.2096 47.5942" stroke="#66737C" stroke-width="3.57143"/><path d="M41.2096 48.755C41.5302 48.755 41.79 48.4952 41.79 48.1746 41.79 47.854 41.5302 47.5942 41.2096 47.5942" stroke="#66737C" stroke-width="3.57143"/></g></svg>