<svg width="60" height="60" viewBox="-2.14 -2.14 60 60" xmlns="http://www.w3.org/2000/svg" xmlns:xlink="http://www.w3.org/1999/xlink" id="Package-Size-S--Streamline-Ultimate.svg" fill="none" overflow="hidden"><path d="M22.8879 40.5161C23.792 42.0981 25.826 42.776 27.86 42.776 30.7978 42.776 33.2839 40.9679 33.2839 38.708 33.2839 36.4481 30.7978 34.64 27.86 34.64 24.9219 34.64 22.4359 32.8318 22.4359 30.5719 22.4359 28.3118 24.9219 26.5039 27.86 26.5039 29.6679 26.5039 31.7019 27.1818 32.8318 28.7638" stroke="#66737C" stroke-width="3.57143" stroke-linecap="round" stroke-linejoin="round" stroke-miterlimit="10"/><path d="M48.2001 53.3981 7.51983 53.3981C5.71181 53.3981 4.1298 51.8161 4.1298 50.008L4.1298 19.2719C4.1298 17.4638 5.71181 15.8818 7.51983 15.8818L48.2001 15.8818C50.0082 15.8818 51.5902 17.4638 51.5902 19.2719L51.5902 50.008C51.5902 51.8161 50.0082 53.3981 48.2001 53.3981Z" stroke="#66737C" stroke-width="3.57143" stroke-linecap="round" stroke-linejoin="round" stroke-miterlimit="10"/><path d="M51.2513 17.6898 45.8271 4.35568C45.3754 3.22565 44.0193 2.32167 42.6632 2.32167L13.057 2.32167C11.701 2.32167 10.5709 2.99966 9.89292 4.35568L4.46891 17.6898" stroke="#66737C" stroke-width="3.57143" stroke-linecap="round" stroke-linejoin="round" stroke-miterlimit="10"/><path d="M27.86 15.8817 27.86 2.54754" stroke="#66737C" stroke-width="3.57143" stroke-linecap="round" stroke-linejoin="round" stroke-miterlimit="10"/></svg>