<svg width="60" height="60" viewBox="-1.875 -1.875 60 60" xmlns="http://www.w3.org/2000/svg" xmlns:xlink="http://www.w3.org/1999/xlink" id="Party-Balloons--Streamline-Ultimate" fill="none" overflow="hidden"><path d="M35.1443 29.43C40.9671 29.43 45.6874 23.9229 45.6874 17.1297 45.6874 10.3365 40.9671 4.82941 35.1443 4.82941 29.3215 4.82941 24.6012 10.3365 24.6012 17.1297 24.6012 23.9229 29.3215 29.43 35.1443 29.43Z" stroke="#66737C" stroke-width="3.33333" stroke-linecap="round" stroke-linejoin="round"/><path d="M35.1445 29.43 31.9814 33.6473C31.7857 33.9084 31.6664 34.2188 31.6371 34.5438 31.6078 34.8689 31.6697 35.1956 31.8155 35.4874 31.9615 35.7795 32.1858 36.0248 32.4635 36.1964 32.741 36.368 33.0609 36.4589 33.3872 36.4589L36.9016 36.4589C37.2279 36.4589 37.5478 36.368 37.8253 36.1964 38.103 36.0248 38.3273 35.7795 38.4734 35.4874 38.6191 35.1956 38.681 34.8689 38.6517 34.5438 38.6224 34.2188 38.5031 33.9084 38.3074 33.6473L35.1445 29.43Z" stroke="#66737C" stroke-width="3.33333" stroke-linecap="round" stroke-linejoin="round"/><path d="M35.5123 36.4587C34.6629 37.6505 34.2635 39.1048 34.3847 40.563 34.5061 42.0216 35.1405 43.3896 36.1753 44.4246 36.7498 44.9988 37.2054 45.6806 37.5164 46.4309 37.8272 47.1813 37.9873 47.9855 37.9873 48.7978 37.9873 49.6099 37.8272 50.4141 37.5164 51.1645 37.2054 51.9148 36.7498 52.5966 36.1753 53.1708" stroke="#66737C" stroke-width="3.33333" stroke-linecap="round" stroke-linejoin="round"/><path d="M21.0868 4.71921C19.5324 3.65564 17.694 3.08421 15.8106 3.07917 9.98841 3.07917 5.26744 8.58738 5.26744 15.3795 5.26744 22.1716 9.98841 27.6799 15.8106 27.6799 17.6926 27.6748 19.5295 27.1034 21.0821 26.0398" stroke="#66737C" stroke-width="3.33333" stroke-linecap="round" stroke-linejoin="round"/><path d="M15.8153 27.6729 18.9783 31.89C19.1741 32.1511 19.2933 32.4616 19.3226 32.7865 19.3519 33.1116 19.2901 33.4383 19.1442 33.7303 18.9983 34.0221 18.7739 34.2675 18.4963 34.4391 18.2187 34.6106 17.8989 34.7016 17.5725 34.7016L14.0582 34.7016C13.7318 34.7016 13.4119 34.6106 13.1344 34.4391 12.8568 34.2675 12.6324 34.0221 12.4865 33.7303 12.3405 33.4383 12.2788 33.1116 12.3081 32.7865 12.3374 32.4616 12.4566 32.1511 12.6524 31.89L15.8153 27.6729Z" stroke="#66737C" stroke-width="3.33333" stroke-linecap="round" stroke-linejoin="round"/><path d="M15.4475 34.7016C16.2968 35.8934 16.6963 37.3474 16.5749 38.8059 16.4535 40.2642 15.8191 41.6325 14.7844 42.6675 14.21 43.2415 13.7543 43.9233 13.4434 44.6738 13.1325 45.424 12.9724 46.2284 12.9724 47.0405 12.9724 47.8526 13.1325 48.657 13.4434 49.4072 13.7543 50.1577 14.21 50.8395 14.7844 51.4134" stroke="#66737C" stroke-width="3.33333" stroke-linecap="round" stroke-linejoin="round"/><path d="M2.63672 41.7309C2.15131 41.7309 1.75781 41.3374 1.75781 40.852 1.75781 40.3666 2.15131 39.9731 2.63672 39.9731" stroke="#66737C" stroke-width="3.33333"/><path d="M2.63616 41.7309C3.12155 41.7309 3.51506 41.3374 3.51506 40.852 3.51506 40.3666 3.12155 39.9731 2.63616 39.9731" stroke="#66737C" stroke-width="3.33333"/><path d="M25.4801 52.2741C24.9947 52.2741 24.6012 51.8805 24.6012 51.3952 24.6012 50.9098 24.9947 50.5163 25.4801 50.5163" stroke="#66737C" stroke-width="3.33333"/><path d="M25.4796 52.2741C25.965 52.2741 26.3585 51.8805 26.3585 51.3952 26.3585 50.9098 25.965 50.5163 25.4796 50.5163" stroke="#66737C" stroke-width="3.33333"/><g><path d="M51.8381 45.304C51.3525 45.304 50.9592 44.9105 50.9592 44.4251 50.9592 43.9395 51.3525 43.5462 51.8381 43.5462" stroke="#66737C" stroke-width="3.33333"/><path d="M51.8372 45.304C52.3228 45.304 52.7161 44.9105 52.7161 44.4251 52.7161 43.9395 52.3228 43.5462 51.8372 43.5462" stroke="#66737C" stroke-width="3.33333"/></g><g><path d="M53.6138 18.8875C53.1284 18.8875 52.7348 18.494 52.7348 18.0086 52.7348 17.5232 53.1284 17.1296 53.6138 17.1296" stroke="#66737C" stroke-width="3.33333"/><path d="M53.6133 18.8875C54.0987 18.8875 54.4922 18.494 54.4922 18.0086 54.4922 17.5232 54.0987 17.1296 53.6133 17.1296" stroke="#66737C" stroke-width="3.33333"/></g></svg>