<svg width="60" height="60" viewBox="-2.14 -2.14 60 60" xmlns="http://www.w3.org/2000/svg" xmlns:xlink="http://www.w3.org/1999/xlink" id="Pen-Write-Paper--Streamline-Ultimate.svg" overflow="hidden"><path d="M19.7156 26.1536 17.2546 36.0044 27.1031 33.5411 41.8782 18.766 34.4907 11.3785 19.7156 26.1536Z" stroke="#66737C" stroke-width="3.57143" stroke-linecap="round" stroke-linejoin="round" fill="none"/><path d="M50.4986 10.148 52.9595 12.609C54.32 13.9685 54.3207 16.1735 52.9611 17.534 52.9606 17.5345 52.9601 17.535 52.9595 17.5355L45.2725 25.2203" stroke="#66737C" stroke-width="3.57143" stroke-linecap="round" stroke-linejoin="round" fill="none"/><path d="M41.8782 18.766 50.4986 10.148C51.859 8.78844 51.8597 6.58344 50.5002 5.22301 50.4996 5.22248 50.4991 5.22195 50.4986 5.22143L48.0353 2.76046C46.6754 1.40096 44.4709 1.40096 43.111 2.76046L34.4907 11.3762" stroke="#66737C" stroke-width="3.57143" stroke-linecap="round" stroke-linejoin="round" fill="none"/><path d="M47.0161 31.3425 47.0161 38.6047C47.0159 39.5288 46.6484 40.4149 45.9945 41.068L34.1053 52.9572C33.4522 53.6111 32.5661 53.9786 31.642 53.9788L5.22375 53.9787C3.30042 53.9787 1.74125 52.4196 1.74125 50.4963L1.74125 5.22375C1.74125 3.30042 3.30042 1.74125 5.22375 1.74125L31.3425 1.74125" stroke="#66737C" stroke-width="3.57143" stroke-linecap="round" stroke-linejoin="round" fill="none"/><path d="M33.0861 53.6653 33.0861 43.5312C33.0861 41.6079 34.6452 40.0488 36.5686 40.0488L46.7026 40.0488" stroke="#66737C" stroke-width="3.57143" stroke-linecap="round" stroke-linejoin="round" fill="none"/></svg>