<svg width="60" height="60" viewBox="-2.14 -2.14 60 60" xmlns="http://www.w3.org/2000/svg" xmlns:xlink="http://www.w3.org/1999/xlink" id="Pencil-Edit-Setting--Streamline-Ultimate.svg" fill="none" overflow="hidden"><path d="M39.8909 41.2556C41.8125 41.2556 43.3704 39.6977 43.3704 37.7761 43.3704 35.8544 41.8125 34.2968 39.8909 34.2968 37.9695 34.2968 36.4116 35.8544 36.4116 37.7761 36.4116 39.6977 37.9695 41.2556 39.8909 41.2556Z" stroke="#66737C" stroke-width="3.57143" stroke-linecap="round" stroke-linejoin="round" stroke-miterlimit="10"/><path d="M42.9065 24.3225 43.8342 27.802C44.2981 28.9619 45.458 29.6577 46.6179 29.4257L50.0972 28.7297C53.1128 28.0339 55.2004 31.7453 53.1128 33.833L50.7932 36.3845C49.8652 37.3124 49.8652 38.704 50.7932 39.6318L53.1128 42.1835C55.2004 44.5031 53.1128 47.9823 50.0972 47.2865L46.6179 46.5907C45.458 46.3588 44.2981 47.0546 43.8342 48.2145L42.9065 51.6938C41.9785 54.7094 37.8032 54.7094 37.1074 51.6938L36.1797 48.2145C35.7156 47.0546 34.5559 46.3588 33.396 46.5907L29.9168 47.2865C26.9012 47.9823 24.8135 44.2712 26.9012 42.1835L29.2207 39.6318C30.1487 38.704 30.1487 37.3124 29.2207 36.3845L26.9012 33.833C24.8135 31.5134 26.9012 28.0339 29.9168 28.7297L33.396 29.4257C34.5559 29.6577 35.7156 28.9619 36.1797 27.802L37.1074 24.3225C37.8032 21.3071 41.9785 21.3071 42.9065 24.3225Z" stroke="#66737C" stroke-width="3.57143" stroke-linecap="round" stroke-linejoin="round" stroke-miterlimit="10"/><path d="M17.7343 49.7779 1.76449 53.9555 5.93051 37.9416M17.7343 49.7779 5.93051 37.9416M17.7343 49.7779 19.8173 47.6891M5.93051 37.9416 39.4902 4.28919C42.7305 1.03997 48.0536 0.807884 51.5254 4.28919 54.7656 7.53838 54.7656 12.8763 51.5254 16.3576L48.5423 19.3407M38.5643 5.21746 50.6149 17.268M37.6523 16.3576 32.5467 11.2519" stroke="#66737C" stroke-width="3.57143" stroke-linecap="round" stroke-linejoin="round" stroke-miterlimit="10"/></svg>