<svg width="60" height="60" viewBox="-2.14 -2.14 60 60" xmlns="http://www.w3.org/2000/svg" xmlns:xlink="http://www.w3.org/1999/xlink" id="Performance-Decrease--Streamline-Ultimate.svg" overflow="hidden"><g><path d="M53.9787 53.9787 1.74125 53.9787" stroke="#66737C" stroke-width="3.57143" stroke-linecap="round" stroke-linejoin="round" fill="none"/><path d="M41.79 37.7271 48.755 37.7271C49.7114 37.7396 50.4837 38.5119 50.4963 39.4683L50.4963 53.9787 40.0488 53.9787 40.0488 39.4683C40.0613 38.5119 40.8336 37.7396 41.79 37.7271Z" stroke="#66737C" stroke-width="3.57143" stroke-linecap="round" stroke-linejoin="round" fill="none"/><path d="M24.3775 28.4404 31.3425 28.4404C32.2989 28.4529 33.0712 29.2252 33.0838 30.1817L33.0838 53.9787 22.6362 53.9787 22.6362 30.1817C22.6488 29.2252 23.4211 28.4529 24.3775 28.4404Z" stroke="#66737C" stroke-width="3.57143" stroke-linecap="round" stroke-linejoin="round" fill="none"/><path d="M6.965 19.1537 13.93 19.1537C14.8864 19.1663 15.6587 19.9386 15.6713 20.895L15.6713 53.9787 5.22375 53.9787 5.22375 20.895C5.23625 19.9386 6.00856 19.1663 6.965 19.1538Z" stroke="#66737C" stroke-width="3.57143" stroke-linecap="round" stroke-linejoin="round" fill="none"/><path d="M10.4475 1.74125 47.7567 18.6894" stroke="#66737C" stroke-width="3.57143" stroke-linecap="round" stroke-linejoin="round" fill="none"/><path d="M44.9707 11.3065 47.7567 18.6894 40.3738 21.4522" stroke="#66737C" stroke-width="3.57143" stroke-linecap="round" stroke-linejoin="round" fill="none"/></g></svg>