<svg width="60" height="60" viewBox="-1.875 -1.875 60 60" xmlns="http://www.w3.org/2000/svg" xmlns:xlink="http://www.w3.org/1999/xlink" id="Performance-Graph-Calculator--Streamline-Ultimate" fill="none" overflow="hidden"><path d="M19.3359 36.9141 4.01719 36.9141C3.42621 36.9216 2.8564 36.6942 2.43281 36.282 2.00921 35.8699 1.76646 35.3065 1.75781 34.7156L1.75781 3.95384C1.76645 3.36307 2.00929 2.79994 2.43295 2.38814 2.85661 1.97634 3.42642 1.7496 4.01719 1.75774L46.9594 1.75774C47.5502 1.7496 48.12 1.97634 48.5435 2.38814 48.9673 2.79994 49.2101 3.36307 49.2188 3.95384L49.2188 12.3046" stroke="#66737C" stroke-width="3.33333" stroke-linecap="round" stroke-linejoin="round"/><path d="M36.0352 42.1875C35.5498 42.1875 35.1562 41.794 35.1562 41.3086 35.1562 40.8232 35.5498 40.4297 36.0352 40.4297" stroke="#66737C" stroke-width="3.33333"/><path d="M36.0352 42.1875C36.5205 42.1875 36.9141 41.794 36.9141 41.3086 36.9141 40.8232 36.5205 40.4297 36.0352 40.4297" stroke="#66737C" stroke-width="3.33333"/><path d="M44.8242 42.1875C44.3388 42.1875 43.9453 41.794 43.9453 41.3086 43.9453 40.8232 44.3388 40.4297 44.8242 40.4297" stroke="#66737C" stroke-width="3.33333"/><path d="M44.8242 42.1875C45.3096 42.1875 45.7031 41.794 45.7031 41.3086 45.7031 40.8232 45.3096 40.4297 44.8242 40.4297" stroke="#66737C" stroke-width="3.33333"/><path d="M36.0352 49.2188C35.5498 49.2188 35.1562 48.8252 35.1562 48.3398 35.1562 47.8545 35.5498 47.4609 36.0352 47.4609" stroke="#66737C" stroke-width="3.33333"/><path d="M36.0352 49.2188C36.5205 49.2188 36.9141 48.8252 36.9141 48.3398 36.9141 47.8545 36.5205 47.4609 36.0352 47.4609" stroke="#66737C" stroke-width="3.33333"/><path d="M44.8242 49.2188C44.3388 49.2188 43.9453 48.8252 43.9453 48.3398 43.9453 47.8545 44.3388 47.4609 44.8242 47.4609" stroke="#66737C" stroke-width="3.33333"/><path d="M44.8242 49.2188C45.3096 49.2188 45.7031 48.8252 45.7031 48.3398 45.7031 47.8545 45.3096 47.4609 44.8242 47.4609" stroke="#66737C" stroke-width="3.33333"/><path d="M47.4609 32.2266C47.4609 33.0539 46.9594 33.3984 46.4555 33.3984L34.4039 33.3984C33.9 33.3984 33.4008 33.0141 33.4008 32.1844L33.4008 27.5391C33.4008 26.7094 33.9023 26.3672 34.4062 26.3672L46.4578 26.3672C46.9617 26.3672 47.4633 26.7094 47.4633 27.5391L47.4609 32.2266Z" stroke="#66737C" stroke-width="3.33333" stroke-linecap="round" stroke-linejoin="round"/><path d="M51.7734 19.3359 29.0859 19.3359C27.5843 19.3359 26.3672 20.5532 26.3672 22.0547L26.3672 51.7734C26.3672 53.2751 27.5843 54.4922 29.0859 54.4922L51.7734 54.4922C53.2751 54.4922 54.4922 53.2751 54.4922 51.7734L54.4922 22.0547C54.4922 20.5532 53.2751 19.3359 51.7734 19.3359Z" stroke="#66737C" stroke-width="3.33333" stroke-linecap="round" stroke-linejoin="round"/><path d="M8.78906 19.3359 14.0625 14.0625 21.0938 17.5781 29.8828 8.78906" stroke="#66737C" stroke-width="3.33333" stroke-linecap="round" stroke-linejoin="round"/><path d="M24.6094 8.78906 29.8828 8.78906 29.8828 14.0625" stroke="#66737C" stroke-width="3.33333" stroke-linecap="round" stroke-linejoin="round"/></svg>