<svg width="60" height="60" viewBox="-1.875 -1.875 60 60" xmlns="http://www.w3.org/2000/svg" xmlns:xlink="http://www.w3.org/1999/xlink" id="Pie-Line-Graph--Streamline-Ultimate" overflow="hidden"><g><path d="M19.3359 46.2891 28.7109 36.9141C29.3972 36.2286 30.509 36.2286 31.1953 36.9141L35.7422 41.4609C36.4285 42.1464 37.5403 42.1464 38.2266 41.4609L47.6016 32.0859" stroke="#66737C" stroke-width="3.33333" stroke-linecap="round" stroke-linejoin="round" fill="none"/><path d="M5.27344 1.75781 50.9766 1.75781C50.9766 1.75781 54.4922 1.75781 54.4922 5.27344L54.4922 50.9766C54.4922 50.9766 54.4922 54.4922 50.9766 54.4922L5.27344 54.4922C5.27344 54.4922 1.75781 54.4922 1.75781 50.9766L1.75781 5.27344C1.75781 5.27344 1.75781 1.75781 5.27344 1.75781" stroke="#66737C" stroke-width="3.33333" stroke-linecap="round" stroke-linejoin="round" fill="none"/><path d="M8.78906 19.9219C8.78906 25.7468 13.5111 30.4688 19.3359 30.4688 25.1608 30.4688 29.8828 25.7468 29.8828 19.9219 29.8828 14.097 25.1608 9.375 19.3359 9.375 13.5111 9.375 8.78906 14.097 8.78906 19.9219" stroke="#66737C" stroke-width="3.33333" stroke-linecap="round" stroke-linejoin="round" fill="none"/><path d="M19.3359 9.375 19.3359 19.9219 26.7891 27.375" stroke="#66737C" stroke-width="3.33333" stroke-linecap="round" stroke-linejoin="round" fill="none"/><path d="M38.6719 12.8906 46.875 12.8906" stroke="#66737C" stroke-width="3.33333" stroke-linecap="round" stroke-linejoin="round" fill="none"/><path d="M38.6719 21.0938 46.875 21.0938" stroke="#66737C" stroke-width="3.33333" stroke-linecap="round" stroke-linejoin="round" fill="none"/></g></svg>