<svg width="60" height="60" viewBox="-1.875 -1.875 60 60" xmlns="http://www.w3.org/2000/svg" xmlns:xlink="http://www.w3.org/1999/xlink" id="Pin-Location-2--Streamline-Ultimate" fill="none" overflow="hidden"><path d="M28.125 24.6094C33.9499 24.6094 38.6719 19.8874 38.6719 14.0625 38.6719 8.23763 33.9499 3.51562 28.125 3.51562 22.3001 3.51562 17.5781 8.23763 17.5781 14.0625 17.5781 19.8874 22.3001 24.6094 28.125 24.6094Z" stroke="#66737C" stroke-width="3.57143" stroke-linecap="round" stroke-linejoin="round"/><path d="M28.125 24.6094 28.125 43.9453" stroke="#66737C" stroke-width="3.57143" stroke-linecap="round" stroke-linejoin="round"/><path d="M35.1562 35.5195C45.3234 36.6 52.7344 39.9727 52.7344 43.957 52.7344 48.8109 41.7188 52.7461 28.125 52.7461 14.5312 52.7461 3.51562 48.7992 3.51562 43.9453 3.51562 39.9609 10.8961 36.6164 21.0258 35.5266" stroke="#66737C" stroke-width="3.57143" stroke-linecap="round" stroke-linejoin="round"/><path d="M27.2461 12.3047C26.7607 12.3047 26.3672 11.9112 26.3672 11.4258 26.3672 10.9404 26.7607 10.5469 27.2461 10.5469" stroke="#66737C" stroke-width="3.57143"/><path d="M27.2461 12.3047C27.7315 12.3047 28.125 11.9112 28.125 11.4258 28.125 10.9404 27.7315 10.5469 27.2461 10.5469" stroke="#66737C" stroke-width="3.57143"/></svg>