<svg width="60" height="60" viewBox="-1.875 -1.875 60 60" xmlns="http://www.w3.org/2000/svg" xmlns:xlink="http://www.w3.org/1999/xlink" id="Pin-Location-1--Streamline-Ultimate" overflow="hidden"><path d="M21.0938 17.5781C21.0938 21.4614 24.2417 24.6094 28.125 24.6094 32.0083 24.6094 35.1562 21.4614 35.1562 17.5781 35.1562 13.6949 32.0083 10.5469 28.125 10.5469 24.2417 10.5469 21.0938 13.6949 21.0938 17.5781Z" stroke="#66737C" stroke-width="3.57143" stroke-linecap="round" stroke-linejoin="round" fill="none"/><path d="M28.125 1.75781C36.8623 1.75781 43.9453 8.84081 43.9453 17.5781 43.9453 25.1977 31.9172 42.2508 28.8375 46.493 28.5489 46.8865 27.9959 46.9715 27.6024 46.6829 27.5298 46.6296 27.4658 46.5656 27.4125 46.493 24.3328 42.2508 12.3047 25.1977 12.3047 17.5781 12.3047 8.84081 19.3877 1.75781 28.125 1.75781Z" stroke="#66737C" stroke-width="3.57143" stroke-linecap="round" stroke-linejoin="round" fill="none"/><path d="M42.1383 41.6813C48.5414 42.9492 52.7344 45.0656 52.7344 47.4609 52.7344 51.3445 41.7188 54.4922 28.125 54.4922 14.5312 54.4922 3.51562 51.3445 3.51562 47.4609 3.51562 45.0703 7.68984 42.9586 14.0625 41.6883" stroke="#66737C" stroke-width="3.57143" stroke-linecap="round" stroke-linejoin="round" fill="none"/></svg>