<svg width="60" height="60" viewBox="-1.875 -1.875 60 60" xmlns="http://www.w3.org/2000/svg" xmlns:xlink="http://www.w3.org/1999/xlink" id="Ping-Pong-Paddle--Streamline-Ultimate" overflow="hidden"><path d="M10.057 17.0883 39.1617 46.193" stroke="#66737C" stroke-width="3.57143" stroke-linecap="round" stroke-linejoin="round" fill="none"/><path d="M19.3359 7.03125C19.3359 9.94369 21.6969 12.3047 24.6094 12.3047 27.5218 12.3047 29.8828 9.94369 29.8828 7.03125 29.8828 4.11881 27.5218 1.75781 24.6094 1.75781 21.6969 1.75781 19.3359 4.11881 19.3359 7.03125Z" stroke="#66737C" stroke-width="3.57143" stroke-linecap="round" stroke-linejoin="round" fill="none"/><path d="M13.0641 11.2992C7.80408 18.6431 7.36228 28.3958 11.9367 36.1852L3.44297 44.6789C1.23835 46.964 1.30357 50.6036 3.58864 52.8082 5.81557 54.9567 9.34355 54.9572 11.5711 52.8094L20.0648 44.3156C30.948 50.7084 44.953 47.0682 51.3458 36.1851 57.7386 25.3019 54.0984 11.2969 43.2152 4.90414 40.9558 3.57699 38.4851 2.64827 35.9109 2.15859" stroke="#66737C" stroke-width="3.57143" stroke-linecap="round" stroke-linejoin="round" fill="none"/></svg>