<svg width="60" height="60" viewBox="-1.875 -1.875 60 60" xmlns="http://www.w3.org/2000/svg" xmlns:xlink="http://www.w3.org/1999/xlink" id="Ping-Pong-Player--Streamline-Ultimate" fill="none" overflow="hidden"><path d="M39.0258 20.039C38.28 19.4796 37.3423 19.2394 36.4193 19.3712 35.4963 19.5031 34.6634 19.9962 34.1039 20.7421L30.8227 25.1156 23.0438 19.9218C22.4659 19.5384 21.7874 19.3346 21.0938 19.3359L13.5517 19.3359C11.4406 19.3271 9.37591 19.9551 7.62731 21.138 5.87871 22.3209 4.52749 24.0035 3.75009 25.9664L2.00869 30.3328C1.83725 30.7617 1.752 31.2202 1.75781 31.6819 1.76361 32.1438 1.86038 32.5999 2.04255 33.0244 2.22473 33.4488 2.48876 33.8332 2.81955 34.1555 3.15035 34.478 3.54141 34.732 3.97041 34.9031 4.8363 35.2486 5.80399 35.2359 6.66063 34.8682 7.51727 34.5002 8.1927 33.8072 8.53837 32.9414L10.2868 28.5773C10.5459 27.9234 10.996 27.3628 11.5783 26.9686 12.1607 26.5744 12.8484 26.3648 13.5517 26.3672L17.236 26.3672 15.9821 33.8859 7.56806 47.3438C7.07079 48.1341 6.90785 49.0896 7.11509 50.0002 7.32232 50.9107 7.88278 51.7015 8.67314 52.1988 9.46352 52.6962 10.419 52.8591 11.3295 52.6516 12.2401 52.4445 13.0309 51.8841 13.5282 51.0938L20.2899 40.2656 21.4478 41.1328C21.8833 41.4612 22.2369 41.8861 22.4809 42.3741 22.7249 42.862 22.8526 43.3997 22.854 43.9453L22.854 49.2188C22.854 50.1511 23.2244 51.0452 23.8838 51.7045 24.543 52.3638 25.4372 52.7344 26.3695 52.7344 27.3021 52.7344 28.1963 52.3638 28.8555 51.7045 29.5148 51.0452 29.8852 50.1511 29.8852 49.2188L29.8852 43.9453C29.8821 42.3084 29.4996 40.6948 28.7677 39.2306 28.0357 37.7667 26.9742 36.4924 25.6664 35.5078L23.1563 33.6328 23.932 28.9758 26.925 30.9703C28.4215 31.9655 30.2419 32.3501 32.0128 32.0449 33.7837 31.7398 35.3707 30.7683 36.4477 29.3297L39.7289 24.9633C40.0064 24.5939 40.2082 24.1734 40.323 23.7258 40.4379 23.2784 40.4632 22.8127 40.398 22.3554 40.3327 21.8981 40.178 21.4581 39.9424 21.0607 39.7071 20.6632 39.3956 20.316 39.0258 20.039L39.0258 20.039Z" stroke="#66737C" stroke-width="3.57143" stroke-linecap="round" stroke-linejoin="round"/><path d="M24.6094 15.8203C28.0071 15.8203 30.7617 13.0658 30.7617 9.66797 30.7617 6.27012 28.0071 3.51562 24.6094 3.51562 21.2115 3.51562 18.457 6.27012 18.457 9.66797 18.457 13.0658 21.2115 15.8203 24.6094 15.8203Z" stroke="#66737C" stroke-width="3.57143" stroke-linecap="round" stroke-linejoin="round"/><path d="M47.4609 35.1562 47.4609 52.7344" stroke="#66737C" stroke-width="3.57143" stroke-linecap="round" stroke-linejoin="round"/><path d="M40.4297 35.1562 54.4922 35.1562" stroke="#66737C" stroke-width="3.57143" stroke-linecap="round" stroke-linejoin="round"/><path d="M39.4031 20.3648 43.9453 15.8203" stroke="#66737C" stroke-width="3.57143" stroke-linecap="round" stroke-linejoin="round"/><path d="M51.559 14.7333C53.9618 12.3307 54.4484 8.92198 52.6463 7.11977 50.8439 5.31757 47.4354 5.80432 45.0326 8.20695 42.63 10.6096 42.1432 14.0183 43.9455 15.8205 45.7477 17.6227 49.1564 17.136 51.559 14.7333Z" stroke="#66737C" stroke-width="3.57143" stroke-linecap="round" stroke-linejoin="round"/><path d="M50.9766 29.0039C50.4912 29.0039 50.0977 28.6104 50.0977 28.125 50.0977 27.6396 50.4912 27.2461 50.9766 27.2461" stroke="#66737C" stroke-width="3.57143"/><path d="M50.9766 29.0039C51.462 29.0039 51.8555 28.6104 51.8555 28.125 51.8555 27.6396 51.462 27.2461 50.9766 27.2461" stroke="#66737C" stroke-width="3.57143"/></svg>