<svg width="60" height="60" viewBox="-2.14 -2.14 60 60" xmlns="http://www.w3.org/2000/svg" xmlns:xlink="http://www.w3.org/1999/xlink" id="Plane-With-Wheel--Streamline-Ultimate.svg" fill="none" overflow="hidden"><path d="M2.32167 16.2517 7.41916 27.2963C8.55762 29.7628 11.0264 31.3425 13.7431 31.3425L26.6992 31.3425 17.4125 45.2725 27.86 45.2725 39.4683 31.3425 49.3354 31.3425C52.2203 31.3425 54.5592 29.0037 54.5592 26.1187 54.5592 23.2338 52.2203 20.895 49.3354 20.895L16.2517 20.895 10.4475 16.2517 2.32167 16.2517Z" stroke="#66737C" stroke-width="3.57143" stroke-linecap="round" stroke-linejoin="round"/><path d="M25.9096 16.4502 20.895 9.28667 30.1817 9.28667 36.4502 16.2517" stroke="#66737C" stroke-width="3.57143" stroke-linecap="round" stroke-linejoin="round"/><path d="M41.79 38.3075C41.79 39.5897 42.8294 40.6292 44.1117 40.6292 45.3939 40.6292 46.4333 39.5897 46.4333 38.3075 46.4333 37.0253 45.3939 35.9858 44.1117 35.9858 42.8294 35.9858 41.79 37.0253 41.79 38.3075" stroke="#66737C" stroke-width="3.57143" stroke-linecap="round" stroke-linejoin="round"/><path d="M44.1117 35.9858 44.1117 31.3425" stroke="#66737C" stroke-width="3.57143" stroke-linecap="round" stroke-linejoin="round"/><path d="M2.32167 35.9858 13.93 35.9858" stroke="#66737C" stroke-width="3.57143" stroke-linecap="round" stroke-linejoin="round"/><path d="M51.0767 35.9858 53.3983 35.9858" stroke="#66737C" stroke-width="3.57143" stroke-linecap="round" stroke-linejoin="round"/><path d="M2.32167 45.2725 11.6083 45.2725" stroke="#66737C" stroke-width="3.57143" stroke-linecap="round" stroke-linejoin="round"/><path d="M34.825 45.2725 53.3983 45.2725" stroke="#66737C" stroke-width="3.57143" stroke-linecap="round" stroke-linejoin="round"/></svg>