<svg width="60" height="60" viewBox="-1.875 -1.875 60 60" xmlns="http://www.w3.org/2000/svg" xmlns:xlink="http://www.w3.org/1999/xlink" id="Plane-On-Runway--Streamline-Ultimate" fill="none" overflow="hidden"><path d="M39.8438 44.5312 33.9844 41.0156 33.9844 29.2969 50.3906 32.8125 50.3906 26.9531 33.9844 18.75 33.9844 10.5469C33.9844 7.95804 31.8858 5.85938 29.2969 5.85938 26.708 5.85938 24.6094 7.95804 24.6094 10.5469L24.6094 18.75 8.20312 26.9531 8.20312 32.8125 24.6094 29.2969 24.6094 41.0156 18.75 44.5312 18.75 49.2188 29.2969 46.875 39.8438 49.2188 39.8438 44.5312Z" stroke="#66737C" stroke-width="3.33333" stroke-linecap="round" stroke-linejoin="round"/><path d="M29.2969 50.3906 29.2969 43.3594" stroke="#66737C" stroke-width="3.33333" stroke-linecap="round" stroke-linejoin="round"/><path d="M5.85938 2.34375 5.85938 7.03125" stroke="#66737C" stroke-width="3.33333" stroke-linecap="round" stroke-linejoin="round"/><path d="M5.85938 14.0625 5.85938 18.75" stroke="#66737C" stroke-width="3.33333" stroke-linecap="round" stroke-linejoin="round"/><path d="M5.85938 37.5 5.85938 42.1875" stroke="#66737C" stroke-width="3.33333" stroke-linecap="round" stroke-linejoin="round"/><path d="M5.85938 49.2188 5.85938 53.9062" stroke="#66737C" stroke-width="3.33333" stroke-linecap="round" stroke-linejoin="round"/><path d="M50.3906 2.34375 50.3906 7.03125" stroke="#66737C" stroke-width="3.33333" stroke-linecap="round" stroke-linejoin="round"/><path d="M50.3906 14.0625 50.3906 18.75" stroke="#66737C" stroke-width="3.33333" stroke-linecap="round" stroke-linejoin="round"/><path d="M50.3906 37.5 50.3906 42.1875" stroke="#66737C" stroke-width="3.33333" stroke-linecap="round" stroke-linejoin="round"/><path d="M50.3906 49.2188 50.3906 53.9062" stroke="#66737C" stroke-width="3.33333" stroke-linecap="round" stroke-linejoin="round"/></svg>