<svg width="60" height="60" viewBox="-1.875 -1.875 60 60" xmlns="http://www.w3.org/2000/svg" xmlns:xlink="http://www.w3.org/1999/xlink" id="Pollution-Co-2--Streamline-Ultimate" overflow="hidden"><path d="M1.75781 28.125C1.75781 42.6872 13.5628 54.4922 28.125 54.4922 42.6872 54.4922 54.4922 42.6872 54.4922 28.125 54.4922 13.5628 42.6872 1.75781 28.125 1.75781 13.5628 1.75781 1.75781 13.5628 1.75781 28.125Z" stroke="#66737C" stroke-width="3.33333" stroke-linecap="round" stroke-linejoin="round" fill="none"/><path d="M21.0938 19.3359C17.2105 19.3359 14.0625 22.4839 14.0625 26.3672L14.0625 29.8828C14.0625 33.7661 17.2105 36.9141 21.0938 36.9141" stroke="#66737C" stroke-width="3.33333" stroke-linecap="round" stroke-linejoin="round" fill="none"/><path d="M29.8828 19.3359C27.9412 19.3359 26.3672 20.9099 26.3672 22.8516L26.3672 33.3984C26.3672 35.3401 27.9412 36.9141 29.8828 36.9141 31.8244 36.9141 33.3984 35.3401 33.3984 33.3984L33.3984 22.8516C33.3984 20.9099 31.8244 19.3359 29.8828 19.3359Z" stroke="#66737C" stroke-width="3.33333" stroke-linecap="round" stroke-linejoin="round" fill="none"/><path d="M38.6719 32.5195C38.6719 31.0633 39.8524 29.8828 41.3086 29.8828L41.3086 29.8828C42.7648 29.8828 43.9453 31.0633 43.9453 32.5195L43.9453 32.5195C43.9438 33.3713 43.6539 34.1974 43.1227 34.8633L38.6719 40.4297 43.9453 40.4297" stroke="#66737C" stroke-width="3.33333" stroke-linecap="round" stroke-linejoin="round" fill="none"/></svg>