<svg width="60" height="60" viewBox="-1.875 -1.875 60 60" xmlns="http://www.w3.org/2000/svg" xmlns:xlink="http://www.w3.org/1999/xlink" id="Programming-User-Head--Streamline-Ultimate" overflow="hidden"><path d="M20.2148 30.7617C20.2148 35.1304 23.7563 38.6719 28.125 38.6719 32.4937 38.6719 36.0352 35.1304 36.0352 30.7617 36.0352 26.3931 32.4937 22.8516 28.125 22.8516 23.7563 22.8516 20.2148 26.3931 20.2148 30.7617Z" stroke="#66737C" stroke-width="3.33333" stroke-linecap="round" stroke-linejoin="round" fill="none"/><path d="M42.1875 54.4922C41.1432 46.7257 34.0006 41.2763 26.2341 42.3206 19.8982 43.1726 14.9145 48.1563 14.0625 54.4922Z" stroke="#66737C" stroke-width="3.33333" stroke-linecap="round" stroke-linejoin="round" fill="none"/><path d="M3.51562 1.75781 5.27344 1.75781C6.24425 1.75781 7.03125 2.54481 7.03125 3.51562L7.03125 15.8203" stroke="#66737C" stroke-width="3.33333" stroke-linecap="round" stroke-linejoin="round" fill="none"/><path d="M3.51562 15.8203 10.5469 15.8203" stroke="#66737C" stroke-width="3.33333" stroke-linecap="round" stroke-linejoin="round" fill="none"/><path d="M3.51562 43.9453 5.27344 43.9453C6.24425 43.9453 7.03125 44.7323 7.03125 45.7031L7.03125 54.4922" stroke="#66737C" stroke-width="3.33333" stroke-linecap="round" stroke-linejoin="round" fill="none"/><path d="M45.7031 43.9453 47.4609 43.9453C48.4318 43.9453 49.2188 44.7323 49.2188 45.7031L49.2188 54.4922" stroke="#66737C" stroke-width="3.33333" stroke-linecap="round" stroke-linejoin="round" fill="none"/><path d="M24.6094 12.3047C24.6094 14.2463 23.0354 15.8203 21.0938 15.8203 19.1521 15.8203 17.5781 14.2463 17.5781 12.3047L17.5781 5.27344C17.5781 3.33181 19.1521 1.75781 21.0938 1.75781 23.0354 1.75781 24.6094 3.33181 24.6094 5.27344Z" stroke="#66737C" stroke-width="3.33333" stroke-linecap="round" stroke-linejoin="round" fill="none"/><path d="M10.5469 33.3984C10.5469 35.3401 8.97288 36.9141 7.03125 36.9141 5.08962 36.9141 3.51562 35.3401 3.51562 33.3984L3.51562 26.3672C3.51562 24.4256 5.08962 22.8516 7.03125 22.8516 8.97288 22.8516 10.5469 24.4256 10.5469 26.3672Z" stroke="#66737C" stroke-width="3.33333" stroke-linecap="round" stroke-linejoin="round" fill="none"/><path d="M45.7031 1.75781 47.4609 1.75781C48.4318 1.75781 49.2188 2.54481 49.2188 3.51562L49.2188 15.8203" stroke="#66737C" stroke-width="3.33333" stroke-linecap="round" stroke-linejoin="round" fill="none"/><path d="M45.7031 15.8203 52.7344 15.8203" stroke="#66737C" stroke-width="3.33333" stroke-linecap="round" stroke-linejoin="round" fill="none"/><path d="M38.6719 12.3047C38.6719 14.2463 37.0979 15.8203 35.1562 15.8203 33.2146 15.8203 31.6406 14.2463 31.6406 12.3047L31.6406 5.27344C31.6406 3.33181 33.2146 1.75781 35.1562 1.75781 37.0979 1.75781 38.6719 3.33181 38.6719 5.27344Z" stroke="#66737C" stroke-width="3.33333" stroke-linecap="round" stroke-linejoin="round" fill="none"/><path d="M52.7344 33.3984C52.7344 35.3401 51.1604 36.9141 49.2188 36.9141 47.2771 36.9141 45.7031 35.3401 45.7031 33.3984L45.7031 26.3672C45.7031 24.4256 47.2771 22.8516 49.2188 22.8516 51.1604 22.8516 52.7344 24.4256 52.7344 26.3672Z" stroke="#66737C" stroke-width="3.33333" stroke-linecap="round" stroke-linejoin="round" fill="none"/></svg>