<svg width="60" height="60" viewBox="-1.875 -1.875 60 60" xmlns="http://www.w3.org/2000/svg" xmlns:xlink="http://www.w3.org/1999/xlink" id="Real-Estate-Sign-Board-Sale--Streamline-Ultimate" overflow="hidden"><path d="M31.0547 25.7812 31.0547 36.3281C31.0547 38.2698 32.6287 39.8438 34.5703 39.8438L38.0859 39.8438" stroke="#66737C" stroke-width="3.33333" stroke-linecap="round" stroke-linejoin="round" fill="none"/><path d="M9.96094 25.7812 6.44531 25.7812C4.70428 25.609 3.14386 26.8574 2.92969 28.5938 2.92969 32.8125 9.96094 32.8125 9.96094 37.0312 9.74677 38.7676 8.18634 40.016 6.44531 39.8438L2.92969 39.8438" stroke="#66737C" stroke-width="3.33333" stroke-linecap="round" stroke-linejoin="round" fill="none"/><path d="M16.9922 39.8438 16.9922 29.2969C16.9922 27.3552 18.5662 25.7812 20.5078 25.7812 22.4494 25.7812 24.0234 27.3552 24.0234 29.2969L24.0234 39.8438" stroke="#66737C" stroke-width="3.33333" stroke-linecap="round" stroke-linejoin="round" fill="none"/><path d="M16.9922 32.8125 24.0234 32.8125" stroke="#66737C" stroke-width="3.33333" stroke-linecap="round" stroke-linejoin="round" fill="none"/><path d="M52.1484 39.8438 48.6328 39.8438C46.6912 39.8438 45.1172 38.2698 45.1172 36.3281L45.1172 29.2969C45.1172 27.3552 46.6912 25.7812 48.6328 25.7812L52.1484 25.7812" stroke="#66737C" stroke-width="3.33333" stroke-linecap="round" stroke-linejoin="round" fill="none"/><path d="M45.1172 32.8125 52.1484 32.8125" stroke="#66737C" stroke-width="3.33333" stroke-linecap="round" stroke-linejoin="round" fill="none"/><path d="M2.92969 18.75 52.1484 18.75" stroke="#66737C" stroke-width="3.33333" stroke-linecap="round" stroke-linejoin="round" fill="none"/><path d="M2.92969 46.875 52.1484 46.875" stroke="#66737C" stroke-width="3.33333" stroke-linecap="round" stroke-linejoin="round" fill="none"/><path d="M16.9922 18.75 26.1328 6.5625C26.7153 5.78585 27.8171 5.62845 28.5938 6.21094 28.727 6.31088 28.8454 6.42925 28.9453 6.5625L38.0859 18.75" stroke="#66737C" stroke-width="3.33333" stroke-linecap="round" stroke-linejoin="round" fill="none"/></svg>