<svg width="60" height="60" viewBox="-1.875 -1.875 60 60" xmlns="http://www.w3.org/2000/svg" xmlns:xlink="http://www.w3.org/1999/xlink" id="Recruiting-Employee-Target--Streamline-Ultimate" overflow="hidden"><defs></defs><path d="M5.08594 10.0477C5.08594 14.4409 8.64737 18.0023 13.0406 18.0023 17.4339 18.0023 20.9953 14.4409 20.9953 10.0477 20.9953 5.6544 17.4339 2.09297 13.0406 2.09297 8.64737 2.09297 5.08594 5.6544 5.08594 10.0477" stroke="#66737C" stroke-width="3.33333" stroke-linecap="round" stroke-linejoin="round" fill="none"/><path d="M17.8969 22.132C12.9858 19.4526 6.83246 21.2617 4.15302 26.1728 3.34224 27.6588 2.91682 29.3244 2.91563 31.0172L2.91563 39.6891 7.5 39.6891 8.70703 54.15 17.3789 54.15" stroke="#66737C" stroke-width="3.33333" stroke-linecap="round" stroke-linejoin="round" fill="none"/><path d="M43.0641 34.8961C45.0016 42.4063 40.4841 50.0653 32.9739 52.0029 25.4636 53.9404 17.8047 49.4229 15.8671 41.9127 13.9295 34.4024 18.4471 26.7435 25.9573 24.8059 28.3422 24.1906 30.847 24.2134 33.2203 24.8719" stroke="#66737C" stroke-width="3.33333" stroke-linecap="round" stroke-linejoin="round" fill="none"/><path d="M36.4781 38.4211C36.4781 42.3043 33.3301 45.4523 29.4469 45.4523 25.5636 45.4523 22.4156 42.3043 22.4156 38.4211 22.4156 34.5378 25.5636 31.3898 29.4469 31.3898" stroke="#66737C" stroke-width="3.33333" stroke-linecap="round" stroke-linejoin="round" fill="none"/><path d="M39.5906 28.0266 29.8289 38.4211" stroke="#66737C" stroke-width="3.33333" stroke-linecap="round" stroke-linejoin="round" fill="none"/><path d="M46.1719 21.1102 46.1648 13.5398 39.2508 19.9031 39.5906 28.0266" stroke="#66737C" stroke-width="3.33333" stroke-linecap="round" stroke-linejoin="round" fill="none"/><path d="M46.1719 21.1102 53.3344 21.1102 46.9711 28.0266 39.5906 28.0266" stroke="#66737C" stroke-width="3.33333" stroke-linecap="round" stroke-linejoin="round" fill="none"/></svg>