<svg width="60" height="60" viewBox="-1.875 -1.875 60 60" xmlns="http://www.w3.org/2000/svg" xmlns:xlink="http://www.w3.org/1999/xlink" id="Recruiting-Employee-Crane-Pick--Streamline-Ultimate" overflow="hidden"><defs></defs><path d="M43.2164 34.5C45.7115 34.7192 47.5564 36.9196 47.3372 39.4147 47.1439 41.6147 45.394 43.3556 43.193 43.5375" stroke="#66737C" stroke-width="3.33333" stroke-linecap="round" stroke-linejoin="round" fill="none"/><path d="M51.4875 54.1992C49.8775 51.0837 46.7371 49.0546 43.2352 48.8672" stroke="#66737C" stroke-width="3.33333" stroke-linecap="round" stroke-linejoin="round" fill="none"/><path d="M21.0211 37.0664C21.0211 41.3043 24.4566 44.7398 28.6945 44.7398 32.9325 44.7398 36.368 41.3043 36.368 37.0664 36.368 32.8285 32.9325 29.393 28.6945 29.393 24.4566 29.393 21.0211 32.8285 21.0211 37.0664" stroke="#66737C" stroke-width="3.33333" stroke-linecap="round" stroke-linejoin="round" fill="none"/><path d="M16.9289 54.4922C19.2944 47.9946 26.4794 44.6449 32.977 47.0105 36.3239 48.229 38.9934 50.8152 40.3172 54.1219" stroke="#66737C" stroke-width="3.33333" stroke-linecap="round" stroke-linejoin="round" fill="none"/><path d="M13.0336 34.5C10.5385 34.7192 8.69356 36.9196 8.91279 39.4147 9.10609 41.6147 10.856 43.3556 13.057 43.5375" stroke="#66737C" stroke-width="3.33333" stroke-linecap="round" stroke-linejoin="round" fill="none"/><path d="M4.7625 54.1992C6.3725 51.0837 9.5129 49.0546 13.0148 48.8672" stroke="#66737C" stroke-width="3.33333" stroke-linecap="round" stroke-linejoin="round" fill="none"/><path d="M23.8031 12.2555C23.8031 14.9168 25.9606 17.0742 28.6219 17.0742 31.2832 17.0742 33.4406 14.9168 33.4406 12.2555 33.4406 9.59415 31.2832 7.43672 28.6219 7.43672 25.9606 7.43672 23.8031 9.59415 23.8031 12.2555" stroke="#66737C" stroke-width="3.33333" stroke-linecap="round" stroke-linejoin="round" fill="none"/><path d="M24.0914 13.8961 16.5141 20.8687 20.243 26.2781" stroke="#66737C" stroke-width="3.33333" stroke-linecap="round" stroke-linejoin="round" fill="none"/><path d="M33.1523 13.8961 40.732 20.8687 37.0031 26.2781" stroke="#66737C" stroke-width="3.33333" stroke-linecap="round" stroke-linejoin="round" fill="none"/><path d="M28.6219 7.43672 28.6219 1.75781" stroke="#66737C" stroke-width="3.33333" stroke-linecap="round" stroke-linejoin="round" fill="none"/></svg>