<svg width="60" height="60" viewBox="-2.14 -2.14 60 60" xmlns="http://www.w3.org/2000/svg" xmlns:xlink="http://www.w3.org/1999/xlink" id="Retouch-Graph--Streamline-Ultimate.svg" overflow="hidden"><path d="M5.80417 1.16083 5.80417 49.9158 54.5592 49.9158" stroke="#66737C" stroke-width="3.57143" stroke-linecap="round" stroke-linejoin="round" fill="none"/><path d="M19.7342 38.3168C19.7342 40.8812 21.8131 42.9601 24.3775 42.9601 26.9419 42.9601 29.0208 40.8812 29.0208 38.3168 29.0208 35.7523 26.9419 33.6735 24.3775 33.6735 21.8131 33.6735 19.7342 35.7523 19.7342 38.3168Z" stroke="#66737C" stroke-width="3.57143" stroke-linecap="round" stroke-linejoin="round" fill="none"/><path d="M35.9858 10.4568C35.9858 13.0212 38.0647 15.1001 40.6292 15.1001 43.1936 15.1001 45.2725 13.0212 45.2725 10.4568 45.2725 7.89234 43.1936 5.81345 40.6292 5.81345 38.0647 5.81345 35.9858 7.89234 35.9858 10.4568Z" stroke="#66737C" stroke-width="3.57143" stroke-linecap="round" stroke-linejoin="round" fill="none"/><path d="M44.1627 7.44791C47.055 4.94622 50.7355 3.54239 54.5592 3.4825" stroke="#66737C" stroke-width="3.57143" stroke-linecap="round" stroke-linejoin="round" fill="none"/><path d="M27.737 35.1175C29.7387 32.1472 31.3413 28.9265 32.5033 25.5383 33.8397 21.5602 35.6762 17.7679 37.9685 14.2527" stroke="#66737C" stroke-width="3.57143" stroke-linecap="round" stroke-linejoin="round" fill="none"/><path d="M5.80417 49.9158C5.80417 49.9158 12.9178 49.4004 21.5729 42.0222" stroke="#66737C" stroke-width="3.57143" stroke-linecap="round" stroke-linejoin="round" fill="none"/><path d="M1.16083 5.80417 5.80417 1.16083 10.4475 5.80417" stroke="#66737C" stroke-width="3.57143" stroke-linecap="round" stroke-linejoin="round" fill="none"/><path d="M49.9158 45.2725 54.5592 49.9158 49.9158 54.5592" stroke="#66737C" stroke-width="3.57143" stroke-linecap="round" stroke-linejoin="round" fill="none"/></svg>