<svg width="60" height="60" viewBox="-1.875 -1.875 60 60" xmlns="http://www.w3.org/2000/svg" xmlns:xlink="http://www.w3.org/1999/xlink" id="Reward-Claps-Hand-2--Streamline-Ultimate" overflow="hidden"><defs></defs><path d="M8.25 24.9211 5.90625 22.2375C3.82288 19.7613 4.14132 16.065 6.61752 13.9817 7.36582 13.3521 8.2598 12.9198 9.21797 12.7242L27.2484 9.05625 20.4844 5.29453C19.4851 4.53218 19.293 3.10409 20.0554 2.10481 20.6951 1.26627 21.8272 0.977148 22.7906 1.40625 22.7906 1.40625 31.8984 3.68906 37.5891 5.85938 38.3181 6.13836 39.01 6.50597 39.6492 6.95391" stroke="#66737C" stroke-width="3.57143" stroke-linecap="round" stroke-linejoin="round" fill="none"/><path d="M41.543 14.175 39.8531 5.30391 49.5961 3.44766" stroke="#66737C" stroke-width="3.57143" stroke-linecap="round" stroke-linejoin="round" fill="none"/><path d="M29.9391 54.7359C27.2868 54.4077 24.897 52.9732 23.3602 50.7867L12.825 35.8336C11.3756 33.7772 11.3209 31.0464 12.6867 28.9336L18.7805 19.4977C20.6284 16.6355 24.4467 15.8132 27.3089 17.6612 27.9741 18.0906 28.5503 18.6441 29.0063 19.2914L36.675 30.1758 37.4062 22.4672C37.6664 21.4734 38.5383 20.3203 40.7742 20.8781 42.8555 21.3984 43.4156 24.1008 43.8961 25.882 43.8961 25.882 45.4617 35.1398 45.7547 41.2242 45.7919 42.0043 45.7329 42.7859 45.5789 43.5516" stroke="#66737C" stroke-width="3.57143" stroke-linecap="round" stroke-linejoin="round" fill="none"/><path d="M29.7656 55.0195 46.8164 42.5297 51.7266 49.6898" stroke="#66737C" stroke-width="3.57143" stroke-linecap="round" stroke-linejoin="round" fill="none"/><path d="M14.7984 25.6594 23.2336 37.6453" stroke="#66737C" stroke-width="3.57143" stroke-linecap="round" stroke-linejoin="round" fill="none"/><path d="M19.2305 18.8813 27.7523 30.9891" stroke="#66737C" stroke-width="3.57143" stroke-linecap="round" stroke-linejoin="round" fill="none"/></svg>