<svg width="60" height="60" viewBox="-1.875 -1.875 60 60" xmlns="http://www.w3.org/2000/svg" xmlns:xlink="http://www.w3.org/1999/xlink" id="Reward-Stars-1--Streamline-Ultimate" overflow="hidden"><defs></defs><path d="M21.4031 3.09141 25.9102 12.8062 34.6875 12.8062C35.8736 12.7611 36.8717 13.6861 36.9169 14.8722 36.9412 15.5121 36.679 16.1295 36.2016 16.5562L28.5938 24.0469 32.8125 33.7359C33.303 34.9058 32.7522 36.2518 31.5823 36.7423 30.9151 37.022 30.1551 36.971 29.5312 36.6047L19.3477 30.8719 9.14062 36.6047C8.0448 37.2411 6.64052 36.8687 6.00409 35.7729 5.64355 35.1521 5.59433 34.3983 5.87109 33.7359L10.0898 24.0516 2.48672 16.5633C1.60069 15.7754 1.52115 14.4184 2.30906 13.5323 2.73294 13.0557 3.34684 12.7922 3.98437 12.8133L12.7547 12.8133 17.257 3.09141C17.8609 1.94649 19.2786 1.50792 20.4235 2.11181 20.8413 2.33218 21.1828 2.67363 21.4031 3.09141Z" stroke="#66737C" stroke-width="3.33333" stroke-linecap="round" stroke-linejoin="round" fill="none"/><path d="M48.6328 36.3281 48.6328 44.5312" stroke="#66737C" stroke-width="3.33333" stroke-linecap="round" stroke-linejoin="round" fill="none"/><path d="M44.5312 40.4297 52.7344 40.4297" stroke="#66737C" stroke-width="3.33333" stroke-linecap="round" stroke-linejoin="round" fill="none"/><path d="M18.75 45.1172 18.75 54.4922" stroke="#66737C" stroke-width="3.33333" stroke-linecap="round" stroke-linejoin="round" fill="none"/><path d="M14.0625 49.8047 23.4375 49.8047" stroke="#66737C" stroke-width="3.33333" stroke-linecap="round" stroke-linejoin="round" fill="none"/><path d="M49.8047 1.75781 49.8047 11.1328" stroke="#66737C" stroke-width="3.33333" stroke-linecap="round" stroke-linejoin="round" fill="none"/><path d="M45.1172 6.44531 54.4922 6.44531" stroke="#66737C" stroke-width="3.33333" stroke-linecap="round" stroke-linejoin="round" fill="none"/></svg>