<svg width="60" height="60" viewBox="-2.14 -2.14 60 60" xmlns="http://www.w3.org/2000/svg" xmlns:xlink="http://www.w3.org/1999/xlink" id="Reward-Stars-3--Streamline-Ultimate.svg" fill="none" overflow="hidden"><path d="M38.5977 31.8621C27.0179 35.7643 23.2005 40.1093 20.3777 50.9313 17.555 40.1093 13.7376 35.7643 2.15777 31.8621 13.7376 27.9601 17.555 23.6151 20.3777 12.793 23.2005 23.6151 27.0179 27.9601 38.5977 31.8621Z" stroke="#66737C" stroke-width="3.57143" stroke-linecap="round" stroke-linejoin="round"/><path d="M52.963 13.8097C46.431 16.002 44.2779 18.4432 42.6855 24.5233 41.0933 18.4432 38.9399 16.002 32.4081 13.8097 38.9399 11.6174 41.0933 9.17611 42.6855 3.09594 44.2779 9.17611 46.431 11.6174 52.963 13.8097Z" stroke="#66737C" stroke-width="3.57143" stroke-linecap="round" stroke-linejoin="round"/><path d="M53.8121 45.4169C48.9774 47.0054 47.3836 48.7745 46.2049 53.1803 45.0264 48.7745 43.4326 47.0054 38.5977 45.4169 43.4326 43.8282 45.0264 42.0593 46.2049 37.6535 47.3836 42.0593 48.9774 43.8282 53.8121 45.4169Z" stroke="#66737C" stroke-width="3.57143" stroke-linecap="round" stroke-linejoin="round"/></svg>