<svg width="60" height="60" viewBox="-2.14 -2.14 60 60" xmlns="http://www.w3.org/2000/svg" xmlns:xlink="http://www.w3.org/1999/xlink" id="Router-Signal-1--Streamline-Ultimate.svg" fill="none" overflow="hidden"><path d="M54.5592 45.2725C54.5592 46.5039 54.07 47.6849 53.1991 48.5558 52.3283 49.4267 51.1472 49.9158 49.9158 49.9158L5.80417 49.9158C4.57269 49.9158 3.39163 49.4267 2.52084 48.5558 1.65004 47.6849 1.16083 46.5039 1.16083 45.2725L1.16083 40.6292C1.16083 39.3978 1.65004 38.2167 2.52084 37.3459 3.39163 36.475 4.57269 35.9858 5.80417 35.9858L49.9158 35.9858C51.1472 35.9858 52.3283 36.475 53.1991 37.3459 54.07 38.2167 54.5592 39.3978 54.5592 40.6292L54.5592 45.2725Z" stroke="#66737C" stroke-width="3.57143" stroke-linecap="round" stroke-linejoin="round"/><path d="M11.0279 43.5312C10.7074 43.5312 10.4475 43.2715 10.4475 42.9508 10.4475 42.6302 10.7074 42.3704 11.0279 42.3704" stroke="#66737C" stroke-width="3.57143"/><path d="M11.0279 43.5312C11.3485 43.5312 11.6083 43.2715 11.6083 42.9508 11.6083 42.6302 11.3485 42.3704 11.0279 42.3704" stroke="#66737C" stroke-width="3.57143"/><path d="M19.1537 43.5312C18.8332 43.5312 18.5733 43.2715 18.5733 42.9508 18.5733 42.6302 18.8332 42.3704 19.1537 42.3704" stroke="#66737C" stroke-width="3.57143"/><path d="M19.1537 43.5312C19.4743 43.5312 19.7342 43.2715 19.7342 42.9508 19.7342 42.6302 19.4743 42.3704 19.1537 42.3704" stroke="#66737C" stroke-width="3.57143"/><path d="M44.4158 17.4125C42.2887 15.3669 39.4523 14.2243 36.5012 14.2243 33.5502 14.2243 30.7138 15.3669 28.5867 17.4125" stroke="#66737C" stroke-width="3.57143" stroke-linecap="round" stroke-linejoin="round"/><path d="M49.1636 12.7947C45.7605 9.52116 41.2221 7.69266 36.5001 7.69266 31.7783 7.69266 27.2397 9.52116 23.8366 12.7947" stroke="#66737C" stroke-width="3.57143" stroke-linecap="round" stroke-linejoin="round"/><path d="M53.9137 8.17461C49.234 3.67427 42.9938 1.16055 36.5012 1.16055 30.0087 1.16055 23.7683 3.67427 19.0887 8.17461" stroke="#66737C" stroke-width="3.57143" stroke-linecap="round" stroke-linejoin="round"/><path d="M36.5012 35.9858 36.5012 24.3775" stroke="#66737C" stroke-width="3.57143" stroke-linecap="round" stroke-linejoin="round"/><path d="M9.28667 49.9158 5.80417 54.5592" stroke="#66737C" stroke-width="3.57143" stroke-linecap="round" stroke-linejoin="round"/><path d="M46.4333 49.9158 49.9158 54.5592" stroke="#66737C" stroke-width="3.57143" stroke-linecap="round" stroke-linejoin="round"/></svg>