<svg width="60" height="60" viewBox="-1.875 -1.875 60 60" xmlns="http://www.w3.org/2000/svg" xmlns:xlink="http://www.w3.org/1999/xlink" id="Sailing-Archor--Streamline-Ultimate" overflow="hidden"><path d="M24.6094 5.27344C24.6094 7.21506 26.1834 8.78906 28.125 8.78906 30.0666 8.78906 31.6406 7.21506 31.6406 5.27344 31.6406 3.33181 30.0666 1.75781 28.125 1.75781 26.1834 1.75781 24.6094 3.33181 24.6094 5.27344Z" stroke="#66737C" stroke-width="3.57143" stroke-linecap="round" stroke-linejoin="round" fill="none"/><path d="M28.125 8.78906 28.125 31.6406" stroke="#66737C" stroke-width="3.57143" stroke-linecap="round" stroke-linejoin="round" fill="none"/><path d="M19.3359 19.3359 15.8203 19.3359C15.8203 26.1316 21.3293 31.6406 28.125 31.6406 34.9207 31.6406 40.4297 26.1316 40.4297 19.3359L36.9141 19.3359" stroke="#66737C" stroke-width="3.57143" stroke-linecap="round" stroke-linejoin="round" fill="none"/><path d="M24.6094 15.8203 31.6406 15.8203" stroke="#66737C" stroke-width="3.57143" stroke-linecap="round" stroke-linejoin="round" fill="none"/><path d="M1.75781 54.5859C5.22811 54.5802 8.48969 52.9276 10.5469 50.1328 14.1037 54.9869 20.9222 56.0385 25.7762 52.4816 26.6746 51.8233 27.4667 51.0312 28.125 50.1328 31.6819 54.9869 38.5003 56.0385 43.3543 52.4816 44.2527 51.8233 45.0448 51.0312 45.7031 50.1328 47.7603 52.9276 51.0219 54.5802 54.4922 54.5859" stroke="#66737C" stroke-width="3.57143" stroke-linecap="round" stroke-linejoin="round" fill="none"/><path d="M1.75781 43.6898C5.22793 43.6833 8.48919 42.0309 10.5469 39.2367 14.1037 44.0908 20.9222 45.1424 25.7762 41.5855 26.6746 40.9272 27.4667 40.1351 28.125 39.2367 31.6819 44.0908 38.5003 45.1424 43.3543 41.5855 44.2527 40.9272 45.0448 40.1351 45.7031 39.2367 47.7608 42.0309 51.0221 43.6833 54.4922 43.6898" stroke="#66737C" stroke-width="3.57143" stroke-linecap="round" stroke-linejoin="round" fill="none"/></svg>