<svg width="60" height="60" viewBox="-2.14 -2.14 60 60" xmlns="http://www.w3.org/2000/svg" xmlns:xlink="http://www.w3.org/1999/xlink" id="Satellite-Signal--Streamline-Ultimate.svg" overflow="hidden"><path d="M34.4907 31.0802 39.4149 36.0044" stroke="#66737C" stroke-width="3.57143" stroke-linecap="round" stroke-linejoin="round" fill="none"/><path d="M35.7217 39.6996 43.1092 32.3121 55.4217 44.6246 48.0342 52.0121Z" stroke="#66737C" stroke-width="3.57143" stroke-linecap="round" stroke-linejoin="round" fill="none"/><path d="M24.6398 21.2293 19.7156 16.3051" stroke="#66737C" stroke-width="3.57143" stroke-linecap="round" stroke-linejoin="round" fill="none"/><path d="M3.70683 7.68611 11.0943 0.298611 23.4068 12.6111 16.0193 19.9986Z" stroke="#66737C" stroke-width="3.57143" stroke-linecap="round" stroke-linejoin="round" fill="none"/><path d="M22.6362 26.1187C22.6362 29.9654 25.7546 33.0837 29.6012 33.0837 33.4479 33.0837 36.5662 29.9654 36.5662 26.1187 36.5662 22.2721 33.4479 19.1537 29.6012 19.1537 25.7546 19.1537 22.6362 22.2721 22.6362 26.1187Z" stroke="#66737C" stroke-width="3.57143" stroke-linecap="round" stroke-linejoin="round" fill="none"/><path d="M6.84195 24.2545C-0.0300979 30.9816-0.147532 42.006 6.57965 48.878 13.3068 55.7501 24.3312 55.8675 31.2033 49.1403 31.2916 49.0538 31.379 48.9664 31.4655 48.878" stroke="#66737C" stroke-width="3.57143" stroke-linecap="round" stroke-linejoin="round" fill="none"/><path d="M13.0013 30.4138C9.72339 33.9317 9.91785 39.4407 13.4357 42.7187 16.7792 45.8342 21.9626 45.8342 25.3062 42.7187" stroke="#66737C" stroke-width="3.57143" stroke-linecap="round" stroke-linejoin="round" fill="none"/></svg>