<svg width="60" height="60" viewBox="-2.14 -2.14 60 60" xmlns="http://www.w3.org/2000/svg" xmlns:xlink="http://www.w3.org/1999/xlink" id="Saving-Piggy-Dollars--Streamline-Ultimate.svg" fill="none" overflow="hidden"><path d="M34.8698 46.265C36.466 45.0942 37.7712 43.5721 38.6852 41.8165 39.5993 40.0606 40.0975 38.1183 40.1412 36.1395 40.1412 28.4618 32.6724 22.2308 23.4509 22.2308 21.6304 22.2307 19.8187 22.4842 18.0682 22.9842 17.025 21.5177 15.5635 20.4004 13.8748 19.7782 13.7009 19.7183 13.5152 19.7005 13.3331 19.7265 13.151 19.7525 12.9777 19.8215 12.8276 19.9277 12.6774 20.0339 12.5546 20.1744 12.4695 20.3375 12.3844 20.5005 12.3392 20.6815 12.3379 20.8654L12.3379 25.8262C10.4582 27.2222 9.00776 29.1176 8.15139 31.297L5.83328 31.297C5.52587 31.297 5.23106 31.4191 5.01371 31.6364 4.79633 31.8537 4.67423 32.1486 4.67423 32.456L4.67423 39.4103C4.67423 39.7177 4.79633 40.0125 5.01371 40.2298 5.23106 40.4471 5.52587 40.5693 5.83328 40.5693L8.15139 40.5693C9.08076 43.0514 10.7047 45.2138 12.8293 46.7981L11.3782 50.7389C11.2404 51.0839 11.1731 51.453 11.1803 51.8245 11.1876 52.1959 11.2691 52.5623 11.4202 52.9017 11.5713 53.2412 11.7889 53.5469 12.0601 53.8009 12.3313 54.0549 12.6506 54.252 12.9992 54.3804 13.3478 54.509 13.7186 54.5664 14.0898 54.5492 14.4609 54.5322 14.8249 54.4408 15.1602 54.2808 15.4955 54.1206 15.7953 53.8949 16.0419 53.617 16.2886 53.3394 16.4771 53.0148 16.5962 52.6628L17.8643 49.2228C21.8099 50.405 26.0277 50.3133 29.9184 48.9609L31.2838 52.6698C31.4029 53.0218 31.5914 53.3463 31.8382 53.624 32.0847 53.9019 32.3845 54.1276 32.7199 54.2878 33.0552 54.4477 33.419 54.5392 33.7902 54.5561 34.1615 54.5733 34.5322 54.516 34.8807 54.3874 35.2294 54.259 35.5487 54.0619 35.8198 53.8079 36.0912 53.5539 36.3088 53.2481 36.4597 52.9087 36.6108 52.5693 36.6925 52.2029 36.6997 51.8314 36.7069 51.46 36.6396 51.0908 36.5019 50.7458L34.8698 46.265Z" stroke="#66737C" stroke-width="3.57143" stroke-linecap="round" stroke-linejoin="round"/><path d="M40.1412 36.1393C43.8502 36.1393 45.7046 34.285 45.7046 31.5032" stroke="#66737C" stroke-width="3.57143" stroke-linecap="round" stroke-linejoin="round"/><path d="M24.9507 15.7031C24.7011 13.4721 25.0299 11.2145 25.9049 9.14716 26.78 7.07988 28.172 5.27239 29.9474 3.89845 31.7226 2.52451 33.8216 1.63031 36.0423 1.30176 38.2629 0.973219 40.5307 1.22139 42.6279 2.02242 44.7248 2.82345 46.5808 4.15042 48.0169 5.87579 49.4531 7.60114 50.4213 9.66691 50.8285 11.8745 51.2357 14.0821 51.0683 16.3574 50.3423 18.4816 49.6163 20.6059 48.3561 22.5076 46.6829 24.0042" stroke="#66737C" stroke-width="3.57143" stroke-linecap="round" stroke-linejoin="round"/><path d="M38.2961 6.95676 38.2961 4.63867" stroke="#66737C" stroke-width="3.57143" stroke-linecap="round" stroke-linejoin="round"/><path d="M41.764 6.95678 37.0605 6.95678C36.3383 6.95729 35.6387 7.20908 35.0818 7.66898 34.5248 8.12887 34.1454 8.76822 34.0082 9.47735 33.8713 10.1865 33.9853 10.9212 34.3307 11.5555 34.6759 12.1898 35.2313 12.6841 35.9013 12.9537L40.686 14.8685C41.3556 15.1379 41.9107 15.6319 42.2562 16.2657 42.6017 16.8995 42.7161 17.6337 42.5796 18.3426 42.4431 19.0514 42.0644 19.6908 41.5084 20.151 40.9523 20.6113 40.2535 20.8638 39.5315 20.8654L34.8097 20.8654" stroke="#66737C" stroke-width="3.57143" stroke-linecap="round" stroke-linejoin="round"/><path d="M38.2961 23.1835 38.2961 20.8654" stroke="#66737C" stroke-width="3.57143" stroke-linecap="round" stroke-linejoin="round"/><path d="M15.6954 33.6168C15.3749 33.6168 15.115 33.357 15.115 33.0364 15.115 32.7158 15.3749 32.456 15.6954 32.456" stroke="#66737C" stroke-width="3.57143"/><path d="M15.6936 33.6168C16.0142 33.6168 16.274 33.357 16.274 33.0364 16.274 32.7158 16.0142 32.456 15.6936 32.456" stroke="#66737C" stroke-width="3.57143"/></svg>