<svg width="60" height="60" viewBox="-2.14 -2.14 60 60" xmlns="http://www.w3.org/2000/svg" xmlns:xlink="http://www.w3.org/1999/xlink" id="Science-Momentum--Streamline-Ultimate.svg" stroke="#000000" overflow="hidden"><path d="M1.72732 6.38458 53.9787 6.38458" stroke="#66737C" stroke-width="3.57143" stroke-linecap="round" stroke-linejoin="round" fill="none"/><path d="M3.4825 42.9508C3.4825 46.7975 6.60084 49.9158 10.4475 49.9158 14.2942 49.9158 17.4125 46.7975 17.4125 42.9508 17.4125 39.1042 14.2942 35.9858 10.4475 35.9858 6.60084 35.9858 3.4825 39.1042 3.4825 42.9508" stroke="#66737C" stroke-width="3.57143" stroke-linecap="round" stroke-linejoin="round" fill="none"/><path d="M10.4475 35.9858 10.4475 6.38458" stroke="#66737C" stroke-width="3.57143" stroke-linecap="round" stroke-linejoin="round" fill="none"/><path d="M17.4125 42.9508C17.4125 46.7975 20.5308 49.9158 24.3775 49.9158 28.2242 49.9158 31.3425 46.7975 31.3425 42.9508 31.3425 39.1042 28.2242 35.9858 24.3775 35.9858 20.5308 35.9858 17.4125 39.1042 17.4125 42.9508" stroke="#66737C" stroke-width="3.57143" stroke-linecap="round" stroke-linejoin="round" fill="none"/><path d="M24.3775 35.9858 24.3775 6.38458M52.9503 34.0867C54.9617 37.3656 53.9342 41.6542 50.6554 43.6656 47.3765 45.6771 43.0879 44.6496 41.0765 41.3708 39.065 38.0919 40.0925 33.8033 43.3713 31.7918 43.372 31.7914 43.3727 31.791 43.3734 31.7906 46.6521 29.7808 50.9393 30.8087 52.9503 34.0867ZM44.4437 31.2543 34.6416 6.38458" stroke="#66737C" stroke-width="3.57143" stroke-linecap="round" stroke-linejoin="round" fill="none"/></svg>