<svg width="60" height="60" viewBox="-1.875 -1.875 60 60" xmlns="http://www.w3.org/2000/svg" xmlns:xlink="http://www.w3.org/1999/xlink" id="Science-Molecules--Streamline-Ultimate" stroke="#000000" overflow="hidden"><path d="M17.6836 19.2563C25.4934 13.4896 36.4994 15.146 42.266 22.9558 48.0326 30.7657 46.3763 41.7716 38.5664 47.5382 30.7566 53.3049 19.7506 51.6485 13.984 43.8386 11.7518 40.8155 10.5471 37.1564 10.5469 33.3984 10.5471 32.6832 10.5902 31.9687 10.6758 31.2586" stroke="#66737C" stroke-width="3.57143" stroke-linecap="round" stroke-linejoin="round" fill="none"/><path d="M43.875 7.03125C43.875 9.96311 46.2517 12.3398 49.1836 12.3398 52.1154 12.3398 54.4922 9.96311 54.4922 7.03125 54.4922 4.09939 52.1154 1.72266 49.1836 1.72266 46.2517 1.72266 43.875 4.09939 43.875 7.03125" stroke="#66737C" stroke-width="3.57143" stroke-linecap="round" stroke-linejoin="round" fill="none"/><path d="M45.7172 18.0211C41.3993 24.4136 36.4442 30.3518 30.9281 35.7445 18.0141 48.6586 5.21016 56.7938 2.32969 53.9062 0.278906 51.8555 3.9 44.6953 10.7672 36.1312M30.7453 16.0148C33.1415 14.0358 35.6453 12.1907 38.2453 10.4883" stroke="#66737C" stroke-width="3.57143" stroke-linecap="round" stroke-linejoin="round" fill="none"/><path d="M23.9648 16.3148C15.2508 9.28359 7.92656 5.53359 5.85234 7.60078-1.70625 15.1594 44.4094 59.9016 50.3906 53.9062 52.1672 52.1273 49.7484 46.5656 44.5945 39.5297" stroke="#66737C" stroke-width="3.57143" stroke-linecap="round" stroke-linejoin="round" fill="none"/></svg>