<svg width="60" height="60" viewBox="-1.875 -1.875 60 60" xmlns="http://www.w3.org/2000/svg" xmlns:xlink="http://www.w3.org/1999/xlink" id="Science-Brain--Streamline-Ultimate" fill="none" overflow="hidden"><path d="M11.0719 8.76094C12.3258 4.52109 14.3789 1.75781 16.6992 1.75781 19.0195 1.75781 21.0727 4.52109 22.3242 8.76094" stroke="#66737C" stroke-width="3.57143" stroke-linecap="round" stroke-linejoin="round"/><path d="M22.3242 28.1531C21.0726 32.393 19.0195 35.1562 16.6992 35.1562 14.3789 35.1562 12.3257 32.393 11.0742 28.1531" stroke="#66737C" stroke-width="3.57143" stroke-linecap="round" stroke-linejoin="round"/><path d="M20.1236 24.4277C28.1536 19.8235 33.1303 13.4174 31.2394 10.1194 29.3482 6.82134 21.3057 7.88023 13.2757 12.4845 5.24564 17.0887 0.268971 23.4947 2.15999 26.7928 4.05101 30.0909 12.0936 29.032 20.1236 24.4277Z" stroke="#66737C" stroke-width="3.57143" stroke-linecap="round" stroke-linejoin="round"/><path d="M31.2382 26.794C33.1291 23.4959 28.1524 17.0899 20.1225 12.4856 12.0925 7.8814 4.04986 6.82249 2.15884 10.1205 0.267827 13.4186 5.24449 19.8246 13.2745 24.4289 21.3046 29.0332 29.3473 30.0921 31.2382 26.794Z" stroke="#66737C" stroke-width="3.57143" stroke-linecap="round" stroke-linejoin="round"/><path d="M12.3047 54.4922 12.3047 45.7031" stroke="#66737C" stroke-width="3.57143" stroke-linecap="round" stroke-linejoin="round"/><path d="M27.2461 1.75781C43.9781 1.75781 47.5898 15.5344 53.5547 31.0078 53.6569 31.2743 53.6927 31.5614 53.6592 31.8448 53.6259 32.1281 53.524 32.3991 53.3625 32.6341 53.2012 32.8695 52.9849 33.0619 52.7327 33.195 52.4803 33.3281 52.1993 33.398 51.9141 33.3984L47.4609 33.3984 47.4609 40.4297C47.4609 42.2944 46.7201 44.0829 45.4015 45.4015 44.0829 46.7201 42.2944 47.4609 40.4297 47.4609L36.9141 47.4609 36.9141 54.4922" stroke="#66737C" stroke-width="3.57143" stroke-linecap="round" stroke-linejoin="round"/><path d="M16.6987 19.335C16.2132 19.335 15.8197 18.9415 15.8197 18.4561 15.8197 17.9707 16.2132 17.5772 16.6987 17.5772" stroke="#66737C" stroke-width="3.57143"/><path d="M16.6987 19.335C17.184 19.335 17.5776 18.9415 17.5776 18.4561 17.5776 17.9707 17.184 17.5772 16.6987 17.5772" stroke="#66737C" stroke-width="3.57143"/></svg>