<svg width="60" height="60" viewBox="-1.875 -1.875 60 60" xmlns="http://www.w3.org/2000/svg" xmlns:xlink="http://www.w3.org/1999/xlink" id="Security-Unlock--Streamline-Ultimate" fill="none" overflow="hidden"><path d="M42.1875 26.3672 14.0625 26.3672C11.1501 26.3672 8.78906 28.7283 8.78906 31.6406L8.78906 49.2188C8.78906 52.1311 11.1501 54.4922 14.0625 54.4922L42.1875 54.4922C45.0998 54.4922 47.4609 52.1311 47.4609 49.2188L47.4609 31.6406C47.4609 28.7283 45.0998 26.3672 42.1875 26.3672Z" stroke="#66737C" stroke-width="3.33333" stroke-linecap="round" stroke-linejoin="round"/><path d="M15.8203 14.0625C15.8203 10.7991 17.1167 7.66936 19.4243 5.36177 21.7319 3.05419 24.8616 1.75781 28.125 1.75781 31.3884 1.75781 34.518 3.05419 36.8257 5.36177 39.1334 7.66936 40.4297 10.7991 40.4297 14.0625L40.4297 26.3672" stroke="#66737C" stroke-width="3.33333" stroke-linecap="round" stroke-linejoin="round"/><path d="M8.78906 40.4297 47.4609 40.4297" stroke="#66737C" stroke-width="3.33333" stroke-linecap="round" stroke-linejoin="round"/><path d="M17.5781 34.2773C17.0927 34.2773 16.6992 33.8838 16.6992 33.3984 16.6992 32.913 17.0927 32.5195 17.5781 32.5195" stroke="#66737C" stroke-width="3.33333"/><path d="M17.5781 34.2773C18.0635 34.2773 18.457 33.8838 18.457 33.3984 18.457 32.913 18.0635 32.5195 17.5781 32.5195" stroke="#66737C" stroke-width="3.33333"/><g><path d="M17.5781 48.3398C17.0927 48.3398 16.6992 47.9463 16.6992 47.4609 16.6992 46.9755 17.0927 46.582 17.5781 46.582" stroke="#66737C" stroke-width="3.33333"/><path d="M17.5781 48.3398C18.0635 48.3398 18.457 47.9463 18.457 47.4609 18.457 46.9755 18.0635 46.582 17.5781 46.582" stroke="#66737C" stroke-width="3.33333"/></g></svg>