<svg width="60" height="60" viewBox="-1.875 -1.875 60 60" xmlns="http://www.w3.org/2000/svg" xmlns:xlink="http://www.w3.org/1999/xlink" id="Seo-Label--Streamline-Ultimate" fill="none" overflow="hidden"><path d="M33.3984 54.4922 2.46094 24.5086C2.02137 24.0691 1.77435 23.4731 1.77422 22.8516L1.75781 4.10156C1.75781 3.47995 2.00474 2.88382 2.44427 2.44427 2.88382 2.00474 3.47995 1.75781 4.10156 1.75781L22.8516 1.75781C23.1603 1.75757 23.4661 1.81832 23.7511 1.93657 24.0363 2.05482 24.2953 2.22824 24.5133 2.44688L54.4922 31.6406" stroke="#66737C" stroke-width="3.33333" stroke-linecap="round" stroke-linejoin="round"/><path d="M11.4258 12.3047C10.9404 12.3047 10.5469 11.9112 10.5469 11.4258 10.5469 10.9404 10.9404 10.5469 11.4258 10.5469" stroke="#66737C" stroke-width="3.33333"/><path d="M11.4258 12.3047C11.9112 12.3047 12.3047 11.9112 12.3047 11.4258 12.3047 10.9404 11.9112 10.5469 11.4258 10.5469" stroke="#66737C" stroke-width="3.33333"/><path d="M46.6404 33.7992C45.9813 33.1402 45.0872 32.7698 44.1548 32.7698 43.2227 32.7698 42.3286 33.1402 41.6693 33.7992L34.2021 41.25C33.5618 41.913 33.2074 42.8011 33.2154 43.7229 33.2234 44.6447 33.5932 45.5264 34.245 46.1782 34.8968 46.83 35.7785 47.1998 36.7003 47.2078 37.6221 47.2158 38.5102 46.8614 39.1732 46.2211L46.6404 38.7703C47.2995 38.111 47.6698 37.2169 47.6698 36.2848 47.6698 35.3524 47.2995 34.4585 46.6404 33.7992Z" stroke="#66737C" stroke-width="3.33333" stroke-linecap="round" stroke-linejoin="round"/><path d="M29.2289 16.4061 26.7445 13.9194C26.418 13.5927 26.0304 13.3335 25.6036 13.1567 25.177 12.9799 24.7198 12.8889 24.2578 12.8889 23.7959 12.8889 23.3386 12.9799 22.9119 13.1567 22.4852 13.3335 22.0976 13.5927 21.7711 13.9194 18.0422 17.6483 23.0156 22.6194 19.2867 26.3412 18.9602 26.6679 18.5726 26.9271 18.1459 27.1041 17.7192 27.2808 17.2619 27.3717 16.8 27.3717 16.3381 27.3717 15.8808 27.2808 15.4541 27.1041 15.0274 26.9271 14.6398 26.6679 14.3133 26.3412L11.8289 23.8568" stroke="#66737C" stroke-width="3.33333" stroke-linecap="round" stroke-linejoin="round"/><path d="M26.7445 38.7703 24.2578 36.2859C23.9311 35.9595 23.6719 35.5718 23.4952 35.1452 23.3182 34.7184 23.2272 34.2612 23.2272 33.7992 23.2272 33.3375 23.3182 32.8802 23.4952 32.4534 23.6719 32.0266 23.9311 31.639 24.2578 31.3125L31.7156 23.857C32.3747 23.1981 33.2688 22.8278 34.2012 22.8278 35.1333 22.8278 36.0274 23.1981 36.6867 23.857L39.1734 26.3414" stroke="#66737C" stroke-width="3.33333" stroke-linecap="round" stroke-linejoin="round"/><path d="M26.7445 28.8281 31.7156 33.7992" stroke="#66737C" stroke-width="3.33333" stroke-linecap="round" stroke-linejoin="round"/></svg>