<svg width="60" height="60" viewBox="-2.14 -2.14 60 60" xmlns="http://www.w3.org/2000/svg" xmlns:xlink="http://www.w3.org/1999/xlink" id="Settings-Human--Streamline-Ultimate.svg" overflow="hidden"><path d="M45.2725 53.9787 45.2725 39.4335C54.0814 31.2729 54.6069 17.5164 46.4462 8.70751 42.3257 4.25966 36.5351 1.73442 30.4719 1.74125 13.0501 1.74125 9.98317 16.8205 3.4825 33.0838L10.4475 33.0838 10.4475 40.0488C10.4475 43.8954 13.5658 47.0138 17.4125 47.0138L20.895 47.0137 20.895 53.9787" stroke="#66737C" stroke-width="3.57143" stroke-linecap="round" stroke-linejoin="round" fill="none"/><path d="M26.1187 24.3775C26.1187 26.3008 27.6779 27.86 29.6012 27.86 31.5246 27.86 33.0837 26.3008 33.0838 24.3775 33.0838 22.4542 31.5246 20.895 29.6013 20.895 27.6779 20.895 26.1188 22.4542 26.1188 24.3775Z" stroke="#66737C" stroke-width="3.57143" stroke-linecap="round" stroke-linejoin="round" fill="none"/><path d="M26.6434 10.9118 25.6173 14.2782C25.2659 15.44 24.0746 16.1311 22.8916 15.8593L19.4741 15.0676C17.7993 14.6902 16.1355 15.7419 15.758 17.4168 15.5324 18.4178 15.8153 19.4656 16.514 20.2171L18.9077 22.7964C19.7364 23.6876 19.7364 25.0674 18.9077 25.9586L16.514 28.5379C15.3449 29.7953 15.4165 31.7623 16.6739 32.9314 17.4253 33.6301 18.4732 33.913 19.4741 33.6874L22.8916 32.8957C24.0746 32.6239 25.2659 33.315 25.6173 34.4767L26.6434 37.8501C27.1331 39.4837 28.8543 40.411 30.4878 39.9214 31.4826 39.6232 32.2609 38.8449 32.5591 37.8501L33.5852 34.4767C33.9366 33.315 35.1279 32.6239 36.3109 32.8957L39.7284 33.6874C41.4032 34.0648 43.067 33.0131 43.4445 31.3382 43.6701 30.3372 43.3872 29.2894 42.6885 28.5379L40.2948 25.9586C39.4661 25.0674 39.4661 23.6876 40.2948 22.7964L42.6885 20.2171C43.8576 18.9597 43.786 16.9927 42.5286 15.8236 41.7772 15.1249 40.7293 14.842 39.7284 15.0676L36.3109 15.8593C35.1279 16.1311 33.9366 15.44 33.5852 14.2783L32.5591 10.9118C32.0694 9.27828 30.3482 8.35096 28.7147 8.8406 27.7199 9.13878 26.9416 9.91705 26.6434 10.9118Z" stroke="#66737C" stroke-width="3.57143" stroke-linecap="round" stroke-linejoin="round" fill="none"/></svg>