<svg width="60" height="60" viewBox="-1.875 -1.875 60 60" xmlns="http://www.w3.org/2000/svg" xmlns:xlink="http://www.w3.org/1999/xlink" id="Shield-Warning--Streamline-Ultimate" fill="none" overflow="hidden"><style>
.MsftOfcResponsive_Stroke_66737c {
 stroke:#66737C; 
}
</style>
<path d="M5.27337 9.19458 5.27337 27.0398C5.27341 32.6805 6.98271 38.1886 10.1759 42.8384 13.3691 47.4879 17.8964 51.0609 23.1609 53.0859L25.6008 54.0234C27.2255 54.6485 29.0243 54.6485 30.6492 54.0234L33.0891 53.0859C38.3536 51.0609 42.8808 47.4879 46.0739 42.8384 49.2673 38.1886 50.9766 32.6805 50.9766 27.0398L50.9766 9.19458C50.981 8.52305 50.7914 7.86452 50.4305 7.2982 50.0695 6.73191 49.5527 6.28191 48.9422 6.00239 42.3792 3.13784 35.2854 1.69143 28.125 1.75785 20.9644 1.69143 13.8706 3.13784 7.30774 6.00239 6.69715 6.28191 6.1803 6.73191 5.81941 7.2982 5.4585 7.86452 5.26889 8.52305 5.27337 9.19458L5.27337 9.19458Z" class="MsftOfcResponsive_Stroke_66737c" stroke="#66737C" stroke-width="3.33333" stroke-linecap="round" stroke-linejoin="round"/><path d="M28.125 33.3984C27.6396 33.3984 27.2461 33.0049 27.2461 32.5195 27.2461 32.0341 27.6396 31.6406 28.125 31.6406" class="MsftOfcResponsive_Stroke_66737c" stroke="#66737C" stroke-width="3.33333"/><path d="M28.125 33.3984C28.6104 33.3984 29.0039 33.0049 29.0039 32.5195 29.0039 32.0341 28.6104 31.6406 28.125 31.6406" class="MsftOfcResponsive_Stroke_66737c" stroke="#66737C" stroke-width="3.33333"/><path d="M28.125 26.3672 28.125 15.8203" class="MsftOfcResponsive_Stroke_66737c" stroke="#66737C" stroke-width="3.33333" stroke-linecap="round" stroke-linejoin="round"/></svg>