<svg width="60" height="60" viewBox="-1.875 -1.875 60 60" xmlns="http://www.w3.org/2000/svg" xmlns:xlink="http://www.w3.org/1999/xlink" id="Shipping-Food--Streamline-Ultimate" fill="none" overflow="hidden"><path d="M32.2266 42.7734C35.4626 42.7734 38.0859 39.6255 38.0859 35.7422 38.0859 31.8588 35.4626 28.7109 32.2266 28.7109 28.9905 28.7109 26.3672 31.8588 26.3672 35.7422 26.3672 39.6255 28.9905 42.7734 32.2266 42.7734Z" stroke="#66737C" stroke-width="3.33333" stroke-linecap="round" stroke-linejoin="round" stroke-miterlimit="10"/><path d="M32.2266 54.4922 32.2266 42.7734" stroke="#66737C" stroke-width="3.33333" stroke-linecap="round" stroke-linejoin="round" stroke-miterlimit="10"/><path d="M45.1172 54.4922 45.1172 45.1172M45.1172 45.1172 54.4922 45.1172C54.4922 40.4297 54.4922 33.3984 45.1172 28.7109L45.1172 45.1172Z" stroke="#66737C" stroke-width="3.33333" stroke-linecap="round" stroke-linejoin="round" stroke-miterlimit="10"/><path d="M19.8047 43.9453 5.27344 43.9453C3.39844 43.9453 1.75781 42.3047 1.75781 40.4297L1.75781 15.8203C1.75781 13.9453 3.39844 12.3047 5.27344 12.3047L40.4297 12.3047C42.3047 12.3047 43.9453 13.9453 43.9453 15.8203L43.9453 19.8047" stroke="#66737C" stroke-width="3.33333" stroke-linecap="round" stroke-linejoin="round" stroke-miterlimit="10"/><path d="M42.7734 13.2422 36.2109 3.39844C35.5078 2.46094 34.5703 1.75781 33.3984 1.75781L12.5391 1.75781C11.3672 1.75781 10.1953 2.46094 9.72656 3.39844L2.92969 13.2422" stroke="#66737C" stroke-width="3.33333" stroke-linecap="round" stroke-linejoin="round" stroke-miterlimit="10"/><path d="M22.8516 1.75781 22.8516 12.3047" stroke="#66737C" stroke-width="3.33333" stroke-linecap="round" stroke-linejoin="round" stroke-miterlimit="10"/></svg>