<svg width="60" height="60" viewBox="-2.14 -2.14 60 60" xmlns="http://www.w3.org/2000/svg" xmlns:xlink="http://www.w3.org/1999/xlink" id="Shipment-Cargo-Boat--Streamline-Ultimate.svg" overflow="hidden"><g><path d="M3.4825 49.9158C2.19323 47.423 1.4045 44.7019 1.16083 41.9061 1.11735 41.5809 1.22911 41.2542 1.46265 41.0238 1.67624 40.7713 1.99095 40.6267 2.32167 40.6292L54.5592 40.6292C54.5678 43.8694 53.77 47.0609 52.2375 49.9158" stroke="#66737C" stroke-width="3.57143" stroke-linecap="round" stroke-linejoin="round" fill="none"/><path d="M54.5592 40.6292 54.5592 13.93C54.5592 10.7244 51.9606 8.12583 48.755 8.12583L42.9508 8.12583C42.3097 8.12583 41.79 8.64556 41.79 9.28667L41.79 40.6292" stroke="#66737C" stroke-width="3.57143" stroke-linecap="round" stroke-linejoin="round" fill="none"/><path d="M41.79 13.93 49.9158 13.93 49.9158 19.7574 41.79 19.7574" stroke="#66737C" stroke-width="3.57143" stroke-linecap="round" stroke-linejoin="round" fill="none"/><path d="M54.5592 13.93 54.5592 3.4825" stroke="#66737C" stroke-width="3.57143" stroke-linecap="round" stroke-linejoin="round" fill="none"/><path d="M3.4825 32.5033 41.79 32.5033" stroke="#66737C" stroke-width="3.57143" stroke-linecap="round" stroke-linejoin="round" fill="none"/><path d="M24.3775 24.3775 24.3775 40.6292" stroke="#66737C" stroke-width="3.57143" stroke-linecap="round" stroke-linejoin="round" fill="none"/><path d="M33.6642 32.5033 33.6642 40.6292" stroke="#66737C" stroke-width="3.57143" stroke-linecap="round" stroke-linejoin="round" fill="none"/><path d="M15.0676 2.32167 15.0908 15.7873" stroke="#66737C" stroke-width="3.57143" stroke-linecap="round" stroke-linejoin="round" fill="none"/><path d="M11.8869 23.2167C11.1229 22.4071 10.699 21.3349 10.7029 20.2217 10.7386 17.7858 12.7423 15.84 15.1782 15.8757 17.6142 15.9114 19.56 17.9151 19.5243 20.351 19.5088 21.4089 19.1136 22.4259 18.4108 23.2167" stroke="#66737C" stroke-width="3.57143" stroke-linecap="round" stroke-linejoin="round" fill="none"/><path d="M40.6292 24.3775 17.0178 1.43943C16.7997 1.26535 16.5306 1.16749 16.2517 1.16083 15.6106 1.16984 15.0982 1.69681 15.1073 2.33786 15.1114 2.63609 15.2303 2.92127 15.4391 3.13425L30.1817 24.3775" stroke="#66737C" stroke-width="3.57143" stroke-linecap="round" stroke-linejoin="round" fill="none"/><path d="M3.4825 40.6292 3.4825 32.5033" stroke="#66737C" stroke-width="3.57143" stroke-linecap="round" stroke-linejoin="round" fill="none"/><path d="M54.5592 54.3038C48.7318 55.5111 45.1332 49.6604 45.1332 49.6604L45.1332 49.6604C43.309 52.5579 40.1518 54.3458 36.7288 54.4199 33.3373 54.2559 30.2258 52.4891 28.3476 49.6604L28.3475 49.6604C26.5233 52.5579 23.3662 54.3458 19.9431 54.4199 16.5768 54.2521 13.4872 52.5051 11.6083 49.7069L11.6083 49.7069C11.6083 49.7069 6.965 55.72 1.16083 54.3966" stroke="#66737C" stroke-width="3.57143" stroke-linecap="round" stroke-linejoin="round" fill="none"/><path d="M41.79 24.3775 24.3775 24.3775" stroke="#66737C" stroke-width="3.57143" stroke-linecap="round" stroke-linejoin="round" fill="none"/></g></svg>