<svg width="60" height="60" viewBox="-2.14 -2.14 60 60" xmlns="http://www.w3.org/2000/svg" xmlns:xlink="http://www.w3.org/1999/xlink" id="Shipment-In-Transit--Streamline-Ultimate.svg" overflow="hidden"><path d="M1.7784 30.6971 8.59713 34.1494" stroke="#66737C" stroke-width="3.57143" stroke-linecap="round" stroke-linejoin="round" fill="none"/><path d="M1.99663 21.4383 8.52516 24.9347" stroke="#66737C" stroke-width="3.57143" stroke-linecap="round" stroke-linejoin="round" fill="none"/><path d="M4.74781 13.7396 8.6691 16.1565" stroke="#66737C" stroke-width="3.57143" stroke-linecap="round" stroke-linejoin="round" fill="none"/><path d="M25.211 11.9589 44.3647 21.7447" stroke="#66737C" stroke-width="3.57143" stroke-linecap="round" stroke-linejoin="round" fill="none"/><path d="M32.6473 8.15834 18.2808 15.4994C16.6478 16.3466 15.626 18.0361 15.6341 19.8758L15.6341 35.8465C15.6264 37.6867 16.6492 39.3764 18.2831 40.2229L32.6473 47.5617C33.9919 48.251 35.5861 48.251 36.9308 47.5617L51.2949 40.2229C52.9283 39.3762 53.9503 37.6863 53.9416 35.8465L53.9416 19.8758C53.9508 18.0358 52.9287 16.3458 51.2949 15.4994L36.9308 8.15834C35.5856 7.47124 33.9924 7.47124 32.6473 8.15834Z" stroke="#66737C" stroke-width="3.57143" stroke-linecap="round" stroke-linejoin="round" fill="none"/><path d="M53.1847 17.2384 34.7879 26.6365 16.3933 17.2384" stroke="#66737C" stroke-width="3.57143" stroke-linecap="round" stroke-linejoin="round" fill="none"/><path d="M34.7879 26.6365 34.7879 48.0794" stroke="#66737C" stroke-width="3.57143" stroke-linecap="round" stroke-linejoin="round" fill="none"/><path d="M44.3647 21.7447 44.3647 28.5054" stroke="#66737C" stroke-width="3.57143" stroke-linecap="round" stroke-linejoin="round" fill="none"/></svg>