<svg width="60" height="60" viewBox="-2.14 -2.14 60 60" xmlns="http://www.w3.org/2000/svg" xmlns:xlink="http://www.w3.org/1999/xlink" id="Shipment-Truck-1--Streamline-Ultimate.svg" overflow="hidden"><g><path d="M36.5662 48.755C36.5662 51.64 38.905 53.9788 41.79 53.9788 44.675 53.9788 47.0138 51.64 47.0138 48.755 47.0138 45.87 44.675 43.5312 41.79 43.5312 38.905 43.5312 36.5662 45.87 36.5662 48.755" stroke="#66737C" stroke-width="3.57143" stroke-linecap="round" stroke-linejoin="round" fill="none"/><path d="M53.9787 49.4283 53.9787 38.7254C53.9625 37.6892 53.2615 36.7891 52.2607 36.5198L41.2096 34.1982 41.2096 29.5548C41.2492 26.9211 39.8284 24.4817 37.5181 23.2167L31.2729 19.9199" stroke="#66737C" stroke-width="3.57143" stroke-linecap="round" stroke-linejoin="round" fill="none"/><path d="M31.2729 34.2446 41.2096 34.2446" stroke="#66737C" stroke-width="3.57143" stroke-linecap="round" stroke-linejoin="round" fill="none"/><path d="M1.74125 12.1888 6.965 12.1888" stroke="#66737C" stroke-width="3.57143" stroke-linecap="round" stroke-linejoin="round" fill="none"/><path d="M6.965 12.1888 17.4125 12.1888 17.4125 41.79 6.965 41.79Z" stroke="#66737C" stroke-width="3.57143" stroke-linecap="round" stroke-linejoin="round" fill="none"/><path d="M15.6713 12.1888 15.6713 5.9899C15.684 4.50693 14.7501 3.18079 13.3496 2.69313L10.4475 1.74125" stroke="#66737C" stroke-width="3.57143" stroke-linecap="round" stroke-linejoin="round" fill="none"/><path d="M6.965 41.79 1.74125 41.79" stroke="#66737C" stroke-width="3.57143" stroke-linecap="round" stroke-linejoin="round" fill="none"/><path d="M17.4125 41.79 31.3425 41.79 31.3425 20.895C31.3682 16.1124 27.5119 12.2145 22.7293 12.1888 22.706 12.1887 22.6827 12.1887 22.6595 12.1888L17.4125 12.1888" stroke="#66737C" stroke-width="3.57143" stroke-linecap="round" stroke-linejoin="round" fill="none"/><path d="M18.5733 52.2375 26.8849 52.2375C28.4578 52.2075 29.8124 51.12 30.1817 49.5908L31.3425 41.79" stroke="#66737C" stroke-width="3.57143" stroke-linecap="round" stroke-linejoin="round" fill="none"/><path d="M12.1888 48.755C12.1888 51.64 9.85 53.9788 6.965 53.9788 4.08 53.9788 1.74125 51.64 1.74125 48.755" stroke="#66737C" stroke-width="3.57143" stroke-linecap="round" stroke-linejoin="round" fill="none"/></g></svg>