<svg width="60" height="60" viewBox="-2.14 -2.14 60 60" xmlns="http://www.w3.org/2000/svg" xmlns:xlink="http://www.w3.org/1999/xlink" id="Shipment-Hook--Streamline-Ultimate.svg" overflow="hidden"><defs></defs><path d="M9.9762 29.6012 45.7438 29.6012C45.7438 29.6012 48.0655 29.6012 48.0655 31.9229L48.0655 51.6571C48.0655 51.6571 48.0655 53.9787 45.7438 53.9787L9.9762 53.9787C9.9762 53.9787 7.65453 53.9787 7.65453 51.6571L7.65453 31.9229C7.65453 31.9229 7.65453 29.6012 9.9762 29.6012" stroke="#66737C" stroke-width="3.57143" stroke-linecap="round" stroke-linejoin="round" fill="none"/><path d="M19.2002 36.5662 19.2002 47.0137" stroke="#66737C" stroke-width="3.57143" stroke-linecap="round" stroke-linejoin="round" fill="none"/><path d="M27.86 36.5662 27.86 47.0137" stroke="#66737C" stroke-width="3.57143" stroke-linecap="round" stroke-linejoin="round" fill="none"/><path d="M36.5198 36.5662 36.5198 47.0137" stroke="#66737C" stroke-width="3.57143" stroke-linecap="round" stroke-linejoin="round" fill="none"/><path d="M32.039 13.93C32.039 16.3342 30.09 18.2831 27.6859 18.2831 25.2817 18.2831 23.3328 16.3342 23.3328 13.93 23.3328 11.5258 25.2817 9.57688 27.6859 9.57688L27.6859 1.74125" stroke="#66737C" stroke-width="3.57143" stroke-linecap="round" stroke-linejoin="round" fill="none"/><path d="M13.4262 29.6012 20.6443 22.6362" stroke="#66737C" stroke-width="3.57143" stroke-linecap="round" stroke-linejoin="round" fill="none"/><path d="M42.2938 29.6012 35.0757 22.6362" stroke="#66737C" stroke-width="3.57143" stroke-linecap="round" stroke-linejoin="round" fill="none"/></svg>