<svg width="60" height="60" viewBox="-1.875 -1.875 60 60" xmlns="http://www.w3.org/2000/svg" xmlns:xlink="http://www.w3.org/1999/xlink" id="Shop-Cart--Streamline-Ultimate" overflow="hidden"><g><path d="M50.9766 54.4922 50.9766 29.8828" stroke="#66737C" stroke-width="3.33333" stroke-linecap="round" stroke-linejoin="round" fill="none"/><path d="M5.27344 29.8828 5.27344 54.4922" stroke="#66737C" stroke-width="3.33333" stroke-linecap="round" stroke-linejoin="round" fill="none"/><g><path d="M36.9141 40.4297 18.9375 40.4297C16.9831 40.4533 15.4178 42.0568 15.4415 44.0113 15.446 44.3877 15.5106 44.7611 15.6328 45.1172L18.75 53.3438C18.9983 54.0355 19.6557 54.4957 20.3906 54.4922L35.5312 54.4922C36.2726 54.4986 36.9383 54.0392 37.1953 53.3438L40.2422 45.1875C40.9283 43.3712 40.0122 41.3425 38.1958 40.6563 37.7864 40.5017 37.3517 40.4248 36.9141 40.4297Z" stroke="#66737C" stroke-width="3.33333" stroke-linecap="round" stroke-linejoin="round" fill="none"/><path d="M19.125 40.4297 22.6406 31.6406" stroke="#66737C" stroke-width="3.33333" stroke-linecap="round" stroke-linejoin="round" fill="none"/><path d="M36.7031 40.4297 33.1875 31.6406" stroke="#66737C" stroke-width="3.33333" stroke-linecap="round" stroke-linejoin="round" fill="none"/></g><path d="M24.6094 49.2188 24.6094 45.7031" stroke="#66737C" stroke-width="3.33333" stroke-linecap="round" stroke-linejoin="round" fill="none"/><path d="M31.6406 49.2188 31.6406 45.7031" stroke="#66737C" stroke-width="3.33333" stroke-linecap="round" stroke-linejoin="round" fill="none"/><path d="M1.75781 17.5781C1.97509 21.2219 5.10509 23.9996 8.74888 23.7824 12.0894 23.5832 14.7539 20.9187 14.9531 17.5781 14.9531 21.2154 17.9018 24.1641 21.5391 24.1641 25.1764 24.1641 28.125 21.2154 28.125 17.5781 28.3423 21.2219 31.4723 23.9996 35.1161 23.7824 38.4566 23.5832 41.1211 20.9187 41.3203 17.5781 41.3203 21.2154 44.2689 24.1641 47.9062 24.1641 51.5436 24.1641 54.4922 21.2154 54.4922 17.5781L54.4922 17.5781 51.2812 3.14062C51.1055 2.33568 50.3942 1.76082 49.5703 1.75781L6.67969 1.75781C5.85578 1.76082 5.14451 2.33568 4.96875 3.14062L1.75781 17.5781Z" stroke="#66737C" stroke-width="3.33333" stroke-linecap="round" stroke-linejoin="round" fill="none"/></g></svg>