<svg width="60" height="60" viewBox="-2.14 -2.14 60 60" xmlns="http://www.w3.org/2000/svg" xmlns:xlink="http://www.w3.org/1999/xlink" id="Shopping-Cart-Full--Streamline-Ultimate.svg" fill="none" overflow="hidden"><path d="M13.93 45.2727 36.9609 45.2727C37.7842 45.2732 38.5812 44.9821 39.2104 44.4506 39.8393 43.9194 40.2598 43.1825 40.397 42.3706L46.4333 6.38475C46.5729 5.55689 47.007 4.80734 47.6555 4.2741 48.3039 3.74083 49.123 3.45977 49.9623 3.48266L52.2839 3.48266" stroke="#66737C" stroke-width="3.57143" stroke-linecap="round" stroke-linejoin="round"/><path d="M18.1414 52.2603C17.6606 52.2603 17.2708 51.8704 17.2708 51.3896 17.2708 50.9088 17.6606 50.519 18.1414 50.519" stroke="#66737C" stroke-width="3.57143"/><path d="M18.1414 52.2603C18.6223 52.2603 19.012 51.8704 19.012 51.3896 19.012 50.9088 18.6223 50.519 18.1414 50.519" stroke="#66737C" stroke-width="3.57143"/><path d="M35.7184 52.2603C35.2376 52.2603 34.8478 51.8704 34.8478 51.3896 34.8478 50.9088 35.2376 50.519 35.7184 50.519" stroke="#66737C" stroke-width="3.57143"/><path d="M35.7184 52.2603C36.1992 52.2603 36.589 51.8704 36.589 51.3896 36.589 50.9088 36.1992 50.519 35.7184 50.519" stroke="#66737C" stroke-width="3.57143"/><path d="M41.7905 34.825 13.6519 34.825C12.1115 34.8097 10.6196 34.284 9.40974 33.3305 8.19987 32.3768 7.3403 31.049 6.96551 29.5548L3.52944 16.0891C3.47103 15.8328 3.46987 15.5668 3.52605 15.3099 3.58224 15.0531 3.69438 14.8118 3.85448 14.6033 4.01669 14.3944 4.22434 14.2252 4.46169 14.1086 4.69901 13.9919 4.9598 13.9308 5.22426 13.93L45.2265 13.93" stroke="#66737C" stroke-width="3.57143" stroke-linecap="round" stroke-linejoin="round"/><path d="M41.7907 13.9307 33.0844 5.22442C32.2628 4.41063 31.1531 3.95408 29.9966 3.95408 28.8402 3.95408 27.7305 4.41063 26.9088 5.22442L18.2026 13.9307" stroke="#66737C" stroke-width="3.57143" stroke-linecap="round" stroke-linejoin="round"/><path d="M24.4007 7.75404 14.1854 4.75909C13.6381 4.59576 13.064 4.5426 12.496 4.60268 11.9281 4.66277 11.3778 4.83489 10.8768 5.10913 10.3759 5.38334 9.93432 5.7542 9.57769 6.20024 9.22103 6.64626 8.95641 7.1586 8.79912 7.70761L6.965 13.9297" stroke="#66737C" stroke-width="3.57143" stroke-linecap="round" stroke-linejoin="round"/></svg>