<svg width="60" height="60" viewBox="-1.875 -1.875 60 60" xmlns="http://www.w3.org/2000/svg" xmlns:xlink="http://www.w3.org/1999/xlink" id="Shopping-Bag-Barcode--Streamline-Ultimate" overflow="hidden"><path d="M44.5523 29.8641 42.7406 19.132C42.6373 17.3269 41.1816 15.8945 39.375 15.8203L9.81094 15.8203C8.00437 15.8945 6.54866 17.3269 6.44531 19.132L1.75781 46.8867C1.48063 48.8516 2.84878 50.6692 4.81366 50.9464 4.91721 50.961 5.02135 50.971 5.12578 50.9766L24.593 50.9766" stroke="#66737C" stroke-width="3.33333" stroke-linecap="round" stroke-linejoin="round" fill="none"/><path d="M33.2297 8.92266C32.4374 4.77465 28.8159 1.77036 24.593 1.75781L24.593 1.75781C20.3868 1.77047 16.7746 4.7509 15.9633 8.87813" stroke="#66737C" stroke-width="3.33333" stroke-linecap="round" stroke-linejoin="round" fill="none"/><path d="M33.382 40.4297 33.382 42.1875" stroke="#66737C" stroke-width="3.33333" stroke-linecap="round" stroke-linejoin="round" fill="none"/><path d="M33.382 49.2188 33.382 54.4922" stroke="#66737C" stroke-width="3.33333" stroke-linecap="round" stroke-linejoin="round" fill="none"/><path d="M54.4758 49.2188 54.4758 54.4922" stroke="#66737C" stroke-width="3.33333" stroke-linecap="round" stroke-linejoin="round" fill="none"/><path d="M54.4758 40.4297 54.4758 42.1875" stroke="#66737C" stroke-width="3.33333" stroke-linecap="round" stroke-linejoin="round" fill="none"/><path d="M47.4445 40.4297 47.4445 54.4922" stroke="#66737C" stroke-width="3.33333" stroke-linecap="round" stroke-linejoin="round" fill="none"/><path d="M40.4133 40.4297 40.4133 45.7031" stroke="#66737C" stroke-width="3.33333" stroke-linecap="round" stroke-linejoin="round" fill="none"/><path d="M40.4133 52.7344 40.4133 54.4922" stroke="#66737C" stroke-width="3.33333" stroke-linecap="round" stroke-linejoin="round" fill="none"/></svg>