<svg width="60" height="60" viewBox="-1.875 -1.875 60 60" xmlns="http://www.w3.org/2000/svg" xmlns:xlink="http://www.w3.org/1999/xlink" id="Silicon-Chip-5g--Streamline-Ultimate" fill="none" overflow="hidden"><path d="M44.2969 7.26701 11.9531 7.26701C9.36431 7.26701 7.26565 9.36567 7.26565 11.9545L7.26565 44.2983C7.26565 46.8872 9.36431 48.9858 11.9531 48.9858L44.2969 48.9858C46.8858 48.9858 48.9844 46.8872 48.9844 44.2983L48.9844 11.9545C48.9844 9.36567 46.8858 7.26701 44.2969 7.26701Z" stroke="#66737C" stroke-width="3.33333" stroke-linecap="round" stroke-linejoin="round"/><path d="M28.125 7.14874 28.125 1.7581" stroke="#66737C" stroke-width="3.33333" stroke-linecap="round" stroke-linejoin="round"/><path d="M15.2344 7.14874 15.2344 1.7581" stroke="#66737C" stroke-width="3.33333" stroke-linecap="round" stroke-linejoin="round"/><path d="M41.0156 7.14874 41.0156 1.7581" stroke="#66737C" stroke-width="3.33333" stroke-linecap="round" stroke-linejoin="round"/><path d="M28.125 54.4922 28.125 49.1016" stroke="#66737C" stroke-width="3.33333" stroke-linecap="round" stroke-linejoin="round"/><path d="M15.2344 54.4922 15.2344 49.1016" stroke="#66737C" stroke-width="3.33333" stroke-linecap="round" stroke-linejoin="round"/><path d="M41.0156 54.4922 41.0156 49.1016" stroke="#66737C" stroke-width="3.33333" stroke-linecap="round" stroke-linejoin="round"/><path d="M54.4922 28.125 49.1016 28.125" stroke="#66737C" stroke-width="3.33333" stroke-linecap="round" stroke-linejoin="round"/><path d="M54.4922 41.0156 49.1016 41.0156" stroke="#66737C" stroke-width="3.33333" stroke-linecap="round" stroke-linejoin="round"/><path d="M54.4922 15.2344 49.1016 15.2344" stroke="#66737C" stroke-width="3.33333" stroke-linecap="round" stroke-linejoin="round"/><path d="M7.14844 28.125 1.75781 28.125" stroke="#66737C" stroke-width="3.33333" stroke-linecap="round" stroke-linejoin="round"/><path d="M7.14844 41.0156 1.75781 41.0156" stroke="#66737C" stroke-width="3.33333" stroke-linecap="round" stroke-linejoin="round"/><path d="M7.14844 15.2344 1.75781 15.2344" stroke="#66737C" stroke-width="3.33333" stroke-linecap="round" stroke-linejoin="round"/><path d="M37.5919 30.664 41.6934 30.664 41.6934 33.3984C41.6934 35.6637 39.8571 37.5 37.5919 37.5L34.8577 37.5C32.5924 37.5 30.7561 35.6637 30.7561 33.3984L30.7561 25.1953C30.7561 22.9301 32.5924 21.0938 34.8577 21.0938L37.5919 21.0938C39.3778 21.0938 40.897 22.2351 41.46 23.8282" stroke="#66737C" stroke-width="3.33333" stroke-linecap="round" stroke-linejoin="round"/><path d="M24.3164 21.0938 15.4297 21.0938 14.0625 29.2969 15.0648 28.7958C16.2039 28.2262 17.4599 27.9298 18.7334 27.9298L20.8984 27.9298C23.1637 27.9298 25.0001 29.7661 25.0001 32.0313L25.0001 33.3984C25.0001 35.6637 23.1637 37.5 20.8984 37.5L18.1641 37.5C16.3782 37.5 14.859 36.3586 14.2959 34.7655" stroke="#66737C" stroke-width="3.33333" stroke-linecap="round" stroke-linejoin="round"/></svg>