<svg width="60" height="60" viewBox="-1.875 -1.875 60 60" xmlns="http://www.w3.org/2000/svg" xmlns:xlink="http://www.w3.org/1999/xlink" id="Single-Man-Actions-Check-2--Streamline-Ultimate" overflow="hidden"><path d="M7.03125 8.78906C7.03125 12.6723 10.1792 15.8203 14.0625 15.8203 17.9458 15.8203 21.0938 12.6723 21.0938 8.78906 21.0938 4.90581 17.9458 1.75781 14.0625 1.75781 10.1792 1.75781 7.03125 4.90581 7.03125 8.78906Z" stroke="#66737C" stroke-width="3.33333" stroke-linecap="round" stroke-linejoin="round" fill="none"/><path d="M24.7383 25.5187C21.3544 19.624 13.8326 17.5885 7.93779 20.9724 4.11668 23.1659 1.75966 27.2347 1.75781 31.6406L1.75781 36.9141 7.03125 36.9141 8.78906 54.4922 19.3359 54.4922 20.093 46.9148" stroke="#66737C" stroke-width="3.33333" stroke-linecap="round" stroke-linejoin="round" fill="none"/><path d="M54.4922 40.4297C54.4922 48.1962 48.1962 54.4922 40.4297 54.4922 32.6632 54.4922 26.3672 48.1962 26.3672 40.4297 26.3672 32.6632 32.6632 26.3672 40.4297 26.3672" stroke="#66737C" stroke-width="3.33333" stroke-linecap="round" stroke-linejoin="round" fill="none"/><path d="M54.4922 29.8805 41.6719 42.7008C40.9868 43.3868 39.8753 43.3876 39.1893 42.7025 39.1887 42.702 39.1881 42.7014 39.1875 42.7008L35.1562 38.6719" stroke="#66737C" stroke-width="3.33333" stroke-linecap="round" stroke-linejoin="round" fill="none"/><path d="M14.0625 19.3359 14.0625 33.3984" stroke="#66737C" stroke-width="3.33333" stroke-linecap="round" stroke-linejoin="round" fill="none"/></svg>