<svg width="60" height="60" viewBox="-1.875 -1.875 60 60" xmlns="http://www.w3.org/2000/svg" xmlns:xlink="http://www.w3.org/1999/xlink" id="Single-Man-Process--Streamline-Ultimate" overflow="hidden"><path d="M5.27344 8.78906C5.27344 12.6723 8.42144 15.8203 12.3047 15.8203 16.1879 15.8203 19.3359 12.6723 19.3359 8.78906 19.3359 4.90581 16.1879 1.75781 12.3047 1.75781 8.42144 1.75781 5.27344 4.90581 5.27344 8.78906Z" stroke="#66737C" stroke-width="3.33333" stroke-linecap="round" stroke-linejoin="round" fill="none"/><path d="M12.3047 19.3359 12.3047 33.3984" stroke="#66737C" stroke-width="3.33333" stroke-linecap="round" stroke-linejoin="round" fill="none"/><path d="M17.5781 54.4922 19.3359 36.9141 22.8516 36.9141 22.8516 29.8828C22.8516 24.0579 18.1296 19.3359 12.3047 19.3359 6.47981 19.3359 1.75781 24.0579 1.75781 29.8828L1.75781 36.9141 5.27344 36.9141 7.03125 54.4922Z" stroke="#66737C" stroke-width="3.33333" stroke-linecap="round" stroke-linejoin="round" fill="none"/><path d="M40.4297 33.3984C40.4297 37.2817 43.5777 40.4297 47.4609 40.4297 51.3442 40.4297 54.4922 37.2817 54.4922 33.3984 54.4922 29.5152 51.3442 26.3672 47.4609 26.3672 43.5777 26.3672 40.4297 29.5152 40.4297 33.3984Z" stroke="#66737C" stroke-width="3.33333" stroke-linecap="round" stroke-linejoin="round" fill="none"/><path d="M26.3672 1.75781 36.9141 12.3047" stroke="#66737C" stroke-width="3.33333" stroke-linecap="round" stroke-linejoin="round" fill="none"/><path d="M36.9141 1.75781 26.3672 12.3047" stroke="#66737C" stroke-width="3.33333" stroke-linecap="round" stroke-linejoin="round" fill="none"/><path d="M43.9453 5.27344 54.4922 5.27344 54.4922 15.8203" stroke="#66737C" stroke-width="3.33333" stroke-linecap="round" stroke-linejoin="round" fill="none"/><path d="M54.4922 5.27344 29.8828 28.125" stroke="#66737C" stroke-width="3.33333" stroke-linecap="round" stroke-linejoin="round" fill="none"/></svg>