<svg width="60" height="60" viewBox="-1.875 -1.875 60 60" xmlns="http://www.w3.org/2000/svg" xmlns:xlink="http://www.w3.org/1999/xlink" id="Smart-Lock-2--Streamline-Ultimate" fill="none" overflow="hidden"><path d="M35.4884 40.0195 35.4884 49.0821C35.4884 51.5742 33.4493 53.6133 30.9572 53.6133L7.1681 53.6133C4.67592 53.6133 2.63686 51.5742 2.63686 49.0821L2.63686 7.16796C2.63686 4.67578 4.67592 2.63672 7.1681 2.63672L30.9572 2.63672C33.4493 2.63672 35.4884 4.67578 35.4884 7.16796L35.4884 33.2227" stroke="#66737C" stroke-width="3.33333" stroke-linecap="round" stroke-linejoin="round" stroke-miterlimit="10"/><path d="M28.6912 40.0195C27.3319 43.8713 23.4804 46.8164 19.1758 46.8164 13.5117 46.8164 8.98048 42.2852 8.98048 36.6211 8.98048 30.9572 13.5117 26.4258 19.1758 26.4258 23.707 26.4258 27.3319 29.3712 28.6912 33.2227" stroke="#66737C" stroke-width="3.33333" stroke-linecap="round" stroke-linejoin="round" stroke-miterlimit="10"/><path d="M53.6133 36.6211C53.6133 38.4338 52.0273 40.0195 50.2148 40.0195L18.9492 40.0195C17.1367 40.0195 15.5508 38.4338 15.5508 36.6211 15.5508 34.8087 17.1367 33.2227 18.9492 33.2227L50.2148 33.2227C52.2539 33.2227 53.6133 34.8087 53.6133 36.6211Z" stroke="#66737C" stroke-width="3.33333" stroke-linecap="round" stroke-linejoin="round" stroke-miterlimit="10"/><path d="M11.133 11.0197C10.8827 11.0197 10.6799 10.8168 10.6799 10.5666 10.6799 10.3163 10.8827 10.1134 11.133 10.1134" stroke="#66737C" stroke-width="3.33333" stroke-linecap="round" stroke-linejoin="round" stroke-miterlimit="10"/><path d="M11.1329 11.0197C11.3832 11.0197 11.586 10.8168 11.586 10.5666 11.586 10.3163 11.3832 10.1134 11.1329 10.1134" stroke="#66737C" stroke-width="3.33333" stroke-linecap="round" stroke-linejoin="round" stroke-miterlimit="10"/><path d="M11.133 18.9493C10.8827 18.9493 10.6799 18.7464 10.6799 18.4962 10.6799 18.2459 10.8827 18.043 11.133 18.043" stroke="#66737C" stroke-width="3.33333" stroke-linecap="round" stroke-linejoin="round" stroke-miterlimit="10"/><path d="M11.1329 18.9493C11.3832 18.9493 11.586 18.7464 11.586 18.4962 11.586 18.2459 11.3832 18.043 11.1329 18.043" stroke="#66737C" stroke-width="3.33333" stroke-linecap="round" stroke-linejoin="round" stroke-miterlimit="10"/><path d="M19.0626 11.0197C18.8123 11.0197 18.6095 10.8168 18.6095 10.5666 18.6095 10.3163 18.8123 10.1134 19.0626 10.1134" stroke="#66737C" stroke-width="3.33333" stroke-linecap="round" stroke-linejoin="round" stroke-miterlimit="10"/><path d="M19.0627 11.0197C19.3129 11.0197 19.5158 10.8168 19.5158 10.5666 19.5158 10.3163 19.3129 10.1134 19.0627 10.1134" stroke="#66737C" stroke-width="3.33333" stroke-linecap="round" stroke-linejoin="round" stroke-miterlimit="10"/><path d="M19.0626 18.9493C18.8123 18.9493 18.6095 18.7464 18.6095 18.4962 18.6095 18.2459 18.8123 18.043 19.0626 18.043" stroke="#66737C" stroke-width="3.33333" stroke-linecap="round" stroke-linejoin="round" stroke-miterlimit="10"/><path d="M19.0627 18.9493C19.3129 18.9493 19.5158 18.7464 19.5158 18.4962 19.5158 18.2459 19.3129 18.043 19.0627 18.043" stroke="#66737C" stroke-width="3.33333" stroke-linecap="round" stroke-linejoin="round" stroke-miterlimit="10"/><path d="M26.9923 11.0197C26.7422 11.0197 26.5392 10.8168 26.5392 10.5666 26.5392 10.3163 26.7422 10.1134 26.9923 10.1134" stroke="#66737C" stroke-width="3.33333" stroke-linecap="round" stroke-linejoin="round" stroke-miterlimit="10"/><path d="M26.9923 11.0197C27.2426 11.0197 27.4453 10.8168 27.4453 10.5666 27.4453 10.3163 27.2426 10.1134 26.9923 10.1134" stroke="#66737C" stroke-width="3.33333" stroke-linecap="round" stroke-linejoin="round" stroke-miterlimit="10"/><path d="M26.9923 18.9493C26.7422 18.9493 26.5392 18.7464 26.5392 18.4962 26.5392 18.2459 26.7422 18.043 26.9923 18.043" stroke="#66737C" stroke-width="3.33333" stroke-linecap="round" stroke-linejoin="round" stroke-miterlimit="10"/><path d="M26.9923 18.9493C27.2426 18.9493 27.4453 18.7464 27.4453 18.4962 27.4453 18.2459 27.2426 18.043 26.9923 18.043" stroke="#66737C" stroke-width="3.33333" stroke-linecap="round" stroke-linejoin="round" stroke-miterlimit="10"/><path d="M44.9588 7.3946C47.6775 10.1134 47.6775 14.418 44.9588 16.9102" stroke="#66737C" stroke-width="3.33333" stroke-linecap="round" stroke-linejoin="round" stroke-miterlimit="10"/><path d="M49.7166 2.63672C54.9274 7.84765 54.9274 16.457 49.7166 21.8945" stroke="#66737C" stroke-width="3.33333" stroke-linecap="round" stroke-linejoin="round" stroke-miterlimit="10"/></svg>