<svg width="60" height="60" viewBox="-1.875 -1.875 60 60" xmlns="http://www.w3.org/2000/svg" xmlns:xlink="http://www.w3.org/1999/xlink" id="Smart-House-Power--Streamline-Ultimate" fill="none" overflow="hidden"><path d="M12.3047 29.8828 12.3047 16.0828C12.3029 15.4667 12.463 14.8609 12.7691 14.3261 13.0751 13.7914 13.5163 13.3465 14.0485 13.0359L33.3984 1.75781 52.7484 13.0453C53.2807 13.3558 53.7218 13.8008 54.0279 14.3355 54.334 14.8703 54.4941 15.4761 54.4922 16.0922L54.4922 43.9453C54.4922 44.8777 54.1219 45.772 53.4626 46.4313 52.8033 47.0906 51.9089 47.4609 50.9766 47.4609L28.8586 47.4609" stroke="#66737C" stroke-width="3.33333" stroke-linecap="round" stroke-linejoin="round"/><path d="M5.71404 48.4078C7.46245 46.6598 9.83353 45.678 12.3058 45.678 14.7781 45.678 17.1492 46.6598 18.8976 48.4078" stroke="#66737C" stroke-width="3.33333" stroke-linecap="round" stroke-linejoin="round"/><path d="M1.75781 42.1615C4.55503 39.3645 8.34886 37.793 12.3047 37.793 16.2605 37.793 20.0543 39.3645 22.8516 42.1615" stroke="#66737C" stroke-width="3.33333" stroke-linecap="round" stroke-linejoin="round"/><path d="M12.3047 54.4922C11.8193 54.4922 11.4258 54.0987 11.4258 53.6133 11.4258 53.1279 11.8193 52.7344 12.3047 52.7344" stroke="#66737C" stroke-width="3.33333"/><path d="M12.3047 54.4922C12.7901 54.4922 13.1836 54.0987 13.1836 53.6133 13.1836 53.1279 12.7901 52.7344 12.3047 52.7344" stroke="#66737C" stroke-width="3.33333"/><path d="M33.3984 14.0625 33.3984 22.8516" stroke="#66737C" stroke-width="3.33333" stroke-linecap="round" stroke-linejoin="round"/><path d="M25.9406 18.9094C24.4657 20.3844 23.4612 22.2637 23.0542 24.3096 22.6473 26.3555 22.8561 28.4761 23.6543 30.4031 24.4526 32.3304 25.8045 33.9776 27.5388 35.1366 29.2734 36.2953 31.3125 36.9141 33.3984 36.9141 35.4844 36.9141 37.5234 36.2953 39.258 35.1366 40.9924 33.9776 42.3443 32.3304 43.1426 30.4031 43.9409 28.4761 44.1497 26.3555 43.7426 24.3096 43.3357 22.2637 42.3312 20.3844 40.8563 18.9094" stroke="#66737C" stroke-width="3.33333" stroke-linecap="round" stroke-linejoin="round"/></svg>