<svg width="60" height="60" viewBox="-1.875 -1.875 60 60" xmlns="http://www.w3.org/2000/svg" xmlns:xlink="http://www.w3.org/1999/xlink" id="Smart-House-Phone-Power--Streamline-Ultimate" overflow="hidden"><defs></defs><path d="M8.78906 15.157 8.78906 40.4297C8.78906 42.3713 10.3631 43.9453 12.3047 43.9453L29.9273 43.9453" stroke="#66737C" stroke-width="3.33333" stroke-linecap="round" stroke-linejoin="round" fill="none"/><path d="M45.4688 19.3359 24.6539 1.75781 1.75781 21.0938" stroke="#66737C" stroke-width="3.33333" stroke-linecap="round" stroke-linejoin="round" fill="none"/><path d="M40.4742 26.3672 51.0211 26.3672C51.0211 26.3672 54.5367 26.3672 54.5367 29.8828L54.5367 50.9766C54.5367 50.9766 54.5367 54.4922 51.0211 54.4922L40.4742 54.4922C40.4742 54.4922 36.9586 54.4922 36.9586 50.9766L36.9586 29.8828C36.9586 29.8828 36.9586 26.3672 40.4742 26.3672" stroke="#66737C" stroke-width="3.33333" stroke-linecap="round" stroke-linejoin="round" fill="none"/><path d="M36.9586 47.4609 54.5367 47.4609" stroke="#66737C" stroke-width="3.33333" stroke-linecap="round" stroke-linejoin="round" fill="none"/><path d="M24.6539 17.5781 24.6539 23.4375" stroke="#66737C" stroke-width="3.33333" stroke-linecap="round" stroke-linejoin="round" fill="none"/><path d="M19.6875 20.8102C16.9419 23.5563 16.9422 28.0082 19.6883 30.7538 22.4345 33.4995 26.8864 33.4991 29.632 30.753 32.3773 28.0072 32.3773 23.5559 29.632 20.8102" stroke="#66737C" stroke-width="3.33333" stroke-linecap="round" stroke-linejoin="round" fill="none"/></svg>