<svg width="60" height="60" viewBox="-1.875 -1.875 60 60" xmlns="http://www.w3.org/2000/svg" xmlns:xlink="http://www.w3.org/1999/xlink" id="Smiley-Sad-1--Streamline-Ultimate" fill="none" overflow="hidden"><path d="M28.125 54.4922C42.6872 54.4922 54.4922 42.6872 54.4922 28.125 54.4922 13.5628 42.6872 1.75781 28.125 1.75781 13.5628 1.75781 1.75781 13.5628 1.75781 28.125 1.75781 42.6872 13.5628 54.4922 28.125 54.4922Z" stroke="#66737C" stroke-width="3.33333" stroke-linecap="round" stroke-linejoin="round"/><path d="M42.3 42.1875C40.9908 39.5456 38.9695 37.3219 36.4643 35.7673 33.9588 34.2124 31.069 33.3886 28.1203 33.3886 25.1716 33.3886 22.2818 34.2124 19.7764 35.7673 17.271 37.3219 15.2498 39.5456 13.9406 42.1875" stroke="#66737C" stroke-width="3.33333" stroke-linecap="round" stroke-linejoin="round"/><path d="M19.3359 21.9727C18.8505 21.9727 18.457 21.5792 18.457 21.0938 18.457 20.6083 18.8505 20.2148 19.3359 20.2148" stroke="#66737C" stroke-width="3.33333"/><path d="M19.3359 21.9727C19.8214 21.9727 20.2148 21.5792 20.2148 21.0938 20.2148 20.6083 19.8214 20.2148 19.3359 20.2148" stroke="#66737C" stroke-width="3.33333"/><g><path d="M36.9141 21.9727C36.4287 21.9727 36.0352 21.5792 36.0352 21.0938 36.0352 20.6083 36.4287 20.2148 36.9141 20.2148" stroke="#66737C" stroke-width="3.33333"/><path d="M36.9141 21.9727C37.3995 21.9727 37.793 21.5792 37.793 21.0938 37.793 20.6083 37.3995 20.2148 36.9141 20.2148" stroke="#66737C" stroke-width="3.33333"/></g></svg>