<svg width="60" height="60" viewBox="-2.14 -2.14 60 60" xmlns="http://www.w3.org/2000/svg" xmlns:xlink="http://www.w3.org/1999/xlink" id="Soft-Drinks-Can-Coffee--Streamline-Ultimate.svg" fill="none" overflow="hidden"><path d="M15.6713 15.6713 40.0488 15.6713" stroke="#66737C" stroke-width="3.57143" stroke-linecap="round" stroke-linejoin="round"/><path d="M24.3775 15.6713 19.1537 8.70625" stroke="#66737C" stroke-width="3.57143" stroke-linecap="round" stroke-linejoin="round"/><path d="M26.9894 3.4825C26.5086 3.4825 26.1187 3.09272 26.1187 2.61188 26.1187 2.13104 26.5086 1.74125 26.9894 1.74125" stroke="#66737C" stroke-width="3.57143"/><path d="M26.9894 3.4825C27.4702 3.4825 27.86 3.09272 27.86 2.61188 27.86 2.13104 27.4702 1.74125 26.9894 1.74125" stroke="#66737C" stroke-width="3.57143"/><path d="M37.4369 5.22375C36.9561 5.22375 36.5662 4.83397 36.5662 4.35313 36.5662 3.87228 36.9561 3.4825 37.4369 3.4825" stroke="#66737C" stroke-width="3.57143"/><path d="M37.4369 5.22375C37.9177 5.22375 38.3075 4.83397 38.3075 4.35313 38.3075 3.87228 37.9177 3.4825 37.4369 3.4825" stroke="#66737C" stroke-width="3.57143"/><path d="M32.2131 10.4475C31.7323 10.4475 31.3425 10.0577 31.3425 9.57687 31.3425 9.09604 31.7323 8.70625 32.2131 8.70625" stroke="#66737C" stroke-width="3.57143"/><path d="M32.2131 10.4475C32.6939 10.4475 33.0838 10.0577 33.0838 9.57687 33.0838 9.09604 32.6939 8.70625 32.2131 8.70625" stroke="#66737C" stroke-width="3.57143"/><path d="M20.895 15.6713 14.6938 23.4233C14.1996 24.0406 13.9302 24.8079 13.93 25.5987L13.93 47.701C13.9301 48.3884 14.1337 49.0605 14.5151 49.6326L16.3724 52.4186C16.6893 52.8973 17.1197 53.2904 17.6252 53.5625 18.1307 53.8348 18.6957 53.9776 19.2698 53.9787L36.4502 53.9787C37.0234 53.9787 37.5878 53.8371 38.0934 53.5667 38.5989 53.2959 39.0295 52.905 39.3476 52.4279L41.2049 49.6419C41.588 49.0673 41.7919 48.3917 41.79 47.701L41.79 25.5987C41.7898 24.8079 41.5205 24.0406 41.0262 23.4233L34.825 15.6713" stroke="#66737C" stroke-width="3.57143" stroke-linecap="round" stroke-linejoin="round"/><path d="M27.86 40.0488C31.7068 40.0488 34.825 36.9305 34.825 33.0838 34.825 29.237 31.7068 26.1187 27.86 26.1187 24.0132 26.1187 20.895 29.237 20.895 33.0838 20.895 36.9305 24.0132 40.0488 27.86 40.0488Z" stroke="#66737C" stroke-width="3.57143" stroke-linecap="round" stroke-linejoin="round"/></svg>