<svg width="60" height="60" viewBox="-1.875 -1.875 60 60" xmlns="http://www.w3.org/2000/svg" xmlns:xlink="http://www.w3.org/1999/xlink" id="Space-Truck-Satelite--Streamline-Ultimate" overflow="hidden"><path d="M1.75781 50.9766 1.75781 42.1875 7.94766 25.1648C8.45297 23.7764 9.77248 22.8521 11.25 22.8516L26.3672 22.8516 26.3672 50.9766" stroke="#66737C" stroke-width="3.57143" stroke-linecap="round" stroke-linejoin="round" fill="none"/><path d="M8.78906 49.2188C8.78906 52.1312 11.1501 54.4922 14.0625 54.4922 16.9749 54.4922 19.3359 52.1312 19.3359 49.2188 19.3359 46.3063 16.9749 43.9453 14.0625 43.9453 11.1501 43.9453 8.78906 46.3063 8.78906 49.2188Z" stroke="#66737C" stroke-width="3.57143" stroke-linecap="round" stroke-linejoin="round" fill="none"/><path d="M36.9141 49.2188C36.9141 52.1312 39.2751 54.4922 42.1875 54.4922 45.0999 54.4922 47.4609 52.1312 47.4609 49.2188 47.4609 46.3063 45.0999 43.9453 42.1875 43.9453 39.2751 43.9453 36.9141 46.3063 36.9141 49.2188Z" stroke="#66737C" stroke-width="3.57143" stroke-linecap="round" stroke-linejoin="round" fill="none"/><path d="M26.3672 50.9766 29.8828 50.9766" stroke="#66737C" stroke-width="3.57143" stroke-linecap="round" stroke-linejoin="round" fill="none"/><path d="M34.05 27.9984 36.9141 36.9047 50.9766 36.9047C52.9182 36.9047 54.4922 38.4787 54.4922 40.4203L54.4922 50.9672" stroke="#66737C" stroke-width="3.57143" stroke-linecap="round" stroke-linejoin="round" fill="none"/><path d="M52.7344 25.2492C46.5561 31.4275 36.5392 31.4275 30.3609 25.2492 24.1827 19.071 24.1827 9.05404 30.3609 2.87578Z" stroke="#66737C" stroke-width="3.57143" stroke-linecap="round" stroke-linejoin="round" fill="none"/><path d="M47.4609 5.27344C47.4609 7.21506 49.0349 8.78906 50.9766 8.78906 52.9182 8.78906 54.4922 7.21506 54.4922 5.27344 54.4922 3.33181 52.9182 1.75781 50.9766 1.75781 49.0349 1.75781 47.4609 3.33181 47.4609 5.27344Z" stroke="#66737C" stroke-width="3.57143" stroke-linecap="round" stroke-linejoin="round" fill="none"/><path d="M48.4898 7.76016 41.8688 14.3813" stroke="#66737C" stroke-width="3.57143" stroke-linecap="round" stroke-linejoin="round" fill="none"/><path d="M19.3359 22.8516 19.3359 33.3984C19.3359 35.3401 17.7619 36.9141 15.8203 36.9141L3.86719 36.9141" stroke="#66737C" stroke-width="3.57143" stroke-linecap="round" stroke-linejoin="round" fill="none"/></svg>