<svg width="60" height="60" viewBox="-1.875 -1.875 60 60" xmlns="http://www.w3.org/2000/svg" xmlns:xlink="http://www.w3.org/1999/xlink" id="Space-Antenna-Satelite--Streamline-Ultimate" overflow="hidden"><defs></defs><path d="M8.78906 49.2188C8.78906 52.1312 11.1501 54.4922 14.0625 54.4922 16.9749 54.4922 19.3359 52.1312 19.3359 49.2188 19.3359 46.3063 16.9749 43.9453 14.0625 43.9453 11.1501 43.9453 8.78906 46.3063 8.78906 49.2188" stroke="#66737C" stroke-width="3.33333" stroke-linecap="round" stroke-linejoin="round" fill="none"/><path d="M43.9453 49.2188C43.9453 52.1312 46.3063 54.4922 49.2188 54.4922 52.1312 54.4922 54.4922 52.1312 54.4922 49.2188 54.4922 46.3063 52.1312 43.9453 49.2188 43.9453 46.3063 43.9453 43.9453 46.3063 43.9453 49.2188" stroke="#66737C" stroke-width="3.33333" stroke-linecap="round" stroke-linejoin="round" fill="none"/><path d="M19.3359 49.2188 43.9453 49.2188" stroke="#66737C" stroke-width="3.33333" stroke-linecap="round" stroke-linejoin="round" fill="none"/><path d="M48.9844 43.95 50.7586 31.1297C51.0507 28.8077 49.4052 26.6885 47.0831 26.3964 44.8778 26.119 42.8328 27.5927 42.3984 29.7727L39.7617 40.4297 33.3984 40.4297C31.4568 40.4297 29.8828 42.0037 29.8828 43.9453L29.8828 45.7031C29.8828 47.6448 31.4568 49.2188 33.3984 49.2188L36.9141 49.2188" stroke="#66737C" stroke-width="3.33333" stroke-linecap="round" stroke-linejoin="round" fill="none"/><path d="M19.3359 49.2188 19.3359 27.8977" stroke="#66737C" stroke-width="3.33333" stroke-linecap="round" stroke-linejoin="round" fill="none"/><path d="M2.8125 11.2312C2.89643 7.40938 5.19214 3.98411 8.69531 2.45391 12.2538 1.06 16.2978 1.8604 19.057 4.50469" stroke="#66737C" stroke-width="3.33333" stroke-linecap="round" stroke-linejoin="round" fill="none"/><path d="M15.8555 9.00234C14.6035 7.64936 12.6515 7.19948 10.9336 7.86797 9.24958 8.6116 8.1904 10.3081 8.26172 12.1477" stroke="#66737C" stroke-width="3.33333" stroke-linecap="round" stroke-linejoin="round" fill="none"/><path d="M27.743 11.6883C30.7148 18.8648 26.4094 24.9258 19.2352 27.8977 12.0609 30.8695 4.72969 29.6273 1.75781 22.4508Z" stroke="#66737C" stroke-width="3.33333" stroke-linecap="round" stroke-linejoin="round" fill="none"/></svg>