<svg width="60" height="60" viewBox="-2.14 -2.14 60 60" xmlns="http://www.w3.org/2000/svg" xmlns:xlink="http://www.w3.org/1999/xlink" id="Square-Stack--Streamline-Ultimate.svg" fill="none" overflow="hidden"><path d="M28.7887 53.595 48.5228 39.4328C48.9412 39.095 49.3106 38.7667 49.5427 38.3024 49.7749 37.8381 49.9158 37.3433 49.9158 36.879L49.9158 12.2692C49.9158 11.8049 49.6837 11.3406 49.2193 11.1084 48.755 10.8762 48.2907 10.8762 47.8263 11.1084L27.86 25.5028C27.4674 25.7693 27.0535 26.142 26.8213 26.6063 26.5891 27.0706 26.467 27.5923 26.467 28.0566L26.467 52.6663C26.467 53.1306 26.6992 53.595 27.1635 53.8271 27.86 54.0593 28.3243 54.0593 28.7887 53.595Z" stroke="#66737C" stroke-width="3.57143" stroke-linecap="round" stroke-linejoin="round" stroke-miterlimit="10"/><path d="M26.9313 1.74045 6.965 16.5991C6.73283 16.8313 6.2685 17.2956 6.03633 17.76 5.80417 18.2243 5.80417 19.3851 5.80417 19.3851L5.80417 44.2271" stroke="#66737C" stroke-width="3.57143" stroke-linecap="round" stroke-linejoin="round" stroke-miterlimit="10"/><path d="M37.3788 5.95928 17.4125 21.0501C17.1803 21.2823 16.716 21.7466 16.4838 22.2109 16.2517 22.6753 16.2517 23.6039 16.2517 23.6039L16.2517 48.6779" stroke="#66737C" stroke-width="3.57143" stroke-linecap="round" stroke-linejoin="round" stroke-miterlimit="10"/></svg>