<svg width="44.8" height="44.8" viewBox="-1.6 -1.6 44.8 44.8" xmlns="http://www.w3.org/2000/svg" xmlns:xlink="http://www.w3.org/1999/xlink" id="Startup--Streamline-Core" fill="none" overflow="hidden"><g id="startup--shop-rocket-launch-startup"><path d="M16.9669 12.8069C11.2617 8.91434 5.94286 11.8858 1.48571 16.4618L11.3509 22.4046" id="Vector" stroke="#66737C" stroke-width="2.67857" stroke-linecap="round" stroke-linejoin="round"/><path d="M28.7931 24.6331C32.6857 30.3383 29.7143 35.6571 25.1383 40.1143L19.1954 30.2491" id="Vector_2" stroke="#66737C" stroke-width="2.67857" stroke-linecap="round" stroke-linejoin="round"/><path d="M11.3509 22.3748 19.2252 30.2491C25.5246 26.4753 32.6857 22.8205 35.9543 19.4331 43.0263 12.3611 38.9257 2.67421 38.9257 2.67421 38.9257 2.67421 29.2389-1.42637 22.1669 5.64563 18.7795 8.9142 15.0949 16.1051 11.3509 22.3748Z" id="Vector_3" stroke="#66737C" stroke-width="2.67857" stroke-linecap="round" stroke-linejoin="round"/><path d="M15.6891 14.9166 26.6834 25.9109" id="Vector_4" stroke="#66737C" stroke-width="2.67857" stroke-linecap="round" stroke-linejoin="round"/><path d="M31.2 11.8857C32.0204 11.8857 32.6857 11.2205 32.6857 10.4 32.6857 9.57947 32.0204 8.91429 31.2 8.91429 30.3796 8.91429 29.7143 9.57947 29.7143 10.4 29.7143 11.2205 30.3796 11.8857 31.2 11.8857Z" id="Vector_5" stroke="#66737C" stroke-width="2.67857" stroke-linecap="round" stroke-linejoin="round"/><path d="M10.9349 36.9646C9.21143 38.6286 1.48571 40.1143 1.48571 40.1143 1.48571 40.1143 2.97143 32.3886 4.63543 30.6651 5.04347 30.2272 5.53553 29.8759 6.08228 29.6324 6.62902 29.3888 7.21923 29.2578 7.81768 29.2472 8.41616 29.2367 9.01062 29.3468 9.56562 29.5709 10.1206 29.7951 10.6248 30.1288 11.048 30.5519 11.4712 30.9754 11.8049 31.4793 12.0291 32.0344 12.2533 32.5894 12.3633 33.1837 12.3528 33.7825 12.3422 34.3809 12.2112 34.971 11.9676 35.5178 11.724 36.0645 11.3728 36.5566 10.9349 36.9646Z" id="Vector_6" stroke="#66737C" stroke-width="2.67857" stroke-linecap="round" stroke-linejoin="round"/></g></svg>