<svg width="44.8" height="44.8" viewBox="-1.6 -1.6 44.8 44.8" xmlns="http://www.w3.org/2000/svg" xmlns:xlink="http://www.w3.org/1999/xlink" id="Stock--Streamline-Core" fill="none" overflow="hidden"><g id="stock--price-stock-wallstreet-dollar-money-currency-fluctuate-candlestick-business"><path d="M5.94286 29.7143 5.94286 34.1714" id="Vector" stroke="#66737C" stroke-width="2.67857" stroke-linecap="round" stroke-linejoin="round"/><path d="M5.94286 10.4 5.94286 1.48571" id="Vector_2" stroke="#66737C" stroke-width="2.67857" stroke-linecap="round" stroke-linejoin="round"/><path d="M7.42857 10.4 4.45714 10.4C2.81607 10.4 1.48571 11.7304 1.48571 13.3714L1.48571 26.7429C1.48571 28.3839 2.81607 29.7143 4.45714 29.7143L7.42857 29.7143C9.06963 29.7143 10.4 28.3839 10.4 26.7429L10.4 13.3714C10.4 11.7304 9.06963 10.4 7.42857 10.4Z" id="Vector_3" stroke="#66737C" stroke-width="2.67857" stroke-linecap="round" stroke-linejoin="round"/><path d="M23.7714 22.2857 20.8 22.2857C19.1589 22.2857 17.8286 23.6161 17.8286 25.2571L17.8286 29.7143C17.8286 31.3554 19.1589 32.6857 20.8 32.6857L23.7714 32.6857C25.4125 32.6857 26.7429 31.3554 26.7429 29.7143L26.7429 25.2571C26.7429 23.6161 25.4125 22.2857 23.7714 22.2857Z" id="Vector_4" stroke="#66737C" stroke-width="2.67857" stroke-linecap="round" stroke-linejoin="round"/><path d="M22.2857 32.6857 22.2857 40.1143" id="Vector_5" stroke="#66737C" stroke-width="2.67857" stroke-linecap="round" stroke-linejoin="round"/><path d="M22.2857 22.2857 22.2857 11.8857" id="Vector_6" stroke="#66737C" stroke-width="2.67857" stroke-linecap="round" stroke-linejoin="round"/><path d="M39.931 6.8509C39.7898 6.45109 39.5717 6.08751 39.2945 5.77788 38.7052 5.11933 37.8486 4.70487 36.8953 4.70487L34.4035 4.70487C32.8168 4.70487 31.5301 5.99135 31.5301 7.5783 31.5301 8.92861 32.4703 10.0968 33.7896 10.3853L37.5832 11.2152C39.0609 11.5384 40.1143 12.848 40.1143 14.3608 40.1143 16.1386 38.6731 17.581 36.8953 17.581L34.7491 17.581C33.3477 17.581 32.1553 16.6853 31.7135 15.435" id="Vector 3" stroke="#66737C" stroke-width="2.67857" stroke-linecap="round" stroke-linejoin="round"/><path d="M35.8224 4.70475 35.8224 1.48571" id="Vector 2489" stroke="#66737C" stroke-width="2.67857" stroke-linecap="round" stroke-linejoin="round"/><path d="M35.8224 20.8 35.8224 17.581" id="Vector 2490" stroke="#66737C" stroke-width="2.67857" stroke-linecap="round" stroke-linejoin="round"/></g></svg>