<svg width="60" height="60" viewBox="-1.875 -1.875 60 60" xmlns="http://www.w3.org/2000/svg" xmlns:xlink="http://www.w3.org/1999/xlink" id="Study-Book--Streamline-Ultimate" overflow="hidden"><g><g><path d="M19.1484 42.7031C14.6066 41.1958 9.86929 40.3588 5.08594 40.2188 3.22175 40.1186 1.76603 38.5699 1.78125 36.7031L1.78125 5.39062C1.77775 3.449 3.34891 1.87217 5.29053 1.86867 5.36301 1.86854 5.43547 1.87065 5.50781 1.875 20.3438 2.64844 28.125 7.94531 28.125 11.9766 28.125 7.96875 36.8438 2.71875 50.7188 1.89844 52.6412 1.74301 54.3256 3.17543 54.481 5.09784 54.4895 5.20303 54.4932 5.30854 54.4922 5.41406L54.4922 34.9453" stroke="#66737C" stroke-width="3.57143" stroke-linecap="round" stroke-linejoin="round" fill="none"/><path d="M28.125 11.9766 28.125 21.0938" stroke="#66737C" stroke-width="3.57143" stroke-linecap="round" stroke-linejoin="round" fill="none"/></g><path d="M21.8906 15.3516C17.6751 13.8226 13.2928 12.7998 8.83594 12.3047" stroke="#66737C" stroke-width="3.57143" stroke-linecap="round" stroke-linejoin="round" fill="none"/><path d="M45.4922 21.6094C46.3125 21.4688 47.1328 21.3516 48 21.2578" stroke="#66737C" stroke-width="3.57143" stroke-linecap="round" stroke-linejoin="round" fill="none"/><path d="M21.8906 24.2812C17.6694 22.7763 13.289 21.7619 8.83594 21.2578" stroke="#66737C" stroke-width="3.57143" stroke-linecap="round" stroke-linejoin="round" fill="none"/><path d="M21.8906 33.7734C17.6319 32.2494 13.2124 31.2192 8.71875 30.7031" stroke="#66737C" stroke-width="3.57143" stroke-linecap="round" stroke-linejoin="round" fill="none"/><path d="M34.9219 15.375C39.1879 13.8486 43.6155 12.8184 48.1172 12.3047" stroke="#66737C" stroke-width="3.57143" stroke-linecap="round" stroke-linejoin="round" fill="none"/><path d="M54.2344 54.4922 54.4688 51.8672C54.7881 48.3434 52.4392 45.1312 48.9844 44.3672L40.4297 42.4688 40.4297 29.0156C40.6071 26.5886 38.7833 24.4773 36.3563 24.2999 33.9293 24.1226 31.818 25.9463 31.6406 28.3733 31.625 28.5871 31.625 28.8018 31.6406 29.0156L31.6406 50.5781 28.125 47.9766C26.55 46.7759 24.2999 47.0793 23.0992 48.6543 22.1165 49.9433 22.1207 51.7312 23.1094 53.0156L24.2109 54.4922" stroke="#66737C" stroke-width="3.57143" stroke-linecap="round" stroke-linejoin="round" fill="none"/></g></svg>