<svg width="60" height="60" viewBox="-1.875 -1.875 60 60" xmlns="http://www.w3.org/2000/svg" xmlns:xlink="http://www.w3.org/1999/xlink" id="Surveillance-Location-1--Streamline-Ultimate" fill="none" overflow="hidden"><path d="M54.3694 28.1194C54.372 34.1909 52.2694 40.0755 48.4198 44.7708 44.5702 49.4658 39.2119 52.6809 33.2576 53.8683 27.3033 55.0559 21.1214 54.1418 15.7654 51.2824 10.4093 48.423 6.21033 43.7951 3.88387 38.187 1.55744 32.5788 1.24744 26.3374 3.0067 20.5264 4.76597 14.7154 8.48566 9.69403 13.532 6.31795 18.5784 2.94187 24.6391 1.41994 30.6818 2.01144 36.7245 2.60292 42.3752 5.27126 46.6711 9.56182" stroke="#66737C" stroke-width="3.33333" stroke-linecap="round" stroke-linejoin="round"/><path d="M1.88084 28.1194 54.3694 28.1194" stroke="#66737C" stroke-width="3.33333" stroke-linecap="round" stroke-linejoin="round"/><path d="M28.125 1.87511 28.125 54.3638" stroke="#66737C" stroke-width="3.33333" stroke-linecap="round" stroke-linejoin="round"/><path d="M28.125 28.1194 49.1203 7.12395" stroke="#66737C" stroke-width="3.33333" stroke-linecap="round" stroke-linejoin="round"/><path d="M21.1267 14.0105C24.0804 12.5471 27.4188 12.047 30.6717 12.5806 33.9246 13.1141 36.9281 14.6545 39.2597 16.9849" stroke="#66737C" stroke-width="3.33333" stroke-linecap="round" stroke-linejoin="round"/><path d="M35.3566 42.1162C32.5514 43.5638 29.3759 44.1354 26.2418 43.7566 23.1077 43.3779 20.1596 42.0666 17.7798 39.9923 15.3999 37.9181 13.698 35.1771 12.8947 32.1241 12.0913 29.0712 12.2235 25.8473 13.2742 22.8705" stroke="#66737C" stroke-width="3.33333" stroke-linecap="round" stroke-linejoin="round"/><path d="M43.8717 28.1194C43.8722 29.2966 43.7416 30.4702 43.4822 31.6186" stroke="#66737C" stroke-width="3.33333" stroke-linecap="round" stroke-linejoin="round"/><path d="M15.0028 17.6217C14.5197 17.6217 14.128 17.2301 14.128 16.7469 14.128 16.2638 14.5197 15.8721 15.0028 15.8721" stroke="#66737C" stroke-width="3.33333"/><path d="M15.003 17.6217C15.4862 17.6217 15.8778 17.2301 15.8778 16.7469 15.8778 16.2638 15.4862 15.8721 15.003 15.8721" stroke="#66737C" stroke-width="3.33333"/><g><path d="M41.2472 38.617C40.7641 38.617 40.3725 38.2254 40.3725 37.7423 40.3725 37.2591 40.7641 36.8674 41.2472 36.8674" stroke="#66737C" stroke-width="3.33333"/><path d="M41.2472 38.617C41.7302 38.617 42.1219 38.2254 42.1219 37.7423 42.1219 37.2591 41.7302 36.8674 41.2472 36.8674" stroke="#66737C" stroke-width="3.33333"/></g></svg>