<svg width="60" height="60" viewBox="-2.14 -2.14 60 60" xmlns="http://www.w3.org/2000/svg" xmlns:xlink="http://www.w3.org/1999/xlink" id="Switch-Account-1--Streamline-Ultimate.svg" fill="none" overflow="hidden"><path d="M25.7735 3.45422 11.2116 3.45422C9.92935 3.45422 8.88989 4.49366 8.88989 5.77589L8.88989 21.1308" stroke="#66737C" stroke-width="3.57143" stroke-linecap="round" stroke-linejoin="round"/><path d="M29.9465 52.2658 44.5084 52.2658C45.7907 52.2658 46.8301 51.2264 46.8301 49.9442L46.8301 34.5891" stroke="#66737C" stroke-width="3.57143" stroke-linecap="round" stroke-linejoin="round"/><path d="M2.85447 15.0908 8.89266 21.129 14.9308 15.0908" stroke="#66737C" stroke-width="3.57143" stroke-linecap="round" stroke-linejoin="round"/><path d="M52.8655 40.6292 46.8273 34.591 40.7891 40.6292" stroke="#66737C" stroke-width="3.57143" stroke-linecap="round" stroke-linejoin="round"/><path d="M12.7802 43.0579C16.0516 43.0579 18.7036 40.4058 18.7036 37.1344 18.7036 33.8629 16.0516 31.2111 12.7802 31.2111 9.50876 31.2111 6.85674 33.8629 6.85674 37.1344 6.85674 40.4058 9.50876 43.0579 12.7802 43.0579Z" stroke="#66737C" stroke-width="3.57143" stroke-linecap="round" stroke-linejoin="round" stroke-miterlimit="10"/><path d="M22.7095 52.2637C21.4126 48.0144 17.396 44.8286 12.782 44.8286 8.16804 44.8286 4.1514 48.0144 2.85447 52.2637" stroke="#66737C" stroke-width="3.57143" stroke-linecap="round" stroke-linejoin="round" stroke-miterlimit="10"/><path d="M42.9346 15.3022C46.206 15.3022 48.8581 12.6502 48.8581 9.37872 48.8581 6.10731 46.206 3.45529 42.9346 3.45529 39.6631 3.45529 37.0113 6.10731 37.0113 9.37872 37.0113 12.6502 39.6631 15.3022 42.9346 15.3022Z" stroke="#66737C" stroke-width="3.57143" stroke-linecap="round" stroke-linejoin="round" stroke-miterlimit="10"/><path d="M52.8639 24.508C51.567 20.2588 47.5505 17.073 42.9364 17.073 38.3226 17.073 34.3059 20.2588 33.009 24.508" stroke="#66737C" stroke-width="3.57143" stroke-linecap="round" stroke-linejoin="round" stroke-miterlimit="10"/></svg>