<svg width="60" height="60" viewBox="-2.14 -2.14 60 60" xmlns="http://www.w3.org/2000/svg" xmlns:xlink="http://www.w3.org/1999/xlink" id="Switch-Account-2--Streamline-Ultimate.svg" fill="none" overflow="hidden"><path d="M27.8593 27.6731C31.0507 27.6731 33.6379 25.0858 33.6379 21.8944 33.6379 18.7029 31.0507 16.1156 27.8593 16.1156 24.6677 16.1156 22.0805 18.7029 22.0805 21.8944 22.0805 25.0858 24.6677 27.6731 27.8593 27.6731Z" stroke="#66737C" stroke-width="3.57143" stroke-linecap="round" stroke-linejoin="round" stroke-miterlimit="10"/><path d="M37.5446 36.6591C36.2793 32.5138 32.3608 29.4058 27.8595 29.4058 23.3583 29.4058 19.4398 32.5138 18.1746 36.6591" stroke="#66737C" stroke-width="3.57143" stroke-linecap="round" stroke-linejoin="round" stroke-miterlimit="10"/><path d="M47.3648 11.3667C42.6794 5.83135 35.6801 2.31713 27.86 2.31713 13.7531 2.31713 2.31713 13.7531 2.31713 27.86 2.31713 30.8229 2.82157 33.6679 3.74926 36.3139M8.40875 44.4163C13.0939 49.9154 20.0696 53.403 27.86 53.403 41.9669 53.403 53.403 41.9669 53.403 27.86 53.403 24.7603 52.8507 21.7896 51.8396 19.0408" stroke="#66737C" stroke-width="3.57143" stroke-linecap="round" stroke-linejoin="round" stroke-miterlimit="10"/><path d="M40.0216 12.1162 48.0248 12.1162 48.0248 4.11302" stroke="#66737C" stroke-width="3.57143" stroke-linecap="round" stroke-linejoin="round"/><path d="M15.6985 43.6037 7.69526 43.6037 7.69526 51.6069" stroke="#66737C" stroke-width="3.57143" stroke-linecap="round" stroke-linejoin="round"/></svg>