<svg width="60" height="60" viewBox="-1.875 -1.875 60 60" xmlns="http://www.w3.org/2000/svg" xmlns:xlink="http://www.w3.org/1999/xlink" id="Switch-Account-3--Streamline-Ultimate" fill="none" overflow="hidden"><style>
.MsftOfcResponsive_Stroke_66737c {
 stroke:#66737C; 
}
</style>
<path d="M48.7931 28.125 48.7931 46.4494C48.7931 47.7436 47.7436 48.7931 46.4494 48.7931L9.80072 48.7931C8.50631 48.7931 7.45697 47.7436 7.45697 46.4494L7.45697 38.4591M7.45697 28.125 7.45697 9.80072C7.45697 8.50631 8.50631 7.45697 9.80072 7.45697L46.4494 7.45697C47.7436 7.45697 48.7931 8.50631 48.7931 9.80072L48.7931 17.791" class="MsftOfcResponsive_Stroke_66737c" stroke="#66737C" stroke-width="3.33333" stroke-linecap="round" stroke-linejoin="round"/><path d="M2.41699 23.085 7.45702 28.125 12.497 23.085" class="MsftOfcResponsive_Stroke_66737c" stroke="#66737C" stroke-width="3.33333" stroke-linecap="round" stroke-linejoin="round"/><path d="M53.8331 33.165 48.7929 28.125 43.7529 33.165" class="MsftOfcResponsive_Stroke_66737c" stroke="#66737C" stroke-width="3.33333" stroke-linecap="round" stroke-linejoin="round"/><path d="M28.1243 29.2359C30.8848 29.2359 33.1223 26.9981 33.1223 24.2379 33.1223 21.4775 30.8848 19.2398 28.1243 19.2398 25.3641 19.2398 23.1264 21.4775 23.1264 24.2379 23.1264 26.9981 25.3641 29.2359 28.1243 29.2359Z" class="MsftOfcResponsive_Stroke_66737c" stroke="#66737C" stroke-width="3.33333" stroke-linecap="round" stroke-linejoin="round" stroke-miterlimit="10"/><path d="M36.5009 37.009C35.4066 33.4235 32.0175 30.7355 28.1243 30.7355 24.2313 30.7355 20.8421 33.4235 19.7478 37.009" class="MsftOfcResponsive_Stroke_66737c" stroke="#66737C" stroke-width="3.33333" stroke-linecap="round" stroke-linejoin="round" stroke-miterlimit="10"/></svg>