<svg width="60" height="60" viewBox="-2.14 -2.14 60 60" xmlns="http://www.w3.org/2000/svg" xmlns:xlink="http://www.w3.org/1999/xlink" id="Synchronize-Arrow-2--Streamline-Ultimate.svg" overflow="hidden"><path d="M31.3425 50.4893C43.8442 50.4893 53.9787 40.3547 53.9787 27.853 53.9787 15.3514 43.8442 5.21678 31.3425 5.21678 18.8408 5.21678 8.70625 15.3514 8.70625 27.853 8.70625 27.8554 8.70625 27.8577 8.70625 27.86L8.70625 29.6012" stroke="#66737C" stroke-width="3.57143" stroke-linecap="round" stroke-linejoin="round" fill="none"/><path d="M1.74125 22.6293 8.70625 29.5943 15.6713 22.6293" stroke="#66737C" stroke-width="3.57143" stroke-linecap="round" stroke-linejoin="round" fill="none"/><path d="M26.1187 27.853C26.1187 30.738 28.4575 33.0768 31.3425 33.0768 34.2275 33.0768 36.5662 30.738 36.5662 27.853 36.5662 24.968 34.2275 22.6293 31.3425 22.6293 28.4575 22.6293 26.1188 24.968 26.1188 27.853Z" stroke="#66737C" stroke-width="3.57143" stroke-linecap="round" stroke-linejoin="round" fill="none"/></svg>