<svg width="60" height="60" viewBox="-1.875 -1.875 60 60" xmlns="http://www.w3.org/2000/svg" xmlns:xlink="http://www.w3.org/1999/xlink" id="Task-List-Check--Streamline-Ultimate" fill="none" overflow="hidden"><path d="M38.2336 26.3906 25.1273 39.4969C24.9492 39.6752 24.7378 39.8168 24.5048 39.9136 24.2721 40.0102 24.0223 40.0598 23.7703 40.0598 23.5181 40.0598 23.2686 40.0102 23.0357 39.9136 22.8029 39.8168 22.5913 39.6752 22.4133 39.4969L18.0187 35.1" stroke="#66737C" stroke-width="3.33333" stroke-linecap="round" stroke-linejoin="round"/><path d="M36.9141 10.5469 45.7031 10.5469C46.6355 10.5469 47.5298 10.9173 48.1891 11.5766 48.8484 12.2359 49.2188 13.1301 49.2188 14.0625L49.2188 50.9766C49.2188 51.9089 48.8484 52.8033 48.1891 53.4626 47.5298 54.1219 46.6355 54.4922 45.7031 54.4922L10.5469 54.4922C9.61448 54.4922 8.72025 54.1219 8.06095 53.4626 7.40166 52.8033 7.03125 51.9089 7.03125 50.9766L7.03125 14.0625C7.03125 13.1301 7.40166 12.2359 8.06095 11.5766 8.72025 10.9173 9.61448 10.5469 10.5469 10.5469L19.3359 10.5469C19.3359 8.21587 20.2619 5.98034 21.9102 4.33207 23.5584 2.6838 25.7939 1.75781 28.125 1.75781 30.4561 1.75781 32.6916 2.6838 34.3399 4.33207 35.988 5.98034 36.9141 8.21587 36.9141 10.5469L36.9141 10.5469Z" stroke="#66737C" stroke-width="3.33333" stroke-linecap="round" stroke-linejoin="round"/><path d="M28.1238 10.5716C27.6384 10.5716 27.2449 10.1781 27.2449 9.69272 27.2449 9.2073 27.6384 8.81381 28.1238 8.81381" stroke="#66737C" stroke-width="3.33333"/><path d="M28.1238 10.5716C28.6092 10.5716 29.0027 10.1781 29.0027 9.69272 29.0027 9.2073 28.6092 8.81381 28.1238 8.81381" stroke="#66737C" stroke-width="3.33333"/></svg>