<svg width="60" height="60" viewBox="-1.875 -1.875 60 60" xmlns="http://www.w3.org/2000/svg" xmlns:xlink="http://www.w3.org/1999/xlink" id="Technology-Robot-Head-6--Streamline-Ultimate" overflow="hidden"><defs></defs><path d="M12.3047 21.0938 43.9453 21.0938C43.9453 21.0938 48.6328 21.0938 48.6328 25.7812L48.6328 49.2188C48.6328 49.2188 48.6328 53.9062 43.9453 53.9062L12.3047 53.9062C12.3047 53.9062 7.61719 53.9062 7.61719 49.2188L7.61719 25.7812C7.61719 25.7812 7.61719 21.0938 12.3047 21.0938" stroke="#66737C" stroke-width="3.33333" stroke-linecap="round" stroke-linejoin="round" fill="none"/><path d="M1.75781 32.8125 1.75781 43.3594" stroke="#66737C" stroke-width="3.33333" stroke-linecap="round" stroke-linejoin="round" fill="none"/><path d="M54.4922 32.8125 54.4922 43.3594" stroke="#66737C" stroke-width="3.33333" stroke-linecap="round" stroke-linejoin="round" fill="none"/><path d="M15.2344 37.5C15.2344 39.4416 16.8084 41.0156 18.75 41.0156 20.6916 41.0156 22.2656 39.4416 22.2656 37.5 22.2656 35.5584 20.6916 33.9844 18.75 33.9844 16.8084 33.9844 15.2344 35.5584 15.2344 37.5" stroke="#66737C" stroke-width="3.33333" stroke-linecap="round" stroke-linejoin="round" fill="none"/><path d="M33.9844 37.5C33.9844 39.4416 35.5584 41.0156 37.5 41.0156 39.4416 41.0156 41.0156 39.4416 41.0156 37.5 41.0156 35.5584 39.4416 33.9844 37.5 33.9844 35.5584 33.9844 33.9844 35.5584 33.9844 37.5" stroke="#66737C" stroke-width="3.33333" stroke-linecap="round" stroke-linejoin="round" fill="none"/><path d="M28.125 21.0938 28.125 14.0625" stroke="#66737C" stroke-width="3.33333" stroke-linecap="round" stroke-linejoin="round" fill="none"/><path d="M22.2656 8.20312C22.2656 11.4392 24.889 14.0625 28.125 14.0625 31.361 14.0625 33.9844 11.4392 33.9844 8.20312 33.9844 4.96708 31.361 2.34375 28.125 2.34375 24.889 2.34375 22.2656 4.96708 22.2656 8.20312" stroke="#66737C" stroke-width="3.33333" stroke-linecap="round" stroke-linejoin="round" fill="none"/></svg>