<svg width="60" height="60" viewBox="-1.875 -1.875 60 60" xmlns="http://www.w3.org/2000/svg" xmlns:xlink="http://www.w3.org/1999/xlink" id="Technology-Robot-Police-Shield--Streamline-Ultimate" fill="none" overflow="hidden"><path d="M53.8948 17.3898C53.861 19.9803 53.1225 22.5127 51.7584 24.7153 50.3946 26.918 48.4568 28.7077 46.1529 29.8927L40.448 32.9468 34.7454 29.8927C32.4415 28.7077 30.5037 26.918 29.1398 24.7153 27.7758 22.5127 27.0373 19.9803 27.0035 17.3898L27.0035 2.34375 27.4617 2.90278C28.1466 3.74154 28.998 4.42898 29.9623 4.92157 30.9265 5.41416 31.9826 5.70117 33.0635 5.76445 34.1501 5.84285 35.2411 5.69766 36.2691 5.33787 37.2973 4.97808 38.2406 4.41134 39.0412 3.67263L40.4595 2.34375 41.88 3.67263C42.6804 4.41134 43.624 4.97808 44.652 5.33787 45.6802 5.69766 46.7712 5.84285 47.8575 5.76445 48.9366 5.69934 49.9903 5.41146 50.9524 4.91895 51.9145 4.42643 52.7644 3.73997 53.448 2.90278L53.9062 2.34375 53.8948 17.3898Z" stroke="#66737C" stroke-width="3.33333" stroke-linecap="round" stroke-linejoin="round"/><path d="M27.5466 51.6035C27.5466 52.2113 27.3052 52.7939 26.8753 53.2235 26.4457 53.6534 25.863 53.8948 25.2553 53.8948L4.63491 53.8948C4.02727 53.8948 3.44449 53.6534 3.01481 53.2235 2.58513 52.7939 2.34375 52.2113 2.34375 51.6035L2.34375 45.8756C2.34375 42.5334 3.67139 39.3284 6.03459 36.9652 8.39782 34.602 11.603 33.2742 14.9451 33.2742 18.2872 33.2742 21.4924 34.602 23.8556 36.9652 26.2188 39.3284 27.5466 42.5334 27.5466 45.8756L27.5466 51.6035Z" stroke="#66737C" stroke-width="3.33333" stroke-linecap="round" stroke-linejoin="round"/><path d="M10.3628 43.871C9.88828 43.871 9.50362 43.4864 9.50362 43.0118 9.50362 42.5372 9.88828 42.1526 10.3628 42.1526" stroke="#66737C" stroke-width="3.33333"/><path d="M10.3628 43.871C10.8373 43.871 11.222 43.4864 11.222 43.0118 11.222 42.5372 10.8373 42.1526 10.3628 42.1526" stroke="#66737C" stroke-width="3.33333"/><path d="M19.5274 43.871C19.0529 43.871 18.6682 43.4864 18.6682 43.0118 18.6682 42.5372 19.0529 42.1526 19.5274 42.1526" stroke="#66737C" stroke-width="3.33333"/><path d="M19.5274 43.871C20.0019 43.871 20.3866 43.4864 20.3866 43.0118 20.3866 42.5372 20.0019 42.1526 19.5274 42.1526" stroke="#66737C" stroke-width="3.33333"/><path d="M14.9451 33.2745 14.9451 28.692" stroke="#66737C" stroke-width="3.33333" stroke-linecap="round" stroke-linejoin="round"/><path d="M14.9451 28.6922C16.8432 28.6922 18.3818 27.1535 18.3818 25.2555 18.3818 23.3574 16.8432 21.8187 14.9451 21.8187 13.047 21.8187 11.5084 23.3574 11.5084 25.2555 11.5084 27.1535 13.047 28.6922 14.9451 28.6922Z" stroke="#66737C" stroke-width="3.33333" stroke-linecap="round" stroke-linejoin="round"/></svg>