<svg width="60" height="60" viewBox="-1.875 -1.875 60 60" xmlns="http://www.w3.org/2000/svg" xmlns:xlink="http://www.w3.org/1999/xlink" id="Technology-Ar-Searching-Finger-Touch--Streamline-Ultimate" overflow="hidden"><defs></defs><path d="M19.0523 1.7625 1.75781 11.243 19.0523 20.7234 36.3469 11.243 19.0523 1.7625Z" stroke="#66737C" stroke-width="3.33333" stroke-linecap="round" stroke-linejoin="round" fill="none"/><path d="M25.3664 33.2953 19.0523 36.7547 1.75781 27.2742 1.75781 11.243" stroke="#66737C" stroke-width="3.33333" stroke-linecap="round" stroke-linejoin="round" fill="none"/><path d="M36.3469 11.243 36.3469 16.3641" stroke="#66737C" stroke-width="3.33333" stroke-linecap="round" stroke-linejoin="round" fill="none"/><path d="M19.0523 20.7234 19.0523 36.7547" stroke="#66737C" stroke-width="3.33333" stroke-linecap="round" stroke-linejoin="round" fill="none"/><path d="M29.8828 54.4875 23.4047 47.1984C22.0455 45.7099 22.1505 43.4013 23.6391 42.0422 25.1276 40.683 27.4362 40.788 28.7953 42.2766L28.8516 42.3398 33.3914 47.4469 33.3914 26.3531C33.3914 24.4115 34.9654 22.8375 36.907 22.8375 38.8487 22.8375 40.4227 24.4115 40.4227 26.3531L40.4227 42.1875 43.9383 42.1875C49.7632 42.1875 54.4852 46.9095 54.4852 52.7344L54.4852 54.4922" stroke="#66737C" stroke-width="3.33333" stroke-linecap="round" stroke-linejoin="round" fill="none"/></svg>