<svg width="60" height="60" viewBox="-1.875 -1.875 60 60" xmlns="http://www.w3.org/2000/svg" xmlns:xlink="http://www.w3.org/1999/xlink" id="Technology-Network-Privacy-Access-Share-Lock-2--Streamline-Ultimate" overflow="hidden"><defs></defs><path d="M40.1484 9.375C40.1484 13.2583 43.2964 16.4062 47.1797 16.4062 51.0629 16.4062 54.2109 13.2583 54.2109 9.375 54.2109 5.49175 51.0629 2.34375 47.1797 2.34375 43.2964 2.34375 40.1484 5.49175 40.1484 9.375" stroke="#66737C" stroke-width="3.33333" stroke-linecap="round" stroke-linejoin="round" fill="none"/><path d="M40.1484 46.875C40.1484 50.7583 43.2964 53.9062 47.1797 53.9062 51.0629 53.9062 54.2109 50.7583 54.2109 46.875 54.2109 42.9917 51.0629 39.8438 47.1797 39.8438 43.2964 39.8438 40.1484 42.9917 40.1484 46.875" stroke="#66737C" stroke-width="3.33333" stroke-linecap="round" stroke-linejoin="round" fill="none"/><path d="M40.1484 12.8906 31.9453 17.5781" stroke="#66737C" stroke-width="3.33333" stroke-linecap="round" stroke-linejoin="round" fill="none"/><path d="M40.1484 44.5312 33.1172 41.0156" stroke="#66737C" stroke-width="3.33333" stroke-linecap="round" stroke-linejoin="round" fill="none"/><path d="M5.55469 20.625 24.3516 20.625C24.3516 20.625 27.8672 20.625 27.8672 24.1406L27.8672 37.5C27.8672 37.5 27.8672 41.0156 24.3516 41.0156L5.55469 41.0156C5.55469 41.0156 2.03906 41.0156 2.03906 37.5L2.03906 24.1406C2.03906 24.1406 2.03906 20.625 5.55469 20.625" stroke="#66737C" stroke-width="3.33333" stroke-linecap="round" stroke-linejoin="round" fill="none"/><path d="M5.4375 20.6812 5.4375 16.5469C5.4375 11.2915 9.69779 7.03125 14.9531 7.03125 20.2085 7.03125 24.4688 11.2915 24.4688 16.5469L24.4688 20.6812" stroke="#66737C" stroke-width="3.33333" stroke-linecap="round" stroke-linejoin="round" fill="none"/><path d="M10.875 30.8203 13.5938 33.5391 19.0312 28.1016" stroke="#66737C" stroke-width="3.33333" stroke-linecap="round" stroke-linejoin="round" fill="none"/></svg>