<svg width="60" height="60" viewBox="-1.875 -1.875 60 60" xmlns="http://www.w3.org/2000/svg" xmlns:xlink="http://www.w3.org/1999/xlink" id="Technology-Robot-2--Streamline-Ultimate" fill="none" overflow="hidden"><path d="M2.34375 53.906 2.34375 27.6101C2.34375 26.3972 2.82558 25.234 3.6832 24.3764 4.54085 23.5188 5.70408 23.037 6.91697 23.037L24.6314 23.037C25.8443 23.037 27.0075 23.5188 27.8651 24.3764 28.7227 25.234 29.2045 26.3972 29.2045 27.6101L29.2045 53.906" stroke="#66737C" stroke-width="3.33333" stroke-linecap="round" stroke-linejoin="round"/><path d="M2.91539 39.6148 28.6397 39.6148" stroke="#66737C" stroke-width="3.33333" stroke-linecap="round" stroke-linejoin="round"/><path d="M8.63191 23.0366 8.63191 15.6052" stroke="#66737C" stroke-width="3.33333" stroke-linecap="round" stroke-linejoin="round"/><path d="M10.3468 31.8975C9.87328 31.8975 9.48938 31.5136 9.48938 31.0402 9.48938 30.5665 9.87328 30.1826 10.3468 30.1826" stroke="#66737C" stroke-width="3.33333"/><path d="M10.3469 31.8975C10.8204 31.8975 11.2043 31.5136 11.2043 31.0402 11.2043 30.5665 10.8204 30.1826 10.3469 30.1826" stroke="#66737C" stroke-width="3.33333"/><path d="M20.6365 31.8975C20.163 31.8975 19.779 31.5136 19.779 31.0402 19.779 30.5665 20.163 30.1826 20.6365 30.1826" stroke="#66737C" stroke-width="3.33333"/><path d="M20.6365 31.8975C21.1101 31.8975 21.494 31.5136 21.494 31.0402 21.494 30.5665 21.1101 30.1826 20.6365 30.1826" stroke="#66737C" stroke-width="3.33333"/><path d="M39.8006 2.34375C37.8473 2.98099 36.1209 4.17089 34.8302 5.76933 33.5395 7.36779 32.7401 9.30619 32.5287 11.3497 32.317 13.3933 32.7026 15.4544 33.6387 17.2833 34.5745 19.1122 36.0209 20.6304 37.8021 21.6541 39.4406 22.5346 41.272 22.9954 43.1323 22.9954 44.9923 22.9954 46.8237 22.5346 48.4622 21.6541 50.2434 20.6304 51.6898 19.1122 52.6256 17.2833 53.5617 15.4544 53.9473 13.3933 53.7359 11.3497 53.5242 9.30619 52.7248 7.36779 51.4341 5.76933 50.1434 4.17089 48.417 2.98099 46.4637 2.34375L46.4637 11.138C46.4637 12.0216 46.1128 12.869 45.488 13.4938 44.8631 14.1186 44.0159 14.4696 43.1323 14.4696 42.2487 14.4696 41.4012 14.1186 40.7763 13.4938 40.1515 12.869 39.8006 12.0216 39.8006 11.138L39.8006 2.34375" stroke="#66737C" stroke-width="3.33333" stroke-linecap="round" stroke-linejoin="round"/><path d="M29.2113 43.0446 38.0742 46.1522" stroke="#66737C" stroke-width="3.33333" stroke-linecap="round" stroke-linejoin="round"/><path d="M43.027 51.1055C45.7624 51.1055 47.9798 48.888 47.9798 46.1527 47.9798 43.4173 45.7624 41.1998 43.027 41.1998 40.2916 41.1998 38.0742 43.4173 38.0742 46.1527 38.0742 48.888 40.2916 51.1055 43.027 51.1055Z" stroke="#66737C" stroke-width="3.33333" stroke-linecap="round" stroke-linejoin="round"/><path d="M43.027 41.1973 43.2077 23.037" stroke="#66737C" stroke-width="3.33333" stroke-linecap="round" stroke-linejoin="round"/></svg>