<svg width="60" height="60" viewBox="-1.875 -1.875 60 60" xmlns="http://www.w3.org/2000/svg" xmlns:xlink="http://www.w3.org/1999/xlink" id="Ticket--Streamline-Ultimate" overflow="hidden"><path d="M45.7031 28.7109C45.7011 24.4211 48.7955 20.7561 53.025 20.0391 53.8713 19.8972 54.4914 19.1651 54.4922 18.307L54.4922 12.8906C54.4922 10.949 52.9182 9.375 50.9766 9.375L5.27344 9.375C3.33181 9.375 1.75781 10.949 1.75781 12.8906L1.75781 18.3117C1.75762 19.1701 2.37824 19.9028 3.225 20.0437 8.01434 20.8417 11.25 25.3711 10.4521 30.1604 9.83469 33.8662 6.93075 36.7701 3.225 37.3875 2.37875 37.5294 1.75859 38.2615 1.75781 39.1195L1.75781 44.5312C1.75781 46.4729 3.33181 48.0469 5.27344 48.0469L50.9766 48.0469C52.9182 48.0469 54.4922 46.4729 54.4922 44.5312L54.4922 39.1102C54.4924 38.2517 53.8718 37.5191 53.025 37.3781 48.7972 36.6613 45.7034 32.999 45.7031 28.7109Z" stroke="#66737C" stroke-width="3.57143" stroke-linecap="round" stroke-linejoin="round" fill="none"/><path d="M36.9141 41.0156 36.9141 37.5" stroke="#66737C" stroke-width="3.57143" stroke-linecap="round" stroke-linejoin="round" fill="none"/><path d="M36.9141 30.4688 36.9141 26.9531" stroke="#66737C" stroke-width="3.57143" stroke-linecap="round" stroke-linejoin="round" fill="none"/><path d="M36.9141 19.9219 36.9141 16.4062" stroke="#66737C" stroke-width="3.57143" stroke-linecap="round" stroke-linejoin="round" fill="none"/><path d="M19.3359 41.0156 19.3359 37.5" stroke="#66737C" stroke-width="3.57143" stroke-linecap="round" stroke-linejoin="round" fill="none"/><path d="M19.3359 30.4688 19.3359 26.9531" stroke="#66737C" stroke-width="3.57143" stroke-linecap="round" stroke-linejoin="round" fill="none"/><path d="M19.3359 19.9219 19.3359 16.4062" stroke="#66737C" stroke-width="3.57143" stroke-linecap="round" stroke-linejoin="round" fill="none"/></svg>