<svg width="44.8" height="44.8" viewBox="-1.1 -1.1 16.2 16.2" xmlns="http://www.w3.org/2000/svg" xmlns:xlink="http://www.w3.org/1999/xlink" id="Timeline-Roadmap-Horizontal--Streamline-Core" stroke-width="3.2" fill="none" overflow="hidden"><g id="timeline-roadmap-horizontal--timeline-roadmap-horizontal-label-tag-note-remark"><path d="M5.5 11.5C5.5 12.3284 6.17157 13 7 13 7.82843 13 8.5 12.3284 8.5 11.5 8.5 10.6716 7.82843 10 7 10 6.17157 10 5.5 10.6716 5.5 11.5" id="Ellipse 2874" stroke="#66737C" stroke-width="0.952381" transform="matrix(6.12323e-17 -1 1 6.12323e-17 -4.5 18.5)"/><path d="M5.5 11.5 1 11.5" id="Vector 5350" stroke="#66737C" stroke-width="0.952381" stroke-linecap="round" stroke-linejoin="round"/><path d="M13 11.5 8.5 11.5" id="Vector 5351" stroke="#66737C" stroke-width="0.952381" stroke-linecap="round" stroke-linejoin="round"/><path d="M4.79289 5.79289 6.64645 7.64645C6.84171 7.84171 7.15829 7.84171 7.35355 7.64645L9.20711 5.79289C9.39464 5.60536 9.5 5.351 9.5 5.08579L9.5 2C9.5 1.44772 9.05228 1 8.5 1L5.5 1C4.94771 1 4.5 1.44772 4.5 2L4.5 5.08579C4.5 5.351 4.60536 5.60536 4.79289 5.79289Z" id="Vector 5352" stroke="#66737C" stroke-width="0.952381" stroke-linecap="round" stroke-linejoin="round"/></g></svg>