<svg width="60" height="60" viewBox="-2.14 -2.14 60 60" xmlns="http://www.w3.org/2000/svg" xmlns:xlink="http://www.w3.org/1999/xlink" id="Tools-Kitchen-Serving-Dome--Streamline-Ultimate.svg" overflow="hidden"><path d="M3.4825 38.3075 6.74676 43.2039C7.60768 44.4959 9.05741 45.2722 10.61 45.2725L45.11 45.2725C46.6626 45.2722 48.1123 44.4959 48.9732 43.2039L52.2375 38.3075" stroke="#66737C" stroke-width="3.57143" stroke-linecap="round" stroke-linejoin="round" fill="none"/><path d="M1.16083 38.3075 54.5592 38.3075" stroke="#66737C" stroke-width="3.57143" stroke-linecap="round" stroke-linejoin="round" fill="none"/><path d="M24.3775 13.93C24.3775 15.8533 25.9367 17.4125 27.86 17.4125 29.7833 17.4125 31.3425 15.8533 31.3425 13.93 31.3425 12.0067 29.7833 10.4475 27.86 10.4475 25.9367 10.4475 24.3775 12.0067 24.3775 13.93Z" stroke="#66737C" stroke-width="3.57143" stroke-linecap="round" stroke-linejoin="round" fill="none"/><path d="M6.965 38.3075C6.965 26.7675 16.32 17.4125 27.86 17.4125 39.4 17.4125 48.755 26.7675 48.755 38.3075" stroke="#66737C" stroke-width="3.57143" stroke-linecap="round" stroke-linejoin="round" fill="none"/><path d="M20.6094 25.074C22.8307 23.8526 25.3251 23.2136 27.86 23.2167" stroke="#66737C" stroke-width="3.57143" stroke-linecap="round" stroke-linejoin="round" fill="none"/></svg>