<svg width="60" height="60" viewBox="-1.875 -1.875 60 60" xmlns="http://www.w3.org/2000/svg" xmlns:xlink="http://www.w3.org/1999/xlink" id="Tools-Wrench-1--Streamline-Ultimate" overflow="hidden"><path d="M49.5961 29.0273C54.3148 24.2911 55.5357 17.0947 52.643 11.0672L44.6273 19.0828C42.5679 21.1429 39.2284 21.1434 37.1684 19.084 35.1083 17.0246 35.1078 13.6851 37.1672 11.625L45.1828 3.60938C37.3573-0.164807 27.9538 3.11947 24.1796 10.945 22.0977 15.2618 22.0972 20.2922 24.1781 24.6094L3.60703 45.1852C1.54761 47.2446 1.54761 50.5836 3.60703 52.643 5.66645 54.7024 9.00543 54.7024 11.0648 52.643L31.6406 32.0719C37.6664 34.9629 44.8601 33.7432 49.5961 29.0273Z" stroke="#66737C" stroke-width="3.33333" stroke-linecap="round" stroke-linejoin="round" fill="none"/><path d="M37.1672 19.0828 48.2836 30.2016" stroke="#66737C" stroke-width="3.33333" stroke-linecap="round" stroke-linejoin="round" fill="none"/></svg>