<svg width="60" height="60" viewBox="-1.875 -1.875 60 60" xmlns="http://www.w3.org/2000/svg" xmlns:xlink="http://www.w3.org/1999/xlink" id="Tools-Wrench-Screwdriver--Streamline-Ultimate" fill="none" overflow="hidden"><path d="M10.7586 52.9458C9.76971 53.9346 8.42848 54.4903 7.02998 54.4903 5.63149 54.4903 4.29028 53.9346 3.30138 52.9458 2.31251 51.957 1.75695 50.6156 1.75695 49.2171 1.75695 47.8186 2.31251 46.4775 3.30138 45.4887L18.2158 30.5836 25.673 38.0407 10.7586 52.9458Z" stroke="#66737C" stroke-width="3.33333" stroke-linecap="round" stroke-linejoin="round"/><path d="M43.0683 13.054 21.941 34.181" stroke="#66737C" stroke-width="3.33333" stroke-linecap="round" stroke-linejoin="round"/><path d="M48.278 12.9413C47.6187 13.6004 46.7243 13.9706 45.792 13.9704 44.8594 13.9702 43.9652 13.5996 43.3062 12.9401 42.6471 12.2806 42.2768 11.3863 42.277 10.4539 42.2773 9.52151 42.6478 8.62739 43.3073 7.96823L49.5225 1.75781 54.4931 6.72616 48.278 12.9413Z" stroke="#66737C" stroke-width="3.33333" stroke-linecap="round" stroke-linejoin="round"/><g><path d="M23.9974 19.0346 18.6307 13.6561C19.2554 12.0655 19.4025 10.3272 19.0541 8.65427 18.7057 6.9813 17.8769 5.44629 16.6691 4.23734 15.2553 2.83345 13.4019 1.95808 11.4196 1.75785 12.261 3.10261 12.6218 4.69291 12.443 6.26913 12.2642 7.84538 11.5564 9.31444 10.4351 10.4366 9.31378 11.5587 7.84523 12.2676 6.26913 12.4475 4.69303 12.6275 3.10247 12.2678 1.7571 11.4274 1.89703 12.7663 2.34506 14.0547 3.06612 15.1916 3.78715 16.3284 4.76163 17.2829 5.91319 17.9803 7.06477 18.6776 8.36213 19.0989 9.70371 19.211 11.0453 19.3232 12.3946 19.1232 13.646 18.6268L17.3394 22.3202" stroke="#66737C" stroke-width="3.33333" stroke-linecap="round" stroke-linejoin="round"/><path d="M33.348 38.336 37.508 42.4936C36.7704 44.373 36.7024 46.4494 37.3158 48.3729 37.9289 50.2966 39.1859 51.9506 40.875 53.0566 42.5644 54.1624 44.5828 54.653 46.5914 54.4458 48.5998 54.2384 50.4755 53.3459 51.9033 51.918 53.3309 50.4905 54.2234 48.6145 54.4308 46.6062 54.6382 44.5978 54.1477 42.5794 53.0416 40.89 51.9356 39.2009 50.2816 37.9439 48.3581 37.3305 46.4344 36.7174 44.358 36.7854 42.4786 37.5227L36.5939 31.638" stroke="#66737C" stroke-width="3.33333" stroke-linecap="round" stroke-linejoin="round"/><path d="M45.683 46.5759C45.1976 46.5759 44.8043 46.1827 44.8043 45.6973 44.8043 45.2119 45.1976 44.8184 45.683 44.8184" stroke="#66737C" stroke-width="3.33333"/><path d="M45.683 46.5759C46.1684 46.5759 46.5619 46.1824 46.5619 45.6973 46.5619 45.2119 46.1684 44.8184 45.683 44.8184" stroke="#66737C" stroke-width="3.33333"/></g></svg>