<svg width="60" height="60" viewBox="-1.875 -1.875 60 60" xmlns="http://www.w3.org/2000/svg" xmlns:xlink="http://www.w3.org/1999/xlink" id="Trip-Destination--Streamline-Ultimate" fill="none" overflow="hidden"><path d="M54.4922 10.5469C54.4922 14.5312 48.5461 23.8547 46.4367 27.0375 46.3566 27.1584 46.2478 27.2576 46.1198 27.326 45.9921 27.3947 45.8494 27.4305 45.7043 27.4305 45.5592 27.4305 45.4165 27.3947 45.2887 27.326 45.1608 27.2576 45.052 27.1584 44.9719 27.0375 42.8602 23.857 36.9141 14.5312 36.9141 10.5469 36.9141 8.21587 37.8401 5.98034 39.4882 4.33207 41.1366 2.6838 43.372 1.75781 45.7031 1.75781 48.0342 1.75781 50.2697 2.6838 51.918 4.33207 53.5662 5.98034 54.4922 8.21587 54.4922 10.5469L54.4922 10.5469Z" stroke="#66737C" stroke-width="3.57143" stroke-linecap="round" stroke-linejoin="round"/><path d="M12.3047 19.3359C15.1019 19.3359 17.7845 20.4471 19.7625 22.425 21.7404 24.4029 22.8516 27.0855 22.8516 29.8828 22.8516 34.3852 16.5516 42.9516 13.6898 46.6125 13.5254 46.823 13.3153 46.9931 13.0752 47.1101 12.8352 47.2273 12.5717 47.288 12.3047 47.288 12.0377 47.288 11.7741 47.2273 11.5341 47.1101 11.2941 46.9931 11.0839 46.823 10.9195 46.6125 8.05781 42.9539 1.75781 34.3852 1.75781 29.8828 1.75781 27.0855 2.86901 24.4029 4.84692 22.425 6.82484 20.4471 9.50749 19.3359 12.3047 19.3359L12.3047 19.3359Z" stroke="#66737C" stroke-width="3.57143" stroke-linecap="round" stroke-linejoin="round"/><path d="M12.3047 54.4922 33.3984 54.4922C34.3308 54.4922 35.2252 54.1219 35.8845 53.4626 36.5438 52.8033 36.9141 51.9089 36.9141 50.9766L36.9141 40.4297C36.9141 39.4973 37.2844 38.603 37.9437 37.9437 38.603 37.2844 39.4973 36.9141 40.4297 36.9141L47.4609 36.9141" stroke="#66737C" stroke-width="3.57143" stroke-linecap="round" stroke-linejoin="round"/><path d="M12.3047 30.7617C11.8193 30.7617 11.4258 30.3682 11.4258 29.8828 11.4258 29.3974 11.8193 29.0039 12.3047 29.0039" stroke="#66737C" stroke-width="3.57143"/><path d="M12.3047 30.7617C12.7901 30.7617 13.1836 30.3682 13.1836 29.8828 13.1836 29.3974 12.7901 29.0039 12.3047 29.0039" stroke="#66737C" stroke-width="3.57143"/><g><path d="M45.7031 11.4258C45.2177 11.4258 44.8242 11.0323 44.8242 10.5469 44.8242 10.0615 45.2177 9.66797 45.7031 9.66797" stroke="#66737C" stroke-width="3.57143"/><path d="M45.7031 11.4258C46.1885 11.4258 46.582 11.0323 46.582 10.5469 46.582 10.0615 46.1885 9.66797 45.7031 9.66797" stroke="#66737C" stroke-width="3.57143"/></g></svg>