<svg width="60" height="60" viewBox="-1.875 -1.875 60 60" xmlns="http://www.w3.org/2000/svg" xmlns:xlink="http://www.w3.org/1999/xlink" id="Trip-Road--Streamline-Ultimate" fill="none" overflow="hidden"><path d="M43.9453 1.75781C46.7426 1.75781 49.4252 2.86901 51.4031 4.84692 53.381 6.82484 54.4922 9.50749 54.4922 12.3047 54.4922 16.807 48.1922 25.3758 45.3305 29.0344 45.1662 29.2448 44.9559 29.415 44.7159 29.532 44.4759 29.6491 44.2123 29.7098 43.9453 29.7098 43.6784 29.7098 43.4147 29.6491 43.1747 29.532 42.9347 29.415 42.7245 29.2448 42.5602 29.0344 39.6984 25.3734 33.3984 16.807 33.3984 12.3047 33.3984 9.50749 34.5096 6.82484 36.4875 4.84692 38.4654 2.86901 41.148 1.75781 43.9453 1.75781L43.9453 1.75781Z" stroke="#66737C" stroke-width="3.57143" stroke-linecap="round" stroke-linejoin="round"/><path d="M1.75781 54.4922 15.8203 19.3359" stroke="#66737C" stroke-width="3.57143" stroke-linecap="round" stroke-linejoin="round"/><path d="M50.9766 54.4922 43.9453 36.9141" stroke="#66737C" stroke-width="3.57143" stroke-linecap="round" stroke-linejoin="round"/><path d="M26.3672 54.4922 26.3672 50.9766" stroke="#66737C" stroke-width="3.57143" stroke-linecap="round" stroke-linejoin="round"/><path d="M26.3672 40.4297 26.3672 36.9141" stroke="#66737C" stroke-width="3.57143" stroke-linecap="round" stroke-linejoin="round"/><path d="M26.3672 26.3672 26.3672 22.8516" stroke="#66737C" stroke-width="3.57143" stroke-linecap="round" stroke-linejoin="round"/><path d="M43.9453 13.1836C43.4599 13.1836 43.0664 12.7901 43.0664 12.3047 43.0664 11.8193 43.4599 11.4258 43.9453 11.4258" stroke="#66737C" stroke-width="3.57143"/><path d="M43.9453 13.1836C44.4307 13.1836 44.8242 12.7901 44.8242 12.3047 44.8242 11.8193 44.4307 11.4258 43.9453 11.4258" stroke="#66737C" stroke-width="3.57143"/></svg>