<svg width="44.8" height="44.8" viewBox="-1.6 -1.6 44.8 44.8" xmlns="http://www.w3.org/2000/svg" xmlns:xlink="http://www.w3.org/1999/xlink" id="User-Multiple-Circle--Streamline-Core" fill="none" overflow="hidden"><g id="user-multiple-circle--close-geometric-human-multiple-person-user-circle"><path d="M8.91429 16.3429C8.91429 19.625 11.575 22.2857 14.8571 22.2857 18.1393 22.2857 20.8 19.625 20.8 16.3429 20.8 13.0607 18.1393 10.4 14.8571 10.4 11.575 10.4 8.91429 13.0607 8.91429 16.3429" id="Ellipse 1776" stroke="#66737C" stroke-width="2.67857" stroke-linecap="round" stroke-linejoin="round"/><path d="M26.7429 19.3143C26.7429 21.7759 28.7384 23.7714 31.2 23.7714 33.6616 23.7714 35.6571 21.7759 35.6571 19.3143 35.6571 16.8527 33.6616 14.8571 31.2 14.8571 28.7384 14.8571 26.7429 16.8527 26.7429 19.3143" id="Ellipse 1778" stroke="#66737C" stroke-width="2.67857" stroke-linecap="round" stroke-linejoin="round"/><path d="M31.2 28.2286C28.1855 28.2286 25.5204 29.725 23.9071 32.0154 24.7663 33.5284 25.2569 35.2783 25.2569 37.1429 25.2569 38.0135 25.1499 38.8595 24.9483 39.6677 30.2194 38.5139 34.6852 35.2076 37.3776 30.7163 35.7754 29.1757 33.5982 28.2286 31.2 28.2286Z" id="Ellipse 1779" stroke="#66737C" stroke-width="2.67857" stroke-linecap="round" stroke-linejoin="round"/><path d="M20.7998 40.1143C14.5731 40.1143 9.03454 37.1678 5.50252 32.5927 7.19029 29.1293 10.745 26.7429 14.857 26.7429 20.6007 26.7429 25.257 31.3991 25.257 37.1429 25.257 38.0135 25.1499 38.8595 24.9484 39.6677 23.612 39.9601 22.2239 40.1143 20.7998 40.1143Z" id="Vector" stroke="#66737C" stroke-width="2.67857" stroke-linecap="round" stroke-linejoin="round"/><path d="M20.8 40.1143C10.133 40.1143 1.48571 31.4671 1.48571 20.8 1.48571 10.133 10.133 1.48571 20.8 1.48571 31.4671 1.48571 40.1143 10.133 40.1143 20.8 40.1143 31.4671 31.4671 40.1143 20.8 40.1143Z" id="Vector_2" stroke="#66737C" stroke-width="2.67857" stroke-linecap="round" stroke-linejoin="round"/></g></svg>