<svg width="60" height="60" viewBox="-1.875 -1.875 60 60" xmlns="http://www.w3.org/2000/svg" xmlns:xlink="http://www.w3.org/1999/xlink" id="Valve-2--Streamline-Ultimate" overflow="hidden"><defs></defs><path d="M9.96094 51.8414 9.96094 41.5781" stroke="#66737C" stroke-width="3.33333" stroke-linecap="round" stroke-linejoin="round" fill="none"/><path d="M19.3359 41.5781 19.3359 51.8414" stroke="#66737C" stroke-width="3.33333" stroke-linecap="round" stroke-linejoin="round" fill="none"/><path d="M9.96094 17.5664 9.96094 4.40859" stroke="#66737C" stroke-width="3.33333" stroke-linecap="round" stroke-linejoin="round" fill="none"/><path d="M19.3359 4.40859 19.3359 17.5688" stroke="#66737C" stroke-width="3.33333" stroke-linecap="round" stroke-linejoin="round" fill="none"/><path d="M24.5625 21.4008C20.0469 15.8968 11.9245 15.0955 6.42046 19.6111 0.916471 24.1267 0.115199 32.2491 4.63077 37.7531 9.14635 43.2571 17.2688 44.0584 22.7728 39.5428 23.4266 39.0064 24.0261 38.407 24.5625 37.7531" stroke="#66737C" stroke-width="3.33333" stroke-linecap="round" stroke-linejoin="round" fill="none"/><path d="M31.0547 26.0602 19.3359 26.0602C17.3943 23.4713 13.7216 22.9467 11.1328 24.8883 8.54398 26.8299 8.01931 30.5026 9.96094 33.0914 11.9026 35.6802 15.5752 36.2049 18.1641 34.2633 18.6082 33.9302 19.0028 33.5356 19.3359 33.0914L31.0547 33.0914Z" stroke="#66737C" stroke-width="3.33333" stroke-linecap="round" stroke-linejoin="round" fill="none"/><path d="M54.4922 29.5758C54.4922 32.8118 51.8689 35.4352 48.6328 35.4352L33.3984 35.4352C32.104 35.4352 31.0547 34.3858 31.0547 33.0914L31.0547 26.0602C31.0547 24.7657 32.104 23.7164 33.3984 23.7164L48.6328 23.7164C51.8689 23.7164 54.4922 26.3397 54.4922 29.5758Z" stroke="#66737C" stroke-width="3.33333" stroke-linecap="round" stroke-linejoin="round" fill="none"/></svg>