<svg width="60" height="60" viewBox="-2.14 -2.14 60 60" xmlns="http://www.w3.org/2000/svg" xmlns:xlink="http://www.w3.org/1999/xlink" id="Vip-Crown-King-1--Streamline-Ultimate.svg" fill="none" overflow="hidden"><path d="M50.8909 44.1117 53.9555 25.5383C54.0027 25.2226 53.962 24.8999 53.8381 24.6057 53.7141 24.3113 53.5116 24.0569 53.2528 23.87 52.9939 23.6831 52.6888 23.571 52.3705 23.5456 52.0522 23.5206 51.733 23.5835 51.4481 23.7274L44.1117 29.3691C43.3857 29.93 42.4937 30.2334 41.5762 30.2316 40.6587 30.2297 39.7681 29.9226 39.0444 29.3586 38.3207 28.7945 37.8053 28.0058 37.5794 27.1166 37.3535 26.2272 37.4299 25.2881 37.7967 24.4471L41.5811 15.5784 27.86 1.74125 14.139 15.6713 17.9233 24.54C18.2531 25.3763 18.3013 26.2971 18.0605 27.163 17.8198 28.0292 17.3033 28.7931 16.5893 29.3391 15.8753 29.8852 15.0027 30.1835 14.1038 30.1889 13.205 30.1942 12.3289 29.9065 11.6083 29.3691L4.27187 23.7739C3.99067 23.6334 3.67666 23.5714 3.36317 23.5951 3.04967 23.6185 2.74839 23.7265 2.49129 23.9074 2.2342 24.0882 2.03088 24.3355 1.90292 24.6227 1.77495 24.9099 1.72711 25.2263 1.76447 25.5383L4.82907 44.1117" stroke="#66737C" stroke-width="3.57143" stroke-linecap="round" stroke-linejoin="round"/><path d="M53.9787 48.755C53.9787 47.3697 53.4283 46.041 52.4488 45.0612 51.469 44.0817 50.1403 43.5312 48.755 43.5312L6.965 43.5312C5.57957 43.5312 4.2509 44.0817 3.27125 45.0612 2.29161 46.041 1.74125 47.3697 1.74125 48.755L1.74125 48.755C1.74125 50.1403 2.29161 51.469 3.27125 52.4488 4.2509 53.4283 5.57957 53.9787 6.965 53.9787L48.755 53.9787C50.1403 53.9787 51.469 53.4283 52.4488 52.4488 53.4283 51.469 53.9787 50.1403 53.9787 48.755L53.9787 48.755Z" stroke="#66737C" stroke-width="3.57143" stroke-linecap="round" stroke-linejoin="round"/><path d="M28.0142 19.1424C27.5333 19.1424 27.1435 18.7526 27.1435 18.2718 27.1435 17.791 27.5333 17.4012 28.0142 17.4012" stroke="#66737C" stroke-width="3.57143"/><path d="M28.0142 19.1424C28.4952 19.1424 28.8848 18.7526 28.8848 18.2718 28.8848 17.791 28.4952 17.4012 28.0142 17.4012" stroke="#66737C" stroke-width="3.57143"/></svg>