<svg width="60" height="60" viewBox="-1.875 -1.875 60 60" xmlns="http://www.w3.org/2000/svg" xmlns:xlink="http://www.w3.org/1999/xlink" id="Virus-Lab-Research-Magnifier-2--Streamline-Ultimate" fill="none" overflow="hidden"><path d="M24.8836 32.4305C29.0517 32.4305 32.4305 29.0515 32.4305 24.8836 32.4305 20.7155 29.0517 17.3366 24.8836 17.3366 20.7156 17.3366 17.3367 20.7155 17.3367 24.8836 17.3367 29.0515 20.7156 32.4305 24.8836 32.4305Z" stroke="#66737C" stroke-width="3.57143" stroke-linecap="round" stroke-linejoin="round"/><path d="M23.625 11.6767 26.1422 11.6767" stroke="#66737C" stroke-width="3.57143" stroke-linecap="round" stroke-linejoin="round"/><path d="M24.8836 11.6767 24.8836 17.3369" stroke="#66737C" stroke-width="3.57143" stroke-linecap="round" stroke-linejoin="round"/><path d="M33.3328 14.6556 35.1117 16.4345" stroke="#66737C" stroke-width="3.57143" stroke-linecap="round" stroke-linejoin="round"/><path d="M34.2211 15.5462 30.2203 19.547" stroke="#66737C" stroke-width="3.57143" stroke-linecap="round" stroke-linejoin="round"/><path d="M38.0906 23.625 38.0906 26.1422" stroke="#66737C" stroke-width="3.57143" stroke-linecap="round" stroke-linejoin="round"/><path d="M38.0906 24.8834 32.4305 24.8834" stroke="#66737C" stroke-width="3.57143" stroke-linecap="round" stroke-linejoin="round"/><path d="M35.1117 33.3328 33.3328 35.1117" stroke="#66737C" stroke-width="3.57143" stroke-linecap="round" stroke-linejoin="round"/><path d="M34.2211 34.2211 30.2203 30.2203" stroke="#66737C" stroke-width="3.57143" stroke-linecap="round" stroke-linejoin="round"/><path d="M26.1422 38.0906 23.625 38.0906" stroke="#66737C" stroke-width="3.57143" stroke-linecap="round" stroke-linejoin="round"/><path d="M24.8836 38.0906 24.8836 32.4305" stroke="#66737C" stroke-width="3.57143" stroke-linecap="round" stroke-linejoin="round"/><path d="M16.4344 35.1117 14.6555 33.3328" stroke="#66737C" stroke-width="3.57143" stroke-linecap="round" stroke-linejoin="round"/><path d="M15.5461 34.2211 19.5469 30.2203" stroke="#66737C" stroke-width="3.57143" stroke-linecap="round" stroke-linejoin="round"/><path d="M11.6765 26.1422 11.6765 23.625" stroke="#66737C" stroke-width="3.57143" stroke-linecap="round" stroke-linejoin="round"/><path d="M11.6765 24.8834 17.3367 24.8834" stroke="#66737C" stroke-width="3.57143" stroke-linecap="round" stroke-linejoin="round"/><path d="M14.6555 16.4345 16.4344 14.6556" stroke="#66737C" stroke-width="3.57143" stroke-linecap="round" stroke-linejoin="round"/><path d="M15.5461 15.5462 19.5469 19.547" stroke="#66737C" stroke-width="3.57143" stroke-linecap="round" stroke-linejoin="round"/><path d="M24.8836 48.0094C37.6556 48.0094 48.0094 37.6556 48.0094 24.8836 48.0094 12.1116 37.6556 1.75781 24.8836 1.75781 12.1116 1.75781 1.75781 12.1116 1.75781 24.8836 1.75781 37.6556 12.1116 48.0094 24.8836 48.0094Z" stroke="#66737C" stroke-width="3.57143" stroke-linecap="round" stroke-linejoin="round"/><path d="M54.4922 54.4922 41.2359 41.2359" stroke="#66737C" stroke-width="3.57143" stroke-linecap="round" stroke-linejoin="round"/></svg>