<svg width="60" height="60" viewBox="-1.875 -1.875 60 60" xmlns="http://www.w3.org/2000/svg" xmlns:xlink="http://www.w3.org/1999/xlink" id="Virus-Lab-Research-Medicine-Pill--Streamline-Ultimate" fill="none" overflow="hidden"><path d="M40.4297 48.4664C44.8683 48.4664 48.4664 44.8683 48.4664 40.4297 48.4664 35.9913 44.8683 32.393 40.4297 32.393 35.9911 32.393 32.393 35.9913 32.393 40.4297 32.393 44.8683 35.9911 48.4664 40.4297 48.4664Z" stroke="#66737C" stroke-width="3.57143" stroke-linecap="round" stroke-linejoin="round"/><path d="M39.0914 26.3672 41.768 26.3672" stroke="#66737C" stroke-width="3.57143" stroke-linecap="round" stroke-linejoin="round"/><path d="M40.4297 26.3672 40.4297 32.393" stroke="#66737C" stroke-width="3.57143" stroke-linecap="round" stroke-linejoin="round"/><path d="M49.4273 29.5383 51.3211 31.432" stroke="#66737C" stroke-width="3.57143" stroke-linecap="round" stroke-linejoin="round"/><path d="M50.3742 30.4852 46.1109 34.7484" stroke="#66737C" stroke-width="3.57143" stroke-linecap="round" stroke-linejoin="round"/><path d="M54.4922 39.0914 54.4922 41.768" stroke="#66737C" stroke-width="3.57143" stroke-linecap="round" stroke-linejoin="round"/><path d="M54.4922 40.4297 48.4664 40.4297" stroke="#66737C" stroke-width="3.57143" stroke-linecap="round" stroke-linejoin="round"/><path d="M51.3211 49.4273 49.4273 51.3211" stroke="#66737C" stroke-width="3.57143" stroke-linecap="round" stroke-linejoin="round"/><path d="M50.3742 50.3742 46.1109 46.1109" stroke="#66737C" stroke-width="3.57143" stroke-linecap="round" stroke-linejoin="round"/><path d="M41.768 54.4922 39.0914 54.4922" stroke="#66737C" stroke-width="3.57143" stroke-linecap="round" stroke-linejoin="round"/><path d="M40.4297 54.4922 40.4297 48.4664" stroke="#66737C" stroke-width="3.57143" stroke-linecap="round" stroke-linejoin="round"/><path d="M31.432 51.3211 29.5383 49.4273" stroke="#66737C" stroke-width="3.57143" stroke-linecap="round" stroke-linejoin="round"/><path d="M30.4852 50.3742 34.7484 46.1109" stroke="#66737C" stroke-width="3.57143" stroke-linecap="round" stroke-linejoin="round"/><path d="M26.3672 41.768 26.3672 39.0914" stroke="#66737C" stroke-width="3.57143" stroke-linecap="round" stroke-linejoin="round"/><path d="M26.3672 40.4297 32.393 40.4297" stroke="#66737C" stroke-width="3.57143" stroke-linecap="round" stroke-linejoin="round"/><path d="M29.5383 31.432 31.432 29.5383" stroke="#66737C" stroke-width="3.57143" stroke-linecap="round" stroke-linejoin="round"/><path d="M30.4852 30.4852 34.7484 34.7484" stroke="#66737C" stroke-width="3.57143" stroke-linecap="round" stroke-linejoin="round"/><path d="M20.1563 38.4375C18.1097 40.3242 15.4127 41.3461 12.6298 41.2894 9.84696 41.2327 7.19384 40.102 5.22563 38.1338 3.25744 36.1657 2.12672 33.5126 2.07011 30.7296 2.01349 27.9469 3.03537 25.2499 4.9219 23.2032L23.2031 4.92197C25.2497 3.03544 27.9466 2.01357 30.7296 2.07018 33.5123 2.12679 36.1655 3.25751 38.1338 5.2257 40.102 7.19391 41.2327 9.84703 41.2894 12.6299 41.3459 15.4128 40.324 18.1097 38.4375 20.1563" stroke="#66737C" stroke-width="3.57143" stroke-linecap="round" stroke-linejoin="round"/><path d="M14.0601 14.0602 26.1023 26.1023" stroke="#66737C" stroke-width="3.57143" stroke-linecap="round" stroke-linejoin="round"/></svg>