<svg width="60" height="60" viewBox="-1.875 -1.875 60 60" xmlns="http://www.w3.org/2000/svg" xmlns:xlink="http://www.w3.org/1999/xlink" id="Virus-Lab-Research-Microscope--Streamline-Ultimate" fill="none" overflow="hidden"><path d="M14.1727 21.9727C18.0559 21.9727 21.2039 18.8246 21.2039 14.9414 21.2039 11.0582 18.0559 7.91016 14.1727 7.91016 10.2894 7.91016 7.14141 11.0582 7.14141 14.9414 7.14141 18.8246 10.2894 21.9727 14.1727 21.9727Z" stroke="#66737C" stroke-width="3.57143" stroke-linecap="round" stroke-linejoin="round"/><path d="M13.0008 2.63672 15.3445 2.63672" stroke="#66737C" stroke-width="3.57143" stroke-linecap="round" stroke-linejoin="round"/><path d="M14.1727 2.63672 14.1727 7.91016" stroke="#66737C" stroke-width="3.57143" stroke-linecap="round" stroke-linejoin="round"/><path d="M22.0453 5.41162 23.7023 7.06866" stroke="#66737C" stroke-width="3.57143" stroke-linecap="round" stroke-linejoin="round"/><path d="M22.8727 6.24131 19.1437 9.97022" stroke="#66737C" stroke-width="3.57143" stroke-linecap="round" stroke-linejoin="round"/><path d="M26.4773 13.7695 26.4773 16.1133" stroke="#66737C" stroke-width="3.57143" stroke-linecap="round" stroke-linejoin="round"/><path d="M26.4773 14.9414 21.2039 14.9414" stroke="#66737C" stroke-width="3.57143" stroke-linecap="round" stroke-linejoin="round"/><path d="M23.7023 22.8141 22.0453 24.4711" stroke="#66737C" stroke-width="3.57143" stroke-linecap="round" stroke-linejoin="round"/><path d="M22.8727 23.6414 19.1437 19.9124" stroke="#66737C" stroke-width="3.57143" stroke-linecap="round" stroke-linejoin="round"/><path d="M15.3445 27.2461 13.0008 27.2461" stroke="#66737C" stroke-width="3.57143" stroke-linecap="round" stroke-linejoin="round"/><path d="M14.1727 27.2461 14.1727 21.9727" stroke="#66737C" stroke-width="3.57143" stroke-linecap="round" stroke-linejoin="round"/><path d="M6.3 24.4711 4.64297 22.8141" stroke="#66737C" stroke-width="3.57143" stroke-linecap="round" stroke-linejoin="round"/><path d="M5.47266 23.6414 9.20156 19.9124" stroke="#66737C" stroke-width="3.57143" stroke-linecap="round" stroke-linejoin="round"/><path d="M1.86796 16.1133 1.86796 13.7695" stroke="#66737C" stroke-width="3.57143" stroke-linecap="round" stroke-linejoin="round"/><path d="M1.86796 14.9414 7.14141 14.9414" stroke="#66737C" stroke-width="3.57143" stroke-linecap="round" stroke-linejoin="round"/><path d="M4.64297 7.06866 6.3 5.41162" stroke="#66737C" stroke-width="3.57143" stroke-linecap="round" stroke-linejoin="round"/><path d="M5.47266 6.24131 9.20156 9.97022" stroke="#66737C" stroke-width="3.57143" stroke-linecap="round" stroke-linejoin="round"/><path d="M42.5297 21.3281C44.0569 22.6233 45.2967 24.2231 46.1698 26.0255 47.0428 27.8276 47.5296 29.7923 47.5992 31.7937 47.6686 33.795 47.3191 35.7888 46.5734 37.6472 45.8276 39.5058 44.7016 41.1879 43.268 42.5859 40.466 45.3209 36.7057 46.852 32.7902 46.852 28.8748 46.852 25.1145 45.3209 22.3125 42.5859 20.6336 40.943 19.3803 38.9159 18.6609 36.6797" stroke="#66737C" stroke-width="3.57143" stroke-linecap="round" stroke-linejoin="round"/><path d="M37.8539 25.9076C37.4541 26.299 36.9169 26.5179 36.3574 26.5179 35.798 26.5179 35.2608 26.299 34.8609 25.9076L31.875 22.9686C31.6786 22.7775 31.5227 22.549 31.4161 22.2966 31.3095 22.0442 31.2546 21.7731 31.2546 21.4991 31.2546 21.2251 31.3095 20.9539 31.4161 20.7015 31.5227 20.4491 31.6786 20.2207 31.875 20.0295L40.8563 11.2077C41.2568 10.8176 41.7938 10.5992 42.3527 10.5992 42.9117 10.5992 43.4487 10.8176 43.8492 11.2077L46.8422 14.1491C47.0386 14.3402 47.1945 14.5687 47.3011 14.8211 47.4077 15.0735 47.4626 15.3446 47.4626 15.6186 47.4626 15.8926 47.4077 16.1638 47.3011 16.4162 47.1945 16.6686 47.0386 16.8971 46.8422 17.0881L37.8539 25.9076Z" stroke="#66737C" stroke-width="3.57143" stroke-linecap="round" stroke-linejoin="round"/><path d="M44.925 12.2718 50.9953 6.1968 47.6086 2.81009" stroke="#66737C" stroke-width="3.57143" stroke-linecap="round" stroke-linejoin="round"/><path d="M54.382 9.58369 50.9953 6.19697" stroke="#66737C" stroke-width="3.57143" stroke-linecap="round" stroke-linejoin="round"/><path d="M13.5867 36.6797 25.4414 36.6797" stroke="#66737C" stroke-width="3.57143" stroke-linecap="round" stroke-linejoin="round"/><path d="M15.4336 53.6133 47.6086 53.6133" stroke="#66737C" stroke-width="3.57143" stroke-linecap="round" stroke-linejoin="round"/><path d="M32.3672 46.8398 32.3672 53.6133" stroke="#66737C" stroke-width="3.57143" stroke-linecap="round" stroke-linejoin="round"/></svg>