<svg width="60" height="60" viewBox="-1.875 -1.875 60 60" xmlns="http://www.w3.org/2000/svg" xmlns:xlink="http://www.w3.org/1999/xlink" id="Virus-Lab-Research-Magnifier-1--Streamline-Ultimate" fill="none" overflow="hidden"><path d="M28.1648 1.75781 21.0539 1.75781" stroke="#66737C" stroke-width="3.57143" stroke-linecap="round" stroke-linejoin="round"/><path d="M24.6094 1.75781 24.6094 7.85156" stroke="#66737C" stroke-width="3.57143" stroke-linecap="round" stroke-linejoin="round"/><path d="M10.9641 5.93663 8.45156 8.45147 5.93672 10.964" stroke="#66737C" stroke-width="3.57143" stroke-linecap="round" stroke-linejoin="round"/><path d="M8.45156 8.45147 12.7594 12.7593" stroke="#66737C" stroke-width="3.57143" stroke-linecap="round" stroke-linejoin="round"/><path d="M1.75781 21.054 1.75781 28.1648" stroke="#66737C" stroke-width="3.57143" stroke-linecap="round" stroke-linejoin="round"/><path d="M1.75781 24.6094 7.85156 24.6094" stroke="#66737C" stroke-width="3.57143" stroke-linecap="round" stroke-linejoin="round"/><path d="M5.93672 38.2547 8.45156 40.7672 10.9641 43.282" stroke="#66737C" stroke-width="3.57143" stroke-linecap="round" stroke-linejoin="round"/><path d="M8.45156 40.7672 12.7594 36.4594" stroke="#66737C" stroke-width="3.57143" stroke-linecap="round" stroke-linejoin="round"/><path d="M43.282 10.964 40.7672 8.45147 38.2547 5.93663" stroke="#66737C" stroke-width="3.57143" stroke-linecap="round" stroke-linejoin="round"/><path d="M40.7672 8.45147 36.4594 12.7593" stroke="#66737C" stroke-width="3.57143" stroke-linecap="round" stroke-linejoin="round"/><path d="M21.0539 23.086C23.0175 23.086 24.6094 21.4942 24.6094 19.5306 24.6094 17.5669 23.0175 15.9751 21.0539 15.9751 19.0903 15.9751 17.4984 17.5669 17.4984 19.5306 17.4984 21.4942 19.0903 23.086 21.0539 23.086Z" stroke="#66737C" stroke-width="3.57143" stroke-linecap="round" stroke-linejoin="round"/><path d="M40.8633 20.5196C40.1477 17.6707 38.696 15.06 36.6537 12.9489 34.6111 10.8379 32.0498 9.30082 29.2261 8.49176 26.4023 7.68267 23.4155 7.63001 20.565 8.33904 17.7145 9.04807 15.1005 10.4939 12.9849 12.5316 10.8693 14.5693 9.32644 17.1273 8.511 19.9492 7.69556 22.7711 7.6362 25.7578 8.33883 28.6099 9.04146 31.462 10.4814 34.0793 12.5143 36.1995 14.5473 38.3196 17.1018 39.8681 19.9219 40.6898" stroke="#66737C" stroke-width="3.57143" stroke-linecap="round" stroke-linejoin="round"/><path d="M38.1188 49.5797C44.4485 49.5797 49.5797 44.4485 49.5797 38.1188 49.5797 31.7892 44.4485 26.6578 38.1188 26.6578 31.789 26.6578 26.6578 31.7892 26.6578 38.1188 26.6578 44.4485 31.789 49.5797 38.1188 49.5797Z" stroke="#66737C" stroke-width="3.57143" stroke-linecap="round" stroke-linejoin="round"/><path d="M54.4922 54.4922 46.2234 46.2234" stroke="#66737C" stroke-width="3.57143" stroke-linecap="round" stroke-linejoin="round"/></svg>