<svg width="44.8" height="44.8" viewBox="-1.6 -1.6 44.8 44.8" xmlns="http://www.w3.org/2000/svg" xmlns:xlink="http://www.w3.org/1999/xlink" id="Vr-Headset-1--Streamline-Core" fill="none" overflow="hidden"><g id="vr-headset-1--entertainment-gaming-vr-headset"><path d="M10.8777 38.6286 10.8777 32.6786C6.1513 29.9261 2.97143 24.7818 2.97143 18.8898 2.97143 10.0983 10.0509 2.97143 18.7839 2.97143 24.0683 2.97143 28.793 5.74116 31.6641 9.75" id="Ellipse 8" stroke="#66737C" stroke-width="2.67857" stroke-linecap="round" stroke-linejoin="round"/><path d="M26.6892 38.6289 26.6892 33.5159 31.9601 33.5159C33.4155 33.5159 34.5955 32.3363 34.5955 30.8806L34.5955 24.2921" id="Ellipse 10" stroke="#66737C" stroke-width="2.67857" stroke-linecap="round" stroke-linejoin="round"/><path d="M16.6582 16.6612 3.15714 16.6612" id="Ellipse 9" stroke="#66737C" stroke-width="2.67857" stroke-linecap="round" stroke-linejoin="round"/><path d="M16.6606 16.6612C16.6606 12.8515 19.749 9.76325 23.5588 9.76325L35.6571 9.76325C37.2983 9.76325 38.6286 11.0936 38.6286 12.7347L38.6286 20.5877C38.6286 22.2288 37.2983 23.5591 35.6571 23.5591L23.5588 23.5591C19.749 23.5591 16.6606 20.4708 16.6606 16.6612Z" id="Rectangle 337" stroke="#66737C" stroke-width="2.67857" stroke-linecap="round" stroke-linejoin="round"/><path d="M27.6975 9.76325 27.6975 23.5591" id="Vector 775" stroke="#66737C" stroke-width="2.67857" stroke-linecap="round" stroke-linejoin="round"/></g></svg>