<svg width="60" height="60" viewBox="-1.875 -1.875 60 60" xmlns="http://www.w3.org/2000/svg" xmlns:xlink="http://www.w3.org/1999/xlink" id="Vr-Os-Payment-Subscription--Streamline-Ultimate" fill="none" overflow="hidden"><path d="M53.9318 2.54147C52.8609 2.73698 51.7898 2.9194 50.7183 3.08873M2.31829 2.52061C3.38902 2.7161 4.46018 2.89852 5.5317 3.06783M44.3393 3.99206C33.5681 5.31223 22.7681 5.31223 11.9969 3.99204" stroke="#66737C" stroke-width="3.33333" stroke-linecap="round"/><path d="M53.9318 53.7084C52.8609 53.513 51.7898 53.3306 50.7183 53.1612M2.31829 53.7293C3.38902 53.5338 4.46018 53.3515 5.5317 53.1823M44.3393 52.2579C33.5681 50.9377 22.7681 50.9379 11.9969 52.2579" stroke="#66737C" stroke-width="3.33333" stroke-linecap="round"/><path d="M24.2215 32.7945C24.6795 33.3879 25.2727 33.8634 25.9516 34.181 26.6309 34.4986 27.3759 34.6493 28.125 34.6202 30.5173 34.6202 32.448 33.1723 32.448 31.3673 32.448 29.5627 30.5173 28.1355 28.125 28.1355 25.7325 28.1355 23.802 26.6876 23.802 24.8827 23.802 23.0779 25.7325 21.6299 28.125 21.6299 28.8764 21.5999 29.6238 21.7522 30.3035 22.0737 30.9832 22.3953 31.575 22.8767 32.0283 23.4766" stroke="#66737C" stroke-width="3.33333" stroke-linecap="round" stroke-linejoin="round"/><path d="M28.1252 34.62 28.1252 36.7816" stroke="#66737C" stroke-width="3.33333" stroke-linecap="round" stroke-linejoin="round"/><path d="M28.1252 19.4681 28.1252 21.6297" stroke="#66737C" stroke-width="3.33333" stroke-linecap="round" stroke-linejoin="round"/><path d="M40.1391 17.3774C37.9624 14.9446 35.0981 13.23 31.9256 12.4604 28.7531 11.6908 25.4217 11.9025 22.3722 13.0674 19.3226 14.2323 16.6985 16.2956 14.847 18.9844 12.9956 21.6731 12.0041 24.8606 12.0036 28.125L12.0036 29.4684" stroke="#66737C" stroke-width="3.33333" stroke-linecap="round" stroke-linejoin="round"/><path d="M16.1108 38.8725C18.2877 41.3053 21.1518 43.02 24.3244 43.7897 27.4969 44.5591 30.8283 44.3475 33.8777 43.1827 36.9274 42.0176 39.5515 39.9544 41.403 37.2656 43.2544 34.5769 44.246 31.3894 44.2465 28.125L44.2465 26.7816" stroke="#66737C" stroke-width="3.33333" stroke-linecap="round" stroke-linejoin="round"/><path d="M40.2159 30.8119 44.2465 26.7816 48.2768 30.8119" stroke="#66737C" stroke-width="3.33333" stroke-linecap="round" stroke-linejoin="round"/><path d="M16.034 25.4379 12.0036 29.4682 7.97325 25.4379" stroke="#66737C" stroke-width="3.33333" stroke-linecap="round" stroke-linejoin="round"/></svg>