<svg width="60" height="60" viewBox="-2.14 -2.14 60 60" xmlns="http://www.w3.org/2000/svg" xmlns:xlink="http://www.w3.org/1999/xlink" id="Warehouse-Truck-Delivery-1--Streamline-Ultimate.svg" overflow="hidden"><path d="M34.031 47.0137 31.3564 47.0137C29.4331 47.0137 27.8739 45.4546 27.8739 43.5312L27.8739 31.7209C27.8722 28.0572 28.9003 24.4668 30.841 21.3593L30.841 21.3593C34.4128 15.6526 40.6715 12.1873 47.4038 12.1887L47.4038 12.1888C49.1185 12.1887 50.5089 13.5781 50.5102 15.2928L50.5102 29.6012" stroke="#66737C" stroke-width="3.57143" stroke-linecap="round" stroke-linejoin="round" fill="none"/><path d="M33.0977 43.5312C33.0977 47.3779 36.216 50.4963 40.0627 50.4963 43.9093 50.4963 47.0277 47.3779 47.0277 43.5312 47.0277 39.6846 43.9093 36.5662 40.0627 36.5662 36.216 36.5662 33.0977 39.6846 33.0977 43.5312Z" stroke="#66737C" stroke-width="3.57143" stroke-linecap="round" stroke-linejoin="round" fill="none"/><path d="M20.9089 5.22375 20.9089 47.0137C20.9089 48.9371 19.3498 50.4962 17.4264 50.4962L6.97893 50.4963" stroke="#66737C" stroke-width="3.57143" stroke-linecap="round" stroke-linejoin="round" fill="none"/><path d="M46.0944 47.0137 53.9927 47.0137" stroke="#66737C" stroke-width="3.57143" stroke-linecap="round" stroke-linejoin="round" fill="none"/><path d="M20.9089 43.5312 27.8739 43.5312" stroke="#66737C" stroke-width="3.57143" stroke-linecap="round" stroke-linejoin="round" fill="none"/><path d="M53.9927 29.6012 50.5102 29.6012C46.6635 29.6012 43.5452 32.7196 43.5452 36.5662L43.5452 36.5662 43.5452 37.4949" stroke="#66737C" stroke-width="3.57143" stroke-linecap="round" stroke-linejoin="round" fill="none"/><path d="M1.75518 31.3425 13.9439 31.3425 13.9439 43.5312 1.75518 43.5312Z" stroke="#66737C" stroke-width="3.57143" stroke-linecap="round" stroke-linejoin="round" fill="none"/></svg>