<svg width="60" height="60" viewBox="-2.14 -2.14 60 60" xmlns="http://www.w3.org/2000/svg" xmlns:xlink="http://www.w3.org/1999/xlink" id="Warehouse-Cart-Packages-3--Streamline-Ultimate.svg" overflow="hidden"><path d="M5.23768 47.0137C5.23768 50.8604 8.35602 53.9787 12.2027 53.9787 16.0493 53.9787 19.1677 50.8604 19.1677 47.0137 19.1677 43.1671 16.0493 40.0487 12.2027 40.0487 8.35602 40.0487 5.23768 43.1671 5.23768 47.0137Z" stroke="#66737C" stroke-width="3.57143" stroke-linecap="round" stroke-linejoin="round" fill="none"/><path d="M18.2344 50.4963 42.1011 50.4963C43.0249 50.4958 43.911 50.8625 44.5644 51.5155L47.0277 53.9787" stroke="#66737C" stroke-width="3.57143" stroke-linecap="round" stroke-linejoin="round" fill="none"/><path d="M8.72018 1.74125 12.2027 1.74125C14.126 1.74125 15.6852 3.30042 15.6852 5.22375L15.6852 40.9774" stroke="#66737C" stroke-width="3.57143" stroke-linecap="round" stroke-linejoin="round" fill="none"/><path d="M29.6152 43.5312 47.0277 43.5312C48.951 43.5312 50.5102 41.9721 50.5102 40.0488L50.5102 26.1187C50.5102 24.1954 48.951 22.6362 47.0277 22.6362L26.1327 22.6362 26.1327 40.0488C26.1327 41.9721 27.6918 43.5312 29.6152 43.5312Z" stroke="#66737C" stroke-width="3.57143" stroke-linecap="round" stroke-linejoin="round" fill="none"/><path d="M26.1327 22.6362 43.5452 22.6362 43.5452 7.71026C43.5439 6.33662 42.43 5.22375 41.0564 5.22375L28.6192 5.22375C27.2459 5.22375 26.1327 6.337 26.1327 7.71026Z" stroke="#66737C" stroke-width="3.57143" stroke-linecap="round" stroke-linejoin="round" fill="none"/><path d="M40.0627 36.5662 43.5452 36.5662" stroke="#66737C" stroke-width="3.57143" stroke-linecap="round" stroke-linejoin="round" fill="none"/><path d="M33.0977 15.6713 36.5802 15.6713" stroke="#66737C" stroke-width="3.57143" stroke-linecap="round" stroke-linejoin="round" fill="none"/></svg>