<svg width="60" height="60" viewBox="-2.14 -2.14 60 60" xmlns="http://www.w3.org/2000/svg" xmlns:xlink="http://www.w3.org/1999/xlink" id="Wifi-Signal-4--Streamline-Ultimate.svg" overflow="hidden"><path d="M39.4683 54.5592 29.253 21.7563C28.3657 22.1483 27.3543 22.1483 26.467 21.7563L16.2517 54.5592" stroke="#66737C" stroke-width="3.57143" stroke-linecap="round" stroke-linejoin="round" fill="none"/><path d="M24.3682 18.5687C24.3682 20.492 25.9274 22.0512 27.8507 22.0512 29.774 22.0512 31.3332 20.492 31.3332 18.5687 31.3332 16.6454 29.774 15.0862 27.8507 15.0862 25.9274 15.0862 24.3682 16.6454 24.3682 18.5687Z" stroke="#66737C" stroke-width="3.57143" stroke-linecap="round" stroke-linejoin="round" fill="none"/><path d="M40.8428 7.89367C46.7355 13.7869 46.7355 23.3412 40.8428 29.2344" stroke="#66737C" stroke-width="3.57143" stroke-linecap="round" stroke-linejoin="round" fill="none"/><path d="M45.7693 2.97173C54.3826 11.5851 54.3826 25.55 45.7693 34.1633" stroke="#66737C" stroke-width="3.57143" stroke-linecap="round" stroke-linejoin="round" fill="none"/><path d="M14.8587 7.89367C8.96593 13.7869 8.96593 23.3412 14.8587 29.2344" stroke="#66737C" stroke-width="3.57143" stroke-linecap="round" stroke-linejoin="round" fill="none"/><path d="M9.93209 2.97173C1.3188 11.5851 1.3188 25.55 9.93209 34.1633" stroke="#66737C" stroke-width="3.57143" stroke-linecap="round" stroke-linejoin="round" fill="none"/><path d="M21.3175 38.3029 34.4025 38.3029" stroke="#66737C" stroke-width="3.57143" stroke-linecap="round" stroke-linejoin="round" fill="none"/><path d="M18.4224 47.5895 37.2976 47.5895" stroke="#66737C" stroke-width="3.57143" stroke-linecap="round" stroke-linejoin="round" fill="none"/></svg>