<svg width="60" height="60" viewBox="-1.875 -1.875 60 60" xmlns="http://www.w3.org/2000/svg" xmlns:xlink="http://www.w3.org/1999/xlink" id="Wood-Material-3--Streamline-Ultimate" fill="none" overflow="hidden"><path d="M25.2356 43.0282C29.3468 43.0282 32.6796 39.6921 32.6796 35.5765 32.6796 31.4611 29.3468 28.125 25.2356 28.125 21.1243 28.125 17.7914 31.4611 17.7914 35.5765 17.7914 39.6921 21.1243 43.0282 25.2356 43.0282Z" stroke="#66737C" stroke-width="3.33333" stroke-linecap="round" stroke-linejoin="round"/><path d="M25.8082 43.0282 47.048 43.0282C49.0223 43.0282 50.9159 42.243 52.3118 40.8457 53.708 39.4481 54.4922 37.553 54.4922 35.5765 54.4922 33.6002 53.708 31.7051 52.3118 30.3075 50.9159 28.9102 49.0223 28.125 47.048 28.125L25.8082 28.125" stroke="#66737C" stroke-width="3.33333" stroke-linecap="round" stroke-linejoin="round"/><path d="M32.6796 34.4302 39.5513 34.4302" stroke="#66737C" stroke-width="3.33333" stroke-linecap="round" stroke-linejoin="round"/><path d="M47.568 37.8694 53.2943 37.8694" stroke="#66737C" stroke-width="3.33333" stroke-linecap="round" stroke-linejoin="round"/><path d="M18.364 28.125C22.4753 28.125 25.8082 24.7889 25.8082 20.6734 25.8082 16.558 22.4753 13.2218 18.364 13.2218 14.2527 13.2218 10.9198 16.558 10.9198 20.6734 10.9198 24.7889 14.2527 28.125 18.364 28.125Z" stroke="#66737C" stroke-width="3.33333" stroke-linecap="round" stroke-linejoin="round"/><path d="M18.3773 21.2466C18.0537 21.2466 17.7914 20.9843 17.7914 20.6607 17.7914 20.3371 18.0537 20.0747 18.3773 20.0747" stroke="#66737C" stroke-width="3.33333"/><path d="M18.3773 21.2466C18.7009 21.2466 18.9633 20.9843 18.9633 20.6607 18.9633 20.3371 18.7009 20.0747 18.3773 20.0747" stroke="#66737C" stroke-width="3.33333"/><path d="M9.18982 36.1498C8.86622 36.1498 8.60388 35.8875 8.60388 35.5638 8.60388 35.2402 8.86622 34.9779 9.18982 34.9779" stroke="#66737C" stroke-width="3.33333"/><path d="M9.18982 36.1498C9.51342 36.1498 9.77576 35.8875 9.77576 35.5638 9.77576 35.2402 9.51342 34.9779 9.18982 34.9779" stroke="#66737C" stroke-width="3.33333"/><path d="M25.2223 36.1753C24.8986 36.1753 24.6363 35.913 24.6363 35.5894 24.6363 35.2657 24.8986 35.0034 25.2223 35.0034" stroke="#66737C" stroke-width="3.33333"/><path d="M25.2223 36.1753C25.5457 36.1753 25.8082 35.913 25.8082 35.5894 25.8082 35.2657 25.5457 35.0034 25.2223 35.0034" stroke="#66737C" stroke-width="3.33333"/><path d="M18.9366 28.125 40.1766 28.125C42.1507 28.125 44.0442 27.3398 45.4404 25.9425 46.8363 24.5449 47.6205 22.6497 47.6205 20.6734 47.6205 18.6971 46.8363 16.8018 45.4404 15.4043 44.0442 14.0069 42.1507 13.2218 40.1766 13.2218L18.9366 13.2218" stroke="#66737C" stroke-width="3.33333" stroke-linecap="round" stroke-linejoin="round"/><path d="M25.8082 19.527 32.6796 19.527" stroke="#66737C" stroke-width="3.33333" stroke-linecap="round" stroke-linejoin="round"/><path d="M39.5513 22.9662 46.4227 22.9662" stroke="#66737C" stroke-width="3.33333" stroke-linecap="round" stroke-linejoin="round"/><path d="M9.20196 43.0282C13.3132 43.0282 16.6461 39.6921 16.6461 35.5765 16.6461 31.4611 13.3132 28.125 9.20196 28.125 5.09067 28.125 1.75781 31.4611 1.75781 35.5765 1.75781 39.6921 5.09067 43.0282 9.20196 43.0282Z" stroke="#66737C" stroke-width="3.33333" stroke-linecap="round" stroke-linejoin="round"/></svg>