<svg width="60" height="60" viewBox="-1.875 -1.875 60 60" xmlns="http://www.w3.org/2000/svg" xmlns:xlink="http://www.w3.org/1999/xlink" id="Workflow-Project-Management--Streamline-Ultimate" overflow="hidden"><defs></defs><path d="M2.90391 28.125 7.49062 28.125" stroke="#66737C" stroke-width="3.33333" stroke-linecap="round" stroke-linejoin="round" fill="none"/><path d="M16.6617 28.125 28.125 28.125" stroke="#66737C" stroke-width="3.33333" stroke-linecap="round" stroke-linejoin="round" fill="none"/><path d="M37.2961 28.125 53.3461 28.125" stroke="#66737C" stroke-width="3.33333" stroke-linecap="round" stroke-linejoin="round" fill="none"/><path d="M48.7078 23.5383 53.3461 28.125 48.7078 32.7117" stroke="#66737C" stroke-width="3.33333" stroke-linecap="round" stroke-linejoin="round" fill="none"/><path d="M7.48828 28.125C7.48828 30.6582 9.54183 32.7117 12.075 32.7117 14.6082 32.7117 16.6617 30.6582 16.6617 28.125 16.6617 25.5918 14.6082 23.5383 12.075 23.5383 9.54183 23.5383 7.48828 25.5918 7.48828 28.125" stroke="#66737C" stroke-width="3.33333" stroke-linecap="round" stroke-linejoin="round" fill="none"/><path d="M28.125 28.125C28.125 30.6582 30.1785 32.7117 32.7117 32.7117 35.2449 32.7117 37.2984 30.6582 37.2984 28.125 37.2984 25.5918 35.2449 23.5383 32.7117 23.5383 30.1785 23.5383 28.125 25.5918 28.125 28.125" stroke="#66737C" stroke-width="3.33333" stroke-linecap="round" stroke-linejoin="round" fill="none"/><path d="M32.7117 23.5383 32.7117 15.5156" stroke="#66737C" stroke-width="3.33333" stroke-linecap="round" stroke-linejoin="round" fill="none"/><path d="M12.075 40.7344 12.075 32.7117" stroke="#66737C" stroke-width="3.33333" stroke-linecap="round" stroke-linejoin="round" fill="none"/><path d="M25.882 1.75781 39.5367 1.75781C39.5367 1.75781 41.8805 1.75781 41.8805 4.10156L41.8805 13.1719C41.8805 13.1719 41.8805 15.5156 39.5367 15.5156L25.882 15.5156C25.882 15.5156 23.5383 15.5156 23.5383 13.1719L23.5383 4.10156C23.5383 4.10156 23.5383 1.75781 25.882 1.75781" stroke="#66737C" stroke-width="3.33333" stroke-linecap="round" stroke-linejoin="round" fill="none"/><path d="M5.24766 40.7344 18.9023 40.7344C18.9023 40.7344 21.2461 40.7344 21.2461 43.0781L21.2461 52.1484C21.2461 52.1484 21.2461 54.4922 18.9023 54.4922L5.24766 54.4922C5.24766 54.4922 2.90391 54.4922 2.90391 52.1484L2.90391 43.0781C2.90391 43.0781 2.90391 40.7344 5.24766 40.7344" stroke="#66737C" stroke-width="3.33333" stroke-linecap="round" stroke-linejoin="round" fill="none"/></svg>