<svg width="60" height="60" viewBox="-1.875 -1.875 60 60" xmlns="http://www.w3.org/2000/svg" xmlns:xlink="http://www.w3.org/1999/xlink" id="Workflow-Teamwork-Hierarchy--Streamline-Ultimate" overflow="hidden"><defs></defs><path d="M27.968 31.5352C26.0896 26.3549 20.3674 23.6781 15.1871 25.5565 12.3558 26.5831 10.1398 28.8337 9.15703 31.6805" stroke="#66737C" stroke-width="3.33333" stroke-linecap="round" stroke-linejoin="round" fill="none"/><path d="M12.3891 16.0547C12.3891 19.4202 15.1173 22.1484 18.4828 22.1484 21.8483 22.1484 24.5766 19.4202 24.5766 16.0547 24.5766 12.6892 21.8483 9.96094 18.4828 9.96094 15.1173 9.96094 12.3891 12.6892 12.3891 16.0547" stroke="#66737C" stroke-width="3.33333" stroke-linecap="round" stroke-linejoin="round" fill="none"/><path d="M2.05078 18.1641C2.05078 27.225 9.39611 34.5703 18.457 34.5703 27.518 34.5703 34.8633 27.225 34.8633 18.1641 34.8633 9.10314 27.518 1.75781 18.457 1.75781 9.39611 1.75781 2.05078 9.10314 2.05078 18.1641" stroke="#66737C" stroke-width="3.33333" stroke-linecap="round" stroke-linejoin="round" fill="none"/><path d="M40.1367 39.8438C40.1367 43.727 43.2847 46.875 47.168 46.875 51.0512 46.875 54.1992 43.727 54.1992 39.8438 54.1992 35.9605 51.0512 32.8125 47.168 32.8125 43.2847 32.8125 40.1367 35.9605 40.1367 39.8438" stroke="#66737C" stroke-width="3.33333" stroke-linecap="round" stroke-linejoin="round" fill="none"/><path d="M22.6875 51.0539C22.6875 52.9528 24.2269 54.4922 26.1258 54.4922 28.0247 54.4922 29.5641 52.9528 29.5641 51.0539 29.5641 49.155 28.0247 47.6156 26.1258 47.6156 24.2269 47.6156 22.6875 49.155 22.6875 51.0539" stroke="#66737C" stroke-width="3.33333" stroke-linecap="round" stroke-linejoin="round" fill="none"/><path d="M32.1211 27.2437 41.1258 36.2461" stroke="#66737C" stroke-width="3.33333" stroke-linecap="round" stroke-linejoin="round" fill="none"/><path d="M29.175 49.4648 40.7484 42.7148" stroke="#66737C" stroke-width="3.33333" stroke-linecap="round" stroke-linejoin="round" fill="none"/></svg>