<svg width="60" height="60" viewBox="-1.875 -1.875 60 60" xmlns="http://www.w3.org/2000/svg" xmlns:xlink="http://www.w3.org/1999/xlink" id="Workflow-Manager-Male-1--Streamline-Ultimate" overflow="hidden"><defs></defs><path d="M24.6094 5.27344C24.6094 7.21506 26.1834 8.78906 28.125 8.78906 30.0666 8.78906 31.6406 7.21506 31.6406 5.27344 31.6406 3.33181 30.0666 1.75781 28.125 1.75781 26.1834 1.75781 24.6094 3.33181 24.6094 5.27344" stroke="#66737C" stroke-width="3.33333" stroke-linecap="round" stroke-linejoin="round" fill="none"/><path d="M24.6094 50.9766C24.6094 52.9182 26.1834 54.4922 28.125 54.4922 30.0666 54.4922 31.6406 52.9182 31.6406 50.9766 31.6406 49.0349 30.0666 47.4609 28.125 47.4609 26.1834 47.4609 24.6094 49.0349 24.6094 50.9766" stroke="#66737C" stroke-width="3.33333" stroke-linecap="round" stroke-linejoin="round" fill="none"/><path d="M4.81875 16.6992C4.81875 18.6408 6.39275 20.2148 8.33438 20.2148 10.276 20.2148 11.85 18.6408 11.85 16.6992 11.85 14.7576 10.276 13.1836 8.33438 13.1836 6.39275 13.1836 4.81875 14.7576 4.81875 16.6992" stroke="#66737C" stroke-width="3.33333" stroke-linecap="round" stroke-linejoin="round" fill="none"/><path d="M44.4 39.5508C44.4 41.4924 45.974 43.0664 47.9156 43.0664 49.8573 43.0664 51.4313 41.4924 51.4313 39.5508 51.4313 37.6092 49.8573 36.0352 47.9156 36.0352 45.974 36.0352 44.4 37.6092 44.4 39.5508" stroke="#66737C" stroke-width="3.33333" stroke-linecap="round" stroke-linejoin="round" fill="none"/><path d="M4.81875 39.5508C4.81875 41.4924 6.39275 43.0664 8.33438 43.0664 10.276 43.0664 11.85 41.4924 11.85 39.5508 11.85 37.6092 10.276 36.0352 8.33438 36.0352 6.39275 36.0352 4.81875 37.6092 4.81875 39.5508" stroke="#66737C" stroke-width="3.33333" stroke-linecap="round" stroke-linejoin="round" fill="none"/><path d="M44.4 16.6992C44.4 18.6408 45.974 20.2148 47.9156 20.2148 49.8573 20.2148 51.4313 18.6408 51.4313 16.6992 51.4313 14.7576 49.8573 13.1836 47.9156 13.1836 45.974 13.1836 44.4 14.7576 44.4 16.6992" stroke="#66737C" stroke-width="3.33333" stroke-linecap="round" stroke-linejoin="round" fill="none"/><path d="M20.8383 22.5281C20.8383 26.5525 24.1007 29.8148 28.125 29.8148 32.1493 29.8148 35.4117 26.5525 35.4117 22.5281 35.4117 18.5038 32.1493 15.2414 28.125 15.2414 24.1007 15.2414 20.8383 18.5038 20.8383 22.5281" stroke="#66737C" stroke-width="3.33333" stroke-linecap="round" stroke-linejoin="round" fill="none"/><path d="M37.2656 36.9797C33.0749 32.3468 26.088 31.5646 20.9766 35.1562 20.2377 35.6822 19.5656 36.2961 18.975 36.9844" stroke="#66737C" stroke-width="3.33333" stroke-linecap="round" stroke-linejoin="round" fill="none"/><path d="M35.4117 22.7695C34.0957 23.1472 32.7332 23.3389 31.3641 23.3391 27.7105 23.3419 24.1896 21.9697 21.5016 19.4953" stroke="#66737C" stroke-width="3.33333" stroke-linecap="round" stroke-linejoin="round" fill="none"/></svg>