<svg width="60" height="60" viewBox="-1.875 -1.875 60 60" xmlns="http://www.w3.org/2000/svg" xmlns:xlink="http://www.w3.org/1999/xlink" id="Workflow-Teamwork-Cog-Share--Streamline-Ultimate" overflow="hidden"><defs></defs><path d="M25.2586 4.62422C25.2586 6.20729 26.5419 7.49063 28.125 7.49063 29.7081 7.49063 30.9914 6.20729 30.9914 4.62422 30.9914 3.04115 29.7081 1.75781 28.125 1.75781 26.5419 1.75781 25.2586 3.04115 25.2586 4.62422" stroke="#66737C" stroke-width="2.66667" stroke-linecap="round" stroke-linejoin="round" fill="none"/><path d="M28.125 9.96094 28.125 7.49062" stroke="#66737C" stroke-width="2.66667" stroke-linecap="round" stroke-linejoin="round" fill="none"/><path d="M40.9688 15.2812 42.7172 13.5328" stroke="#66737C" stroke-width="2.66667" stroke-linecap="round" stroke-linejoin="round" fill="none"/><path d="M46.2891 28.125 48.7594 28.125" stroke="#66737C" stroke-width="2.66667" stroke-linecap="round" stroke-linejoin="round" fill="none"/><path d="M40.9688 40.9688 42.7172 42.7172" stroke="#66737C" stroke-width="2.66667" stroke-linecap="round" stroke-linejoin="round" fill="none"/><path d="M28.125 46.2891 28.125 48.7594" stroke="#66737C" stroke-width="2.66667" stroke-linecap="round" stroke-linejoin="round" fill="none"/><path d="M15.2812 40.9688 13.5328 42.7172" stroke="#66737C" stroke-width="2.66667" stroke-linecap="round" stroke-linejoin="round" fill="none"/><path d="M9.96094 28.125 7.49062 28.125" stroke="#66737C" stroke-width="2.66667" stroke-linecap="round" stroke-linejoin="round" fill="none"/><path d="M15.2812 15.2812 13.5328 13.5328" stroke="#66737C" stroke-width="2.66667" stroke-linecap="round" stroke-linejoin="round" fill="none"/><path d="M41.8758 11.5078C41.8758 13.0909 43.1591 14.3742 44.7422 14.3742 46.3253 14.3742 47.6086 13.0909 47.6086 11.5078 47.6086 9.92474 46.3253 8.64141 44.7422 8.64141 43.1591 8.64141 41.8758 9.92474 41.8758 11.5078" stroke="#66737C" stroke-width="2.66667" stroke-linecap="round" stroke-linejoin="round" fill="none"/><path d="M48.7594 28.125C48.7594 29.7081 50.0427 30.9914 51.6258 30.9914 53.2089 30.9914 54.4922 29.7081 54.4922 28.125 54.4922 26.5419 53.2089 25.2586 51.6258 25.2586 50.0427 25.2586 48.7594 26.5419 48.7594 28.125" stroke="#66737C" stroke-width="2.66667" stroke-linecap="round" stroke-linejoin="round" fill="none"/><path d="M41.8758 44.7422C41.8758 46.3253 43.1591 47.6086 44.7422 47.6086 46.3253 47.6086 47.6086 46.3253 47.6086 44.7422 47.6086 43.1591 46.3253 41.8758 44.7422 41.8758 43.1591 41.8758 41.8758 43.1591 41.8758 44.7422" stroke="#66737C" stroke-width="2.66667" stroke-linecap="round" stroke-linejoin="round" fill="none"/><path d="M25.2586 51.6258C25.2586 53.2089 26.5419 54.4922 28.125 54.4922 29.7081 54.4922 30.9914 53.2089 30.9914 51.6258 30.9914 50.0427 29.7081 48.7594 28.125 48.7594 26.5419 48.7594 25.2586 50.0427 25.2586 51.6258" stroke="#66737C" stroke-width="2.66667" stroke-linecap="round" stroke-linejoin="round" fill="none"/><path d="M8.64141 44.7422C8.64141 46.3253 9.92474 47.6086 11.5078 47.6086 13.0909 47.6086 14.3742 46.3253 14.3742 44.7422 14.3742 43.1591 13.0909 41.8758 11.5078 41.8758 9.92474 41.8758 8.64141 43.1591 8.64141 44.7422" stroke="#66737C" stroke-width="2.66667" stroke-linecap="round" stroke-linejoin="round" fill="none"/><path d="M1.75781 28.125C1.75781 29.7081 3.04115 30.9914 4.62422 30.9914 6.20729 30.9914 7.49063 29.7081 7.49063 28.125 7.49063 26.5419 6.20729 25.2586 4.62422 25.2586 3.04115 25.2586 1.75781 26.5419 1.75781 28.125" stroke="#66737C" stroke-width="2.66667" stroke-linecap="round" stroke-linejoin="round" fill="none"/><path d="M8.64141 11.5078C8.64141 13.0909 9.92474 14.3742 11.5078 14.3742 13.0909 14.3742 14.3742 13.0909 14.3742 11.5078 14.3742 9.92474 13.0909 8.64141 11.5078 8.64141 9.92474 8.64141 8.64141 9.92474 8.64141 11.5078" stroke="#66737C" stroke-width="2.66667" stroke-linecap="round" stroke-linejoin="round" fill="none"/><path d="M19.4156 28.125C19.4156 32.9351 23.3149 36.8344 28.125 36.8344 32.9351 36.8344 36.8344 32.9351 36.8344 28.125 36.8344 23.3149 32.9351 19.4156 28.125 19.4156 23.3149 19.4156 19.4156 23.3149 19.4156 28.125" stroke="#66737C" stroke-width="2.66667" stroke-linecap="round" stroke-linejoin="round" fill="none"/><path d="M28.125 19.4156 28.125 15.2344" stroke="#66737C" stroke-width="2.66667" stroke-linecap="round" stroke-linejoin="round" fill="none"/><path d="M28.125 41.0156 28.125 36.8344" stroke="#66737C" stroke-width="2.66667" stroke-linecap="round" stroke-linejoin="round" fill="none"/><path d="M36.8344 28.125 41.0156 28.125" stroke="#66737C" stroke-width="2.66667" stroke-linecap="round" stroke-linejoin="round" fill="none"/><path d="M15.2344 28.125 19.4156 28.125" stroke="#66737C" stroke-width="2.66667" stroke-linecap="round" stroke-linejoin="round" fill="none"/><path d="M19.9008 18.9305 22.4695 21.5016" stroke="#66737C" stroke-width="2.66667" stroke-linecap="round" stroke-linejoin="round" fill="none"/><path d="M36.3492 18.9305 33.7781 21.5016" stroke="#66737C" stroke-width="2.66667" stroke-linecap="round" stroke-linejoin="round" fill="none"/><path d="M19.9008 37.3195 22.4695 34.7508" stroke="#66737C" stroke-width="2.66667" stroke-linecap="round" stroke-linejoin="round" fill="none"/><path d="M36.3492 37.3195 33.7781 34.7508" stroke="#66737C" stroke-width="2.66667" stroke-linecap="round" stroke-linejoin="round" fill="none"/><path d="M28.125 26.3836C29.0868 26.3836 29.8664 27.1632 29.8664 28.125 29.8664 29.0868 29.0868 29.8664 28.125 29.8664 27.1632 29.8664 26.3836 29.0868 26.3836 28.125 26.3836 27.1632 27.1632 26.3836 28.125 26.3836" stroke="#66737C" stroke-width="2.66667" stroke-linecap="round" stroke-linejoin="round" fill="none"/></svg>