<svg width="60" height="60" viewBox="-1.875 -1.875 60 60" xmlns="http://www.w3.org/2000/svg" xmlns:xlink="http://www.w3.org/1999/xlink" id="Workflow-Teammate-Circle--Streamline-Ultimate" overflow="hidden"><style>
.MsftOfcResponsive_Stroke_66737c {
 stroke:#66737C; 
}
</style>
<defs></defs><path d="M40.6922 29.6812C40.6922 31.9555 42.5359 33.7992 44.8102 33.7992 47.0844 33.7992 48.9281 31.9555 48.9281 29.6812 48.9281 27.407 47.0844 25.5633 44.8102 25.5633 42.5359 25.5633 40.6922 27.407 40.6922 29.6812" class="MsftOfcResponsive_Stroke_66737c" stroke="#66737C" stroke-width="3.33333" stroke-linecap="round" stroke-linejoin="round" fill="none"/><path d="M51.5367 38.9391C48.6594 35.2293 43.3195 34.5544 39.6097 37.4317 39.046 37.8689 38.5396 38.3754 38.1023 38.9391" class="MsftOfcResponsive_Stroke_66737c" stroke="#66737C" stroke-width="3.33333" stroke-linecap="round" stroke-linejoin="round" fill="none"/><path d="M7.32188 29.6812C7.32188 31.9555 9.16555 33.7992 11.4398 33.7992 13.7141 33.7992 15.5578 31.9555 15.5578 29.6812 15.5578 27.407 13.7141 25.5633 11.4398 25.5633 9.16555 25.5633 7.32188 27.407 7.32188 29.6812" class="MsftOfcResponsive_Stroke_66737c" stroke="#66737C" stroke-width="3.33333" stroke-linecap="round" stroke-linejoin="round" fill="none"/><path d="M4.71094 38.9367C7.58475 35.2242 12.924 34.5443 16.6366 37.4181 17.1986 37.8532 17.7039 38.3571 18.1406 38.918" class="MsftOfcResponsive_Stroke_66737c" stroke="#66737C" stroke-width="3.33333" stroke-linecap="round" stroke-linejoin="round" fill="none"/><path d="M38.6273 42.1875C38.6273 36.3872 33.9253 31.6852 28.125 31.6852 22.3247 31.6852 17.6227 36.3872 17.6227 42.1875" class="MsftOfcResponsive_Stroke_66737c" stroke="#66737C" stroke-width="3.33333" stroke-linecap="round" stroke-linejoin="round" fill="none"/><path d="M21.8109 22.6125C21.8109 26.0401 24.5896 28.8187 28.0172 28.8187 31.4448 28.8187 34.2234 26.0401 34.2234 22.6125 34.2234 19.1849 31.4448 16.4062 28.0172 16.4062 24.5896 16.4062 21.8109 19.1849 21.8109 22.6125" class="MsftOfcResponsive_Stroke_66737c" stroke="#66737C" stroke-width="3.33333" stroke-linecap="round" stroke-linejoin="round" fill="none"/><path d="M1.75781 28.125C1.75781 42.6872 13.5628 54.4922 28.125 54.4922 42.6872 54.4922 54.4922 42.6872 54.4922 28.125 54.4922 13.5628 42.6872 1.75781 28.125 1.75781 13.5628 1.75781 1.75781 13.5628 1.75781 28.125" class="MsftOfcResponsive_Stroke_66737c" stroke="#66737C" stroke-width="3.33333" stroke-linecap="round" stroke-linejoin="round" fill="none"/></svg>