<svg width="24" height="24" viewBox="0 0 24 24" fill="none" xmlns="http://www.w3.org/2000/svg">
<path d="M10 20H7M18 17H16M13.0002 9H6.2002C5.08009 9 4.51962 9 4.0918 9.21799C3.71547 9.40973 3.40973 9.71547 3.21799 10.0918C3 10.5196 3 11.0801 3 12.2002V13.8002C3 14.9203 3 15.4796 3.21799 15.9074C3.40973 16.2837 3.71547 16.5905 4.0918 16.7822C4.5192 17 5.07899 17 6.19691 17H13.0001M13.0001 17C13.0008 17.9884 13.0134 18.5058 13.218 18.9074C13.4097 19.2837 13.7155 19.5905 14.0918 19.7822C14.5192 20 15.079 20 16.1969 20H17.8031C18.921 20 19.48 20 19.9074 19.7822C20.2837 19.5905 20.5905 19.2837 20.7822 18.9074C21 18.48 21 17.921 21 16.8031V7.19691C21 6.07899 21 5.5192 20.7822 5.0918C20.5905 4.71547 20.2837 4.40973 19.9074 4.21799C19.4796 4 18.9203 4 17.8002 4H16.2002C15.0801 4 14.5196 4 14.0918 4.21799C13.7155 4.40973 13.4097 4.71547 13.218 5.0918C13 5.51962 13 6.08009 13 7.2002L13.0002 9L13 16.8002C13 16.8689 13 16.9354 13.0001 17ZM17.002 7V7.002L17 7.00195V7H17.002Z" stroke="white" stroke-width="2" stroke-linecap="round" stroke-linejoin="round"/>
</svg>
