<svg width="60" height="60" viewBox="-1.875 -1.875 60 60" xmlns="http://www.w3.org/2000/svg" xmlns:xlink="http://www.w3.org/1999/xlink" id="3-D-Print-Monitor-1--Streamline-Ultimate" overflow="hidden"><path d="M36.9141 54.4922 19.3359 54.4922 21.0938 43.9453 35.1562 43.9453 36.9141 54.4922Z" stroke="#66737C" stroke-width="3.33333" stroke-linecap="round" stroke-linejoin="round" fill="none"/><path d="M14.0625 54.4922 42.1875 54.4922" stroke="#66737C" stroke-width="3.33333" stroke-linecap="round" stroke-linejoin="round" fill="none"/><path d="M1.75781 36.9141 54.4922 36.9141" stroke="#66737C" stroke-width="3.33333" stroke-linecap="round" stroke-linejoin="round" fill="none"/><path d="M47.4609 8.78906C51.3442 8.78906 54.4922 11.9371 54.4922 15.8203L54.4922 36.9141C54.4922 40.7973 51.3442 43.9453 47.4609 43.9453L8.78906 43.9453C4.90581 43.9453 1.75781 40.7973 1.75781 36.9141L1.75781 15.8203C1.75781 11.9371 4.90581 8.78906 8.78906 8.78906" stroke="#66737C" stroke-width="3.33333" stroke-linecap="round" stroke-linejoin="round" fill="none"/><path d="M28.125 15.8203 15.8203 8.78906 15.8203 22.8516 28.125 29.8828 28.125 15.8203Z" stroke="#66737C" stroke-width="3.33333" stroke-linecap="round" stroke-linejoin="round" fill="none"/><path d="M28.125 15.8203 40.4297 8.78906 40.4297 22.8516 28.125 29.8828 28.125 15.8203Z" stroke="#66737C" stroke-width="3.33333" stroke-linecap="round" stroke-linejoin="round" fill="none"/><path d="M40.4297 8.78906 28.125 1.75781 15.8203 8.78906" stroke="#66737C" stroke-width="3.33333" stroke-linecap="round" stroke-linejoin="round" fill="none"/></svg>