<svg width="60" height="60" viewBox="-2.14 -2.14 60 60" xmlns="http://www.w3.org/2000/svg" xmlns:xlink="http://www.w3.org/1999/xlink" id="Advertising-Megaphone--Streamline-Ultimate.svg" overflow="hidden"><path d="M7.27146 29.7173 8.31157 26.9894 5.8831 20.6187C5.52389 19.672 5.87157 18.6029 6.7189 18.0486L12.4256 14.3224 14.2063 7.74276C14.4713 6.76513 15.3816 6.10416 16.3933 6.15474L23.2004 6.50067 28.5077 2.21719C29.297 1.58078 30.4232 1.58078 31.2125 2.21719L36.5198 6.50067 43.3269 6.1617C44.3386 6.11112 45.2489 6.77209 45.514 7.74972L47.2947 14.3293 53.0013 18.0556C53.8494 18.6093 54.1973 19.679 53.8371 20.6257L51.411 26.9963 53.8371 33.3647C54.1976 34.312 53.8498 35.3825 53.0013 35.9371L47.2947 39.6517 45.5047 46.2337C45.2413 47.2128 44.3303 47.8752 43.3177 47.824L36.5105 47.4851 31.2032 51.7592" stroke="#66737C" stroke-width="3.57143" stroke-linecap="round" stroke-linejoin="round" fill="none"/><path d="M1.74125 45.897 5.58593 51.9543" stroke="#66737C" stroke-width="3.57143" stroke-linecap="round" stroke-linejoin="round" fill="none"/><path d="M23.0031 18.9146 37.6156 41.9363" stroke="#66737C" stroke-width="3.57143" stroke-linecap="round" stroke-linejoin="round" fill="none"/><path d="M36.8472 40.7244 4.81746 50.7447 2.50972 47.1089 23.7715 20.1265 36.8472 40.7244Z" stroke="#66737C" stroke-width="3.57143" stroke-linecap="round" stroke-linejoin="round" fill="none"/><path d="M11.7383 48.5786 13.7721 51.7035C15.1349 53.9377 18.0508 54.6441 20.285 53.2813 20.3645 53.2328 20.4424 53.1821 20.5189 53.129 22.7706 51.5086 23.3683 48.4134 21.8817 46.0712L21.5033 45.5232" stroke="#66737C" stroke-width="3.57143" stroke-linecap="round" stroke-linejoin="round" fill="none"/></svg>