<svg width="60" height="60" viewBox="-1.875 -1.875 60 60" xmlns="http://www.w3.org/2000/svg" xmlns:xlink="http://www.w3.org/1999/xlink" id="Adventure-Car-Convertible--Streamline-Ultimate" overflow="hidden"><path d="M36.9141 38.6719C36.9141 41.5843 39.2751 43.9453 42.1875 43.9453 45.0999 43.9453 47.4609 41.5843 47.4609 38.6719 47.4609 35.7594 45.0999 33.3984 42.1875 33.3984 39.2751 33.3984 36.9141 35.7594 36.9141 38.6719Z" stroke="#66737C" stroke-width="3.57143" stroke-linecap="round" stroke-linejoin="round" fill="none"/><path d="M8.78906 38.6719C8.78906 41.5843 11.1501 43.9453 14.0625 43.9453 16.9749 43.9453 19.3359 41.5843 19.3359 38.6719 19.3359 35.7594 16.9749 33.3984 14.0625 33.3984 11.1501 33.3984 8.78906 35.7594 8.78906 38.6719Z" stroke="#66737C" stroke-width="3.57143" stroke-linecap="round" stroke-linejoin="round" fill="none"/><path d="M36.9141 38.6719 19.3359 38.6719" stroke="#66737C" stroke-width="3.57143" stroke-linecap="round" stroke-linejoin="round" fill="none"/><path d="M47.4609 38.6719 50.9766 38.6719C52.9182 38.6719 54.4922 37.0979 54.4922 35.1562L54.4922 27.4922C54.4923 25.8161 53.3092 24.373 51.6656 24.0445L36.9141 21.0938 36.9141 24.6094C36.9141 26.551 35.3401 28.125 33.3984 28.125L22.9688 28.125C21.7933 28.1249 20.6957 27.5374 20.0438 26.5594L17.5781 21.0938 8.78906 21.0938C6.84744 21.0938 5.27344 22.6677 5.27344 24.6094L5.27344 38.6719" stroke="#66737C" stroke-width="3.57143" stroke-linecap="round" stroke-linejoin="round" fill="none"/><path d="M1.75781 38.6719 8.78906 38.6719" stroke="#66737C" stroke-width="3.57143" stroke-linecap="round" stroke-linejoin="round" fill="none"/><path d="M17.5781 21.0938 17.5781 14.0625" stroke="#66737C" stroke-width="3.57143" stroke-linecap="round" stroke-linejoin="round" fill="none"/><path d="M36.9141 21.0938 33.3984 10.5469 29.8828 10.5469" stroke="#66737C" stroke-width="3.57143" stroke-linecap="round" stroke-linejoin="round" fill="none"/></svg>