<svg width="60" height="60" viewBox="-1.875 -1.875 60 60" xmlns="http://www.w3.org/2000/svg" xmlns:xlink="http://www.w3.org/1999/xlink" id="Ai-Folder-Robot--Streamline-Ultimate" fill="none" overflow="hidden"><path d="M26.5055 49.5513 6.3521 49.5513C5.23439 49.5513 4.16245 49.1074 3.37212 48.3171 2.58176 47.5268 2.13776 46.4548 2.13776 45.337L2.13776 6.21019C2.13776 5.09248 2.58176 4.02054 3.37212 3.2302 4.16245 2.43987 5.23439 1.99585 6.3521 1.99585L16.8879 1.99585C17.5422 1.99585 18.1875 2.14818 18.7726 2.44076 19.3578 2.73335 19.8061 3.19268 20.2594 3.68159L25.3165 8.97335 49.9003 8.97335C51.0178 8.97335 52.0898 9.41735 52.8802 10.2077 53.6705 10.998 54.1146 12.07 54.1146 13.1877L54.1146 31.3181" stroke="#66737C" stroke-width="3.33333" stroke-linecap="round" stroke-linejoin="round"/><path d="M39.1477 38.9648 49.4273 38.9648C49.4273 38.9648 54.1148 38.9648 54.1148 43.6523L54.1148 49.568C54.1148 49.568 54.1148 54.2555 49.4273 54.2555L39.1477 54.2555C39.1477 54.2555 34.4602 54.2555 34.4602 49.568L34.4602 43.6523C34.4602 43.6523 34.4602 38.9648 39.1477 38.9648" stroke="#66737C" stroke-width="3.33333" stroke-linejoin="round"/><path d="M44.284 32.9339 44.284 38.9648" stroke="#66737C" stroke-width="3.33333" stroke-linecap="round" stroke-linejoin="round"/><path d="M40.6861 45.7465 40.6861 47.4792" stroke="#66737C" stroke-width="3.33333" stroke-linecap="round" stroke-linejoin="round"/><path d="M47.8866 45.7465 47.8866 47.4792" stroke="#66737C" stroke-width="3.33333" stroke-linecap="round" stroke-linejoin="round"/></svg>