<svg width="60" height="60" viewBox="-1.875 -1.875 60 60" xmlns="http://www.w3.org/2000/svg" xmlns:xlink="http://www.w3.org/1999/xlink" id="Ai-Generate-Music-Robot--Streamline-Ultimate" fill="none" overflow="hidden"><path d="M9.26227 54.0928C13.3715 54.0928 16.7026 50.7616 16.7026 46.6523 16.7026 42.5433 13.3715 39.2121 9.26227 39.2121 5.15306 39.2121 1.8219 42.5433 1.8219 46.6523 1.8219 50.7616 5.15306 54.0928 9.26227 54.0928Z" stroke="#66737C" stroke-width="3.33333" stroke-linecap="round" stroke-linejoin="round"/><path d="M37.163 49.4419C41.2723 49.4419 44.6034 46.1107 44.6034 42.0016 44.6034 37.8923 41.2723 34.5612 37.163 34.5612 33.0537 34.5612 29.7225 37.8923 29.7225 42.0016 29.7225 46.1107 33.0537 49.4419 37.163 49.4419Z" stroke="#66737C" stroke-width="3.33333" stroke-linecap="round" stroke-linejoin="round"/><path d="M16.7038 46.6549 16.7038 19.5764C16.7036 18.5668 17.0615 17.5897 17.714 16.8192 18.3665 16.0487 19.2712 15.5346 20.2671 15.3685L27.499 14.1632M44.6055 42.004 44.6055 30.1549" stroke="#66737C" stroke-width="3.33333" stroke-linecap="round" stroke-linejoin="round" opacity="0.99"/><path d="M16.7038 25.8595 27.2245 24.1059" stroke="#66737C" stroke-width="3.33333" stroke-linecap="round" stroke-linejoin="round"/><path d="M39.4641 8.19375 49.7438 8.19375C49.7438 8.19375 54.4313 8.19375 54.4313 12.8813L54.4313 18.7969C54.4313 18.7969 54.4313 23.4844 49.7438 23.4844L39.4641 23.4844C39.4641 23.4844 34.7766 23.4844 34.7766 18.7969L34.7766 12.8813C34.7766 12.8813 34.7766 8.19375 39.4641 8.19375" stroke="#66737C" stroke-width="3.33333" stroke-linecap="round" stroke-linejoin="round"/><path d="M44.6046 2.16309 44.6044 8.19396" stroke="#66737C" stroke-width="3.33333" stroke-linecap="round" stroke-linejoin="round"/><path d="M41.0065 14.9756 41.0065 16.7084" stroke="#66737C" stroke-width="3.33333" stroke-linecap="round" stroke-linejoin="round"/><path d="M48.2025 14.9756 48.2025 16.7084" stroke="#66737C" stroke-width="3.33333" stroke-linecap="round" stroke-linejoin="round"/></svg>