<svg width="60" height="60" viewBox="-1.875 -1.875 60 60" xmlns="http://www.w3.org/2000/svg" xmlns:xlink="http://www.w3.org/1999/xlink" id="Ai-Generate-Voice-Robot-1--Streamline-Ultimate" fill="none" overflow="hidden"><path d="M21.7003 19.9127 21.7003 54.0187" stroke="#66737C" stroke-width="3.33333" stroke-linecap="round"/><path d="M31.1988 32.3913 31.1988 49.017" stroke="#66737C" stroke-width="3.33333" stroke-linecap="round"/><path d="M40.6929 32.3913 40.6929 43.2562" stroke="#66737C" stroke-width="3.33333" stroke-linecap="round"/><path d="M12.2063 28.5279 12.2063 45.4071" stroke="#66737C" stroke-width="3.33333" stroke-linecap="round"/><path d="M2.70766 22.8973 2.70766 51.0316" stroke="#66737C" stroke-width="3.33333" stroke-linecap="round"/><path d="M37.3289 8.65078 48.8578 8.65078C48.8578 8.65078 53.5453 8.65078 53.5453 13.3383L53.5453 20.2242C53.5453 20.2242 53.5453 24.9117 48.8578 24.9117L37.3289 24.9117C37.3289 24.9117 32.6414 24.9117 32.6414 20.2242L32.6414 13.3383C32.6414 13.3383 32.6414 8.65078 37.3289 8.65078" stroke="#66737C" stroke-width="3.33333" stroke-linejoin="round"/><path d="M43.0915 2.23754 43.0915 8.65174" stroke="#66737C" stroke-width="3.33333" stroke-linecap="round" stroke-linejoin="round"/><path d="M39.2646 15.8725 39.2646 17.7154" stroke="#66737C" stroke-width="3.33333" stroke-linecap="round" stroke-linejoin="round"/><path d="M46.9186 15.8725 46.9186 17.7154" stroke="#66737C" stroke-width="3.33333" stroke-linecap="round" stroke-linejoin="round"/></svg>