<svg width="60" height="60" viewBox="-1.875 -1.875 60 60" xmlns="http://www.w3.org/2000/svg" xmlns:xlink="http://www.w3.org/1999/xlink" id="Ai-Gaming-Robot--Streamline-Ultimate" fill="none" overflow="hidden"><path d="M27.8848 22.4304 14.4115 22.4304C10.3512 22.4304 7.16098 25.3305 6.29093 29.1009L2.23058 47.0824C1.65054 49.9826 3.3907 53.1727 6.29093 53.7527 8.32109 54.3328 10.0612 53.7527 11.5113 52.3027L16.7317 45.6321 37.3207 45.6321 42.5412 52.3027C43.9912 53.7527 45.7315 54.3328 47.7616 53.7527 50.6618 53.1727 52.402 49.9826 51.822 47.0824L48.1999 31.0423" stroke="#66737C" stroke-width="3.33333" stroke-linecap="round" stroke-linejoin="round" stroke-miterlimit="10"/><path d="M38.483 31.1344C38.1626 31.1344 37.9029 30.8747 37.9029 30.5545 37.9029 30.2341 38.1626 29.9745 38.483 29.9745" stroke="#66737C" stroke-width="3.33333" stroke-linecap="round" stroke-linejoin="round" stroke-miterlimit="10"/><path d="M38.4855 31.1344C38.8059 31.1344 39.0656 30.8747 39.0656 30.5545 39.0656 30.2341 38.8059 29.9745 38.4855 29.9745" stroke="#66737C" stroke-width="3.33333" stroke-linecap="round" stroke-linejoin="round" stroke-miterlimit="10"/><path d="M32.1063 36.9389C31.7859 36.9389 31.5263 36.6792 31.5263 36.3588 31.5263 36.0384 31.7859 35.7788 32.1063 35.7788" stroke="#66737C" stroke-width="3.33333" stroke-linecap="round" stroke-linejoin="round" stroke-miterlimit="10"/><path d="M32.1042 36.9389C32.4246 36.9389 32.6843 36.6792 32.6843 36.3588 32.6843 36.0384 32.4246 35.7788 32.1042 35.7788" stroke="#66737C" stroke-width="3.33333" stroke-linecap="round" stroke-linejoin="round" stroke-miterlimit="10"/><path d="M18.1824 29.9745 18.1824 38.6749" stroke="#66737C" stroke-width="3.33333" stroke-linecap="round" stroke-linejoin="round" stroke-miterlimit="10"/><path d="M14.122 34.3139 22.8227 34.3139" stroke="#66737C" stroke-width="3.33333" stroke-linecap="round" stroke-linejoin="round" stroke-miterlimit="10"/><path d="M39.1617 8.31328 49.4414 8.31328C49.4414 8.31328 54.1289 8.31328 54.1289 13.0008L54.1289 18.9164C54.1289 18.9164 54.1289 23.6039 49.4414 23.6039L39.1617 23.6039C39.1617 23.6039 34.4742 23.6039 34.4742 18.9164L34.4742 13.0008C34.4742 13.0008 34.4742 8.31328 39.1617 8.31328" stroke="#66737C" stroke-width="3.33333" stroke-linejoin="round"/><path d="M44.3023 2.28211 44.3023 8.313" stroke="#66737C" stroke-width="3.33333" stroke-linecap="round" stroke-linejoin="round"/><path d="M40.7044 15.0946 40.7044 16.8274" stroke="#66737C" stroke-width="3.33333" stroke-linecap="round" stroke-linejoin="round"/><path d="M47.9004 15.0946 47.9004 16.8274" stroke="#66737C" stroke-width="3.33333" stroke-linecap="round" stroke-linejoin="round"/></svg>