<svg width="60" height="60" viewBox="-1.875 -1.875 60 60" xmlns="http://www.w3.org/2000/svg" xmlns:xlink="http://www.w3.org/1999/xlink" id="Ai-Generate-Image-Robot--Streamline-Ultimate" fill="none" overflow="hidden"><path d="M27.9138 13.6963 5.63311 13.6963C4.17797 13.6963 2.99836 14.8759 2.99836 16.331L2.99836 50.5828C2.99836 52.038 4.17797 53.2177 5.63311 53.2177L39.885 53.2177C41.34 53.2177 42.5196 52.038 42.5196 50.5828L42.5196 32.1192" stroke="#66737C" stroke-width="3.33333" stroke-linecap="round" stroke-linejoin="round"/><path d="M22.7572 33.2967C26.1776 33.2967 28.9502 30.5241 28.9502 27.1036 28.9502 23.6834 26.1776 20.9107 22.7572 20.9107 19.3369 20.9107 16.5642 23.6834 16.5642 27.1036 16.5642 30.5241 19.3369 33.2967 22.7572 33.2967Z" stroke="#66737C" stroke-width="3.33333" stroke-linecap="round" stroke-linejoin="round" stroke-miterlimit="10"/><path d="M11.9202 45.994C11.9202 40.1107 16.8746 35.1562 22.758 35.1562 28.6413 35.1562 33.5958 40.1107 33.5958 45.994" stroke="#66737C" stroke-width="3.33333" stroke-linecap="round" stroke-linejoin="round" stroke-miterlimit="10"/><path d="M38.2828 9.06328 48.5625 9.06328C48.5625 9.06328 53.25 9.06328 53.25 13.7508L53.25 19.6664C53.25 19.6664 53.25 24.3539 48.5625 24.3539L38.2828 24.3539C38.2828 24.3539 33.5953 24.3539 33.5953 19.6664L33.5953 13.7508C33.5953 13.7508 33.5953 9.06328 38.2828 9.06328" stroke="#66737C" stroke-width="3.33333" stroke-linejoin="round"/><path d="M43.4234 3.03284 43.4234 9.06373" stroke="#66737C" stroke-width="3.33333" stroke-linecap="round" stroke-linejoin="round"/><path d="M39.8255 15.8453 39.8255 17.5781" stroke="#66737C" stroke-width="3.33333" stroke-linecap="round" stroke-linejoin="round"/><path d="M47.0215 15.8453 47.0215 17.5781" stroke="#66737C" stroke-width="3.33333" stroke-linecap="round" stroke-linejoin="round"/></svg>