<svg width="60" height="60" viewBox="-1.875 -1.875 60 60" xmlns="http://www.w3.org/2000/svg" xmlns:xlink="http://www.w3.org/1999/xlink" id="Ai-Generate-Variation-Spark--Streamline-Ultimate" fill="none" overflow="hidden"><path d="M5.25938 3.05859 21.8859 3.05859C21.8859 3.05859 24.2297 3.05859 24.2297 5.40234L24.2297 22.0289C24.2297 22.0289 24.2297 24.3727 21.8859 24.3727L5.25938 24.3727C5.25938 24.3727 2.91563 24.3727 2.91563 22.0289L2.91563 5.40234C2.91563 5.40234 2.91563 3.05859 5.25938 3.05859" stroke="#66737C" stroke-width="3.33333" stroke-linejoin="round"/><path d="M5.25938 31.8797 21.8859 31.8797C21.8859 31.8797 24.2297 31.8797 24.2297 34.2234L24.2297 50.85C24.2297 50.85 24.2297 53.1937 21.8859 53.1937L5.25938 53.1937C5.25938 53.1937 2.91563 53.1937 2.91563 50.85L2.91563 34.2234C2.91563 34.2234 2.91563 31.8797 5.25938 31.8797" stroke="#66737C" stroke-width="3.33333" stroke-linejoin="round"/><path d="M34.3641 31.8797 50.9906 31.8797C50.9906 31.8797 53.3344 31.8797 53.3344 34.2234L53.3344 50.85C53.3344 50.85 53.3344 53.1937 50.9906 53.1937L34.3641 53.1937C34.3641 53.1937 32.0203 53.1937 32.0203 50.85L32.0203 34.2234C32.0203 34.2234 32.0203 31.8797 34.3641 31.8797" stroke="#66737C" stroke-width="3.33333" stroke-linejoin="round"/><path d="M32.2127 13.707C37.4283 12.6585 41.6276 8.4083 42.6776 3.05787 43.7278 8.4083 47.9259 12.6585 53.1415 13.707M53.1415 13.7131C47.9259 14.7615 43.7266 19.0117 42.6766 24.3621 41.6264 19.0117 37.4283 14.7615 32.2127 13.7131" stroke="#66737C" stroke-width="3.33333" stroke-linecap="round" stroke-linejoin="round"/></svg>