<svg width="60" height="60" viewBox="-1.875 -1.875 60 60" xmlns="http://www.w3.org/2000/svg" xmlns:xlink="http://www.w3.org/1999/xlink" id="Ai-New-Robot--Streamline-Ultimate" fill="none" overflow="hidden"><path d="M43.7388 30.492C43.8434 31.3348 43.8973 32.1933 43.8973 33.0645 43.8973 44.4891 34.6357 53.7509 23.2108 53.7509 11.786 53.7509 2.52441 44.4891 2.52441 33.0645 2.52441 21.6396 11.786 12.3779 23.2108 12.3779 23.9316 12.3779 24.6436 12.4148 25.3451 12.4867" stroke="#66737C" stroke-width="3.33333" stroke-linecap="round" stroke-linejoin="round"/><path d="M23.2109 22.0642 23.2116 44.0787" stroke="#66737C" stroke-width="3.33333" stroke-linecap="round"/><path d="M34.2178 33.0689 12.2033 33.0696" stroke="#66737C" stroke-width="3.33333" stroke-linecap="round"/><path d="M38.7586 8.53359 49.0383 8.53359C49.0383 8.53359 53.7258 8.53359 53.7258 13.2211L53.7258 19.1367C53.7258 19.1367 53.7258 23.8242 49.0383 23.8242L38.7586 23.8242C38.7586 23.8242 34.0711 23.8242 34.0711 19.1367L34.0711 13.2211C34.0711 13.2211 34.0711 8.53359 38.7586 8.53359" stroke="#66737C" stroke-width="3.33333" stroke-linejoin="round"/><path d="M43.8973 2.50184 43.8973 8.5327" stroke="#66737C" stroke-width="3.33333" stroke-linecap="round" stroke-linejoin="round"/><path d="M40.2991 15.3143 40.2991 17.0471" stroke="#66737C" stroke-width="3.33333" stroke-linecap="round" stroke-linejoin="round"/><path d="M47.4975 15.3143 47.4975 17.0471" stroke="#66737C" stroke-width="3.33333" stroke-linecap="round" stroke-linejoin="round"/></svg>