<svg width="60" height="60" viewBox="-1.875 -1.875 60 60" xmlns="http://www.w3.org/2000/svg" xmlns:xlink="http://www.w3.org/1999/xlink" id="Ai-Science-Spark--Streamline-Ultimate" fill="none" overflow="hidden"><path d="M32.1555 13.2354C37.575 12.1459 41.9386 7.72948 43.0296 2.1698 44.1209 7.72948 48.483 12.1459 53.9025 13.2354M53.9025 13.2417C48.483 14.3312 44.1197 18.7476 43.0287 24.3073 41.9374 18.7476 37.575 14.3312 32.1555 13.2417" stroke="#66737C" stroke-width="3.33333" stroke-linecap="round" stroke-linejoin="round"/><path d="M13.7386 42.4861C23.2767 52.0242 33.3954 57.4085 39.0089 51.795 44.6088 46.1951 39.267 36.0916 29.7 26.5249 20.1331 16.958 10.0143 11.5738 4.40095 17.1872-1.19908 22.7872 4.14295 32.8905 13.7098 42.4573L13.7386 42.4861Z" stroke="#66737C" stroke-width="3.33333" stroke-linecap="round" stroke-linejoin="round"/><path d="M26.5329 16.7596C22.467 18.7407 18.0496 22.1924 13.7409 26.501L13.7121 26.5298C4.17405 36.068-1.21008 46.1866 4.40327 51.8002 10.0033 57.4001 20.1066 52.0582 29.6735 42.4912 33.99 38.1748 37.455 33.746 39.4425 29.6693" stroke="#66737C" stroke-width="3.33333" stroke-linecap="round" stroke-linejoin="round"/></svg>