<svg width="60" height="60" viewBox="-1.875 -1.875 60 60" xmlns="http://www.w3.org/2000/svg" xmlns:xlink="http://www.w3.org/1999/xlink" id="Ai-Video-Camera-Robot--Streamline-Ultimate" fill="none" overflow="hidden"><path d="M26.9606 36.2487 35.8927 36.2487C39.776 36.2487 42.9239 33.1008 42.9239 29.2174L42.9239 25.3971 50.1548 29.013C50.5015 29.1853 50.8863 29.2664 51.273 29.2484 51.6598 29.2303 52.0355 29.1138 52.3645 28.9102 52.6938 28.7062 52.9655 28.4217 53.1539 28.0837 53.3423 27.7455 53.4415 27.3649 53.4417 26.9777L53.4417 11.5984C53.4415 11.2113 53.3423 10.8307 53.1539 10.4925 52.9655 10.1544 52.6938 9.86993 52.3645 9.66612 52.0355 9.46231 51.6598 9.34587 51.273 9.32784 50.8863 9.30982 50.5015 9.3908 50.1548 9.56311L42.9239 13.1792 42.9239 9.3567C42.9239 5.47343 39.776 2.32544 35.8927 2.32544L12.3596 2.32544C8.47636 2.32544 5.32837 5.47343 5.32837 9.3567L5.32837 29.2174C5.32837 29.9909 5.45323 30.735 5.68388 31.4311" stroke="#66737C" stroke-width="3.33333" stroke-linecap="round" stroke-linejoin="round"/><path d="M7.49297 38.6344 17.7727 38.6344C17.7727 38.6344 22.4602 38.6344 22.4602 43.3219L22.4602 49.2375C22.4602 49.2375 22.4602 53.925 17.7727 53.925L7.49297 53.925C7.49297 53.925 2.80547 53.925 2.80547 49.2375L2.80547 43.3219C2.80547 43.3219 2.80547 38.6344 7.49297 38.6344" stroke="#66737C" stroke-width="3.33333" stroke-linejoin="round"/><path d="M12.6343 32.6044 12.6343 38.6353" stroke="#66737C" stroke-width="3.33333" stroke-linecap="round" stroke-linejoin="round"/><path d="M9.03626 45.417 9.03626 47.1497" stroke="#66737C" stroke-width="3.33333" stroke-linecap="round" stroke-linejoin="round"/><path d="M16.2323 45.417 16.2323 47.1497" stroke="#66737C" stroke-width="3.33333" stroke-linecap="round" stroke-linejoin="round"/></svg>