<svg width="60" height="60" viewBox="-1.875 -1.875 60 60" xmlns="http://www.w3.org/2000/svg" xmlns:xlink="http://www.w3.org/1999/xlink" id="Ai-Video-Robot--Streamline-Ultimate" fill="none" overflow="hidden"><path d="M49.1742 26.3775 49.1742 9.13697C49.1742 5.2537 46.0261 2.10571 42.143 2.10571L9.22622 2.10571C5.34298 2.10571 2.19498 5.25373 2.19498 9.13697L2.19498 35.1785C2.19498 39.0619 5.34298 42.2098 9.22622 42.2098L25.6845 42.2098" stroke="#66737C" stroke-width="3.33333" stroke-linecap="round" stroke-linejoin="round"/><path d="M21.6466 30.5482C21.3476 30.6968 21.0156 30.7666 20.6821 30.7509 20.3486 30.7355 20.0246 30.6352 19.7407 30.4594 19.4568 30.2836 19.2225 30.0382 19.06 29.7466 18.8974 29.4548 18.812 29.1265 18.8118 28.7927L18.8118 15.5286C18.812 15.1947 18.8974 14.8664 19.06 14.5747 19.2225 14.2831 19.4568 14.0378 19.7407 13.862 20.0246 13.6862 20.3486 13.5858 20.6821 13.5702 21.0156 13.5547 21.3476 13.6245 21.6466 13.7731L34.913 20.4075C35.2388 20.5701 35.5127 20.8203 35.7045 21.13 35.8959 21.4396 35.9974 21.7965 35.9974 22.1606 35.9974 22.5247 35.8959 22.8817 35.7045 23.1913 35.5127 23.501 35.2388 23.7511 34.913 23.9137L21.6466 30.5482Z" stroke="#66737C" stroke-width="3.33333" stroke-linecap="round" stroke-linejoin="round"/><path d="M39.0891 38.8547 49.3688 38.8547C49.3688 38.8547 54.0563 38.8547 54.0563 43.5422L54.0563 49.4578C54.0563 49.4578 54.0563 54.1453 49.3688 54.1453L39.0891 54.1453C39.0891 54.1453 34.4016 54.1453 34.4016 49.4578L34.4016 43.5422C34.4016 43.5422 34.4016 38.8547 39.0891 38.8547" stroke="#66737C" stroke-width="3.33333" stroke-linejoin="round"/><path d="M44.2291 32.8242 44.2291 38.8549" stroke="#66737C" stroke-width="3.33333" stroke-linecap="round" stroke-linejoin="round"/><path d="M40.631 45.6366 40.631 47.3693" stroke="#66737C" stroke-width="3.33333" stroke-linecap="round" stroke-linejoin="round"/><path d="M47.827 45.6366 47.827 47.3693" stroke="#66737C" stroke-width="3.33333" stroke-linecap="round" stroke-linejoin="round"/></svg>