<svg width="60" height="60" viewBox="-1.875 -1.875 60 60" xmlns="http://www.w3.org/2000/svg" xmlns:xlink="http://www.w3.org/1999/xlink" id="Air-Pollution-Co2-No--Streamline-Ultimate" overflow="hidden"><defs></defs><path d="M20.5172 18.5812C17.2351 18.5825 14.5747 21.2429 14.5734 24.525L14.5734 27.4969C14.5734 30.7795 17.2345 33.4406 20.5172 33.4406" stroke="#66737C" stroke-width="3.33333" stroke-linecap="round" stroke-linejoin="round" fill="none"/><path d="M29.5312 18.5812C27.6083 18.5825 26.0497 20.1411 26.0484 22.0641L26.0484 29.9578C26.0484 31.8813 27.6077 33.4406 29.5312 33.4406 31.4548 33.4406 33.0141 31.8813 33.0141 29.9578L33.0141 22.0641C33.0141 20.1406 31.4548 18.5812 29.5312 18.5812Z" stroke="#66737C" stroke-width="3.33333" stroke-linecap="round" stroke-linejoin="round" fill="none"/><path d="M38.7562 32.9367C38.7562 31.4805 39.9367 30.3 41.393 30.3L41.393 30.3C42.8492 30.3 44.0297 31.4805 44.0297 32.9367L44.0297 32.9367C44.029 33.789 43.738 34.6157 43.2047 35.2805L38.7516 40.8422 44.025 40.8422" stroke="#66737C" stroke-width="3.33333" stroke-linecap="round" stroke-linejoin="round" fill="none"/><path d="M2.34375 28.125C2.34375 42.3636 13.8864 53.9062 28.125 53.9062 42.3636 53.9062 53.9062 42.3636 53.9062 28.125 53.9062 13.8864 42.3636 2.34375 28.125 2.34375 13.8864 2.34375 2.34375 13.8864 2.34375 28.125" stroke="#66737C" stroke-width="3.33333" stroke-linecap="round" stroke-linejoin="round" fill="none"/><path d="M15.8203 40.4297 9.89531 46.3547" stroke="#66737C" stroke-width="3.33333" stroke-linecap="round" stroke-linejoin="round" fill="none"/><path d="M45.7031 10.5469 40.4297 15.8203" stroke="#66737C" stroke-width="3.33333" stroke-linecap="round" stroke-linejoin="round" fill="none"/></svg>