<svg width="60" height="60" viewBox="-1.875 -1.875 60 60" xmlns="http://www.w3.org/2000/svg" xmlns:xlink="http://www.w3.org/1999/xlink" id="Air-Pollution-Co2--Streamline-Ultimate" overflow="hidden"><defs></defs><path d="M27.9797 8.47266C29.8472 5.40818 33.1707 3.53174 36.7594 3.51562L36.9352 3.51562C40.6473 3.50015 44.0898 5.45239 45.982 8.64609 50.036 8.82982 53.249 12.1331 53.3203 16.1906L53.3203 16.2656C53.241 18.4746 52.2323 20.5472 50.543 21.9727" stroke="#66737C" stroke-width="3.33333" stroke-linecap="round" stroke-linejoin="round" fill="none"/><path d="M4.97813 37.6969C3.59172 36.2927 2.84995 34.3763 2.92969 32.4047 2.9397 31.8833 3.00252 31.3642 3.11719 30.8555 3.93131 27.2911 7.09229 24.7563 10.7484 24.7359L10.8281 24.7359C12.0666 18.5571 17.4757 14.0986 23.7773 14.0625L24.0117 14.0625C28.7713 14.0477 33.1831 16.5532 35.6086 20.6484 40.8082 20.8838 44.9298 25.1194 45.0234 30.3234L45.0234 30.4195C44.9532 32.2507 44.3861 34.0282 43.3828 35.5617" stroke="#66737C" stroke-width="3.33333" stroke-linecap="round" stroke-linejoin="round" fill="none"/><path d="M18.9844 30.4688C15.703 30.4675 13.0419 33.1265 13.0406 36.4078 13.0406 36.4094 13.0406 36.4109 13.0406 36.4125L13.0406 39.375C13.0354 42.6576 15.6924 45.3229 18.975 45.3281 18.9781 45.3281 18.9812 45.3281 18.9844 45.3281" stroke="#66737C" stroke-width="3.33333" stroke-linecap="round" stroke-linejoin="round" fill="none"/><path d="M29.0883 30.4688C27.0082 30.4636 25.3177 32.1456 25.3125 34.2258 25.3125 34.2281 25.3125 34.2305 25.3125 34.2328L25.3125 41.5617C25.2606 43.6412 26.9043 45.369 28.9838 45.4209 31.0633 45.4728 32.7911 43.8291 32.843 41.7496 32.8445 41.687 32.8445 41.6243 32.843 41.5617L32.843 34.2328C32.843 32.1576 31.1635 30.4739 29.0883 30.4687Z" stroke="#66737C" stroke-width="3.33333" stroke-linecap="round" stroke-linejoin="round" fill="none"/><path d="M40.65 44.8242C40.65 43.368 41.8305 42.1875 43.2867 42.1875L43.2867 42.1875C44.7429 42.1875 45.9234 43.368 45.9234 44.8242L45.9234 44.8242C45.922 45.676 45.632 46.5021 45.1008 47.168L40.6477 52.7297 45.9211 52.7297" stroke="#66737C" stroke-width="3.33333" stroke-linecap="round" stroke-linejoin="round" fill="none"/></svg>