<svg width="60" height="60" viewBox="-1.875 -1.875 60 60" xmlns="http://www.w3.org/2000/svg" xmlns:xlink="http://www.w3.org/1999/xlink" id="Aircraft-Hot-Air-Balloon-2--Streamline-Ultimate" overflow="hidden"><path d="M21.0938 43.9453 35.1562 43.9453 35.1562 43.9453 35.1562 52.1484C35.1562 53.4429 34.1069 54.4922 32.8125 54.4922L23.4375 54.4922C22.1431 54.4922 21.0938 53.4429 21.0938 52.1484L21.0938 43.9453 21.0938 43.9453Z" stroke="#66737C" stroke-width="3.57143" stroke-linecap="round" stroke-linejoin="round" fill="none"/><path d="M17.5781 43.9453 38.6719 43.9453" stroke="#66737C" stroke-width="3.57143" stroke-linecap="round" stroke-linejoin="round" fill="none"/><path d="M22.8516 43.9453 19.5586 35.4047" stroke="#66737C" stroke-width="3.57143" stroke-linecap="round" stroke-linejoin="round" fill="none"/><path d="M33.3984 43.9453 36.6914 35.4047" stroke="#66737C" stroke-width="3.57143" stroke-linecap="round" stroke-linejoin="round" fill="none"/><path d="M7.03125 19.3359C7.03125 29.0441 16.4752 36.9141 28.125 36.9141 39.7748 36.9141 49.2188 29.0441 49.2188 19.3359 49.2188 9.62781 39.7748 1.75781 28.125 1.75781 16.4752 1.75781 7.03125 9.62781 7.03125 19.3359Z" stroke="#66737C" stroke-width="3.57143" stroke-linecap="round" stroke-linejoin="round" fill="none"/><path d="M17.5781 19.3359C17.5781 29.0441 22.3001 36.9141 28.125 36.9141 33.9499 36.9141 38.6719 29.0441 38.6719 19.3359 38.6719 9.62781 33.9499 1.75781 28.125 1.75781 22.3001 1.75781 17.5781 9.62781 17.5781 19.3359Z" stroke="#66737C" stroke-width="3.57143" stroke-linecap="round" stroke-linejoin="round" fill="none"/></svg>