<svg width="60" height="60" viewBox="-2.14 -2.14 60 60" xmlns="http://www.w3.org/2000/svg" xmlns:xlink="http://www.w3.org/1999/xlink" id="Airport-Signal--Streamline-Ultimate.svg" overflow="hidden"><g><path d="M43.1598 53.6537 12.5602 53.6537C11.5986 53.645 10.8261 52.8583 10.8349 51.8967 10.8358 51.7929 10.846 51.6894 10.8654 51.5874L13.3728 41.3721C13.6942 39.7412 15.1234 38.5648 16.7857 38.5629L38.9343 38.5629C40.5966 38.5648 42.0258 39.7412 42.3472 41.3721L44.8546 51.5874C45.0341 52.5322 44.4138 53.4436 43.4691 53.6232 43.3671 53.6426 43.2636 53.6528 43.1598 53.6537Z" stroke="#66737C" stroke-width="3.57143" stroke-linecap="round" stroke-linejoin="round" fill="none"/><path d="M38.3075 38.5629 17.4125 38.5629 17.4125 31.0175C17.425 30.061 18.1973 29.2887 19.1537 29.2762L36.5662 29.2762C37.5227 29.2887 38.295 30.061 38.3075 31.0175Z" stroke="#66737C" stroke-width="3.57143" stroke-linecap="round" stroke-linejoin="round" fill="none"/><path d="M34.825 19.9895 20.895 19.9895C20.2936 20.0285 19.7745 19.5726 19.7356 18.9712 19.735 18.9624 19.7345 18.9536 19.7342 18.9448L19.7342 9.42597C19.7716 8.81948 20.2879 8.35475 20.895 8.38122L34.825 8.38122C35.4321 8.35475 35.9484 8.81948 35.9858 9.42597L35.9858 18.9448C35.9614 19.5469 35.4535 20.0153 34.8514 19.9909 34.8426 19.9906 34.8338 19.9901 34.825 19.9895Z" stroke="#66737C" stroke-width="3.57143" stroke-linecap="round" stroke-linejoin="round" fill="none"/><path d="M27.86 18.8287 27.86 29.2762" stroke="#66737C" stroke-width="3.57143" stroke-linecap="round" stroke-linejoin="round" fill="none"/><g><path d="M43.3455 21.0111C45.8304 16.3945 45.8304 10.8386 43.3455 6.22207" stroke="#66737C" stroke-width="3.57143" stroke-linecap="round" stroke-linejoin="round" fill="none"/><path d="M12.3745 6.22207C9.88961 10.8386 9.88961 16.3945 12.3745 21.0111" stroke="#66737C" stroke-width="3.57143" stroke-linecap="round" stroke-linejoin="round" fill="none"/></g><g><path d="M4.64333 2.06628C0.725794 9.30939 0.725794 18.0398 4.64333 25.2829" stroke="#66737C" stroke-width="3.57143" stroke-linecap="round" stroke-linejoin="round" fill="none"/><path d="M51.0767 25.1669C54.9525 17.9544 54.9525 9.27876 51.0767 2.06628" stroke="#66737C" stroke-width="3.57143" stroke-linecap="round" stroke-linejoin="round" fill="none"/></g><path d="M27.86 8.38122 27.86 18.8287" stroke="#66737C" stroke-width="3.57143" stroke-linecap="round" stroke-linejoin="round" fill="none"/><path d="M27.86 47.2691 27.86 53.6537" stroke="#66737C" stroke-width="3.57143" stroke-linecap="round" stroke-linejoin="round" fill="none"/></g></svg>