<svg width="60" height="60" viewBox="-2.14 -2.14 60 60" xmlns="http://www.w3.org/2000/svg" xmlns:xlink="http://www.w3.org/1999/xlink" id="Airport--Streamline-Ultimate.svg" overflow="hidden"><path d="M43.1482 12.1888 12.5718 12.1888C11.6089 12.1888 10.8283 12.9695 10.8284 13.9325 10.8284 14.0486 10.84 14.1644 10.8631 14.2782L13.3705 26.8153C13.7017 28.4378 15.1297 29.6027 16.7857 29.6012L20.895 29.6012 16.1217 51.8707C15.9203 52.8123 16.5205 53.7389 17.4622 53.9402 17.5817 53.9658 17.7036 53.9787 17.8258 53.9787L37.8942 53.9787C38.8572 53.9782 39.6374 53.1972 39.6369 52.2342 39.6368 52.112 39.6239 51.9902 39.5984 51.8707L34.825 29.6012 38.9343 29.6012C40.5946 29.6014 42.0241 28.4294 42.3495 26.8013L44.8569 14.2643C45.0403 13.319 44.4226 12.404 43.4773 12.2206 43.3688 12.1996 43.2586 12.1889 43.1482 12.1888Z" stroke="#66737C" stroke-width="3.57143" stroke-linecap="round" stroke-linejoin="round" fill="none"/><path d="M27.86 12.1888 27.86 1.74125" stroke="#66737C" stroke-width="3.57143" stroke-linecap="round" stroke-linejoin="round" fill="none"/><path d="M38.3075 12.1888 38.3075 5.22375" stroke="#66737C" stroke-width="3.57143" stroke-linecap="round" stroke-linejoin="round" fill="none"/><path d="M17.4125 12.1888 17.4125 5.22375" stroke="#66737C" stroke-width="3.57143" stroke-linecap="round" stroke-linejoin="round" fill="none"/><path d="M11.8405 19.1537 43.8725 19.1537" stroke="#66737C" stroke-width="3.57143" stroke-linecap="round" stroke-linejoin="round" fill="none"/><path d="M20.895 29.6012 34.825 29.6012" stroke="#66737C" stroke-width="3.57143" stroke-linecap="round" stroke-linejoin="round" fill="none"/><path d="M20.895 19.1537 20.895 29.6012" stroke="#66737C" stroke-width="3.57143" stroke-linecap="round" stroke-linejoin="round" fill="none"/><path d="M34.825 19.1537 34.825 29.6012" stroke="#66737C" stroke-width="3.57143" stroke-linecap="round" stroke-linejoin="round" fill="none"/></svg>