<svg width="60" height="60" viewBox="-2.14 -2.14 60 60" xmlns="http://www.w3.org/2000/svg" xmlns:xlink="http://www.w3.org/1999/xlink" id="Alert-Triangle--Streamline-Ultimate.svg" fill="none" overflow="hidden"><path d="M27.86 45.2725C27.3792 45.2725 26.9894 44.8827 26.9894 44.4019 26.9894 43.9211 27.3792 43.5312 27.86 43.5312" stroke="#66737C" stroke-width="3.57143"/><path d="M27.86 45.2725C28.3408 45.2725 28.7306 44.8827 28.7306 44.4019 28.7306 43.9211 28.3408 43.5312 27.86 43.5312" stroke="#66737C" stroke-width="3.57143"/><path d="M27.86 36.5662 27.86 19.1537" stroke="#66737C" stroke-width="3.57143" stroke-linecap="round" stroke-miterlimit="10"/><path d="M31.6234 4.08616C31.278 3.38271 30.7421 2.7902 30.077 2.37583 29.4118 1.96146 28.6438 1.74182 27.86 1.74182 27.0762 1.74182 26.3082 1.96146 25.643 2.37583 24.9779 2.7902 24.442 3.38271 24.0966 4.08616L2.10345 48.8897C1.83871 49.4283 1.71559 50.0254 1.7457 50.6246 1.77581 51.2241 1.95817 51.8059 2.27555 52.315 2.59293 52.8244 3.03488 53.2444 3.55967 53.5355 4.08444 53.8267 4.67475 53.9792 5.27485 53.9787L50.4452 53.9787C51.0453 53.9792 51.6355 53.8267 52.1604 53.5355 52.6851 53.2444 53.1272 52.8244 53.4445 52.315 53.7619 51.8059 53.9442 51.2241 53.9743 50.6246 54.0045 50.0254 53.8812 49.4283 53.6166 48.8897L31.6234 4.08616Z" stroke="#66737C" stroke-width="3.57143" stroke-linecap="round" stroke-linejoin="round"/></svg>