<svg width="60" height="60" viewBox="-2.14 -2.14 60 60" xmlns="http://www.w3.org/2000/svg" xmlns:xlink="http://www.w3.org/1999/xlink" id="Amazon-Web-Service-Managed-Service-2--Streamline-Ultimate.svg" fill="none" overflow="hidden"><path d="M27.86 29.4859C27.6035 29.4859 27.3957 29.2778 27.3957 29.0215 27.3957 28.765 27.6035 28.5572 27.86 28.5572" stroke="#66737C" stroke-width="3.57143" stroke-linecap="round" stroke-linejoin="round" stroke-miterlimit="10"/><path d="M27.86 29.4859C28.1163 29.4859 28.3243 29.2778 28.3243 29.0215 28.3243 28.765 28.1163 28.5572 27.86 28.5572" stroke="#66737C" stroke-width="3.57143" stroke-linecap="round" stroke-linejoin="round" stroke-miterlimit="10"/><path d="M30.5299 16.9479 31.4586 19.9661C31.6908 21.1269 32.8516 21.5913 34.0124 21.3591L37.0306 20.6626C39.8166 19.9661 41.6739 23.2164 39.8166 25.3059L37.7271 27.6276C37.0306 28.5563 37.0306 29.7171 37.7271 30.4136L39.8166 32.7353C41.6739 34.8248 39.8166 38.0751 37.0306 37.3786L34.0124 36.6821C32.8516 36.4499 31.9229 37.1464 31.4586 38.0751L30.5299 41.0933C29.6012 43.8793 25.8866 43.8793 25.1901 41.0933L24.2614 38.0751C24.0292 36.9143 22.8684 36.4499 21.7075 36.6821L18.6894 37.3786C15.9034 38.0751 14.046 34.8248 15.9034 32.7353L17.9929 30.4136C18.6894 29.4849 18.6894 28.3241 17.9929 27.6276L15.9034 25.3059C14.046 23.2164 15.9034 19.9661 18.6894 20.6626L21.7075 21.3591C22.8684 21.5913 23.7971 20.8948 24.2614 19.9661L25.1901 16.9479C25.8866 14.1619 29.6012 14.1619 30.5299 16.9479Z" stroke="#66737C" stroke-width="3.57143" stroke-linecap="round" stroke-linejoin="round" stroke-miterlimit="10"/><path d="M9.41624 47.0135C-0.817078 37.0303-0.817078 20.7788 9.41624 10.7956 17.2697 3.13411 28.693 1.27677 38.2123 5.45578" stroke="#66737C" stroke-width="3.57143" stroke-linecap="round" stroke-linejoin="round" stroke-miterlimit="10"/><path d="M53.2054 11.4923 46.3038 11.0279 45.8278 17.5286" stroke="#66737C" stroke-width="3.57143" stroke-linecap="round" stroke-linejoin="round" stroke-miterlimit="10"/><path d="M2.75245 46.3177 9.41601 47.0142 10.13 40.5135" stroke="#66737C" stroke-width="3.57143" stroke-linecap="round" stroke-linejoin="round" stroke-miterlimit="10"/><path d="M46.3038 11.0279C56.5372 21.0111 56.5372 37.2627 46.3038 47.2459 38.4503 54.9074 27.027 56.7648 17.5077 52.5858" stroke="#66737C" stroke-width="3.57143" stroke-linecap="round" stroke-linejoin="round" stroke-miterlimit="10"/></svg>