<svg width="60" height="60" viewBox="-1.875 -1.875 60 60" xmlns="http://www.w3.org/2000/svg" xmlns:xlink="http://www.w3.org/1999/xlink" id="Amazon-Simple-Email-Service--Streamline-Ultimate" fill="none" overflow="hidden"><path d="M28.125 54.4927C30.7139 54.4927 32.8125 52.3941 32.8125 49.8052 32.8125 47.2165 30.7139 45.1177 28.125 45.1177 25.5361 45.1177 23.4375 47.2165 23.4375 49.8052 23.4375 52.3941 25.5361 54.4927 28.125 54.4927Z" stroke="#66737C" stroke-width="3.33333" stroke-linecap="round" stroke-linejoin="round" stroke-miterlimit="10"/><path d="M48.6328 54.4927C51.2217 54.4927 53.3203 52.3941 53.3203 49.8052 53.3203 47.2165 51.2217 45.1177 48.6328 45.1177 46.0439 45.1177 43.9453 47.2165 43.9453 49.8052 43.9453 52.3941 46.0439 54.4927 48.6328 54.4927Z" stroke="#66737C" stroke-width="3.33333" stroke-linecap="round" stroke-linejoin="round" stroke-miterlimit="10"/><path d="M7.61719 54.4927C10.206 54.4927 12.3047 52.3941 12.3047 49.8052 12.3047 47.2165 10.206 45.1177 7.61719 45.1177 5.02835 45.1177 2.92969 47.2165 2.92969 49.8052 2.92969 52.3941 5.02835 54.4927 7.61719 54.4927Z" stroke="#66737C" stroke-width="3.33333" stroke-linecap="round" stroke-linejoin="round" stroke-miterlimit="10"/><path d="M28.125 29.8828 28.125 45.1177" stroke="#66737C" stroke-width="3.33333" stroke-linecap="round" stroke-linejoin="round" stroke-miterlimit="10"/><path d="M7.61719 45.1177 7.61719 43.3495C7.61719 40.7123 9.72656 38.5547 12.3047 38.5547L43.9453 38.5547C46.5234 38.5547 48.6328 40.7123 48.6328 43.3495L48.6328 45.1177" stroke="#66737C" stroke-width="3.33333" stroke-linecap="round" stroke-linejoin="round" stroke-miterlimit="10"/><path d="M47.9299 25.1953C47.9299 27.7734 45.8205 29.8828 43.2424 29.8828L12.7736 29.8828C10.1955 29.8828 8.0861 27.7734 8.0861 25.1953L8.0861 6.44531C8.0861 3.86719 10.1955 1.75781 12.7736 1.75781L43.2424 1.75781C45.8205 1.75781 47.9299 3.86719 47.9299 6.44531L47.9299 25.1953Z" stroke="#66737C" stroke-width="3.33333" stroke-linecap="round" stroke-linejoin="round" stroke-miterlimit="10"/><path d="M8.0861 6.44531 28.008 18.1641" stroke="#66737C" stroke-width="3.33333" stroke-linecap="round" stroke-linejoin="round" stroke-miterlimit="10"/><path d="M47.9299 6.44531 28.008 18.1641" stroke="#66737C" stroke-width="3.33333" stroke-linecap="round" stroke-linejoin="round" stroke-miterlimit="10"/></svg>