<svg width="60" height="60" viewBox="-1.875 -1.875 60 60" xmlns="http://www.w3.org/2000/svg" xmlns:xlink="http://www.w3.org/1999/xlink" id="Amazon-Web-Service-Internet-Of-Thing-Event--Streamline-Ultimate" fill="none" overflow="hidden"><path d="M6.44545 32.8125C9.03429 32.8125 11.133 30.7139 11.133 28.125 11.133 25.5361 9.03429 23.4375 6.44545 23.4375 3.85662 23.4375 1.75796 25.5361 1.75796 28.125 1.75796 30.7139 3.85662 32.8125 6.44545 32.8125Z" stroke="#66737C" stroke-width="3.33333" stroke-linecap="round" stroke-linejoin="round"/><path d="M19.5704 15.2344C22.1592 15.2344 24.2578 13.1357 24.2578 10.5469 24.2578 7.95804 22.1592 5.85938 19.5704 5.85938 16.9816 5.85938 14.8829 7.95804 14.8829 10.5469 14.8829 13.1357 16.9816 15.2344 19.5704 15.2344Z" stroke="#66737C" stroke-width="3.33333" stroke-linecap="round" stroke-linejoin="round"/><path d="M19.5704 50.3906C22.1592 50.3906 24.2578 48.292 24.2578 45.7031 24.2578 43.1142 22.1592 41.0156 19.5704 41.0156 16.9816 41.0156 14.8829 43.1142 14.8829 45.7031 14.8829 48.292 16.9816 50.3906 19.5704 50.3906Z" stroke="#66737C" stroke-width="3.33333" stroke-linecap="round" stroke-linejoin="round"/><path d="M48.867 39.6094C46.5232 41.25 43.7107 42.1875 40.6638 42.1875 36.2107 42.1875 32.4607 40.3125 29.8826 37.0312" stroke="#66737C" stroke-width="3.33333" stroke-linecap="round" stroke-linejoin="round"/><path d="M53.3201 22.5002C54.0232 24.1409 54.492 26.2502 54.492 28.1252" stroke="#66737C" stroke-width="3.33333" stroke-linecap="round" stroke-linejoin="round"/><path d="M29.8826 18.9844C32.4607 15.9375 36.2107 14.0625 40.4295 14.0625 43.242 14.0625 45.8201 14.7656 47.9295 16.1719" stroke="#66737C" stroke-width="3.33333" stroke-linecap="round" stroke-linejoin="round"/><path d="M40.6641 35.1562C36.6797 35.1562 33.6328 32.1094 33.6328 28.125 33.6328 24.1406 36.6797 21.0938 40.6641 21.0938 44.6484 21.0938 47.6953 24.1406 47.6953 28.125L54.3544 28.125" stroke="#66737C" stroke-width="3.33333" stroke-linecap="round" stroke-linejoin="round"/><path d="M33.6328 28.125 11.133 28.125" stroke="#66737C" stroke-width="3.33333" stroke-linecap="round" stroke-linejoin="round"/><path d="M23.086 13.5939 29.8826 18.9846" stroke="#66737C" stroke-width="3.33333" stroke-linecap="round" stroke-linejoin="round"/><path d="M23.086 42.656 29.8826 37.0312" stroke="#66737C" stroke-width="3.33333" stroke-linecap="round" stroke-linejoin="round"/><path d="M53.3201 33.9846C54.0232 32.344 54.492 30.2346 54.492 28.3596" stroke="#66737C" stroke-width="3.33333" stroke-linecap="round" stroke-linejoin="round"/><path d="M40.6641 28.5938C40.4051 28.5938 40.1953 28.384 40.1953 28.125 40.1953 27.8662 40.4051 27.6562 40.6641 27.6562" stroke="#66737C" stroke-width="3.33333" stroke-linecap="round" stroke-linejoin="round"/><path d="M40.6638 28.5938C40.9228 28.5938 41.1326 28.384 41.1326 28.125 41.1326 27.8662 40.9228 27.6562 40.6638 27.6562" stroke="#66737C" stroke-width="3.33333" stroke-linecap="round" stroke-linejoin="round"/></svg>