<svg width="60" height="60" viewBox="-1.875 -1.875 60 60" xmlns="http://www.w3.org/2000/svg" xmlns:xlink="http://www.w3.org/1999/xlink" id="Amazon-Cognito--Streamline-Ultimate" fill="none" overflow="hidden"><path d="M19.1017 20.9766C22.4672 20.9766 25.1953 18.2483 25.1953 14.8828 25.1953 11.5174 22.4672 8.78906 19.1017 8.78906 15.7362 8.78906 13.0079 11.5174 13.0079 14.8828 13.0079 18.2483 15.7362 20.9766 19.1017 20.9766Z" stroke="#66737C" stroke-width="3.33333" stroke-linecap="round" stroke-linejoin="round" stroke-miterlimit="10"/><path d="M8.55473 33.3984C8.55473 27.5391 13.2422 22.8516 19.1016 22.8516 24.9609 22.8516 29.6484 27.5391 29.6484 33.3984L8.55473 33.3984Z" stroke="#66737C" stroke-width="3.33333" stroke-linecap="round" stroke-linejoin="round" stroke-miterlimit="10"/><path d="M33.3984 15.8203 43.7109 15.8203" stroke="#66737C" stroke-width="3.33333" stroke-linecap="round" stroke-linejoin="round" stroke-miterlimit="10"/><path d="M33.3984 22.8516 47.4609 22.8516" stroke="#66737C" stroke-width="3.33333" stroke-linecap="round" stroke-linejoin="round" stroke-miterlimit="10"/><path d="M54.4922 25.1953 54.4922 5.27344C54.4922 3.39844 52.8516 1.75781 50.9766 1.75781L5.27344 1.75781C3.39844 1.75781 1.75781 3.39844 1.75781 5.27344L1.75781 40.4297C1.75781 42.3047 3.39844 43.9453 5.27344 43.9453L25.1953 43.9453" stroke="#66737C" stroke-width="3.33333" stroke-linecap="round" stroke-linejoin="round" stroke-miterlimit="10"/><path d="M43.9453 54.4922C49.7702 54.4922 54.4922 49.7702 54.4922 43.9453 54.4922 38.1204 49.7702 33.3984 43.9453 33.3984 38.1204 33.3984 33.3984 38.1204 33.3984 43.9453 33.3984 49.7702 38.1204 54.4922 43.9453 54.4922Z" stroke="#66737C" stroke-width="3.33333" stroke-linecap="round" stroke-linejoin="round" stroke-miterlimit="10"/><path d="M47.4609 41.6016 43.7109 46.5234C43.4766 46.7578 43.2422 46.9922 43.0078 46.9922 42.7734 46.9922 42.5391 46.9922 42.3047 46.7578L40.4297 44.8828" stroke="#66737C" stroke-width="3.33333" stroke-linecap="round" stroke-linejoin="round" stroke-miterlimit="10"/></svg>