<svg width="60" height="60" viewBox="-2.14 -2.14 60 60" xmlns="http://www.w3.org/2000/svg" xmlns:xlink="http://www.w3.org/1999/xlink" id="Amazon-Web-Service-Cost-And-Usage-Report--Streamline-Ultimate.svg" fill="none" overflow="hidden"><path d="M40.745 18.6894C38.8877 18.6894 37.4947 17.2964 37.4947 15.4391 37.4947 13.5817 38.8877 12.1888 40.745 12.1888 41.6737 12.1888 42.3702 12.6531 43.0667 13.1174" stroke="#66737C" stroke-width="3.57143" stroke-linecap="round" stroke-linejoin="round" stroke-miterlimit="10"/><path d="M40.7453 18.689C42.6026 18.689 43.9956 20.082 43.9956 21.9393 43.9956 23.7966 42.6026 25.1896 40.7453 25.1896 39.5844 25.1896 38.6558 24.7253 38.1914 23.7966" stroke="#66737C" stroke-width="3.57143" stroke-linecap="round" stroke-linejoin="round" stroke-miterlimit="10"/><path d="M40.745 9.86708 40.745 12.1888" stroke="#66737C" stroke-width="3.57143" stroke-linecap="round" stroke-linejoin="round" stroke-miterlimit="10"/><path d="M40.745 25.4227 40.745 27.7444" stroke="#66737C" stroke-width="3.57143" stroke-linecap="round" stroke-linejoin="round" stroke-miterlimit="10"/><path d="M13.3496 35.8698 13.3496 4.06292C13.3496 2.66992 14.2782 1.74125 15.6713 1.74125L44.9243 1.74125C45.6208 1.74125 46.0851 1.97342 46.5494 2.43775L53.2822 9.17058C53.7466 9.63492 53.9787 10.0992 53.9787 10.7957L53.9787 51.6571C53.9787 53.0501 53.0501 53.9787 51.6571 53.9787L15.6713 53.9787C14.2782 53.9787 13.3496 53.0501 13.3496 51.6571" stroke="#66737C" stroke-width="3.57143" stroke-linecap="round" stroke-linejoin="round" stroke-miterlimit="10"/><path d="M8.70611 43.996 31.9227 43.996" stroke="#66737C" stroke-width="3.57143" stroke-linecap="round" stroke-linejoin="round" stroke-miterlimit="10"/><path d="M23.3325 34.7094 44.2275 34.7094" stroke="#66737C" stroke-width="3.57143" stroke-linecap="round" stroke-linejoin="round" stroke-miterlimit="10"/><path d="M23.3325 25.4227 30.2975 25.4227" stroke="#66737C" stroke-width="3.57143" stroke-linecap="round" stroke-linejoin="round" stroke-miterlimit="10"/><path d="M23.3325 16.136 30.2975 16.136" stroke="#66737C" stroke-width="3.57143" stroke-linecap="round" stroke-linejoin="round" stroke-miterlimit="10"/><path d="M5.22361 47.4785C7.14695 47.4785 8.70611 45.9193 8.70611 43.996 8.70611 42.0728 7.14695 40.5135 5.22361 40.5135 3.30027 40.5135 1.74111 42.0728 1.74111 43.996 1.74111 45.9193 3.30027 47.4785 5.22361 47.4785Z" stroke="#66737C" stroke-width="3.57143" stroke-linecap="round" stroke-linejoin="round" stroke-miterlimit="10"/></svg>