<svg width="60" height="60" viewBox="-1.875 -1.875 60 60" xmlns="http://www.w3.org/2000/svg" xmlns:xlink="http://www.w3.org/1999/xlink" id="Amazon-Web-Service-Security-Hub-Shield--Streamline-Ultimate" fill="none" overflow="hidden"><path d="M15.2344 18.8099 15.2344 28.8881C15.2344 35.4506 19.2187 41.31 25.3125 43.6538L26.7188 44.1225C27.6562 44.5913 28.5938 44.5913 29.5312 44.1225L30.9375 43.6538C37.0312 41.31 41.0156 35.4506 41.0156 28.8881L41.0156 18.8099C41.0156 18.1068 40.5469 17.4037 39.8438 16.935 37.9688 15.9975 33.75 14.5912 28.125 14.5912 22.5 14.5912 18.2812 16.2319 16.4062 16.935 15.4688 17.4037 15.2344 18.1068 15.2344 18.8099Z" stroke="#66737C" stroke-width="3.33333" stroke-linecap="round" stroke-linejoin="round" stroke-miterlimit="10"/><path d="M28.125 14.5912 28.125 44.4741" stroke="#66737C" stroke-width="3.33333" stroke-linecap="round" stroke-linejoin="round" stroke-miterlimit="10"/><path d="M13.4767 11.3672 7.38293 14.6484 1.75796 11.3672 1.75796 5.03904 7.38293 1.75781 13.4767 5.03904 13.4767 11.3672Z" stroke="#66737C" stroke-width="3.33333" stroke-linecap="round" stroke-linejoin="round" stroke-miterlimit="10"/><path d="M13.4767 51.2109 7.38293 54.4922 1.75796 51.2109 1.75796 44.8828 7.38293 41.6016 13.4767 44.8828 13.4767 51.2109Z" stroke="#66737C" stroke-width="3.33333" stroke-linecap="round" stroke-linejoin="round" stroke-miterlimit="10"/><path d="M54.492 51.2109 48.867 54.4922 42.7732 51.2109 42.7732 44.8828 48.867 41.6016 54.492 44.8828 54.492 51.2109Z" stroke="#66737C" stroke-width="3.33333" stroke-linecap="round" stroke-linejoin="round" stroke-miterlimit="10"/><path d="M54.492 11.3672 48.867 14.6484 42.7732 11.3672 42.7732 5.03904 48.867 1.75781 54.492 5.03904 54.492 11.3672Z" stroke="#66737C" stroke-width="3.33333" stroke-linecap="round" stroke-linejoin="round" stroke-miterlimit="10"/><path d="M13.4767 45.4184 19.6709 39.9033" stroke="#66737C" stroke-width="3.33333" stroke-linecap="round" stroke-linejoin="round" stroke-miterlimit="10"/><path d="M15.2344 20.2678 9.00708 13.781" stroke="#66737C" stroke-width="3.33333" stroke-linecap="round" stroke-linejoin="round" stroke-miterlimit="10"/><path d="M42.7732 45.427 36.5555 39.941" stroke="#66737C" stroke-width="3.33333" stroke-linecap="round" stroke-linejoin="round" stroke-miterlimit="10"/><path d="M41.0009 20.2677 47.2357 13.773" stroke="#66737C" stroke-width="3.33333" stroke-linecap="round" stroke-linejoin="round" stroke-miterlimit="10"/></svg>