<svg width="60" height="60" viewBox="-2.14 -2.14 60 60" xmlns="http://www.w3.org/2000/svg" xmlns:xlink="http://www.w3.org/1999/xlink" id="Analytics-Graph--Streamline-Ultimate.svg" overflow="hidden"><path d="M1.74125 1.74125 1.74125 53.9787 53.9787 53.9787" stroke="#66737C" stroke-width="3.57143" stroke-linecap="round" stroke-linejoin="round" fill="none"/><path d="M37.0004 19.9153 47.4316 6.87678" stroke="#66737C" stroke-width="3.57143" stroke-linecap="round" stroke-linejoin="round" fill="none"/><path d="M22.3368 17.0851 31.642 21.22" stroke="#66737C" stroke-width="3.57143" stroke-linecap="round" stroke-linejoin="round" fill="none"/><path d="M1.74125 26.1187 16.1681 17.4636" stroke="#66737C" stroke-width="3.57143" stroke-linecap="round" stroke-linejoin="round" fill="none"/><path d="M36.1275 38.3563 47.1322 32.2433" stroke="#66737C" stroke-width="3.57143" stroke-linecap="round" stroke-linejoin="round" fill="none"/><path d="M19.1537 40.0488 29.6012 40.0488" stroke="#66737C" stroke-width="3.57143" stroke-linecap="round" stroke-linejoin="round" fill="none"/><path d="M1.74125 47.0137 12.5556 41.6066" stroke="#66737C" stroke-width="3.57143" stroke-linecap="round" stroke-linejoin="round" fill="none"/><path d="M15.6713 15.6713C15.6713 17.5946 17.2304 19.1537 19.1537 19.1537 21.0771 19.1537 22.6362 17.5946 22.6362 15.6712 22.6362 13.7479 21.0771 12.1887 19.1537 12.1887 17.2304 12.1887 15.6712 13.7479 15.6712 15.6712Z" stroke="#66737C" stroke-width="3.57143" stroke-linecap="round" stroke-linejoin="round" fill="none"/><path d="M31.3425 22.6362C31.3425 24.5596 32.9017 26.1187 34.825 26.1187 36.7483 26.1187 38.3075 24.5596 38.3075 22.6362 38.3075 20.7129 36.7483 19.1537 34.825 19.1537 32.9017 19.1537 31.3425 20.7129 31.3425 22.6362Z" stroke="#66737C" stroke-width="3.57143" stroke-linecap="round" stroke-linejoin="round" fill="none"/><path d="M47.0137 5.22375C47.0137 7.14708 48.5729 8.70625 50.4962 8.70625 52.4196 8.70625 53.9787 7.14708 53.9787 5.22375 53.9787 3.30042 52.4196 1.74125 50.4962 1.74125 48.5729 1.74125 47.0137 3.30042 47.0137 5.22375Z" stroke="#66737C" stroke-width="3.57143" stroke-linecap="round" stroke-linejoin="round" fill="none"/><path d="M47.0137 31.3425C47.0137 33.2658 48.5729 34.825 50.4962 34.825 52.4196 34.825 53.9787 33.2658 53.9787 31.3425 53.9787 29.4192 52.4196 27.86 50.4962 27.86 48.5729 27.86 47.0137 29.4192 47.0137 31.3425Z" stroke="#66737C" stroke-width="3.57143" stroke-linecap="round" stroke-linejoin="round" fill="none"/><path d="M29.6012 40.0488C29.6012 41.9721 31.1604 43.5312 33.0837 43.5313 35.0071 43.5313 36.5662 41.9721 36.5662 40.0488 36.5662 38.1254 35.0071 36.5663 33.0838 36.5663 31.1604 36.5663 29.6013 38.1254 29.6013 40.0488Z" stroke="#66737C" stroke-width="3.57143" stroke-linecap="round" stroke-linejoin="round" fill="none"/><path d="M12.1888 40.0488C12.1888 41.9721 13.7479 43.5312 15.6713 43.5312 17.5946 43.5312 19.1537 41.9721 19.1537 40.0488 19.1537 38.1254 17.5946 36.5663 15.6712 36.5663 13.7479 36.5663 12.1887 38.1254 12.1887 40.0488Z" stroke="#66737C" stroke-width="3.57143" stroke-linecap="round" stroke-linejoin="round" fill="none"/></svg>