<svg width="60" height="60" viewBox="-1.875 -1.875 60 60" xmlns="http://www.w3.org/2000/svg" xmlns:xlink="http://www.w3.org/1999/xlink" id="Analytics-Graph-Line--Streamline-Ultimate" overflow="hidden"><path d="M1.75781 28.125C1.75781 42.6872 13.5628 54.4922 28.125 54.4922 42.6872 54.4922 54.4922 42.6872 54.4922 28.125 54.4922 13.5628 42.6872 1.75781 28.125 1.75781 13.5628 1.75781 1.75781 13.5628 1.75781 28.125Z" stroke="#66737C" stroke-width="3.33333" stroke-linecap="round" stroke-linejoin="round" fill="none"/><path d="M40.4297 40.4297 15.8203 40.4297 15.8203 17.5781" stroke="#66737C" stroke-width="3.33333" stroke-linecap="round" stroke-linejoin="round" fill="none"/><path d="M15.8203 31.6406 22.8516 26.5148C23.2571 26.2457 23.804 26.3563 24.0731 26.7618 24.102 26.8053 24.1269 26.8513 24.1477 26.8992L30.0797 32.8641C30.2706 33.3103 30.7872 33.5174 31.2334 33.3264 31.403 33.2539 31.5455 33.1299 31.6406 32.9719L35.1562 25.9688C35.2755 25.7678 35.4707 25.6234 35.6977 25.568L40.6195 24.6094" stroke="#66737C" stroke-width="3.33333" stroke-linecap="round" stroke-linejoin="round" fill="none"/></svg>