<svg width="60" height="60" viewBox="-1.875 -1.875 60 60" xmlns="http://www.w3.org/2000/svg" xmlns:xlink="http://www.w3.org/1999/xlink" id="Ankle-Tracker--Streamline-Ultimate" overflow="hidden"><path d="M28.125 31.6406 28.125 38.6719" stroke="#66737C" stroke-width="3.33333" stroke-linecap="round" stroke-linejoin="round" fill="none"/><path d="M28.125 1.75781 28.125 10.5469" stroke="#66737C" stroke-width="3.33333" stroke-linecap="round" stroke-linejoin="round" fill="none"/><path d="M28.125 38.6719 40.8141 47.1328C42.7729 48.4386 43.9483 50.638 43.9453 52.9922L43.9453 54.5016" stroke="#66737C" stroke-width="3.33333" stroke-linecap="round" stroke-linejoin="round" fill="none"/><path d="M28.125 38.6719 15.4359 47.1328C13.4771 48.4386 12.3017 50.638 12.3047 52.9922L12.3047 54.5016" stroke="#66737C" stroke-width="3.33333" stroke-linecap="round" stroke-linejoin="round" fill="none"/><path d="M28.125 38.6719 28.125 54.4922" stroke="#66737C" stroke-width="3.33333" stroke-linecap="round" stroke-linejoin="round" fill="none"/><path d="M46.493 18.0469C47.7861 19.8723 47.7861 22.3152 46.493 24.1406" stroke="#66737C" stroke-width="3.33333" stroke-linecap="round" stroke-linejoin="round" fill="none"/><path d="M49.2188 10.9945C54.7964 14.879 56.169 22.5495 52.2846 28.1272 51.4521 29.3225 50.4141 30.3605 49.2188 31.193" stroke="#66737C" stroke-width="3.33333" stroke-linecap="round" stroke-linejoin="round" fill="none"/><path d="M9.75703 18.0469C8.46394 19.8723 8.46394 22.3152 9.75703 24.1406" stroke="#66737C" stroke-width="3.33333" stroke-linecap="round" stroke-linejoin="round" fill="none"/><path d="M7.03125 10.9945C1.45361 14.879 0.0809943 22.5495 3.96544 28.1272 4.79789 29.3225 5.83593 30.3605 7.03125 31.193" stroke="#66737C" stroke-width="3.33333" stroke-linecap="round" stroke-linejoin="round" fill="none"/><path d="M24.6094 21.0938C24.6094 23.0354 26.1834 24.6094 28.125 24.6094 30.0666 24.6094 31.6406 23.0354 31.6406 21.0938 31.6406 19.1521 30.0666 17.5781 28.125 17.5781 26.1834 17.5781 24.6094 19.1521 24.6094 21.0938Z" stroke="#66737C" stroke-width="3.33333" stroke-linecap="round" stroke-linejoin="round" fill="none"/><path d="M17.5781 10.5469 38.6719 10.5469 38.6719 31.6406 17.5781 31.6406Z" stroke="#66737C" stroke-width="3.33333" stroke-linecap="round" stroke-linejoin="round" fill="none"/></svg>