<svg width="60" height="60" viewBox="-1.875 -1.875 60 60" xmlns="http://www.w3.org/2000/svg" xmlns:xlink="http://www.w3.org/1999/xlink" id="Antenna-2--Streamline-Ultimate" overflow="hidden"><path d="M31.6406 41.7164 31.6406 54.4922" stroke="#66737C" stroke-width="3.33333" stroke-linecap="round" stroke-linejoin="round" fill="none"/><path d="M24.6094 54.4922 24.6094 41.7164" stroke="#66737C" stroke-width="3.33333" stroke-linecap="round" stroke-linejoin="round" fill="none"/><path d="M22.8516 26.3672 33.3984 26.3672 33.3984 42.1875 22.8516 42.1875Z" stroke="#66737C" stroke-width="3.33333" stroke-linecap="round" stroke-linejoin="round" fill="none"/><path d="M28.125 26.3672 28.125 17.5781" stroke="#66737C" stroke-width="3.33333" stroke-linecap="round" stroke-linejoin="round" fill="none"/><path d="M22.8516 33.3984 13.9734 34.8094" stroke="#66737C" stroke-width="3.33333" stroke-linecap="round" stroke-linejoin="round" fill="none"/><path d="M21.0938 15.8203C21.0938 11.9371 24.2417 8.78906 28.125 8.78906 32.0083 8.78906 35.1562 11.9371 35.1562 15.8203" stroke="#66737C" stroke-width="3.33333" stroke-linecap="round" stroke-linejoin="round" fill="none"/><path d="M14.0625 13.2234C14.0625 6.89062 20.3578 1.75781 28.125 1.75781 35.8922 1.75781 42.1875 6.89062 42.1875 13.2234" stroke="#66737C" stroke-width="3.33333" stroke-linecap="round" stroke-linejoin="round" fill="none"/><path d="M11.7633 43.1602 13.5516 42.8438C14.5406 42.668 15.2508 42.0211 15.1406 41.3977L12.9375 28.9758C12.8273 28.3523 11.9367 27.9891 10.9477 28.1648L9.15938 28.4813C5.74567 32.8068 6.48486 39.0807 10.8104 42.4944 11.1148 42.7347 11.433 42.957 11.7633 43.1602Z" stroke="#66737C" stroke-width="3.33333" stroke-linecap="round" stroke-linejoin="round" fill="none"/><path d="M33.3984 33.3984 42.2789 34.8094" stroke="#66737C" stroke-width="3.33333" stroke-linecap="round" stroke-linejoin="round" fill="none"/><path d="M44.4867 43.1602 42.6984 42.8438C41.7094 42.668 40.9992 42.0211 41.1094 41.3977L43.3125 28.9758C43.4227 28.3523 44.3133 27.9891 45.3023 28.1648L47.0906 28.4813C50.5043 32.8068 49.7651 39.0807 45.4396 42.4944 45.1352 42.7347 44.817 42.957 44.4867 43.1602Z" stroke="#66737C" stroke-width="3.33333" stroke-linecap="round" stroke-linejoin="round" fill="none"/></svg>