<svg width="60" height="60" viewBox="-1.875 -1.875 60 60" xmlns="http://www.w3.org/2000/svg" xmlns:xlink="http://www.w3.org/1999/xlink" id="App-Window-Pie-Chart--Streamline-Ultimate" overflow="hidden"><g><g><path d="M9.39844 33.3984C9.39844 39.2233 14.1204 43.9453 19.9453 43.9453 25.7702 43.9453 30.4922 39.2233 30.4922 33.3984 30.4922 27.5736 25.7702 22.8516 19.9453 22.8516 14.1204 22.8516 9.39844 27.5736 9.39844 33.3984" stroke="#66737C" stroke-width="3.33333" stroke-linecap="round" stroke-linejoin="round" fill="none"/><path d="M19.9453 22.8516 19.9453 33.3984 27.4219 40.8516" stroke="#66737C" stroke-width="3.33333" stroke-linecap="round" stroke-linejoin="round" fill="none"/><path d="M38.6953 24.0234 45.7266 24.0234" stroke="#66737C" stroke-width="3.33333" stroke-linecap="round" stroke-linejoin="round" fill="none"/><path d="M38.6953 33.3984 45.7266 33.3984" stroke="#66737C" stroke-width="3.33333" stroke-linecap="round" stroke-linejoin="round" fill="none"/><path d="M38.6953 42.7734 45.7266 42.7734" stroke="#66737C" stroke-width="3.33333" stroke-linecap="round" stroke-linejoin="round" fill="none"/></g><g><path d="M5.27344 4.6875 50.9766 4.6875C50.9766 4.6875 54.4922 4.6875 54.4922 8.20312L54.4922 48.0469C54.4922 48.0469 54.4922 51.5625 50.9766 51.5625L5.27344 51.5625C5.27344 51.5625 1.75781 51.5625 1.75781 48.0469L1.75781 8.20312C1.75781 8.20312 1.75781 4.6875 5.27344 4.6875" stroke="#66737C" stroke-width="3.33333" stroke-linecap="round" stroke-linejoin="round" fill="none"/><path d="M1.75781 15.2344 54.4922 15.2344" stroke="#66737C" stroke-width="3.33333" stroke-linecap="round" stroke-linejoin="round" fill="none"/></g></g></svg>