<svg width="60" height="60" viewBox="-2.14 -2.14 60 60" xmlns="http://www.w3.org/2000/svg" xmlns:xlink="http://www.w3.org/1999/xlink" id="Ar-View-See-Through-Eye-2--Streamline-Ultimate.svg" fill="none" overflow="hidden"><path d="M27.8581 19.9557C23.1371 19.8773 18.2543 23.1754 15.1846 26.5543 14.8624 26.9121 14.6841 27.3764 14.6841 27.8579 14.6841 28.3392 14.8624 28.8038 15.1846 29.1613 18.1864 32.469 23.0563 35.8442 27.8581 35.7646 32.66 35.8442 37.53 32.469 40.5354 29.1613 40.8576 28.8038 41.0359 28.3392 41.0359 27.8579 41.0359 27.3764 40.8576 26.9121 40.5354 26.5543 37.4619 23.1754 32.5793 19.8773 27.8581 19.9557Z" stroke="#66737C" stroke-width="3.57143" stroke-linecap="round" stroke-linejoin="round"/><path d="M27.8586 2.31444 27.8586 9.48949" stroke="#66737C" stroke-width="3.57143" stroke-linecap="round" stroke-linejoin="round"/><path d="M27.8586 46.2307 27.8586 53.4055" stroke="#66737C" stroke-width="3.57143" stroke-linecap="round" stroke-linejoin="round"/><path d="M12.8165 37.6414 6.60268 41.2291" stroke="#66737C" stroke-width="3.57143" stroke-linecap="round" stroke-linejoin="round"/><path d="M12.8165 18.0792 6.60268 14.4917" stroke="#66737C" stroke-width="3.57143" stroke-linecap="round" stroke-linejoin="round"/><path d="M43.7084 37.6414 49.9221 41.2291" stroke="#66737C" stroke-width="3.57143" stroke-linecap="round" stroke-linejoin="round"/><path d="M43.7084 18.0792 49.9221 14.4917" stroke="#66737C" stroke-width="3.57143" stroke-linecap="round" stroke-linejoin="round"/><path d="M22.0541 5.37013 27.86 2.31444 33.6658 5.37013" stroke="#66737C" stroke-width="3.57143" stroke-linecap="round" stroke-linejoin="round"/><path d="M44.1163 44.8495 49.9221 41.7937 49.9221 34.8269" stroke="#66737C" stroke-width="3.57143" stroke-linecap="round" stroke-linejoin="round"/><path d="M11.6037 10.8703 5.7979 13.926 5.7979 20.893" stroke="#66737C" stroke-width="3.57143" stroke-linecap="round" stroke-linejoin="round"/><path d="M11.6037 44.8495 5.7979 41.7937 5.7979 34.8269" stroke="#66737C" stroke-width="3.57143" stroke-linecap="round" stroke-linejoin="round"/><path d="M22.0541 50.35 27.86 53.4055 33.6658 50.35" stroke="#66737C" stroke-width="3.57143" stroke-linecap="round" stroke-linejoin="round"/><path d="M44.1163 10.8703 49.9221 13.926 49.9221 20.893" stroke="#66737C" stroke-width="3.57143" stroke-linecap="round" stroke-linejoin="round"/><path d="M31.2055 27.86C31.2055 28.5219 31.0091 29.169 30.6414 29.7194 30.2736 30.2699 29.751 30.6987 29.1392 30.9522 28.5277 31.2055 27.8549 31.2717 27.2055 31.1426 26.5564 31.0135 25.9599 30.6948 25.4919 30.2267 25.0239 29.7584 24.7051 29.1622 24.5758 28.5129 24.4467 27.8637 24.5131 27.1907 24.7664 26.5791 25.0197 25.9676 25.4487 25.4448 25.999 25.077 26.5494 24.7093 27.1965 24.5129 27.8586 24.5129 28.7462 24.5129 29.5975 24.8655 30.2251 25.4933 30.8529 26.1208 31.2055 26.9722 31.2055 27.86Z" stroke="#66737C" stroke-width="3.57143" stroke-linecap="round" stroke-linejoin="round"/></svg>