<svg width="60" height="60" viewBox="-2.14 -2.14 60 60" xmlns="http://www.w3.org/2000/svg" xmlns:xlink="http://www.w3.org/1999/xlink" id="Ar-View-See-Through-Eye--Streamline-Ultimate.svg" fill="none" overflow="hidden"><path d="M27.8591 1.93916C20.7352 1.82075 13.3673 6.79745 8.73522 11.8961 8.24902 12.4359 7.97994 13.1366 7.97994 13.8631 7.97994 14.5896 8.24902 15.2903 8.73522 15.8301 13.2648 20.8209 20.6132 25.9142 27.8591 25.7942 35.105 25.9142 42.4535 20.8209 46.9882 15.8301 47.4746 15.2903 47.7437 14.5896 47.7437 13.8631 47.7437 13.1366 47.4746 12.4359 46.9882 11.8961 42.3509 6.79745 34.9831 1.82075 27.8591 1.93916Z" stroke="#66737C" stroke-width="3.57143" stroke-linecap="round" stroke-linejoin="round"/><path d="M33.422 13.8678C33.422 14.9679 33.0958 16.0433 32.4845 16.958 31.8735 17.8727 31.0047 18.5857 29.9883 19.0067 28.9718 19.4277 27.8535 19.5378 26.7746 19.3232 25.6955 19.1086 24.7044 18.5788 23.9266 17.8009 23.1487 17.023 22.6189 16.0319 22.4043 14.9529 22.1897 13.874 22.2998 12.7556 22.7209 11.7392 23.1418 10.7228 23.8547 9.85413 24.7694 9.24293 25.6841 8.63172 26.7595 8.30551 27.8598 8.30551 29.335 8.30551 30.7498 8.89154 31.7929 9.93467 32.836 10.9778 33.422 12.3926 33.422 13.8678Z" stroke="#66737C" stroke-width="3.57143" stroke-linecap="round" stroke-linejoin="round"/><path d="M37.6214 47.5217C42.2824 46.5963 46.2662 45.0294 49.0689 43.0189 51.8716 41.0083 53.3677 38.6446 53.3677 36.2266 53.3677 32.9839 50.6804 29.8743 45.8966 27.5816M9.82341 27.5816C7.46622 28.7114 5.58217 30.0575 4.29409 31.548 2.36348 33.7819 1.85833 36.2401 2.84256 38.6116 3.82676 40.9832 6.25613 43.1616 9.82344 44.8715 13.3907 46.5812 17.9358 47.7458 22.8838 48.2173 24.5305 48.3745 26.1972 48.4523 27.86 48.4523L30.21 48.4523" stroke="#66737C" stroke-width="3.57143" stroke-linecap="round" stroke-linejoin="round"/><path d="M25.1947 43.1217 30.5253 48.4523 25.1947 53.7828" stroke="#66737C" stroke-width="3.57143" stroke-linecap="round" stroke-linejoin="round"/></svg>