<svg width="60" height="60" viewBox="-1.875 -1.875 60 60" xmlns="http://www.w3.org/2000/svg" xmlns:xlink="http://www.w3.org/1999/xlink" id="Area-Chart--Streamline-Ultimate" fill="none" overflow="hidden"><path d="M1.75781 25.4859 54.4922 25.4859" stroke="#66737C" stroke-width="3.33333" stroke-linecap="round" stroke-linejoin="round"/><path d="M1.75781 37.7906 54.4922 37.7906" stroke="#66737C" stroke-width="3.33333" stroke-linecap="round" stroke-linejoin="round"/><path d="M1.75781 50.0953 54.4922 50.0953" stroke="#66737C" stroke-width="3.33333" stroke-linecap="round" stroke-linejoin="round"/><path d="M1.75781 25.4859 15.8203 14.2359C16.8691 13.3966 18.1364 12.8753 19.4722 12.7336 20.8079 12.592 22.1563 12.836 23.3578 13.4367L32.8875 18.2015C34.0887 18.8025 35.437 19.0469 36.7727 18.9056 38.1087 18.7644 39.3759 18.2436 40.425 17.4046L54.4875 6.15464" stroke="#66737C" stroke-width="3.33333" stroke-linecap="round" stroke-linejoin="round"/><path d="M19.3359 12.7476 19.3359 50.0953" stroke="#66737C" stroke-width="3.33333" stroke-linecap="round" stroke-linejoin="round"/><path d="M1.75781 25.4859 1.75781 50.0953" stroke="#66737C" stroke-width="3.33333" stroke-linecap="round" stroke-linejoin="round"/><path d="M54.4922 6.15464 54.4922 50.0953" stroke="#66737C" stroke-width="3.33333" stroke-linecap="round" stroke-linejoin="round"/><path d="M36.9141 18.8862 36.9141 50.0955" stroke="#66737C" stroke-width="3.33333" stroke-linecap="round" stroke-linejoin="round"/></svg>