<svg width="60" height="60" viewBox="-2.14 -2.14 60 60" xmlns="http://www.w3.org/2000/svg" xmlns:xlink="http://www.w3.org/1999/xlink" id="Autism-Disorder-Symptoms-3--Streamline-Ultimate.svg" fill="none" overflow="hidden"><path d="M10.8614 53.9787 10.8614 39.4335C7.65342 36.4615 5.41615 32.5913 4.44174 28.3283 3.46736 24.0652 3.80113 19.6073 5.39948 15.5368 6.99785 11.4663 9.7865 7.97237 13.4013 5.51129 17.0161 3.05021 21.289 1.73634 25.6621 1.74126 42.2365 1.74126 45.8141 15.388 51.7228 30.7157 51.824 30.9796 51.8595 31.264 51.8263 31.5447 51.7934 31.8254 51.6924 32.0938 51.5324 32.3269 51.3724 32.5597 51.1584 32.7504 50.9083 32.8822 50.6585 33.0141 50.3802 33.0833 50.0976 33.0838L45.6865 33.0838 45.6865 40.0488C45.6865 41.8961 44.9526 43.6675 43.6464 44.9737 42.3402 46.2799 40.5686 47.0137 38.7215 47.0137L35.239 47.0137 35.239 53.9787" stroke="#66737C" stroke-width="3.57143" stroke-linecap="round" stroke-linejoin="round"/><path d="M24.8372 1.74119 24.8372 9.6316C24.2266 9.23805 23.5148 9.01227 22.7547 9.01227 20.4873 9.01227 18.6493 11.0213 18.6493 13.4995 18.6493 15.9778 20.4873 17.9868 22.7547 17.9868 23.5148 17.9868 24.2266 17.761 24.8372 17.3674L24.8202 31.0261C25.4306 30.6325 26.1427 30.4069 26.9025 30.4069 29.1701 30.4069 31.0082 32.4158 31.0082 34.8942 31.0082 37.3723 29.1701 39.3815 26.9025 39.3815 26.1427 39.3815 25.4306 39.1556 24.8202 38.7621L24.8195 53.9787" stroke="#66737C" stroke-width="3.57143" stroke-linecap="round" stroke-linejoin="round"/><path d="M3.88155 24.3267 10.8734 24.3267C10.4799 24.9373 10.2541 25.6491 10.2541 26.4092 10.2541 28.6765 12.2631 30.5146 14.7413 30.5146 17.2196 30.5146 19.2286 28.6765 19.2286 26.4092 19.2286 25.6491 19.0028 24.9373 18.6092 24.3267L31.8219 24.293C31.4284 23.6826 31.2032 22.9707 31.2032 22.2106 31.2032 19.9432 33.2121 18.1051 35.6903 18.1051 38.1687 18.1051 40.1776 19.9432 40.1776 22.2106 40.1776 22.9707 39.9519 23.6826 39.5584 24.293L49.2625 24.293" stroke="#66737C" stroke-width="3.57143" stroke-linecap="round" stroke-linejoin="round"/></svg>