<svg width="60" height="60" viewBox="-1.875 -1.875 60 60" xmlns="http://www.w3.org/2000/svg" xmlns:xlink="http://www.w3.org/1999/xlink" id="Auto-Pilot-Car-Radius--Streamline-Ultimate" overflow="hidden"><path d="M54.4922 37.5305C54.4922 45.297 48.1962 51.593 40.4297 51.593" stroke="#66737C" stroke-width="3.57143" stroke-linecap="round" stroke-linejoin="round" fill="none"/><path d="M47.4609 37.5305C47.4609 41.4137 44.3129 44.5617 40.4297 44.5617" stroke="#66737C" stroke-width="3.57143" stroke-linecap="round" stroke-linejoin="round" fill="none"/><path d="M43.8586 25.2258 49.2188 25.2258C50.1885 25.2232 50.974 24.4377 50.9766 23.468L50.9766 18.8672C50.9756 17.378 50.1337 16.0172 48.8016 15.3516L40.4297 12.9211 38.0461 8.15391C37.3525 6.76616 35.9342 5.88958 34.3828 5.88984L20.1094 5.88984C18.558 5.88958 17.1397 6.76616 16.4461 8.15391L14.0625 12.9211 8.78906 12.9211C6.84744 12.9211 5.27344 14.4951 5.27344 16.4367L5.27344 23.468C5.27729 24.4372 6.06204 25.2219 7.03125 25.2258L12.3914 25.2258" stroke="#66737C" stroke-width="3.57143" stroke-linecap="round" stroke-linejoin="round" fill="none"/><path d="M12.3047 26.1047C12.3047 28.5317 14.2722 30.4992 16.6992 30.4992 19.1263 30.4992 21.0938 28.5317 21.0938 26.1047 21.0938 23.6777 19.1263 21.7102 16.6992 21.7102 14.2722 21.7102 12.3047 23.6777 12.3047 26.1047Z" stroke="#66737C" stroke-width="3.57143" stroke-linecap="round" stroke-linejoin="round" fill="none"/><path d="M35.1562 26.1047C35.1562 28.5317 37.1237 30.4992 39.5508 30.4992 41.9778 30.4992 43.9453 28.5317 43.9453 26.1047 43.9453 23.6777 41.9778 21.7102 39.5508 21.7102 37.1237 21.7102 35.1562 23.6777 35.1562 26.1047Z" stroke="#66737C" stroke-width="3.57143" stroke-linecap="round" stroke-linejoin="round" fill="none"/><path d="M21.0047 25.2258 35.2453 25.2258" stroke="#66737C" stroke-width="3.57143" stroke-linecap="round" stroke-linejoin="round" fill="none"/><path d="M1.75781 37.5305C1.75781 45.297 8.05381 51.593 15.8203 51.593" stroke="#66737C" stroke-width="3.57143" stroke-linecap="round" stroke-linejoin="round" fill="none"/><path d="M8.78906 37.5305C8.78906 41.4137 11.9371 44.5617 15.8203 44.5617" stroke="#66737C" stroke-width="3.57143" stroke-linecap="round" stroke-linejoin="round" fill="none"/></svg>