<svg width="60" height="60" viewBox="-1.875 -1.875 60 60" xmlns="http://www.w3.org/2000/svg" xmlns:xlink="http://www.w3.org/1999/xlink" id="Auto-Driving--Streamline-Ultimate" overflow="hidden"><defs></defs><path d="M45.8836 23.0625C50.7001 34.6297 45.2276 47.9114 33.6604 52.728 22.0932 57.5445 8.81152 52.072 3.99496 40.5048-0.821589 28.9376 4.65091 15.6559 16.2181 10.8393 22.2076 8.34533 28.9782 8.53492 34.8188 11.3602" stroke="#66737C" stroke-width="3.57143" stroke-linecap="round" stroke-linejoin="round" fill="none"/><path d="M9.98672 26.9086C14.9375 26.2259 19.9262 25.854 24.9234 25.7953 29.9215 25.854 34.911 26.2258 39.8625 26.9086" stroke="#66737C" stroke-width="3.57143" stroke-linecap="round" stroke-linejoin="round" fill="none"/><path d="M9.35156 33.6258C16.6523 32.182 21.2742 39.8578 21.2742 47.0789" stroke="#66737C" stroke-width="3.57143" stroke-linecap="round" stroke-linejoin="round" fill="none"/><path d="M40.5047 33.6258C33.2039 32.182 28.575 39.8578 28.575 47.0789" stroke="#66737C" stroke-width="3.57143" stroke-linecap="round" stroke-linejoin="round" fill="none"/><path d="M41.2195 16.4344 45.1383 3.375C45.745 2.00292 47.3491 1.38245 48.7212 1.98914 49.3395 2.26254 49.8336 2.75669 50.107 3.375L54.0234 16.4344" stroke="#66737C" stroke-width="3.57143" stroke-linecap="round" stroke-linejoin="round" fill="none"/><path d="M42.8203 11.0977 52.425 11.0977" stroke="#66737C" stroke-width="3.57143" stroke-linecap="round" stroke-linejoin="round" fill="none"/><path d="M9.20859 31.793C9.20859 40.472 16.2444 47.5078 24.9234 47.5078 33.6025 47.5078 40.6383 40.472 40.6383 31.793 40.6383 23.1139 33.6025 16.0781 24.9234 16.0781 16.2444 16.0781 9.2086 23.1139 9.2086 31.793" stroke="#66737C" stroke-width="3.57143" stroke-linecap="round" stroke-linejoin="round" fill="none"/></svg>