<svg width="60" height="60" viewBox="-2.14 -2.14 60 60" xmlns="http://www.w3.org/2000/svg" xmlns:xlink="http://www.w3.org/1999/xlink" id="Badminton-Shuttlecock--Streamline-Ultimate.svg" overflow="hidden"><path d="M16.6046 51.4296C13.0867 54.7075 7.57767 54.513 4.29973 50.9952 1.18418 47.6517 1.18418 42.4683 4.29973 39.1247L5.53253 37.8942 17.8374 50.1991Z" stroke="#66737C" stroke-width="3.57143" stroke-linecap="round" stroke-linejoin="round" fill="none"/><path d="M10.4485 32.959 22.761 45.2715 17.836 50.1965 5.52348 37.884Z" stroke="#66737C" stroke-width="3.57143" stroke-linecap="round" stroke-linejoin="round" fill="none"/><path d="M22.7523 45.2725 51.7732 33.9497C53.1112 33.4268 53.9908 32.136 53.988 30.6994L53.988 26.1187C53.988 24.1954 52.4289 22.6362 50.5055 22.6362L43.5405 22.6362 43.5405 15.6713C43.5405 13.7479 41.9814 12.1888 40.058 12.1888L33.093 12.1888 33.093 5.22375C33.093 3.30042 31.5339 1.74125 29.6105 1.74125L25.016 1.74125C23.5794 1.73847 22.2885 2.6181 21.7656 3.95612L10.4475 32.9677Z" stroke="#66737C" stroke-width="3.57143" stroke-linecap="round" stroke-linejoin="round" fill="none"/><path d="M33.0838 12.1888 14.4802 36.9934" stroke="#66737C" stroke-width="3.57143" stroke-linecap="round" stroke-linejoin="round" fill="none"/><path d="M43.5312 22.6362 18.7266 41.2398" stroke="#66737C" stroke-width="3.57143" stroke-linecap="round" stroke-linejoin="round" fill="none"/></svg>