<svg width="44.8" height="44.8" viewBox="-1.6 -1.6 44.8 44.8" xmlns="http://www.w3.org/2000/svg" xmlns:xlink="http://www.w3.org/1999/xlink" id="Bag-Dollar--Streamline-Core" fill="none" overflow="hidden"><g id="bag-dollar--bag-payment-cash-money-finance"><path d="M20.8 40.1143C30.3332 40.1143 37.1429 36.4354 37.1429 28.2468 37.1429 19.3462 33.0571 13.4125 24.8857 8.96221L28.0998 4.45257C28.2631 4.1567 28.3516 3.81906 28.3565 3.47387 28.3614 3.12868 28.2824 2.78823 28.1275 2.48702 27.9727 2.18581 27.7475 1.93455 27.4747 1.75871 27.202 1.58286 26.8914 1.48868 26.5745 1.48571L15.0255 1.48571C14.7086 1.48868 14.398 1.58286 14.1253 1.75871 13.8525 1.93455 13.6273 2.18581 13.4725 2.48702 13.3176 2.78823 13.2386 3.12868 13.2435 3.47387 13.2484 3.81906 13.3369 4.1567 13.5002 4.45257L16.7143 8.99187C8.54286 13.4718 4.45714 19.4056 4.45714 28.3062 4.45714 36.4354 11.2667 40.1143 20.8 40.1143Z" id="Vector" stroke="#66737C" stroke-width="2.67857" stroke-linecap="round" stroke-linejoin="round"/><path d="M24.9089 20.2225C24.7676 19.8227 24.5495 19.4591 24.2724 19.1495 23.683 18.491 22.8264 18.0765 21.873 18.0765L19.3814 18.0765C17.7944 18.0765 16.5079 19.363 16.5079 20.9499 16.5079 22.3003 17.4481 23.4684 18.7673 23.757L22.5609 24.5868C24.0387 24.9101 25.0921 26.2197 25.0921 27.7325 25.0921 29.5104 23.6508 30.9528 21.873 30.9528L19.727 30.9528C18.3254 30.9528 17.133 30.0569 16.6911 28.8067" id="Vector 3" stroke="#66737C" stroke-width="2.67857" stroke-linecap="round" stroke-linejoin="round"/><path d="M20.8 18.0762 20.8 14.8571" id="Vector 2489" stroke="#66737C" stroke-width="2.67857" stroke-linecap="round" stroke-linejoin="round"/><path d="M20.8 34.1714 20.8 30.9525" id="Vector 2490" stroke="#66737C" stroke-width="2.67857" stroke-linecap="round" stroke-linejoin="round"/></g></svg>