<svg width="60" height="60" viewBox="-2.14 -2.14 60 60" xmlns="http://www.w3.org/2000/svg" xmlns:xlink="http://www.w3.org/1999/xlink" id="Baggage-Roll--Streamline-Ultimate.svg" overflow="hidden"><path d="M54.5592 45.2725C54.5592 46.5547 53.5197 47.5942 52.2375 47.5942L31.3425 47.5942C30.0603 47.5942 29.0208 46.5547 29.0208 45.2725L29.0208 19.7342C29.0208 18.4519 30.0603 17.4125 31.3425 17.4125L52.2375 17.4125C53.5197 17.4125 54.5592 18.4519 54.5592 19.7342Z" stroke="#66737C" stroke-width="3.57143" stroke-linecap="round" stroke-linejoin="round" fill="none"/><path d="M38.3075 24.3775 38.3075 40.6292" stroke="#66737C" stroke-width="3.57143" stroke-linecap="round" stroke-linejoin="round" fill="none"/><path d="M45.2725 24.3775 45.2725 40.6292" stroke="#66737C" stroke-width="3.57143" stroke-linecap="round" stroke-linejoin="round" fill="none"/><path d="M35.9858 17.4125 35.9858 8.12583C35.9858 6.84361 37.0253 5.80417 38.3075 5.80417L45.2725 5.80417C46.5547 5.80417 47.5942 6.84361 47.5942 8.12583L47.5942 17.4125" stroke="#66737C" stroke-width="3.57143" stroke-linecap="round" stroke-linejoin="round" fill="none"/><path d="M33.6642 47.5942 33.6642 49.9158" stroke="#66737C" stroke-width="3.57143" stroke-linecap="round" stroke-linejoin="round" fill="none"/><path d="M49.9158 47.5942 49.9158 49.9158" stroke="#66737C" stroke-width="3.57143" stroke-linecap="round" stroke-linejoin="round" fill="none"/><path d="M1.16083 45.2725 22.0558 45.2725" stroke="#66737C" stroke-width="3.57143" stroke-linecap="round" stroke-linejoin="round" fill="none"/><path d="M5.80417 38.3075 22.0558 38.3075" stroke="#66737C" stroke-width="3.57143" stroke-linecap="round" stroke-linejoin="round" fill="none"/><path d="M11.6083 31.3425 22.0558 31.3425" stroke="#66737C" stroke-width="3.57143" stroke-linecap="round" stroke-linejoin="round" fill="none"/></svg>