<svg width="60" height="60" viewBox="-1.875 -1.875 60 60" xmlns="http://www.w3.org/2000/svg" xmlns:xlink="http://www.w3.org/1999/xlink" id="Barcode-Search--Streamline-Ultimate" overflow="hidden"><path d="M8.78906 12.3047 8.78906 29.8828" stroke="#66737C" stroke-width="3.33333" stroke-linecap="round" stroke-linejoin="round" fill="none"/><path d="M15.8203 12.3047 15.8203 22.8516" stroke="#66737C" stroke-width="3.33333" stroke-linecap="round" stroke-linejoin="round" fill="none"/><path d="M29.8828 12.3047 29.8828 19.3359" stroke="#66737C" stroke-width="3.33333" stroke-linecap="round" stroke-linejoin="round" fill="none"/><path d="M36.9141 12.3047 36.9141 17.5781" stroke="#66737C" stroke-width="3.33333" stroke-linecap="round" stroke-linejoin="round" fill="none"/><path d="M43.9453 12.3047 43.9453 19.3359" stroke="#66737C" stroke-width="3.33333" stroke-linecap="round" stroke-linejoin="round" fill="none"/><path d="M22.8516 12.3047 22.8516 22.8516" stroke="#66737C" stroke-width="3.33333" stroke-linecap="round" stroke-linejoin="round" fill="none"/><path d="M15.8203 29.8828 19.3359 29.8828" stroke="#66737C" stroke-width="3.33333" stroke-linecap="round" stroke-linejoin="round" fill="none"/><path d="M8.78906 1.75781 5.36016 1.75781C3.37064 1.75781 1.75781 3.37064 1.75781 5.36016L1.75781 8.78906" stroke="#66737C" stroke-width="3.33333" stroke-linecap="round" stroke-linejoin="round" fill="none"/><path d="M50.9766 8.78906 50.9766 5.36016C50.9766 3.37064 49.3637 1.75781 47.3742 1.75781L43.9453 1.75781" stroke="#66737C" stroke-width="3.33333" stroke-linecap="round" stroke-linejoin="round" fill="none"/><path d="M1.75781 33.3984 1.75781 36.8273C1.75781 38.8169 3.37064 40.4297 5.36016 40.4297L8.78906 40.4297" stroke="#66737C" stroke-width="3.33333" stroke-linecap="round" stroke-linejoin="round" fill="none"/><path d="M24.6094 36.9141C24.6094 43.7098 30.1184 49.2188 36.9141 49.2188 43.7098 49.2188 49.2188 43.7098 49.2188 36.9141 49.2188 30.1184 43.7098 24.6094 36.9141 24.6094 30.1184 24.6094 24.6094 30.1184 24.6094 36.9141Z" stroke="#66737C" stroke-width="3.33333" stroke-linecap="round" stroke-linejoin="round" fill="none"/><path d="M54.4922 54.4922 45.6141 45.6141" stroke="#66737C" stroke-width="3.33333" stroke-linecap="round" stroke-linejoin="round" fill="none"/></svg>