<svg width="60" height="60" viewBox="-1.875 -1.875 60 60" xmlns="http://www.w3.org/2000/svg" xmlns:xlink="http://www.w3.org/1999/xlink" id="Beach-Palm-Water--Streamline-Ultimate" overflow="hidden"><path d="M49.2188 43.4766C42.6044 40.4704 35.3868 39.0269 28.125 39.2578 20.8632 39.0269 13.6456 40.4704 7.03125 43.4766" stroke="#66737C" stroke-width="3.57143" stroke-linecap="round" stroke-linejoin="round" fill="none"/><path d="M36.9188 19.868 35.1211 39.6328" stroke="#66737C" stroke-width="3.57143" stroke-linecap="round" stroke-linejoin="round" fill="none"/><path d="M20.8734 39.6609 32.4656 18.4102" stroke="#66737C" stroke-width="3.57143" stroke-linecap="round" stroke-linejoin="round" fill="none"/><path d="M32.4656 18.4102 51.8625 24.7594C52.7833 25.0671 53.7791 24.5701 54.0868 23.6493 54.1853 23.3544 54.2039 23.0387 54.1406 22.7344 53.5676 18.1437 50.2041 14.3915 45.7031 13.3219 43.8543 12.9253 41.9497 12.8602 40.0781 13.1297" stroke="#66737C" stroke-width="3.57143" stroke-linecap="round" stroke-linejoin="round" fill="none"/><path d="M32.4656 18.4102 14.8055 23.2031C13.8695 23.4609 12.9018 22.9111 12.644 21.9751 12.5706 21.7084 12.5611 21.4281 12.6164 21.157 13.144 16.4964 16.5326 12.6646 21.0938 11.5711 23.5027 11.0264 26.0093 11.09 28.3875 11.7563" stroke="#66737C" stroke-width="3.57143" stroke-linecap="round" stroke-linejoin="round" fill="none"/><path d="M43.8281 13.0477 51.0938 5.74453C51.7836 5.06699 51.7936 3.9585 51.116 3.26865 50.9678 3.11777 50.7935 2.99499 50.6016 2.90625 46.7196 1.01749 42.1042 1.48002 38.6742 4.10156 37.1803 5.29736 36.1239 6.95369 35.6695 8.8125" stroke="#66737C" stroke-width="3.57143" stroke-linecap="round" stroke-linejoin="round" fill="none"/><path d="M24.1406 11.2125 19.5656 6.25313C18.9044 5.54764 18.9403 4.43968 19.6457 3.77844 19.88 3.55888 20.1701 3.40796 20.4844 3.34219 22.4229 2.9677 24.3928 2.78012 26.3672 2.78203 30.2703 3.14025 33.7477 5.3951 35.6672 8.8125" stroke="#66737C" stroke-width="3.57143" stroke-linecap="round" stroke-linejoin="round" fill="none"/><path d="M1.75781 54.4922C5.6237 54.9707 9.49905 53.6789 12.3047 50.9766 16.2489 55.3452 22.9877 55.6893 27.3564 51.7452 27.6255 51.5022 27.882 51.2457 28.125 50.9766 32.0692 55.3452 38.808 55.6893 43.1767 51.7452 43.4458 51.5022 43.7024 51.2457 43.9453 50.9766 46.7509 53.6789 50.6263 54.9707 54.4922 54.4922" stroke="#66737C" stroke-width="3.57143" stroke-linecap="round" stroke-linejoin="round" fill="none"/></svg>