<svg width="60" height="60" viewBox="-2.14 -2.14 60 60" xmlns="http://www.w3.org/2000/svg" xmlns:xlink="http://www.w3.org/1999/xlink" id="Begging-Hand-Coin-2--Streamline-Ultimate.svg" overflow="hidden"><defs></defs><path d="M39.9118 9.64653 36.0392 9.64653C34.6288 9.64049 33.4805 10.779 33.4745 12.1894 33.47 13.2415 34.1112 14.1887 35.0897 14.5754L39.0203 16.1472C40.3307 16.6688 40.9701 18.154 40.4485 19.4645 40.0616 20.4363 39.1213 21.0739 38.0753 21.0738L34.1982 21.0738" stroke="#66737C" stroke-width="3.57143" stroke-linecap="round" stroke-linejoin="round" fill="none"/><path d="M37.0561 9.64653 37.0561 6.8791" stroke="#66737C" stroke-width="3.57143" stroke-linecap="round" stroke-linejoin="round" fill="none"/><path d="M37.0561 23.544 37.0561 21.0738" stroke="#66737C" stroke-width="3.57143" stroke-linecap="round" stroke-linejoin="round" fill="none"/><path d="M23.9619 15.3601C23.9619 22.5919 29.8244 28.4543 37.0561 28.4543 44.2878 28.4543 50.1503 22.5919 50.1503 15.3601 50.1503 8.12842 44.2878 2.26595 37.0561 2.26595 29.8244 2.26595 23.9619 8.12842 23.9619 15.3601" stroke="#66737C" stroke-width="3.57143" stroke-linecap="round" stroke-linejoin="round" fill="none"/><path d="M35.2893 40.4434 49.7231 35.8326 49.823 35.8047C51.6691 35.4001 53.4938 36.5687 53.8984 38.4148 54.2309 39.9317 53.5004 41.4822 52.1191 42.1917 23.941 56.781 31.1289 56.1216 1.73893 46.3312" stroke="#66737C" stroke-width="3.57143" stroke-linecap="round" stroke-linejoin="round" fill="none"/><path d="M1.74125 28.4543 6.84892 28.4543C12.7857 28.3938 18.5449 30.4778 23.0681 34.3235L23.1633 34.4071 32.6821 34.4071C34.6593 34.4071 36.2621 36.0099 36.2621 37.9871L36.2621 37.9871C36.2634 39.958 34.6715 41.5592 32.7007 41.5694L18.2274 41.6414" stroke="#66737C" stroke-width="3.57143" stroke-linecap="round" stroke-linejoin="round" fill="none"/></svg>