<svg width="60" height="60" viewBox="-2.14 -2.14 60 60" xmlns="http://www.w3.org/2000/svg" xmlns:xlink="http://www.w3.org/1999/xlink" id="Bill-Cross-Money--Streamline-Ultimate.svg" fill="none" overflow="hidden"><path d="M47.6079 2.18733 10.0866 2.18733C7.99155 2.18733 5.98235 3.01956 4.50097 4.50097 3.01956 5.98235 2.18733 7.99155 2.18733 10.0866L2.18733 53.5323 12.0614 47.6079 21.9354 53.5323 27.9176 49.943M47.6079 2.18733C46.0366 2.18733 44.5296 2.81152 43.4186 3.92255 42.3075 5.03361 41.6834 6.54048 41.6834 8.11174L41.6834 26.1961M47.6079 2.18733C49.1792 2.18733 50.6859 2.81152 51.7971 3.92255 52.908 5.03361 53.5323 6.54048 53.5323 8.11174L53.5323 21.9354 41.6834 21.9354" stroke="#66737C" stroke-width="3.57143" stroke-linecap="round" stroke-linejoin="round"/><path d="M47.0732 33.0095 39.4683 33.0095 39.4683 39.4686 33.0095 39.4686 33.0095 47.0734 39.4683 47.0734 39.4683 53.5323 47.0732 53.5323 47.0732 47.0734 53.5323 47.0734 53.5323 39.4686 47.0732 39.4686 47.0732 33.0095Z" stroke="#66737C" stroke-width="3.57143" stroke-linecap="round" stroke-linejoin="round"/><path d="M15.5012 15.1876 15.5012 10.9338" stroke="#66737C" stroke-width="3.57143" stroke-linecap="round" stroke-linejoin="round"/><path d="M11.2478 26.5306C11.2478 28.6575 13.1479 29.3665 15.5016 29.3665 17.8554 29.3665 19.7554 29.3665 19.7554 26.5306 19.7554 22.2768 11.2478 22.2768 11.2478 18.0231 11.2478 15.1872 13.1479 15.1872 15.5016 15.1872 17.8554 15.1872 19.7554 16.2648 19.7554 18.0231" stroke="#66737C" stroke-width="3.57143" stroke-linecap="round" stroke-linejoin="round"/><path d="M15.5012 29.3665 15.5012 33.6203" stroke="#66737C" stroke-width="3.57143" stroke-linecap="round" stroke-linejoin="round"/><path d="M27.3539 23.7495 31.3608 23.7495" stroke="#66737C" stroke-width="3.57143" stroke-linecap="round" stroke-linejoin="round"/><path d="M27.3539 16.161 33.988 16.161" stroke="#66737C" stroke-width="3.57143" stroke-linecap="round" stroke-linejoin="round"/></svg>