<svg width="60" height="60" viewBox="-2.14 -2.14 60 60" xmlns="http://www.w3.org/2000/svg" xmlns:xlink="http://www.w3.org/1999/xlink" id="Binocular--Streamline-Ultimate.svg" overflow="hidden"><path d="M1.16083 42.9508C1.16083 49.3619 6.35806 54.5592 12.7692 54.5592 19.1803 54.5592 24.3775 49.3619 24.3775 42.9508 24.3775 36.5397 19.1803 31.3425 12.7692 31.3425 6.35806 31.3425 1.16083 36.5397 1.16083 42.9508Z" stroke="#66737C" stroke-width="3.57143" stroke-linecap="round" stroke-linejoin="round" fill="none"/><path d="M24.3775 16.2517 24.3775 6.965C22.3824 5.2235 19.4076 5.2235 17.4125 6.965L13.93 16.2517 10.4475 19.7342 3.4825 35.9858" stroke="#66737C" stroke-width="3.57143" stroke-linecap="round" stroke-linejoin="round" fill="none"/><path d="M31.3425 42.9508C31.3425 49.3619 36.5397 54.5592 42.9508 54.5592 49.3619 54.5592 54.5592 49.3619 54.5592 42.9508 54.5592 36.5397 49.3619 31.3425 42.9508 31.3425 36.5397 31.3425 31.3425 36.5397 31.3425 42.9508Z" stroke="#66737C" stroke-width="3.57143" stroke-linecap="round" stroke-linejoin="round" fill="none"/><path d="M31.3425 16.2517 31.3425 7.11127C33.3376 5.36976 36.3124 5.36976 38.3075 7.11127L41.79 16.2517 45.2725 19.7342 52.2375 35.9858" stroke="#66737C" stroke-width="3.57143" stroke-linecap="round" stroke-linejoin="round" fill="none"/><path d="M18.5733 25.5383C18.5733 22.9845 22.7314 20.895 27.86 20.895 32.9886 20.895 37.1467 22.9729 37.1467 25.5383" stroke="#66737C" stroke-width="3.57143" stroke-linecap="round" stroke-linejoin="round" fill="none"/><path d="M24.3775 42.9508 24.3775 21.2316" stroke="#66737C" stroke-width="3.57143" stroke-linecap="round" stroke-linejoin="round" fill="none"/><path d="M31.3425 42.9508 31.3425 21.2316" stroke="#66737C" stroke-width="3.57143" stroke-linecap="round" stroke-linejoin="round" fill="none"/></svg>