<svg width="60" height="60" viewBox="-1.875 -1.875 60 60" xmlns="http://www.w3.org/2000/svg" xmlns:xlink="http://www.w3.org/1999/xlink" id="Binocular--Streamline-Ultimate" overflow="hidden"><path d="M1.75781 42.1875C1.75781 48.0124 6.47981 52.7344 12.3047 52.7344 18.1296 52.7344 22.8516 48.0124 22.8516 42.1875 22.8516 36.3626 18.1296 31.6406 12.3047 31.6406 6.47981 31.6406 1.75781 36.3626 1.75781 42.1875Z" stroke="#66737C" stroke-width="3.33333" stroke-linecap="round" stroke-linejoin="round" fill="none"/><path d="M22.8516 42.1875 22.8516 9.66797C22.8565 6.27013 20.106 3.51161 16.7082 3.50665 13.9354 3.5026 11.5026 5.35384 10.7672 8.02734L2.13516 39.3867" stroke="#66737C" stroke-width="3.33333" stroke-linecap="round" stroke-linejoin="round" fill="none"/><path d="M33.3984 42.1875C33.3984 48.0124 38.1204 52.7344 43.9453 52.7344 49.7702 52.7344 54.4922 48.0124 54.4922 42.1875 54.4922 36.3626 49.7702 31.6406 43.9453 31.6406 38.1204 31.6406 33.3984 36.3626 33.3984 42.1875Z" stroke="#66737C" stroke-width="3.33333" stroke-linecap="round" stroke-linejoin="round" fill="none"/><path d="M33.3984 42.1875 33.3984 9.66797C33.3935 6.27013 36.144 3.51161 39.5418 3.50665 42.3146 3.5026 44.7474 5.35384 45.4828 8.02734L54.1148 39.3797" stroke="#66737C" stroke-width="3.33333" stroke-linecap="round" stroke-linejoin="round" fill="none"/><path d="M22.8516 21.0938 33.3984 21.0938 33.3984 28.125 22.8516 28.125Z" stroke="#66737C" stroke-width="3.33333" stroke-linecap="round" stroke-linejoin="round" fill="none"/></svg>