<svg width="60" height="60" viewBox="-1.875 -1.875 60 60" xmlns="http://www.w3.org/2000/svg" xmlns:xlink="http://www.w3.org/1999/xlink" id="Board-Game-Deuce--Streamline-Ultimate" fill="none" overflow="hidden"><path d="M34.1433 2.7885 2.78747 34.1442C1.41454 35.5172 1.41454 37.743 2.78747 39.116L17.1346 53.4633C18.5075 54.836 20.7335 54.836 22.1064 53.4633L53.4621 22.1074C54.8351 20.7345 54.8351 18.5085 53.4621 17.1356L39.1151 2.7885C37.7421 1.41555 35.5163 1.41556 34.1433 2.7885Z" stroke="#66737C" stroke-width="3.57143" stroke-linecap="round" stroke-linejoin="round"/><path d="M18.4665 18.4664 37.7836 37.7836" stroke="#66737C" stroke-width="3.57143" stroke-linecap="round" stroke-linejoin="round"/><path d="M11.2962 37.3802C10.8108 37.3802 10.4173 36.9867 10.4173 36.5013 10.4173 36.0159 10.8108 35.6224 11.2962 35.6224" stroke="#66737C" stroke-width="3.57143"/><path d="M11.2962 37.3802C11.7816 37.3802 12.1751 36.9867 12.1751 36.5013 12.1751 36.0159 11.7816 35.6224 11.2962 35.6224" stroke="#66737C" stroke-width="3.57143"/><path d="M18.5407 30.1357C18.0553 30.1357 17.6618 29.7422 17.6618 29.2568 17.6618 28.7714 18.0553 28.3779 18.5407 28.3779" stroke="#66737C" stroke-width="3.57143"/><path d="M18.5407 30.1357C19.0261 30.1357 19.4196 29.7422 19.4196 29.2568 19.4196 28.7714 19.0261 28.3779 18.5407 28.3779" stroke="#66737C" stroke-width="3.57143"/><path d="M26.9927 38.5882C26.5073 38.5882 26.1138 38.1947 26.1138 37.7093 26.1138 37.2239 26.5073 36.8304 26.9927 36.8304" stroke="#66737C" stroke-width="3.57143"/><path d="M26.9927 38.5882C27.4781 38.5882 27.8716 38.1947 27.8716 37.7093 27.8716 37.2239 27.4781 36.8304 26.9927 36.8304" stroke="#66737C" stroke-width="3.57143"/><g><path d="M19.7486 45.832C19.2632 45.832 18.8697 45.4385 18.8697 44.9531 18.8697 44.4677 19.2632 44.0742 19.7486 44.0742" stroke="#66737C" stroke-width="3.57143"/><path d="M19.7486 45.832C20.234 45.832 20.6276 45.4385 20.6276 44.9531 20.6276 44.4677 20.234 44.0742 19.7486 44.0742" stroke="#66737C" stroke-width="3.57143"/></g><g><path d="M30.6227 18.0625C30.1373 18.0625 29.7438 17.669 29.7438 17.1836 29.7438 16.6981 30.1373 16.3046 30.6227 16.3046" stroke="#66737C" stroke-width="3.57143"/><path d="M30.6227 18.0625C31.1081 18.0625 31.5016 17.669 31.5016 17.1836 31.5016 16.6981 31.1081 16.3046 30.6227 16.3046" stroke="#66737C" stroke-width="3.57143"/></g><g><path d="M43.8963 21.6836C43.4109 21.6836 43.0174 21.2901 43.0174 20.8047 43.0174 20.3193 43.4109 19.9258 43.8963 19.9258" stroke="#66737C" stroke-width="3.57143"/><path d="M43.8963 21.6836C44.3817 21.6836 44.7752 21.2901 44.7752 20.8047 44.7752 20.3193 44.3817 19.9258 43.8963 19.9258" stroke="#66737C" stroke-width="3.57143"/></g></svg>