<svg width="60" height="60" viewBox="-1.875 -1.875 60 60" xmlns="http://www.w3.org/2000/svg" xmlns:xlink="http://www.w3.org/1999/xlink" id="Bookmarks-Document--Streamline-Ultimate" overflow="hidden"><path d="M12.3047 5.27109 5.27344 5.27109C3.33181 5.27109 1.75781 6.84509 1.75781 8.78672L1.75781 50.9742C1.75781 52.9158 3.33181 54.4898 5.27344 54.4898L50.9766 54.4898C52.9182 54.4898 54.4922 52.9158 54.4922 50.9742L54.4922 8.78672C54.4922 6.84509 52.9182 5.27109 50.9766 5.27109L26.3672 5.27109" stroke="#66737C" stroke-width="3.33333" stroke-linecap="round" stroke-linejoin="round" fill="none"/><path d="M26.3672 26.3648 19.3359 21.0938 12.3047 26.3672 12.3047 3.51562C12.3034 2.54481 13.0893 1.75676 14.0602 1.75547 14.0609 1.75547 14.0617 1.75547 14.0625 1.75547L24.6094 1.75547C25.5802 1.75547 26.3672 2.54247 26.3672 3.51328Z" stroke="#66737C" stroke-width="3.33333" stroke-linecap="round" stroke-linejoin="round" fill="none"/><path d="M12.3047 43.943 36.9141 43.943" stroke="#66737C" stroke-width="3.33333" stroke-linecap="round" stroke-linejoin="round" fill="none"/><path d="M12.3047 33.3961 43.9453 33.3961" stroke="#66737C" stroke-width="3.33333" stroke-linecap="round" stroke-linejoin="round" fill="none"/><path d="M43.9453 22.8492 33.3984 22.8492" stroke="#66737C" stroke-width="3.33333" stroke-linecap="round" stroke-linejoin="round" fill="none"/></svg>