<svg width="60" height="60" viewBox="-2.14 -2.14 60 60" xmlns="http://www.w3.org/2000/svg" xmlns:xlink="http://www.w3.org/1999/xlink" id="Brain-1--Streamline-Ultimate.svg" overflow="hidden"><path d="M53.9787 27.86C53.9781 24.7444 51.9084 22.0082 48.9105 21.1597 50.9806 19.152 51.0312 15.8464 49.0236 13.7763 48.1424 12.8677 46.9612 12.3102 45.6997 12.2073 45.4165 11.8892 45.0962 11.6062 44.7455 11.3646 46.2219 7.8125 44.5392 3.73614 40.9871 2.25976 37.5951 0.849892 33.6912 2.31674 32.0669 5.61147 30.3587 3.28808 27.0905 2.78932 24.7672 4.49745 24.3416 4.8103 23.966 5.18592 23.6531 5.61147 21.9522 2.16132 17.7764 0.743321 14.3262 2.44429 11.0315 4.06862 9.56464 7.97251 10.9745 11.3646 10.6238 11.6062 10.3035 11.8892 10.0203 12.2073 7.14613 12.4417 5.00611 14.9616 5.24045 17.8358 5.3433 19.0973 5.90087 20.2785 6.80944 21.1597 3.10831 22.2077 0.95758 26.0577 2.00565 29.7589 2.66448 32.0854 4.48287 33.9038 6.80944 34.5627 4.73951 36.5686 4.68764 39.8727 6.69358 41.9427 7.57519 42.8524 8.75761 43.4104 10.0203 43.5127 10.3035 43.8308 10.6238 44.1138 10.9745 44.3554 9.49813 47.9075 11.1808 51.9839 14.7329 53.4602 18.1249 54.8701 22.0288 53.4033 23.6531 50.1085 25.3613 52.4319 28.6294 52.9307 30.9528 51.2226 31.3784 50.9097 31.754 50.5341 32.0669 50.1085 33.7678 53.5587 37.9436 54.9767 41.3938 53.2757 44.6885 51.6514 46.1554 47.7475 44.7455 44.3554 45.0962 44.1138 45.4165 43.8308 45.6997 43.5127 48.5727 43.28 50.7132 40.7624 50.4806 37.8894 50.3783 36.6267 49.8203 35.4443 48.9105 34.5627 51.9092 33.7139 53.9792 30.9765 53.9787 27.86Z" stroke="#66737C" stroke-width="3.57143" stroke-linecap="round" stroke-linejoin="round" fill="none"/><path d="M27.86 52.2375 27.86 19.1537" stroke="#66737C" stroke-width="3.57143" stroke-linecap="round" stroke-linejoin="round" fill="none"/><path d="M24.3775 15.6713C24.3775 17.5946 25.9367 19.1537 27.86 19.1537 29.7833 19.1537 31.3425 17.5946 31.3425 15.6712 31.3425 13.7479 29.7833 12.1887 27.86 12.1887 25.9367 12.1887 24.3775 13.7479 24.3775 15.6712Z" stroke="#66737C" stroke-width="3.57143" stroke-linecap="round" stroke-linejoin="round" fill="none"/><path d="M20.895 43.5312 20.895 36.5662 15.6713 33.0838 15.6713 27.86" stroke="#66737C" stroke-width="3.57143" stroke-linecap="round" stroke-linejoin="round" fill="none"/><path d="M12.1888 24.3775C12.1888 26.3008 13.7479 27.86 15.6713 27.86 17.5946 27.86 19.1537 26.3008 19.1537 24.3775 19.1537 22.4542 17.5946 20.895 15.6712 20.895 13.7479 20.895 12.1887 22.4542 12.1887 24.3775Z" stroke="#66737C" stroke-width="3.57143" stroke-linecap="round" stroke-linejoin="round" fill="none"/><path d="M34.825 43.5312 34.825 36.5662 40.0488 33.0838 40.0488 27.86" stroke="#66737C" stroke-width="3.57143" stroke-linecap="round" stroke-linejoin="round" fill="none"/><path d="M36.5662 24.3775C36.5662 26.3008 38.1254 27.86 40.0487 27.86 41.9721 27.86 43.5312 26.3008 43.5312 24.3775 43.5312 22.4542 41.9721 20.895 40.0487 20.895 38.1254 20.895 36.5662 22.4542 36.5662 24.3775Z" stroke="#66737C" stroke-width="3.57143" stroke-linecap="round" stroke-linejoin="round" fill="none"/></svg>