<svg width="60" height="60" viewBox="-2.14 -2.14 60 60" xmlns="http://www.w3.org/2000/svg" xmlns:xlink="http://www.w3.org/1999/xlink" id="Brain-Head--Streamline-Ultimate.svg" overflow="hidden"><path d="M1.74125 43.5312 1.74125 50.4963C1.74125 52.4196 3.30042 53.9787 5.22375 53.9787L12.1888 53.9787" stroke="#66737C" stroke-width="3.57143" stroke-linecap="round" stroke-linejoin="round" fill="none"/><path d="M12.1888 1.74125 5.22375 1.74125C3.30042 1.74125 1.74125 3.30042 1.74125 5.22375L1.74125 12.1888" stroke="#66737C" stroke-width="3.57143" stroke-linecap="round" stroke-linejoin="round" fill="none"/><path d="M53.9787 12.1888 53.9787 5.22375C53.9787 3.30042 52.4196 1.74125 50.4963 1.74125L43.5312 1.74125" stroke="#66737C" stroke-width="3.57143" stroke-linecap="round" stroke-linejoin="round" fill="none"/><path d="M43.5312 53.9787 50.4963 53.9787C52.4196 53.9787 53.9787 52.4196 53.9787 50.4963L53.9787 43.5312" stroke="#66737C" stroke-width="3.57143" stroke-linecap="round" stroke-linejoin="round" fill="none"/><path d="M20.895 47.0137 20.895 40.0488 17.4125 40.0488C15.4892 40.0488 13.93 38.4896 13.93 36.5663L13.93 33.0838 11.1835 33.0838C10.2218 33.0839 9.44207 32.3045 9.44188 31.3428 9.44184 31.1491 9.47413 30.9568 9.53741 30.7737 13.9416 18.0138 14.4292 8.70625 27.86 8.70625 36.515 8.70647 43.5311 15.7229 43.5309 24.3779 43.5307 28.837 41.631 33.0849 38.3075 36.0578L38.3075 47.0137" stroke="#66737C" stroke-width="3.57143" stroke-linecap="round" stroke-linejoin="round" fill="none"/><path d="M34.0101 27.1449C34.8901 27.5391 35.923 27.1452 36.3171 26.2652 36.3759 26.1339 36.4183 25.9958 36.4432 25.8541 37.2554 21.1122 34.0698 16.6098 29.328 15.7976 26.2076 15.2631 23.0429 16.4636 21.0622 18.9332 20.4619 19.6861 20.5856 20.7831 21.3386 21.3834 21.4524 21.4742 21.5772 21.5503 21.7099 21.6101Z" stroke="#66737C" stroke-width="3.57143" stroke-linecap="round" stroke-linejoin="round" fill="none"/></svg>