<svg width="60" height="60" viewBox="-2.14 -2.14 60 60" xmlns="http://www.w3.org/2000/svg" xmlns:xlink="http://www.w3.org/1999/xlink" id="Business-Deal-Handshake--Streamline-Ultimate.svg" overflow="hidden"><g><g><path d="M47.1066 32.9445 34.2446 35.4983" stroke="#66737C" stroke-width="3.57143" stroke-linecap="round" stroke-linejoin="round" fill="none"/><path d="M8.54373 32.9677 14.2318 32.9677 22.3809 42.115C22.9781 42.7709 23.8159 43.1563 24.7025 43.183 29.4467 39.7683 33.9037 35.9713 38.0289 31.83 38.2843 31.1103 37.7967 30.3906 37.3556 29.787L31.5282 22.2648" stroke="#66737C" stroke-width="3.57143" stroke-linecap="round" stroke-linejoin="round" fill="none"/><path d="M24.5632 16.4374 23.7507 15.7409C22.916 15.1469 21.9194 14.8228 20.895 14.8122 20.2746 14.8109 19.6598 14.9292 19.0841 15.1605L8.70625 19.2931" stroke="#66737C" stroke-width="3.57143" stroke-linecap="round" stroke-linejoin="round" fill="none"/><path d="M1.74125 15.323 6.38458 15.323C7.59764 15.3191 8.60921 16.2498 8.70625 17.4589L8.70625 32.364C8.59782 33.564 7.58945 34.4816 6.38458 34.4767L1.74125 34.4767" stroke="#66737C" stroke-width="3.57143" stroke-linecap="round" stroke-linejoin="round" fill="none"/><path d="M53.9787 34.4767 49.3354 34.4767C48.1306 34.4816 47.1222 33.564 47.0137 32.364L47.0137 17.4589C47.1108 16.2498 48.1224 15.3191 49.3354 15.323L53.9787 15.323" stroke="#66737C" stroke-width="3.57143" stroke-linecap="round" stroke-linejoin="round" fill="none"/></g><path d="M34.2446 21.3593 26.2348 24.006C24.4034 24.6464 22.3866 23.7791 21.5915 22.0094 20.7327 20.1609 21.4923 17.9642 23.3095 17.041L31.1103 13.1174C31.8724 12.7297 32.7163 12.5307 33.5713 12.537 34.2042 12.5413 34.8319 12.6511 35.4286 12.862L47.037 17.0875" stroke="#66737C" stroke-width="3.57143" stroke-linecap="round" stroke-linejoin="round" fill="none"/></g></svg>