<svg width="44.8" height="44.8" viewBox="-1.6 -1.6 44.8 44.8" xmlns="http://www.w3.org/2000/svg" xmlns:xlink="http://www.w3.org/1999/xlink" id="Business-Handshake--Streamline-Core" fill="none" overflow="hidden"><g id="business-handshake--deal-contract-business-money-payment-agreement"><path d="M33.5448 29.0768 24.2487 35.9623C22.2832 37.4415 19.666 37.5387 17.5918 36.2095L1.4859 25.8894" id="Rectangle 9" stroke="#66737C" stroke-width="2.67857" stroke-linecap="round" stroke-linejoin="round"/><path d="M40.1143 24.2228 33.5448 29.0535 23.2811 18.6498 19.7146 21.4003C18.099 22.6462 15.7755 22.3198 14.5654 20.6769 13.451 19.1639 13.6713 17.0508 15.0737 15.8005L19.6925 11.6827C21.2181 10.3227 23.1643 9.52824 25.2053 9.43244L31.9827 9.11441 40.1143 4.45714" id="Vector 1282" stroke="#66737C" stroke-width="2.67857" stroke-linecap="round" stroke-linejoin="round"/><path d="M23.2826 18.6664C25.7456 20.9904 29.2385 19.8048 30.5374 17.9076" id="Vector 1289" stroke="#66737C" stroke-width="2.67857" stroke-linecap="round" stroke-linejoin="round"/><path d="M1.4859 5.89933 8.08032 9.65985 13.96 8.58116C15.9522 8.21567 17.9893 8.81745 19.5111 10.221L20.3473 11.1143" id="Rectangle 8" stroke="#66737C" stroke-width="2.67857" stroke-linecap="round" stroke-linejoin="round"/></g></svg>