<svg width="60" height="60" viewBox="-1.875 -1.875 60 60" xmlns="http://www.w3.org/2000/svg" xmlns:xlink="http://www.w3.org/1999/xlink" id="Business-Deal-Cash-Exchange--Streamline-Ultimate" overflow="hidden"><path d="M6.15703 7.91016C6.15703 11.308 8.91153 14.0625 12.3094 14.0625 15.7072 14.0625 18.4617 11.308 18.4617 7.91016 18.4617 4.51231 15.7072 1.75781 12.3094 1.75781 8.91153 1.75781 6.15703 4.51231 6.15703 7.91016Z" stroke="#66737C" stroke-width="3.33333" stroke-linecap="round" stroke-linejoin="round" fill="none"/><path d="M17.0695 26.3672 1.7625 26.3672C1.76176 20.5423 6.48315 15.8197 12.308 15.819 15.284 15.8186 18.1216 17.0755 20.1211 19.2797" stroke="#66737C" stroke-width="3.33333" stroke-linecap="round" stroke-linejoin="round" fill="none"/><path d="M42.7711 30C46.1072 29.3486 49.3398 31.5251 49.9911 34.8612 50.6425 38.1974 48.4661 41.4299 45.1299 42.0813 42.8241 42.5315 40.4631 41.6297 39.0445 39.757" stroke="#66737C" stroke-width="3.33333" stroke-linecap="round" stroke-linejoin="round" fill="none"/><path d="M33.4031 54.4922C33.4031 48.6673 38.1251 43.9453 43.95 43.9453 49.7749 43.9453 54.4969 48.6673 54.4969 54.4922Z" stroke="#66737C" stroke-width="3.33333" stroke-linecap="round" stroke-linejoin="round" fill="none"/><path d="M25.5328 34.2047C26.5622 35.5587 28.1881 36.3243 29.8875 36.2555 32.557 36.2555 34.7227 34.6312 34.7227 32.6297 34.7227 30.6281 32.557 29.0063 29.8875 29.0063 27.218 29.0063 25.0547 27.382 25.0547 25.3781 25.0547 23.3742 27.218 21.7523 29.8875 21.7523 31.5869 21.6835 33.2128 22.4492 34.2422 23.8031" stroke="#66737C" stroke-width="3.33333" stroke-linecap="round" stroke-linejoin="round" fill="none"/><path d="M29.8875 36.2555 29.8875 38.6719" stroke="#66737C" stroke-width="3.33333" stroke-linecap="round" stroke-linejoin="round" fill="none"/><path d="M29.8875 19.3359 29.8875 21.7523" stroke="#66737C" stroke-width="3.33333" stroke-linecap="round" stroke-linejoin="round" fill="none"/><path d="M17.5828 42.1875 12.3094 47.4609 17.5828 52.7344" stroke="#66737C" stroke-width="3.33333" stroke-linecap="round" stroke-linejoin="round" fill="none"/><path d="M12.3094 47.4609 24.6141 47.4609" stroke="#66737C" stroke-width="3.33333" stroke-linecap="round" stroke-linejoin="round" fill="none"/><path d="M38.6766 3.51562 43.95 8.78906 38.6766 14.0625" stroke="#66737C" stroke-width="3.33333" stroke-linecap="round" stroke-linejoin="round" fill="none"/><path d="M43.95 8.78906 31.6453 8.78906" stroke="#66737C" stroke-width="3.33333" stroke-linecap="round" stroke-linejoin="round" fill="none"/></svg>