<svg width="44.8" height="44.8" viewBox="-1.1 -1.1 16.2 16.2" xmlns="http://www.w3.org/2000/svg" xmlns:xlink="http://www.w3.org/1999/xlink" id="Business-To-Consumer--Streamline-Core" stroke-width="3.2" fill="none" overflow="hidden"><g id="business-to-consumer--business-to-consumer-b2c-type-contract"><path d="M1.5 10C1.5 11.1046 2.39543 12 3.5 12L5.375 12" id="vector-3780" stroke="#66737C" stroke-width="0.952381" stroke-linecap="round" stroke-linejoin="round"/><path d="M4 13.5 5.5 12 4 10.5" id="vector-3781" stroke="#66737C" stroke-width="0.952381" stroke-linecap="round" stroke-linejoin="round"/><path d="M8.625 2 10.5 2C11.6046 2 12.5 2.89543 12.5 4" id="vector-3782" stroke="#66737C" stroke-width="0.952381" stroke-linecap="round" stroke-linejoin="round"/><path d="M10 0.5 8.5 2 10 3.5" id="vector-3783" stroke="#66737C" stroke-width="0.952381" stroke-linecap="round" stroke-linejoin="round"/><path d="M0 1.25C0 1.94036 0.559644 2.5 1.25 2.5 1.94036 2.5 2.5 1.94036 2.5 1.25 2.5 0.559644 1.94036 -2.22045e-16 1.25 -2.22045e-16 0.559644 -4.44089e-16 0 0.559644 0 1.25" id="ellipse-1134" stroke="#66737C" stroke-width="0.952381" stroke-linecap="round" stroke-linejoin="round" transform="matrix(-1 0 0 1 11.75 6.5)"/><path d="M8 13C8 11.6193 9.11929 10.5 10.5 10.5 11.8807 10.5 13 11.6193 13 13" id="ellipse-1137" stroke="#66737C" stroke-width="0.952381" stroke-linecap="round" stroke-linejoin="round"/><path d="M0.5 3C0.5 2.72386 0.723858 2.5 1 2.5L6 2.5C6.27614 2.5 6.5 2.72386 6.5 3L6.5 6C6.5 6.27614 6.27614 6.5 6 6.5L1 6.5C0.723858 6.5 0.5 6.27614 0.5 6L0.5 3Z" id="rectangle-2169" stroke="#66737C" stroke-width="0.952381" stroke-linejoin="round"/><path d="M2.25 2.5 2.25 1.75C2.25 1.05964 2.80964 0.5 3.5 0.5L3.5 0.5C4.19036 0.5 4.75 1.05964 4.75 1.75L4.75 2.5" id="vector-4854" stroke="#66737C" stroke-width="0.952381" stroke-linecap="round" stroke-linejoin="round"/></g></svg>