<svg width="60" height="60" viewBox="-1.875 -1.875 60 60" xmlns="http://www.w3.org/2000/svg" xmlns:xlink="http://www.w3.org/1999/xlink" id="Calendar-3--Streamline-Ultimate" fill="none" overflow="hidden"><path d="M50.9766 8.78906 5.27344 8.78906C3.3318 8.78906 1.75781 10.3631 1.75781 12.3047L1.75781 50.9766C1.75781 52.9181 3.3318 54.4922 5.27344 54.4922L50.9766 54.4922C52.9181 54.4922 54.4922 52.9181 54.4922 50.9766L54.4922 12.3047C54.4922 10.3631 52.9181 8.78906 50.9766 8.78906Z" stroke="#66737C" stroke-width="3.33333" stroke-linecap="round" stroke-linejoin="round"/><path d="M1.75781 22.8516 54.4922 22.8516" stroke="#66737C" stroke-width="3.33333" stroke-linecap="round" stroke-linejoin="round"/><path d="M15.8203 14.0625 15.8203 1.75781" stroke="#66737C" stroke-width="3.33333" stroke-linecap="round" stroke-linejoin="round"/><path d="M40.4297 14.0625 40.4297 1.75781" stroke="#66737C" stroke-width="3.33333" stroke-linecap="round" stroke-linejoin="round"/><path d="M13.1836 33.3984C12.6982 33.3984 12.3047 33.0049 12.3047 32.5195 12.3047 32.0341 12.6982 31.6406 13.1836 31.6406" stroke="#66737C" stroke-width="3.33333"/><path d="M13.1836 33.3984C13.669 33.3984 14.0625 33.0049 14.0625 32.5195 14.0625 32.0341 13.669 31.6406 13.1836 31.6406" stroke="#66737C" stroke-width="3.33333"/><path d="M13.1836 45.7031C12.6982 45.7031 12.3047 45.3096 12.3047 44.8242 12.3047 44.3388 12.6982 43.9453 13.1836 43.9453" stroke="#66737C" stroke-width="3.33333"/><path d="M13.1836 45.7031C13.669 45.7031 14.0625 45.3096 14.0625 44.8242 14.0625 44.3388 13.669 43.9453 13.1836 43.9453" stroke="#66737C" stroke-width="3.33333"/><path d="M28.125 33.3984C27.6396 33.3984 27.2461 33.0049 27.2461 32.5195 27.2461 32.0341 27.6396 31.6406 28.125 31.6406" stroke="#66737C" stroke-width="3.33333"/><path d="M28.125 33.3984C28.6104 33.3984 29.0039 33.0049 29.0039 32.5195 29.0039 32.0341 28.6104 31.6406 28.125 31.6406" stroke="#66737C" stroke-width="3.33333"/><g><path d="M28.125 45.7031C27.6396 45.7031 27.2461 45.3096 27.2461 44.8242 27.2461 44.3388 27.6396 43.9453 28.125 43.9453" stroke="#66737C" stroke-width="3.33333"/><path d="M28.125 45.7031C28.6104 45.7031 29.0039 45.3096 29.0039 44.8242 29.0039 44.3388 28.6104 43.9453 28.125 43.9453" stroke="#66737C" stroke-width="3.33333"/></g><g><path d="M43.0664 33.3984C42.581 33.3984 42.1875 33.0049 42.1875 32.5195 42.1875 32.0341 42.581 31.6406 43.0664 31.6406" stroke="#66737C" stroke-width="3.33333"/><path d="M43.0664 33.3984C43.5518 33.3984 43.9453 33.0049 43.9453 32.5195 43.9453 32.0341 43.5518 31.6406 43.0664 31.6406" stroke="#66737C" stroke-width="3.33333"/></g><g><path d="M43.0664 45.7031C42.581 45.7031 42.1875 45.3096 42.1875 44.8242 42.1875 44.3388 42.581 43.9453 43.0664 43.9453" stroke="#66737C" stroke-width="3.33333"/><path d="M43.0664 45.7031C43.5518 45.7031 43.9453 45.3096 43.9453 44.8242 43.9453 44.3388 43.5518 43.9453 43.0664 43.9453" stroke="#66737C" stroke-width="3.33333"/></g></svg>