<svg width="60" height="60" viewBox="-1.875 -1.875 60 60" xmlns="http://www.w3.org/2000/svg" xmlns:xlink="http://www.w3.org/1999/xlink" id="Car-Engine-4--Streamline-Ultimate" fill="none" overflow="hidden"><path d="M24.4078 19.1674 23.2875 18.047 38.2031 3.13141C38.6384 2.69595 39.1552 2.3505 39.7242 2.11481 40.293 1.87912 40.9027 1.75781 41.5184 1.75781 42.1341 1.75781 42.7439 1.87912 43.3127 2.11481 43.8816 2.3505 44.3984 2.69595 44.8336 3.13141L53.1188 11.4166C53.5542 11.8519 53.8997 12.3687 54.1355 12.9375 54.371 13.5064 54.4924 14.1161 54.4924 14.7318 54.4924 15.3475 54.371 15.9572 54.1355 16.5261 53.8997 17.0949 53.5542 17.6118 53.1188 18.047L38.2031 32.9627 36.7031 31.5166" stroke="#66737C" stroke-width="3.57143" stroke-linecap="round" stroke-linejoin="round"/><path d="M37.582 19.5471C37.0966 19.5471 36.7031 19.1536 36.7031 18.6682 36.7031 18.1828 37.0966 17.7893 37.582 17.7893" stroke="#66737C" stroke-width="3.57143"/><path d="M37.582 19.5471C38.0674 19.5471 38.4609 19.1536 38.4609 18.6682 38.4609 18.1828 38.0674 17.7893 37.582 17.7893" stroke="#66737C" stroke-width="3.57143"/><path d="M35.7188 5.6179 50.632 20.5312" stroke="#66737C" stroke-width="3.57143" stroke-linecap="round" stroke-linejoin="round"/><path d="M17.6883 43.5328 34.8891 26.332 29.918 21.361 12.7172 38.5617C10.9628 37.9362 9.04781 37.9261 7.28705 38.5334 5.52628 39.1406 4.02462 40.3291 3.02899 41.9032 2.03336 43.4773 1.60305 45.3434 1.80883 47.1947 2.01461 49.0458 2.84423 50.7717 4.16126 52.0887 5.47828 53.4059 7.20429 54.2353 9.05543 54.4411 10.9066 54.6469 12.7726 54.2166 14.3468 53.2209 15.9208 52.2253 17.1093 50.7237 17.7166 48.963 18.3239 47.2022 18.3139 45.2871 17.6883 43.5328Z" stroke="#66737C" stroke-width="3.57143" stroke-linecap="round" stroke-linejoin="round"/><path d="M9.96094 47.4609C9.31373 47.4609 8.78906 46.9362 8.78906 46.2891 8.78906 45.642 9.31373 45.1172 9.96094 45.1172" stroke="#66737C" stroke-width="3.57143"/><path d="M9.96094 47.4609C10.6081 47.4609 11.1328 46.9362 11.1328 46.2891 11.1328 45.642 10.6081 45.1172 9.96094 45.1172" stroke="#66737C" stroke-width="3.57143"/></svg>