<svg width="60" height="60" viewBox="-1.875 -1.875 60 60" xmlns="http://www.w3.org/2000/svg" xmlns:xlink="http://www.w3.org/1999/xlink" id="Car-Engine-5--Streamline-Ultimate" fill="none" overflow="hidden"><path d="M28.1459 41.2957C27.5133 41.2957 27.0002 40.7827 27.0002 40.1501 27.0002 39.5173 27.5133 39.0042 28.1459 39.0042" stroke="#66737C" stroke-width="3.57143"/><path d="M28.1459 41.2957C28.7787 41.2957 29.2915 40.7827 29.2915 40.1501 29.2915 39.5173 28.7787 39.0042 28.1459 39.0042" stroke="#66737C" stroke-width="3.57143"/><path d="M34.7655 47.0102C35.3562 47.2486 36.0131 47.2655 36.6152 47.0578 37.2173 46.8502 37.7241 46.432 38.0423 45.8803 38.3606 45.3286 38.4687 44.6805 38.347 44.0552 38.2254 43.4302 37.8818 42.87 37.38 42.4779 37.0273 42.2009 36.7423 41.8472 36.5461 41.4436 36.3502 41.0402 36.2482 40.5975 36.2482 40.1489 36.2482 39.7003 36.3502 39.2576 36.5461 38.8542 36.7423 38.4506 37.0273 38.097 37.38 37.8197 37.8818 37.428 38.2254 36.8681 38.347 36.243 38.4687 35.6182 38.3602 34.9702 38.0419 34.4189 37.7234 33.8674 37.2164 33.4498 36.6145 33.2428 36.0124 33.0356 35.3557 33.0532 34.7655 33.292 34.3491 33.4591 33.9 33.5292 33.4523 33.4971 33.0047 33.4652 32.5702 33.3321 32.1816 33.1076 31.793 32.8833 31.4606 32.5734 31.2091 32.2017 30.9577 31.83 30.7941 31.406 30.7305 30.9619 30.6391 30.3335 30.3246 29.7593 29.8446 29.344 29.3646 28.9287 28.751 28.7002 28.1161 28.7002 27.4814 28.7002 26.8678 28.9287 26.3876 29.344 25.9076 29.7593 25.593 30.3335 25.5016 30.9619 25.4374 31.4046 25.2738 31.8272 25.0228 32.1977 24.7718 32.5683 24.4402 32.8772 24.0527 33.1012 23.6653 33.3253 23.2323 33.4584 22.786 33.4912 22.3397 33.5238 21.8918 33.4549 21.4759 33.2897 20.8852 33.0516 20.2284 33.0347 19.6263 33.2423 19.0242 33.45 18.5174 33.8681 18.1991 34.4198 17.8809 34.9716 17.7726 35.6196 17.8943 36.2447 18.0161 36.8698 18.3595 37.4299 18.8614 37.822 19.2141 38.0993 19.4992 38.453 19.6952 38.8563 19.8913 39.2599 19.9931 39.7027 19.9931 40.1512 19.9931 40.5998 19.8913 41.0423 19.6952 41.4459 19.4992 41.8493 19.2141 42.203 18.8614 42.4802 18.3595 42.8721 18.0161 43.432 17.8945 44.0569 17.7728 44.682 17.8812 45.3298 18.1996 45.8812 18.5179 46.4325 19.0249 46.8502 19.627 47.0573 20.229 47.2643 20.8857 47.247 21.4759 47.0079 21.8924 46.841 22.3414 46.7709 22.789 46.8028 23.2366 46.8347 23.6712 46.968 24.0598 47.1923 24.4484 47.4169 24.7809 47.7265 25.0322 48.0982 25.2837 48.4699 25.4473 48.8939 25.5108 49.3383 25.6022 49.9664 25.9167 50.5409 26.3967 50.9562 26.877 51.3715 27.4905 51.6 28.1252 51.6 28.7602 51.6 29.3738 51.3715 29.8538 50.9562 30.3337 50.5409 30.6483 49.9664 30.7397 49.3383 30.8039 48.8953 30.9677 48.4727 31.2185 48.1022 31.4695 47.7316 31.8012 47.423 32.1886 47.1989 32.576 46.9748 33.0091 46.8415 33.4554 46.8089 33.9016 46.7761 34.3498 46.845 34.7655 47.0102L34.7655 47.0102Z" stroke="#66737C" stroke-width="3.57143" stroke-linecap="round" stroke-linejoin="round"/><path d="M12.4732 21.6912 9.49451 23.4029 2.64802 11.4811C2.34548 10.9542 2.2646 10.3287 2.42316 9.7422 2.58171 9.15567 2.96672 8.65613 3.49352 8.35343L13.4287 2.64802C13.9556 2.34548 14.5811 2.2646 15.1676 2.42316 15.7541 2.58171 16.2537 2.96672 16.5564 3.49352L23.4029 15.4084 20.4218 17.1223" stroke="#66737C" stroke-width="3.57143" stroke-linecap="round" stroke-linejoin="round"/><path d="M20.3485 33.1043 12.7551 19.8787 18.7148 16.4555 26.2097 29.5092" stroke="#66737C" stroke-width="3.57143" stroke-linecap="round" stroke-linejoin="round"/><path d="M34.8525 23.79 32.2291 21.5674 41.1195 11.08C41.5123 10.6168 42.0731 10.3286 42.6785 10.2788 43.2839 10.229 43.8844 10.4216 44.348 10.8142L53.0962 18.2198C53.3259 18.4144 53.5148 18.6524 53.6527 18.9201 53.7902 19.1879 53.8739 19.4801 53.8985 19.7801 53.9231 20.0801 53.8884 20.3821 53.7966 20.6688 53.7045 20.9554 53.5568 21.221 53.362 21.4506L44.4738 31.938 41.8502 29.7155" stroke="#66737C" stroke-width="3.57143" stroke-linecap="round" stroke-linejoin="round"/><path d="M30.6389 30.5337 36.6513 23.4375 41.8962 27.8827 37.1416 33.492" stroke="#66737C" stroke-width="3.57143" stroke-linecap="round" stroke-linejoin="round"/></svg>