<svg width="60" height="60" viewBox="-1.875 -1.875 60 60" xmlns="http://www.w3.org/2000/svg" xmlns:xlink="http://www.w3.org/1999/xlink" id="Car-Dashboard-Speed--Streamline-Ultimate" overflow="hidden"><path d="M1.75781 28.125C1.75781 42.6872 13.5628 54.4922 28.125 54.4922 42.6872 54.4922 54.4922 42.6872 54.4922 28.125 54.4922 13.5628 42.6872 1.75781 28.125 1.75781 13.5628 1.75781 1.75781 13.5628 1.75781 28.125Z" stroke="#66737C" stroke-width="3.33333" stroke-linecap="round" stroke-linejoin="round" fill="none"/><path d="M24.6094 26.3672C24.6094 28.3088 26.1834 29.8828 28.125 29.8828 30.0666 29.8828 31.6406 28.3088 31.6406 26.3672 31.6406 24.4256 30.0666 22.8516 28.125 22.8516 26.1834 22.8516 24.6094 24.4256 24.6094 26.3672Z" stroke="#66737C" stroke-width="3.33333" stroke-linecap="round" stroke-linejoin="round" fill="none"/><path d="M38.6719 40.4297C38.6719 42.3713 37.0979 43.9453 35.1562 43.9453L21.0938 43.9453C19.1521 43.9453 17.5781 42.3713 17.5781 40.4297 17.5781 38.4881 19.1521 36.9141 21.0938 36.9141L35.1562 36.9141C37.0979 36.9141 38.6719 38.4881 38.6719 40.4297Z" stroke="#66737C" stroke-width="3.33333" stroke-linecap="round" stroke-linejoin="round" fill="none"/><path d="M21.5109 8.19844 22.7133 11.5008" stroke="#66737C" stroke-width="3.33333" stroke-linecap="round" stroke-linejoin="round" fill="none"/><path d="M11.3789 16.6992 14.4234 18.457" stroke="#66737C" stroke-width="3.33333" stroke-linecap="round" stroke-linejoin="round" fill="none"/><path d="M9.08203 29.7258 12.5461 29.1141" stroke="#66737C" stroke-width="3.33333" stroke-linecap="round" stroke-linejoin="round" fill="none"/><path d="M34.7391 8.19844 33.5367 11.5008" stroke="#66737C" stroke-width="3.33333" stroke-linecap="round" stroke-linejoin="round" fill="none"/><path d="M44.8711 16.6992 31.1695 24.6094" stroke="#66737C" stroke-width="3.33333" stroke-linecap="round" stroke-linejoin="round" fill="none"/><path d="M47.168 29.7258 43.7039 29.1141" stroke="#66737C" stroke-width="3.33333" stroke-linecap="round" stroke-linejoin="round" fill="none"/></svg>