<svg width="60" height="60" viewBox="-1.875 -1.875 60 60" xmlns="http://www.w3.org/2000/svg" xmlns:xlink="http://www.w3.org/1999/xlink" id="Car-Tool-Battery--Streamline-Ultimate" overflow="hidden"><defs></defs><path d="M4.10156 12.3047 52.1484 12.3047C52.1484 12.3047 54.4922 12.3047 54.4922 14.6484L54.4922 45.1172C54.4922 45.1172 54.4922 47.4609 52.1484 47.4609L4.10156 47.4609C4.10156 47.4609 1.75781 47.4609 1.75781 45.1172L1.75781 14.6484C1.75781 14.6484 1.75781 12.3047 4.10156 12.3047" stroke="#66737C" stroke-width="3.33333" stroke-linecap="round" stroke-linejoin="round" fill="none"/><path d="M11.1328 5.27344 16.9922 5.27344C18.2866 5.27344 19.3359 6.32277 19.3359 7.61719L19.3359 12.3047 19.3359 12.3047 8.78906 12.3047 8.78906 12.3047 8.78906 7.61719C8.78906 6.32277 9.8384 5.27344 11.1328 5.27344Z" stroke="#66737C" stroke-width="3.33333" stroke-linecap="round" stroke-linejoin="round" fill="none"/><path d="M47.4609 12.3047 36.9141 12.3047 36.9141 12.3047 36.9141 7.61719C36.9141 6.32277 37.9634 5.27344 39.2578 5.27344L45.1172 5.27344C46.4116 5.27344 47.4609 6.32277 47.4609 7.61719L47.4609 12.3047 47.4609 12.3047Z" stroke="#66737C" stroke-width="3.33333" stroke-linecap="round" stroke-linejoin="round" fill="none"/><path d="M8.78906 29.8828 15.8203 29.8828" stroke="#66737C" stroke-width="3.33333" stroke-linecap="round" stroke-linejoin="round" fill="none"/><path d="M40.4297 29.8828 47.4609 29.8828" stroke="#66737C" stroke-width="3.33333" stroke-linecap="round" stroke-linejoin="round" fill="none"/><path d="M43.9453 26.3672 43.9453 33.3984" stroke="#66737C" stroke-width="3.33333" stroke-linecap="round" stroke-linejoin="round" fill="none"/></svg>