<svg width="60" height="60" viewBox="-1.875 -1.875 60 60" xmlns="http://www.w3.org/2000/svg" xmlns:xlink="http://www.w3.org/1999/xlink" id="Cash-Toggle--Streamline-Ultimate" overflow="hidden"><path d="M24.7172 5.71172C26.4127 7.5938 29.3129 7.74505 31.195 6.04955 31.3134 5.94288 31.4261 5.83012 31.5328 5.71172L33.7359 3.27187C35.4345 1.38902 38.3377 1.23959 40.2206 2.9381 41.247 3.86402 41.8016 5.2031 41.7305 6.58359L41.5617 9.86484C41.4329 12.3986 43.3825 14.5571 45.9163 14.6859 46.0717 14.6938 46.2274 14.6938 46.3828 14.6859L49.6641 14.5195C52.1968 14.3947 54.3511 16.3466 54.476 18.8793 54.5438 20.2549 53.9905 21.5882 52.9688 22.5117L50.5266 24.7172C48.6445 26.4166 48.4964 29.3199 50.1957 31.202 50.3003 31.3178 50.4107 31.4282 50.5266 31.5328L52.9688 33.7359C54.8516 35.4345 55.001 38.3377 53.3025 40.2206 52.3766 41.247 51.0375 41.8016 49.657 41.7305L46.3758 41.5617C43.842 41.433 41.6836 43.3826 41.5548 45.9164 41.5469 46.071 41.5469 46.2259 41.5547 46.3805L41.7234 49.6617C41.8466 52.1945 39.8933 54.3476 37.3605 54.4708 35.9885 54.5375 34.6586 53.9864 33.7359 52.9688L31.5328 50.5289C29.8334 48.6468 26.9301 48.4987 25.048 50.1981 24.9322 50.3027 24.8218 50.4131 24.7172 50.5289L22.5141 52.9688C20.8077 54.8445 17.9038 54.9818 16.0281 53.2754 15.0166 52.3553 14.4679 51.0323 14.5312 49.6664L14.7 46.3852C14.8332 43.8542 12.8894 41.6944 10.3585 41.5612 10.1948 41.5526 10.0308 41.5528 9.86719 41.5617L6.58594 41.7305C4.05333 41.8568 1.89779 39.9062 1.7714 37.3736 1.70265 35.9958 2.25704 34.6601 3.28125 33.7359L5.72344 31.5328C7.60552 29.8334 7.75364 26.9301 6.05427 25.048 5.94968 24.9322 5.83926 24.8218 5.72344 24.7172L3.28125 22.5117C1.40687 20.8039 1.27188 17.8999 2.97974 16.0255 3.89916 15.0164 5.21991 14.4688 6.58359 14.5312L9.86484 14.6977C12.3958 14.8308 14.5555 12.887 14.6886 10.356 14.6972 10.1932 14.6971 10.03 14.6883 9.86719L14.5312 6.58359C14.4138 4.05055 16.372 1.90189 18.905 1.78442 20.2709 1.72108 21.5939 2.2698 22.5141 3.28125Z" stroke="#66737C" stroke-width="3.33333" stroke-linecap="round" stroke-linejoin="round" fill="none"/><path d="M32.5195 21.0938 26.3672 21.0938C24.6314 21.0882 23.2198 22.4909 23.2142 24.2267 23.2101 25.5176 23.9958 26.6798 25.1953 27.157L31.418 29.0906C33.0308 29.7358 33.8153 31.5663 33.1701 33.1792 32.6919 34.3745 31.5335 35.1577 30.2461 35.1563L22.8516 35.1562" stroke="#66737C" stroke-width="3.33333" stroke-linecap="round" stroke-linejoin="round" fill="none"/><path d="M28.125 21.0938 28.125 17.5781" stroke="#66737C" stroke-width="3.33333" stroke-linecap="round" stroke-linejoin="round" fill="none"/><path d="M28.125 38.6719 28.125 35.1562" stroke="#66737C" stroke-width="3.33333" stroke-linecap="round" stroke-linejoin="round" fill="none"/></svg>