<svg width="60" height="60" viewBox="-2.14 -2.14 60 60" xmlns="http://www.w3.org/2000/svg" xmlns:xlink="http://www.w3.org/1999/xlink" id="Cash-Network--Streamline-Ultimate.svg" overflow="hidden"><path d="M1.74125 6.965C1.74125 9.85 4.08 12.1888 6.965 12.1888 9.85 12.1888 12.1888 9.85 12.1888 6.965 12.1888 4.08 9.85 1.74125 6.965 1.74125 4.08 1.74125 1.74125 4.08 1.74125 6.965Z" stroke="#66737C" stroke-width="3.57143" stroke-linecap="round" stroke-linejoin="round" fill="none"/><path d="M11.1951 10.0319 15.6713 13.2776" stroke="#66737C" stroke-width="3.57143" stroke-linecap="round" stroke-linejoin="round" fill="none"/><path d="M1.74125 48.755C1.74125 51.64 4.08 53.9788 6.965 53.9788 9.85 53.9788 12.1888 51.64 12.1888 48.755 12.1888 45.87 9.85 43.5312 6.965 43.5312 4.08 43.5312 1.74125 45.87 1.74125 48.755Z" stroke="#66737C" stroke-width="3.57143" stroke-linecap="round" stroke-linejoin="round" fill="none"/><path d="M11.1951 45.6881 15.6713 42.4401" stroke="#66737C" stroke-width="3.57143" stroke-linecap="round" stroke-linejoin="round" fill="none"/><path d="M43.5312 6.965C43.5312 9.85 45.87 12.1888 48.755 12.1888 51.64 12.1888 53.9788 9.85 53.9788 6.965 53.9788 4.08 51.64 1.74125 48.755 1.74125 45.87 1.74125 43.5312 4.08 43.5312 6.965Z" stroke="#66737C" stroke-width="3.57143" stroke-linecap="round" stroke-linejoin="round" fill="none"/><path d="M44.5249 10.0319 40.0488 13.2776" stroke="#66737C" stroke-width="3.57143" stroke-linecap="round" stroke-linejoin="round" fill="none"/><path d="M43.5312 48.755C43.5312 51.64 45.87 53.9788 48.755 53.9788 51.64 53.9788 53.9788 51.64 53.9788 48.755 53.9788 45.87 51.64 43.5312 48.755 43.5312 45.87 43.5312 43.5312 45.87 43.5312 48.755Z" stroke="#66737C" stroke-width="3.57143" stroke-linecap="round" stroke-linejoin="round" fill="none"/><path d="M44.5249 45.6881 40.0488 42.4401" stroke="#66737C" stroke-width="3.57143" stroke-linecap="round" stroke-linejoin="round" fill="none"/><path d="M22.6362 33.0838C22.6362 35.9688 24.975 38.3075 27.86 38.3075 30.745 38.3075 33.0837 35.9688 33.0837 33.0838 33.0837 30.1988 30.745 27.86 27.86 27.86 24.975 27.86 22.6362 25.5212 22.6362 22.6363 22.6362 19.7513 24.975 17.4125 27.86 17.4125 30.745 17.4125 33.0837 19.7513 33.0837 22.6363" stroke="#66737C" stroke-width="3.57143" stroke-linecap="round" stroke-linejoin="round" fill="none"/><path d="M27.86 13.93 27.86 17.4125" stroke="#66737C" stroke-width="3.57143" stroke-linecap="round" stroke-linejoin="round" fill="none"/><path d="M27.86 38.3075 27.86 41.79" stroke="#66737C" stroke-width="3.57143" stroke-linecap="round" stroke-linejoin="round" fill="none"/></svg>