<svg width="60" height="60" viewBox="-1.875 -1.875 60 60" xmlns="http://www.w3.org/2000/svg" xmlns:xlink="http://www.w3.org/1999/xlink" id="Casino-Chip-Diamond--Streamline-Ultimate" overflow="hidden"><g><g><path d="M38.6719 36.9375 38.6719 54.5156" stroke="#66737C" stroke-width="3.57143" stroke-linecap="round" stroke-linejoin="round" fill="none"/><path d="M38.6719 54.5156 53.9062 37.9453C54.5561 37.3283 54.6464 36.3247 54.1172 35.6016L47.9062 27.0469C47.5829 26.561 47.0368 26.2703 46.4531 26.2734L30.75 26.2734C30.1663 26.2703 29.6203 26.561 29.2969 27.0469L23.1562 35.7188C22.627 36.4418 22.7174 37.4455 23.3672 38.0625L38.6719 54.6328" stroke="#66737C" stroke-width="3.57143" stroke-linecap="round" stroke-linejoin="round" fill="none"/><path d="M22.875 36.9375 54.4688 36.9375" stroke="#66737C" stroke-width="3.57143" stroke-linecap="round" stroke-linejoin="round" fill="none"/><path d="M29.3672 27.1641 38.6719 36.9375 47.9766 27.1641" stroke="#66737C" stroke-width="3.57143" stroke-linecap="round" stroke-linejoin="round" fill="none"/></g><g><path d="M15.8203 42.7266C4.84091 38.8318-0.902303 26.7738 2.9925 15.7944 6.8873 4.81502 18.9452-0.928184 29.9246 2.96661 37.1212 5.51951 42.3762 11.7625 43.6641 19.2891" stroke="#66737C" stroke-width="3.57143" stroke-linecap="round" stroke-linejoin="round" fill="none"/><path d="M14.25 31.6172C11.873 29.3122 10.5361 26.1392 10.5469 22.8281 10.5519 16.0324 16.0649 10.5275 22.8606 10.5325 28.2954 10.5365 33.0838 14.1055 34.6406 19.3125" stroke="#66737C" stroke-width="3.57143" stroke-linecap="round" stroke-linejoin="round" fill="none"/></g></g></svg>