<svg width="60" height="60" viewBox="-1.875 -1.875 60 60" xmlns="http://www.w3.org/2000/svg" xmlns:xlink="http://www.w3.org/1999/xlink" id="Casino-777-Winner--Streamline-Ultimate" overflow="hidden"><path d="M26.3672 33.3984C26.3672 37.2817 32.6632 40.4297 40.4297 40.4297 48.1962 40.4297 54.4922 37.2817 54.4922 33.3984 54.4922 29.5152 48.1962 26.3672 40.4297 26.3672 32.6632 26.3672 26.3672 29.5152 26.3672 33.3984Z" stroke="#66737C" stroke-width="3.57143" stroke-linecap="round" stroke-linejoin="round" fill="none"/><path d="M26.3672 33.3984 26.3672 47.4609C26.3672 51.3445 32.6625 54.4922 40.4297 54.4922 48.1969 54.4922 54.4922 51.3445 54.4922 47.4609L54.4922 33.3984" stroke="#66737C" stroke-width="3.57143" stroke-linecap="round" stroke-linejoin="round" fill="none"/><path d="M54.4922 40.4297C54.4922 44.3133 48.1969 47.4609 40.4297 47.4609 32.6625 47.4609 26.3672 44.3133 26.3672 40.4297" stroke="#66737C" stroke-width="3.57143" stroke-linecap="round" stroke-linejoin="round" fill="none"/><path d="M8.78906 8.78906 13.2844 8.78906C14.2552 8.79214 15.0397 9.58162 15.0366 10.5524 15.036 10.7611 14.9982 10.9679 14.925 11.1633L10.5469 22.8516" stroke="#66737C" stroke-width="3.57143" stroke-linecap="round" stroke-linejoin="round" fill="none"/><path d="M24.6094 8.78906 29.1047 8.78906C30.0755 8.79214 30.86 9.58162 30.8569 10.5524 30.8563 10.7611 30.8185 10.9679 30.7453 11.1633L26.3672 22.8516" stroke="#66737C" stroke-width="3.57143" stroke-linecap="round" stroke-linejoin="round" fill="none"/><path d="M40.4297 8.78906 44.925 8.78906C45.8958 8.79214 46.6803 9.58162 46.6772 10.5524 46.6766 10.7611 46.6388 10.9679 46.5656 11.1633L43.5047 19.3359" stroke="#66737C" stroke-width="3.57143" stroke-linecap="round" stroke-linejoin="round" fill="none"/><path d="M17.5781 29.8828 5.27344 29.8828C3.33181 29.8828 1.75781 28.3088 1.75781 26.3672L1.75781 5.27344C1.75781 3.33181 3.33181 1.75781 5.27344 1.75781L50.9766 1.75781C52.9182 1.75781 54.4922 3.33181 54.4922 5.27344L54.4922 22.8516" stroke="#66737C" stroke-width="3.57143" stroke-linecap="round" stroke-linejoin="round" fill="none"/></svg>