<svg width="60" height="60" viewBox="-1.875 -1.875 60 60" xmlns="http://www.w3.org/2000/svg" xmlns:xlink="http://www.w3.org/1999/xlink" id="Ceramic-Painting--Streamline-Ultimate" overflow="hidden"><defs></defs><path d="M34.5141 24.0516C37.193 29.2805 41.1047 28.2844 43.3852 32.8922 45.0595 36.0952 43.8202 40.0491 40.6172 41.7234 37.4142 43.3978 33.4603 42.1585 31.7859 38.9555 30.8695 37.2023 30.7031 31.043 34.5141 24.0516Z" stroke="#66737C" stroke-width="3.57143" stroke-linecap="round" stroke-linejoin="round" fill="none"/><path d="M54.4359 53.2195 42.8719 39.7805" stroke="#66737C" stroke-width="3.57143" stroke-linecap="round" stroke-linejoin="round" fill="none"/><path d="M38.4562 42.4219 45.7711 55.0781" stroke="#66737C" stroke-width="3.57143" stroke-linecap="round" stroke-linejoin="round" fill="none"/><path d="M0.689062 19.9219 44.2687 19.9219" stroke="#66737C" stroke-width="3.57143" stroke-linecap="round" stroke-linejoin="round" fill="none"/><path d="M5.58516 31.6406 26.3109 31.6406" stroke="#66737C" stroke-width="3.57143" stroke-linecap="round" stroke-linejoin="round" fill="none"/><path d="M32.9813 46.9477C32.4363 49.6234 32.1646 52.3475 32.1703 55.0781L13.4203 55.0781C13.5184 45.5136 10.0028 36.2644 3.57656 29.1797-0.799016 24.3425-0.424822 16.8741 4.41235 12.4985 5.75151 11.2872 7.35061 10.399 9.08672 9.90234 10.274 9.56032 10.9918 8.35535 10.7273 7.14844 10.4987 5.73715 9.92554 4.40403 9.05859 3.26719 8.59387 2.75376 8.63336 1.96081 9.14679 1.49609 9.37997 1.28504 9.68394 1.16932 9.99844 1.17188" stroke="#66737C" stroke-width="3.57143" stroke-linecap="round" stroke-linejoin="round" fill="none"/><path d="M9.99844 1.17188 35.5922 1.17188C36.286 1.17047 36.8496 1.73177 36.851 2.42557 36.8516 2.73619 36.7371 3.03602 36.5297 3.26719 35.6611 4.40335 35.0871 5.73669 34.8586 7.14844 34.5941 8.35535 35.3119 9.56032 36.4992 9.90234 42.769 11.7005 46.3941 18.2408 44.596 24.5106 44.4682 24.9561 44.3143 25.3937 44.1352 25.8211" stroke="#66737C" stroke-width="3.57143" stroke-linecap="round" stroke-linejoin="round" fill="none"/></svg>