<svg width="60" height="60" viewBox="-2.14 -2.14 60 60" xmlns="http://www.w3.org/2000/svg" xmlns:xlink="http://www.w3.org/1999/xlink" id="Champagne-Glass--Streamline-Ultimate.svg" fill="none" overflow="hidden"><path d="M27.86 38.3075 27.86 54.5592" stroke="#66737C" stroke-width="3.57143" stroke-linecap="round" stroke-linejoin="round"/><path d="M22.0558 54.5592 33.6642 54.5592" stroke="#66737C" stroke-width="3.57143" stroke-linecap="round" stroke-linejoin="round"/><path d="M19.7342 15.0908 35.9858 15.0908" stroke="#66737C" stroke-width="3.57143" stroke-linecap="round" stroke-linejoin="round"/><path d="M18.5733 29.0208 20.8068 2.22416C20.8312 1.93429 20.9636 1.66416 21.1777 1.46724 21.3918 1.27033 21.6721 1.16097 21.963 1.16084L33.757 1.16084C34.0486 1.15981 34.33 1.26864 34.5452 1.46567 34.7602 1.6627 34.8933 1.93349 34.9179 2.22416L37.1467 29.0208C37.1467 31.4839 36.1683 33.846 34.4266 35.5874 32.6851 37.3292 30.3231 38.3075 27.86 38.3075 25.3969 38.3075 23.0349 37.3292 21.2933 35.5874 19.5518 33.846 18.5733 31.4839 18.5733 29.0208Z" stroke="#66737C" stroke-width="3.57143" stroke-linecap="round" stroke-linejoin="round"/><path d="M30.7621 22.0558C30.4415 22.0558 30.1817 21.796 30.1817 21.4754 30.1817 21.1549 30.4415 20.895 30.7621 20.895" stroke="#66737C" stroke-width="3.57143"/><path d="M30.7621 22.0558C31.0827 22.0558 31.3425 21.796 31.3425 21.4754 31.3425 21.1549 31.0827 20.895 30.7621 20.895" stroke="#66737C" stroke-width="3.57143"/><path d="M24.9579 26.6992C24.6373 26.6992 24.3775 26.4394 24.3775 26.1187 24.3775 25.7981 24.6373 25.5383 24.9579 25.5383" stroke="#66737C" stroke-width="3.57143"/><path d="M24.9579 26.6992C25.2785 26.6992 25.5383 26.4394 25.5383 26.1187 25.5383 25.7981 25.2785 25.5383 24.9579 25.5383" stroke="#66737C" stroke-width="3.57143"/><g><path d="M29.6012 32.5033C29.2806 32.5033 29.0208 32.2435 29.0208 31.9229 29.0208 31.6023 29.2806 31.3425 29.6012 31.3425" stroke="#66737C" stroke-width="3.57143"/><path d="M29.6012 32.5033C29.9219 32.5033 30.1817 32.2435 30.1817 31.9229 30.1817 31.6023 29.9219 31.3425 29.6012 31.3425" stroke="#66737C" stroke-width="3.57143"/></g></svg>