<svg width="60" height="60" viewBox="-1.875 -1.875 60 60" xmlns="http://www.w3.org/2000/svg" xmlns:xlink="http://www.w3.org/1999/xlink" id="Charger-1--Streamline-Ultimate" overflow="hidden"><path d="M28.125 40.4297 28.125 40.4297C20.3585 40.4297 14.0625 34.1337 14.0625 26.3672L14.0625 15.8203C14.0625 13.8787 15.6365 12.3047 17.5781 12.3047L38.6719 12.3047C40.6135 12.3047 42.1875 13.8787 42.1875 15.8203L42.1875 26.3672C42.1875 34.1337 35.8915 40.4297 28.125 40.4297Z" stroke="#66737C" stroke-width="3.33333" stroke-linecap="round" stroke-linejoin="round" fill="none"/><path d="M21.0938 38.5477 21.0938 43.9383C21.0938 45.8799 22.6677 47.4539 24.6094 47.4539L31.6406 47.4539C33.5823 47.4539 35.1562 45.8799 35.1562 43.9383L35.1562 38.5477" stroke="#66737C" stroke-width="3.33333" stroke-linecap="round" stroke-linejoin="round" fill="none"/><path d="M21.0938 12.3047 21.0938 1.75781" stroke="#66737C" stroke-width="3.33333" stroke-linecap="round" stroke-linejoin="round" fill="none"/><path d="M35.1562 12.3047 35.1562 1.75781" stroke="#66737C" stroke-width="3.33333" stroke-linecap="round" stroke-linejoin="round" fill="none"/><path d="M28.125 47.4609 28.125 54.4922" stroke="#66737C" stroke-width="3.33333" stroke-linecap="round" stroke-linejoin="round" fill="none"/></svg>