<svg width="60" height="60" viewBox="-1.875 -1.875 60 60" xmlns="http://www.w3.org/2000/svg" xmlns:xlink="http://www.w3.org/1999/xlink" id="Charging-Battery-Empty--Streamline-Ultimate" overflow="hidden"><path d="M36.9164 40.432 42.1875 40.432C44.1291 40.432 45.7031 38.858 45.7031 36.9164L45.7031 33.4008 49.2188 33.4008C51.1604 33.4008 52.7344 31.8268 52.7344 29.8852L52.7344 26.3695C52.7344 24.4279 51.1604 22.8539 49.2188 22.8539L45.7031 22.8539 45.7031 19.3383C45.7031 17.3967 44.1291 15.8227 42.1875 15.8227L36.9141 15.8227" stroke="#66737C" stroke-width="3.33333" stroke-linecap="round" stroke-linejoin="round" fill="none"/><path d="M14.0625 15.8227 7.03125 15.8227C5.08962 15.8227 3.51562 17.3967 3.51562 19.3383L3.51562 36.9164C3.51562 38.858 5.08962 40.432 7.03125 40.432L14.0625 40.432" stroke="#66737C" stroke-width="3.33333" stroke-linecap="round" stroke-linejoin="round" fill="none"/><path d="M28.1273 14.0648 14.0648 29.8852 21.0961 29.8852 21.0961 42.1898 35.1586 26.3695 28.1273 26.3695 28.1273 14.0648Z" stroke="#66737C" stroke-width="3.33333" stroke-linecap="round" stroke-linejoin="round" fill="none"/></svg>