<svg width="60" height="60" viewBox="-1.875 -1.875 60 60" xmlns="http://www.w3.org/2000/svg" xmlns:xlink="http://www.w3.org/1999/xlink" id="Charging-Battery-Almost-Full--Streamline-Ultimate" overflow="hidden"><g><path d="M47.4609 21.6797 47.4609 20.5078C47.4609 16.6246 44.3129 13.4766 40.4297 13.4766L8.78906 13.4766C4.90581 13.4766 1.75781 16.6246 1.75781 20.5078L1.75781 35.7422C1.75781 39.6254 4.90581 42.7734 8.78906 42.7734L40.4297 42.7734C44.3129 42.7734 47.4609 39.6254 47.4609 35.7422L47.4609 34.5703 50.9766 34.5703C52.9182 34.5703 54.4922 32.9963 54.4922 31.0547L54.4922 25.1953C54.4922 23.2537 52.9182 21.6797 50.9766 21.6797Z" stroke="#66737C" stroke-width="3.33333" stroke-linecap="round" stroke-linejoin="round" fill="none"/><path d="M12.8906 20.5078 12.8906 35.7422" stroke="#66737C" stroke-width="3.33333" stroke-linecap="round" stroke-linejoin="round" fill="none"/><path d="M23.4375 20.5078 23.4375 35.7422" stroke="#66737C" stroke-width="3.33333" stroke-linecap="round" stroke-linejoin="round" fill="none"/><path d="M33.9844 20.5078 33.9844 35.7422" stroke="#66737C" stroke-width="3.33333" stroke-linecap="round" stroke-linejoin="round" fill="none"/></g></svg>