<svg width="60" height="60" viewBox="-2.14 -2.14 60 60" xmlns="http://www.w3.org/2000/svg" xmlns:xlink="http://www.w3.org/1999/xlink" id="Chess-Rook-2--Streamline-Ultimate.svg" fill="none" overflow="hidden"><path d="M35.5805 21.6749 35.6443 21.6749 41.5894 16.2744C42.0737 15.8344 42.35 15.2104 42.35 14.5559L42.35 5.75713C42.35 4.4749 41.3106 3.43546 40.0283 3.43546L15.6898 3.43546C14.4076 3.43546 13.3682 4.4749 13.3682 5.75713L13.3682 14.5559C13.3682 15.2104 13.6443 15.8344 14.1287 16.2744L20.0737 21.6749 20.1383 21.6749 18.5833 40.9575 18.5402 40.9575 15.0242 44.0162C13.5038 45.3391 12.6309 47.2557 12.6309 49.2709L12.6309 52.2846 43.0873 52.2846 43.0873 49.2709C43.0873 47.2557 42.2144 45.3391 40.6939 44.0162L37.178 40.9575 37.1355 40.9575 35.5805 21.6749Z" stroke="#66737C" stroke-width="3.57143" stroke-linecap="round" stroke-linejoin="round"/><path d="M22.9582 8.89614 22.9582 3.4353" stroke="#66737C" stroke-width="3.57143" stroke-linecap="round" stroke-linejoin="round"/><path d="M32.7617 8.89614 32.7617 3.4353" stroke="#66737C" stroke-width="3.57143" stroke-linecap="round" stroke-linejoin="round"/><path d="M18.6096 40.9426 37.1093 40.9426" stroke="#66737C" stroke-width="3.57143" stroke-linecap="round" stroke-linejoin="round"/></svg>