<svg width="60" height="60" viewBox="-2.14 -2.14 60 60" xmlns="http://www.w3.org/2000/svg" xmlns:xlink="http://www.w3.org/1999/xlink" id="Chess-Knight-2--Streamline-Ultimate.svg" fill="none" overflow="hidden"><path d="M38.9473 7.48129C43.4981 13.1882 43.3669 20.2865 40.7209 25.2994 39.5027 27.6069 38.3837 30.0811 38.5021 32.6879L38.9074 41.6098 41.9697 44.6881C43.268 45.9931 43.9967 47.7592 43.9967 49.6001L43.9967 53.7039 14.2073 53.7039 14.2073 49.6001C14.2073 47.7592 14.9361 45.9931 16.2344 44.6881L18.95 41.9583C19.8961 35.765 22.2618 31.2856 24.1458 27.7181 24.4599 27.1236 24.7606 26.5543 25.0389 26.0068L20.0233 28.1247C17.9517 28.9995 15.5509 28.264 14.3247 26.379L12.0973 22.9546C11.4869 22.0163 11.633 20.776 12.4447 20.0052L21.3081 11.588C23.6188 9.27738 26.6358 8.10352 29.6639 8.06649L29.6642 2.01615C32.4509 2.21374 36.6893 4.64953 38.9473 7.48129Z" stroke="#66737C" stroke-width="3.57143" stroke-linecap="round" stroke-linejoin="round"/><path d="M18.3987 42.5501 39.8312 42.5501" stroke="#66737C" stroke-width="3.57143" stroke-linecap="round" stroke-linejoin="round"/></svg>