<svg width="60" height="60" viewBox="-2.14 -2.14 60 60" xmlns="http://www.w3.org/2000/svg" xmlns:xlink="http://www.w3.org/1999/xlink" id="Clean-Car-Leaf-1--Streamline-Ultimate.svg" overflow="hidden"><path d="M12.1888 31.3448C12.1888 33.2682 13.7479 34.8273 15.6713 34.8273 17.5946 34.8273 19.1537 33.2682 19.1537 31.3448 19.1537 29.4215 17.5946 27.8623 15.6712 27.8623 13.7479 27.8623 12.1887 29.4215 12.1887 31.3448Z" stroke="#66737C" stroke-width="3.57143" stroke-linecap="round" stroke-linejoin="round" fill="none"/><path d="M19.1537 31.3448 24.3752 31.3448" stroke="#66737C" stroke-width="3.57143" stroke-linecap="round" stroke-linejoin="round" fill="none"/><path d="M53.7582 22.6362C52.9641 19.5609 50.19 17.4122 47.0137 17.4125L42.7535 8.89198C42.164 7.71116 40.9576 6.96504 39.6378 6.965L21.2966 6.965C19.9774 6.96461 18.7711 7.70974 18.181 8.88966L13.93 17.4125 8.70625 17.4125C4.85959 17.4125 1.74125 20.5308 1.74125 24.3775L1.74125 27.86C1.74125 29.7833 3.30042 31.3425 5.22375 31.3425L12.1888 31.3425" stroke="#66737C" stroke-width="3.57143" stroke-linecap="round" stroke-linejoin="round" fill="none"/><path d="M13.93 17.4148 47.0137 17.4148" stroke="#66737C" stroke-width="3.57143" stroke-linecap="round" stroke-linejoin="round" fill="none"/><path d="M33.8476 42.9508C33.8476 42.9508 36.6823 48.755 41.4394 48.3185 51.0929 47.4363 50.4475 34.6044 53.9764 30.0725 47.9208 27.0572 40.7878 27.1219 34.7879 30.2467 29.787 33.0721 29.4318 37.8432 33.8476 42.9508Z" stroke="#66737C" stroke-width="3.57143" stroke-linecap="round" stroke-linejoin="round" fill="none"/><path d="M40.6756 37.0747C40.6756 37.0747 34.4117 37.8432 29.9495 48.755" stroke="#66737C" stroke-width="3.57143" stroke-linecap="round" stroke-linejoin="round" fill="none"/></svg>