<svg width="60" height="60" viewBox="-2.14 -2.14 60 60" xmlns="http://www.w3.org/2000/svg" xmlns:xlink="http://www.w3.org/1999/xlink" id="Cloud-Data-Transfer--Streamline-Ultimate.svg" overflow="hidden"><path d="M47.5942 33.4459C51.2397 31.7608 53.5249 28.0597 53.3983 24.0455 53.309 18.0056 48.3402 13.1818 42.3003 13.2712 42.1657 13.2731 42.0312 13.2776 41.8968 13.2846 39.2515 7.96041 33.805 4.60749 27.86 4.64333 19.7586 4.53465 12.9706 10.7471 12.3629 18.8264 7.9034 17.8459 3.49345 20.6662 2.51297 25.1257 2.39626 25.6565 2.33218 26.1976 2.32166 26.741 2.1286 30.3597 4.58576 33.5855 8.12583 34.3607" stroke="#66737C" stroke-width="3.57143" stroke-linecap="round" stroke-linejoin="round" fill="none"/><path d="M13.93 44.1117 20.895 51.0767 27.86 44.1117" stroke="#66737C" stroke-width="3.57143" stroke-linecap="round" stroke-linejoin="round" fill="none"/><path d="M20.895 51.0767 20.895 30.1817" stroke="#66737C" stroke-width="3.57143" stroke-linecap="round" stroke-linejoin="round" fill="none"/><path d="M27.86 37.1467 34.825 30.1817 41.79 37.1467" stroke="#66737C" stroke-width="3.57143" stroke-linecap="round" stroke-linejoin="round" fill="none"/><path d="M34.825 30.1817 34.825 51.0767" stroke="#66737C" stroke-width="3.57143" stroke-linecap="round" stroke-linejoin="round" fill="none"/></svg>