<svg width="60" height="60" viewBox="-2.14 -2.14 60 60" xmlns="http://www.w3.org/2000/svg" xmlns:xlink="http://www.w3.org/1999/xlink" id="Cocktail-Martini--Streamline-Ultimate.svg" overflow="hidden"><path d="M19.1584 53.9787 33.0884 53.9787" stroke="#66737C" stroke-width="3.57143" stroke-linecap="round" stroke-linejoin="round" fill="none"/><path d="M26.1234 53.9787 26.1234 33.0838" stroke="#66737C" stroke-width="3.57143" stroke-linecap="round" stroke-linejoin="round" fill="none"/><path d="M44.0443 15.1605C44.7239 14.4801 44.7232 13.3776 44.0428 12.698 43.7167 12.3723 43.2748 12.1892 42.8139 12.1888L9.43061 12.1888C8.46894 12.1896 7.69005 12.9699 7.69089 13.9315 7.6913 14.3924 7.87442 14.8344 8.20013 15.1605L26.1234 33.0838Z" stroke="#66737C" stroke-width="3.57143" stroke-linecap="round" stroke-linejoin="round" fill="none"/><path d="M1.74589 1.74125 8.29764 1.74125C9.61692 1.74086 10.8232 2.48599 11.4133 3.66591L15.6759 12.1888" stroke="#66737C" stroke-width="3.57143" stroke-linecap="round" stroke-linejoin="round" fill="none"/><path d="M36.745 12.1911C36.6293 11.6171 36.5709 11.033 36.5709 10.4475 36.5759 5.64302 40.4747 1.75224 45.2792 1.7572 50.0836 1.76216 53.9744 5.66098 53.9695 10.4655 53.9645 15.2699 50.0657 19.1607 45.2612 19.1558 43.8196 19.1543 42.4011 18.7946 41.133 18.109" stroke="#66737C" stroke-width="3.57143" stroke-linecap="round" stroke-linejoin="round" fill="none"/></svg>