<svg width="60" height="60" viewBox="-1.875 -1.875 60 60" xmlns="http://www.w3.org/2000/svg" xmlns:xlink="http://www.w3.org/1999/xlink" id="Coding-Apps-Website-Virus-Files-Alert-1--Streamline-Ultimate" fill="none" overflow="hidden"><path d="M49.3617 13.0336C50.0203 13.6927 50.3904 14.5862 50.3906 15.518L50.3906 49.2188C50.3899 49.9113 50.253 50.5969 49.9875 51.2365 49.7217 51.8761 49.3329 52.4571 48.8428 52.9463 48.3527 53.4356 47.771 53.8235 47.1309 54.0879 46.4909 54.3523 45.8051 54.4882 45.1125 54.4875L11.1258 54.4875C9.72921 54.4856 8.39041 53.9299 7.40309 52.942 6.41578 51.9544 5.86062 50.6154 5.85938 49.2188L5.85938 7.03125C5.85998 5.63405 6.41482 4.29415 7.40212 3.30553 8.38943 2.31691 9.72858 1.76029 11.1258 1.75781L36.6305 1.75781C37.5621 1.75801 38.4558 2.12808 39.1148 2.78672L49.3617 13.0336Z" stroke="#66737C" stroke-width="3.33333" stroke-linecap="round" stroke-linejoin="round"/><path d="M36.3281 1.75781 36.3281 12.3047C36.3281 13.2371 36.6984 14.1313 37.3577 14.7906 38.017 15.4499 38.9114 15.8203 39.8438 15.8203L50.3906 15.8203" stroke="#66737C" stroke-width="3.33333" stroke-linecap="round" stroke-linejoin="round"/><path d="M28.125 33.2953 28.125 26.557" stroke="#66737C" stroke-width="3.33333" stroke-linecap="round" stroke-linejoin="round"/><path d="M41.1797 39.3211C41.4832 39.9284 41.6266 40.6034 41.5959 41.2816 41.5655 41.9599 41.362 42.6192 41.0051 43.1967 40.6484 43.7742 40.1496 44.2512 39.5566 44.5819 38.9639 44.9128 38.2962 45.0865 37.6172 45.0867L18.6328 45.0867C17.9536 45.087 17.2857 44.9135 16.6924 44.5828 16.0992 44.2521 15.6003 43.7754 15.2431 43.1977 14.8859 42.6202 14.6824 41.9606 14.6517 41.2821 14.621 40.6036 14.7643 39.9286 15.068 39.3211L24.5602 20.3367C24.8909 19.6743 25.3995 19.1172 26.0292 18.7277 26.659 18.3383 27.3846 18.132 28.125 18.132 28.8654 18.132 29.591 18.3383 30.2208 18.7277 30.8505 19.1172 31.3591 19.6743 31.6898 20.3367L41.1797 39.3211Z" stroke="#66737C" stroke-width="3.33333" stroke-linecap="round" stroke-linejoin="round"/><path d="M28.1238 39.7781C27.8002 39.7781 27.5379 39.5159 27.5379 39.1922 27.5379 38.8685 27.8002 38.6063 28.1238 38.6063" stroke="#66737C" stroke-width="3.33333"/><path d="M28.1238 39.7781C28.4475 39.7781 28.7098 39.5159 28.7098 39.1922 28.7098 38.8685 28.4475 38.6063 28.1238 38.6063" stroke="#66737C" stroke-width="3.33333"/></svg>