<svg width="60" height="60" viewBox="-2.14 -2.14 60 60" xmlns="http://www.w3.org/2000/svg" xmlns:xlink="http://www.w3.org/1999/xlink" id="Coding-Apps-Website-Data-Conversion-Cube--Streamline-Ultimate.svg" overflow="hidden"><defs></defs><path d="M21.4754 28.4404 21.4754 8.12583 15.0908 1.74125 1.74125 1.74125 1.74125 28.4404 21.4754 28.4404Z" stroke="#66737C" stroke-width="3.57143" stroke-linecap="round" stroke-linejoin="round" fill="none"/><path d="M29.6012 37.7271 45.8529 37.7271 45.8529 53.9787 29.6012 53.9787Z" stroke="#66737C" stroke-width="3.57143" stroke-linecap="round" stroke-linejoin="round" fill="none"/><path d="M45.8529 53.9787 53.9787 45.8529 53.9787 29.6012 37.7271 29.6012 29.6012 37.7271" stroke="#66737C" stroke-width="3.57143" stroke-linecap="round" stroke-linejoin="round" fill="none"/><path d="M45.8529 37.7271 53.9787 29.6012" stroke="#66737C" stroke-width="3.57143" stroke-linecap="round" stroke-linejoin="round" fill="none"/><path d="M50.7029 17.5379C47.0595 11.8885 40.7951 8.47777 34.0728 8.48337L30.4742 8.48337" stroke="#66737C" stroke-width="3.57143" stroke-linecap="round" stroke-linejoin="round" fill="none"/><path d="M35.8698 3.07853 30.4742 8.47641 35.8698 13.872" stroke="#66737C" stroke-width="3.57143" stroke-linecap="round" stroke-linejoin="round" fill="none"/><path d="M2.19397 36.7613C5.83765 42.4103 12.1019 45.8209 18.8241 45.8158L22.4227 45.8158" stroke="#66737C" stroke-width="3.57143" stroke-linecap="round" stroke-linejoin="round" fill="none"/><path d="M17.0248 51.2206 22.4227 45.8227 17.0248 40.4272" stroke="#66737C" stroke-width="3.57143" stroke-linecap="round" stroke-linejoin="round" fill="none"/></svg>