<svg width="60" height="60" viewBox="-2.14 -2.14 60 60" xmlns="http://www.w3.org/2000/svg" xmlns:xlink="http://www.w3.org/1999/xlink" id="Coding-Apps-Website-Big-Data-Database-Globality-Velocity--Streamline-Ultimate.svg" overflow="hidden"><defs></defs><path d="M45.2725 12.1888C50.0807 12.1888 53.9787 9.85083 53.9787 6.965 53.9787 4.07917 50.0807 1.74125 45.2725 1.74125 40.4643 1.74125 36.5662 4.07917 36.5662 6.965 36.5662 9.85083 40.4643 12.1888 45.2725 12.1888Z" stroke="#66737C" stroke-width="3.57143" stroke-linecap="round" stroke-linejoin="round" fill="none"/><path d="M36.5662 6.965 36.5662 17.4125C36.5662 20.296 40.4643 22.6362 45.2725 22.6362 50.0807 22.6362 53.9787 20.296 53.9787 17.4125L53.9787 6.965" stroke="#66737C" stroke-width="3.57143" stroke-linecap="round" stroke-linejoin="round" fill="none"/><path d="M45.2725 43.5312C50.0807 43.5312 53.9787 41.1933 53.9787 38.3075 53.9787 35.4217 50.0807 33.0838 45.2725 33.0838 40.4643 33.0838 36.5662 35.4217 36.5662 38.3075 36.5662 41.1933 40.4643 43.5312 45.2725 43.5312Z" stroke="#66737C" stroke-width="3.57143" stroke-linecap="round" stroke-linejoin="round" fill="none"/><path d="M36.5662 38.3075 36.5662 48.755C36.5662 51.6385 40.4643 53.9787 45.2725 53.9787 50.0807 53.9787 53.9787 51.6385 53.9787 48.755L53.9787 38.3075" stroke="#66737C" stroke-width="3.57143" stroke-linecap="round" stroke-linejoin="round" fill="none"/><path d="M16.5419 42.6606C24.716 42.6606 31.3425 36.0342 31.3425 27.86 31.3425 19.6858 24.716 13.0594 16.5419 13.0594 8.36772 13.0594 1.74125 19.6858 1.74125 27.86 1.74125 36.0342 8.36772 42.6606 16.5419 42.6606Z" stroke="#66737C" stroke-width="3.57143" stroke-linecap="round" stroke-linejoin="round" fill="none"/><path d="M2.48418 32.5033 30.1817 32.5033" stroke="#66737C" stroke-width="3.57143" stroke-linecap="round" stroke-linejoin="round" fill="none"/><path d="M2.48418 23.2167 30.1817 23.2167" stroke="#66737C" stroke-width="3.57143" stroke-linecap="round" stroke-linejoin="round" fill="none"/><path d="M13.3496 13.4053C10.6931 22.9902 11.0842 33.164 14.4686 42.5167" stroke="#66737C" stroke-width="3.57143" stroke-linecap="round" stroke-linejoin="round" fill="none"/><path d="M19.7342 13.4053C20.8946 17.5765 21.4804 21.8866 21.4754 26.2163 21.4842 31.7745 20.5193 37.2914 18.6244 42.5167" stroke="#66737C" stroke-width="3.57143" stroke-linecap="round" stroke-linejoin="round" fill="none"/><path d="M23.2167 6.965 23.2167 3.4825 30.1817 3.4825" stroke="#66737C" stroke-width="3.57143" stroke-linecap="round" stroke-linejoin="round" fill="none"/><path d="M23.2167 48.755 23.2167 52.2375 30.1817 52.2375" stroke="#66737C" stroke-width="3.57143" stroke-linecap="round" stroke-linejoin="round" fill="none"/></svg>