<svg width="60" height="60" viewBox="-1.875 -1.875 60 60" xmlns="http://www.w3.org/2000/svg" xmlns:xlink="http://www.w3.org/1999/xlink" id="Coding-Apps-Website-Gdpr-Folder--Streamline-Ultimate" overflow="hidden"><defs></defs><path d="M12.3047 25.7812 5.27344 25.7812 5.27344 39.8438 12.3047 39.8438 12.3047 32.8125 9.96094 32.8125" stroke="#66737C" stroke-width="3.33333" stroke-linecap="round" stroke-linejoin="round" fill="none"/><path d="M32.2266 39.8438 32.2266 25.7812" stroke="#66737C" stroke-width="3.33333" stroke-linecap="round" stroke-linejoin="round" fill="none"/><path d="M32.2266 25.7812 34.8633 25.7812C37.2903 25.7812 39.2578 27.7487 39.2578 30.1758 39.2578 32.6028 37.2903 34.5703 34.8633 34.5703L32.2266 34.5703" stroke="#66737C" stroke-width="3.33333" stroke-linecap="round" stroke-linejoin="round" fill="none"/><path d="M45.7031 39.8438 45.7031 25.7812" stroke="#66737C" stroke-width="3.33333" stroke-linecap="round" stroke-linejoin="round" fill="none"/><path d="M45.7031 25.7812 48.3398 25.7812C50.7669 25.7812 52.7344 27.7487 52.7344 30.1758 52.7344 32.6028 50.7669 34.5703 48.3398 34.5703L45.7031 34.5703" stroke="#66737C" stroke-width="3.33333" stroke-linecap="round" stroke-linejoin="round" fill="none"/><path d="M52.7344 39.8438 47.4609 34.5703" stroke="#66737C" stroke-width="3.33333" stroke-linecap="round" stroke-linejoin="round" fill="none"/><path d="M18.75 25.7812 18.75 39.8438C22.6333 39.8438 25.7812 36.6958 25.7812 32.8125 25.7812 28.9292 22.6333 25.7812 18.75 25.7812Z" stroke="#66737C" stroke-width="3.33333" stroke-linecap="round" stroke-linejoin="round" fill="none"/><path d="M1.75781 45.7031 1.75781 47.4609C1.75781 49.4026 3.33181 50.9766 5.27344 50.9766L50.9766 50.9766C52.9182 50.9766 54.4922 49.4026 54.4922 47.4609L54.4922 45.7031" stroke="#66737C" stroke-width="3.33333" stroke-linecap="round" stroke-linejoin="round" fill="none"/><path d="M54.4922 19.9219 54.4922 15.8203C54.4922 13.8787 52.9182 12.3047 50.9766 12.3047L24.6094 12.3047 20.3906 6.67969C19.7267 5.79443 18.6847 5.27344 17.5781 5.27344L5.27344 5.27344C3.33181 5.27344 1.75781 6.84744 1.75781 8.78906L1.75781 19.9219" stroke="#66737C" stroke-width="3.33333" stroke-linecap="round" stroke-linejoin="round" fill="none"/></svg>