<svg width="60" height="60" viewBox="-1.875 -1.875 60 60" xmlns="http://www.w3.org/2000/svg" xmlns:xlink="http://www.w3.org/1999/xlink" id="Coding-Apps-Website-Gdpr-Document--Streamline-Ultimate" overflow="hidden"><defs></defs><path d="M40.3992 1.75781 8.75859 1.75781C4.87534 1.75781 1.72734 4.90581 1.72734 8.78906L1.72734 50.9766" stroke="#66737C" stroke-width="3.33333" stroke-linecap="round" stroke-linejoin="round" fill="none"/><path d="M8.75859 11.7188 24.5789 11.7188" stroke="#66737C" stroke-width="3.33333" stroke-linecap="round" stroke-linejoin="round" fill="none"/><path d="M8.75859 19.9219 24.5789 19.9219" stroke="#66737C" stroke-width="3.33333" stroke-linecap="round" stroke-linejoin="round" fill="none"/><path d="M8.75859 28.125 16.6313 28.125" stroke="#66737C" stroke-width="3.33333" stroke-linecap="round" stroke-linejoin="round" fill="none"/><path d="M35.1258 33.3984 35.1258 7.03125C35.1348 4.12255 37.4905 1.76682 40.3992 1.75781L40.3992 1.75781C43.3079 1.76682 45.6637 4.12255 45.6727 7.03125L45.6727 10.5469 35.1258 10.5469" stroke="#66737C" stroke-width="3.33333" stroke-linecap="round" stroke-linejoin="round" fill="none"/><path d="M15.8508 40.4297 8.81953 40.4297 8.81953 54.4922 15.8508 54.4922 15.8508 47.4609 13.507 47.4609" stroke="#66737C" stroke-width="3.33333" stroke-linecap="round" stroke-linejoin="round" fill="none"/><path d="M34.6008 54.4922 34.6008 40.4297" stroke="#66737C" stroke-width="3.33333" stroke-linecap="round" stroke-linejoin="round" fill="none"/><path d="M34.6008 40.4297 37.2375 40.4297C39.6645 40.4297 41.632 42.3972 41.632 44.8242 41.632 47.2513 39.6645 49.2188 37.2375 49.2188L34.6008 49.2188" stroke="#66737C" stroke-width="3.33333" stroke-linecap="round" stroke-linejoin="round" fill="none"/><path d="M47.4914 54.4922 47.4914 40.4297" stroke="#66737C" stroke-width="3.33333" stroke-linecap="round" stroke-linejoin="round" fill="none"/><path d="M47.4914 40.4297 50.1281 40.4297C52.5552 40.4297 54.5227 42.3972 54.5227 44.8242 54.5227 47.2513 52.5552 49.2188 50.1281 49.2188L47.4914 49.2188" stroke="#66737C" stroke-width="3.33333" stroke-linecap="round" stroke-linejoin="round" fill="none"/><path d="M54.5227 54.4922 49.2492 49.2188" stroke="#66737C" stroke-width="3.33333" stroke-linecap="round" stroke-linejoin="round" fill="none"/><path d="M21.7102 40.4297 21.7102 54.4922C25.5934 54.4922 28.7414 51.3442 28.7414 47.4609 28.7414 43.5777 25.5934 40.4297 21.7102 40.4297Z" stroke="#66737C" stroke-width="3.33333" stroke-linecap="round" stroke-linejoin="round" fill="none"/></svg>