<svg width="60" height="60" viewBox="-2.14 -2.14 60 60" xmlns="http://www.w3.org/2000/svg" xmlns:xlink="http://www.w3.org/1999/xlink" id="Coding-Apps-Website-Big-Data-Databse-Globality--Streamline-Ultimate.svg" overflow="hidden"><defs></defs><path d="M26.0862 53.9346C11.6933 52.9549 0.819745 40.4928 1.79951 26.0999 2.77928 11.7069 15.2413 0.833352 29.6343 1.81312 40.6725 2.56452 50.04 10.1884 53.0176 20.8439" stroke="#66737C" stroke-width="3.57143" stroke-linecap="round" stroke-linejoin="round" fill="none"/><path d="M21.5683 53.2289C18.037 48.0585 15.6736 38.6302 15.6736 27.8739 15.6736 17.1176 18.037 7.70329 21.5683 2.51901" stroke="#66737C" stroke-width="3.57143" stroke-linecap="round" stroke-linejoin="round" fill="none"/><path d="M1.79929 26.1327 26.1211 26.1327" stroke="#66737C" stroke-width="3.57143" stroke-linecap="round" stroke-linejoin="round" fill="none"/><path d="M6.965 12.2027 48.755 12.2027" stroke="#66737C" stroke-width="3.57143" stroke-linecap="round" stroke-linejoin="round" fill="none"/><path d="M4.75709 40.0627 26.1164 40.0627" stroke="#66737C" stroke-width="3.57143" stroke-linecap="round" stroke-linejoin="round" fill="none"/><path d="M34.1564 2.51901C37.4508 8.08821 39.3297 14.3802 39.6285 20.8439" stroke="#66737C" stroke-width="3.57143" stroke-linecap="round" stroke-linejoin="round" fill="none"/><path d="M43.5336 33.9103C49.3029 33.9103 53.9811 32.4128 53.9811 30.5671 53.9811 28.7213 49.3029 27.2239 43.5336 27.2239 37.7642 27.2239 33.0861 28.719 33.0861 30.5671 33.0861 32.4151 37.7619 33.9103 43.5336 33.9103Z" stroke="#66737C" stroke-width="3.57143" stroke-linecap="round" stroke-linejoin="round" fill="none"/><path d="M53.9811 30.5671 53.9811 40.5967C53.9811 42.4401 49.3029 43.9399 43.5336 43.9399 37.7642 43.9399 33.0861 42.4401 33.0861 40.5967L33.0861 30.5671" stroke="#66737C" stroke-width="3.57143" stroke-linecap="round" stroke-linejoin="round" fill="none"/><path d="M53.9811 40.5967 53.9811 50.6263C53.9811 52.4697 49.3029 53.9695 43.5336 53.9695 37.7642 53.9695 33.0861 52.4697 33.0861 50.6263L33.0861 40.5967" stroke="#66737C" stroke-width="3.57143" stroke-linecap="round" stroke-linejoin="round" fill="none"/></svg>