<svg width="60" height="60" viewBox="-1.875 -1.875 60 60" xmlns="http://www.w3.org/2000/svg" xmlns:xlink="http://www.w3.org/1999/xlink" id="Coding-Apps-Website-Web-Form-File-Attach--Streamline-Ultimate" overflow="hidden"><defs></defs><path d="M41.1586 45.7781 41.1586 33.1219C41.1586 31.2812 42.6507 29.7891 44.4914 29.7891 46.3321 29.7891 47.8242 31.2812 47.8242 33.1219L47.8242 47.8359C47.8933 51.5179 44.9644 54.5587 41.2824 54.6277 37.6005 54.6968 34.5597 51.7679 34.4906 48.086 34.4891 48.0026 34.4891 47.9193 34.4906 47.8359L34.4906 31.6805C34.4906 26.1572 38.9681 21.6797 44.4914 21.6797 50.0147 21.6797 54.4922 26.1572 54.4922 31.6805L54.4922 45.7781" stroke="#66737C" stroke-width="3.33333" stroke-linecap="round" stroke-linejoin="round" fill="none"/><path d="M26.9531 47.4609 5.27344 47.4609C3.33181 47.4609 1.75781 45.8869 1.75781 43.9453L1.75781 5.27344C1.75781 3.33181 3.33181 1.75781 5.27344 1.75781L30.1852 1.75781C31.1169 1.75801 32.0105 2.12808 32.6695 2.78672L39.4008 9.51797C40.0594 10.177 40.4295 11.0706 40.4297 12.0023L40.4297 14.8148" stroke="#66737C" stroke-width="3.33333" stroke-linecap="round" stroke-linejoin="round" fill="none"/></svg>