<svg width="60" height="60" viewBox="-2.14 -2.14 60 60" xmlns="http://www.w3.org/2000/svg" xmlns:xlink="http://www.w3.org/1999/xlink" id="Cog-Double-2--Streamline-Ultimate.svg" fill="none" overflow="hidden"><path d="M18.041 22.068C17.6531 21.8962 17.3055 21.6453 17.0204 21.3312L15.5578 19.706C15.1401 19.2346 14.5853 18.9057 13.9713 18.7654 13.3572 18.6251 12.7147 18.6804 12.1337 18.9235 11.5526 19.1667 11.0622 19.5855 10.7312 20.1214 10.4001 20.6572 10.245 21.2832 10.2876 21.9116L10.2876 24.0708C10.3111 24.4947 10.2449 24.9187 10.0934 25.3152 9.94186 25.7118 9.7084 26.0719 9.40821 26.372 9.10804 26.6722 8.74792 26.9058 8.35136 27.0572 7.95482 27.2088 7.53077 27.2749 7.1069 27.2515L4.92453 27.1354C4.29864 27.1062 3.67898 27.271 3.15029 27.6072 2.6216 27.9436 2.20967 28.4348 1.97084 29.0141 1.73202 29.5936 1.67794 30.2325 1.816 30.8436 1.95406 31.4549 2.27752 32.0084 2.74217 32.4288L4.36733 33.8682C4.68807 34.1629 4.94283 34.522 5.11489 34.9223 5.28695 35.3223 5.37241 35.7544 5.36565 36.1899 5.3754 36.6259 5.29131 37.0587 5.11904 37.4594 4.9468 37.8599 4.69044 38.2188 4.36733 38.5116L2.74217 39.9742C2.27876 40.3951 1.95651 40.9486 1.81939 41.5595 1.68227 42.1703 1.73697 42.8085 1.97602 43.3871 2.21516 43.9635 2.62711 44.4516 3.15514 44.7843 3.68318 45.1169 4.30135 45.2776 4.92453 45.2444L7.1069 45.2444C7.53077 45.221 7.95482 45.2871 8.35136 45.4385 8.74792 45.5901 9.10804 45.8237 9.40821 46.1236 9.7084 46.4238 9.94186 46.7841 10.0934 47.1807 10.2449 47.5772 10.3111 48.0012 10.2876 48.4251L10.2876 50.5842C10.2504 51.2106 10.4094 51.8331 10.7424 52.365 11.0754 52.8969 11.5659 53.3115 12.1457 53.5516 12.7255 53.7916 13.3657 53.8453 13.9772 53.7043 14.5887 53.5636 15.1412 53.2358 15.5578 52.7666L17.0204 51.1647C17.3055 50.8505 17.6531 50.5996 18.041 50.4278 18.4288 50.2562 18.8483 50.1673 19.2724 50.1673 19.6966 50.1673 20.1161 50.2562 20.5039 50.4278 20.8918 50.5996 21.2394 50.8505 21.5245 51.1647L22.9871 52.7666C23.4036 53.2358 23.9561 53.5636 24.5676 53.7043 25.1792 53.8453 25.8195 53.7916 26.3992 53.5516 26.9789 53.3115 27.4695 52.8969 27.8024 52.365 28.1356 51.8331 28.2944 51.2106 28.2572 50.5842L28.2572 48.4251C28.2338 48.0012 28.3 47.5772 28.4516 47.1807 28.6029 46.7841 28.8365 46.4238 29.1367 46.1236 29.4369 45.8237 29.797 45.5901 30.1935 45.4385 30.59 45.2871 31.0142 45.221 31.4379 45.2444L33.6203 45.2444C34.2434 45.2776 34.8617 45.1169 35.3896 44.7843 35.9178 44.4516 36.3297 43.9635 36.5688 43.3871 36.8079 42.8085 36.8625 42.1703 36.7255 41.5595 36.5883 40.9486 36.2661 40.3951 35.8027 39.9742L34.1775 38.5116C33.8545 38.2188 33.598 37.8599 33.4257 37.4594 33.2535 37.0587 33.1694 36.6259 33.1792 36.1899 33.1724 35.7544 33.2579 35.3223 33.4299 34.9223 33.6019 34.522 33.8569 34.1629 34.1775 33.8682L35.8027 32.4288C36.2675 32.0084 36.5909 31.4549 36.7288 30.8436 36.8669 30.2325 36.8128 29.5936 36.5739 29.0141 36.3352 28.4348 35.9234 27.9436 35.3945 27.6072 34.8659 27.271 34.2462 27.1062 33.6203 27.1354L31.4379 27.2515C31.0142 27.2749 30.59 27.2088 30.1935 27.0572 29.797 26.9058 29.4369 26.6722 29.1367 26.372 28.8365 26.0719 28.6029 25.7118 28.4516 25.3152 28.3 24.9187 28.2338 24.4947 28.2572 24.0708L28.2572 21.9116C28.3 21.2832 28.1446 20.6572 27.8136 20.1214 27.4827 19.5855 26.9922 19.1667 26.4113 18.9235 25.8302 18.6804 25.1875 18.6251 24.5737 18.7654 23.9596 18.9057 23.4047 19.2346 22.9871 19.706L21.5245 21.3312C21.2394 21.6453 20.8918 21.8962 20.5039 22.068 20.1161 22.2398 19.6966 22.3285 19.2724 22.3285 18.8483 22.3285 18.4288 22.2398 18.041 22.068Z" stroke="#66737C" stroke-width="3.57143" stroke-linecap="round" stroke-linejoin="round"/><path d="M19.2725 40.485C21.6831 40.485 23.6371 38.5308 23.6371 36.1203 23.6371 33.7097 21.6831 31.7555 19.2725 31.7555 16.8619 31.7555 14.9077 33.7097 14.9077 36.1203 14.9077 38.5308 16.8619 40.485 19.2725 40.485Z" stroke="#66737C" stroke-width="3.57143" stroke-linecap="round" stroke-linejoin="round"/><path d="M42.1533 14.4832C41.5123 14.4832 40.9925 13.9635 40.9925 13.3224 40.9925 12.6813 41.5123 12.1615 42.1533 12.1615" stroke="#66737C" stroke-width="3.57143"/><path d="M42.1533 14.4832C42.7944 14.4832 43.3142 13.9635 43.3142 13.3224 43.3142 12.6813 42.7944 12.1615 42.1533 12.1615" stroke="#66737C" stroke-width="3.57143"/><path d="M37.4594 4.2604C37.4738 3.76895 37.6463 3.29526 37.9514 2.90963 38.2564 2.52402 38.6776 2.24703 39.1524 2.11977 39.6274 1.99252 40.1307 2.0218 40.5876 2.20324 41.0445 2.3847 41.4308 2.70864 41.689 3.12703L43.0692 5.34246C43.2975 5.71035 43.6571 5.9778 44.075 6.09073 44.4931 6.20366 44.9384 6.15362 45.321 5.95073L47.6127 4.72991C48.0481 4.50064 48.5451 4.41695 49.0315 4.4911 49.5177 4.56528 49.9674 4.79338 50.3142 5.14193 50.6613 5.49051 50.8875 5.94114 50.9594 6.4277 51.0314 6.91425 50.9455 7.41109 50.7143 7.84519L49.4912 10.1461C49.2878 10.5298 49.2372 10.9762 49.3496 11.3957 49.4619 11.8151 49.7289 12.1765 50.0969 12.4071L52.3009 13.7933C52.7183 14.0536 53.041 14.4409 53.2219 14.8983 53.403 15.3556 53.4325 15.859 53.3062 16.3343 53.1799 16.8097 52.9045 17.2321 52.5205 17.5394 52.1365 17.8468 51.664 18.0229 51.1726 18.0419L48.5774 18.1306C48.1446 18.1461 47.7339 18.3255 47.4284 18.6323 47.1229 18.9391 46.9453 19.3505 46.9313 19.7833L46.8489 22.3835C46.8343 22.8749 46.6618 23.3485 46.3567 23.7342 46.0519 24.1198 45.6305 24.3968 45.1557 24.524 44.6807 24.6515 44.1776 24.622 43.7205 24.4406 43.2636 24.2591 42.8772 23.9352 42.6191 23.5169L41.2374 21.3019C41.0095 20.934 40.6501 20.6665 40.2324 20.5535 39.8147 20.4405 39.3697 20.4904 38.9873 20.6931L36.6937 21.9144C36.2586 22.1437 35.7613 22.2274 35.2752 22.1532 34.7888 22.0791 34.3393 21.8509 33.9922 21.5024 33.6451 21.1538 33.419 20.7032 33.347 20.2166 33.2751 19.7301 33.361 19.2332 33.5922 18.7991L34.8094 16.4962C35.0128 16.1125 35.0634 15.6661 34.9511 15.2467 34.8387 14.8272 34.5717 14.4659 34.2037 14.2353L31.9998 12.8562C31.5826 12.5958 31.2596 12.2085 31.0788 11.7511 30.8979 11.2938 30.8684 10.7905 30.9945 10.3151 31.1208 9.83971 31.3961 9.41733 31.7801 9.11001 32.1641 8.80267 32.6366 8.62655 33.1281 8.60753L35.7251 8.5184C36.1574 8.50283 36.5679 8.32352 36.8732 8.01676 37.1785 7.71 37.3559 7.29872 37.3693 6.86617L37.4594 4.2604Z" stroke="#66737C" stroke-width="3.57143" stroke-linecap="round" stroke-linejoin="round"/></svg>