<svg width="60" height="60" viewBox="-1.875 -1.875 60 60" xmlns="http://www.w3.org/2000/svg" xmlns:xlink="http://www.w3.org/1999/xlink" id="Cog-Play--Streamline-Ultimate" overflow="hidden"><path d="M24.7125 5.71641C26.4119 7.59849 29.3152 7.74661 31.1973 6.04724 31.3131 5.94265 31.4235 5.83223 31.5281 5.71641L33.7313 3.27422C35.4343 1.39548 38.3379 1.25307 40.2167 2.95613 41.2358 3.87998 41.7871 5.21208 41.7188 6.58594L41.55 9.86719C41.4212 12.401 43.3708 14.5594 45.9046 14.6883 46.06 14.6962 46.2157 14.6962 46.3711 14.6883L49.6523 14.5195C52.1845 14.3848 54.3465 16.3282 54.4813 18.8604 54.555 20.245 53.9991 21.5886 52.9688 22.5164L50.5266 24.7195C48.6445 26.4189 48.4964 29.3222 50.1957 31.2043 50.3003 31.3202 50.4107 31.4306 50.5266 31.5352L52.9688 33.7383C54.8516 35.4368 55.001 38.3401 53.3025 40.2229 52.3766 41.2493 51.0375 41.804 49.657 41.7328L46.3758 41.5641C43.8406 41.4366 41.6822 43.3884 41.5547 45.9236 41.547 46.0773 41.547 46.2314 41.5547 46.3852L41.7234 49.6664C41.8539 52.1988 39.9068 54.3575 37.3744 54.488 35.9939 54.5591 34.6548 54.0045 33.7289 52.9781L31.5258 50.5359C29.8264 48.6539 26.9231 48.5057 25.041 50.2051 24.9252 50.3097 24.8147 50.4201 24.7102 50.5359L22.5 52.9805C20.8015 54.8633 17.8982 55.0128 16.0154 53.3142 14.9889 52.3883 14.4343 51.0492 14.5055 49.6688L14.6742 46.3875C14.8031 43.8537 12.8535 41.6952 10.3197 41.5664 10.1643 41.5585 10.0085 41.5585 9.85313 41.5664L6.57188 41.7352C4.03897 41.8555 1.88809 39.8997 1.76775 37.3668 1.70272 35.9978 2.25263 34.6714 3.26719 33.75L5.70937 31.5469C7.59146 29.8475 7.73957 26.9442 6.0402 25.0621 5.93562 24.9463 5.8252 24.8358 5.70937 24.7312L3.26719 22.5281C1.38296 20.8311 1.23118 17.928 2.92817 16.0438 3.85477 15.0149 5.19619 14.4592 6.57891 14.5312L9.86016 14.7C12.3911 14.8331 14.5508 12.8893 14.6839 10.3583 14.6925 10.1955 14.6924 10.0323 14.6836 9.86953L14.5148 6.58828C14.3931 4.05544 16.3478 1.90351 18.8806 1.7818 20.2505 1.71598 21.578 2.26597 22.5 3.28125Z" stroke="#66737C" stroke-width="3.33333" stroke-linecap="round" stroke-linejoin="round" fill="none"/><path d="M35.1516 28.6758 21.0891 20.4375 21.0891 36.9164 35.1516 28.6758Z" stroke="#66737C" stroke-width="3.33333" stroke-linecap="round" stroke-linejoin="round" fill="none"/></svg>