<svg width="60" height="60" viewBox="-2.14 -2.14 60 60" xmlns="http://www.w3.org/2000/svg" xmlns:xlink="http://www.w3.org/1999/xlink" id="Cog-Double-1--Streamline-Ultimate.svg" overflow="hidden"><path d="M13.4958 26.0305C14.4073 27.0422 15.9664 27.1234 16.978 26.2119 17.0416 26.1547 17.1022 26.0941 17.1594 26.0305L18.3435 24.7211C19.2579 23.7103 20.8185 23.6321 21.8293 24.5465 22.3783 25.0432 22.6754 25.7601 22.6386 26.4995L22.548 28.264C22.4796 29.6253 23.5277 30.7842 24.889 30.8526 24.9715 30.8568 25.0542 30.8568 25.1367 30.8526L26.9012 30.7621C28.2624 30.6929 29.422 31.7403 29.4912 33.1016 29.5288 33.8419 29.2316 34.5599 28.6819 35.0572L27.3701 36.2412C26.3585 37.1527 26.2772 38.7117 27.1887 39.7234 27.246 39.787 27.3065 39.8475 27.3701 39.9048L28.6819 41.0889C29.6927 42.0031 29.771 43.5638 28.8567 44.5747 28.3595 45.1244 27.6415 45.4216 26.9012 45.3839L25.1367 45.2934C23.7754 45.225 22.6164 46.2731 22.548 47.6344 22.5439 47.7169 22.5439 47.7995 22.548 47.8821L22.6386 49.6465C22.7064 51.0078 21.6578 52.1664 20.2965 52.2342 19.5571 52.271 18.8401 51.974 18.3435 51.4249L17.1594 50.1155C16.248 49.1038 14.6889 49.0226 13.6773 49.9341 13.6137 49.9914 13.5531 50.0519 13.4958 50.1155L12.3118 51.4249C11.3974 52.4357 9.83678 52.5139 8.82599 51.5995 8.27695 51.1029 7.97988 50.386 8.01672 49.6465L8.10726 47.8821C8.17565 46.5208 7.12756 45.3618 5.76627 45.2934 5.68377 45.2892 5.60111 45.2892 5.5186 45.2934L3.75413 45.3839C2.39268 45.4488 1.23644 44.3976 1.17161 43.0362 1.13661 42.3011 1.43146 41.5888 1.97574 41.0935L3.28516 39.9095C4.29683 38.998 4.37805 37.4389 3.46657 36.4273 3.40929 36.3637 3.34874 36.3031 3.28516 36.2459L1.97574 35.0572C0.964942 34.1428 0.886769 32.5821 1.80113 31.5714 2.29779 31.0223 3.0147 30.7252 3.75413 30.7621L5.5186 30.8526C6.87989 30.921 8.03887 29.8729 8.10726 28.5116 8.11141 28.4291 8.11141 28.3465 8.10726 28.264L8.01672 26.4995C7.9489 25.1382 8.99748 23.9797 10.3588 23.9118 11.0982 23.875 11.8151 24.1721 12.3118 24.7211Z" stroke="#66737C" stroke-width="3.57143" stroke-linecap="round" stroke-linejoin="round" fill="none"/><path d="M9.66045 38.073C9.66045 41.2029 12.1977 43.7402 15.3276 43.7402 18.4575 43.7402 20.9948 41.2029 20.9948 38.073 20.9948 34.9431 18.4575 32.4058 15.3276 32.4058 12.1977 32.4058 9.66045 34.9431 9.66045 38.073Z" stroke="#66737C" stroke-width="3.57143" stroke-linecap="round" stroke-linejoin="round" fill="none"/><path d="M42.2242 29.6941C41.3127 28.6824 39.7536 28.6012 38.742 29.5127 38.6784 29.57 38.6178 29.6305 38.5606 29.6941L37.3765 31.0059C36.4622 32.0167 34.9016 32.095 33.8907 31.1807 33.341 30.6835 33.0438 29.9655 33.0814 29.2251L33.172 27.4607C33.2404 26.0994 32.1923 24.9404 30.831 24.872 30.7485 24.8679 30.6658 24.8679 30.5833 24.872L28.8188 24.9626C27.4576 25.0317 26.298 23.9843 26.2288 22.6231 26.1912 21.8827 26.4884 21.1647 27.0381 20.6675L28.3499 19.4834C29.3615 18.5719 29.4428 17.0129 28.5313 16.0013 28.474 15.9377 28.4135 15.8771 28.3499 15.8198L27.0381 14.6358C26.0273 13.7215 25.949 12.1609 26.8633 11.15 27.3605 10.6002 28.0785 10.3031 28.8188 10.3407L30.5833 10.4312C31.9446 10.4996 33.1036 9.45155 33.172 8.09026 33.1761 8.00776 33.1761 7.9251 33.172 7.84259L33.0814 6.07812C33.0136 4.71681 34.0622 3.55827 35.4235 3.49046 36.1629 3.45362 36.8799 3.75069 37.3765 4.29973L38.5606 5.60915C39.472 6.62082 41.0311 6.70204 42.0427 5.79056 42.1063 5.73328 42.1669 5.67272 42.2242 5.60915L43.4082 4.29973C44.3226 3.28893 45.8832 3.21076 46.894 4.12512 47.4431 4.62178 47.7401 5.33869 47.7033 6.07812L47.6127 7.84259C47.5443 9.20387 48.5924 10.3629 49.9537 10.4312 50.0362 10.4354 50.1189 10.4354 50.2014 10.4312L51.9659 10.3407C53.3272 10.2729 54.4857 11.3215 54.5535 12.6828 54.5904 13.4222 54.2933 14.1391 53.7443 14.6358L52.4348 15.8198C51.4232 16.7313 51.3419 18.2903 52.2534 19.302 52.3107 19.3656 52.3713 19.4261 52.4348 19.4834L53.7443 20.6675C54.7551 21.5818 54.8332 23.1425 53.9189 24.1533 53.4222 24.7023 52.7053 24.9994 51.9659 24.9626L50.2014 24.872C48.8401 24.8036 47.6811 25.8517 47.6127 27.213 47.6086 27.2955 47.6086 27.3782 47.6127 27.4607L47.7033 29.2251C47.7725 30.5864 46.725 31.746 45.3638 31.8151 44.6235 31.8528 43.9054 31.5556 43.4082 31.0059Z" stroke="#66737C" stroke-width="3.57143" stroke-linecap="round" stroke-linejoin="round" fill="none"/><path d="M34.7252 17.6516C34.7252 20.7815 37.2625 23.3188 40.3924 23.3188 43.5223 23.3188 46.0595 20.7815 46.0595 17.6516 46.0595 14.5217 43.5223 11.9844 40.3924 11.9844 37.2625 11.9844 34.7252 14.5217 34.7252 17.6516Z" stroke="#66737C" stroke-width="3.57143" stroke-linecap="round" stroke-linejoin="round" fill="none"/></svg>