<svg width="60" height="60" viewBox="-2.14 -2.14 60 60" xmlns="http://www.w3.org/2000/svg" xmlns:xlink="http://www.w3.org/1999/xlink" id="Cog-Hand-Give--Streamline-Ultimate.svg" overflow="hidden"><path d="M1.98503 33.0861 1.98503 53.9811" stroke="#66737C" stroke-width="3.57143" stroke-linecap="round" stroke-linejoin="round" fill="none"/><path d="M1.98503 50.4986 36.81 50.4986C36.81 46.6519 33.6917 43.5336 29.845 43.5336L21.1388 43.5336C21.1388 39.6869 18.0204 36.5686 14.1738 36.5686L1.98503 36.5686" stroke="#66737C" stroke-width="3.57143" stroke-linecap="round" stroke-linejoin="round" fill="none"/><path d="M14.1738 43.5336 21.1388 43.5336" stroke="#66737C" stroke-width="3.57143" stroke-linecap="round" stroke-linejoin="round" fill="none"/><path d="M29.8427 22.6386C29.8427 25.5236 32.1815 27.8623 35.0665 27.8623 37.9515 27.8623 40.2902 25.5236 40.2902 22.6386 40.2902 19.7536 37.9515 17.4148 35.0665 17.4148 32.1815 17.4148 29.8427 19.7536 29.8427 22.6386Z" stroke="#66737C" stroke-width="3.57143" stroke-linecap="round" stroke-linejoin="round" fill="none"/><path d="M39.2942 38.3075 39.6634 35.7235C41.2932 35.1555 42.802 34.2869 44.1117 33.1627L48.6296 34.9759C50.2381 35.6218 52.0767 34.9865 52.9433 33.4854L53.4076 32.6844C54.2742 31.1834 53.9051 29.2736 52.5416 28.2036L48.7504 25.2272C49.0971 23.5181 49.0971 21.7567 48.7504 20.0476L52.5416 17.0712C53.9019 15.9986 54.267 14.0892 53.3983 12.5904L52.934 11.7894C52.0674 10.2883 50.2288 9.65304 48.6203 10.2989L44.1117 12.1121C42.8049 10.9917 41.3002 10.1255 39.675 9.5583L38.9785 4.74317C38.7372 3.02014 37.2613 1.73952 35.5215 1.74357L34.5928 1.74357C32.8648 1.7491 31.4021 3.021 31.1568 4.73156L30.4603 9.54669C28.8358 10.1139 27.3318 10.9801 26.0259 12.1005L21.5149 10.2989C19.9071 9.65439 18.07 10.2895 17.2036 11.7894L16.7392 12.5904C15.8721 14.0908 16.2402 16.0005 17.6029 17.0712L21.3988 20.0476C21.049 21.7564 21.049 23.5184 21.3988 25.2272L17.6052 28.2036" stroke="#66737C" stroke-width="3.57143" stroke-linecap="round" stroke-linejoin="round" fill="none"/></svg>