<svg width="60" height="60" viewBox="-2.14 -2.14 60 60" xmlns="http://www.w3.org/2000/svg" xmlns:xlink="http://www.w3.org/1999/xlink" id="Cog--Streamline-Ultimate.svg" overflow="hidden"><path d="M24.4843 5.66022C26.1638 7.52457 29.0367 7.6744 30.9011 5.99487 31.0183 5.88921 31.13 5.77751 31.2357 5.66022L33.432 3.25033C35.116 1.38658 37.9921 1.24087 39.8558 2.92489 40.8701 3.8414 41.4184 5.16556 41.3489 6.53085L41.184 9.78118C41.058 12.2886 42.9884 14.4235 45.4958 14.5496 45.6457 14.5571 45.7959 14.5572 45.9458 14.5499L49.1961 14.385C51.7049 14.2614 53.839 16.1949 53.9627 18.7037 54.0299 20.0663 53.4818 21.3872 52.4697 22.3019L50.0505 24.4843C48.1855 26.1689 48.0392 29.0463 49.7238 30.9113 49.8271 31.0257 49.9361 31.1347 50.0505 31.238L52.4697 33.4204C54.3334 35.1044 54.4791 37.9804 52.7951 39.8442 51.8786 40.8585 50.5544 41.4068 49.1891 41.3373L45.9388 41.1724C43.4315 41.0435 41.2944 42.9715 41.1655 45.4787 41.1575 45.6343 41.1575 45.7902 41.1655 45.9458L41.3303 49.1961C41.4421 51.7055 39.4985 53.8304 36.9891 53.9422 35.6439 54.0021 34.3413 53.4629 33.432 52.4697L31.2473 50.0528C29.564 48.1885 26.688 48.0417 24.8236 49.7251 24.7089 49.8287 24.5995 49.9381 24.4959 50.0528L22.3019 52.4697C20.6116 54.3277 17.7351 54.4636 15.877 52.7732 14.8758 51.8624 14.3324 50.5529 14.3943 49.2008L14.5615 45.9504C14.6905 43.4432 12.7625 41.3061 10.2552 41.1771 10.0996 41.1691 9.94373 41.1691 9.78815 41.1771L6.53781 41.3419C4.03064 41.4728 1.89209 39.5464 1.76122 37.0392 1.68997 35.6741 2.23684 34.3493 3.25033 33.432L5.66719 31.2496C7.53218 29.5651 7.67844 26.6876 5.99388 24.8226 5.89059 24.7082 5.78155 24.5992 5.66719 24.4959L3.25033 22.3019C1.39081 20.6151 1.25079 17.7403 2.93757 15.8808 3.85016 14.8747 5.16482 14.3295 6.52156 14.3943L9.7719 14.5592C12.279 14.691 14.4183 12.7654 14.5501 10.2583 14.5586 10.0978 14.5585 9.937 14.5499 9.77654L14.3943 6.52388C14.2766 4.01477 16.2152 1.88531 18.7243 1.7676 20.0782 1.70408 21.3899 2.2477 22.3019 3.25033Z" stroke="#66737C" stroke-width="3.57143" stroke-linecap="round" stroke-linejoin="round" fill="none"/><path d="M17.4125 27.8623C17.4125 33.6323 22.09 38.3098 27.86 38.3098 33.63 38.3098 38.3075 33.6323 38.3075 27.8623 38.3075 22.0923 33.63 17.4148 27.86 17.4148 22.09 17.4148 17.4125 22.0923 17.4125 27.8623Z" stroke="#66737C" stroke-width="3.57143" stroke-linecap="round" stroke-linejoin="round" fill="none"/></svg>