<svg width="60" height="60" viewBox="-1.875 -1.875 60 60" xmlns="http://www.w3.org/2000/svg" xmlns:xlink="http://www.w3.org/1999/xlink" id="Common-File-Text-Sync--Streamline-Ultimate" overflow="hidden"><path d="M35.1562 43.9453 26.3672 43.9453 26.3672 52.7344" stroke="#66737C" stroke-width="3.33333" stroke-linecap="round" stroke-linejoin="round" fill="none"/><path d="M53.1258 45.6633C50.7907 52.4873 43.3657 56.1263 36.5417 53.7912 32.1252 52.2799 28.8511 48.5262 27.9539 43.9453" stroke="#66737C" stroke-width="3.33333" stroke-linecap="round" stroke-linejoin="round" fill="none"/><path d="M45.7031 36.9141 54.4922 36.9141 54.4922 28.125" stroke="#66737C" stroke-width="3.33333" stroke-linecap="round" stroke-linejoin="round" fill="none"/><path d="M27.7336 35.1961C30.0687 28.3721 37.4936 24.7331 44.3177 27.0682 48.7342 28.5794 52.0083 32.3331 52.9055 36.9141" stroke="#66737C" stroke-width="3.33333" stroke-linecap="round" stroke-linejoin="round" fill="none"/><path d="M8.78906 15.8203 33.3984 15.8203" stroke="#66737C" stroke-width="3.33333" stroke-linecap="round" stroke-linejoin="round" fill="none"/><path d="M8.78906 26.3672 22.8516 26.3672" stroke="#66737C" stroke-width="3.33333" stroke-linecap="round" stroke-linejoin="round" fill="none"/><path d="M8.78906 36.9141 17.5781 36.9141" stroke="#66737C" stroke-width="3.33333" stroke-linecap="round" stroke-linejoin="round" fill="none"/><path d="M17.5781 47.4609 5.27344 47.4609C3.33181 47.4609 1.75781 45.8869 1.75781 43.9453L1.75781 5.27344C1.75781 3.33181 3.33181 1.75781 5.27344 1.75781L30.1852 1.75781C31.1169 1.75801 32.0105 2.12808 32.6695 2.78672L39.4008 9.51797C40.0594 10.177 40.4295 11.0706 40.4297 12.0023L40.4297 17.5781" stroke="#66737C" stroke-width="3.33333" stroke-linecap="round" stroke-linejoin="round" fill="none"/></svg>