<svg width="60" height="60" viewBox="-2.14 -2.14 60 60" xmlns="http://www.w3.org/2000/svg" xmlns:xlink="http://www.w3.org/1999/xlink" id="Compass-1--Streamline-Ultimate.svg" fill="none" overflow="hidden"><path d="M27.86 53.9787C42.285 53.9787 53.9787 42.285 53.9787 27.86 53.9787 13.435 42.285 1.74125 27.86 1.74125 13.435 1.74125 1.74125 13.435 1.74125 27.86 1.74125 42.285 13.435 53.9787 27.86 53.9787Z" stroke="#66737C" stroke-width="3.57143" stroke-linecap="round" stroke-linejoin="round"/><path d="M38.6511 17.0689C38.4222 16.8401 38.1343 16.6796 37.8193 16.6053 37.5042 16.5311 37.175 16.5461 36.8681 16.6487L21.7029 21.7029 16.6486 36.8681C16.5461 37.175 16.5311 37.5044 16.6053 37.8193 16.6796 38.1343 16.8401 38.4222 17.0689 38.6511 17.2977 38.8798 17.5857 39.0405 17.9006 39.1145 18.2156 39.1888 18.545 39.1739 18.8519 39.0713L34.0171 34.0171 39.0713 18.8519C39.1737 18.545 39.1888 18.2156 39.1145 17.9007 39.0405 17.5857 38.8798 17.2977 38.6511 17.0689Z" stroke="#66737C" stroke-width="3.57143" stroke-linecap="round" stroke-linejoin="round"/><path d="M27.86 1.74125 27.86 6.965" stroke="#66737C" stroke-width="3.57143" stroke-linecap="round" stroke-linejoin="round"/><path d="M46.3289 9.39114 42.6351 13.0849" stroke="#66737C" stroke-width="3.57143" stroke-linecap="round" stroke-linejoin="round"/><path d="M53.9787 27.86 48.755 27.86" stroke="#66737C" stroke-width="3.57143" stroke-linecap="round" stroke-linejoin="round"/><path d="M46.3289 46.3289 42.6351 42.6351" stroke="#66737C" stroke-width="3.57143" stroke-linecap="round" stroke-linejoin="round"/><path d="M27.86 53.9787 27.86 48.755" stroke="#66737C" stroke-width="3.57143" stroke-linecap="round" stroke-linejoin="round"/><path d="M9.3911 46.3289 13.0849 42.6351" stroke="#66737C" stroke-width="3.57143" stroke-linecap="round" stroke-linejoin="round"/><path d="M1.74125 27.86 6.965 27.86" stroke="#66737C" stroke-width="3.57143" stroke-linecap="round" stroke-linejoin="round"/><path d="M9.3911 9.39114 13.0849 13.0849" stroke="#66737C" stroke-width="3.57143" stroke-linecap="round" stroke-linejoin="round"/><path d="M27.86 28.7306C27.3792 28.7306 26.9894 28.3408 26.9894 27.86 26.9894 27.3792 27.3792 26.9894 27.86 26.9894" stroke="#66737C" stroke-width="3.57143"/><path d="M27.86 28.7306C28.3408 28.7306 28.7306 28.3408 28.7306 27.86 28.7306 27.3792 28.3408 26.9894 27.86 26.9894" stroke="#66737C" stroke-width="3.57143"/></svg>