<svg width="60" height="60" viewBox="-1.875 -1.875 60 60" xmlns="http://www.w3.org/2000/svg" xmlns:xlink="http://www.w3.org/1999/xlink" id="Construction-Pipe--Streamline-Ultimate" overflow="hidden"><path d="M49.2188 45.7031 49.2188 54.4922" stroke="#66737C" stroke-width="3.57143" stroke-linecap="round" stroke-linejoin="round" fill="none"/><path d="M21.0938 15.8203 19.3359 15.8203C16.4235 15.8203 14.0625 18.1813 14.0625 21.0938 14.0625 24.0062 16.4235 26.3672 19.3359 26.3672L31.6406 26.3672C39.3145 26.3765 46.0987 31.3544 48.4102 38.6719" stroke="#66737C" stroke-width="3.57143" stroke-linecap="round" stroke-linejoin="round" fill="none"/><path d="M47.4609 15.8203 28.125 15.8203" stroke="#66737C" stroke-width="3.57143" stroke-linecap="round" stroke-linejoin="round" fill="none"/><path d="M28.125 5.27344 47.4609 5.27344" stroke="#66737C" stroke-width="3.57143" stroke-linecap="round" stroke-linejoin="round" fill="none"/><path d="M36.2859 38.6719C35.0046 37.5375 33.3519 36.9121 31.6406 36.9141L19.3359 36.9141C10.5986 36.9141 3.51562 29.8311 3.51562 21.0938 3.51562 12.3564 10.5986 5.27344 19.3359 5.27344L21.0938 5.27344" stroke="#66737C" stroke-width="3.57143" stroke-linecap="round" stroke-linejoin="round" fill="none"/><path d="M38.6719 54.4922 38.6719 45.7031" stroke="#66737C" stroke-width="3.57143" stroke-linecap="round" stroke-linejoin="round" fill="none"/><path d="M47.4609 1.75781 47.4609 19.3359" stroke="#66737C" stroke-width="3.57143" stroke-linecap="round" stroke-linejoin="round" fill="none"/><path d="M21.0938 1.75781 21.0938 19.3359" stroke="#66737C" stroke-width="3.57143" stroke-linecap="round" stroke-linejoin="round" fill="none"/><path d="M35.1562 45.7031 52.7344 45.7031" stroke="#66737C" stroke-width="3.57143" stroke-linecap="round" stroke-linejoin="round" fill="none"/></svg>