<svg width="60" height="60" viewBox="-2.14 -2.14 60 60" xmlns="http://www.w3.org/2000/svg" xmlns:xlink="http://www.w3.org/1999/xlink" id="Contact-Us-Customer-Support-Chat--Streamline-Ultimate.svg" fill="none" overflow="hidden"><path d="M35.4054 18.7891 35.4054 10.1989C35.4054 8.35171 34.6715 6.58014 33.3654 5.27394 32.0592 3.96775 30.2875 3.23394 28.4404 3.23394L9.28667 3.23394C7.43943 3.23394 5.66786 3.96775 4.36167 5.27394 3.05548 6.58014 2.32167 8.35171 2.32167 10.1989L2.32167 20.6464C2.32167 22.4937 3.05548 24.2654 4.36167 25.5715 5.66786 26.8777 7.43943 27.6113 9.28667 27.6113L9.28667 36.3176 17.9929 27.6113 24.013 27.6113" stroke="#66737C" stroke-width="3.57143" stroke-linecap="round" stroke-linejoin="round"/><path d="M10.1573 16.2843C9.67645 16.2843 9.28667 15.8945 9.28667 15.4136 9.28667 14.9328 9.67645 14.543 10.1573 14.543" stroke="#66737C" stroke-width="3.57143"/><path d="M10.1573 16.2843C10.6381 16.2843 11.0279 15.8945 11.0279 15.4136 11.0279 14.9328 10.6381 14.543 10.1573 14.543" stroke="#66737C" stroke-width="3.57143"/><path d="M18.8635 16.2843C18.3827 16.2843 17.9929 15.8945 17.9929 15.4136 17.9929 14.9328 18.3827 14.543 18.8635 14.543" stroke="#66737C" stroke-width="3.57143"/><path d="M18.8635 16.2843C19.3444 16.2843 19.7342 15.8945 19.7342 15.4136 19.7342 14.9328 19.3444 14.543 18.8635 14.543" stroke="#66737C" stroke-width="3.57143"/><path d="M27.5698 16.2843C27.089 16.2843 26.6992 15.8945 26.6992 15.4136 26.6992 14.9328 27.089 14.543 27.5698 14.543" stroke="#66737C" stroke-width="3.57143"/><path d="M27.5698 16.2843C28.0506 16.2843 28.4404 15.8945 28.4404 15.4136 28.4404 14.9328 28.0506 14.543 27.5698 14.543" stroke="#66737C" stroke-width="3.57143"/><path d="M29.4457 47.7056 28.4869 47.7056C27.4716 47.7056 26.4976 47.3026 25.7789 46.5854 25.0603 45.868 24.6556 44.8948 24.6538 43.8795L24.6538 40.0395C24.6568 39.0249 25.0622 38.0528 25.7805 37.3366 26.499 36.6201 27.4723 36.218 28.4869 36.218L29.4457 36.218C29.6997 36.2185 29.943 36.3199 30.1222 36.4996 30.3015 36.6793 30.4022 36.9229 30.4022 37.1768L30.4022 46.7584C30.3992 47.0103 30.2971 47.2508 30.1181 47.4279 29.9391 47.6053 29.6976 47.7049 29.4457 47.7056Z" stroke="#66737C" stroke-width="3.57143" stroke-linecap="round" stroke-linejoin="round"/><path d="M49.5653 47.7056 48.6087 47.7056C48.4829 47.7056 48.3582 47.6808 48.2419 47.6325 48.1254 47.5844 48.0197 47.5138 47.9308 47.4247 47.8417 47.3358 47.7711 47.2299 47.7228 47.1136 47.6747 46.9973 47.6499 46.8726 47.6499 46.7468L47.6499 37.1652C47.6499 36.9108 47.7509 36.667 47.9308 36.4871 48.1105 36.3074 48.3545 36.2064 48.6087 36.2064L49.5653 36.2064C50.5819 36.2064 51.5568 36.6101 52.2756 37.3289 52.9946 38.0479 53.3983 39.0228 53.3983 40.0395L53.3983 43.8795C53.3965 44.8948 52.9918 45.868 52.2733 46.5854 51.5545 47.3026 50.5808 47.7056 49.5653 47.7056L49.5653 47.7056Z" stroke="#66737C" stroke-width="3.57143" stroke-linecap="round" stroke-linejoin="round"/><path d="M28.4869 36.218C28.4869 34.8341 28.7594 33.4636 29.2892 32.1848 29.819 30.906 30.5954 29.7443 31.5742 28.7657 32.553 27.7871 33.715 27.011 34.9938 26.4816 36.2726 25.9521 37.643 25.6797 39.0272 25.68L39.0272 25.68C41.822 25.68 44.5024 26.7902 46.4788 28.7666 48.455 30.7428 49.5653 33.4232 49.5653 36.218" stroke="#66737C" stroke-width="3.57143" stroke-linecap="round" stroke-linejoin="round"/><path d="M42.858 52.4952 45.7368 52.4952C46.7535 52.4952 47.7284 52.0912 48.4471 51.3724 49.1662 50.6537 49.5699 49.6786 49.5699 48.6621L49.5699 47.7056" stroke="#66737C" stroke-width="3.57143" stroke-linecap="round" stroke-linejoin="round"/></svg>