<svg width="60" height="60" viewBox="-1.875 -1.875 60 60" xmlns="http://www.w3.org/2000/svg" xmlns:xlink="http://www.w3.org/1999/xlink" id="Crypto-Currency-Bitcoin-Code--Streamline-Ultimate" overflow="hidden"><g><g><path d="M4.40625 1.75781 6.16406 1.75781C7.1296 1.77044 7.90925 2.55009 7.92188 3.51562L7.92188 15.8203" stroke="#66737C" stroke-width="3.33333" stroke-linecap="round" stroke-linejoin="round" fill="none"/><path d="M4.40625 15.8203 11.4375 15.8203" stroke="#66737C" stroke-width="3.33333" stroke-linecap="round" stroke-linejoin="round" fill="none"/></g><path d="M25.5 12.3047C25.5 14.2463 23.926 15.8203 21.9844 15.8203 20.0427 15.8203 18.4688 14.2463 18.4688 12.3047L18.4688 5.27344C18.4688 3.33181 20.0427 1.75781 21.9844 1.75781 23.926 1.75781 25.5 3.33181 25.5 5.27344Z" stroke="#66737C" stroke-width="3.33333" stroke-linecap="round" stroke-linejoin="round" fill="none"/><g><path d="M32.5078 1.75781 34.2656 1.75781C35.2364 1.75781 36.0234 2.54481 36.0234 3.51562L36.0234 15.8203" stroke="#66737C" stroke-width="3.33333" stroke-linecap="round" stroke-linejoin="round" fill="none"/><path d="M32.5078 15.8203 39.5391 15.8203" stroke="#66737C" stroke-width="3.33333" stroke-linecap="round" stroke-linejoin="round" fill="none"/></g><path d="M53.6016 12.3047C53.6016 14.2463 52.0276 15.8203 50.0859 15.8203 48.1443 15.8203 46.5703 14.2463 46.5703 12.3047L46.5703 5.27344C46.5703 3.33181 48.1443 1.75781 50.0859 1.75781 52.0276 1.75781 53.6016 3.33181 53.6016 5.27344Z" stroke="#66737C" stroke-width="3.33333" stroke-linecap="round" stroke-linejoin="round" fill="none"/><path d="M36.0234 21.0938C37.9651 21.0938 39.5391 22.6677 39.5391 24.6094L39.5391 28.125" stroke="#66737C" stroke-width="3.33333" stroke-linecap="round" stroke-linejoin="round" fill="none"/><g><path d="M46.5703 21.0938 48.3281 21.0938C49.2989 21.0938 50.0859 21.8807 50.0859 22.8516L50.0859 35.1562" stroke="#66737C" stroke-width="3.33333" stroke-linecap="round" stroke-linejoin="round" fill="none"/><path d="M46.5703 35.1562 53.6016 35.1562" stroke="#66737C" stroke-width="3.33333" stroke-linecap="round" stroke-linejoin="round" fill="none"/></g><path d="M53.6016 50.9766C53.6016 52.9182 52.0276 54.4922 50.0859 54.4922 48.1443 54.4922 46.5703 52.9182 46.5703 50.9766L46.5703 43.9453C46.5703 42.0037 48.1443 40.4297 50.0859 40.4297 52.0276 40.4297 53.6016 42.0037 53.6016 43.9453Z" stroke="#66737C" stroke-width="3.33333" stroke-linecap="round" stroke-linejoin="round" fill="none"/><g><g><path d="M14.9531 38.6719 20.8125 38.6719" stroke="#66737C" stroke-width="3.33333" stroke-linecap="round" stroke-linejoin="round" fill="none"/><path d="M18.4688 31.6406 18.4688 29.8828" stroke="#66737C" stroke-width="3.33333" stroke-linecap="round" stroke-linejoin="round" fill="none"/><path d="M18.4688 45.7031 18.4688 47.4609" stroke="#66737C" stroke-width="3.33333" stroke-linecap="round" stroke-linejoin="round" fill="none"/><path d="M20.8125 31.6406C22.5863 31.8139 23.8917 33.3803 23.7422 35.1562 23.8917 36.9322 22.5863 38.4986 20.8125 38.6719 22.5863 38.8451 23.8917 40.4115 23.7422 42.1875 23.8917 43.9635 22.5863 45.5299 20.8125 45.7031L14.9531 45.7031 14.9531 31.6406Z" stroke="#66737C" stroke-width="3.33333" stroke-linecap="round" stroke-linejoin="round" fill="none"/></g><path d="M2.64844 38.6719C2.64844 47.4092 9.73143 54.4922 18.4688 54.4922 27.2061 54.4922 34.2891 47.4092 34.2891 38.6719 34.2891 29.9346 27.2061 22.8516 18.4688 22.8516 9.73143 22.8516 2.64844 29.9346 2.64844 38.6719" stroke="#66737C" stroke-width="3.33333" stroke-linecap="round" stroke-linejoin="round" fill="none"/></g><g><path d="M36.0234 50.9766 36.0234 54.4922" stroke="#66737C" stroke-width="3.33333" stroke-linecap="round" stroke-linejoin="round" fill="none"/><path d="M32.5078 54.4922 39.5391 54.4922" stroke="#66737C" stroke-width="3.33333" stroke-linecap="round" stroke-linejoin="round" fill="none"/></g></g></svg>