<svg width="60" height="60" viewBox="-1.875 -1.875 60 60" xmlns="http://www.w3.org/2000/svg" xmlns:xlink="http://www.w3.org/1999/xlink" id="Crypto-Currency-Bitcoin-Chip--Streamline-Ultimate" overflow="hidden"><defs></defs><path d="M24.6094 35.1562 24.6094 21.0938 29.8828 21.0938C31.8244 21.0938 33.3984 22.6677 33.3984 24.6094 33.3984 26.551 31.8244 28.125 29.8828 28.125 31.8244 28.125 33.3984 29.699 33.3984 31.6406 33.3984 33.5823 31.8244 35.1562 29.8828 35.1562Z" stroke="#66737C" stroke-width="3.33333" stroke-linecap="round" stroke-linejoin="round" fill="none"/><path d="M24.6094 28.125 29.8828 28.125" stroke="#66737C" stroke-width="3.33333" stroke-linecap="round" stroke-linejoin="round" fill="none"/><path d="M28.125 21.0938 28.125 17.5781" stroke="#66737C" stroke-width="3.33333" stroke-linecap="round" stroke-linejoin="round" fill="none"/><path d="M28.125 35.1562 28.125 38.6719" stroke="#66737C" stroke-width="3.33333" stroke-linecap="round" stroke-linejoin="round" fill="none"/><path d="M17.5781 10.5469 17.5781 3.51562" stroke="#66737C" stroke-width="3.33333" stroke-linecap="round" stroke-linejoin="round" fill="none"/><path d="M28.125 10.5469 28.125 3.51562" stroke="#66737C" stroke-width="3.33333" stroke-linecap="round" stroke-linejoin="round" fill="none"/><path d="M38.6719 10.5469 38.6719 3.51562" stroke="#66737C" stroke-width="3.33333" stroke-linecap="round" stroke-linejoin="round" fill="none"/><path d="M17.5781 52.7344 17.5781 45.7031" stroke="#66737C" stroke-width="3.33333" stroke-linecap="round" stroke-linejoin="round" fill="none"/><path d="M28.125 52.7344 28.125 45.7031" stroke="#66737C" stroke-width="3.33333" stroke-linecap="round" stroke-linejoin="round" fill="none"/><path d="M38.6719 52.7344 38.6719 45.7031" stroke="#66737C" stroke-width="3.33333" stroke-linecap="round" stroke-linejoin="round" fill="none"/><path d="M45.7031 17.5781 52.7344 17.5781" stroke="#66737C" stroke-width="3.33333" stroke-linecap="round" stroke-linejoin="round" fill="none"/><path d="M45.7031 28.125 52.7344 28.125" stroke="#66737C" stroke-width="3.33333" stroke-linecap="round" stroke-linejoin="round" fill="none"/><path d="M45.7031 38.6719 52.7344 38.6719" stroke="#66737C" stroke-width="3.33333" stroke-linecap="round" stroke-linejoin="round" fill="none"/><path d="M3.51562 17.5781 10.5469 17.5781" stroke="#66737C" stroke-width="3.33333" stroke-linecap="round" stroke-linejoin="round" fill="none"/><path d="M3.51562 28.125 10.5469 28.125" stroke="#66737C" stroke-width="3.33333" stroke-linecap="round" stroke-linejoin="round" fill="none"/><path d="M3.51562 38.6719 10.5469 38.6719" stroke="#66737C" stroke-width="3.33333" stroke-linecap="round" stroke-linejoin="round" fill="none"/><path d="M17.5781 10.5469 38.6719 10.5469C38.6719 10.5469 45.7031 10.5469 45.7031 17.5781L45.7031 38.6719C45.7031 38.6719 45.7031 45.7031 38.6719 45.7031L17.5781 45.7031C17.5781 45.7031 10.5469 45.7031 10.5469 38.6719L10.5469 17.5781C10.5469 17.5781 10.5469 10.5469 17.5781 10.5469" stroke="#66737C" stroke-width="3.33333" stroke-linecap="round" stroke-linejoin="round" fill="none"/></svg>