<svg width="60" height="60" viewBox="-1.875 -1.875 60 60" xmlns="http://www.w3.org/2000/svg" xmlns:xlink="http://www.w3.org/1999/xlink" id="Crypto-Money-Chip--Streamline-Ultimate" fill="none" overflow="hidden"><path d="M7.50103 53.3332 7.50103 45.3124" stroke="#66737C" stroke-width="3.33333" stroke-linecap="round" stroke-linejoin="round"/><path d="M17.8136 53.3332 17.8136 45.3124" stroke="#66737C" stroke-width="3.33333" stroke-linecap="round" stroke-linejoin="round"/><path d="M28.125 53.3332 28.125 45.3124" stroke="#66737C" stroke-width="3.33333" stroke-linecap="round" stroke-linejoin="round"/><path d="M38.4375 53.3332 38.4375 45.3124" stroke="#66737C" stroke-width="3.33333" stroke-linecap="round" stroke-linejoin="round"/><path d="M47.6053 53.3332 47.6053 45.3124" stroke="#66737C" stroke-width="3.33333" stroke-linecap="round" stroke-linejoin="round"/><path d="M7.50103 10.9374 7.50103 2.91652" stroke="#66737C" stroke-width="3.33333" stroke-linecap="round" stroke-linejoin="round"/><path d="M17.8136 10.9374 17.8136 2.91652" stroke="#66737C" stroke-width="3.33333" stroke-linecap="round" stroke-linejoin="round"/><path d="M28.125 10.9374 28.125 2.91652" stroke="#66737C" stroke-width="3.33333" stroke-linecap="round" stroke-linejoin="round"/><path d="M38.4375 10.9374 38.4375 2.91652" stroke="#66737C" stroke-width="3.33333" stroke-linecap="round" stroke-linejoin="round"/><path d="M47.6053 10.9374 47.6053 2.91652" stroke="#66737C" stroke-width="3.33333" stroke-linecap="round" stroke-linejoin="round"/><path d="M50.4687 10.9374 5.78126 10.9374C3.88277 10.9374 2.34375 12.4764 2.34375 14.3749L2.34375 41.8748C2.34375 43.7733 3.88277 45.3124 5.78126 45.3124L50.4687 45.3124C52.3673 45.3124 53.9062 43.7733 53.9062 41.8748L53.9062 14.3749C53.9062 12.4764 52.3673 10.9374 50.4687 10.9374Z" stroke="#66737C" stroke-width="3.33333" stroke-linecap="round" stroke-linejoin="round"/><path d="M28.125 34.9999C31.9219 34.9999 34.9999 31.9219 34.9999 28.125 34.9999 24.3279 31.9219 21.25 28.125 21.25 24.3279 21.25 21.25 24.3279 21.25 28.125 21.25 31.9219 24.3279 34.9999 28.125 34.9999Z" stroke="#66737C" stroke-width="3.33333" stroke-linecap="round" stroke-linejoin="round"/><path d="M10.9376 20.3904C10.463 20.3904 10.0782 20.0056 10.0782 19.531 10.0782 19.0564 10.463 18.6716 10.9376 18.6716" stroke="#66737C" stroke-width="3.33333"/><path d="M10.9375 20.3904C11.4121 20.3904 11.7969 20.0056 11.7969 19.531 11.7969 19.0564 11.4121 18.6716 10.9375 18.6716" stroke="#66737C" stroke-width="3.33333"/><path d="M45.3124 37.578C44.8378 37.578 44.4532 37.1932 44.4532 36.7186 44.4532 36.244 44.8378 35.8591 45.3124 35.8591" stroke="#66737C" stroke-width="3.33333"/><path d="M45.3124 37.578C45.787 37.578 46.1719 37.1932 46.1719 36.7186 46.1719 36.244 45.787 35.8591 45.3124 35.8591" stroke="#66737C" stroke-width="3.33333"/></svg>