<svg width="60" height="60" viewBox="-2.14 -2.14 60 60" xmlns="http://www.w3.org/2000/svg" xmlns:xlink="http://www.w3.org/1999/xlink" id="Currency-Sign-Rupee-Increase--Streamline-Ultimate.svg" overflow="hidden"><defs></defs><path d="M52.2375 40.0441 52.2375 29.5966 41.79 29.5966" stroke="#66737C" stroke-width="3.57143" stroke-linecap="round" stroke-linejoin="round" fill="none"/><path d="M52.2375 29.5966 40.5131 41.3257C39.1544 42.6839 37.1602 43.1876 35.3195 42.6374L22.0558 39.0899C20.2538 38.6089 18.3321 39.1248 17.0132 40.4434L3.4825 53.9834" stroke="#66737C" stroke-width="3.57143" stroke-linecap="round" stroke-linejoin="round" fill="none"/><path d="M41.4464 22.6061C43.3512 13.1799 37.254 3.99441 27.8278 2.0896 18.4017 0.184794 9.21618 6.28203 7.31137 15.7082 5.98082 22.2925 8.55642 29.0551 13.93 33.0861" stroke="#66737C" stroke-width="3.57143" stroke-linecap="round" stroke-linejoin="round" fill="none"/><path d="M21.8608 11.6083C25.4222 11.5408 28.364 14.373 28.4316 17.9344 28.4992 21.4958 25.6669 24.4376 22.1055 24.5052 22.024 24.5067 21.9424 24.5067 21.8608 24.5052L17.9929 24.5052 25.731 32.2433" stroke="#66737C" stroke-width="3.57143" stroke-linecap="round" stroke-linejoin="round" fill="none"/><path d="M17.9929 11.613 32.1783 11.613" stroke="#66737C" stroke-width="3.57143" stroke-linecap="round" stroke-linejoin="round" fill="none"/><path d="M21.8608 18.0626 32.1783 18.0626" stroke="#66737C" stroke-width="3.57143" stroke-linecap="round" stroke-linejoin="round" fill="none"/></svg>