<svg width="60" height="60" viewBox="-2.14 -2.14 60 60" xmlns="http://www.w3.org/2000/svg" xmlns:xlink="http://www.w3.org/1999/xlink" id="Currency-Dollar-Circle--Streamline-Ultimate.svg" overflow="hidden"><path d="M32.5033 19.7342 27.5303 19.7342C25.1531 19.735 23.2267 21.6629 23.2275 24.0401 23.2281 25.6694 24.1486 27.1587 25.6057 27.8879L30.1329 30.1538C32.2588 31.2176 33.1198 33.8034 32.056 35.9293 31.3269 37.3864 29.8376 38.3069 28.2083 38.3075L23.2167 38.3075" stroke="#66737C" stroke-width="3.57143" stroke-linecap="round" stroke-linejoin="round" fill="none"/><path d="M26.7085 38.3075 26.7085 41.79" stroke="#66737C" stroke-width="3.57143" stroke-linecap="round" stroke-linejoin="round" fill="none"/><path d="M29.0301 16.2517 29.0301 19.7342" stroke="#66737C" stroke-width="3.57143" stroke-linecap="round" stroke-linejoin="round" fill="none"/><path d="M1.17012 27.86C1.17012 42.6055 13.1237 54.5592 27.8693 54.5592 42.6148 54.5592 54.5685 42.6055 54.5685 27.86 54.5685 13.1145 42.6148 1.16083 27.8693 1.16083 13.1237 1.16083 1.17012 13.1145 1.17012 27.86Z" stroke="#66737C" stroke-width="3.57143" stroke-linecap="round" stroke-linejoin="round" fill="none"/></svg>