<svg width="60" height="60" viewBox="-2.14 -2.14 60 60" xmlns="http://www.w3.org/2000/svg" xmlns:xlink="http://www.w3.org/1999/xlink" id="Currency-Yuan-Increase--Streamline-Ultimate.svg" overflow="hidden"><path d="M52.2375 40.0488 52.2375 29.6012 41.79 29.6012" stroke="#66737C" stroke-width="3.57143" stroke-linecap="round" stroke-linejoin="round" fill="none"/><path d="M52.2375 29.6012 40.5131 41.3257C39.1547 42.6844 37.1598 43.1874 35.3195 42.6351L22.0558 39.0945C20.2543 38.612 18.3321 39.1271 17.0132 40.4458L3.4825 53.9857" stroke="#66737C" stroke-width="3.57143" stroke-linecap="round" stroke-linejoin="round" fill="none"/><path d="M20.895 12.1888 20.895 13.93C20.895 15.8533 22.4542 17.4125 24.3775 17.4125 26.3008 17.4125 27.86 15.8533 27.86 13.93L27.86 12.1888" stroke="#66737C" stroke-width="3.57143" stroke-linecap="round" stroke-linejoin="round" fill="none"/><path d="M24.3775 17.4125 24.3775 26.1187" stroke="#66737C" stroke-width="3.57143" stroke-linecap="round" stroke-linejoin="round" fill="none"/><path d="M20.895 22.6362 27.86 22.6362" stroke="#66737C" stroke-width="3.57143" stroke-linecap="round" stroke-linejoin="round" fill="none"/><path d="M41.4464 22.6014C43.3501 13.1751 37.2518 3.99026 27.8254 2.08657 18.3991 0.182874 9.21425 6.28119 7.31056 15.7075 5.98089 22.2915 8.55675 29.0532 13.93 33.0838" stroke="#66737C" stroke-width="3.57143" stroke-linecap="round" stroke-linejoin="round" fill="none"/></svg>