<svg width="60" height="60" viewBox="-2.14 -2.14 60 60" xmlns="http://www.w3.org/2000/svg" xmlns:xlink="http://www.w3.org/1999/xlink" id="Currency-Dollar-Increase--Streamline-Ultimate.svg" overflow="hidden"><path d="M52.2375 40.0441 52.2375 29.5966 41.79 29.5966" stroke="#66737C" stroke-width="3.57143" stroke-linecap="round" stroke-linejoin="round" fill="none"/><path d="M52.2375 29.5966 40.5131 41.3257C39.1544 42.6839 37.1602 43.1876 35.3195 42.6374L22.0558 39.0899C20.2538 38.6089 18.3321 39.1248 17.0132 40.4434L3.4825 53.9834" stroke="#66737C" stroke-width="3.57143" stroke-linecap="round" stroke-linejoin="round" fill="none"/><path d="M27.86 12.1934 23.1401 12.1934C21.4193 12.1946 20.0253 13.5905 20.0266 15.3112 20.0274 16.5822 20.8002 17.7251 21.9792 18.1995L26.7711 20.1149C28.3688 20.754 29.1458 22.5673 28.5067 24.1649 28.0331 25.349 26.8856 26.1249 25.6103 26.1234L20.895 26.1234" stroke="#66737C" stroke-width="3.57143" stroke-linecap="round" stroke-linejoin="round" fill="none"/><path d="M24.3775 12.1934 24.3775 10.4521" stroke="#66737C" stroke-width="3.57143" stroke-linecap="round" stroke-linejoin="round" fill="none"/><path d="M24.3775 27.8646 24.3775 26.1234" stroke="#66737C" stroke-width="3.57143" stroke-linecap="round" stroke-linejoin="round" fill="none"/><path d="M41.4464 22.6061C43.3512 13.1799 37.254 3.99441 27.8278 2.0896 18.4017 0.184794 9.21618 6.28203 7.31137 15.7082 5.98082 22.2925 8.55642 29.0551 13.93 33.0861" stroke="#66737C" stroke-width="3.57143" stroke-linecap="round" stroke-linejoin="round" fill="none"/></svg>