<svg width="60" height="60" viewBox="-1.875 -1.875 60 60" xmlns="http://www.w3.org/2000/svg" xmlns:xlink="http://www.w3.org/1999/xlink" id="Customer-Relationship-Management-Lead-Distribution--Streamline-Ultimate" overflow="hidden"><defs></defs><path d="M22.0664 5.21953C24.2663 7.50099 27.2995 8.78957 30.4688 8.78906 32.0588 8.78952 33.6323 8.46574 35.093 7.8375" stroke="#66737C" stroke-width="3.33333" stroke-linecap="round" stroke-linejoin="round" fill="none"/><path d="M21.0938 8.78906C21.0938 12.6723 24.2417 15.8203 28.125 15.8203 32.0083 15.8203 35.1562 12.6723 35.1562 8.78906 35.1562 4.90581 32.0083 1.75781 28.125 1.75781 24.2417 1.75781 21.0938 4.90581 21.0938 8.78906" stroke="#66737C" stroke-width="3.33333" stroke-linecap="round" stroke-linejoin="round" fill="none"/><path d="M17.5781 29.8828C17.5781 24.0579 22.3001 19.3359 28.125 19.3359 33.9499 19.3359 38.6719 24.0579 38.6719 29.8828Z" stroke="#66737C" stroke-width="3.33333" stroke-linecap="round" stroke-linejoin="round" fill="none"/><path d="M28.125 19.3359 28.125 24.6492" stroke="#66737C" stroke-width="3.33333" stroke-linecap="round" stroke-linejoin="round" fill="none"/><path d="M28.125 37.5 28.125 54.4922" stroke="#66737C" stroke-width="3.33333" stroke-linecap="round" stroke-linejoin="round" fill="none"/><path d="M22.2656 48.6328 28.125 54.4922 33.9844 48.6328" stroke="#66737C" stroke-width="3.33333" stroke-linecap="round" stroke-linejoin="round" fill="none"/><path d="M54.4922 37.5 1.75781 37.5" stroke="#66737C" stroke-width="3.33333" stroke-linecap="round" stroke-linejoin="round" fill="none"/><path d="M7.61719 43.3594 1.75781 37.5 7.61719 31.6406" stroke="#66737C" stroke-width="3.33333" stroke-linecap="round" stroke-linejoin="round" fill="none"/><path d="M48.6328 43.3594 54.4922 37.5 48.6328 31.6406" stroke="#66737C" stroke-width="3.33333" stroke-linecap="round" stroke-linejoin="round" fill="none"/></svg>