<svg width="60" height="60" viewBox="-1.875 -1.875 60 60" xmlns="http://www.w3.org/2000/svg" xmlns:xlink="http://www.w3.org/1999/xlink" id="Customer-Relationship-Management-Self-Service-Wrench--Streamline-Ultimate" overflow="hidden"><defs></defs><path d="M4.24922 34.2492 15.968 34.2492 15.968 54.1805 4.24922 54.1805Z" stroke="#66737C" stroke-width="3.33333" stroke-linecap="round" stroke-linejoin="round" fill="none"/><path d="M15.968 37.7742 15.968 50.6648 21.6352 50.6648C26.3941 53.0221 31.641 54.2265 36.9516 54.1805 38.1347 54.1935 39.2489 53.625 39.9328 52.6594L46.9336 42.8578C47.5516 41.9948 47.759 40.9038 47.5008 39.8742L46.7812 36.9938C46.3772 35.3811 44.9281 34.2499 43.2656 34.2492L34.718 34.2492 34.718 28.7672C34.7185 28.2414 34.4218 27.7604 33.9516 27.525 33.2638 27.1758 32.461 27.1316 31.7391 27.4031 27.2806 29.598 23.713 33.26 21.6352 37.7742Z" stroke="#66737C" stroke-width="3.33333" stroke-linecap="round" stroke-linejoin="round" fill="none"/><path d="M43.3594 34.2586 43.3594 25.4836C49.825 23.4858 53.4469 16.6249 51.4492 10.1593 50.2543 6.29207 47.2266 3.26444 43.3594 2.06953L43.3594 13.7883C43.4108 15.8315 41.7961 17.5296 39.7529 17.581 37.7097 17.6324 36.0116 16.0178 35.9602 13.9745 35.9586 13.9125 35.9586 13.8504 35.9602 13.7883L35.9602 2.06953C29.4825 4.08534 25.8655 10.9706 27.8813 17.4483 28.9442 20.8637 31.443 23.6462 34.725 25.0688L34.725 34.2586" stroke="#66737C" stroke-width="3.33333" stroke-linecap="round" stroke-linejoin="round" fill="none"/></svg>