<svg width="60" height="60" viewBox="-1.875 -1.875 60 60" xmlns="http://www.w3.org/2000/svg" xmlns:xlink="http://www.w3.org/1999/xlink" id="Customer-Relationship-Management-Marketing-Automaton-2--Streamline-Ultimate" overflow="hidden"><defs></defs><path d="M19.1812 36.0797 23.0438 40.3922" stroke="#66737C" stroke-width="3.33333" stroke-linecap="round" stroke-linejoin="round" fill="none"/><path d="M29.8828 13.3852 45.1102 30.3867" stroke="#66737C" stroke-width="3.33333" stroke-linecap="round" stroke-linejoin="round" fill="none"/><path d="M43.4695 28.5539 22.1109 39.3492 20.0625 37.0641 31.8609 15.5953 43.4695 28.5539Z" stroke="#66737C" stroke-width="3.33333" stroke-linecap="round" stroke-linejoin="round" fill="none"/><path d="M26.7188 37.0172 28.5164 38.9766C29.7324 40.3909 31.8648 40.5518 33.2792 39.3357 33.3337 39.2888 33.3868 39.2402 33.4383 39.1898 34.8312 37.786 34.8887 35.5398 33.5695 34.0664L33.2391 33.7266" stroke="#66737C" stroke-width="3.33333" stroke-linecap="round" stroke-linejoin="round" fill="none"/><path d="M13.5938 12.4992C22.2283 2.85581 37.0456 2.03801 46.689 10.6726 56.3324 19.3072 57.1502 34.1245 48.5156 43.7679 39.881 53.4113 25.0638 54.2291 15.4204 45.5945 10.4527 41.1465 7.61476 34.793 7.61719 28.125L7.61719 25.657" stroke="#66737C" stroke-width="3.33333" stroke-linecap="round" stroke-linejoin="round" fill="none"/><path d="M13.4766 30.4688 7.61719 23.4375 1.75781 30.4688" stroke="#66737C" stroke-width="3.33333" stroke-linecap="round" stroke-linejoin="round" fill="none"/></svg>