<svg width="60" height="60" viewBox="-1.875 -1.875 60 60" xmlns="http://www.w3.org/2000/svg" xmlns:xlink="http://www.w3.org/1999/xlink" id="Damaged-Package--Streamline-Ultimate" fill="none" overflow="hidden"><style>
.MsftOfcResponsive_Stroke_66737c {
 stroke:#66737C; 
}
</style>
<path d="M40.4297 54.4922C48.1962 54.4922 54.4922 48.1962 54.4922 40.4297 54.4922 32.6632 48.1962 26.3672 40.4297 26.3672 32.6632 26.3672 26.3672 32.6632 26.3672 40.4297 26.3672 48.1962 32.6632 54.4922 40.4297 54.4922Z" class="MsftOfcResponsive_Stroke_66737c" stroke="#66737C" stroke-width="3.57143" stroke-linecap="round" stroke-linejoin="round" stroke-miterlimit="10"/><path d="M35.5078 35.5078 45.3516 45.3516" class="MsftOfcResponsive_Stroke_66737c" stroke="#66737C" stroke-width="3.57143" stroke-linecap="round" stroke-linejoin="round" stroke-miterlimit="10"/><path d="M35.5078 45.3516 45.3516 35.5078" class="MsftOfcResponsive_Stroke_66737c" stroke="#66737C" stroke-width="3.57143" stroke-linecap="round" stroke-linejoin="round" stroke-miterlimit="10"/><path d="M19.3359 44.1797 5.27344 44.1797C3.39844 44.1797 1.75781 42.5391 1.75781 40.6641L1.75781 16.0546C1.75781 14.1796 3.39844 12.539 5.27344 12.539L40.4297 12.539C42.3047 12.539 43.9453 14.1796 43.9453 16.0546L43.9453 19.5703" class="MsftOfcResponsive_Stroke_66737c" stroke="#66737C" stroke-width="3.57143" stroke-linecap="round" stroke-linejoin="round" stroke-miterlimit="10"/><path d="M42.6562 13.2422 36.094 3.39839C35.3909 2.46089 34.4531 1.75781 33.2812 1.75781L12.422 1.75781C11.2501 1.75781 10.0782 2.46089 9.60947 3.39839L3.04699 13.2422" class="MsftOfcResponsive_Stroke_66737c" stroke="#66737C" stroke-width="3.57143" stroke-linecap="round" stroke-linejoin="round" stroke-miterlimit="10"/><path d="M22.8516 1.75781 22.8516 12.3047" class="MsftOfcResponsive_Stroke_66737c" stroke="#66737C" stroke-width="3.57143" stroke-linecap="round" stroke-linejoin="round" stroke-miterlimit="10"/><path d="M13.4766 12.539 11.1328 21.914 18.1641 21.914 15.8203 31.2891" class="MsftOfcResponsive_Stroke_66737c" stroke="#66737C" stroke-width="3.57143" stroke-linecap="round" stroke-linejoin="round" stroke-miterlimit="10"/></svg>