<svg width="60" height="60" viewBox="-2.14 -2.14 60 60" xmlns="http://www.w3.org/2000/svg" xmlns:xlink="http://www.w3.org/1999/xlink" id="Deepfake-Side--Streamline-Ultimate.svg" fill="none" overflow="hidden"><path d="M8.41377 13.8139C10.3371 13.8139 11.8963 12.2548 11.8963 10.3314 11.8963 8.40812 10.3371 6.84894 8.41377 6.84894 6.49045 6.84894 4.93127 8.40812 4.93127 10.3314 4.93127 12.2548 6.49045 13.8139 8.41377 13.8139Z" stroke="#66737C" stroke-width="3.57143" stroke-linecap="round" stroke-linejoin="round" stroke-miterlimit="10"/><path d="M11.8963 10.3314 24.3729 10.3314" stroke="#66737C" stroke-width="3.57143" stroke-linecap="round" stroke-linejoin="round" stroke-miterlimit="10"/><path d="M5.22375 31.2264C7.14709 31.2264 8.70625 29.6672 8.70625 27.7439 8.70625 25.8206 7.14709 24.2614 5.22375 24.2614 3.30041 24.2614 1.74125 25.8206 1.74125 27.7439 1.74125 29.6672 3.30041 31.2264 5.22375 31.2264Z" stroke="#66737C" stroke-width="3.57143" stroke-linecap="round" stroke-linejoin="round" stroke-miterlimit="10"/><path d="M8.70625 27.7439 24.3729 27.7439" stroke="#66737C" stroke-width="3.57143" stroke-linecap="round" stroke-linejoin="round" stroke-miterlimit="10"/><path d="M8.41377 48.6389C10.3371 48.6389 11.8963 47.0797 11.8963 45.1564 11.8963 43.2331 10.3371 41.6739 8.41377 41.6739 6.49045 41.6739 4.93127 43.2331 4.93127 45.1564 4.93127 47.0797 6.49045 48.6389 8.41377 48.6389Z" stroke="#66737C" stroke-width="3.57143" stroke-linecap="round" stroke-linejoin="round" stroke-miterlimit="10"/><path d="M11.8985 45.1564 24.3729 45.1564" stroke="#66737C" stroke-width="3.57143" stroke-linecap="round" stroke-linejoin="round" stroke-miterlimit="10"/><path d="M13.0571 37.0306 17.7004 37.0306 17.7004 45.1434" stroke="#66737C" stroke-width="3.57143" stroke-linecap="round" stroke-linejoin="round" stroke-miterlimit="10"/><path d="M16.3934 19.6181 24.3729 19.6181" stroke="#66737C" stroke-width="3.57143" stroke-linecap="round" stroke-linejoin="round" stroke-miterlimit="10"/><path d="M24.3729 2.20561C43.1784 2.20561 47.1252 17.5286 53.858 34.9411 54.3224 36.3341 53.3937 37.7271 52.0007 37.7271L47.1252 37.7271 47.1252 45.6208C47.1252 50.0319 43.6427 53.5144 39.2315 53.5144L24.3729 53.5144 24.3729 2.20561Z" stroke="#66737C" stroke-width="3.57143" stroke-linecap="round" stroke-linejoin="round" stroke-miterlimit="10"/><path d="M40.1574 40.5131C41.3182 42.8348 44.8007 42.8348 47.1224 42.8348" stroke="#66737C" stroke-width="3.57143" stroke-linecap="round" stroke-linejoin="round" stroke-miterlimit="10"/><path d="M38.9994 25.8864C38.743 25.8864 38.535 25.6786 38.535 25.422 38.535 25.1657 38.743 24.9577 38.9994 24.9577" stroke="#66737C" stroke-width="3.57143" stroke-linecap="round" stroke-linejoin="round" stroke-miterlimit="10"/><path d="M38.9994 25.8864C39.2557 25.8864 39.4637 25.6786 39.4637 25.422 39.4637 25.1657 39.2557 24.9577 38.9994 24.9577" stroke="#66737C" stroke-width="3.57143" stroke-linecap="round" stroke-linejoin="round" stroke-miterlimit="10"/></svg>