<svg width="60" height="60" viewBox="-2.14 -2.14 60 60" xmlns="http://www.w3.org/2000/svg" xmlns:xlink="http://www.w3.org/1999/xlink" id="Delivery-Truck-2--Streamline-Ultimate.svg" overflow="hidden"><path d="M53.9787 31.3425 53.9787 13.93C53.9787 12.0067 52.4196 10.4475 50.4963 10.4475L22.6362 10.4475C20.7129 10.4475 19.1537 12.0067 19.1537 13.93L19.1537 27.86" stroke="#66737C" stroke-width="3.57143" stroke-linecap="round" stroke-linejoin="round" fill="none"/><path d="M19.1537 27.86 19.1537 13.93 12.1888 13.93C6.41876 13.93 1.74125 18.6075 1.74125 24.3775L1.74125 38.3075C1.74125 40.2308 3.30042 41.79 5.22375 41.79L6.965 41.79" stroke="#66737C" stroke-width="3.57143" stroke-linecap="round" stroke-linejoin="round" fill="none"/><path d="M1.74125 27.86 8.70625 27.86C10.6296 27.86 12.1888 26.3008 12.1888 24.3775L12.1888 13.93" stroke="#66737C" stroke-width="3.57143" stroke-linecap="round" stroke-linejoin="round" fill="none"/><path d="M12.1888 40.0488C12.1888 42.9338 14.5275 45.2725 17.4125 45.2725 20.2975 45.2725 22.6362 42.9338 22.6362 40.0488 22.6362 37.1638 20.2975 34.825 17.4125 34.825 14.5275 34.825 12.1888 37.1638 12.1888 40.0488Z" stroke="#66737C" stroke-width="3.57143" stroke-linecap="round" stroke-linejoin="round" fill="none"/><path d="M40.0488 40.0488C40.0488 42.9338 42.3875 45.2725 45.2725 45.2725 48.1575 45.2725 50.4963 42.9338 50.4963 40.0488 50.4963 37.1638 48.1575 34.825 45.2725 34.825 42.3875 34.825 40.0488 37.1638 40.0488 40.0488Z" stroke="#66737C" stroke-width="3.57143" stroke-linecap="round" stroke-linejoin="round" fill="none"/><path d="M27.86 41.79 34.825 41.79" stroke="#66737C" stroke-width="3.57143" stroke-linecap="round" stroke-linejoin="round" fill="none"/></svg>