<svg width="60" height="60" viewBox="-2.14 -2.14 60 60" xmlns="http://www.w3.org/2000/svg" xmlns:xlink="http://www.w3.org/1999/xlink" id="Delivery-Truck--Streamline-Ultimate.svg" overflow="hidden"><g><path d="M8.12583 43.5312 4.64333 43.5312C2.72 43.5312 1.16083 41.9721 1.16083 40.0488L1.16083 15.6713C1.16083 13.7479 2.72 12.1888 4.64333 12.1888L39.4683 12.1888C41.3917 12.1888 42.9508 13.7479 42.9508 15.6713L42.9508 22.6362" stroke="#66737C" stroke-width="3.57143" stroke-linecap="round" stroke-linejoin="round" fill="none"/><path d="M41.79 13.1174 35.2893 3.29677C34.6668 2.35829 33.6289 1.77878 32.5033 1.74125L11.7244 1.74125C10.5575 1.74081 9.468 2.32481 8.82233 3.29677L2.32167 13.1174" stroke="#66737C" stroke-width="3.57143" stroke-linecap="round" stroke-linejoin="round" fill="none"/><path d="M22.0558 1.74125 22.0558 12.1888" stroke="#66737C" stroke-width="3.57143" stroke-linecap="round" stroke-linejoin="round" fill="none"/><g><path d="M20.4074 50.4963 18.5733 50.4963C16.65 50.4963 15.0908 48.9371 15.0908 47.0138L15.0908 33.0838C15.0908 31.1604 16.65 29.6013 18.5733 29.6013L37.1467 29.6012C39.07 29.6012 40.6292 31.1604 40.6292 33.0837L40.6292 45.7833" stroke="#66737C" stroke-width="3.57143" stroke-linecap="round" stroke-linejoin="round" fill="none"/><path d="M40.6292 33.0838 47.5942 33.0838C51.4408 33.0838 54.5592 36.2021 54.5592 40.0488L54.5592 47.0137C54.5592 48.9371 53 50.4962 51.0767 50.4962L46.9209 50.4963" stroke="#66737C" stroke-width="3.57143" stroke-linecap="round" stroke-linejoin="round" fill="none"/><path d="M38.3075 49.614C38.3075 52.0118 40.2513 53.9555 42.649 53.9555 45.0468 53.9555 46.9905 52.0118 46.9905 49.614 46.9905 47.2163 45.0468 45.2725 42.649 45.2725 40.2513 45.2725 38.3075 47.2163 38.3075 49.614" stroke="#66737C" stroke-width="3.57143" stroke-linecap="round" stroke-linejoin="round" fill="none"/><path d="M20.3146 49.614C20.3146 52.0118 22.2583 53.9555 24.6561 53.9555 27.0539 53.9555 28.9976 52.0118 28.9976 49.614 28.9976 47.2163 27.0539 45.2725 24.6561 45.2725 22.2583 45.2725 20.3146 47.2163 20.3146 49.614" stroke="#66737C" stroke-width="3.57143" stroke-linecap="round" stroke-linejoin="round" fill="none"/><path d="M38.4004 50.4963 28.928 50.4963" stroke="#66737C" stroke-width="3.57143" stroke-linecap="round" stroke-linejoin="round" fill="none"/></g></g></svg>