<svg width="60" height="60" viewBox="-2.14 -2.14 60 60" xmlns="http://www.w3.org/2000/svg" xmlns:xlink="http://www.w3.org/1999/xlink" id="Delivery-Drone--Streamline-Ultimate.svg" overflow="hidden"><g><path d="M17.4125 33.0838 38.3075 33.0838C38.3075 33.0838 39.4683 33.0838 39.4683 34.2446L39.4683 52.8179C39.4683 52.8179 39.4683 53.9787 38.3075 53.9787L17.4125 53.9787C17.4125 53.9787 16.2517 53.9787 16.2517 52.8179L16.2517 34.2446C16.2517 34.2446 16.2517 33.0838 17.4125 33.0838" stroke="#66737C" stroke-width="3.57143" stroke-linecap="round" stroke-linejoin="round" fill="none"/><path d="M9.86708 1.74125 9.86708 10.8654C9.89149 12.8905 11.2256 14.6662 13.1638 15.2534L16.8785 16.2517" stroke="#66737C" stroke-width="3.57143" stroke-linecap="round" stroke-linejoin="round" fill="none"/><path d="M18.434 23.2167 11.7244 24.7257C9.23324 25.3343 7.70709 27.8472 8.31568 30.3384 8.32184 30.3636 8.3282 30.3887 8.33478 30.4138L9.28667 33.6874" stroke="#66737C" stroke-width="3.57143" stroke-linecap="round" stroke-linejoin="round" fill="none"/><path d="M26.1187 17.4125C26.1187 18.3742 26.8983 19.1537 27.86 19.1537 28.8217 19.1537 29.6012 18.3742 29.6012 17.4125 29.6012 16.4508 28.8217 15.6713 27.86 15.6713 26.8983 15.6713 26.1187 16.4508 26.1187 17.4125" stroke="#66737C" stroke-width="3.57143" stroke-linecap="round" stroke-linejoin="round" fill="none"/><path d="M16.8321 17.4125C16.8321 23.503 21.7694 28.4404 27.86 28.4404 33.9506 28.4404 38.8879 23.503 38.8879 17.4125 38.8879 11.3219 33.9506 6.38458 27.86 6.38458 21.7695 6.38458 16.8321 11.3219 16.8321 17.4125" stroke="#66737C" stroke-width="3.57143" stroke-linecap="round" stroke-linejoin="round" fill="none"/><path d="M32.5033 33.0838 32.5033 43.5312 23.2167 43.5312 23.2167 33.0838" stroke="#66737C" stroke-width="3.57143" stroke-linecap="round" stroke-linejoin="round" fill="none"/><path d="M1.74125 1.76447 17.9929 1.76447" stroke="#66737C" stroke-width="3.57143" stroke-linecap="round" stroke-linejoin="round" fill="none"/><path d="M45.8529 1.74125 45.8529 10.8654C45.8285 12.8905 44.4944 14.6662 42.5561 15.2534L38.8415 16.2517" stroke="#66737C" stroke-width="3.57143" stroke-linecap="round" stroke-linejoin="round" fill="none"/><path d="M37.286 23.2167 43.9956 24.7257C46.4868 25.3343 48.0129 27.8472 47.4043 30.3384 47.3982 30.3636 47.3918 30.3887 47.3852 30.4138L46.4333 33.6874" stroke="#66737C" stroke-width="3.57143" stroke-linecap="round" stroke-linejoin="round" fill="none"/><path d="M53.9787 1.76447 37.7271 1.76447" stroke="#66737C" stroke-width="3.57143" stroke-linecap="round" stroke-linejoin="round" fill="none"/></g></svg>