<svg width="60" height="60" viewBox="-2.14 -2.14 60 60" xmlns="http://www.w3.org/2000/svg" xmlns:xlink="http://www.w3.org/1999/xlink" id="Design-Tool-Pencil-Ruler--Streamline-Ultimate.svg" overflow="hidden"><g><path d="M12.1888 53.9787 12.1888 53.9787C8.34209 53.9787 5.22375 50.8604 5.22375 47.0137L5.22375 15.1605C5.22671 14.0799 5.48106 13.0148 5.96668 12.0494L10.61 2.76278C11.0422 1.9037 12.089 1.55761 12.948 1.98978 13.282 2.15778 13.553 2.42881 13.7211 2.76278L18.3644 12.0494C18.85 13.0148 19.1044 14.0799 19.1073 15.1605L19.1073 47.0137C19.1074 50.8424 16.0173 53.9532 12.1888 53.9787Z" stroke="#66737C" stroke-width="3.57143" stroke-linecap="round" stroke-linejoin="round" fill="none"/><path d="M5.22375 15.0908 19.1537 15.0908" stroke="#66737C" stroke-width="3.57143" stroke-linecap="round" stroke-linejoin="round" fill="none"/><path d="M5.22375 42.9508 19.1537 42.9508" stroke="#66737C" stroke-width="3.57143" stroke-linecap="round" stroke-linejoin="round" fill="none"/><path d="M33.0838 1.74125 47.0137 1.74125C47.0137 1.74125 50.4963 1.74125 50.4963 5.22375L50.4963 50.4963C50.4963 50.4963 50.4963 53.9787 47.0137 53.9787L33.0838 53.9787C33.0838 53.9787 29.6012 53.9787 29.6012 50.4963L29.6012 5.22375C29.6012 5.22375 29.6012 1.74125 33.0838 1.74125" stroke="#66737C" stroke-width="3.57143" stroke-linecap="round" stroke-linejoin="round" fill="none"/><path d="M29.6012 12.1888 37.7271 12.1888" stroke="#66737C" stroke-width="3.57143" stroke-linecap="round" stroke-linejoin="round" fill="none"/><path d="M29.6012 22.6362 37.7271 22.6362" stroke="#66737C" stroke-width="3.57143" stroke-linecap="round" stroke-linejoin="round" fill="none"/><path d="M29.6012 33.0838 37.7271 33.0838" stroke="#66737C" stroke-width="3.57143" stroke-linecap="round" stroke-linejoin="round" fill="none"/><path d="M29.6012 43.5312 37.7271 43.5312" stroke="#66737C" stroke-width="3.57143" stroke-linecap="round" stroke-linejoin="round" fill="none"/></g></svg>