<svg width="60" height="60" viewBox="-1.875 -1.875 60 60" xmlns="http://www.w3.org/2000/svg" xmlns:xlink="http://www.w3.org/1999/xlink" id="Diagram-Arrow-Dash-Corner-Point-Left--Streamline-Ultimate" overflow="hidden"><path d="M54.4922 45.7031 54.4922 54.4922" stroke="#66737C" stroke-width="3.33333" stroke-linecap="round" stroke-linejoin="round" fill="none"/><path d="M42.1875 38.6719 42.1875 28.125C42.1875 26.1834 40.6135 24.6094 38.6719 24.6094L17.5781 24.6094 17.5781 32.7867C17.5781 33.4242 17.1961 33.5906 16.7297 33.157L2.31797 18.8648C1.60604 18.2048 1.56396 17.0926 2.22399 16.3807 2.25412 16.3482 2.28547 16.3168 2.31797 16.2867L16.7297 1.99922C17.1984 1.56562 17.5781 1.73203 17.5781 2.36953L17.5781 10.5469 50.9766 10.5469C52.9182 10.5469 54.4922 12.1209 54.4922 14.0625L54.4922 38.6719" stroke="#66737C" stroke-width="3.33333" stroke-linecap="round" stroke-linejoin="round" fill="none"/><path d="M42.1875 54.4922 42.1875 45.7031" stroke="#66737C" stroke-width="3.33333" stroke-linecap="round" stroke-linejoin="round" fill="none"/></svg>