<svg width="60" height="60" viewBox="-2.14 -2.14 60 60" xmlns="http://www.w3.org/2000/svg" xmlns:xlink="http://www.w3.org/1999/xlink" id="Diamond-Give--Streamline-Ultimate.svg" overflow="hidden"><g><path d="M9.49562 13.3496 46.2244 13.3496" stroke="#66737C" stroke-width="3.57143" stroke-linecap="round" stroke-linejoin="round" fill="none"/><path d="M19.8735 1.74125 35.8465 1.74125C36.3428 1.7406 36.8158 1.95175 37.1467 2.32167L45.7833 12.1191C46.4821 12.7798 46.513 13.8818 45.8524 14.5806 45.83 14.6043 45.8069 14.6273 45.7833 14.6497L29.0208 29.6941C28.364 30.2961 27.356 30.2961 26.6992 29.6941L10.0528 14.5801C9.35401 13.9194 9.32307 12.8173 9.98373 12.1185 10.0061 12.0949 10.0291 12.0718 10.0528 12.0494L18.5733 2.32167C18.9042 1.95175 19.3772 1.7406 19.8735 1.74125Z" stroke="#66737C" stroke-width="3.57143" stroke-linecap="round" stroke-linejoin="round" fill="none"/><path d="M19.2002 1.88055 26.1187 13.3496" stroke="#66737C" stroke-width="3.57143" stroke-linecap="round" stroke-linejoin="round" fill="none"/><path d="M36.5198 1.88055 29.6012 13.3496" stroke="#66737C" stroke-width="3.57143" stroke-linecap="round" stroke-linejoin="round" fill="none"/><path d="M8.70625 53.9787 4.06292 48.1282C2.5699 46.2807 1.751 43.9796 1.74125 41.6043L1.74125 29.6012C1.74125 27.6779 3.30042 26.1187 5.22375 26.1187L5.22375 26.1187C7.14708 26.1187 8.70625 27.6779 8.70625 29.6012L8.70625 38.3075" stroke="#66737C" stroke-width="3.57143" stroke-linecap="round" stroke-linejoin="round" fill="none"/><path d="M19.1537 53.6537 19.1537 46.6887C19.1579 44.6285 18.5432 42.6145 17.3893 40.9078L14.7426 36.9145C13.8107 35.3652 11.7994 34.8647 10.2501 35.7965 10.1989 35.8273 10.1486 35.8594 10.0992 35.893L10.0992 35.893C8.74124 36.806 8.27379 38.5863 9.00807 40.0488L12.1888 45.2725" stroke="#66737C" stroke-width="3.57143" stroke-linecap="round" stroke-linejoin="round" fill="none"/><path d="M47.0137 53.9787 51.6571 48.1282C53.1501 46.2807 53.969 43.9796 53.9787 41.6043L53.9787 29.6012C53.9787 27.6779 52.4196 26.1187 50.4963 26.1187L50.4963 26.1187C48.5729 26.1187 47.0138 27.6779 47.0138 29.6012L47.0137 38.3075" stroke="#66737C" stroke-width="3.57143" stroke-linecap="round" stroke-linejoin="round" fill="none"/><path d="M36.5662 53.6537 36.5662 46.6887C36.5621 44.6285 37.1768 42.6145 38.3307 40.9078L40.9774 36.9145C41.9093 35.3652 43.9206 34.8647 45.4699 35.7965 45.5211 35.8273 45.5714 35.8594 45.6208 35.893L45.6208 35.893C46.9788 36.806 47.4462 38.5863 46.7119 40.0488L43.5312 45.2725" stroke="#66737C" stroke-width="3.57143" stroke-linecap="round" stroke-linejoin="round" fill="none"/><path d="M27.86 13.3496 27.86 30.1584" stroke="#66737C" stroke-width="3.57143" stroke-linecap="round" stroke-linejoin="round" fill="none"/></g></svg>