<svg width="60" height="60" viewBox="-1.875 -1.875 60 60" xmlns="http://www.w3.org/2000/svg" xmlns:xlink="http://www.w3.org/1999/xlink" id="Digital-Policies-Email-Protection-1--Streamline-Ultimate" overflow="hidden"><defs></defs><path d="M18.1641 36.9141 5.27344 36.9141C3.33181 36.9141 1.75781 35.3401 1.75781 33.3984L1.75781 5.27344C1.75781 3.33181 3.33181 1.75781 5.27344 1.75781L47.4609 1.75781C49.4026 1.75781 50.9766 3.33181 50.9766 5.27344L50.9766 19.9219" stroke="#66737C" stroke-width="3.33333" stroke-linecap="round" stroke-linejoin="round" fill="none"/><path d="M50.182 3.04688 31.0945 17.7281C28.3079 19.8729 24.4265 19.8729 21.6398 17.7281L2.55234 3.04688" stroke="#66737C" stroke-width="3.33333" stroke-linecap="round" stroke-linejoin="round" fill="none"/><path d="M40.4297 33.3961 40.4297 45.1148" stroke="#66737C" stroke-width="3.33333" stroke-linecap="round" stroke-linejoin="round" fill="none"/><path d="M46.2891 39.2555 34.5703 39.2555" stroke="#66737C" stroke-width="3.33333" stroke-linecap="round" stroke-linejoin="round" fill="none"/><path d="M41.6836 54.2555 42.9797 53.7633C49.1437 51.4195 54.4922 45.5039 54.4922 38.9086L54.4922 30.9398C54.4926 29.965 53.9144 29.083 53.0203 28.6945 48.9752 27.1821 44.6966 26.3889 40.3781 26.3508 36.0929 26.3863 31.8478 27.1798 27.8391 28.6945 26.9446 29.0825 26.3661 29.9649 26.3672 30.9398L26.3672 38.9062C26.3672 45.5016 31.6125 51.4125 37.7766 53.7609L39.0727 54.2531C39.9133 54.5742 40.8429 54.5742 41.6836 54.2531Z" stroke="#66737C" stroke-width="3.33333" stroke-linecap="round" stroke-linejoin="round" fill="none"/></svg>