<svg width="60" height="60" viewBox="-1.875 -1.875 60 60" xmlns="http://www.w3.org/2000/svg" xmlns:xlink="http://www.w3.org/1999/xlink" id="Discount-Circle--Streamline-Ultimate" overflow="hidden"><g><path d="M1.75781 28.125C1.75781 42.6872 13.5628 54.4922 28.125 54.4922 42.6872 54.4922 54.4922 42.6872 54.4922 28.125 54.4922 13.5628 42.6872 1.75781 28.125 1.75781 13.5628 1.75781 1.75781 13.5628 1.75781 28.125" stroke="#66737C" stroke-width="3.33333" stroke-linecap="round" stroke-linejoin="round" fill="none"/><path d="M18.75 37.5 37.5 18.75" stroke="#66737C" stroke-width="3.33333" stroke-linecap="round" stroke-linejoin="round" fill="none"/><path d="M16.4062 20.5078C16.4062 22.773 18.2426 24.6094 20.5078 24.6094 22.773 24.6094 24.6094 22.773 24.6094 20.5078 24.6094 18.2426 22.773 16.4062 20.5078 16.4062 18.2426 16.4062 16.4062 18.2426 16.4062 20.5078" stroke="#66737C" stroke-width="3.33333" stroke-linecap="round" stroke-linejoin="round" fill="none"/><path d="M31.6406 35.7422C31.6406 38.0074 33.477 39.8438 35.7422 39.8438 38.0074 39.8438 39.8438 38.0074 39.8438 35.7422 39.8438 33.477 38.0074 31.6406 35.7422 31.6406 33.477 31.6406 31.6406 33.477 31.6406 35.7422" stroke="#66737C" stroke-width="3.33333" stroke-linecap="round" stroke-linejoin="round" fill="none"/></g></svg>