<svg width="44.8" height="44.8" viewBox="-1.6 -1.6 44.8 44.8" xmlns="http://www.w3.org/2000/svg" xmlns:xlink="http://www.w3.org/1999/xlink" id="Document-Contract-Edit-Sign--Streamline-Core" fill="none" overflow="hidden"><g id="document-contract-edit-sign--document-contract-edit-sign-file"><path d="M40.1149 25.2572 26.1193 39.2526 19.7902 40.1143 20.6816 33.7851 34.6475 19.7898 40.1149 25.2572Z" id="Vector" stroke="#66737C" stroke-width="2.67857" stroke-linecap="round" stroke-linejoin="round"/><path d="M11.8857 29.7143 11.8857 4.45714C11.8857 3.63661 12.5509 2.97143 13.3714 2.97143L37.1429 2.97143C37.9633 2.97143 38.6286 3.63661 38.6286 4.45714L38.6286 13.3714" id="Rectangle 2290" stroke="#66737C" stroke-width="2.67857" stroke-linecap="round" stroke-linejoin="round"/><path d="M16.3429 29.7143 4.45714 29.7143C3.63661 29.7143 2.97143 30.3796 2.97143 31.2L2.97143 34.1714C2.97143 36.633 4.96695 38.6286 7.42857 38.6286L13.3714 38.6286" id="Rectangle 2289" stroke="#66737C" stroke-width="2.67857" stroke-linecap="round" stroke-linejoin="round"/><path d="M17.8286 10.4 32.6857 10.4" id="Vector 5249" stroke="#66737C" stroke-width="2.67857" stroke-linecap="round" stroke-linejoin="round"/><path d="M17.8286 16.3429 28.2286 16.3429" id="Vector 5250" stroke="#66737C" stroke-width="2.67857" stroke-linecap="round" stroke-linejoin="round"/></g></svg>