<svg width="44.8" height="44.8" viewBox="-1.6 -1.6 44.8 44.8" xmlns="http://www.w3.org/2000/svg" xmlns:xlink="http://www.w3.org/1999/xlink" id="Dollar-Coin-1--Streamline-Core" fill="none" overflow="hidden"><g id="dollar-coin-1--accounting-billing-payment-cash-coin-currency-money-finance"><path d="M21.637 36.7696C19.498 38.8401 16.5835 40.1143 13.3714 40.1143 6.80713 40.1143 1.48571 34.7931 1.48571 28.2286 1.48571 25.2529 2.57922 22.5326 4.3863 20.4477" id="Ellipse 23" stroke="#66737C" stroke-width="2.67857" stroke-linecap="round" stroke-linejoin="round"/><path d="M29.1231 12.3047C28.9901 11.9285 28.785 11.5865 28.5242 11.2951 27.9696 10.6755 27.1637 10.2856 26.2667 10.2856L23.9223 10.2856C22.4292 10.2856 21.2188 11.496 21.2188 12.9891 21.2188 14.2596 22.1034 15.3587 23.3446 15.6302L26.9139 16.411C28.3044 16.7152 29.2954 17.9474 29.2954 19.3707 29.2954 21.0434 27.9394 22.4006 26.2667 22.4006L24.2475 22.4006C22.9288 22.4006 21.8069 21.5578 21.3911 20.3814" id="Vector 3" stroke="#66737C" stroke-width="2.67857" stroke-linecap="round" stroke-linejoin="round"/><path d="M25.257 10.2854 25.257 7.25664" id="Vector 2489" stroke="#66737C" stroke-width="2.67857" stroke-linecap="round" stroke-linejoin="round"/><path d="M25.257 25.4291 25.257 22.4003" id="Vector 2490" stroke="#66737C" stroke-width="2.67857" stroke-linecap="round" stroke-linejoin="round"/><path d="M10.4 16.3429C10.4 24.5482 17.0518 31.2 25.2571 31.2 33.4625 31.2 40.1143 24.5482 40.1143 16.3429 40.1143 8.13748 33.4625 1.48571 25.2571 1.48571 17.0518 1.48571 10.4 8.13748 10.4 16.3429" id="Ellipse 19" stroke="#66737C" stroke-width="2.67857" stroke-linecap="round" stroke-linejoin="round"/></g></svg>