<svg width="44.8" height="44.8" viewBox="-1.6 -1.6 44.8 44.8" xmlns="http://www.w3.org/2000/svg" xmlns:xlink="http://www.w3.org/1999/xlink" id="Dollar-Coin--Streamline-Core" fill="none" overflow="hidden"><g id="dollar-coin--accounting-billing-payment-cash-coin-currency-money-finance"><path d="M20.8 40.1143C31.4671 40.1143 40.1143 31.4671 40.1143 20.8 40.1143 10.133 31.4671 1.48571 20.8 1.48571 10.133 1.48571 1.48571 10.133 1.48571 20.8 1.48571 31.4671 10.133 40.1143 20.8 40.1143Z" id="Vector" stroke="#66737C" stroke-width="2.67857" stroke-linecap="round" stroke-linejoin="round"/><path d="M25.8571 15.5176C25.6832 15.0255 25.4148 14.578 25.0737 14.197 24.3483 13.3864 23.294 12.8763 22.1207 12.8763L19.054 12.8763C17.1008 12.8763 15.5175 14.4597 15.5175 16.4128 15.5175 18.0748 16.6747 19.5125 18.2983 19.8677L22.9673 20.889C24.7861 21.2869 26.0825 22.8987 26.0825 24.7606 26.0825 26.9487 24.3088 28.7239 22.1207 28.7239L19.4794 28.7239C17.7543 28.7239 16.2868 27.6214 15.7429 26.0827" id="Vector 3" stroke="#66737C" stroke-width="2.67857" stroke-linecap="round" stroke-linejoin="round"/><path d="M20.8 12.8762 20.8 8.91429" id="Vector 2489" stroke="#66737C" stroke-width="2.67857" stroke-linecap="round" stroke-linejoin="round"/><path d="M20.8 32.6857 20.8 28.7237" id="Vector 2490" stroke="#66737C" stroke-width="2.67857" stroke-linecap="round" stroke-linejoin="round"/></g></svg>