<svg width="44.8" height="44.8" viewBox="-1.6 -1.6 44.8 44.8" xmlns="http://www.w3.org/2000/svg" xmlns:xlink="http://www.w3.org/1999/xlink" id="Drone-2--Streamline-Core" fill="none" overflow="hidden"><g id="drone-2--drone-robot-flying-camera-remote-control"><path d="M14.8571 14.8571 26.7429 14.8571 26.7429 26.7429 14.8571 26.7429 14.8571 14.8571Z" id="Rectangle 2149" stroke="#66737C" stroke-width="2.67857" stroke-linejoin="round"/><path d="M14.8571 14.8571 8.91429 8.91429" id="Vector 4687" stroke="#66737C" stroke-width="2.67857" stroke-linecap="round" stroke-linejoin="round"/><path d="M7.42857 14.6699C4.86539 14.0102 2.97143 11.6834 2.97143 8.91429 2.97143 5.63213 5.63213 2.97143 8.91429 2.97143 11.6834 2.97143 14.0102 4.86539 14.6699 7.42857" id="Ellipse 1961" stroke="#66737C" stroke-width="2.67857" stroke-linecap="round" stroke-linejoin="round"/><path d="M8.91429 32.6857 14.8571 26.7429" id="Vector 4688" stroke="#66737C" stroke-width="2.67857" stroke-linecap="round" stroke-linejoin="round"/><path d="M26.7429 14.8571 32.6857 8.91429" id="Vector 4689" stroke="#66737C" stroke-width="2.67857" stroke-linecap="round" stroke-linejoin="round"/><path d="M32.6857 32.6857 26.7429 26.7429" id="Vector 4690" stroke="#66737C" stroke-width="2.67857" stroke-linecap="round" stroke-linejoin="round"/><path d="M34.1714 14.6699C36.7346 14.0102 38.6286 11.6834 38.6286 8.91429 38.6286 5.63213 35.968 2.97143 32.6857 2.97143 29.9166 2.97143 27.5898 4.86539 26.9301 7.42857" id="Ellipse 1965" stroke="#66737C" stroke-width="2.67857" stroke-linecap="round" stroke-linejoin="round"/><path d="M7.42857 26.9301C4.86539 27.5898 2.97143 29.9166 2.97143 32.6857 2.97143 35.968 5.63213 38.6286 8.91429 38.6286 11.6834 38.6286 14.0102 36.7346 14.6699 34.1714" id="Ellipse 1966" stroke="#66737C" stroke-width="2.67857" stroke-linecap="round" stroke-linejoin="round"/><path d="M34.1714 26.9301C36.7346 27.5898 38.6286 29.9166 38.6286 32.6857 38.6286 35.968 35.968 38.6286 32.6857 38.6286 29.9166 38.6286 27.5898 36.7346 26.9301 34.1714" id="Ellipse 1967" stroke="#66737C" stroke-width="2.67857" stroke-linecap="round" stroke-linejoin="round"/></g></svg>