<svg width="60" height="60" viewBox="-1.875 -1.875 60 60" xmlns="http://www.w3.org/2000/svg" xmlns:xlink="http://www.w3.org/1999/xlink" id="Drugs-Logistic-Drone--Streamline-Ultimate" overflow="hidden"><defs></defs><path d="M19.7531 44.4656 28.0594 52.7719C30.3455 55.0731 34.0644 55.0854 36.3656 52.7992 38.6669 50.513 38.6791 46.7942 36.393 44.493 36.3839 44.4838 36.3748 44.4747 36.3656 44.4656L28.0594 36.1594C25.7581 33.8732 22.0393 33.8855 19.7531 36.1867 17.4776 38.4773 17.4776 42.1751 19.7531 44.4656Z" stroke="#66737C" stroke-width="3.33333" stroke-linecap="round" stroke-linejoin="round" fill="none"/><path d="M23.9062 48.6188 32.2125 40.3125" stroke="#66737C" stroke-width="3.33333" stroke-linecap="round" stroke-linejoin="round" fill="none"/><path d="M50.9766 12.825 43.9734 12.825C41.0042 12.9045 38.1471 11.6889 36.1453 9.49453 32.3626 5.06503 25.7053 4.5407 21.2758 8.32339 20.8554 8.68247 20.4638 9.07405 20.1047 9.49453 18.1029 11.6889 15.2458 12.9045 12.2766 12.825L5.27344 12.825C3.33181 12.825 1.75781 14.399 1.75781 16.3406 1.75781 18.2823 3.33181 19.8563 5.27344 19.8563L12.2766 19.8563C15.2458 19.7768 18.1029 20.9923 20.1047 23.1867 23.8874 27.6162 30.5447 28.1406 34.9742 24.3579 35.3946 23.9988 35.7862 23.6072 36.1453 23.1867 38.1471 20.9923 41.0042 19.7768 43.9734 19.8563L50.9766 19.8563C52.9182 19.8563 54.4922 18.2823 54.4922 16.3406 54.4922 14.399 52.9182 12.825 50.9766 12.825Z" stroke="#66737C" stroke-width="3.33333" stroke-linecap="round" stroke-linejoin="round" fill="none"/><path d="M1.75781 1.75781 5.27344 1.75781" stroke="#66737C" stroke-width="3.33333" stroke-linecap="round" stroke-linejoin="round" fill="none"/><path d="M12.3047 1.75781 15.8203 1.75781" stroke="#66737C" stroke-width="3.33333" stroke-linecap="round" stroke-linejoin="round" fill="none"/><path d="M8.78906 5.79375 8.78906 12.825" stroke="#66737C" stroke-width="3.33333" stroke-linecap="round" stroke-linejoin="round" fill="none"/><path d="M40.4297 1.75781 43.9453 1.75781" stroke="#66737C" stroke-width="3.33333" stroke-linecap="round" stroke-linejoin="round" fill="none"/><path d="M50.9766 1.75781 54.4922 1.75781" stroke="#66737C" stroke-width="3.33333" stroke-linecap="round" stroke-linejoin="round" fill="none"/><path d="M47.4609 5.79375 47.4609 12.825" stroke="#66737C" stroke-width="3.33333" stroke-linecap="round" stroke-linejoin="round" fill="none"/><path d="M15.8203 26.8875C10.7703 29.7033 7.11922 34.493 5.74219 40.1086 5.29685 42.0184 6.48404 43.9276 8.39385 44.373 8.64949 44.4326 8.91095 44.4636 9.17344 44.4656L12.3047 44.4656" stroke="#66737C" stroke-width="3.33333" stroke-linecap="round" stroke-linejoin="round" fill="none"/><path d="M40.4297 26.8875C45.4797 29.7033 49.1308 34.493 50.5078 40.1086 50.9531 42.0184 49.766 43.9276 47.8562 44.373 47.6005 44.4326 47.3391 44.4636 47.0766 44.4656L43.9453 44.4656" stroke="#66737C" stroke-width="3.33333" stroke-linecap="round" stroke-linejoin="round" fill="none"/></svg>