<svg width="60" height="60" viewBox="-2.14 -2.14 60 60" xmlns="http://www.w3.org/2000/svg" xmlns:xlink="http://www.w3.org/1999/xlink" id="Drugs-Pill--Streamline-Ultimate.svg" overflow="hidden"><path d="M1.74125 15.6713C1.74125 23.3646 7.97792 29.6012 15.6713 29.6012 23.3646 29.6012 29.6012 23.3646 29.6012 15.6712 29.6012 7.97792 23.3646 1.74125 15.6712 1.74125 7.97792 1.74125 1.74125 7.97792 1.74125 15.6712Z" stroke="#66737C" stroke-width="3.57143" stroke-linecap="round" stroke-linejoin="round" fill="none"/><path d="M2.18004 12.1888 29.1625 12.1888" stroke="#66737C" stroke-width="3.57143" stroke-linecap="round" stroke-linejoin="round" fill="none"/><path d="M2.18004 19.1537 29.1625 19.1537" stroke="#66737C" stroke-width="3.57143" stroke-linecap="round" stroke-linejoin="round" fill="none"/><path d="M36.6545 51.4296C33.1366 54.7075 27.6276 54.513 24.3496 50.9952 21.2341 47.6517 21.2341 42.4683 24.3496 39.1247L39.1247 24.3496C42.4027 20.8318 47.9117 20.6374 51.4296 23.9153 54.9474 27.1932 55.1418 32.7023 51.8639 36.2201 51.7243 36.37 51.5794 36.5148 51.4296 36.6545Z" stroke="#66737C" stroke-width="3.57143" stroke-linecap="round" stroke-linejoin="round" fill="none"/><path d="M31.7279 31.7279 44.042 44.042" stroke="#66737C" stroke-width="3.57143" stroke-linecap="round" stroke-linejoin="round" fill="none"/></svg>