<svg width="60" height="60" viewBox="-1.875 -1.875 60 60" xmlns="http://www.w3.org/2000/svg" xmlns:xlink="http://www.w3.org/1999/xlink" id="Duct-Tape-2--Streamline-Ultimate" fill="none" overflow="hidden"><path d="M41.9531 29.8828C44.5418 29.8828 46.6406 26.2102 46.6406 21.6797 46.6406 17.1492 44.5418 13.4766 41.9531 13.4766 39.3642 13.4766 37.2656 17.1492 37.2656 21.6797 37.2656 26.2102 39.3642 29.8828 41.9531 29.8828Z" stroke="#66737C" stroke-width="3.33333" stroke-linecap="round" stroke-linejoin="round" stroke-miterlimit="10"/><path d="M41.9531 41.6016C48.5545 41.6016 53.9062 32.6822 53.9062 21.6797 53.9062 10.6771 48.5545 1.75781 41.9531 1.75781 35.3515 1.75781 30 10.6771 30 21.6797 30 32.6822 35.3515 41.6016 41.9531 41.6016Z" stroke="#66737C" stroke-width="3.33333" stroke-linecap="round" stroke-linejoin="round" stroke-miterlimit="10"/><path d="M42.1144 1.75781 14.2968 1.75781C7.73428 1.75781 2.34361 10.6641 2.34361 21.6797L2.34361 54.4922 6.56236 49.8047 11.2499 54.4922 15.9374 49.8047 20.6249 54.4922 25.3125 49.8047 30 54.4922 30 21.6797" stroke="#66737C" stroke-width="3.33333" stroke-linecap="round" stroke-linejoin="round" stroke-miterlimit="10"/></svg>