<svg width="60" height="60" viewBox="-1.875 -1.875 60 60" xmlns="http://www.w3.org/2000/svg" xmlns:xlink="http://www.w3.org/1999/xlink" id="E-Commerce-Shopping-Bag--Streamline-Ultimate" overflow="hidden"><path d="M43.4813 18.8016C43.4416 17.2218 42.2076 15.931 40.6313 15.8203L15.6164 15.8203C14.0404 15.9311 12.8072 17.2222 12.7688 18.8016L8.80547 43.7812C8.52238 45.5148 9.69822 47.1496 11.4318 47.4327 11.5052 47.4447 11.579 47.4541 11.6531 47.4609L44.5945 47.4609C46.3438 47.3014 47.6325 45.754 47.4729 44.0047 47.4661 43.9299 47.4566 43.8554 47.4445 43.7812Z" stroke="#66737C" stroke-width="3.33333" stroke-linecap="round" stroke-linejoin="round" fill="none"/><path d="M19.3359 15.8203C19.3359 14.1633 18.0773 3.45 28.1203 3.45L28.1203 3.45C38.1305 3.45 36.9141 14.3883 36.9141 15.8203" stroke="#66737C" stroke-width="3.33333" stroke-linecap="round" stroke-linejoin="round" fill="none"/><path d="M31.9922 24.6094 27.2273 24.6094C25.4902 24.6106 24.083 26.0198 24.0842 27.7569 24.0851 29.0399 24.8652 30.1937 26.0555 30.6727L30.893 32.6063C32.5058 33.2514 33.2903 35.0819 32.6451 36.6948 32.1669 37.8901 31.0085 38.6734 29.7211 38.6719L24.9609 38.6719" stroke="#66737C" stroke-width="3.33333" stroke-linecap="round" stroke-linejoin="round" fill="none"/><path d="M28.4766 24.6094 28.4766 22.8516" stroke="#66737C" stroke-width="3.33333" stroke-linecap="round" stroke-linejoin="round" fill="none"/><path d="M28.4766 40.4297 28.4766 38.6719" stroke="#66737C" stroke-width="3.33333" stroke-linecap="round" stroke-linejoin="round" fill="none"/><path d="M1.75781 8.78906 1.75781 5.27344C1.75781 3.33181 3.33181 1.75781 5.27344 1.75781L8.78906 1.75781" stroke="#66737C" stroke-width="3.33333" stroke-linecap="round" stroke-linejoin="round" fill="none"/><path d="M54.4922 8.78906 54.4922 5.27344C54.4922 3.33181 52.9182 1.75781 50.9766 1.75781L47.4609 1.75781" stroke="#66737C" stroke-width="3.33333" stroke-linecap="round" stroke-linejoin="round" fill="none"/><path d="M1.75781 47.4609 1.75781 50.9766C1.75781 52.9182 3.33181 54.4922 5.27344 54.4922L8.78906 54.4922" stroke="#66737C" stroke-width="3.33333" stroke-linecap="round" stroke-linejoin="round" fill="none"/><path d="M54.4922 47.4609 54.4922 50.9766C54.4922 52.9182 52.9182 54.4922 50.9766 54.4922L47.4609 54.4922" stroke="#66737C" stroke-width="3.33333" stroke-linecap="round" stroke-linejoin="round" fill="none"/></svg>