<svg width="60" height="60" viewBox="-1.875 -1.875 60 60" xmlns="http://www.w3.org/2000/svg" xmlns:xlink="http://www.w3.org/1999/xlink" id="Earth-Setting--Streamline-Ultimate" overflow="hidden"><g><g><path d="M22.6172 53.9062C8.36961 50.8956-0.73971 36.905 2.27095 22.6574 5.28161 8.40987 19.2722-0.699454 33.5198 2.31121 43.8012 4.48379 51.811 12.554 53.9062 22.8516" stroke="#66737C" stroke-width="3.57143" stroke-linecap="round" stroke-linejoin="round" fill="none"/><g><path d="M11.7188 48.75 14.0625 36.9141 16.5938 36.9141C17.6773 36.9178 18.7004 36.4149 19.3594 35.5547 20.0386 34.7137 20.2739 33.5983 19.9922 32.5547L18.2344 25.5234C17.8552 23.9544 16.4501 22.8497 14.8359 22.8516L2.34375 22.8516" stroke="#66737C" stroke-width="3.57143" stroke-linecap="round" stroke-linejoin="round" fill="none"/><path d="M49.2188 12.3047 39.6562 12.3047C38.0421 12.3029 36.637 13.4076 36.2578 14.9766L35.6016 17.5547" stroke="#66737C" stroke-width="3.57143" stroke-linecap="round" stroke-linejoin="round" fill="none"/></g></g><g><path d="M36.9141 38.6719C36.9141 40.6135 38.4881 42.1875 40.4297 42.1875 42.3713 42.1875 43.9453 40.6135 43.9453 38.6719 43.9453 36.7302 42.3713 35.1562 40.4297 35.1562 38.4881 35.1562 36.9141 36.7302 36.9141 38.6719" stroke="#66737C" stroke-width="3.57143" stroke-linecap="round" stroke-linejoin="round" fill="none"/><path d="M43.4062 25.0781 44.5312 28.4766C44.8925 29.6395 46.0841 30.3321 47.2734 30.0703L50.7188 29.2734C52.4092 28.8849 54.0945 29.9404 54.483 31.6308 54.7167 32.6475 54.4303 33.7138 53.7188 34.4766L51.375 37.0781C50.5413 37.9771 50.5413 39.3667 51.375 40.2656L53.7188 42.8672C54.9019 44.1355 54.8329 46.1229 53.5645 47.306 52.8017 48.0176 51.7354 48.304 50.7188 48.0703L47.2734 47.2734C46.0841 47.0116 44.8925 47.7042 44.5312 48.8672L43.4766 52.2656C43.0108 53.9095 41.3005 54.8646 39.6566 54.3988 38.6235 54.106 37.8162 53.2987 37.5234 52.2656L36.4688 48.8672C36.1075 47.7042 34.9159 47.0116 33.7266 47.2734L30.2812 48.0703C28.5908 48.4588 26.9055 47.4034 26.517 45.7129 26.2833 44.6963 26.5697 43.63 27.2812 42.8672L29.625 40.2656C30.4587 39.3667 30.4587 37.9771 29.625 37.0781L27.2812 34.4766C26.0981 33.2082 26.1671 31.2209 27.4355 30.0377 28.1983 29.3262 29.2646 29.0398 30.2812 29.2734L33.7266 30.0703C34.9159 30.3321 36.1075 29.6395 36.4688 28.4766L37.5 25.0781C38.0093 23.4472 39.7443 22.5379 41.3753 23.0471 42.3445 23.3498 43.1036 24.1088 43.4062 25.0781Z" stroke="#66737C" stroke-width="3.57143" stroke-linecap="round" stroke-linejoin="round" fill="none"/></g></g></svg>