<svg width="60" height="60" viewBox="-1.875 -1.875 60 60" xmlns="http://www.w3.org/2000/svg" xmlns:xlink="http://www.w3.org/1999/xlink" id="Earth-Heart--Streamline-Ultimate" overflow="hidden"><g><g><path d="M29.7891 54.4453C15.2557 55.3616 2.73131 44.3228 1.81501 29.7895 0.898701 15.2562 11.9375 2.73175 26.4708 1.81544 40.271 0.94536 52.399 10.8839 54.2578 24.5859" stroke="#66737C" stroke-width="3.33333" stroke-linecap="round" stroke-linejoin="round" fill="none"/><g><path d="M11.7188 48.75 14.0625 36.9141 16.5938 36.9141C17.6773 36.9178 18.7004 36.4149 19.3594 35.5547 20.0386 34.7137 20.2739 33.5983 19.9922 32.5547L18.2344 25.5234C17.8552 23.9544 16.4501 22.8497 14.8359 22.8516L2.34375 22.8516" stroke="#66737C" stroke-width="3.33333" stroke-linecap="round" stroke-linejoin="round" fill="none"/><path d="M49.2188 12.3047 39.6562 12.3047C38.0421 12.3029 36.637 13.4076 36.2578 14.9766L34.5 22.0078" stroke="#66737C" stroke-width="3.33333" stroke-linecap="round" stroke-linejoin="round" fill="none"/></g></g><path d="M52.3125 31.8281C49.5031 29.15 45.055 29.2549 42.375 32.0625L40.4297 34.1016 38.4844 32.0625C35.8787 29.1833 31.4323 28.9615 28.553 31.5672 25.6738 34.1729 25.452 38.6193 28.0577 41.4986 28.1403 41.5898 28.2253 41.6788 28.3125 41.7656L40.4297 54.4922 52.5469 41.7656C55.225 38.9562 55.1201 34.5082 52.3125 31.8281Z" stroke="#66737C" stroke-width="3.33333" stroke-linecap="round" stroke-linejoin="round" fill="none"/></g></svg>