<svg width="60" height="60" viewBox="-1.875 -1.875 60 60" xmlns="http://www.w3.org/2000/svg" xmlns:xlink="http://www.w3.org/1999/xlink" id="Eco-Package--Streamline-Ultimate" fill="none" overflow="hidden"><path d="M32.7539 48.6956C32.7539 48.6956 36.2695 54.7894 41.6602 54.0863 52.207 52.2113 50.5664 38.1488 54.082 32.7581 45.1758 29.2425 36.9727 31.8206 32.7539 34.6331 27.3633 38.1488 27.3633 43.5394 32.7539 48.6956Z" stroke="#66737C" stroke-width="3.33333" stroke-linecap="round" stroke-linejoin="round" stroke-miterlimit="10"/><path d="M39.7852 41.6644C39.7852 41.6644 34.1602 42.8363 29.9414 52.2113" stroke="#66737C" stroke-width="3.33333" stroke-linecap="round" stroke-linejoin="round" stroke-miterlimit="10"/><path d="M19.9219 44.5312 5.85938 44.5312C3.98438 44.5312 2.34375 42.8906 2.34375 41.0156L2.34375 16.4062C2.34375 14.5312 3.98438 12.8906 5.85938 12.8906L41.0156 12.8906C42.8906 12.8906 44.5312 14.5312 44.5312 16.4062L44.5312 24.1406" stroke="#66737C" stroke-width="3.33333" stroke-linecap="round" stroke-linejoin="round" stroke-miterlimit="10"/><path d="M43.3594 13.8281 36.7969 3.98438C36.0938 3.04688 35.1562 2.34375 33.9844 2.34375L13.125 2.34375C11.9531 2.34375 10.7812 3.04688 10.3125 3.98438L3.51562 13.8281" stroke="#66737C" stroke-width="3.33333" stroke-linecap="round" stroke-linejoin="round" stroke-miterlimit="10"/><path d="M23.4375 2.34375 23.4375 12.8906" stroke="#66737C" stroke-width="3.33333" stroke-linecap="round" stroke-linejoin="round" stroke-miterlimit="10"/></svg>