<svg width="60" height="60" viewBox="-2.14 -2.14 60 60" xmlns="http://www.w3.org/2000/svg" xmlns:xlink="http://www.w3.org/1999/xlink" id="Ecology-Leaf-Bulb-Alternate--Streamline-Ultimate.svg" overflow="hidden"><g><path d="M32.6659 48.1746C32.6659 48.1746 35.4983 53.9787 40.2577 53.5376 49.9158 52.6554 49.2658 39.8166 52.7947 35.2893 46.7337 32.2752 39.5961 32.3442 33.5945 35.4751 28.6029 38.2843 28.2547 43.0669 32.6659 48.1746Z" stroke="#66737C" stroke-width="3.57143" stroke-linecap="round" stroke-linejoin="round" fill="none"/><path d="M39.4683 42.3008C39.4683 42.3008 33.1998 43.0669 28.7422 53.9091" stroke="#66737C" stroke-width="3.57143" stroke-linecap="round" stroke-linejoin="round" fill="none"/><path d="M15.114 50.4963 23.8203 50.4963" stroke="#66737C" stroke-width="3.57143" stroke-linecap="round" stroke-linejoin="round" fill="none"/><path d="M22.0791 53.9787 22.0791 50.4963" stroke="#66737C" stroke-width="3.57143" stroke-linecap="round" stroke-linejoin="round" fill="none"/><path d="M16.8553 27.86 22.0791 33.0838 22.0791 43.5312" stroke="#66737C" stroke-width="3.57143" stroke-linecap="round" stroke-linejoin="round" fill="none"/><path d="M22.0791 33.0838 27.3028 27.86" stroke="#66737C" stroke-width="3.57143" stroke-linecap="round" stroke-linejoin="round" fill="none"/><path d="M40.5131 26.1187C40.9892 24.4183 41.2314 22.6609 41.2328 20.895 41.2267 10.3167 32.6463 1.74623 22.0679 1.75237 11.4896 1.75851 2.91917 10.3389 2.92531 20.9172 2.92988 28.8035 7.76766 35.8809 15.114 38.7486L15.114 43.5312 22.0791 43.5312" stroke="#66737C" stroke-width="3.57143" stroke-linecap="round" stroke-linejoin="round" fill="none"/></g></svg>