<svg width="60" height="60" viewBox="-2.14 -2.14 60 60" xmlns="http://www.w3.org/2000/svg" xmlns:xlink="http://www.w3.org/1999/xlink" id="Ecology-Human-Mind-Flower--Streamline-Ultimate.svg" fill="none" overflow="hidden"><path d="M35.8723 53.9787 35.8723 45.2811 38.1917 45.6523C39.1958 45.8186 40.2243 45.7626 41.2042 45.4882 42.1845 45.2138 43.0925 44.7278 43.8644 44.0643 44.6364 43.4008 45.2532 42.5759 45.6716 41.6481 46.09 40.7202 46.2998 39.7119 46.2861 38.6941L46.2861 33.1044 48.4896 32.5015C49.0306 32.3654 49.5309 32.1012 49.9483 31.7311 50.366 31.3611 50.6883 30.896 50.8884 30.3753 51.0885 29.8545 51.1605 29.2934 51.0983 28.739 51.036 28.1846 50.8413 27.6534 50.5306 27.19L46.4022 20.9046 46.4022 19.1882C46.4022 8.91341 36.0114 0.633274 23.6492 1.86254 19.2311 2.25029 15.0514 4.03508 11.716 6.95817 8.38064 9.88125 6.06294 13.7907 5.09894 18.1196 4.13493 22.4486 4.57475 26.972 6.35461 31.0342 8.13447 35.0964 11.1619 38.4863 14.9979 40.7121L14.9979 53.9787" stroke="#66737C" stroke-width="3.57143" stroke-linecap="round" stroke-linejoin="round"/><path d="M37.6444 20.0878C37.6663 19.4644 37.5622 18.8431 37.3387 18.2609 37.1151 17.6786 36.7766 17.1474 36.3431 16.6988 35.9099 16.2503 35.3906 15.8937 34.8164 15.6502 34.242 15.4068 33.6247 15.2815 33.0011 15.2819 32.1739 15.2919 31.3673 15.542 30.6794 16.0016 30.6917 15.7619 30.6917 15.5216 30.6794 15.2819 30.8343 14.6019 30.8341 13.8957 30.6787 13.2158 30.5234 12.5359 30.217 11.8997 29.7819 11.3545 29.347 10.8093 28.7949 10.369 28.1665 10.0665 27.538 9.76391 26.8496 9.6068 26.1522 9.6068 25.4548 9.6068 24.7661 9.76391 24.1379 10.0665 23.5094 10.369 22.9572 10.8093 22.5223 11.3545 22.0874 11.8997 21.7808 12.5359 21.6255 13.2158 21.4701 13.8957 21.4699 14.6019 21.6249 15.2819 21.6008 15.5212 21.6008 15.7623 21.6249 16.0016 20.9347 15.5467 20.1296 15.2971 19.3032 15.2819 18.1045 15.3712 16.987 15.9219 16.186 16.8182 15.385 17.7145 14.9627 18.8865 15.0081 20.0878 14.9701 21.3039 15.411 22.4864 16.236 23.3808 17.061 24.2753 18.204 24.81 19.4193 24.8704 18.9214 25.3331 18.5242 25.8935 18.2525 26.5167 17.9809 27.1398 17.8406 27.8124 17.8406 28.4922 17.8187 29.1156 17.9227 29.7368 18.1463 30.3191 18.3698 30.9014 18.7084 31.4326 19.1417 31.8811 19.5751 32.3297 20.0944 32.6863 20.6686 32.9296 21.2428 33.1731 21.8602 33.2985 22.4839 33.298 23.3153 33.2862 24.127 33.0431 24.8281 32.5962 25.5293 32.1493 26.0921 31.5159 26.454 30.7674 26.8157 31.5159 27.3787 32.1493 28.0799 32.5962 28.781 33.0431 29.5927 33.2862 30.424 33.298 31.6434 33.2377 32.7901 32.6997 33.6156 31.8001 34.4412 30.9007 34.8793 29.7122 34.8352 28.4922 34.835 27.8124 34.6948 27.1398 34.4231 26.5167 34.1515 25.8935 33.7545 25.3331 33.2565 24.8704 34.4677 24.8042 35.6048 24.2668 36.4249 23.3731 37.2449 22.4793 37.6825 21.3001 37.6444 20.0878Z" stroke="#66737C" stroke-width="3.57143" stroke-linecap="round" stroke-linejoin="round"/><path d="M26.4192 22.6266C25.9384 22.6266 25.5485 22.2368 25.5485 21.756 25.5485 21.2752 25.9384 20.8854 26.4192 20.8854" stroke="#66737C" stroke-width="3.57143"/><path d="M26.4192 22.6266C26.9 22.6266 27.2898 22.2368 27.2898 21.756 27.2898 21.2752 26.9 20.8854 26.4192 20.8854" stroke="#66737C" stroke-width="3.57143"/></svg>