<svg width="60" height="60" viewBox="-2.14 -2.14 60 60" xmlns="http://www.w3.org/2000/svg" xmlns:xlink="http://www.w3.org/1999/xlink" id="Ecology-Plant-Hand--Streamline-Ultimate.svg" overflow="hidden"><g><g><path d="M1.83412 31.3193 1.83412 52.2143" stroke="#66737C" stroke-width="3.57143" stroke-linecap="round" stroke-linejoin="round" fill="none"/><path d="M36.6591 48.755C36.6591 44.9083 33.5408 41.79 29.6941 41.79L20.895 41.79C20.895 37.9433 17.7767 34.825 13.93 34.825L1.83412 34.825 1.83412 48.755Z" stroke="#66737C" stroke-width="3.57143" stroke-linecap="round" stroke-linejoin="round" fill="none"/><path d="M14.0229 41.7668 20.9879 41.7668" stroke="#66737C" stroke-width="3.57143" stroke-linecap="round" stroke-linejoin="round" fill="none"/></g><path d="M27.86 20.895C27.86 20.895 24.3078 26.9778 19.1537 26.1187 8.70625 24.3775 10.4475 10.4475 6.965 5.22375 13.8104 2.44689 21.5687 3.09342 27.86 6.965 33.1766 10.4243 33.1766 15.648 27.86 20.895Z" stroke="#66737C" stroke-width="3.57143" stroke-linecap="round" stroke-linejoin="round" fill="none"/><path d="M39.4683 25.9795C39.4683 25.9795 41.79 30.1817 45.435 29.6012 52.6786 28.394 51.4714 18.7358 53.8859 15.0908 49.1666 13.1777 43.8207 13.6081 39.4683 16.2517 35.7537 18.7358 35.7537 22.3577 39.4683 25.9795Z" stroke="#66737C" stroke-width="3.57143" stroke-linecap="round" stroke-linejoin="round" fill="none"/><path d="M20.895 13.93C20.895 13.93 29.6012 15.6713 33.0838 33.0838 35.1136 28.9519 38.0979 25.3627 41.79 22.613" stroke="#66737C" stroke-width="3.57143" stroke-linecap="round" stroke-linejoin="round" fill="none"/></g></svg>