<svg width="60" height="60" viewBox="-1.875 -1.875 60 60" xmlns="http://www.w3.org/2000/svg" xmlns:xlink="http://www.w3.org/1999/xlink" id="Elastic-Load-Balance-Square--Streamline-Ultimate" fill="none" overflow="hidden"><path d="M22.8516 36.4453C22.8516 37.8516 21.9141 38.7891 20.5078 38.7891L4.10156 38.7891C2.69531 38.7891 1.75781 37.8516 1.75781 36.4453L1.75781 20.0392C1.75781 18.6329 2.69531 17.6954 4.10156 17.6954L20.5078 17.6954C21.9141 17.6954 22.8516 18.6329 22.8516 20.0392L22.8516 36.4453Z" stroke="#66737C" stroke-width="3.33333" stroke-linecap="round" stroke-linejoin="round" stroke-miterlimit="10"/><path d="M54.0234 32.2266C54.0234 33.6328 53.0859 34.5703 51.6797 34.5703L43.4766 34.5703C42.0703 34.5703 41.1328 33.6328 41.1328 32.2266L41.1328 24.0234C41.1328 22.6172 42.0703 21.6797 43.4766 21.6797L51.6797 21.6797C53.0859 21.6797 54.0234 22.6172 54.0234 24.0234L54.0234 32.2266Z" stroke="#66737C" stroke-width="3.33333" stroke-linecap="round" stroke-linejoin="round" stroke-miterlimit="10"/><path d="M54.0234 12.3047C54.0234 13.7109 53.0859 14.6484 51.6797 14.6484L43.4766 14.6484C42.0703 14.6484 41.1328 13.7109 41.1328 12.3047L41.1328 4.10156C41.1328 2.69531 42.0703 1.75781 43.4766 1.75781L51.6797 1.75781C53.0859 1.75781 54.0234 2.69531 54.0234 4.10156L54.0234 12.3047Z" stroke="#66737C" stroke-width="3.33333" stroke-linecap="round" stroke-linejoin="round" stroke-miterlimit="10"/><path d="M54.0234 52.1484C54.0234 53.5547 53.0859 54.4922 51.6797 54.4922L43.4766 54.4922C42.0703 54.4922 41.1328 53.5547 41.1328 52.1484L41.1328 43.9453C41.1328 42.5391 42.0703 41.6016 43.4766 41.6016L51.6797 41.6016C53.0859 41.6016 54.0234 42.5391 54.0234 43.9453L54.0234 52.1484Z" stroke="#66737C" stroke-width="3.33333" stroke-linecap="round" stroke-linejoin="round" stroke-miterlimit="10"/><path d="M23.3203 28.2422 41.1328 8.32043" stroke="#66737C" stroke-width="3.33333" stroke-linecap="round" stroke-linejoin="round" stroke-miterlimit="10"/><path d="M23.3203 28.2422 41.1328 48.1641" stroke="#66737C" stroke-width="3.33333" stroke-linecap="round" stroke-linejoin="round" stroke-miterlimit="10"/><path d="M22.8516 28.2422 41.1328 28.2422" stroke="#66737C" stroke-width="3.33333" stroke-linecap="round" stroke-linejoin="round" stroke-miterlimit="10"/></svg>