<svg width="60" height="60" viewBox="-1.875 -1.875 60 60" xmlns="http://www.w3.org/2000/svg" xmlns:xlink="http://www.w3.org/1999/xlink" id="Electic-Car-2--Streamline-Ultimate" fill="none" overflow="hidden"><path d="M32.7401 27.1842C33.7755 27.1845 34.7887 27.4826 35.6592 28.0432 36.5295 28.6038 37.2199 29.4033 37.6479 30.3459L40.6948 37.0678 46.9409 40.5436C47.5015 40.8544 47.9686 41.3098 48.2937 41.862 48.6188 42.4141 48.7903 43.0434 48.7901 43.6842L48.7901 46.9655C48.7901 47.4375 48.6973 47.9051 48.5166 48.341 48.3356 48.7772 48.0708 49.1733 47.737 49.507 47.403 49.8405 47.0067 50.1052 46.5705 50.2856 46.1344 50.4661 45.6668 50.5589 45.1948 50.5584L43.308 50.5584C43.1004 51.5726 42.5489 52.4838 41.7469 53.138 40.9451 53.7923 39.9417 54.1498 38.9065 54.1498 37.8715 54.1498 36.8681 53.7923 36.0661 53.138 35.2643 52.4838 34.7128 51.5726 34.5049 50.5584L20.848 50.5584C20.6403 51.5726 20.0888 52.4838 19.2868 53.138 18.4848 53.7923 17.4815 54.1498 16.4464 54.1498 15.4114 54.1498 14.408 53.7923 13.606 53.138 12.804 52.4838 12.2526 51.5726 12.0449 50.5584L11.0558 50.5584C10.5838 50.5589 10.1163 50.4661 9.68011 50.2856 9.24391 50.1052 8.84756 49.8405 8.51367 49.507 8.17978 49.1733 7.91491 48.7772 7.73421 48.341 7.55348 47.9051 7.46048 47.4375 7.46048 46.9655L7.46048 43.2483C7.46032 42.7214 7.57615 42.2009 7.79974 41.7237 8.02334 41.2465 8.34921 40.8246 8.75423 40.4873L12.8535 37.0725 14.4636 31.1686C14.7725 30.0255 15.4493 29.0159 16.3893 28.2956 17.3292 27.5756 18.4802 27.1849 19.6644 27.1842" stroke="#66737C" stroke-width="3.57143" stroke-linecap="round" stroke-linejoin="round"/><path d="M33.4929 6.79322 33.4929 13.8245C33.4929 15.6893 32.752 17.4777 31.4334 18.7963 30.1148 20.1149 28.3263 20.8557 26.4616 20.8557 24.5967 20.8557 22.8084 20.1149 21.4897 18.7963 20.1711 17.4777 19.4303 15.6893 19.4303 13.8245L19.4303 6.79322 33.4929 6.79322Z" stroke="#66737C" stroke-width="3.57143" stroke-linecap="round" stroke-linejoin="round"/><path d="M29.9773 6.78862 29.9773 2.10113" stroke="#66737C" stroke-width="3.57143" stroke-linecap="round" stroke-linejoin="round"/><path d="M22.946 6.78862 22.946 2.10113" stroke="#66737C" stroke-width="3.57143" stroke-linecap="round" stroke-linejoin="round"/><path d="M26.4616 20.8511 26.4616 36.0855" stroke="#66737C" stroke-width="3.57143" stroke-linecap="round" stroke-linejoin="round"/></svg>