<svg width="60" height="60" viewBox="-1.875 -1.875 60 60" xmlns="http://www.w3.org/2000/svg" xmlns:xlink="http://www.w3.org/1999/xlink" id="Electic-Car-1--Streamline-Ultimate" fill="none" overflow="hidden"><path d="M7.14844 41.0156 6.44531 41.0156C5.20212 41.0156 4.00983 40.5218 3.13076 39.6427 2.25167 38.7635 1.75781 37.5713 1.75781 36.3281L1.75781 31.493C1.75773 30.8055 1.90885 30.1266 2.20047 29.5038 2.49211 28.8813 2.91708 28.3305 3.44531 27.8906L8.78906 23.4375 10.8984 15.7289C11.3038 14.2419 12.1865 12.9293 13.4108 11.993 14.635 11.0567 16.133 10.5486 17.6742 10.5469L33.5578 10.5469C34.9083 10.5465 36.2304 10.9352 37.3659 11.6663 38.5013 12.3974 39.4022 13.44 39.9609 14.6695L43.9453 23.4375 52.0805 27.9562C52.8115 28.3622 53.4209 28.9566 53.8448 29.6773 54.2688 30.398 54.4924 31.2192 54.4922 32.0555L54.4922 36.3281C54.4922 37.5713 53.9984 38.7635 53.1192 39.6427 52.2401 40.5218 51.0478 41.0156 49.8047 41.0156L47.9297 41.0156" stroke="#66737C" stroke-width="3.57143" stroke-linecap="round" stroke-linejoin="round"/><path d="M36.4444 41.0156 18.6318 41.0156" stroke="#66737C" stroke-width="3.57143" stroke-linecap="round" stroke-linejoin="round"/><path d="M42.1875 45.7031C38.9515 45.7031 36.3281 43.0798 36.3281 39.8438 36.3281 36.6077 38.9515 33.9844 42.1875 33.9844 45.4235 33.9844 48.0469 36.6077 48.0469 39.8438 48.0469 43.0798 45.4235 45.7031 42.1875 45.7031Z" stroke="#66737C" stroke-width="3.57143" stroke-linecap="round" stroke-linejoin="round"/><path d="M12.8906 45.7031C9.65459 45.7031 7.03125 43.0798 7.03125 39.8438 7.03125 36.6077 9.65459 33.9844 12.8906 33.9844 16.1267 33.9844 18.75 36.6077 18.75 39.8438 18.75 43.0798 16.1267 45.7031 12.8906 45.7031Z" stroke="#66737C" stroke-width="3.57143" stroke-linecap="round" stroke-linejoin="round"/><path d="M28.2209 16.6145 21.7495 24.7132 31.4564 24.7132 24.9851 32.8085" stroke="#66737C" stroke-width="3.57143" stroke-linecap="round" stroke-linejoin="round"/></svg>