<svg width="60" height="60" viewBox="-2.14 -2.14 60 60" xmlns="http://www.w3.org/2000/svg" xmlns:xlink="http://www.w3.org/1999/xlink" id="Email-Action-Search--Streamline-Ultimate.svg" overflow="hidden"><path d="M24.3775 36.5662C24.3775 43.2979 29.8346 48.755 36.5662 48.755 43.2979 48.755 48.755 43.2979 48.755 36.5662 48.755 29.8346 43.2979 24.3775 36.5662 24.3775 29.8346 24.3775 24.3775 29.8346 24.3775 36.5662Z" stroke="#66737C" stroke-width="3.57143" stroke-linecap="round" stroke-linejoin="round" fill="none"/><path d="M53.9787 53.9787 45.1843 45.1843" stroke="#66737C" stroke-width="3.57143" stroke-linecap="round" stroke-linejoin="round" fill="none"/><path d="M17.4125 36.5662 5.22375 36.5662C3.30042 36.5662 1.74125 35.0071 1.74125 33.0838L1.74125 5.22375C1.74125 3.30042 3.30042 1.74125 5.22375 1.74125L47.0137 1.74125C48.9371 1.74125 50.4962 3.30042 50.4962 5.22375L50.4963 22.6362" stroke="#66737C" stroke-width="3.57143" stroke-linecap="round" stroke-linejoin="round" fill="none"/><path d="M49.7092 3.01817 30.8016 17.5611C28.0409 19.6848 24.1966 19.6848 21.4359 17.5611L2.5283 3.01817" stroke="#66737C" stroke-width="3.57143" stroke-linecap="round" stroke-linejoin="round" fill="none"/></svg>