<svg width="60" height="60" viewBox="-1.875 -1.875 60 60" xmlns="http://www.w3.org/2000/svg" xmlns:xlink="http://www.w3.org/1999/xlink" id="Factory-Building-6--Streamline-Ultimate" overflow="hidden"><defs></defs><path d="M40.4437 34.418 42.1875 12.1523 49.2188 12.1523 50.9859 34.418" stroke="#66737C" stroke-width="3.33333" stroke-linecap="round" stroke-linejoin="round" fill="none"/><path d="M1.75781 26.2148 29.8828 26.2148" stroke="#66737C" stroke-width="3.33333" stroke-linecap="round" stroke-linejoin="round" fill="none"/><path d="M15.8203 36.7617 15.8203 54.3398" stroke="#66737C" stroke-width="3.33333" stroke-linecap="round" stroke-linejoin="round" fill="none"/><path d="M5.27344 26.2148 15.8203 36.7617" stroke="#66737C" stroke-width="3.33333" stroke-linecap="round" stroke-linejoin="round" fill="none"/><path d="M26.3672 26.2148 15.8203 36.7617" stroke="#66737C" stroke-width="3.33333" stroke-linecap="round" stroke-linejoin="round" fill="none"/><path d="M5.27344 26.2148 5.27344 22.6992" stroke="#66737C" stroke-width="3.33333" stroke-linecap="round" stroke-linejoin="round" fill="none"/><path d="M26.3672 26.2148 26.3672 22.6992" stroke="#66737C" stroke-width="3.33333" stroke-linecap="round" stroke-linejoin="round" fill="none"/><path d="M54.4922 54.3398 24.0234 54.3398 24.0234 44.9648 38.0859 34.418 54.4922 34.418 54.4922 54.3398Z" stroke="#66737C" stroke-width="3.33333" stroke-linecap="round" stroke-linejoin="round" fill="none"/><path d="M42.7734 2.19141C40.3544 2.14777 37.9562 2.64503 35.7539 3.64687 18.3398 11.0789 11.1445 1.91016 11.1445 1.91016" stroke="#66737C" stroke-width="3.33333" stroke-linecap="round" stroke-linejoin="round" fill="none"/><path d="M41.6016 44.9648 45.1172 44.9648C46.4116 44.9648 47.4609 46.0142 47.4609 47.3086L47.4609 54.3398 47.4609 54.3398 39.2578 54.3398 39.2578 54.3398 39.2578 47.3086C39.2578 46.0142 40.3071 44.9648 41.6016 44.9648Z" stroke="#66737C" stroke-width="3.33333" stroke-linecap="round" stroke-linejoin="round" fill="none"/></svg>