<svg width="60" height="60" viewBox="-2.14 -2.14 60 60" xmlns="http://www.w3.org/2000/svg" xmlns:xlink="http://www.w3.org/1999/xlink" id="Factory-Geothermal-Power-Plant-1--Streamline-Ultimate.svg" fill="none" overflow="hidden"><path d="M2.34038 44.6921C9.5346 39.3655 18.532 36.4223 27.8598 36.4223 37.1878 36.4223 46.1851 39.3655 53.3793 44.6921" stroke="#66737C" stroke-width="3.57143" stroke-linecap="round" stroke-linejoin="round"/><path d="M31.9828 4.00346C30.5629 3.38573 28.9558 3.35739 27.5148 3.92466 26.0739 4.49196 24.9175 5.60838 24.2997 7.02836 24.1442 7.38845 24.0248 7.76305 23.9431 8.14668L23.834 8.09918C23.2239 7.83247 22.5505 7.7451 21.8927 7.84733 21.2348 7.94955 20.6197 8.23711 20.1194 8.67635 19.619 9.11556 19.2542 9.68827 19.0677 10.3274 18.8811 10.9665 18.8805 11.6455 19.066 12.2849" stroke="#66737C" stroke-width="3.57143" stroke-linecap="round" stroke-linejoin="round"/><path d="M50.028 4.00346C48.608 3.38573 47.0007 3.35739 45.5599 3.92466 44.1191 4.49196 42.9624 5.60838 42.3449 7.02836 42.1893 7.38845 42.0698 7.76305 41.9883 8.14668L41.8789 8.09918C41.269 7.83247 40.5955 7.7451 39.9378 7.84733 39.2798 7.94955 38.6648 8.23711 38.1645 8.67635 37.6642 9.11556 37.2992 9.68827 37.1128 10.3274 36.9261 10.9665 36.9256 11.6455 37.1111 12.2849" stroke="#66737C" stroke-width="3.57143" stroke-linecap="round" stroke-linejoin="round"/><path d="M12.1431 39.3228 15.4405 18.138 23.2026 18.138 26.0544 36.4618" stroke="#66737C" stroke-width="3.57143" stroke-linecap="round" stroke-linejoin="round"/><path d="M14.0751 26.9406 24.5679 26.9406" stroke="#66737C" stroke-width="3.57143" stroke-linecap="round" stroke-linejoin="round"/><path d="M43.5001 39.3228 40.2027 18.138 32.4406 18.138 29.5887 36.4618" stroke="#66737C" stroke-width="3.57143" stroke-linecap="round" stroke-linejoin="round"/><path d="M41.5681 26.9406 31.0753 26.9406" stroke="#66737C" stroke-width="3.57143" stroke-linecap="round" stroke-linejoin="round"/><path d="M28.6668 41.7946 25.442 47.5988 30.278 47.5988 27.0555 53.403" stroke="#66737C" stroke-width="3.57143" stroke-linecap="round" stroke-linejoin="round"/></svg>