<svg width="60" height="60" viewBox="-1.875 -1.875 60 60" xmlns="http://www.w3.org/2000/svg" xmlns:xlink="http://www.w3.org/1999/xlink" id="Factory-Building-Water-Treatment-2--Streamline-Ultimate" overflow="hidden"><defs></defs><path d="M1.75781 12.3047 27.5391 12.3047 27.5391 54.4922 1.75781 54.4922Z" stroke="#66737C" stroke-width="3.33333" stroke-linecap="round" stroke-linejoin="round" fill="none"/><path d="M11.1328 1.75781 18.1641 1.75781C23.3417 1.75781 27.5391 5.95514 27.5391 11.1328L27.5391 12.3047 27.5391 12.3047 1.75781 12.3047 1.75781 12.3047 1.75781 11.1328C1.75781 5.95514 5.95514 1.75781 11.1328 1.75781Z" stroke="#66737C" stroke-width="3.33333" stroke-linecap="round" stroke-linejoin="round" fill="none"/><path d="M46.2891 54.4922 46.2891 45.1172C46.2891 43.1756 44.7151 41.6016 42.7734 41.6016L27.5391 41.6016 27.5391 33.3984 42.7734 33.3984C49.2455 33.3984 54.4922 38.6451 54.4922 45.1172L54.4922 54.4922Z" stroke="#66737C" stroke-width="3.33333" stroke-linecap="round" stroke-linejoin="round" fill="none"/><path d="M36.9141 31.0547 36.9141 43.9453" stroke="#66737C" stroke-width="3.33333" stroke-linecap="round" stroke-linejoin="round" fill="none"/><path d="M12.3047 12.3047 12.3047 53.3203" stroke="#66737C" stroke-width="3.33333" stroke-linecap="round" stroke-linejoin="round" fill="none"/><path d="M20.5078 12.3047 20.5078 53.3203" stroke="#66737C" stroke-width="3.33333" stroke-linecap="round" stroke-linejoin="round" fill="none"/><path d="M12.3047 22.8516 20.5078 22.8516" stroke="#66737C" stroke-width="3.33333" stroke-linecap="round" stroke-linejoin="round" fill="none"/><path d="M12.3047 33.3984 20.5078 33.3984" stroke="#66737C" stroke-width="3.33333" stroke-linecap="round" stroke-linejoin="round" fill="none"/><path d="M12.3047 43.9453 20.5078 43.9453" stroke="#66737C" stroke-width="3.33333" stroke-linecap="round" stroke-linejoin="round" fill="none"/><path d="M27.5391 54.4922 47.4609 54.4922" stroke="#66737C" stroke-width="3.33333" stroke-linecap="round" stroke-linejoin="round" fill="none"/></svg>