<svg width="60" height="60" viewBox="-1.875 -1.875 60 60" xmlns="http://www.w3.org/2000/svg" xmlns:xlink="http://www.w3.org/1999/xlink" id="Factory-Automated-Bottle-Fill--Streamline-Ultimate" overflow="hidden"><defs></defs><path d="M4.10156 32.5195 4.10156 36.0352 1.75781 42.4805 1.75781 51.2695C1.75781 52.5639 2.80715 53.6133 4.10156 53.6133L11.1328 53.6133C12.4272 53.6133 13.4766 52.5639 13.4766 51.2695L13.4766 42.4805 11.1328 36.0352 11.1328 32.5195" stroke="#66737C" stroke-width="3.33333" stroke-linecap="round" stroke-linejoin="round" fill="none"/><path d="M52.1484 32.5195 52.1484 36.0352 54.4922 42.4805 54.4922 51.2695C54.4922 52.5639 53.4429 53.6133 52.1484 53.6133L45.1172 53.6133C43.8228 53.6133 42.7734 52.5639 42.7734 51.2695L42.7734 42.4805 45.1172 36.0352 45.1172 32.5195" stroke="#66737C" stroke-width="3.33333" stroke-linecap="round" stroke-linejoin="round" fill="none"/><path d="M24.6094 32.5195 24.6094 36.0352 22.2656 42.4805 22.2656 51.2695C22.2656 52.5639 23.315 53.6133 24.6094 53.6133L31.6406 53.6133C32.935 53.6133 33.9844 52.5639 33.9844 51.2695L33.9844 42.4805 31.6406 36.0352 31.6406 32.5195" stroke="#66737C" stroke-width="3.33333" stroke-linecap="round" stroke-linejoin="round" fill="none"/><path d="M18.1641 2.63672 18.1641 10.8398C18.1641 12.1343 19.2134 13.1836 20.5078 13.1836L22.6383 13.1836 24.6094 17.8711 31.6406 17.8711 33.6117 13.1836 35.7422 13.1836C37.0366 13.1836 38.0859 12.1343 38.0859 10.8398L38.0859 2.63672Z" stroke="#66737C" stroke-width="3.33333" stroke-linecap="round" stroke-linejoin="round" fill="none"/><path d="M28.125 23.7305 28.125 17.8711" stroke="#66737C" stroke-width="3.33333" stroke-linecap="round" stroke-linejoin="round" fill="none"/><path d="M24.1828 37.207 32.0672 37.207" stroke="#66737C" stroke-width="3.33333" stroke-linecap="round" stroke-linejoin="round" fill="none"/></svg>