<svg width="60" height="60" viewBox="-1.875 -1.875 60 60" xmlns="http://www.w3.org/2000/svg" xmlns:xlink="http://www.w3.org/1999/xlink" id="Factory-Building-Eco-Friendly-3--Streamline-Ultimate" overflow="hidden"><defs></defs><path d="M52.7039 38.0883C53.754 38.3444 54.4927 39.2855 54.4922 40.3664L54.4922 54.3469 1.75781 54.3469 1.75781 28.6219C1.75718 27.3275 2.806 26.2776 4.10041 26.277 4.28796 26.2769 4.47483 26.2993 4.65703 26.3438Z" stroke="#66737C" stroke-width="3.33333" stroke-linecap="round" stroke-linejoin="round" fill="none"/><path d="M12.3047 41.4562 19.3359 41.4562C20.6304 41.4562 21.6797 42.5056 21.6797 43.8L21.6797 54.3469 21.6797 54.3469 9.96094 54.3469 9.96094 54.3469 9.96094 43.8C9.96094 42.5056 11.0103 41.4562 12.3047 41.4562Z" stroke="#66737C" stroke-width="3.33333" stroke-linecap="round" stroke-linejoin="round" fill="none"/><path d="M29.8828 44.9719 33.3984 44.9719" stroke="#66737C" stroke-width="3.33333" stroke-linecap="round" stroke-linejoin="round" fill="none"/><path d="M41.6016 44.9719 45.1172 44.9719" stroke="#66737C" stroke-width="3.33333" stroke-linecap="round" stroke-linejoin="round" fill="none"/><path d="M25.4602 13.643C28.0348 15.0043 29.0184 18.1951 27.6571 20.7698 26.3161 23.3059 23.1937 24.3048 20.6297 23.018 18.0378 20.8413 15.7967 18.2785 13.9852 15.4195 13.4221 14.6287 13.6067 13.5311 14.3976 12.9681 14.6946 12.7565 15.0502 12.6427 15.4148 12.6422 18.7948 12.457 22.1831 12.7946 25.4602 13.643Z" stroke="#66737C" stroke-width="3.33333" stroke-linecap="round" stroke-linejoin="round" fill="none"/><path d="M27.6094 20.9742C29.4114 22.4443 30.7483 24.4056 31.4578 26.6203" stroke="#66737C" stroke-width="3.33333" stroke-linecap="round" stroke-linejoin="round" fill="none"/><path d="M51.9703 2.00391C52.8847 1.68158 53.8872 2.16153 54.2095 3.0759 54.3109 3.36351 54.3356 3.67258 54.2812 3.97266 53.2828 9.57656 50.1562 20.8594 41.1562 20.1562 36.6002 19.7318 33.2509 15.6944 33.6753 11.1383 34.0917 6.66779 37.9934 3.34248 42.4734 3.63984 45.7156 3.72107 48.9422 3.16525 51.9703 2.00391Z" stroke="#66737C" stroke-width="3.33333" stroke-linecap="round" stroke-linejoin="round" fill="none"/><path d="M31.4578 32.8945 31.4578 25.4602C31.4578 17.6937 37.7538 11.3977 45.5203 11.3977" stroke="#66737C" stroke-width="3.33333" stroke-linecap="round" stroke-linejoin="round" fill="none"/></svg>