<svg width="60" height="60" viewBox="-2.14 -2.14 60 60" xmlns="http://www.w3.org/2000/svg" xmlns:xlink="http://www.w3.org/1999/xlink" id="Family-Umbrella-Protect--Streamline-Ultimate.svg" overflow="hidden"><path d="M4.83603 27.86C4.96378 15.132 15.3854 4.91754 28.1134 5.04529 40.661 5.17123 50.8021 15.3123 50.9281 27.86L49.2658 26.467C45.1628 23.0626 39.0768 23.6289 35.6724 27.7319 35.6372 27.7743 35.6024 27.817 35.5679 27.86 31.3293 23.6158 24.4527 23.6114 20.2085 27.85 20.2052 27.8533 20.2018 27.8567 20.1985 27.86 16.8721 23.7001 10.8032 23.0243 6.6433 26.3507 6.59539 26.389 6.54784 26.4278 6.50066 26.467Z" stroke="#66737C" stroke-width="3.57143" stroke-linecap="round" stroke-linejoin="round" fill="none"/><path d="M27.8809 4.81514 27.8809 1.74125" stroke="#66737C" stroke-width="3.57143" stroke-linecap="round" stroke-linejoin="round" fill="none"/><path d="M1.76215 39.798C1.76215 43.1638 4.49069 45.8924 7.85652 45.8924 11.2224 45.8924 13.9509 43.1638 13.9509 39.798 13.9509 36.4322 11.2224 33.7036 7.85652 33.7036 4.49069 33.7036 1.76215 36.4322 1.76215 39.798Z" stroke="#66737C" stroke-width="3.57143" stroke-linecap="round" stroke-linejoin="round" fill="none"/><path d="M41.8109 39.798C41.8109 43.1638 44.5394 45.8924 47.9053 45.8924 51.2711 45.8924 53.9996 43.1638 53.9996 39.798 53.9996 36.4322 51.2711 33.7036 47.9053 33.7036 44.5394 33.7036 41.8109 36.4322 41.8109 39.798Z" stroke="#66737C" stroke-width="3.57143" stroke-linecap="round" stroke-linejoin="round" fill="none"/><path d="M21.7865 39.798C21.7865 43.1638 24.5151 45.8924 27.8809 45.8924 31.2467 45.8924 33.9753 43.1638 33.9753 39.798 33.9753 36.4322 31.2467 33.7036 27.8809 33.7036 24.5151 33.7036 21.7865 36.4322 21.7865 39.798Z" stroke="#66737C" stroke-width="3.57143" stroke-linecap="round" stroke-linejoin="round" fill="none"/><path d="M1.76215 49.5978C6.4474 46.2301 12.9756 47.2982 16.3433 51.9834 16.7902 52.6053 17.1675 53.2744 17.4682 53.9788L18.2715 53.9787C20.5344 48.671 26.6716 46.2026 31.9793 48.4655 34.4597 49.5229 36.4351 51.4984 37.4926 53.9787L38.3075 53.9787C40.5739 48.6725 46.7128 46.2082 52.019 48.4746 52.7222 48.775 53.3903 49.1516 54.0113 49.5978" stroke="#66737C" stroke-width="3.57143" stroke-linecap="round" stroke-linejoin="round" fill="none"/></svg>