<svg width="60" height="60" viewBox="-2.14 -2.14 60 60" xmlns="http://www.w3.org/2000/svg" xmlns:xlink="http://www.w3.org/1999/xlink" id="Family-Child--Streamline-Ultimate.svg" overflow="hidden"><path d="M38.3075 12.1888C38.3075 16.0354 41.4258 19.1537 45.2725 19.1537 49.1192 19.1537 52.2375 16.0354 52.2375 12.1887 52.2375 8.34209 49.1192 5.22375 45.2725 5.22375 41.4258 5.22375 38.3075 8.34209 38.3075 12.1887Z" stroke="#66737C" stroke-width="3.57143" stroke-linecap="round" stroke-linejoin="round" fill="none"/><path d="M41.3535 47.0137 41.79 50.4963 48.755 50.4963 50.4963 36.5662 53.9787 36.5662 53.9787 31.3425C53.9787 26.5342 50.0808 22.6363 45.2725 22.6363 43.3887 22.6363 41.5558 23.2472 40.0487 24.3775" stroke="#66737C" stroke-width="3.57143" stroke-linecap="round" stroke-linejoin="round" fill="none"/><path d="M3.4825 12.1888C3.4825 16.0354 6.60084 19.1537 10.4475 19.1537 14.2942 19.1537 17.4125 16.0354 17.4125 12.1887 17.4125 8.34209 14.2942 5.22375 10.4475 5.22375 6.60084 5.22375 3.4825 8.34209 3.4825 12.1887Z" stroke="#66737C" stroke-width="3.57143" stroke-linecap="round" stroke-linejoin="round" fill="none"/><path d="M14.3665 47.0137 13.93 50.4963 6.965 50.4963 5.22375 36.5662 1.74125 36.5662 1.74125 31.3425C1.74125 26.5342 5.63917 22.6363 10.4475 22.6363 12.3313 22.6363 14.1642 23.2472 15.6713 24.3775" stroke="#66737C" stroke-width="3.57143" stroke-linecap="round" stroke-linejoin="round" fill="none"/><path d="M22.6362 20.895C22.6362 23.78 24.975 26.1187 27.86 26.1187 30.745 26.1187 33.0837 23.78 33.0837 20.895 33.0837 18.01 30.745 15.6713 27.86 15.6713 24.975 15.6713 22.6362 18.01 22.6362 20.895Z" stroke="#66737C" stroke-width="3.57143" stroke-linecap="round" stroke-linejoin="round" fill="none"/><path d="M27.86 29.6012C23.0517 29.6012 19.1538 33.4992 19.1538 38.3075L19.1537 40.0488 22.6362 40.0488 24.3775 50.4963 27.86 50.4963" stroke="#66737C" stroke-width="3.57143" stroke-linecap="round" stroke-linejoin="round" fill="none"/><path d="M27.86 29.6012C32.6683 29.6012 36.5662 33.4992 36.5662 38.3075L36.5662 40.0488 33.0838 40.0488 31.3425 50.4963 27.86 50.4963" stroke="#66737C" stroke-width="3.57143" stroke-linecap="round" stroke-linejoin="round" fill="none"/></svg>