<svg width="60" height="60" viewBox="-2.14 -2.14 60 60" xmlns="http://www.w3.org/2000/svg" xmlns:xlink="http://www.w3.org/1999/xlink" id="Field-Of-View-Fov-Side--Streamline-Ultimate.svg" fill="none" overflow="hidden"><path d="M7.38346 49.1065 7.38346 38.2987C4.99976 36.0903 3.33735 33.2147 2.61334 30.0468 1.8893 26.8791 2.13731 23.5668 3.32498 20.5422 4.51265 17.5176 6.58476 14.9214 9.27072 13.0927 11.9567 11.264 15.1317 10.2878 18.3811 10.2914 21.2195 10.2914 23.545 10.8311 25.4972 11.8011 32.4437 15.2528 34.6623 24.1539 38.4354 33.5806L33.2602 33.5806 33.2602 38.7558C33.2602 40.1284 32.7148 41.4448 31.7444 42.4152 30.7737 43.3859 29.4575 43.9313 28.0847 43.9313L25.4972 43.9313 25.4972 49.1065" stroke="#66737C" stroke-width="3.57143" stroke-linecap="round" stroke-linejoin="round"/><path d="M26.0331 25.2507C25.7278 25.2507 25.4803 25.0032 25.4803 24.6979 25.4803 24.3928 25.7278 24.1453 26.0331 24.1453" stroke="#66737C" stroke-width="3.57143"/><path d="M26.0331 25.2502C26.3381 25.2502 26.5856 25.0027 26.5856 24.6974 26.5856 24.3921 26.3381 24.1446 26.0331 24.1446" stroke="#66737C" stroke-width="3.57143"/><path d="M41.2456 14.1506 44.2976 12.2589" stroke="#66737C" stroke-width="3.57143" stroke-linecap="round"/><path d="M41.2456 38.3936 44.2976 40.2853" stroke="#66737C" stroke-width="3.57143" stroke-linecap="round"/><path d="M50.461 8.50515 53.5128 6.61348" stroke="#66737C" stroke-width="3.57143" stroke-linecap="round"/><path d="M50.461 43.9775 53.5128 45.8692" stroke="#66737C" stroke-width="3.57143" stroke-linecap="round"/></svg>