<svg width="60" height="60" viewBox="-2.14 -2.14 60 60" xmlns="http://www.w3.org/2000/svg" xmlns:xlink="http://www.w3.org/1999/xlink" id="Flash--Streamline-Ultimate.svg" overflow="hidden"><path d="M12.7692 53.9718 22.1766 32.0227C22.5548 31.1372 22.1436 30.1127 21.258 29.7344 21.0427 29.6425 20.8111 29.5948 20.5769 29.5943L13.6978 29.5943C12.7375 29.5979 11.956 28.8223 11.9523 27.862 11.9514 27.6217 12.0003 27.3839 12.0959 27.1635L22.7523 2.786C23.0291 2.15174 23.6553 1.74161 24.3473 1.74125L42.2242 1.74125C43.1858 1.74159 43.9651 2.52146 43.9648 3.48312 43.9646 3.87879 43.8298 4.2626 43.5823 4.57136L34.1796 16.326C33.5795 17.0774 33.7022 18.1731 34.4537 18.7732 34.7622 19.0195 35.1453 19.1537 35.5401 19.1537L43.3919 19.1537C44.3536 19.1533 45.1336 19.9325 45.134 20.8942 45.1342 21.3571 44.9501 21.8009 44.6224 22.1278Z" stroke="#66737C" stroke-width="3.57143" stroke-linejoin="round" fill="none"/></svg>