<svg width="60" height="60" viewBox="-2.14 -2.14 60 60" xmlns="http://www.w3.org/2000/svg" xmlns:xlink="http://www.w3.org/1999/xlink" id="Flower-Roses--Streamline-Ultimate.svg" overflow="hidden"><path d="M49.7255 48.1583C49.1659 51.5168 46.2604 53.9785 42.8556 53.9788L12.8644 53.9787C9.4596 53.9785 6.55406 51.5168 5.99454 48.1583L3.4825 33.0838 52.2375 33.0838Z" stroke="#66737C" stroke-width="3.57143" stroke-linecap="round" stroke-linejoin="round" fill="none"/><path d="M36.5662 33.0838C36.5662 33.0838 41.79 25.9446 41.79 18.9796" stroke="#66737C" stroke-width="3.57143" stroke-linecap="round" stroke-linejoin="round" fill="none"/><path d="M19.1537 19.1537C17.1598 23.7685 17.8264 29.1018 20.895 33.0837" stroke="#66737C" stroke-width="3.57143" stroke-linecap="round" stroke-linejoin="round" fill="none"/><path d="M27.86 40.0488 27.86 47.0137" stroke="#66737C" stroke-width="3.57143" stroke-linecap="round" stroke-linejoin="round" fill="none"/><path d="M15.6713 40.0488 17.4125 47.0137" stroke="#66737C" stroke-width="3.57143" stroke-linecap="round" stroke-linejoin="round" fill="none"/><path d="M40.0488 40.0488 38.3075 47.0137" stroke="#66737C" stroke-width="3.57143" stroke-linecap="round" stroke-linejoin="round" fill="none"/><path d="M27.86 10.4475C27.86 15.2558 23.9621 19.1537 19.1538 19.1537 14.3454 19.1537 10.4475 15.2558 10.4475 10.4475L10.4475 1.74125 19.1537 5.22375 27.86 1.74125Z" stroke="#66737C" stroke-width="3.57143" stroke-linecap="round" stroke-linejoin="round" fill="none"/><path d="M52.2375 10.4475C52.2375 15.2558 48.3396 19.1537 43.5312 19.1537 38.7229 19.1537 34.825 15.2558 34.825 10.4475L34.825 1.74125 43.5312 5.22375 52.2375 1.74125Z" stroke="#66737C" stroke-width="3.57143" stroke-linecap="round" stroke-linejoin="round" fill="none"/></svg>