<svg width="60" height="60" viewBox="-2.14 -2.14 60 60" xmlns="http://www.w3.org/2000/svg" xmlns:xlink="http://www.w3.org/1999/xlink" id="Flower-2--Streamline-Ultimate.svg" overflow="hidden"><g><path d="M28.0216 52.1392C28.9859 54.667 34.6138 54.8675 40.5919 52.5871 46.57 50.3067 50.6345 46.4088 49.6703 43.881 48.706 41.3532 43.0781 41.1526 37.1 43.4331 31.1219 45.7135 27.0574 49.6113 28.0216 52.1392" stroke="#66737C" stroke-width="3.57143" stroke-linecap="round" stroke-linejoin="round" fill="none"/><path d="M15.4644 52.5826C21.4425 54.8631 27.0704 54.6625 28.0347 52.1347 28.9989 49.6069 24.9344 45.709 18.9563 43.4286 12.9782 41.1482 7.35032 41.3487 6.38605 43.8765 5.42179 46.4044 9.4863 50.3022 15.4644 52.5826" stroke="#66737C" stroke-width="3.57143" stroke-linecap="round" stroke-linejoin="round" fill="none"/><path d="M28.0225 34.3142 28.0225 53.7234" stroke="#66737C" stroke-width="3.57143" stroke-linecap="round" stroke-linejoin="round" fill="none"/><path d="M22.7988 20.4307C22.7988 23.3157 25.1375 25.6544 28.0225 25.6544 30.9075 25.6544 33.2463 23.3157 33.2463 20.4307 33.2463 17.5457 30.9075 15.2069 28.0225 15.2069 25.1375 15.2069 22.7988 17.5457 22.7988 20.4307" stroke="#66737C" stroke-width="3.57143" stroke-linecap="round" stroke-linejoin="round" fill="none"/><path d="M47.1763 20.4307C47.1773 16.584 44.0598 13.4648 40.2132 13.4638 40.1584 13.4638 40.1035 13.4644 40.0487 13.4657 42.1992 10.2763 41.357 5.94743 38.1675 3.79698 34.9781 1.64652 30.6493 2.48877 28.4989 5.67818 28.3215 5.94118 28.1624 6.21598 28.0225 6.50067 26.2395 3.0922 22.031 1.77452 18.6225 3.55754 15.214 5.34056 13.8963 9.5491 15.6794 12.9576 15.7701 13.131 15.8681 13.3005 15.9731 13.4657 12.1264 13.4657 9.00806 16.584 9.00806 20.4307 9.00806 24.2773 12.1264 27.3957 15.9731 27.3957 13.9094 30.6419 14.8681 34.9465 18.1144 37.0101 21.3606 39.0737 25.6652 38.115 27.7288 34.8688 27.8338 34.7036 27.9318 34.5341 28.0225 34.3607 29.7187 37.8132 33.8926 39.2369 37.3451 37.5407 40.7976 35.8445 42.2213 31.6706 40.5251 28.2182 40.3852 27.9335 40.2261 27.6587 40.0487 27.3957 43.8944 27.4854 47.0846 24.4407 47.1744 20.5951 47.1756 20.5403 47.1763 20.4855 47.1763 20.4307Z" stroke="#66737C" stroke-width="3.57143" stroke-linecap="round" stroke-linejoin="round" fill="none"/></g></svg>