<svg width="60" height="60" viewBox="-2.14 -2.14 60 60" xmlns="http://www.w3.org/2000/svg" xmlns:xlink="http://www.w3.org/1999/xlink" id="Flow-Chart-Hierachy--Streamline-Ultimate.svg" fill="none" overflow="hidden"><path d="M37.4951 14.8587 18.4575 14.8587C14.7428 14.8587 11.9568 11.8405 11.9568 8.35795 11.9568 4.64329 14.975 1.85745 18.4575 1.85745L37.4951 1.85745C41.2098 1.85745 43.9958 4.87545 43.9958 8.35795 43.9958 11.8405 40.9776 14.8587 37.4951 14.8587Z" stroke="#66737C" stroke-width="3.57143" stroke-linecap="round" stroke-linejoin="round" stroke-miterlimit="10"/><path d="M48.6389 36.9145 7.08106 36.9145C6.38456 36.9145 5.92023 36.4502 5.92023 35.7537L5.92023 24.8418C5.92023 24.1453 6.38456 23.681 7.08106 23.681L48.6389 23.681C49.3354 23.681 49.7998 24.1453 49.7998 24.8418L49.7998 35.7537C49.7998 36.4502 49.3354 36.9145 48.6389 36.9145Z" stroke="#66737C" stroke-width="3.57143" stroke-linecap="round" stroke-linejoin="round" stroke-miterlimit="10"/><path d="M27.9761 14.859 27.9761 23.6812" stroke="#66737C" stroke-width="3.57143" stroke-linecap="round" stroke-linejoin="round" stroke-miterlimit="10"/><path d="M27.9761 36.9147 27.9761 53.8629" stroke="#66737C" stroke-width="3.57143" stroke-linecap="round" stroke-linejoin="round" stroke-miterlimit="10"/><path d="M35.1732 46.4333 27.9761 53.8627 20.5468 46.4333" stroke="#66737C" stroke-width="3.57143" stroke-linecap="round" stroke-linejoin="round" stroke-miterlimit="10"/></svg>