<svg width="60" height="60" viewBox="-1.875 -1.875 60 60" xmlns="http://www.w3.org/2000/svg" xmlns:xlink="http://www.w3.org/1999/xlink" id="Focus-1--Streamline-Ultimate" overflow="hidden"><path d="M19.3359 28.125C19.3359 32.9791 23.2709 36.9141 28.125 36.9141 32.9791 36.9141 36.9141 32.9791 36.9141 28.125 36.9141 23.2709 32.9791 19.3359 28.125 19.3359 23.2709 19.3359 19.3359 23.2709 19.3359 28.125Z" stroke="#66737C" stroke-width="3.33333" stroke-linecap="round" stroke-linejoin="round" fill="none"/><path d="M1.75781 10.5469 1.75781 5.27344C1.75781 3.33181 3.33181 1.75781 5.27344 1.75781L10.5469 1.75781" stroke="#66737C" stroke-width="3.33333" stroke-linecap="round" stroke-linejoin="round" fill="none"/><path d="M54.4922 10.5469 54.4922 5.27344C54.4922 3.33181 52.9182 1.75781 50.9766 1.75781L45.7031 1.75781" stroke="#66737C" stroke-width="3.33333" stroke-linecap="round" stroke-linejoin="round" fill="none"/><path d="M1.75781 45.7031 1.75781 50.9766C1.75781 52.9182 3.33181 54.4922 5.27344 54.4922L10.5469 54.4922" stroke="#66737C" stroke-width="3.33333" stroke-linecap="round" stroke-linejoin="round" fill="none"/><path d="M54.4922 45.7031 54.4922 50.9766C54.4922 52.9182 52.9182 54.4922 50.9766 54.4922L45.7031 54.4922" stroke="#66737C" stroke-width="3.33333" stroke-linecap="round" stroke-linejoin="round" fill="none"/></svg>