<svg width="60" height="60" viewBox="-1.875 -1.875 60 60" xmlns="http://www.w3.org/2000/svg" xmlns:xlink="http://www.w3.org/1999/xlink" id="Gesture-Swipe-Horizontal-Left-2--Streamline-Ultimate" overflow="hidden"><style>
.MsftOfcResponsive_Stroke_66737c {
 stroke:#66737C; 
}
</style>
<path d="M28.3828 50.9719 19.5 43.7227C18.3279 42.7853 17.8104 41.2502 18.1758 39.7945L18.1758 39.7945C18.6901 37.7376 20.7746 36.4871 22.8315 37.0015 23.1027 37.0693 23.3656 37.1665 23.6156 37.2914L26.3672 38.6672 26.3672 22.8469C26.3672 20.9052 27.9412 19.3312 29.8828 19.3312L29.8828 19.3312C31.8244 19.3312 33.3984 20.9052 33.3984 22.8469L33.3984 33.3937 38.0695 34.1742C41.4599 34.7391 43.9451 37.6722 43.9453 41.1094L43.9453 50.9719" class="MsftOfcResponsive_Stroke_66737c" stroke="#66737C" stroke-width="3.33333" stroke-linecap="round" stroke-linejoin="round" fill="none"/><path d="M1.75547 5.26875 1.75547 19.3312 15.818 19.3312" class="MsftOfcResponsive_Stroke_66737c" stroke="#66737C" stroke-width="3.33333" stroke-linecap="round" stroke-linejoin="round" fill="none"/><path d="M54.4898 13.1906C38.4232 1.6531 16.4979 2.82732 1.75547 16.0148" class="MsftOfcResponsive_Stroke_66737c" stroke="#66737C" stroke-width="3.33333" stroke-linecap="round" stroke-linejoin="round" fill="none"/></svg>