<svg width="60" height="60" viewBox="-1.875 -1.875 60 60" xmlns="http://www.w3.org/2000/svg" xmlns:xlink="http://www.w3.org/1999/xlink" id="Global-Accelerator-Diagram--Streamline-Ultimate" fill="none" overflow="hidden"><path d="M28.125 36.5039C35.6327 36.5039 41.7188 30.4177 41.7188 22.9101 41.7188 15.4025 35.6327 9.31636 28.125 9.31636 20.6174 9.31636 14.5313 15.4025 14.5313 22.9101 14.5313 30.4177 20.6174 36.5039 28.125 36.5039Z" stroke="#66737C" stroke-width="3.33333" stroke-linecap="round" stroke-linejoin="round" stroke-miterlimit="10"/><path d="M15.4687 22.9102 40.7812 22.9102" stroke="#66737C" stroke-width="3.33333" stroke-linecap="round" stroke-linejoin="round" stroke-miterlimit="10"/><path d="M25.0781 9.66982C24.1406 13.4464 23.4375 17.459 23.4375 21.4716 23.4375 26.6644 24.375 31.8572 26.0156 36.3417" stroke="#66737C" stroke-width="3.33333" stroke-linecap="round" stroke-linejoin="round" stroke-miterlimit="10"/><path d="M30.9375 9.66982C31.875 13.4464 32.5781 17.459 32.5781 21.4716 32.5781 26.6644 31.6406 31.8572 30 36.3417" stroke="#66737C" stroke-width="3.33333" stroke-linecap="round" stroke-linejoin="round" stroke-miterlimit="10"/><path d="M9.37502 32.7539C5.15627 24.7852 6.32815 14.707 13.125 7.91016 21.3281-0.292969 34.6875-0.292969 42.8906 7.91016 49.6875 14.707 50.8594 24.7852 46.6406 32.7539" stroke="#66737C" stroke-width="3.33333" stroke-linecap="round" stroke-linejoin="round" stroke-miterlimit="10"/><path d="M10.5469 54.4922C12.8769 54.4922 14.7656 52.6034 14.7656 50.2734 14.7656 47.9435 12.8769 46.0547 10.5469 46.0547 8.21695 46.0547 6.32815 47.9435 6.32815 50.2734 6.32815 52.6034 8.21695 54.4922 10.5469 54.4922Z" stroke="#66737C" stroke-width="3.33333" stroke-linecap="round" stroke-linejoin="round" stroke-miterlimit="10"/><path d="M28.125 54.4922C30.4549 54.4922 32.3438 52.6034 32.3438 50.2734 32.3438 47.9435 30.4549 46.0547 28.125 46.0547 25.7951 46.0547 23.9062 47.9435 23.9062 50.2734 23.9062 52.6034 25.7951 54.4922 28.125 54.4922Z" stroke="#66737C" stroke-width="3.33333" stroke-linecap="round" stroke-linejoin="round" stroke-miterlimit="10"/><path d="M45.7031 54.4922C48.033 54.4922 49.9219 52.6034 49.9219 50.2734 49.9219 47.9435 48.033 46.0547 45.7031 46.0547 43.3732 46.0547 41.4844 47.9435 41.4844 50.2734 41.4844 52.6034 43.3732 54.4922 45.7031 54.4922Z" stroke="#66737C" stroke-width="3.33333" stroke-linecap="round" stroke-linejoin="round" stroke-miterlimit="10"/><path d="M28.125 36.5039 28.125 46.0547" stroke="#66737C" stroke-width="3.33333" stroke-linecap="round" stroke-linejoin="round" stroke-miterlimit="10"/><path d="M10.547 46.0547 10.547 44.2334C10.547 42.672 11.4845 41.6311 12.8908 41.6311L43.3596 41.6311C44.7659 41.6311 45.7034 42.672 45.7034 44.2334L45.7034 46.0547" stroke="#66737C" stroke-width="3.33333" stroke-linecap="round" stroke-linejoin="round" stroke-miterlimit="10"/></svg>