<svg width="60" height="60" viewBox="-1.875 -1.875 60 60" xmlns="http://www.w3.org/2000/svg" xmlns:xlink="http://www.w3.org/1999/xlink" id="Golf-Ball--Streamline-Ultimate" fill="none" overflow="hidden"><path d="M28.125 40.4297C38.8038 40.4297 47.4609 31.7726 47.4609 21.0938 47.4609 10.4148 38.8038 1.75781 28.125 1.75781 17.4461 1.75781 8.78906 10.4148 8.78906 21.0938 8.78906 31.7726 17.4461 40.4297 28.125 40.4297Z" stroke="#66737C" stroke-width="3.57143" stroke-linecap="round" stroke-linejoin="round"/><path d="M14.0625 43.3992C18.2729 46.0528 23.1482 47.4609 28.125 47.4609 33.102 47.4609 37.9772 46.0528 42.1875 43.3992" stroke="#66737C" stroke-width="3.57143" stroke-linecap="round" stroke-linejoin="round"/><path d="M28.125 47.4609 28.125 54.4922" stroke="#66737C" stroke-width="3.57143" stroke-linecap="round" stroke-linejoin="round"/><path d="M31.6406 27.2461C31.1552 27.2461 30.7617 26.8526 30.7617 26.3672 30.7617 25.8818 31.1552 25.4883 31.6406 25.4883" stroke="#66737C" stroke-width="3.57143"/><path d="M31.6406 27.2461C32.126 27.2461 32.5195 26.8526 32.5195 26.3672 32.5195 25.8818 32.126 25.4883 31.6406 25.4883" stroke="#66737C" stroke-width="3.57143"/><path d="M28.125 34.2773C27.6396 34.2773 27.2461 33.8838 27.2461 33.3984 27.2461 32.913 27.6396 32.5195 28.125 32.5195" stroke="#66737C" stroke-width="3.57143"/><path d="M28.125 34.2773C28.6104 34.2773 29.0039 33.8838 29.0039 33.3984 29.0039 32.913 28.6104 32.5195 28.125 32.5195" stroke="#66737C" stroke-width="3.57143"/><g><path d="M36.9141 32.5195C36.4287 32.5195 36.0352 32.126 36.0352 31.6406 36.0352 31.1552 36.4287 30.7617 36.9141 30.7617" stroke="#66737C" stroke-width="3.57143"/><path d="M36.9141 32.5195C37.3995 32.5195 37.793 32.126 37.793 31.6406 37.793 31.1552 37.3995 30.7617 36.9141 30.7617" stroke="#66737C" stroke-width="3.57143"/></g><g><path d="M40.4297 25.4883C39.9443 25.4883 39.5508 25.0948 39.5508 24.6094 39.5508 24.124 39.9443 23.7305 40.4297 23.7305" stroke="#66737C" stroke-width="3.57143"/><path d="M40.4297 25.4883C40.9151 25.4883 41.3086 25.0948 41.3086 24.6094 41.3086 24.124 40.9151 23.7305 40.4297 23.7305" stroke="#66737C" stroke-width="3.57143"/></g></svg>