<svg width="60" height="60" viewBox="-1.875 -1.875 60 60" xmlns="http://www.w3.org/2000/svg" xmlns:xlink="http://www.w3.org/1999/xlink" id="Head-Idea--Streamline-Ultimate" overflow="hidden"><path d="M47.4609 54.4922C47.4925 53.0548 46.8402 51.6877 45.7031 50.8078 40.6998 46.9103 34.4583 44.9488 28.125 45.2836 21.7917 44.9488 15.5502 46.9103 10.5469 50.8078 9.40978 51.6877 8.75752 53.0548 8.78906 54.4922" stroke="#66737C" stroke-width="3.33333" stroke-linecap="round" stroke-linejoin="round" fill="none"/><path d="M24.6094 54.0727 28.125 45.2836 31.6406 54.0727" stroke="#66737C" stroke-width="3.33333" stroke-linecap="round" stroke-linejoin="round" fill="none"/><path d="M42.1875 15.8203C42.1875 8.05381 35.8915 1.75781 28.125 1.75781 20.3585 1.75781 14.0625 8.05381 14.0625 15.8203 13.903 21.339 17.0712 26.4142 22.0992 28.6945L22.0992 35.1562 34.1508 35.1562 34.1508 28.6945C39.1788 26.4142 42.347 21.339 42.1875 15.8203Z" stroke="#66737C" stroke-width="3.33333" stroke-linecap="round" stroke-linejoin="round" fill="none"/><path d="M28.125 35.1562 28.125 38.6719" stroke="#66737C" stroke-width="3.33333" stroke-linecap="round" stroke-linejoin="round" fill="none"/><path d="M20.9484 28.125 35.3016 28.125" stroke="#66737C" stroke-width="3.33333" stroke-linecap="round" stroke-linejoin="round" fill="none"/><path d="M28.125 28.125 28.125 21.0938" stroke="#66737C" stroke-width="3.33333" stroke-linecap="round" stroke-linejoin="round" fill="none"/><path d="M33.3984 15.8203 28.125 21.0938 22.8516 15.8203" stroke="#66737C" stroke-width="3.33333" stroke-linecap="round" stroke-linejoin="round" fill="none"/><path d="M50.9766 15.8203 54.4922 15.8203" stroke="#66737C" stroke-width="3.33333" stroke-linecap="round" stroke-linejoin="round" fill="none"/><path d="M50.2477 23.8805 52.7344 26.3672" stroke="#66737C" stroke-width="3.33333" stroke-linecap="round" stroke-linejoin="round" fill="none"/><path d="M50.2477 7.75781 52.7344 5.27344" stroke="#66737C" stroke-width="3.33333" stroke-linecap="round" stroke-linejoin="round" fill="none"/><path d="M5.27344 15.8203 1.75781 15.8203" stroke="#66737C" stroke-width="3.33333" stroke-linecap="round" stroke-linejoin="round" fill="none"/><path d="M6.00234 23.8805 3.51562 26.3672" stroke="#66737C" stroke-width="3.33333" stroke-linecap="round" stroke-linejoin="round" fill="none"/><path d="M6.00234 7.75781 3.51562 5.27344" stroke="#66737C" stroke-width="3.33333" stroke-linecap="round" stroke-linejoin="round" fill="none"/></svg>