<svg width="60" height="60" viewBox="-1.875 -1.875 60 60" xmlns="http://www.w3.org/2000/svg" xmlns:xlink="http://www.w3.org/1999/xlink" id="Heavy-Equipment-Lift--Streamline-Ultimate" fill="none" overflow="hidden"><path d="M49.8047 40.4297 24.0234 40.4297C21.4346 40.4297 19.3359 42.5283 19.3359 45.1172L19.3359 49.8047C19.3359 52.3936 21.4346 54.4922 24.0234 54.4922L49.8047 54.4922C52.3936 54.4922 54.4922 52.3936 54.4922 49.8047L54.4922 45.1172C54.4922 42.5283 52.3936 40.4297 49.8047 40.4297Z" stroke="#66737C" stroke-width="3.33333" stroke-linecap="round" stroke-linejoin="round"/><path d="M50.9766 40.5703 50.9766 29.8828C50.9766 28.9505 50.6063 28.0561 49.947 27.3968 49.2877 26.7375 48.3933 26.3672 47.4609 26.3672L43.9453 26.3672C43.013 26.3672 42.1186 25.9969 41.4593 25.3376 40.8 24.6783 40.4297 23.7839 40.4297 22.8516L40.4297 19.3359C40.4297 18.4035 40.0594 17.5093 39.4001 16.85 38.7408 16.1907 37.8464 15.8203 36.9141 15.8203L26.3672 15.8203C25.4348 15.8203 24.5405 16.1907 23.8812 16.85 23.222 17.5093 22.8516 18.4035 22.8516 19.3359L22.8516 40.5703" stroke="#66737C" stroke-width="3.33333" stroke-linecap="round" stroke-linejoin="round"/><path d="M8.78906 14.039 8.78906 26.3672" stroke="#66737C" stroke-width="3.33333" stroke-linecap="round" stroke-linejoin="round"/><path d="M8.78906 40.4297C12.6723 40.4297 15.8203 37.2818 15.8203 33.3984 15.8203 29.5151 12.6723 26.3672 8.78906 26.3672 4.90582 26.3672 1.75781 29.5151 1.75781 33.3984 1.75781 37.2818 4.90582 40.4297 8.78906 40.4297Z" stroke="#66737C" stroke-width="3.33333" stroke-linecap="round" stroke-linejoin="round"/><path d="M17.1094 21.914 3.04685 8.5312C2.34405 7.87052 1.91173 6.97233 1.83377 6.0109 1.75582 5.04945 2.03779 4.09334 2.62498 3.32808L2.62498 3.32808C3.20311 2.57419 4.03711 2.05789 4.96969 1.87656 5.90227 1.69522 6.86897 1.86138 7.68748 2.3437L30.4688 15.8203" stroke="#66737C" stroke-width="3.33333" stroke-linecap="round" stroke-linejoin="round"/><path d="M40.7344 24.3047 36.1875 28.8516C35.5289 29.5111 34.6352 29.8819 33.7031 29.8828L22.8516 29.8828" stroke="#66737C" stroke-width="3.33333" stroke-linecap="round" stroke-linejoin="round"/><g><path d="M28.1365 48.3398C27.6511 48.3398 27.2576 47.9463 27.2576 47.4609 27.2576 46.9755 27.6511 46.582 28.1365 46.582" stroke="#66737C" stroke-width="3.33333"/><path d="M28.1365 48.3398C28.6219 48.3398 29.0154 47.9463 29.0154 47.4609 29.0154 46.9755 28.6219 46.582 28.1365 46.582" stroke="#66737C" stroke-width="3.33333"/></g><g><path d="M36.9197 48.3398C36.4343 48.3398 36.0408 47.9463 36.0408 47.4609 36.0408 46.9755 36.4343 46.582 36.9197 46.582" stroke="#66737C" stroke-width="3.33333"/><path d="M36.9197 48.3398C37.4051 48.3398 37.7986 47.9463 37.7986 47.4609 37.7986 46.9755 37.4051 46.582 36.9197 46.582" stroke="#66737C" stroke-width="3.33333"/></g><g><path d="M45.7148 48.3398C45.2295 48.3398 44.8359 47.9463 44.8359 47.4609 44.8359 46.9755 45.2295 46.582 45.7148 46.582" stroke="#66737C" stroke-width="3.33333"/><path d="M45.7148 48.3398C46.2002 48.3398 46.5938 47.9463 46.5938 47.4609 46.5938 46.9755 46.2002 46.582 45.7148 46.582" stroke="#66737C" stroke-width="3.33333"/></g></svg>