<svg width="60" height="60" viewBox="-2.14 -2.14 60 60" xmlns="http://www.w3.org/2000/svg" xmlns:xlink="http://www.w3.org/1999/xlink" id="Heavy-Equipment-Mortar-Truck--Streamline-Ultimate.svg" overflow="hidden"><path d="M7.41773 43.5312C7.41773 46.4162 9.75648 48.755 12.6415 48.755 15.5265 48.755 17.8652 46.4162 17.8652 43.5312 17.8652 40.6463 15.5265 38.3075 12.6415 38.3075 9.75648 38.3075 7.41772 40.6463 7.41772 43.5312Z" stroke="#66737C" stroke-width="3.57143" stroke-linecap="round" stroke-linejoin="round" fill="none"/><path d="M38.7602 43.5312C38.7602 46.4162 41.099 48.755 43.984 48.755 46.869 48.755 49.2077 46.4162 49.2077 43.5312 49.2077 40.6463 46.869 38.3075 43.984 38.3075 41.099 38.3075 38.7602 40.6463 38.7602 43.5312Z" stroke="#66737C" stroke-width="3.57143" stroke-linecap="round" stroke-linejoin="round" fill="none"/><path d="M7.72418 45.2725 5.67648 45.2725C3.75314 45.2725 2.19397 43.7133 2.19397 41.79L2.19397 31.4655C2.19406 30.3012 2.77603 29.2139 3.74485 28.5681L6.76301 26.5529C7.1918 26.2671 7.5518 25.8896 7.81705 25.4478L11.6246 19.1027C12.257 18.0491 13.3978 17.4068 14.6265 17.4125L19.3766 17.4125C20.5996 17.4126 21.7329 18.0541 22.3623 19.1027L31.8068 34.825" stroke="#66737C" stroke-width="3.57143" stroke-linecap="round" stroke-linejoin="round" fill="none"/><path d="M28.199 10.2455 40.2856 31.5607" stroke="#66737C" stroke-width="3.57143" stroke-linecap="round" stroke-linejoin="round" fill="none"/><path d="M37.019 10.4475 47.9285 28.6285" stroke="#66737C" stroke-width="3.57143" stroke-linecap="round" stroke-linejoin="round" fill="none"/><path d="M17.5681 45.2725 39.0597 45.2725" stroke="#66737C" stroke-width="3.57143" stroke-linecap="round" stroke-linejoin="round" fill="none"/><path d="M16.124 6.965 22.0349 6.965C22.7225 6.96508 23.3946 7.16865 23.9666 7.55006L27.4375 9.87173C28.0095 10.2531 28.6816 10.4567 29.3691 10.4568L43.6775 10.4568C44.9423 10.4572 46.1074 11.1433 46.7212 12.2491L53.54 24.5214C54.0992 25.5265 54.1262 26.7429 53.6119 27.7718L47.6081 39.7771" stroke="#66737C" stroke-width="3.57143" stroke-linecap="round" stroke-linejoin="round" fill="none"/><path d="M23.1888 38.0568C27.983 36.3318 53.9764 26.2952 53.9764 26.2952" stroke="#66737C" stroke-width="3.57143" stroke-linecap="round" stroke-linejoin="round" fill="none"/><path d="M4.80585 27.86 27.6162 27.86" stroke="#66737C" stroke-width="3.57143" stroke-linecap="round" stroke-linejoin="round" fill="none"/></svg>