<svg width="60" height="60" viewBox="-2.14 -2.14 60 60" xmlns="http://www.w3.org/2000/svg" xmlns:xlink="http://www.w3.org/1999/xlink" id="Heavy-Equipment-Hook--Streamline-Ultimate.svg" overflow="hidden"><path d="M41.79 31.3425C41.7911 34.2275 44.1307 36.5654 47.0157 36.5643 49.9007 36.5632 52.2386 34.2236 52.2375 31.3386 52.2367 29.2622 51.0063 27.3834 49.1032 26.5529 47.834 25.9989 47.0135 24.7455 47.0137 23.3606L47.0137 15.6713" stroke="#66737C" stroke-width="3.57143" stroke-linecap="round" stroke-linejoin="round" fill="none"/><path d="M53.9787 15.6713 1.74125 15.6713" stroke="#66737C" stroke-width="3.57143" stroke-linecap="round" stroke-linejoin="round" fill="none"/><path d="M6.965 15.6713 21.7006 2.18004C22.2604 1.68467 23.0735 1.60065 23.7228 1.97109L47.0137 15.6713" stroke="#66737C" stroke-width="3.57143" stroke-linecap="round" stroke-linejoin="round" fill="none"/><path d="M10.4475 15.6713 10.4475 53.9787" stroke="#66737C" stroke-width="3.57143" stroke-linecap="round" stroke-linejoin="round" fill="none"/><path d="M20.895 15.6713 20.895 53.9787" stroke="#66737C" stroke-width="3.57143" stroke-linecap="round" stroke-linejoin="round" fill="none"/><path d="M1.74125 53.9787 29.6012 53.9787" stroke="#66737C" stroke-width="3.57143" stroke-linecap="round" stroke-linejoin="round" fill="none"/><path d="M10.4475 19.1537 20.895 33.0838" stroke="#66737C" stroke-width="3.57143" stroke-linecap="round" stroke-linejoin="round" fill="none"/><path d="M20.895 36.5662 10.4475 50.4963" stroke="#66737C" stroke-width="3.57143" stroke-linecap="round" stroke-linejoin="round" fill="none"/></svg>