<svg width="60" height="60" viewBox="-1.875 -1.875 60 60" xmlns="http://www.w3.org/2000/svg" xmlns:xlink="http://www.w3.org/1999/xlink" id="Hierarchy-5-Organize--Streamline-Ultimate" fill="none" overflow="hidden"><path d="M42.7734 1.75781 13.4766 1.75781C12.5058 1.75781 11.7188 2.54482 11.7188 3.51562L11.7188 15.2344C11.7188 16.2052 12.5058 16.9922 13.4766 16.9922L42.7734 16.9922C43.7442 16.9922 44.5312 16.2052 44.5312 15.2344L44.5312 3.51562C44.5312 2.54482 43.7442 1.75781 42.7734 1.75781Z" stroke="#66737C" stroke-width="3.33333" stroke-linecap="round" stroke-linejoin="round"/><path d="M28.125 16.9922 28.125 43.9453" stroke="#66737C" stroke-width="3.33333" stroke-linecap="round" stroke-linejoin="round"/><path d="M7.03125 43.9453 7.03125 34.5703C7.03125 33.638 7.40166 32.7436 8.06095 32.0843 8.72025 31.425 9.61448 31.0547 10.5469 31.0547L45.7031 31.0547C46.6355 31.0547 47.5298 31.425 48.1891 32.0843 48.8484 32.7436 49.2188 33.638 49.2188 34.5703L49.2188 43.9453" stroke="#66737C" stroke-width="3.33333" stroke-linecap="round" stroke-linejoin="round"/><path d="M7.03125 54.4922C9.94369 54.4922 12.3047 52.1311 12.3047 49.2188 12.3047 46.3064 9.94369 43.9453 7.03125 43.9453 4.11881 43.9453 1.75781 46.3064 1.75781 49.2188 1.75781 52.1311 4.11881 54.4922 7.03125 54.4922Z" stroke="#66737C" stroke-width="3.33333" stroke-linecap="round" stroke-linejoin="round"/><path d="M28.125 54.4922C31.0373 54.4922 33.3984 52.1311 33.3984 49.2188 33.3984 46.3064 31.0373 43.9453 28.125 43.9453 25.2127 43.9453 22.8516 46.3064 22.8516 49.2188 22.8516 52.1311 25.2127 54.4922 28.125 54.4922Z" stroke="#66737C" stroke-width="3.33333" stroke-linecap="round" stroke-linejoin="round"/><path d="M49.2188 54.4922C52.1311 54.4922 54.4922 52.1311 54.4922 49.2188 54.4922 46.3064 52.1311 43.9453 49.2188 43.9453 46.3064 43.9453 43.9453 46.3064 43.9453 49.2188 43.9453 52.1311 46.3064 54.4922 49.2188 54.4922Z" stroke="#66737C" stroke-width="3.33333" stroke-linecap="round" stroke-linejoin="round"/></svg>