<svg width="60" height="60" viewBox="-2.14 -2.14 60 60" xmlns="http://www.w3.org/2000/svg" xmlns:xlink="http://www.w3.org/1999/xlink" id="Hospital-First-Aid--Streamline-Ultimate.svg" overflow="hidden"><defs></defs><path d="M10.4475 15.6713 45.2725 15.6713C45.2725 15.6713 52.2375 15.6713 52.2375 22.6362L52.2375 43.5312C52.2375 43.5312 52.2375 50.4963 45.2725 50.4963L10.4475 50.4963C10.4475 50.4963 3.4825 50.4963 3.4825 43.5312L3.4825 22.6362C3.4825 22.6362 3.4825 15.6713 10.4475 15.6713" stroke="#66737C" stroke-width="3.57143" stroke-linecap="round" stroke-linejoin="round" fill="none"/><path d="M17.4125 15.6713 17.4125 8.70625C17.4125 6.78292 18.9717 5.22375 20.895 5.22375L34.825 5.22375C36.7483 5.22375 38.3075 6.78292 38.3075 8.70625L38.3075 15.6713" stroke="#66737C" stroke-width="3.57143" stroke-linecap="round" stroke-linejoin="round" fill="none"/><path d="M27.86 26.0746 27.86 40.0046" stroke="#66737C" stroke-width="3.57143" stroke-linecap="round" stroke-linejoin="round" fill="none"/><path d="M20.895 33.0396 34.825 33.0396" stroke="#66737C" stroke-width="3.57143" stroke-linecap="round" stroke-linejoin="round" fill="none"/></svg>