<svg width="60" height="60" viewBox="-2.14 -2.14 60 60" xmlns="http://www.w3.org/2000/svg" xmlns:xlink="http://www.w3.org/1999/xlink" id="Hourglass--Streamline-Ultimate.svg" overflow="hidden"><path d="M13.93 1.74125C12.0067 1.74125 10.4475 3.30042 10.4475 5.22375L10.4475 10.7191C10.4475 20.3358 18.2433 28.1316 27.86 28.1316 37.4767 28.1316 45.2725 20.3358 45.2725 10.7191L45.2725 5.22375C45.2725 3.30042 43.7133 1.74125 41.79 1.74125Z" stroke="#66737C" stroke-width="3.57143" stroke-linecap="round" stroke-linejoin="round" fill="none"/><path d="M13.93 53.9787C12.0067 53.9787 10.4475 52.4196 10.4475 50.4963L10.4475 45.0009C10.4475 35.3842 18.2433 27.5884 27.86 27.5884 37.4767 27.5884 45.2725 35.3842 45.2725 45.0009L45.2725 50.4963C45.2725 52.4196 43.7133 53.9787 41.79 53.9787Z" stroke="#66737C" stroke-width="3.57143" stroke-linecap="round" stroke-linejoin="round" fill="none"/><path d="M12.7158 19.1537 43.0042 19.1537" stroke="#66737C" stroke-width="3.57143" stroke-linecap="round" stroke-linejoin="round" fill="none"/><path d="M43.0623 53.7396C40.0813 47.4804 34.3909 41.79 27.86 41.79 21.3292 41.79 15.6387 47.4804 12.6577 53.7396" stroke="#66737C" stroke-width="3.57143" stroke-linecap="round" stroke-linejoin="round" fill="none"/></svg>