<svg width="60" height="60" viewBox="-1.875 -1.875 60 60" xmlns="http://www.w3.org/2000/svg" xmlns:xlink="http://www.w3.org/1999/xlink" id="Human-Resources-Search-Men--Streamline-Ultimate" overflow="hidden"><path d="M23.7398 14.0625C23.7398 20.8582 29.2488 26.3672 36.0445 26.3672 42.8402 26.3672 48.3492 20.8582 48.3492 14.0625 48.3492 7.26681 42.8402 1.75781 36.0445 1.75781 29.2488 1.75781 23.7398 7.26681 23.7398 14.0625Z" stroke="#66737C" stroke-width="3.33333" stroke-linecap="round" stroke-linejoin="round" fill="none"/><path d="M53.6227 31.6406 44.7445 22.7625" stroke="#66737C" stroke-width="3.33333" stroke-linecap="round" stroke-linejoin="round" fill="none"/><path d="M27.2977 30.7617C27.2977 36.1012 22.9692 40.4297 17.6297 40.4297 12.2902 40.4297 7.96172 36.1012 7.96172 30.7617 7.96172 25.4222 12.2902 21.0938 17.6297 21.0938" stroke="#66737C" stroke-width="3.33333" stroke-linecap="round" stroke-linejoin="round" fill="none"/><path d="M32.55 54.4922C29.6354 46.2526 20.5932 41.9358 12.3536 44.8503 7.84878 46.4438 4.30518 49.9874 2.71172 54.4922" stroke="#66737C" stroke-width="3.33333" stroke-linecap="round" stroke-linejoin="round" fill="none"/><path d="M46.4062 34.507C46.4103 39.0038 42.7682 42.6525 38.2714 42.6566 36.1295 42.6585 34.073 41.8163 32.5477 40.3125" stroke="#66737C" stroke-width="3.33333" stroke-linecap="round" stroke-linejoin="round" fill="none"/><path d="M50.8336 54.4922C48.3793 47.5534 40.7647 43.918 33.8259 46.3723 32.1496 46.9653 30.6089 47.8876 29.2945 49.0852" stroke="#66737C" stroke-width="3.33333" stroke-linecap="round" stroke-linejoin="round" fill="none"/></svg>