<svg width="60" height="60" viewBox="-2.14 -2.14 60 60" xmlns="http://www.w3.org/2000/svg" xmlns:xlink="http://www.w3.org/1999/xlink" id="Human-Resources-Businessman--Streamline-Ultimate.svg" overflow="hidden"><g><g><path d="M5.22375 8.70625C5.22375 12.5529 8.34209 15.6713 12.1888 15.6713 16.0354 15.6713 19.1537 12.5529 19.1537 8.70625 19.1537 4.85959 16.0354 1.74125 12.1887 1.74125 8.34209 1.74125 5.22375 4.85959 5.22375 8.70625" stroke="#66737C" stroke-width="3.57143" stroke-linecap="round" stroke-linejoin="round" fill="none"/><path d="M12.1888 19.1537 12.1888 33.0838" stroke="#66737C" stroke-width="3.57143" stroke-linecap="round" stroke-linejoin="round" fill="none"/><path d="M22.497 27.86C21.5579 22.1669 16.1815 18.313 10.4885 19.2521 5.43623 20.0854 1.73255 24.4576 1.74125 29.578L1.74125 36.543 5.22375 36.543 6.965 53.9787 17.4125 53.9787 19.1537 36.5662" stroke="#66737C" stroke-width="3.57143" stroke-linecap="round" stroke-linejoin="round" fill="none"/></g><path d="M28.4404 33.0838 51.6571 33.0838C51.6571 33.0838 53.9787 33.0838 53.9787 35.4054L53.9787 51.6571C53.9787 51.6571 53.9787 53.9787 51.6571 53.9787L28.4404 53.9787C28.4404 53.9787 26.1187 53.9787 26.1187 51.6571L26.1187 35.4054C26.1187 35.4054 26.1187 33.0838 28.4404 33.0838" stroke="#66737C" stroke-width="3.57143" stroke-linecap="round" stroke-linejoin="round" fill="none"/><path d="M26.1187 41.79 53.9787 41.79" stroke="#66737C" stroke-width="3.57143" stroke-linecap="round" stroke-linejoin="round" fill="none"/><path d="M40.0488 41.79 40.0488 46.4333" stroke="#66737C" stroke-width="3.57143" stroke-linecap="round" stroke-linejoin="round" fill="none"/><path d="M34.825 33.0838 34.825 30.1817C34.825 27.2967 37.1638 24.9579 40.0488 24.9579L40.0488 24.9579C42.9338 24.9579 45.2725 27.2967 45.2725 30.1817L45.2725 33.0838" stroke="#66737C" stroke-width="3.57143" stroke-linecap="round" stroke-linejoin="round" fill="none"/></g></svg>