<svg width="60" height="60" viewBox="-1.875 -1.875 60 60" xmlns="http://www.w3.org/2000/svg" xmlns:xlink="http://www.w3.org/1999/xlink" id="Hyperlink-3--Streamline-Ultimate" overflow="hidden"><path d="M21.9469 43.3594 19.7625 45.5438C15.6437 49.6626 8.96571 49.6626 4.84688 45.5438 0.72804 41.4249 0.72804 34.747 4.84688 30.6281L16.0336 19.4391C20.1477 15.3156 26.8257 15.308 30.9491 19.4222 34.6261 23.0909 35.0846 28.8906 32.0297 33.0914" stroke="#66737C" stroke-width="3.33333" stroke-linecap="round" stroke-linejoin="round" fill="none"/><path d="M34.7297 13.0477 36.4875 11.2898C40.6063 7.17101 47.2843 7.17101 51.4031 11.2898 55.522 15.4087 55.522 22.0866 51.4031 26.2055L40.2164 37.3922C36.101 41.5144 29.423 41.5198 25.3009 37.4043 21.6259 33.7354 21.1685 27.9373 24.2227 23.7375" stroke="#66737C" stroke-width="3.33333" stroke-linecap="round" stroke-linejoin="round" fill="none"/></svg>