<svg width="60" height="60" viewBox="-2.14 -2.14 60 60" xmlns="http://www.w3.org/2000/svg" xmlns:xlink="http://www.w3.org/1999/xlink" id="Immersive-Reality-Monitor-2--Streamline-Ultimate.svg" fill="none" overflow="hidden"><path d="M27.8614 17.993C17.4138 17.993 11.8419 21.4755 11.8419 21.4755L11.8419 5.22382C11.8419 5.22382 16.4852 1.74132 27.8614 1.74132" stroke="#66737C" stroke-width="3.57143" stroke-linecap="round" stroke-linejoin="round" stroke-miterlimit="10"/><path d="M27.8614 17.993C38.3089 17.993 43.8809 21.4755 43.8809 21.4755L43.8809 5.22382C43.8809 5.22382 39.2376 1.74132 27.8614 1.74132" stroke="#66737C" stroke-width="3.57143" stroke-linecap="round" stroke-linejoin="round" stroke-miterlimit="10"/><path d="M1.74125 8.24182C1.74125 8.24182 3.59858 7.08099 4.52725 7.08099L4.52725 23.3328C4.52725 23.3328 2.66992 23.3328 1.74125 24.4936" stroke="#66737C" stroke-width="3.57143" stroke-linecap="round" stroke-linejoin="round" stroke-miterlimit="10"/><path d="M53.9785 8.24182C53.9785 8.24182 52.1212 7.08099 51.1925 7.08099L51.1925 23.3328C51.1925 23.3328 53.0499 23.3328 53.9785 24.4936" stroke="#66737C" stroke-width="3.57143" stroke-linecap="round" stroke-linejoin="round" stroke-miterlimit="10"/><path d="M17.4139 53.8875C7.89511 49.9407 3.01961 42.5113 2.78744 42.047 1.62661 40.1897 2.32311 37.6358 4.18044 36.475 6.03777 35.3142 8.59161 36.0107 9.75244 37.868 9.98461 38.1002 16.2531 47.619 27.8614 48.0833 39.4697 47.619 45.7382 38.1002 45.9704 37.868 47.1312 36.0107 49.6851 35.3142 51.5424 36.475 53.3997 37.6358 54.0962 40.1897 52.9354 42.047 52.7032 42.5113 47.8277 49.9407 38.3089 53.8875" stroke="#66737C" stroke-width="3.57143" stroke-linecap="round" stroke-linejoin="round" stroke-miterlimit="10"/><path d="M27.8614 40.654C32.3492 40.654 35.9872 37.016 35.9872 32.5282 35.9872 28.0404 32.3492 24.4023 27.8614 24.4023 23.3736 24.4023 19.7356 28.0404 19.7356 32.5282 19.7356 37.016 23.3736 40.654 27.8614 40.654Z" stroke="#66737C" stroke-width="3.57143" stroke-linecap="round" stroke-linejoin="round" stroke-miterlimit="10"/></svg>