<svg width="60" height="60" viewBox="-2.14 -2.14 60 60" xmlns="http://www.w3.org/2000/svg" xmlns:xlink="http://www.w3.org/1999/xlink" id="Insurance-Hands--Streamline-Ultimate.svg" overflow="hidden"><g><path d="M41.79 11.6083C41.79 10.9672 41.2703 10.4475 40.6292 10.4475L32.5033 10.4475 32.5033 2.32167C32.5033 1.68056 31.9836 1.16083 31.3425 1.16083L24.3775 1.16083C23.7364 1.16083 23.2167 1.68056 23.2167 2.32167L23.2167 10.4475 15.0908 10.4475C14.4497 10.4475 13.93 10.9672 13.93 11.6083L13.93 18.5733C13.93 19.2144 14.4497 19.7342 15.0908 19.7342L23.2167 19.7342 23.2167 27.86C23.2167 28.5011 23.7364 29.0208 24.3775 29.0208L31.3425 29.0208C31.9836 29.0208 32.5033 28.5011 32.5033 27.86L32.5033 19.7342 40.6292 19.7342C41.2703 19.7342 41.79 19.2144 41.79 18.5733Z" stroke="#66737C" stroke-width="3.57143" stroke-linecap="round" stroke-linejoin="round" fill="none"/><g><path d="M8.12583 54.5592 3.45928 48.755C1.96626 46.9075 1.14737 44.6064 1.13762 42.2311L1.13762 30.1817C1.13757 28.2583 2.69671 26.6991 4.62004 26.6991 4.6278 26.6991 4.63557 26.6991 4.64333 26.6992L4.64333 26.6992C6.56667 26.6992 8.12583 28.2583 8.12583 30.1817L8.12583 39.1665" stroke="#66737C" stroke-width="3.57143" stroke-linecap="round" stroke-linejoin="round" fill="none"/><path d="M18.5733 54.2341 18.5733 47.2691C18.5775 45.2089 17.9627 43.195 16.8089 41.4882L14.1622 37.4949C13.2303 35.9456 11.219 35.4451 9.66969 36.3769 9.61853 36.4077 9.56823 36.4399 9.51883 36.4734L9.51883 36.4734C8.16082 37.3865 7.69338 39.1667 8.42765 40.6292L11.6083 45.8529" stroke="#66737C" stroke-width="3.57143" stroke-linecap="round" stroke-linejoin="round" fill="none"/><path d="M47.5942 54.5592 52.2375 48.7086C53.7305 46.8611 54.5494 44.56 54.5592 42.1847L54.5592 30.1817C54.5592 28.2583 53 26.6992 51.0767 26.6992L51.0767 26.6992C49.1533 26.6992 47.5942 28.2583 47.5942 30.1817L47.5942 39.1897" stroke="#66737C" stroke-width="3.57143" stroke-linecap="round" stroke-linejoin="round" fill="none"/><path d="M37.1467 54.2341 37.1467 47.2691C37.1425 45.2089 37.7573 43.195 38.9111 41.4882L41.5578 37.4949C42.4897 35.9456 44.501 35.4451 46.0503 36.3769 46.1015 36.4077 46.1518 36.4399 46.2012 36.4734L46.2012 36.4734C47.5592 37.3865 48.0266 39.1667 47.2924 40.6292L44.1117 45.8529" stroke="#66737C" stroke-width="3.57143" stroke-linecap="round" stroke-linejoin="round" fill="none"/></g></g></svg>