<svg width="60" height="60" viewBox="-2.14 -2.14 60 60" xmlns="http://www.w3.org/2000/svg" xmlns:xlink="http://www.w3.org/1999/xlink" id="Insurance-Umbrella-Heart--Streamline-Ultimate.svg" overflow="hidden"><path d="M53.9787 31.3425C53.9787 16.9175 42.285 5.22375 27.86 5.22375 13.435 5.22375 1.74125 16.9175 1.74125 31.3425L3.62412 29.7731C8.26081 25.9095 15.1516 26.5362 19.0152 31.1729 19.062 31.2289 19.1081 31.2855 19.1537 31.3425 23.9561 26.5342 31.7471 26.5293 36.5554 31.3317 36.559 31.3353 36.5626 31.3389 36.5662 31.3425 40.3362 26.6293 47.2131 25.8646 51.9262 29.6345 51.9832 29.6801 52.0398 29.7263 52.0959 29.7731Z" stroke="#66737C" stroke-width="3.57143" stroke-linecap="round" stroke-linejoin="round" fill="none"/><path d="M27.86 27.737 27.86 50.4893C27.86 52.4126 26.3008 53.9718 24.3775 53.9718 22.4542 53.9718 20.895 52.4126 20.895 50.4893" stroke="#66737C" stroke-width="3.57143" stroke-linecap="round" stroke-linejoin="round" fill="none"/><path d="M27.86 5.22375 27.86 1.74125" stroke="#66737C" stroke-width="3.57143" stroke-linecap="round" stroke-linejoin="round" fill="none"/><path d="M52.6554 38.5397C50.9748 36.776 48.1826 36.7086 46.4189 38.3893 46.3675 38.4382 46.3174 38.4883 46.2685 38.5397L43.5312 41.3582 40.794 38.5397C39.1134 36.776 36.3212 36.7086 34.5575 38.3893 34.5062 38.4382 34.456 38.4883 34.4071 38.5397 32.6426 40.3879 32.6426 43.2966 34.4071 45.1448L42.5585 53.5748C43.0708 54.112 43.9217 54.1322 44.459 53.6198 44.4744 53.6052 44.4894 53.5901 44.504 53.5748L52.6554 45.1332C54.4125 43.2865 54.4125 40.3863 52.6554 38.5397Z" stroke="#66737C" stroke-width="3.57143" stroke-linecap="round" stroke-linejoin="round" fill="none"/></svg>