<svg width="60" height="60" viewBox="-2.14 -2.14 60 60" xmlns="http://www.w3.org/2000/svg" xmlns:xlink="http://www.w3.org/1999/xlink" id="Iris-Scan-1--Streamline-Ultimate.svg" overflow="hidden"><g><path d="M8.12583 27.86C8.12583 27.86 16.0195 16.2517 27.86 16.2517 39.7005 16.2517 47.5942 27.86 47.5942 27.86 47.5942 27.86 39.7005 39.4683 27.86 39.4683 16.0195 39.4683 8.12583 27.86 8.12583 27.86Z" stroke="#66737C" stroke-width="3.57143" stroke-linecap="round" stroke-linejoin="round" fill="none"/><path d="M27.86 23.2167 27.86 23.2167C27.86 23.2167 32.5033 23.2167 32.5033 27.86L32.5033 27.86C32.5033 27.86 32.5033 32.5033 27.86 32.5033L27.86 32.5033C27.86 32.5033 23.2167 32.5033 23.2167 27.86L23.2167 27.86C23.2167 27.86 23.2167 23.2167 27.86 23.2167" stroke="#66737C" stroke-width="3.57143" stroke-linecap="round" stroke-linejoin="round" fill="none"/><g><path d="M1.74125 10.4475 1.74125 5.22375C1.74125 3.30042 3.30042 1.74125 5.22375 1.74125L10.4475 1.74125" stroke="#66737C" stroke-width="3.57143" stroke-linecap="round" stroke-linejoin="round" fill="none"/><path d="M53.9787 10.4475 53.9787 5.22375C53.9787 3.30042 52.4196 1.74125 50.4963 1.74125L45.2725 1.74125" stroke="#66737C" stroke-width="3.57143" stroke-linecap="round" stroke-linejoin="round" fill="none"/><path d="M1.74125 45.2725 1.74125 50.4963C1.74125 52.4196 3.30042 53.9787 5.22375 53.9787L10.4475 53.9787" stroke="#66737C" stroke-width="3.57143" stroke-linecap="round" stroke-linejoin="round" fill="none"/><path d="M53.9787 45.2725 53.9787 50.4963C53.9787 52.4196 52.4196 53.9787 50.4963 53.9787L45.2725 53.9787" stroke="#66737C" stroke-width="3.57143" stroke-linecap="round" stroke-linejoin="round" fill="none"/></g></g></svg>