<svg width="60" height="60" viewBox="-1.875 -1.875 60 60" xmlns="http://www.w3.org/2000/svg" xmlns:xlink="http://www.w3.org/1999/xlink" id="Issue-Reopened--Streamline-Ultimate" fill="none" overflow="hidden"><path d="M22.2656 28.125C22.2656 31.361 24.889 33.9844 28.125 33.9844 31.361 33.9844 33.9844 31.361 33.9844 28.125 33.9844 24.889 31.361 22.2656 28.125 22.2656 24.889 22.2656 22.2656 24.889 22.2656 28.125" stroke="#66737C" stroke-width="3.33333" stroke-linecap="round" stroke-linejoin="round"/><path d="M43.8445 14.0594C40.9962 10.8761 37.2485 8.63257 33.0973 7.62567 28.946 6.61875 24.5869 6.8959 20.5967 8.42041 16.6064 9.94493 13.173 12.645 10.7507 16.1634 8.32845 19.6817 7.03141 23.8526 7.03125 28.1243L7.03125 29.8891" stroke="#66737C" stroke-width="3.33333" stroke-linecap="round" stroke-linejoin="round"/><path d="M12.4054 42.1908C15.2536 45.3741 19.0011 47.6175 23.1521 48.6244 27.303 49.6315 31.662 49.3545 35.6522 47.8303 39.6424 46.3059 43.0758 43.6064 45.4983 40.0882 47.9208 36.5702 49.218 32.3998 49.2188 28.1283L49.2188 26.3728" stroke="#66737C" stroke-width="3.33333" stroke-linecap="round" stroke-linejoin="round"/><path d="M43.9453 31.6395 49.2188 26.366 54.4922 31.6395" stroke="#66737C" stroke-width="3.33333" stroke-linecap="round" stroke-linejoin="round"/><path d="M12.3047 24.6082 7.03125 29.8816 1.75781 24.6082" stroke="#66737C" stroke-width="3.33333" stroke-linecap="round" stroke-linejoin="round"/></svg>