<svg width="60" height="60" viewBox="-2.14 -2.14 60 60" xmlns="http://www.w3.org/2000/svg" xmlns:xlink="http://www.w3.org/1999/xlink" id="Labor-Megaphone--Streamline-Ultimate.svg" fill="none" overflow="hidden"><path d="M19.7496 27.8974 14.8832 27.8974C12.7321 27.8974 10.6691 27.0428 9.14811 25.5218 7.62707 24.0007 6.77256 21.9378 6.77256 19.7867 6.77256 17.6356 7.62707 15.5726 9.14811 14.0516 10.6691 12.5306 12.7321 11.6761 14.8832 11.6761L19.7496 11.6761 19.7496 27.8974Z" stroke="#66737C" stroke-width="3.57143" stroke-linecap="round" stroke-linejoin="round"/><path d="M19.7492 27.8974C29.2681 27.8981 38.574 30.7157 46.4949 35.9951L48.9475 37.63 48.9475 1.94332 46.4949 3.57843C38.574 8.85779 29.2681 11.6753 19.7492 11.6761L19.7492 27.8974Z" stroke="#66737C" stroke-width="3.57143" stroke-linecap="round" stroke-linejoin="round"/><path d="M16.9556 27.8971C16.9325 32.287 17.3985 34.5582 18.8791 38.3386" stroke="#66737C" stroke-width="3.57143" stroke-linecap="round" stroke-linejoin="round"/><path d="M27.1535 38.3386C25.2929 34.643 24.6907 32.4028 24.7032 28.1653" stroke="#66737C" stroke-width="3.57143" stroke-linecap="round" stroke-linejoin="round"/><path d="M16.5315 38.3565 29.1775 38.3565C29.5604 38.3509 29.9404 38.4224 30.2952 38.5664 30.6499 38.7103 30.9722 38.9239 31.2429 39.1946 31.5136 39.4653 31.7272 39.7876 31.8711 40.1423 32.0151 40.4971 32.0864 40.8771 32.081 41.26L30.9599 50.8749C30.9239 51.6329 30.6068 52.3503 30.0702 52.8869 29.5335 53.4234 28.8161 53.7408 28.058 53.7768L21.7429 53.7768C19.9415 53.7742 18.1654 53.3526 16.555 52.5451L13.208 50.8686 9.71715 50.87" stroke="#66737C" stroke-width="3.57143" stroke-linecap="round" stroke-linejoin="round"/><path d="M8.81593 34.0937 12.1461 34.0937 17.1055 31.8537" stroke="#66737C" stroke-width="3.57143" stroke-linecap="round" stroke-linejoin="round"/></svg>