<svg width="60" height="60" viewBox="-1.875 -1.875 60 60" xmlns="http://www.w3.org/2000/svg" xmlns:xlink="http://www.w3.org/1999/xlink" id="Labor-Worker--Streamline-Ultimate" fill="none" overflow="hidden"><path d="M24.6094 26.3672C31.4051 26.3672 36.9141 20.8582 36.9141 14.0625 36.9141 7.26682 31.4051 1.75781 24.6094 1.75781 17.8137 1.75781 12.3047 7.26682 12.3047 14.0625 12.3047 20.8582 17.8137 26.3672 24.6094 26.3672Z" stroke="#66737C" stroke-width="3.33333" stroke-linecap="round" stroke-linejoin="round"/><path d="M1.75781 54.4922C1.75781 48.4315 4.16538 42.6192 8.45088 38.3337 12.7364 34.0481 18.5488 31.6406 24.6094 31.6406 29.0986 31.6406 33.4516 32.9616 37.1487 35.3883" stroke="#66737C" stroke-width="3.33333" stroke-linecap="round" stroke-linejoin="round"/><path d="M15.8203 33.3984 15.8203 35.1562C15.8203 37.4873 16.7463 39.7228 18.3946 41.3712 20.0428 43.0193 22.2784 43.9453 24.6094 43.9453 26.9405 43.9453 29.1759 43.0193 30.8243 41.3712 32.4724 39.7228 33.3984 37.4873 33.3984 35.1562L33.3984 33.3984" stroke="#66737C" stroke-width="3.33333" stroke-linecap="round" stroke-linejoin="round"/><path d="M10.5469 36.469 10.5469 54.4924" stroke="#66737C" stroke-width="3.33333" stroke-linecap="round" stroke-linejoin="round"/><path d="M20.5078 15.2345 20.5078 2.46105" stroke="#66737C" stroke-width="3.33333" stroke-linecap="round" stroke-linejoin="round"/><path d="M28.7109 15.2345 28.7109 2.46105" stroke="#66737C" stroke-width="3.33333" stroke-linecap="round" stroke-linejoin="round"/><path d="M8.78906 15.2344 36.8224 15.2344" stroke="#66737C" stroke-width="3.33333" stroke-linecap="round" stroke-linejoin="round"/><path d="M40.4297 22.8186C40.4325 24.0478 40.7588 25.2546 41.3759 26.3177 41.993 27.3811 42.8791 28.2628 43.9453 28.8748L43.9453 41.3716C42.6049 42.1455 41.5573 43.3402 40.965 44.7701 40.3725 46.2002 40.2687 47.7858 40.6692 49.2809 41.07 50.7759 41.9527 52.0969 43.1805 53.0393 44.4087 53.9815 45.9131 54.4922 47.4609 54.4922 49.0088 54.4922 50.5134 53.9815 51.7413 53.0393 52.9692 52.0969 53.8521 50.7759 54.2527 49.2809 54.6532 47.7858 54.5494 46.2002 53.9569 44.7701 53.3646 43.3402 52.317 42.1455 50.9766 41.3716L50.9766 28.8748C52.0416 28.2558 52.9249 27.3675 53.538 26.299 54.1509 25.2305 54.472 24.0195 54.4688 22.7875 54.4655 21.5557 54.138 20.3463 53.5195 19.281 52.901 18.2158 52.013 17.332 50.9447 16.7186 49.8764 16.1052 48.6656 15.7837 47.4338 15.7864 46.2019 15.7891 44.9923 16.116 43.9268 16.7341 42.8613 17.3523 41.9773 18.2399 41.3634 19.308 40.7494 20.376 40.4276 21.5867 40.4297 22.8186L40.4297 22.8186Z" stroke="#66737C" stroke-width="3.33333" stroke-linecap="round" stroke-linejoin="round"/><path d="M47.4609 54.4589 47.4609 47.4277" stroke="#66737C" stroke-width="3.33333" stroke-linecap="round" stroke-linejoin="round"/><path d="M47.4609 22.8184 47.4609 15.7871" stroke="#66737C" stroke-width="3.33333" stroke-linecap="round" stroke-linejoin="round"/></svg>