<svg width="60" height="60" viewBox="-2.14 -2.14 60 60" xmlns="http://www.w3.org/2000/svg" xmlns:xlink="http://www.w3.org/1999/xlink" id="Layers-Back--Streamline-Ultimate.svg" overflow="hidden"><defs></defs><path d="M5.22375 1.74125 40.0488 1.74125C40.0488 1.74125 43.5312 1.74125 43.5312 5.22375L43.5312 40.0488C43.5312 40.0488 43.5312 43.5312 40.0488 43.5312L5.22375 43.5312C5.22375 43.5312 1.74125 43.5312 1.74125 40.0488L1.74125 5.22375C1.74125 5.22375 1.74125 1.74125 5.22375 1.74125" stroke="#66737C" stroke-width="3.57143" stroke-linecap="round" stroke-linejoin="round" fill="none"/><path d="M50.4963 12.1888C52.4196 12.1888 53.9787 13.7479 53.9787 15.6713L53.9787 50.4963C53.9787 52.4196 52.4196 53.9787 50.4963 53.9787L15.6713 53.9787C13.7479 53.9787 12.1888 52.4196 12.1888 50.4963" stroke="#66737C" stroke-width="3.57143" stroke-linecap="round" stroke-linejoin="round" fill="none"/></svg>