<svg viewBox="0 0 38.1 38.27" xmlns="http://www.w3.org/2000/svg" xmlns:xlink="http://www.w3.org/1999/xlink" id="Layer_1" overflow="hidden"><style>
.MsftOfcResponsive_Stroke_66737c {
 stroke:#66737C; 
}
</style>
<defs></defs><path d="M23.61 25.91 23.61 12.96M18.06 25.97 18.06 15.61C18.06 14.18 16.9 13.02 15.48 13.02 14.06 13.02 12.9 14.18 12.9 15.61L12.9 25.97M12.89 20.79 18.06 20.79M9.56 6.36C6.34 6.36 6.34 9.6 6.34 9.6L6.34 28.67C6.34 31.91 9.56 31.91 9.56 31.91L28.54 31.91C31.76 31.91 31.76 28.67 31.76 28.67L31.76 9.6C31.76 6.36 28.54 6.36 28.54 6.36L9.56 6.36M14.14 1.38 14.14 6.36M1.38 24.07 6.34 24.07M23.96 1.38 23.96 6.36M1.38 14.19 6.34 14.19M14.14 31.91 14.14 36.89M31.76 24.07 36.72 24.07M23.96 31.91 23.96 36.89M31.76 14.19 36.72 14.19" class="MsftOfcResponsive_Stroke_66737c" stroke="#66737C" stroke-width="2.11111" stroke-linecap="round" stroke-linejoin="round" fill="none"/></svg>