<svg width="60" height="60" viewBox="-2.14 -2.14 60 60" xmlns="http://www.w3.org/2000/svg" xmlns:xlink="http://www.w3.org/1999/xlink" id="Legal-Scale-Unequal-1--Streamline-Ultimate.svg" overflow="hidden"><path d="M27.86 10.0528 27.86 53.9787" stroke="#66737C" stroke-width="3.57143" stroke-linecap="round" stroke-linejoin="round" fill="none"/><path d="M1.74125 39.733 10.0528 22.0071 18.3621 39.733" stroke="#66737C" stroke-width="3.57143" stroke-linecap="round" stroke-linejoin="round" fill="none"/><path d="M10.0528 48.0422C14.5315 48.1526 18.2517 44.6113 18.3621 40.1326 18.3653 39.9994 18.3653 39.8662 18.3621 39.733L1.74125 39.733C1.63087 44.2117 5.17211 47.9319 9.65083 48.0423 9.78481 48.0456 9.91884 48.0456 10.0528 48.0422Z" stroke="#66737C" stroke-width="3.57143" stroke-linecap="round" stroke-linejoin="round" fill="none"/><path d="M53.9787 25.4849 45.6672 7.59649 37.3579 25.4849" stroke="#66737C" stroke-width="3.57143" stroke-linecap="round" stroke-linejoin="round" fill="none"/><path d="M45.6672 33.7965C41.1885 33.9069 37.4683 30.3656 37.3579 25.8869 37.3546 25.7529 37.3546 25.6189 37.3579 25.4849L53.9787 25.4849C54.0904 29.9636 50.5502 33.6848 46.0715 33.7965 45.9368 33.7999 45.8019 33.7999 45.6672 33.7965Z" stroke="#66737C" stroke-width="3.57143" stroke-linecap="round" stroke-linejoin="round" fill="none"/><path d="M5.17499 23.9782 48.1792 6.43566" stroke="#66737C" stroke-width="3.57143" stroke-linecap="round" stroke-linejoin="round" fill="none"/><path d="M17.1757 53.9787 26.6736 53.9787 38.5443 53.9787 21.9235 53.9787" stroke="#66737C" stroke-width="3.57143" stroke-linecap="round" stroke-linejoin="round" fill="none"/></svg>