<svg width="60" height="60" viewBox="-2.14 -2.14 60 60" xmlns="http://www.w3.org/2000/svg" xmlns:xlink="http://www.w3.org/1999/xlink" id="Legal-Hammer--Streamline-Ultimate.svg" overflow="hidden"><g><path d="M31.4354 19.9199 53.0965 40.3274C54.2802 41.5144 54.2802 43.4354 53.0965 44.6224L50.9374 46.7816C49.7503 47.9653 47.8293 47.9653 46.6423 46.7816L26.2348 25.1204" stroke="#66737C" stroke-width="3.57143" stroke-linecap="round" stroke-linejoin="round" fill="none"/><path d="M8.93842 19.827C16.1677 15.8126 22.1275 9.85276 26.142 2.62348 27.329 1.4398 29.25 1.4398 30.437 2.62348L38.5861 10.7725C39.7725 11.9675 39.7725 13.8959 38.5861 15.0908 31.2831 18.9962 25.2978 24.9735 21.3826 32.2712 20.1955 33.4549 18.2745 33.4549 17.0875 32.2712L8.93842 24.1221C7.75473 22.9351 7.75473 21.0141 8.93842 19.827Z" stroke="#66737C" stroke-width="3.57143" stroke-linecap="round" stroke-linejoin="round" fill="none"/><path d="M29.6012 48.1746 29.6012 48.1746C29.6012 46.2513 28.0421 44.6921 26.1187 44.6921L8.70625 44.6921C6.78292 44.6921 5.22375 46.2513 5.22375 48.1746L5.22375 48.1746 5.22375 53.9787 29.6012 53.9787Z" stroke="#66737C" stroke-width="3.57143" stroke-linecap="round" stroke-linejoin="round" fill="none"/><path d="M1.74125 53.9787 33.0838 53.9787" stroke="#66737C" stroke-width="3.57143" stroke-linecap="round" stroke-linejoin="round" fill="none"/></g></svg>