<svg width="60" height="60" viewBox="-2.14 -2.14 60 60" xmlns="http://www.w3.org/2000/svg" xmlns:xlink="http://www.w3.org/1999/xlink" id="Light-Bulb-1--Streamline-Ultimate.svg" overflow="hidden"><path d="M27.8925 52.2375 27.8925 54.5592" stroke="#66737C" stroke-width="3.57143" stroke-linecap="round" stroke-linejoin="round" fill="none"/><path d="M22.0883 45.2725 33.6967 45.2725" stroke="#66737C" stroke-width="3.57143" stroke-linecap="round" stroke-linejoin="round" fill="none"/><path d="M24.41 40.6292 24.41 20.895C24.41 18.9717 22.8508 17.4125 20.9275 17.4125 19.0042 17.4125 17.445 18.9717 17.445 20.895 17.445 22.8183 19.0042 24.3775 20.9275 24.3775L34.8575 24.3775C36.7808 24.3775 38.34 22.8183 38.34 20.895 38.34 18.9717 36.7808 17.4125 34.8575 17.4125 32.9342 17.4125 31.375 18.9717 31.375 20.895L31.375 40.6292" stroke="#66737C" stroke-width="3.57143" stroke-linecap="round" stroke-linejoin="round" fill="none"/><path d="M33.6967 46.4333C33.6967 49.6389 31.0981 52.2375 27.8925 52.2375 24.687 52.2375 22.0883 49.6389 22.0883 46.4333L22.0883 40.6292 33.6967 40.6292Z" stroke="#66737C" stroke-width="3.57143" stroke-linecap="round" stroke-linejoin="round" fill="none"/><path d="M33.6967 40.6292C42.2994 38.0008 48.0309 29.8812 47.6267 20.895 47.6267 9.99612 38.7914 1.16083 27.8925 1.16083 16.9936 1.16083 8.15834 9.99612 8.15834 20.895 7.75412 29.8812 13.4856 38.0008 22.0883 40.6292" stroke="#66737C" stroke-width="3.57143" stroke-linecap="round" stroke-linejoin="round" fill="none"/></svg>