<svg width="60" height="60" viewBox="-2.14 -2.14 60 60" xmlns="http://www.w3.org/2000/svg" xmlns:xlink="http://www.w3.org/1999/xlink" id="Like-Circle--Streamline-Ultimate.svg" fill="none" overflow="hidden"><path d="M27.86 53.9787C42.285 53.9787 53.9787 42.285 53.9787 27.86 53.9787 13.435 42.285 1.74125 27.86 1.74125 13.435 1.74125 1.74125 13.435 1.74125 27.86 1.74125 42.285 13.435 53.9787 27.86 53.9787Z" stroke="#66737C" stroke-width="3.57143" stroke-linecap="round" stroke-linejoin="round"/><path d="M17.655 34.9207C23.9668 38.1624 28.6255 39.3975 35.6708 39.3975 38.9404 39.3975 40.6027 37.2697 41.5685 34.1536L41.5685 34.1334 43.9454 26.2007 43.9454 26.1856C44.4232 24.6134 43.2044 22.9754 41.5611 22.9815L35.6708 22.9815C34.0723 22.9771 32.8474 21.4216 33.2611 19.8678 33.2611 19.8678 33.8095 17.9928 34.2446 15.7438 34.6797 13.4947 32.0527 11.1573 30.9072 12.7691L24.237 23.3286C23.7725 23.9759 22.9965 24.3754 22.1998 24.3773L17.655 24.3773" stroke="#66737C" stroke-width="3.57143" stroke-linecap="round" stroke-linejoin="round"/><path d="M13.9789 21.8623 17.6548 21.8623 17.6548 39.4681 13.9789 39.4681" stroke="#66737C" stroke-width="3.57143" stroke-linecap="round" stroke-linejoin="round"/></svg>