<svg width="60" height="60" viewBox="-1.875 -1.875 60 60" xmlns="http://www.w3.org/2000/svg" xmlns:xlink="http://www.w3.org/1999/xlink" id="Link-Broken-1--Streamline-Ultimate" overflow="hidden"><path d="M38.6719 36.9117 43.0664 36.9117C48.1524 37.127 52.464 33.2084 52.7344 28.125L52.7344 28.125C52.4665 23.0401 48.1537 19.1194 43.0664 19.3359L38.6719 19.3359" stroke="#66737C" stroke-width="3.33333" stroke-linecap="round" stroke-linejoin="round" fill="none"/><path d="M17.5781 36.9117 13.1836 36.9117C8.0976 37.127 3.78596 33.2084 3.51562 28.125L3.51562 28.125C3.78472 23.0407 8.09674 19.1207 13.1836 19.3359L17.5781 19.3359" stroke="#66737C" stroke-width="3.33333" stroke-linecap="round" stroke-linejoin="round" fill="none"/><path d="M28.125 12.3023 28.125 1.75547" stroke="#66737C" stroke-width="3.33333" stroke-linecap="round" stroke-linejoin="round" fill="none"/><path d="M21.0938 12.3023 17.5781 8.78672" stroke="#66737C" stroke-width="3.33333" stroke-linecap="round" stroke-linejoin="round" fill="none"/><path d="M35.1562 12.3023 38.6719 8.78672" stroke="#66737C" stroke-width="3.33333" stroke-linecap="round" stroke-linejoin="round" fill="none"/><path d="M28.125 43.943 28.125 54.4898" stroke="#66737C" stroke-width="3.33333" stroke-linecap="round" stroke-linejoin="round" fill="none"/><path d="M21.0938 43.943 17.5781 47.4586" stroke="#66737C" stroke-width="3.33333" stroke-linecap="round" stroke-linejoin="round" fill="none"/><path d="M35.1562 43.943 38.6719 47.4586" stroke="#66737C" stroke-width="3.33333" stroke-linecap="round" stroke-linejoin="round" fill="none"/></svg>