<svg width="60" height="60" viewBox="-1.875 -1.875 60 60" xmlns="http://www.w3.org/2000/svg" xmlns:xlink="http://www.w3.org/1999/xlink" id="Location-Target--Streamline-Ultimate" overflow="hidden"><path d="M21.0938 28.125C21.0938 32.0083 24.2417 35.1562 28.125 35.1562 32.0083 35.1562 35.1562 32.0083 35.1562 28.125 35.1562 24.2417 32.0083 21.0938 28.125 21.0938 24.2417 21.0938 21.0938 24.2417 21.0938 28.125Z" stroke="#66737C" stroke-width="3.57143" stroke-linecap="round" stroke-linejoin="round" fill="none"/><path d="M10.5469 28.125C10.5469 37.8331 18.4169 45.7031 28.125 45.7031 37.8331 45.7031 45.7031 37.8331 45.7031 28.125 45.7031 18.4169 37.8331 10.5469 28.125 10.5469 18.4169 10.5469 10.5469 18.4169 10.5469 28.125Z" stroke="#66737C" stroke-width="3.57143" stroke-linecap="round" stroke-linejoin="round" fill="none"/><path d="M28.125 1.75781 28.125 10.5469" stroke="#66737C" stroke-width="3.57143" stroke-linecap="round" stroke-linejoin="round" fill="none"/><path d="M1.75781 28.125 10.5469 28.125" stroke="#66737C" stroke-width="3.57143" stroke-linecap="round" stroke-linejoin="round" fill="none"/><path d="M28.125 54.4922 28.125 45.7031" stroke="#66737C" stroke-width="3.57143" stroke-linecap="round" stroke-linejoin="round" fill="none"/><path d="M54.4922 28.125 45.7031 28.125" stroke="#66737C" stroke-width="3.57143" stroke-linecap="round" stroke-linejoin="round" fill="none"/></svg>