<svg width="60" height="60" viewBox="-1.875 -1.875 60 60" xmlns="http://www.w3.org/2000/svg" xmlns:xlink="http://www.w3.org/1999/xlink" id="Lock-Network--Streamline-Ultimate" fill="none" overflow="hidden"><path d="M49.2188 12.3047C52.1311 12.3047 54.4922 9.94369 54.4922 7.03125 54.4922 4.11881 52.1311 1.75781 49.2188 1.75781 46.3064 1.75781 43.9453 4.11881 43.9453 7.03125 43.9453 9.94369 46.3064 12.3047 49.2188 12.3047Z" stroke="#66737C" stroke-width="3.33333" stroke-linecap="round" stroke-linejoin="round"/><path d="M49.2188 33.3984C52.1311 33.3984 54.4922 31.0373 54.4922 28.125 54.4922 25.2127 52.1311 22.8516 49.2188 22.8516 46.3064 22.8516 43.9453 25.2127 43.9453 28.125 43.9453 31.0373 46.3064 33.3984 49.2188 33.3984Z" stroke="#66737C" stroke-width="3.33333" stroke-linecap="round" stroke-linejoin="round"/><path d="M33.3984 28.125 43.9453 28.125" stroke="#66737C" stroke-width="3.33333" stroke-linecap="round" stroke-linejoin="round"/><path d="M33.3984 17.578 44.8406 9.9678" stroke="#66737C" stroke-width="3.33333" stroke-linecap="round" stroke-linejoin="round"/><path d="M49.2188 54.4922C52.1311 54.4922 54.4922 52.1311 54.4922 49.2188 54.4922 46.3064 52.1311 43.9453 49.2188 43.9453 46.3064 43.9453 43.9453 46.3064 43.9453 49.2188 43.9453 52.1311 46.3064 54.4922 49.2188 54.4922Z" stroke="#66737C" stroke-width="3.33333" stroke-linecap="round" stroke-linejoin="round"/><path d="M33.3984 38.6719 44.8406 46.2797" stroke="#66737C" stroke-width="3.33333" stroke-linecap="round" stroke-linejoin="round"/><path d="M22.8516 22.8516 5.27344 22.8516C3.3318 22.8516 1.75781 24.4256 1.75781 26.3672L1.75781 36.9141C1.75781 38.8556 3.3318 40.4297 5.27344 40.4297L22.8516 40.4297C24.7931 40.4297 26.3672 38.8556 26.3672 36.9141L26.3672 26.3672C26.3672 24.4256 24.7931 22.8516 22.8516 22.8516Z" stroke="#66737C" stroke-width="3.33333" stroke-linecap="round" stroke-linejoin="round"/><path d="M14.0625 32.5195C13.5771 32.5195 13.1836 32.126 13.1836 31.6406 13.1836 31.1552 13.5771 30.7617 14.0625 30.7617" stroke="#66737C" stroke-width="3.33333"/><path d="M14.0625 32.5195C14.5479 32.5195 14.9414 32.126 14.9414 31.6406 14.9414 31.1552 14.5479 30.7617 14.0625 30.7617" stroke="#66737C" stroke-width="3.33333"/><path d="M5.27344 22.8516 5.27344 17.5781C5.27344 15.2471 6.19943 13.0116 7.8477 11.3633 9.49596 9.71505 11.7315 8.78906 14.0625 8.78906 16.3935 8.78906 18.629 9.71505 20.2773 11.3633 21.9256 13.0116 22.8516 15.2471 22.8516 17.5781L22.8516 22.8516" stroke="#66737C" stroke-width="3.33333" stroke-linecap="round" stroke-linejoin="round"/></svg>