<svg width="60" height="60" viewBox="-1.875 -1.875 60 60" xmlns="http://www.w3.org/2000/svg" xmlns:xlink="http://www.w3.org/1999/xlink" id="Love-Compatibility-2--Streamline-Ultimate" fill="none" overflow="hidden"><path d="M5.6775 27.7959 28.1705 51.2461 50.6634 27.7959C51.6206 26.8388 52.5778 25.6423 53.0564 24.4458 54.0136 22.5315 54.4922 20.3779 54.4922 18.2243 54.4922 16.0707 54.0136 14.1564 53.0564 12.2421 48.9886 4.34566 38.2207 2.43136 31.7599 8.89212L28.1705 12.4814 24.5812 8.89212C21.949 6.25995 18.599 5.06351 15.249 5.06351 10.4632 5.06351 5.67745 7.69568 3.28458 12.4814 1.131 16.5493 1.37031 21.0958 3.28463 24.6851 4.00247 25.6423 4.72034 26.8388 5.6775 27.7959Z" stroke="#66737C" stroke-width="3.33333" stroke-linecap="round" stroke-linejoin="round" stroke-miterlimit="10"/><path d="M28.1707 24.06 28.1707 31.804C28.8886 31.0861 29.8458 30.6075 31.0423 30.6075 33.435 30.6075 35.3494 32.5216 35.3494 34.9146 35.3494 37.3076 33.435 39.2217 31.0423 39.2217 30.0851 39.2217 28.8886 38.7431 28.1707 38.0252L28.1707 51.2461" stroke="#66737C" stroke-width="3.33333" stroke-linecap="round" stroke-linejoin="round" stroke-miterlimit="10"/><path d="M53.2104 24.0466 20.8314 24.0466C21.3001 23.3436 21.5345 22.6404 21.5345 21.9373 21.5345 19.8279 19.6595 18.1873 17.3157 18.1873 14.972 18.1873 13.097 19.8279 13.097 21.9373 13.097 22.6404 13.3314 23.5779 13.8001 24.0466L2.9663 24.0466" stroke="#66737C" stroke-width="3.33333" stroke-linecap="round" stroke-linejoin="round" stroke-miterlimit="10"/></svg>