<svg width="60" height="60" viewBox="-1.875 -1.875 60 60" xmlns="http://www.w3.org/2000/svg" xmlns:xlink="http://www.w3.org/1999/xlink" id="Maps--Streamline-Ultimate" overflow="hidden"><path d="M38.2195 6.65156C37.3815 6.3164 36.4466 6.3164 35.6086 6.65156L20.6414 12.6398C19.8034 12.975 18.8685 12.975 18.0305 12.6398L4.16953 7.09453C3.2684 6.73338 2.24511 7.17112 1.88395 8.07225 1.79949 8.283 1.75665 8.50812 1.75781 8.73516L1.75781 42.4219C1.75757 43.8597 2.63293 45.1528 3.96797 45.6867L18.0305 51.3117C18.8685 51.6469 19.8034 51.6469 20.6414 51.3117L35.6086 45.3234C36.4466 44.9883 37.3815 44.9883 38.2195 45.3234L52.0805 50.8594C52.9816 51.2205 54.0049 50.7828 54.366 49.8817 54.4505 49.6709 54.4933 49.4458 54.4922 49.2188L54.4922 15.5414C54.4924 14.1036 53.6171 12.8105 52.282 12.2766Z" stroke="#66737C" stroke-width="3.57143" stroke-linecap="round" stroke-linejoin="round" fill="none"/><path d="M19.3359 12.8906 19.3359 51.5625" stroke="#66737C" stroke-width="3.57143" stroke-linecap="round" stroke-linejoin="round" fill="none"/><path d="M36.9141 6.40078 36.9141 45.0727" stroke="#66737C" stroke-width="3.57143" stroke-linecap="round" stroke-linejoin="round" fill="none"/></svg>