<svg width="60" height="60" viewBox="-1.875 -1.875 60 60" xmlns="http://www.w3.org/2000/svg" xmlns:xlink="http://www.w3.org/1999/xlink" id="Maps-Search--Streamline-Ultimate" overflow="hidden"><path d="M54.4922 26.3672 54.4922 10.8984C54.4924 9.46059 53.6171 8.16751 52.282 7.63359L38.2195 2.00859C37.3815 1.67344 36.4466 1.67344 35.6086 2.00859L20.6414 7.99687C19.8034 8.33203 18.8685 8.33203 18.0305 7.99687L4.16953 2.45156C3.2684 2.09041 2.24511 2.52815 1.88395 3.42928 1.79949 3.64003 1.75665 3.86515 1.75781 4.09219L1.75781 37.7789C1.75757 39.2168 2.63293 40.5098 3.96797 41.0438L18.0305 46.6688C18.8685 47.0039 19.8034 47.0039 20.6414 46.6688" stroke="#66737C" stroke-width="3.57143" stroke-linecap="round" stroke-linejoin="round" fill="none"/><path d="M19.3359 8.24766 19.3359 26.3672" stroke="#66737C" stroke-width="3.57143" stroke-linecap="round" stroke-linejoin="round" fill="none"/><path d="M36.9141 1.75781 36.9141 17.5781" stroke="#66737C" stroke-width="3.57143" stroke-linecap="round" stroke-linejoin="round" fill="none"/><path d="M26.3672 38.6719C26.3672 45.4676 31.8762 50.9766 38.6719 50.9766 45.4676 50.9766 50.9766 45.4676 50.9766 38.6719 50.9766 31.8762 45.4676 26.3672 38.6719 26.3672 31.8762 26.3672 26.3672 31.8762 26.3672 38.6719Z" stroke="#66737C" stroke-width="3.57143" stroke-linecap="round" stroke-linejoin="round" fill="none"/><path d="M54.4922 54.4922 47.4281 47.4281" stroke="#66737C" stroke-width="3.57143" stroke-linecap="round" stroke-linejoin="round" fill="none"/></svg>