<svg width="60" height="60" viewBox="-1.875 -1.875 60 60" xmlns="http://www.w3.org/2000/svg" xmlns:xlink="http://www.w3.org/1999/xlink" id="Medicine-Pack-Delivery-Drone-2--Streamline-Ultimate" fill="none" overflow="hidden"><path d="M53.967 33.9042 32.3639 33.9042 32.3639 54.0368 53.967 54.0368 53.967 33.9042Z" stroke="#66737C" stroke-width="3.33333" stroke-linecap="round" stroke-linejoin="round"/><path d="M43.1641 40.2919 43.1641 47.6505" stroke="#66737C" stroke-width="3.33333" stroke-linecap="round" stroke-linejoin="round"/><path d="M46.8452 43.9711 39.4866 43.9711" stroke="#66737C" stroke-width="3.33333" stroke-linecap="round" stroke-linejoin="round"/><path d="M2.2831 2.21329 13.7302 2.21329" stroke="#66737C" stroke-width="3.33333" stroke-linecap="round" stroke-linejoin="round"/><path d="M28.0395 2.21329 39.4866 2.21329" stroke="#66737C" stroke-width="3.33333" stroke-linecap="round" stroke-linejoin="round"/><path d="M8.00714 2.21329 8.00714 10.7986" stroke="#66737C" stroke-width="3.33333" stroke-linecap="round" stroke-linejoin="round"/><path d="M33.7631 2.21329 33.7631 10.7986" stroke="#66737C" stroke-width="3.33333" stroke-linecap="round" stroke-linejoin="round"/><path d="M39.4863 10.7986 2.2831 10.7986 2.2831 13.6604C2.2831 15.1784 2.88612 16.6342 3.95948 17.7076 5.03285 18.781 6.48867 19.384 8.00665 19.384L10.8684 19.384C10.8684 21.661 11.773 23.8446 13.383 25.4548 14.9931 27.0647 17.1768 27.9694 19.4538 27.9694L22.3155 27.9694C24.5925 27.9694 26.7762 27.0647 28.3863 25.4548 29.9963 23.8446 30.9009 21.661 30.9009 19.384L33.7627 19.384C35.2807 19.384 36.7364 18.781 37.8098 17.7076 38.8833 16.6342 39.4863 15.1784 39.4863 13.6604L39.4863 10.7986Z" stroke="#66737C" stroke-width="3.33333" stroke-linecap="round" stroke-linejoin="round"/><path d="M10.8685 19.3837 30.9009 19.3837" stroke="#66737C" stroke-width="3.33333" stroke-linecap="round" stroke-linejoin="round"/><path d="M12.2998 24.1062C10.948 25.3104 9.86648 26.7874 9.12659 28.4398 8.38671 30.0921 8.0052 31.8825 8.00716 33.693L8.00716 36.5548 10.8689 36.5548" stroke="#66737C" stroke-width="3.33333" stroke-linecap="round" stroke-linejoin="round"/><path d="M29.4701 24.1062C30.8217 25.3104 31.9034 26.7874 32.6433 28.4398" stroke="#66737C" stroke-width="3.33333" stroke-linecap="round" stroke-linejoin="round"/></svg>