<svg width="60" height="60" viewBox="-1.875 -1.875 60 60" xmlns="http://www.w3.org/2000/svg" xmlns:xlink="http://www.w3.org/1999/xlink" id="Monitor-User--Streamline-Ultimate" overflow="hidden"><path d="M19.3359 52.7414 36.9141 52.7414" stroke="#66737C" stroke-width="3.33333" stroke-linecap="round" stroke-linejoin="round" fill="none"/><path d="M28.125 45.7102 28.125 52.7414" stroke="#66737C" stroke-width="3.33333" stroke-linecap="round" stroke-linejoin="round" fill="none"/><path d="M1.75781 36.9211 54.4922 36.9211" stroke="#66737C" stroke-width="3.33333" stroke-linecap="round" stroke-linejoin="round" fill="none"/><path d="M45.7031 3.51562 50.9766 3.51562C52.9182 3.51562 54.4922 5.08962 54.4922 7.03125L54.4922 42.1875C54.4922 44.1291 52.9182 45.7031 50.9766 45.7031L5.27344 45.7031C3.33181 45.7031 1.75781 44.1291 1.75781 42.1875L1.75781 7.03125C1.75781 5.08962 3.33181 3.51562 5.27344 3.51562L12.3047 3.51562" stroke="#66737C" stroke-width="3.33333" stroke-linecap="round" stroke-linejoin="round" fill="none"/><path d="M21.9727 9.675C21.9727 13.0728 24.7272 15.8273 28.125 15.8273 31.5228 15.8273 34.2773 13.0728 34.2773 9.675 34.2773 6.27715 31.5228 3.52266 28.125 3.52266 24.7272 3.52266 21.9727 6.27715 21.9727 9.675Z" stroke="#66737C" stroke-width="3.33333" stroke-linecap="round" stroke-linejoin="round" fill="none"/><path d="M17.5781 28.125C17.5781 22.3001 22.3001 17.5781 28.125 17.5781 33.9499 17.5781 38.6719 22.3001 38.6719 28.125Z" stroke="#66737C" stroke-width="3.33333" stroke-linecap="round" stroke-linejoin="round" fill="none"/></svg>