<svg width="60" height="60" viewBox="-1.875 -1.875 60 60" xmlns="http://www.w3.org/2000/svg" xmlns:xlink="http://www.w3.org/1999/xlink" id="Monitor-Play--Streamline-Ultimate" overflow="hidden"><defs></defs><path d="M35.1562 54.4992 21.0938 54.4992 22.8516 43.9523 33.3984 43.9523 35.1562 54.4992Z" stroke="#66737C" stroke-width="3.33333" stroke-linecap="round" stroke-linejoin="round" fill="none"/><path d="M15.8203 54.4992 40.4297 54.4992" stroke="#66737C" stroke-width="3.33333" stroke-linecap="round" stroke-linejoin="round" fill="none"/><path d="M8.78906 1.76484 47.4609 1.76484C47.4609 1.76484 54.4922 1.76484 54.4922 8.79609L54.4922 36.9211C54.4922 36.9211 54.4922 43.9523 47.4609 43.9523L8.78906 43.9523C8.78906 43.9523 1.75781 43.9523 1.75781 36.9211L1.75781 8.79609C1.75781 8.79609 1.75781 1.76484 8.78906 1.76484" stroke="#66737C" stroke-width="3.33333" stroke-linecap="round" stroke-linejoin="round" fill="none"/><path d="M19.3359 30.3023 19.3359 15.4172C19.336 14.4464 20.123 13.6594 21.0939 13.6595 21.4125 13.6595 21.7252 13.7461 21.9984 13.9102L34.4016 21.3516C35.2345 21.8502 35.5055 22.9297 35.0069 23.7627 34.8581 24.0112 34.6501 24.2192 34.4016 24.368L21.9984 31.8094C21.1661 32.309 20.0863 32.0393 19.5866 31.2069 19.4226 30.9337 19.336 30.621 19.3359 30.3023Z" stroke="#66737C" stroke-width="3.33333" stroke-linecap="round" stroke-linejoin="round" fill="none"/></svg>