<svg width="60" height="60" viewBox="-2.14 -2.14 60 60" xmlns="http://www.w3.org/2000/svg" xmlns:xlink="http://www.w3.org/1999/xlink" id="Movies-Immersive--Streamline-Ultimate.svg" fill="none" overflow="hidden"><path d="M13.9559 36.8746C8.51947 37.8369 4.62639 39.2294 2.36914 40.358L2.36914 3.28042C6.2314 5.21156 14.8828 7.91514 27.86 7.91514 40.8372 7.91514 49.4886 5.21156 53.351 3.28042L53.351 40.358C51.0936 39.2294 47.2004 37.8369 41.764 36.8746" stroke="#66737C" stroke-width="3.57143" stroke-linecap="round" stroke-linejoin="round"/><path d="M21.2084 28.4706C21.2084 32.1442 24.1864 35.1222 27.86 35.1222 31.5336 35.1222 34.5116 32.1442 34.5116 28.4706 34.5116 24.797 31.5336 21.819 27.86 21.819 24.1864 21.819 21.2084 24.797 21.2084 28.4706" stroke="#66737C" stroke-width="3.57143" stroke-linecap="round" stroke-linejoin="round"/><path d="M14.0696 52.4395C15.1839 45.8304 20.934 40.7959 27.86 40.7959 34.786 40.7959 40.5363 45.8304 41.6505 52.4395" stroke="#66737C" stroke-width="3.57143" stroke-linecap="round" stroke-linejoin="round"/></svg>