<svg width="60" height="60" viewBox="-1.875 -1.875 60 60" xmlns="http://www.w3.org/2000/svg" xmlns:xlink="http://www.w3.org/1999/xlink" id="Multiple-Actions-Share-2--Streamline-Ultimate" overflow="hidden"><path d="M26.3672 42.1875C26.3672 45.0999 28.7282 47.4609 31.6406 47.4609 34.5531 47.4609 36.9141 45.0999 36.9141 42.1875 36.9141 39.2751 34.5531 36.9141 31.6406 36.9141 28.7282 36.9141 26.3672 39.2751 26.3672 42.1875Z" stroke="#66737C" stroke-width="3.33333" stroke-linecap="round" stroke-linejoin="round" fill="none"/><path d="M43.9453 49.2188C43.9453 52.1312 46.3063 54.4922 49.2188 54.4922 52.1312 54.4922 54.4922 52.1312 54.4922 49.2188 54.4922 46.3063 52.1312 43.9453 49.2188 43.9453 46.3063 43.9453 43.9453 46.3063 43.9453 49.2188Z" stroke="#66737C" stroke-width="3.33333" stroke-linecap="round" stroke-linejoin="round" fill="none"/><path d="M43.9453 31.6406C43.9453 34.5531 46.3063 36.9141 49.2188 36.9141 52.1312 36.9141 54.4922 34.5531 54.4922 31.6406 54.4922 28.7282 52.1312 26.3672 49.2188 26.3672 46.3063 26.3672 43.9453 28.7282 43.9453 31.6406Z" stroke="#66737C" stroke-width="3.33333" stroke-linecap="round" stroke-linejoin="round" fill="none"/><path d="M36.1523 39.4805 44.707 34.3477" stroke="#66737C" stroke-width="3.33333" stroke-linecap="round" stroke-linejoin="round" fill="none"/><path d="M36.5344 44.1445 44.3273 47.2617" stroke="#66737C" stroke-width="3.33333" stroke-linecap="round" stroke-linejoin="round" fill="none"/><path d="M7.03125 8.78906C7.03125 12.6723 10.1792 15.8203 14.0625 15.8203 17.9458 15.8203 21.0938 12.6723 21.0938 8.78906 21.0938 4.90581 17.9458 1.75781 14.0625 1.75781 10.1792 1.75781 7.03125 4.90581 7.03125 8.78906Z" stroke="#66737C" stroke-width="3.33333" stroke-linecap="round" stroke-linejoin="round" fill="none"/><path d="M26.25 29.8805C25.296 23.1508 19.0671 18.4687 12.3374 19.4227 6.25614 20.2848 1.74147 25.4986 1.75781 31.6406L1.75781 36.9141 7.03125 36.9141 8.78906 54.4922 19.3359 54.4922 19.8047 49.7695" stroke="#66737C" stroke-width="3.33333" stroke-linecap="round" stroke-linejoin="round" fill="none"/><path d="M32.5195 7.91016C32.5195 11.308 35.274 14.0625 38.6719 14.0625 42.0697 14.0625 44.8242 11.308 44.8242 7.91016 44.8242 4.51231 42.0697 1.75781 38.6719 1.75781 35.274 1.75781 32.5195 4.51231 32.5195 7.91016Z" stroke="#66737C" stroke-width="3.33333" stroke-linecap="round" stroke-linejoin="round" fill="none"/><path d="M47.8125 21.0938C44.8987 16.0501 38.4478 14.3235 33.4041 17.2373 32.4012 17.8168 31.5005 18.5575 30.7383 19.4297" stroke="#66737C" stroke-width="3.33333" stroke-linecap="round" stroke-linejoin="round" fill="none"/></svg>