<svg width="60" height="60" viewBox="-2.14 -2.14 60 60" xmlns="http://www.w3.org/2000/svg" xmlns:xlink="http://www.w3.org/1999/xlink" id="Multiple-Users-1--Streamline-Ultimate.svg" overflow="hidden"><path d="M5.22375 13.93C5.22375 16.815 7.5625 19.1537 10.4475 19.1537 13.3325 19.1537 15.6713 16.815 15.6713 13.93 15.6713 11.045 13.3325 8.70625 10.4475 8.70625 7.5625 8.70625 5.22375 11.045 5.22375 13.93Z" stroke="#66737C" stroke-width="3.57143" stroke-linecap="round" stroke-linejoin="round" fill="none"/><path d="M10.4475 22.6362C5.63917 22.6362 1.74125 26.5342 1.74125 31.3425L1.74125 36.5662 5.22375 36.5662 6.965 50.4963 13.93 50.4963" stroke="#66737C" stroke-width="3.57143" stroke-linecap="round" stroke-linejoin="round" fill="none"/><path d="M40.0488 13.93C40.0488 16.815 42.3875 19.1537 45.2725 19.1537 48.1575 19.1537 50.4963 16.815 50.4963 13.93 50.4963 11.045 48.1575 8.70625 45.2725 8.70625 42.3875 8.70625 40.0488 11.045 40.0488 13.93Z" stroke="#66737C" stroke-width="3.57143" stroke-linecap="round" stroke-linejoin="round" fill="none"/><path d="M45.2725 22.6362C50.0808 22.6362 53.9787 26.5342 53.9787 31.3425L53.9787 36.5662 50.4963 36.5662 48.755 50.4963 41.79 50.4963" stroke="#66737C" stroke-width="3.57143" stroke-linecap="round" stroke-linejoin="round" fill="none"/><path d="M20.895 8.70625C20.895 12.5529 24.0133 15.6713 27.86 15.6713 31.7067 15.6713 34.825 12.5529 34.825 8.70625 34.825 4.85959 31.7067 1.74125 27.86 1.74125 24.0133 1.74125 20.895 4.85959 20.895 8.70625Z" stroke="#66737C" stroke-width="3.57143" stroke-linecap="round" stroke-linejoin="round" fill="none"/><path d="M40.0488 31.3425C40.0488 24.6108 34.5917 19.1538 27.86 19.1538 21.1283 19.1538 15.6713 24.6108 15.6713 31.3425L15.6713 36.5662 20.895 36.5662 22.6362 53.9787 33.0838 53.9787 34.825 36.5662 40.0488 36.5662Z" stroke="#66737C" stroke-width="3.57143" stroke-linecap="round" stroke-linejoin="round" fill="none"/></svg>