<svg width="60" height="60" viewBox="-1.875 -1.875 60 60" xmlns="http://www.w3.org/2000/svg" xmlns:xlink="http://www.w3.org/1999/xlink" id="Multiple-Actions-Check-2--Streamline-Ultimate" overflow="hidden"><path d="M54.4922 40.4297C54.4922 48.1962 48.1962 54.4922 40.4297 54.4922 32.6632 54.4922 26.3672 48.1962 26.3672 40.4297 26.3672 32.6632 32.6632 26.3672 40.4297 26.3672" stroke="#66737C" stroke-width="3.33333" stroke-linecap="round" stroke-linejoin="round" fill="none"/><path d="M54.4922 29.8805 41.6719 42.7008C40.9868 43.3868 39.8753 43.3876 39.1893 42.7025 39.1887 42.702 39.1881 42.7014 39.1875 42.7008L35.1562 38.6719" stroke="#66737C" stroke-width="3.33333" stroke-linecap="round" stroke-linejoin="round" fill="none"/><path d="M25.2703 24.6398C22.6616 22.3391 19.2986 21.0771 15.8203 21.0938 8.6915 21.0379 2.64872 26.3253 1.75781 33.3984" stroke="#66737C" stroke-width="3.33333" stroke-linecap="round" stroke-linejoin="round" fill="none"/><path d="M7.91016 9.66797C7.91016 14.0366 11.4517 17.5781 15.8203 17.5781 20.189 17.5781 23.7305 14.0366 23.7305 9.66797 23.7305 5.29931 20.189 1.75781 15.8203 1.75781 11.4517 1.75781 7.91016 5.29931 7.91016 9.66797Z" stroke="#66737C" stroke-width="3.33333" stroke-linecap="round" stroke-linejoin="round" fill="none"/><path d="M32.5195 7.91016C32.5195 11.308 35.274 14.0625 38.6719 14.0625 42.0697 14.0625 44.8242 11.308 44.8242 7.91016 44.8242 4.51231 42.0697 1.75781 38.6719 1.75781 35.274 1.75781 32.5195 4.51231 32.5195 7.91016Z" stroke="#66737C" stroke-width="3.33333" stroke-linecap="round" stroke-linejoin="round" fill="none"/><path d="M47.8125 21.0938C44.8987 16.0501 38.4478 14.3235 33.4041 17.2373 32.4012 17.8168 31.5005 18.5575 30.7383 19.4297" stroke="#66737C" stroke-width="3.33333" stroke-linecap="round" stroke-linejoin="round" fill="none"/></svg>