<svg width="60" height="60" viewBox="-2.14 -2.14 60 60" xmlns="http://www.w3.org/2000/svg" xmlns:xlink="http://www.w3.org/1999/xlink" id="Network-Signal--Streamline-Ultimate.svg" overflow="hidden"><path d="M1.7784 38.2773C1.7784 46.9323 8.79465 53.9486 17.4496 53.9486 26.1046 53.9486 33.1209 46.9323 33.1209 38.2773 33.1209 29.6223 26.1046 22.6061 17.4496 22.6061 8.79465 22.6061 1.7784 29.6223 1.7784 38.2773Z" stroke="#66737C" stroke-width="3.57143" stroke-linecap="round" stroke-linejoin="round" fill="none"/><path d="M2.66992 43.5011 32.2271 43.5011" stroke="#66737C" stroke-width="3.57143" stroke-linecap="round" stroke-linejoin="round" fill="none"/><path d="M2.66992 33.0536 32.2271 33.0536" stroke="#66737C" stroke-width="3.57143" stroke-linecap="round" stroke-linejoin="round" fill="none"/><path d="M14.067 22.9706C11.2579 33.1199 11.6716 43.8914 15.251 53.7953" stroke="#66737C" stroke-width="3.57143" stroke-linecap="round" stroke-linejoin="round" fill="none"/><path d="M20.83 22.9706C22.0565 27.3879 22.6767 31.9516 22.6734 36.5361 22.682 42.4212 21.6605 48.2624 19.6552 53.7953" stroke="#66737C" stroke-width="3.57143" stroke-linecap="round" stroke-linejoin="round" fill="none"/><path d="M28.257 13.8998C35.6638 14.0597 41.6301 20.026 41.79 27.4328" stroke="#66737C" stroke-width="3.57143" stroke-linecap="round" stroke-linejoin="round" fill="none"/><path d="M32.3176 1.74125C44.0338 2.23261 53.4345 11.591 53.9788 23.3049" stroke="#66737C" stroke-width="3.57143" stroke-linecap="round" stroke-linejoin="round" fill="none"/></svg>