<svg width="60" height="60" viewBox="-1.875 -1.875 60 60" xmlns="http://www.w3.org/2000/svg" xmlns:xlink="http://www.w3.org/1999/xlink" id="Official-Building-3--Streamline-Ultimate" overflow="hidden"><defs></defs><path d="M10.5469 19.1273 17.5781 19.1273 17.5781 40.2211 10.5469 40.2211Z" stroke="#66737C" stroke-width="3.57143" stroke-linecap="round" stroke-linejoin="round" fill="none"/><path d="M24.6094 19.1273 31.6406 19.1273 31.6406 40.2211 24.6094 40.2211Z" stroke="#66737C" stroke-width="3.57143" stroke-linecap="round" stroke-linejoin="round" fill="none"/><path d="M38.6719 19.1273 45.7031 19.1273 45.7031 40.2211 38.6719 40.2211Z" stroke="#66737C" stroke-width="3.57143" stroke-linecap="round" stroke-linejoin="round" fill="none"/><path d="M49.2188 47.2523 7.03125 47.2523 7.03125 41.9789C7.03125 41.0081 7.81825 40.2211 8.78906 40.2211L47.4609 40.2211C48.4318 40.2211 49.2188 41.0081 49.2188 41.9789Z" stroke="#66737C" stroke-width="3.57143" stroke-linecap="round" stroke-linejoin="round" fill="none"/><path d="M3.51562 54.2836 52.7344 54.2836" stroke="#66737C" stroke-width="3.57143" stroke-linecap="round" stroke-linejoin="round" fill="none"/><path d="M3.51562 47.2523 52.7344 47.2523" stroke="#66737C" stroke-width="3.57143" stroke-linecap="round" stroke-linejoin="round" fill="none"/><path d="M49.2188 12.0961 49.2188 17.3695C49.2188 18.3403 48.4318 19.1273 47.4609 19.1273L8.78906 19.1273C7.81825 19.1273 7.03125 18.3403 7.03125 17.3695L7.03125 12.0961 27.3398 1.94297C27.8344 1.69691 28.4156 1.69691 28.9102 1.94297Z" stroke="#66737C" stroke-width="3.57143" stroke-linecap="round" stroke-linejoin="round" fill="none"/><path d="M7.03125 12.0961 49.2188 12.0961" stroke="#66737C" stroke-width="3.57143" stroke-linecap="round" stroke-linejoin="round" fill="none"/></svg>