<svg width="44.8" height="44.8" viewBox="-1.6 -1.6 44.8 44.8" xmlns="http://www.w3.org/2000/svg" xmlns:xlink="http://www.w3.org/1999/xlink" id="Office-Worker--Streamline-Core" fill="none" overflow="hidden"><g id="office-worker--office-worker-human-resources"><path d="M11.8857 11.8857C14.7576 11.8857 17.0857 9.5576 17.0857 6.68571 17.0857 3.81383 14.7576 1.48571 11.8857 1.48571 9.01383 1.48571 6.68571 3.81383 6.68571 6.68571 6.68571 9.5576 9.01383 11.8857 11.8857 11.8857Z" id="Vector" stroke="#66737C" stroke-width="2.67857" stroke-linecap="round" stroke-linejoin="round"/><path d="M16.3429 40.1143 7.42857 40.1143 5.94286 27.4857 1.48571 27.4857 1.48571 22.2857C1.48571 16.5419 6.14194 11.8857 11.8857 11.8857 17.1251 11.8857 21.4595 15.76 22.1804 20.8" id="Vector 3812" stroke="#66737C" stroke-width="2.67857" stroke-linecap="round" stroke-linejoin="round"/><path d="M21.7612 29.6268C21.7612 28.1788 22.935 27.0049 24.3831 27.0049L37.4923 27.0049C38.9403 27.0049 40.1143 28.1788 40.1143 29.6268L40.1143 37.4923C40.1143 38.9406 38.9403 40.1143 37.4923 40.1143L24.3831 40.1143C22.935 40.1143 21.7612 38.9406 21.7612 37.4923L21.7612 29.6268Z" id="Vector_2" stroke="#66737C" stroke-width="2.67857" stroke-linecap="round" stroke-linejoin="round"/><path d="M27.35 27.0051 27.35 24.328C27.35 22.6869 28.6804 21.3566 30.3213 21.3566L31.5474 21.3566C33.1885 21.3566 34.5188 22.6869 34.5188 24.328L34.5188 27.0051" id="Vector_3" stroke="#66737C" stroke-width="2.67857" stroke-linecap="round" stroke-linejoin="round"/></g></svg>