<svg width="60" height="60" viewBox="-1.875 -1.875 60 60" xmlns="http://www.w3.org/2000/svg" xmlns:xlink="http://www.w3.org/1999/xlink" id="Online-Healthcare-Advice-Laptop--Streamline-Ultimate" fill="none" overflow="hidden"><path d="M50.9766 23.5547 50.9766 43.9263" stroke="#66737C" stroke-width="3.33333" stroke-linecap="round" stroke-linejoin="round"/><path d="M5.27344 43.9172 5.27344 15.8203C5.27344 13.9453 6.91406 12.3047 8.78906 12.3047L30.3516 12.3047" stroke="#66737C" stroke-width="3.33333" stroke-linecap="round" stroke-linejoin="round"/><path d="M35.2734 43.9453C34.8047 43.9453 34.1016 44.1797 33.8672 44.6484 31.5234 47.6953 27.3047 48.3984 24.0234 46.0547 23.5547 45.5859 23.0859 45.1172 22.6172 44.6484 22.3828 44.1797 21.6797 43.9453 21.211 43.9453L1.75781 43.9453 1.75781 47.4609C1.75781 51.4453 4.80469 54.4922 8.78906 54.4922L47.4609 54.4922C51.4453 54.4922 54.4922 51.4453 54.4922 47.4609L54.4922 43.9453 35.2734 43.9453Z" stroke="#66737C" stroke-width="3.33333" stroke-linecap="round" stroke-linejoin="round"/><path d="M36.9141 26.3674C36.9141 25.4299 36.2109 24.4924 35.0391 24.4924L31.5234 24.4924 31.5234 20.9769C31.5234 20.0394 30.8203 19.1019 29.6484 19.1019L26.1328 19.1019C25.1953 19.1019 24.2578 19.805 24.2578 20.9769L24.2578 24.4924 20.7423 24.4924C19.8048 24.4924 18.8673 25.1955 18.8673 26.3674L18.8673 29.883C18.8673 30.8205 19.5704 31.758 20.7423 31.758L24.2578 31.758 24.2578 35.2737C24.2578 36.2112 24.9609 37.1489 26.1328 37.1489L29.6484 37.1489C30.5859 37.1489 31.5234 36.4455 31.5234 35.2737L31.5234 31.758 35.0391 31.758C35.9766 31.758 36.9141 31.0549 36.9141 29.883L36.9141 26.3674Z" stroke="#66737C" stroke-width="3.33333" stroke-linecap="round" stroke-linejoin="round"/><path d="M39.6094 10.7228C42.4219 7.91027 46.875 7.91027 49.4531 10.7228" stroke="#66737C" stroke-width="3.33333" stroke-linecap="round" stroke-linejoin="round" stroke-miterlimit="10"/><path d="M34.5703 5.80078C39.9609 0.410156 48.8672 0.410156 54.4922 5.80078" stroke="#66737C" stroke-width="3.33333" stroke-linecap="round" stroke-linejoin="round" stroke-miterlimit="10"/><path d="M44.5312 17.7542C44.0135 17.7542 43.5938 17.3345 43.5938 16.8167 43.5938 16.299 44.0135 15.8793 44.5312 15.8793" stroke="#66737C" stroke-width="3.33333" stroke-linecap="round" stroke-linejoin="round" stroke-miterlimit="10"/><path d="M44.531 17.7542C45.0488 17.7542 45.4685 17.3345 45.4685 16.8167 45.4685 16.299 45.0488 15.8793 44.531 15.8793" stroke="#66737C" stroke-width="3.33333" stroke-linecap="round" stroke-linejoin="round" stroke-miterlimit="10"/></svg>