<svg width="60" height="60" viewBox="-1.875 -1.875 60 60" xmlns="http://www.w3.org/2000/svg" xmlns:xlink="http://www.w3.org/1999/xlink" id="Operation-Robot--Streamline-Ultimate" fill="none" overflow="hidden"><path d="M23.2032 10.9574C26.0156 8.14488 30.4688 8.14488 33.0469 10.9574" stroke="#66737C" stroke-width="3.33333" stroke-linecap="round" stroke-linejoin="round" stroke-miterlimit="10"/><path d="M18.1641 5.80078C23.5547 0.410156 32.4609 0.410156 38.0859 5.80078" stroke="#66737C" stroke-width="3.33333" stroke-linecap="round" stroke-linejoin="round" stroke-miterlimit="10"/><path d="M28.125 17.7542C27.6073 17.7542 27.1875 17.3345 27.1875 16.8167 27.1875 16.299 27.6073 15.8793 28.125 15.8793" stroke="#66737C" stroke-width="3.33333" stroke-linecap="round" stroke-linejoin="round" stroke-miterlimit="10"/><path d="M28.1248 17.7542C28.6425 17.7542 29.0623 17.3345 29.0623 16.8167 29.0623 16.299 28.6425 15.8793 28.1248 15.8793" stroke="#66737C" stroke-width="3.33333" stroke-linecap="round" stroke-linejoin="round" stroke-miterlimit="10"/><path d="M12.8907 54.4922C15.7384 54.4922 18.047 52.1836 18.047 49.3359 18.047 46.488 15.7384 44.1797 12.8907 44.1797 10.043 44.1797 7.73449 46.488 7.73449 49.3359 7.73449 52.1836 10.043 54.4922 12.8907 54.4922Z" stroke="#66737C" stroke-width="3.33333" stroke-linecap="round" stroke-linejoin="round"/><path d="M23.4375 43.9451 43.3594 43.9451C45.9375 43.9451 48.0469 46.0545 48.0469 48.6326L48.0469 54.492 23.4375 54.492 23.4375 43.9451Z" stroke="#66737C" stroke-width="3.33333" stroke-linecap="round" stroke-linejoin="round"/><path d="M3.51562 54.492 52.7344 54.492" stroke="#66737C" stroke-width="3.33333" stroke-linecap="round" stroke-linejoin="round"/><path d="M10.1953 8.78911 10.1953 16.7579 13.711 22.3829C14.8828 24.2578 14.4141 26.8359 12.5391 28.0078 10.7538 29.3468 7.68473 28.6118 6.67971 26.6016L1.75781 18.1641 1.75781 8.55473" stroke="#66737C" stroke-width="3.33333" stroke-linecap="round" stroke-linejoin="round"/><path d="M12.5885 27.9591 16.7579 34.3357" stroke="#66737C" stroke-width="3.33333" stroke-linecap="round" stroke-linejoin="round"/><path d="M46.0547 8.78911 46.0547 16.7579 42.5391 22.3829C41.3672 24.2578 41.8359 26.8359 43.7109 28.0078 45.4962 29.3468 48.5653 28.6118 49.5703 26.6016L54.4922 18.1641 54.4922 8.55473" stroke="#66737C" stroke-width="3.33333" stroke-linecap="round" stroke-linejoin="round"/><path d="M43.8171 28.0795 39.7266 34.3357" stroke="#66737C" stroke-width="3.33333" stroke-linecap="round" stroke-linejoin="round"/></svg>