<svg width="60" height="60" viewBox="-2.14 -2.14 60 60" xmlns="http://www.w3.org/2000/svg" xmlns:xlink="http://www.w3.org/1999/xlink" id="Organic-Flask-1--Streamline-Ultimate.svg" fill="none" overflow="hidden"><path d="M23.238 1.27703 23.238 12.4646C23.2378 12.7181 23.1541 12.9645 23 13.1658 22.8459 13.3671 22.6299 13.5121 22.3852 13.5785 17.525 14.9046 13.3113 17.9496 10.5268 22.148 7.74225 26.3463 6.57614 31.4126 7.24511 36.4061 7.91407 41.3993 10.3726 45.9799 14.1641 49.2973 17.9555 52.6148 22.8221 54.4431 27.86 54.4431 32.8978 54.4431 37.7645 52.6148 41.556 49.2973 45.3475 45.9799 47.8059 41.3993 48.475 36.4061 49.1439 31.4126 47.9777 26.3463 45.1933 22.148 42.4087 17.9496 38.1949 14.9046 33.3347 13.5785 33.0903 13.5121 32.8741 13.3671 32.7199 13.1658 32.566 12.9645 32.4822 12.7181 32.482 12.4646L32.482 1.27703" stroke="#66737C" stroke-width="3.57143" stroke-linecap="round" stroke-linejoin="round"/><path d="M18.616 1.27703 37.1039 1.27703" stroke="#66737C" stroke-width="3.57143" stroke-linecap="round" stroke-linejoin="round"/><path d="M39.4149 23.2318C39.4149 23.2318 39.4149 44.0309 27.1252 44.0309 24.8683 44.0309 22.704 43.1342 21.1082 41.5386 19.5125 39.9426 18.616 37.7784 18.616 35.5217 18.616 33.2648 19.5125 31.1006 21.1082 29.5047 22.704 27.909 24.8683 27.0126 27.1252 27.0126 31.446 26.6513 35.6383 25.3617 39.4149 23.2318Z" stroke="#66737C" stroke-width="3.57143" stroke-linecap="round" stroke-linejoin="round"/><path d="M18.616 46.8661C19.3443 43.9283 20.7494 41.2017 22.7192 38.9035 24.6891 36.6055 27.1688 34.7999 29.9606 33.631" stroke="#66737C" stroke-width="3.57143" stroke-linecap="round" stroke-linejoin="round"/><path d="M31.3267 20.343C31.0075 20.343 30.7488 20.0843 30.7488 19.7651 30.7488 19.4459 31.0075 19.1872 31.3267 19.1872" stroke="#66737C" stroke-width="3.57143"/><path d="M31.3265 20.343C31.6455 20.343 31.9043 20.0843 31.9043 19.7651 31.9043 19.4459 31.6455 19.1872 31.3265 19.1872" stroke="#66737C" stroke-width="3.57143"/><path d="M16.3051 26.1208C15.9859 26.1208 15.7272 25.862 15.7272 25.543 15.7272 25.2237 15.9859 24.9651 16.3051 24.9651" stroke="#66737C" stroke-width="3.57143"/><path d="M16.3048 26.1206C16.624 26.1206 16.8827 25.8617 16.8827 25.5425 16.8827 25.2235 16.624 24.9646 16.3048 24.9646" stroke="#66737C" stroke-width="3.57143"/><g><path d="M13.9941 38.8264C13.6749 38.8264 13.4162 38.5678 13.4162 38.2485 13.4162 37.9295 13.6749 37.6707 13.9941 37.6707" stroke="#66737C" stroke-width="3.57143"/><path d="M13.9938 38.8269C14.313 38.8269 14.5717 38.568 14.5717 38.2488 14.5717 37.9298 14.313 37.6709 13.9938 37.6709" stroke="#66737C" stroke-width="3.57143"/></g><g><path d="M35.9487 46.9197C35.6295 46.9197 35.3708 46.6611 35.3708 46.3419 35.3708 46.0226 35.6295 45.764 35.9487 45.764" stroke="#66737C" stroke-width="3.57143"/><path d="M35.9485 46.9195C36.2675 46.9195 36.5263 46.6606 36.5263 46.3416 36.5263 46.0224 36.2675 45.7635 35.9485 45.7635" stroke="#66737C" stroke-width="3.57143"/></g></svg>