<svg width="60" height="60" viewBox="-2.14 -2.14 60 60" xmlns="http://www.w3.org/2000/svg" xmlns:xlink="http://www.w3.org/1999/xlink" id="Organic-Flask-1--Streamline-Ultimate.svg" fill="none" overflow="hidden"><path d="M33.8453 48.1839C33.8453 48.1839 36.6777 53.9764 41.4394 53.5423 51.0929 52.66 50.4475 39.8282 53.9764 35.2963 50.9915 33.8088 47.6963 33.0489 44.3612 33.0793 41.0262 33.1095 37.7454 33.9288 34.7879 35.4704 29.787 38.3075 29.4318 43.0623 33.8453 48.1839Z" stroke="#66737C" stroke-width="3.57143" stroke-linecap="round" stroke-linejoin="round"/><path d="M40.6756 42.2984C40.6756 42.2984 34.4071 43.0762 29.9425 53.9787" stroke="#66737C" stroke-width="3.57143" stroke-linecap="round" stroke-linejoin="round"/><path d="M39.3244 26.1071C38.4285 22.9651 36.7453 20.1038 34.4345 17.7941 32.1235 15.4844 29.2614 13.8028 26.1187 12.9085L26.1187 1.74125 15.6713 1.74125 15.6713 12.9085C11.2248 14.1715 7.3848 16.9995 4.85946 20.871 2.33409 24.7427 1.29363 29.3967 1.92991 33.975 2.56618 38.5534 4.83631 42.7475 8.32169 45.7837 11.807 48.8198 16.2726 50.4937 20.895 50.4963" stroke="#66737C" stroke-width="3.57143" stroke-linecap="round" stroke-linejoin="round"/><path d="M10.4475 1.74125 33.0838 1.74125" stroke="#66737C" stroke-width="3.57143" stroke-linecap="round" stroke-linejoin="round"/><path d="M16.5419 24.3775C16.061 24.3775 15.6713 23.9877 15.6713 23.5069 15.6713 23.026 16.061 22.6362 16.5419 22.6362" stroke="#66737C" stroke-width="3.57143"/><path d="M16.5419 24.3775C17.0227 24.3775 17.4125 23.9877 17.4125 23.5069 17.4125 23.026 17.0227 22.6362 16.5419 22.6362" stroke="#66737C" stroke-width="3.57143"/><path d="M14.8006 36.5662C14.3198 36.5662 13.93 36.1764 13.93 35.6956 13.93 35.2148 14.3198 34.825 14.8006 34.825" stroke="#66737C" stroke-width="3.57143"/><path d="M14.8006 36.5662C15.2815 36.5662 15.6713 36.1764 15.6713 35.6956 15.6713 35.2148 15.2815 34.825 14.8006 34.825" stroke="#66737C" stroke-width="3.57143"/><g><path d="M26.9894 29.6012C26.5086 29.6012 26.1187 29.2114 26.1187 28.7306 26.1187 28.2498 26.5086 27.86 26.9894 27.86" stroke="#66737C" stroke-width="3.57143"/><path d="M26.9894 29.6012C27.4702 29.6012 27.86 29.2114 27.86 28.7306 27.86 28.2498 27.4702 27.86 26.9894 27.86" stroke="#66737C" stroke-width="3.57143"/></g></svg>