<svg width="60" height="60" viewBox="-2.14 -2.14 60 60" xmlns="http://www.w3.org/2000/svg" xmlns:xlink="http://www.w3.org/1999/xlink" id="Performance-Money-Decrease--Streamline-Ultimate.svg" overflow="hidden"><g><path d="M50.4963 26.1187 33.432 9.0545C32.2335 7.84457 30.3326 7.68699 28.9512 8.68303L21.2897 14.139C20.0004 15.019 18.2831 14.9336 17.0875 13.93L1.74125 1.74125" stroke="#66737C" stroke-width="3.57143" stroke-linecap="round" stroke-linejoin="round" fill="none"/><path d="M36.5662 26.1187 50.4963 26.1187 50.4963 12.1888" stroke="#66737C" stroke-width="3.57143" stroke-linecap="round" stroke-linejoin="round" fill="none"/><path d="M3.4825 44.6921 20.895 44.6921C20.895 44.6921 22.6362 44.6921 22.6362 46.4333L22.6362 52.2375C22.6362 52.2375 22.6362 53.9787 20.895 53.9787L3.4825 53.9787C3.4825 53.9787 1.74125 53.9787 1.74125 52.2375L1.74125 46.4333C1.74125 46.4333 1.74125 44.6921 3.4825 44.6921" stroke="#66737C" stroke-width="3.57143" stroke-linecap="round" stroke-linejoin="round" fill="none"/><path d="M31.3425 44.6921 48.755 44.6921C48.755 44.6921 50.4963 44.6921 50.4963 46.4333L50.4963 52.2375C50.4963 52.2375 50.4963 53.9787 48.755 53.9787L31.3425 53.9787C31.3425 53.9787 29.6012 53.9787 29.6012 52.2375L29.6012 46.4333C29.6012 46.4333 29.6012 44.6921 31.3425 44.6921" stroke="#66737C" stroke-width="3.57143" stroke-linecap="round" stroke-linejoin="round" fill="none"/><path d="M34.825 35.4054 52.2375 35.4054C52.2375 35.4054 53.9787 35.4054 53.9787 37.1467L53.9787 42.9508C53.9787 42.9508 53.9787 44.6921 52.2375 44.6921L34.825 44.6921C34.825 44.6921 33.0838 44.6921 33.0838 42.9508L33.0838 37.1467C33.0838 37.1467 33.0838 35.4054 34.825 35.4054" stroke="#66737C" stroke-width="3.57143" stroke-linecap="round" stroke-linejoin="round" fill="none"/><path d="M6.965 35.4054 24.3775 35.4054C24.3775 35.4054 26.1187 35.4054 26.1187 37.1467L26.1187 42.9508C26.1187 42.9508 26.1187 44.6921 24.3775 44.6921L6.965 44.6921C6.965 44.6921 5.22375 44.6921 5.22375 42.9508L5.22375 37.1467C5.22375 37.1467 5.22375 35.4054 6.965 35.4054" stroke="#66737C" stroke-width="3.57143" stroke-linecap="round" stroke-linejoin="round" fill="none"/><path d="M3.4825 26.1187 20.895 26.1187C20.895 26.1187 22.6362 26.1187 22.6362 27.86L22.6362 33.6642C22.6362 33.6642 22.6362 35.4054 20.895 35.4054L3.4825 35.4054C3.4825 35.4054 1.74125 35.4054 1.74125 33.6642L1.74125 27.86C1.74125 27.86 1.74125 26.1187 3.4825 26.1187" stroke="#66737C" stroke-width="3.57143" stroke-linecap="round" stroke-linejoin="round" fill="none"/></g></svg>