<svg width="60" height="60" viewBox="-1.875 -1.875 60 60" xmlns="http://www.w3.org/2000/svg" xmlns:xlink="http://www.w3.org/1999/xlink" id="Personal-Hotspot-Connection-1--Streamline-Ultimate" fill="none" overflow="hidden"><path d="M6.44531 32.6953C3.63281 30.5859 1.75781 27.3047 1.75781 23.5547 1.75781 17.2266 6.91406 12.0703 13.2422 12.0703L31.5234 12.0703C37.8516 12.0703 43.0078 17.2266 43.0078 23.5547 43.0078 29.8828 37.8516 35.0391 31.5234 35.0391L20.2734 35.0391" stroke="#66737C" stroke-width="3.33333" stroke-linecap="round" stroke-linejoin="round" stroke-miterlimit="10"/><path d="M49.8047 23.5547C52.6172 25.6641 54.4922 28.9453 54.4922 32.6953 54.4922 39.0234 49.3359 44.1797 43.0078 44.1797L24.7266 44.1797C18.3985 44.1797 13.2422 39.0234 13.2422 32.6953 13.2422 26.3672 18.3985 21.211 24.7266 21.211L36.2109 21.211" stroke="#66737C" stroke-width="3.33333" stroke-linecap="round" stroke-linejoin="round" stroke-miterlimit="10"/></svg>