<svg width="60" height="60" viewBox="-1.875 -1.875 60 60" xmlns="http://www.w3.org/2000/svg" xmlns:xlink="http://www.w3.org/1999/xlink" id="Person-Cog--Streamline-Ultimate" fill="none" overflow="hidden"><path d="M31.6406 54.4336C29.5312 48.3398 23.6719 43.8867 16.8751 43.8867 10.0782 43.8867 3.98449 48.3398 1.87511 54.4336" stroke="#66737C" stroke-width="3.33333" stroke-linecap="round" stroke-linejoin="round" stroke-miterlimit="10"/><path d="M16.6408 22.7929 16.6408 15.7617M3.74995 29.5898 29.5312 29.5898M7.0312 32.168C7.26558 37.3242 11.4843 41.543 16.6406 41.543 22.0312 41.543 26.25 37.3242 26.25 31.9336L26.25 27.7148C26.25 22.3242 22.0312 18.1054 16.6406 18.1054 11.4843 18.1054 7.26558 22.3242 7.0312 27.4805L7.0312 32.168Z" stroke="#66737C" stroke-width="3.33333" stroke-linecap="round" stroke-linejoin="round" stroke-miterlimit="10"/><path d="M45.0002 3.80857 45.9377 6.62107C46.1721 7.55857 47.344 8.26169 48.2815 8.02732L51.094 7.3242C53.6721 6.85545 55.3127 9.66794 53.6721 11.5429L51.5627 13.6523C50.8596 14.3554 50.8596 15.5273 51.5627 16.2304L53.6721 18.3398C55.3127 20.2148 53.6721 23.2617 51.094 22.5586L48.2815 22.3242C47.344 22.0898 46.1721 22.5586 45.9377 23.7305L45.0002 26.543C44.2971 29.1211 40.7815 29.1211 40.0784 26.543L39.1409 23.7305C38.9065 22.7929 37.7346 22.0898 36.7971 22.3242L33.9846 23.0273C31.4065 23.4961 29.7659 20.6836 31.4065 18.8086L33.5159 16.6992C34.219 15.9961 34.219 14.8242 33.5159 14.1211L31.6409 11.5429C30.0002 9.66794 31.6409 6.62107 34.219 7.3242L37.0315 8.02732C37.969 8.26169 39.1409 7.79295 39.3752 6.62107L40.3127 3.80857C40.7815 1.23044 44.2971 1.23044 45.0002 3.80857Z" stroke="#66737C" stroke-width="3.33333" stroke-linecap="round" stroke-linejoin="round" stroke-miterlimit="10"/><path d="M39.0234 15.1758C39.0234 17.1174 40.5974 18.6914 42.5391 18.6914 44.4807 18.6914 46.0547 17.1174 46.0547 15.1758 46.0547 13.2342 44.4807 11.6602 42.5391 11.6602 40.5974 11.6602 39.0234 13.2342 39.0234 15.1758" stroke="#66737C" stroke-width="3.33333"/></svg>