<svg width="60" height="60" viewBox="-1.875 -1.875 60 60" xmlns="http://www.w3.org/2000/svg" xmlns:xlink="http://www.w3.org/1999/xlink" id="Phone-Translate--Streamline-Ultimate" fill="none" overflow="hidden"><path d="M12.3047 8.78906C12.3047 6.92426 13.0455 5.13584 14.3641 3.81722 15.6827 2.4986 17.4711 1.75781 19.3359 1.75781L36.9141 1.75781C38.7788 1.75781 40.5673 2.4986 41.8859 3.81722 43.2045 5.13584 43.9453 6.92426 43.9453 8.78906" stroke="#66737C" stroke-width="3.33333" stroke-linecap="round" stroke-linejoin="round"/><path d="M43.9453 36.9141 43.9453 47.4609C43.9453 49.3256 43.2045 51.1141 41.8859 52.4327 40.5673 53.7513 38.7788 54.4922 36.9141 54.4922L19.3359 54.4922C17.4711 54.4922 15.6827 53.7513 14.3641 52.4327 13.0455 51.1141 12.3047 49.3256 12.3047 47.4609L12.3047 36.9141" stroke="#66737C" stroke-width="3.33333" stroke-linecap="round" stroke-linejoin="round"/><path d="M12.3047 40.4297 43.9453 40.4297" stroke="#66737C" stroke-width="3.33333" stroke-linecap="round" stroke-linejoin="round"/><path d="M28.125 48.3398C27.6396 48.3398 27.2461 47.9463 27.2461 47.4609 27.2461 46.9755 27.6396 46.582 28.125 46.582" stroke="#66737C" stroke-width="3.33333"/><path d="M28.125 48.3398C28.6104 48.3398 29.0039 47.9463 29.0039 47.4609 29.0039 46.9755 28.6104 46.582 28.125 46.582" stroke="#66737C" stroke-width="3.33333"/><path d="M1.75781 29.8828 1.75781 19.3359C1.75781 18.4035 2.12821 17.5093 2.78752 16.85 3.44681 16.1907 4.34105 15.8203 5.27344 15.8203 6.20583 15.8203 7.10006 16.1907 7.75936 16.85 8.41866 17.5093 8.78906 18.4035 8.78906 19.3359L8.78906 29.8828" stroke="#66737C" stroke-width="3.33333" stroke-linecap="round" stroke-linejoin="round"/><path d="M1.75781 26.3672 8.78906 26.3672" stroke="#66737C" stroke-width="3.33333" stroke-linecap="round" stroke-linejoin="round"/><path d="M47.4609 15.8203 47.4609 19.3359" stroke="#66737C" stroke-width="3.33333" stroke-linecap="round" stroke-linejoin="round"/><path d="M40.4297 19.3359 54.4922 19.3359" stroke="#66737C" stroke-width="3.33333" stroke-linecap="round" stroke-linejoin="round"/><path d="M50.9766 19.3359C50.9766 19.3359 47.4609 29.8828 40.4297 29.8828" stroke="#66737C" stroke-width="3.33333" stroke-linecap="round" stroke-linejoin="round"/><path d="M47.4586 25.8211C48.2426 26.9902 49.2839 27.964 50.5029 28.668 51.7216 29.3721 53.0855 29.7877 54.4898 29.8828" stroke="#66737C" stroke-width="3.33333" stroke-linecap="round" stroke-linejoin="round"/><path d="M29.8828 33.3984C32.2973 30.4137 33.6148 26.6906 33.6148 22.8516 33.6148 19.0124 32.2973 15.2895 29.8828 12.3047" stroke="#66737C" stroke-width="3.33333" stroke-linecap="round" stroke-linejoin="round"/><path d="M19.6031 16.6992C21.0111 18.4406 21.7792 20.6122 21.7792 22.8516 21.7792 25.091 21.0111 27.2625 19.6031 29.0039" stroke="#66737C" stroke-width="3.33333" stroke-linecap="round" stroke-linejoin="round"/></svg>