<svg width="60" height="60" viewBox="-1.875 -1.875 60 60" xmlns="http://www.w3.org/2000/svg" xmlns:xlink="http://www.w3.org/1999/xlink" id="Pin-1--Streamline-Ultimate" overflow="hidden"><path d="M46.2891 19.3359C46.2891 29.2289 39.4148 34.9195 34.2633 40.4297 31.1789 43.7297 28.7109 54.4922 28.7109 54.4922 28.7109 54.4922 26.25 43.7367 23.1727 40.4461 18.0164 34.9383 11.1328 29.2383 11.1328 19.3359 11.1328 9.62781 19.0028 1.75781 28.7109 1.75781 38.4191 1.75781 46.2891 9.62781 46.2891 19.3359Z" stroke="#66737C" stroke-width="3.57143" stroke-linecap="round" stroke-linejoin="round" fill="none"/><path d="M21.6797 19.3359C21.6797 23.2192 24.8277 26.3672 28.7109 26.3672 32.5942 26.3672 35.7422 23.2192 35.7422 19.3359 35.7422 15.4527 32.5942 12.3047 28.7109 12.3047 24.8277 12.3047 21.6797 15.4527 21.6797 19.3359Z" stroke="#66737C" stroke-width="3.57143" stroke-linecap="round" stroke-linejoin="round" fill="none"/></svg>