<svg width="60" height="60" viewBox="-2.14 -2.14 60 60" xmlns="http://www.w3.org/2000/svg" xmlns:xlink="http://www.w3.org/1999/xlink" id="Plane-Take-Off--Streamline-Ultimate.svg" overflow="hidden"><path d="M47.6243 11.404 15.8941 25.2063 9.40971 21.956C9.10425 21.8025 8.74665 21.7915 8.43229 21.9258L2.37739 24.5307C1.78839 24.7839 1.51617 25.4666 1.76936 26.0556 1.82755 26.191 1.91099 26.3141 2.01521 26.4182L10.7075 35.1129C11.0366 35.4414 11.5299 35.5419 11.9612 35.3683L28.6633 28.6888 22.7361 44.4947C22.5112 45.0951 22.8157 45.7641 23.416 45.989 23.7175 46.1019 24.0522 46.0845 24.3404 45.9411L30.646 42.7906C30.8699 42.6784 31.0515 42.4968 31.1637 42.2729L40.2786 24.0455 51.1904 19.9826C53.5784 19.0479 54.7566 16.3542 53.8218 13.9662 52.8871 11.5782 50.1935 10.4001 47.8055 11.3348 47.7493 11.3568 47.6936 11.3799 47.6383 11.404Z" stroke="#66737C" stroke-width="3.57143" stroke-linecap="round" stroke-linejoin="round" fill="none"/><path d="M37.1861 15.9429 22.1742 9.751C21.8903 9.63362 21.5713 9.63362 21.2874 9.751L15.7409 12.0494C15.1485 12.2946 14.867 12.9736 15.1122 13.566 15.23 13.8507 15.4562 14.0768 15.7409 14.1947L28.7887 19.5925" stroke="#66737C" stroke-width="3.57143" stroke-linecap="round" stroke-linejoin="round" fill="none"/></svg>