<svg width="60" height="60" viewBox="-2.14 -2.14 60 60" xmlns="http://www.w3.org/2000/svg" xmlns:xlink="http://www.w3.org/1999/xlink" id="Plane-Trip-1--Streamline-Ultimate.svg" overflow="hidden"><path d="M47.4177 47.759 49.0057 46.171C49.8813 45.2954 50.226 44.0207 49.9112 42.8231L44.2626 21.3593 51.7314 13.8905C54.2622 11.4728 54.6938 7.58773 52.7552 4.67351 50.5313 1.5349 46.1841 0.793397 43.0455 3.01733 42.7245 3.24479 42.4233 3.49904 42.1452 3.77735L34.4141 11.5108 12.9549 5.86453C11.7566 5.54881 10.4808 5.89362 9.60473 6.76998L8.01672 8.358C6.65667 9.71796 6.65661 11.923 8.01657 13.283 8.218 13.4844 8.44339 13.6604 8.68768 13.807L23.3328 22.5945 12.1888 35.2243 8.70625 35.2754C7.62808 35.0908 6.52583 35.4236 5.72987 36.1739L2.25202 39.3592C1.57224 40.0376 1.57114 41.1387 2.24956 41.8184 2.40681 41.976 2.59287 42.1019 2.79761 42.1893L9.51883 45.9806 13.93 52.934C14.3107 53.8185 15.3363 54.2269 16.2208 53.8462 16.4229 53.7593 16.6066 53.6349 16.7624 53.4796L19.8015 50.5822C20.6597 49.7733 21.0503 48.585 20.8393 47.4247L20.895 43.9306 33.1813 32.443 41.9688 47.088C42.9582 48.7374 45.0973 49.2724 46.7466 48.283 46.9909 48.1364 47.2163 47.9604 47.4177 47.759Z" stroke="#66737C" stroke-width="3.57143" stroke-linecap="round" stroke-linejoin="round" fill="none"/></svg>