<svg width="60" height="60" viewBox="-2.14 -2.14 60 60" xmlns="http://www.w3.org/2000/svg" xmlns:xlink="http://www.w3.org/1999/xlink" id="Plane-Trip-International--Streamline-Ultimate.svg" overflow="hidden"><path d="M27.1264 40.996 21.501 38.4793C21.162 38.3279 20.7711 38.3478 20.4492 38.5327L17.9581 39.9652C17.402 40.2842 17.2098 40.9936 17.5289 41.5497 17.6213 41.7108 17.7509 41.8473 17.907 41.9479L26.3974 47.427C26.7114 47.6294 27.1037 47.6683 27.4514 47.5315L37.4346 43.5846 34.0658 52.3327C33.8336 52.9303 34.1298 53.6029 34.7273 53.8352 35.0415 53.9572 35.3931 53.9368 35.691 53.7791L37.936 52.6183C38.1391 52.5143 38.3071 52.3528 38.4189 52.1539L44.6874 40.7127 52.7018 37.1722C54.2129 36.5381 54.9239 34.7992 54.2899 33.2881 53.6558 31.777 51.9168 31.066 50.4057 31.7Z" stroke="#66737C" stroke-width="3.57143" stroke-linecap="round" stroke-linejoin="round" fill="none"/><path d="M41.8689 35.1106 32.9839 29.5386C32.6335 29.3159 32.1909 29.2973 31.8231 29.4898L29.4411 30.7203C28.871 31.0136 28.6467 31.7136 28.94 32.2836 29.0306 32.4597 29.1647 32.6096 29.3296 32.7192L36.2691 37.3347" stroke="#66737C" stroke-width="3.57143" stroke-linecap="round" stroke-linejoin="round" fill="none"/><path d="M15.186 36.283C5.76183 34.3686-0.326091 25.1769 1.58827 15.7528 3.50262 6.32856 12.6943 0.240638 22.1185 2.15499 30.2315 3.803 36.0624 10.9354 36.0648 19.2141" stroke="#66737C" stroke-width="3.57143" stroke-linecap="round" stroke-linejoin="round" fill="none"/><path d="M7.80544 32.8214 9.3656 25.0183 11.0372 25.0183C12.3194 25.0179 13.3586 23.9782 13.3582 22.696 13.3582 22.5068 13.335 22.3183 13.2892 22.1348L12.1284 17.4914C11.8705 16.4575 10.9419 15.7319 9.87637 15.7316L1.59034 15.7316" stroke="#66737C" stroke-width="3.57143" stroke-linecap="round" stroke-linejoin="round" fill="none"/><path d="M32.5591 8.76661 26.2697 8.76661C25.2041 8.76691 24.2755 9.49253 24.0176 10.5264L22.8568 15.1698C22.5465 16.4139 23.3035 17.674 24.5476 17.9843 24.7312 18.0301 24.9196 18.0532 25.1088 18.0533L27.5535 18.0533 28.7771 25.4014" stroke="#66737C" stroke-width="3.57143" stroke-linecap="round" stroke-linejoin="round" fill="none"/></svg>