<svg width="60" height="60" viewBox="-1.875 -1.875 60 60" xmlns="http://www.w3.org/2000/svg" xmlns:xlink="http://www.w3.org/1999/xlink" id="Podcast-Live--Streamline-Ultimate" fill="none" overflow="hidden"><path d="M2.63672 13.1836C2.15131 13.1836 1.75781 12.7901 1.75781 12.3047 1.75781 11.8193 2.15131 11.4258 2.63672 11.4258" stroke="#66737C" stroke-width="3.33333"/><path d="M2.63672 13.1836C3.12213 13.1836 3.51562 12.7901 3.51562 12.3047 3.51562 11.8193 3.12213 11.4258 2.63672 11.4258" stroke="#66737C" stroke-width="3.33333"/><path d="M21.3867 37.793 21.3867 20.2148" stroke="#66737C" stroke-width="3.33333" stroke-linecap="round" stroke-linejoin="round"/><path d="M28.418 20.2148 28.418 26.182C28.4182 30.3145 29.6414 34.3545 31.9336 37.793 34.2258 34.3545 35.449 30.3145 35.4492 26.182L35.4492 20.2148" stroke="#66737C" stroke-width="3.33333" stroke-linecap="round" stroke-linejoin="round"/><path d="M7.32422 20.2148 7.32422 34.2773C7.32422 35.2097 7.69462 36.1041 8.35392 36.7634 9.01322 37.4227 9.90745 37.793 10.8398 37.793L14.3555 37.793" stroke="#66737C" stroke-width="3.33333" stroke-linecap="round" stroke-linejoin="round"/><path d="M49.5117 37.793 45.9961 37.793C45.0638 37.793 44.1694 37.4227 43.5101 36.7634 42.8508 36.1041 42.4805 35.2097 42.4805 34.2773L42.4805 23.7305C42.4805 22.7981 42.8508 21.9038 43.5101 21.2445 44.1694 20.5853 45.0638 20.2148 45.9961 20.2148L49.5117 20.2148" stroke="#66737C" stroke-width="3.33333" stroke-linecap="round" stroke-linejoin="round"/><path d="M42.4805 30.7617 49.5117 30.7617" stroke="#66737C" stroke-width="3.33333" stroke-linecap="round" stroke-linejoin="round"/><path d="M10.8398 13.1836 54.4922 13.1836" stroke="#66737C" stroke-width="3.33333" stroke-linecap="round" stroke-linejoin="round"/><path d="M54.4922 44.8242 1.75781 44.8242" stroke="#66737C" stroke-width="3.33333" stroke-linecap="round" stroke-linejoin="round"/></svg>