<svg width="60" height="60" viewBox="-1.875 -1.875 60 60" xmlns="http://www.w3.org/2000/svg" xmlns:xlink="http://www.w3.org/1999/xlink" id="Presentation-Projector-Screen-Bars--Streamline-Ultimate" overflow="hidden"><g><path d="M17.5781 35.1562 38.6719 35.1562" stroke="#66737C" stroke-width="3.33333" stroke-linecap="round" stroke-linejoin="round" fill="none"/><path d="M21.0938 28.125 21.0938 35.1562" stroke="#66737C" stroke-width="3.33333" stroke-linecap="round" stroke-linejoin="round" fill="none"/><path d="M28.125 22.8516 28.125 35.1562" stroke="#66737C" stroke-width="3.33333" stroke-linecap="round" stroke-linejoin="round" fill="none"/><path d="M35.1562 17.5781 35.1562 35.1562" stroke="#66737C" stroke-width="3.33333" stroke-linecap="round" stroke-linejoin="round" fill="none"/><path d="M3.51562 1.75781 52.7344 1.75781C52.7344 1.75781 54.4922 1.75781 54.4922 3.51562L54.4922 9.375C54.4922 9.375 54.4922 11.1328 52.7344 11.1328L3.51562 11.1328C3.51562 11.1328 1.75781 11.1328 1.75781 9.375L1.75781 3.51562C1.75781 3.51562 1.75781 1.75781 3.51562 1.75781" stroke="#66737C" stroke-width="3.33333" stroke-linecap="round" stroke-linejoin="round" fill="none"/><path d="M5.27344 11.1328 50.9766 11.1328 50.9766 42.1875 5.27344 42.1875Z" stroke="#66737C" stroke-width="3.33333" stroke-linecap="round" stroke-linejoin="round" fill="none"/><path d="M28.125 52.1484 28.125 42.1875" stroke="#66737C" stroke-width="3.33333" stroke-linecap="round" stroke-linejoin="round" fill="none"/><path d="M1.75781 42.1875 54.4922 42.1875" stroke="#66737C" stroke-width="3.33333" stroke-linecap="round" stroke-linejoin="round" fill="none"/><path d="M31.6406 54.4922C31.6406 53.2031 30.0703 52.1484 28.125 52.1484 26.1797 52.1484 24.6094 53.2031 24.6094 54.4922" stroke="#66737C" stroke-width="3.33333" stroke-linecap="round" stroke-linejoin="round" fill="none"/></g></svg>