<svg width="60" height="60" viewBox="-1.875 -1.875 60 60" xmlns="http://www.w3.org/2000/svg" xmlns:xlink="http://www.w3.org/1999/xlink" id="Qr-Code-Scan--Streamline-Ultimate" overflow="hidden"><path d="M12.3047 12.3047 19.3359 12.3047 19.3359 19.3359 12.3047 19.3359Z" stroke="#66737C" stroke-width="3.33333" stroke-linecap="round" stroke-linejoin="round" fill="none"/><path d="M12.3047 36.9141 19.3359 36.9141 19.3359 43.9453 12.3047 43.9453Z" stroke="#66737C" stroke-width="3.33333" stroke-linecap="round" stroke-linejoin="round" fill="none"/><path d="M36.9141 12.3047 43.9453 12.3047 43.9453 19.3359 36.9141 19.3359Z" stroke="#66737C" stroke-width="3.33333" stroke-linecap="round" stroke-linejoin="round" fill="none"/><path d="M12.3047 29.8828 26.3672 29.8828 26.3672 33.3984" stroke="#66737C" stroke-width="3.33333" stroke-linecap="round" stroke-linejoin="round" fill="none"/><path d="M33.3984 33.3984 33.3984 43.9453 43.9453 43.9453 43.9453 33.3984 40.4297 33.3984" stroke="#66737C" stroke-width="3.33333" stroke-linecap="round" stroke-linejoin="round" fill="none"/><path d="M26.3672 40.4297 26.3672 43.9453" stroke="#66737C" stroke-width="3.33333" stroke-linecap="round" stroke-linejoin="round" fill="none"/><path d="M26.3672 12.3047 26.3672 22.8516 29.8828 22.8516" stroke="#66737C" stroke-width="3.33333" stroke-linecap="round" stroke-linejoin="round" fill="none"/><path d="M36.9141 26.3672 43.9453 26.3672" stroke="#66737C" stroke-width="3.33333" stroke-linecap="round" stroke-linejoin="round" fill="none"/><path d="M1.75781 14.0625 1.75781 5.27344C1.75781 3.33181 3.33181 1.75781 5.27344 1.75781L14.0625 1.75781" stroke="#66737C" stroke-width="3.33333" stroke-linecap="round" stroke-linejoin="round" fill="none"/><path d="M42.1875 1.75781 50.9766 1.75781C52.9182 1.75781 54.4922 3.33181 54.4922 5.27344L54.4922 14.0625" stroke="#66737C" stroke-width="3.33333" stroke-linecap="round" stroke-linejoin="round" fill="none"/><path d="M54.4922 42.1875 54.4922 50.9766C54.4922 52.9182 52.9182 54.4922 50.9766 54.4922L42.1875 54.4922" stroke="#66737C" stroke-width="3.33333" stroke-linecap="round" stroke-linejoin="round" fill="none"/><path d="M14.0625 54.4922 5.27344 54.4922C3.33181 54.4922 1.75781 52.9182 1.75781 50.9766L1.75781 42.1875" stroke="#66737C" stroke-width="3.33333" stroke-linecap="round" stroke-linejoin="round" fill="none"/></svg>