<svg width="60" height="60" viewBox="-2.14 -2.14 60 60" xmlns="http://www.w3.org/2000/svg" xmlns:xlink="http://www.w3.org/1999/xlink" id="Question-Circle--Streamline-Ultimate.svg" fill="none" overflow="hidden"><path d="M27.86 53.4007C41.9644 53.4007 53.3983 41.9667 53.3983 27.8623 53.3983 13.7578 41.9644 2.32394 27.86 2.32394 13.7556 2.32394 2.32167 13.7578 2.32167 27.8623 2.32167 41.9667 13.7556 53.4007 27.86 53.4007Z" stroke="#66737C" stroke-width="3.57143" stroke-linecap="round" stroke-linejoin="round"/><path d="M20.895 23.2283C20.8952 21.9727 21.2348 20.7404 21.878 19.662 22.5211 18.5835 23.444 17.699 24.5486 17.102 25.6533 16.505 26.8988 16.2177 28.1532 16.2706 29.4079 16.3235 30.6249 16.7145 31.6754 17.4024 32.7257 18.0902 33.5708 19.0493 34.1211 20.178 34.6711 21.3068 34.9058 22.5632 34.8004 23.8145 34.695 25.0656 34.2532 26.2652 33.5218 27.2859 32.7905 28.3067 31.7969 29.1107 30.646 29.6129 29.8179 29.9743 29.1132 30.5694 28.6185 31.3253 28.1235 32.0813 27.86 32.9651 27.86 33.8685L27.86 34.825" stroke="#66737C" stroke-width="3.57143" stroke-linecap="round" stroke-linejoin="round"/><path d="M27.8684 40.6292C27.5477 40.6292 27.2879 40.3694 27.2879 40.0488 27.2879 39.7281 27.5477 39.4683 27.8684 39.4683" stroke="#66737C" stroke-width="3.57143"/><path d="M27.8684 40.6292C28.189 40.6292 28.4488 40.3694 28.4488 40.0488 28.4488 39.7281 28.189 39.4683 27.8684 39.4683" stroke="#66737C" stroke-width="3.57143"/></svg>