<svg width="60" height="60" viewBox="-1.875 -1.875 60 60" xmlns="http://www.w3.org/2000/svg" xmlns:xlink="http://www.w3.org/1999/xlink" id="Rating-Star-Winner--Streamline-Ultimate" overflow="hidden"><path d="M44.1211 29.0016 47.0531 34.2797 52.868 34.2797C53.7481 34.2662 54.4725 34.9687 54.486 35.8488 54.4926 36.2825 54.3222 36.7002 54.0141 37.0055L48.675 42.832 51.6328 49.6289C51.9745 50.4513 51.5848 51.395 50.7624 51.7367 50.2992 51.9291 49.7728 51.8951 49.3383 51.6445L42.1875 47.6203 35.0391 51.6422C34.2685 52.0887 33.2819 51.8261 32.8354 51.0556 32.5829 50.6199 32.5484 50.0913 32.7422 49.6266L35.6016 43.0641" stroke="#66737C" stroke-width="3.33333" stroke-linecap="round" stroke-linejoin="round" fill="none"/><path d="M12.1289 29.0016 9.19687 34.2797 3.38203 34.2797C2.50193 34.2662 1.77753 34.9687 1.76403 35.8488 1.75738 36.2825 1.92779 36.7002 2.23594 37.0055L7.575 42.832 4.61719 49.6289C4.27549 50.4513 4.66518 51.395 5.48758 51.7367 5.95078 51.9291 6.47718 51.8951 6.91172 51.6445L14.0625 47.6203 21.2109 51.6422C21.9815 52.0887 22.9681 51.8261 23.4146 51.0556 23.6671 50.6199 23.7016 50.0913 23.5078 49.6266L20.6484 43.0641" stroke="#66737C" stroke-width="3.33333" stroke-linecap="round" stroke-linejoin="round" fill="none"/><path d="M28.9875 5.01797 33.6492 14.3391 42.6188 15.2367C43.2433 15.3006 43.6978 15.8587 43.6338 16.4833 43.6073 16.7429 43.4921 16.9855 43.3078 17.1703L35.9203 24.5578 38.6578 34.5961C38.8227 35.2005 38.4665 35.8242 37.8621 35.9891 37.5922 36.0627 37.3047 36.034 37.0547 35.9086L27.9727 31.3687 18.8906 35.9086C18.3299 36.1881 17.6488 35.9601 17.3693 35.3994 17.2452 35.1504 17.2169 34.8645 17.2898 34.5961L20.0273 24.5578 12.6398 17.1703C12.1953 16.727 12.1943 16.0073 12.6376 15.5628 12.8231 15.3767 13.0674 15.2606 13.3289 15.2344L22.2961 14.3367 26.9531 5.01797C27.2304 4.45619 27.9107 4.22559 28.4724 4.50291 28.6961 4.61331 28.8771 4.79433 28.9875 5.01797Z" stroke="#66737C" stroke-width="3.33333" stroke-linecap="round" stroke-linejoin="round" fill="none"/></svg>