<svg width="60" height="60" viewBox="-1.875 -1.875 60 60" xmlns="http://www.w3.org/2000/svg" xmlns:xlink="http://www.w3.org/1999/xlink" id="Real-Estate-Market-House-Rise--Streamline-Ultimate" overflow="hidden"><path d="M19.3359 45.7031 12.3047 45.7031C10.3631 45.7031 8.78906 44.1291 8.78906 42.1875L8.78906 24.6094" stroke="#66737C" stroke-width="3.33333" stroke-linecap="round" stroke-linejoin="round" fill="none"/><path d="M1.75781 21.0938 24.6094 1.75781 43.9406 18.1148" stroke="#66737C" stroke-width="3.33333" stroke-linecap="round" stroke-linejoin="round" fill="none"/><path d="M36.9141 3.51562 43.9453 3.51562 43.9453 10.5469" stroke="#66737C" stroke-width="3.33333" stroke-linecap="round" stroke-linejoin="round" fill="none"/><path d="M17.5781 54.4922 32.1562 39.9141C32.8413 39.228 33.9528 39.2272 34.6389 39.9123 34.6395 39.9129 34.64 39.9135 34.6406 39.9141L39.1875 44.4609C39.8726 45.147 40.9841 45.1478 41.6701 44.4627 41.6707 44.4621 41.6713 44.4615 41.6719 44.4609L54.4922 31.6406" stroke="#66737C" stroke-width="3.33333" stroke-linecap="round" stroke-linejoin="round" fill="none"/><path d="M45.7031 31.6406 54.4922 31.6406 54.4922 40.4297" stroke="#66737C" stroke-width="3.33333" stroke-linecap="round" stroke-linejoin="round" fill="none"/><path d="M40.4297 24.6094 40.4297 31.6406" stroke="#66737C" stroke-width="3.33333" stroke-linecap="round" stroke-linejoin="round" fill="none"/></svg>