<svg width="60" height="60" viewBox="-1.875 -1.875 60 60" xmlns="http://www.w3.org/2000/svg" xmlns:xlink="http://www.w3.org/1999/xlink" id="Real-Estate-Search-House-Target--Streamline-Ultimate" overflow="hidden"><path d="M7.03125 28.125C7.03125 39.7748 16.4752 49.2188 28.125 49.2188 39.7748 49.2188 49.2188 39.7748 49.2188 28.125 49.2188 16.4752 39.7748 7.03125 28.125 7.03125 16.4752 7.03125 7.03125 16.4752 7.03125 28.125Z" stroke="#66737C" stroke-width="3.33333" stroke-linecap="round" stroke-linejoin="round" fill="none"/><path d="M45.7031 28.125 54.4922 28.125" stroke="#66737C" stroke-width="3.33333" stroke-linecap="round" stroke-linejoin="round" fill="none"/><path d="M28.125 10.5469 28.125 1.75781" stroke="#66737C" stroke-width="3.33333" stroke-linecap="round" stroke-linejoin="round" fill="none"/><path d="M10.5469 28.125 1.75781 28.125" stroke="#66737C" stroke-width="3.33333" stroke-linecap="round" stroke-linejoin="round" fill="none"/><path d="M28.125 45.7031 28.125 54.4922" stroke="#66737C" stroke-width="3.33333" stroke-linecap="round" stroke-linejoin="round" fill="none"/><path d="M35.1562 23.4375 35.1562 34.3031C35.1562 35.2739 34.3693 36.0609 33.3984 36.0609L22.8516 36.0609C21.8807 36.0609 21.0938 35.2739 21.0938 34.3031L21.0938 23.4375" stroke="#66737C" stroke-width="3.33333" stroke-linecap="round" stroke-linejoin="round" fill="none"/><path d="M17.5781 26.3672 28.125 17.5781 38.6719 26.3672" stroke="#66737C" stroke-width="3.33333" stroke-linecap="round" stroke-linejoin="round" fill="none"/></svg>