<svg width="60" height="60" viewBox="-1.875 -1.875 60 60" xmlns="http://www.w3.org/2000/svg" xmlns:xlink="http://www.w3.org/1999/xlink" id="Recycling-Refresh--Streamline-Ultimate" overflow="hidden"><path d="M42.1875 10.1484C32.2396 2.38193 17.8793 4.15028 10.1128 14.0982 6.9774 18.1142 5.27407 23.0628 5.27344 28.1578L5.27344 33.4313" stroke="#66737C" stroke-width="3.33333" stroke-linecap="round" stroke-linejoin="round" fill="none"/><path d="M14.0625 46.1719C24.013 53.9371 38.3745 52.1655 46.1397 42.215 49.2735 38.1993 50.9759 33.2516 50.9766 28.1578L50.9766 22.8844" stroke="#66737C" stroke-width="3.33333" stroke-linecap="round" stroke-linejoin="round" fill="none"/><path d="M1.75781 29.9156 5.27344 33.4313 8.78906 29.9156" stroke="#66737C" stroke-width="3.33333" stroke-linecap="round" stroke-linejoin="round" fill="none"/><path d="M54.4922 26.4 50.9766 22.8844 47.4609 26.4" stroke="#66737C" stroke-width="3.33333" stroke-linecap="round" stroke-linejoin="round" fill="none"/><path d="M23.2781 36.5625C23.2781 36.5625 28.4461 40.5187 32.55 37.9828 40.875 32.8266 34.5141 21.5367 35.6648 15.8508 28.8354 15.8532 22.4195 19.1238 18.4055 24.6492 15.157 29.4562 16.9852 33.9234 23.2781 36.5625Z" stroke="#66737C" stroke-width="3.33333" stroke-linecap="round" stroke-linejoin="round" fill="none"/><path d="M26.7984 28.1719C26.7984 28.1719 22.4297 31.0688 22.2656 40.4625" stroke="#66737C" stroke-width="3.33333" stroke-linecap="round" stroke-linejoin="round" fill="none"/></svg>