<svg width="60" height="60" viewBox="-1.875 -1.875 60 60" xmlns="http://www.w3.org/2000/svg" xmlns:xlink="http://www.w3.org/1999/xlink" id="Recycling-Label--Streamline-Ultimate" fill="none" overflow="hidden"><path d="M32.9742 46.875C32.9742 46.875 35.8312 52.7227 40.6383 52.2844 50.3836 51.3937 49.732 38.4398 53.2945 33.8648 50.2809 32.363 46.9547 31.5961 43.5879 31.6266 40.2209 31.6573 36.9091 32.4844 33.9234 34.0406 28.875 36.9 28.5164 41.7188 32.9742 46.875Z" stroke="#66737C" stroke-width="3.33333" stroke-linecap="round" stroke-linejoin="round"/><path d="M39.8672 40.943C39.8672 40.943 33.5391 41.7281 29.032 52.7344" stroke="#66737C" stroke-width="3.33333" stroke-linecap="round" stroke-linejoin="round"/><path d="M21.5626 46.6547C20.9033 47.3138 20.0093 47.6841 19.077 47.6841 18.1448 47.6841 17.2508 47.3138 16.5915 46.6547L3.98447 34.0477C3.32541 33.3884 2.95514 32.4942 2.95514 31.5621 2.95514 30.63 3.32541 29.7359 3.98447 29.0766L28.5938 4.54688C29.2526 3.88739 30.1462 3.51645 31.0781 3.51562L43.3828 3.51562C43.8445 3.51562 44.3018 3.60656 44.7284 3.78323 45.1549 3.95991 45.5423 4.21887 45.8688 4.54533 46.1953 4.87179 46.4543 5.25935 46.631 5.68587 46.8075 6.11241 46.8984 6.56958 46.8984 7.03125L46.8984 19.5586C46.8987 20.0204 46.808 20.4776 46.6315 20.9043 46.455 21.331 46.196 21.7187 45.8695 22.0453" stroke="#66737C" stroke-width="3.33333" stroke-linecap="round" stroke-linejoin="round"/><path d="M38.4117 13.1039C37.9263 13.1039 37.5328 12.7104 37.5328 12.225 37.5328 11.7396 37.9263 11.3461 38.4117 11.3461" stroke="#66737C" stroke-width="3.33333"/><path d="M38.4117 13.1039C38.8971 13.1039 39.2906 12.7104 39.2906 12.225 39.2906 11.7396 38.8971 11.3461 38.4117 11.3461" stroke="#66737C" stroke-width="3.33333"/></svg>