<svg width="60" height="60" viewBox="-1.25 -1.25 60 60" xmlns="http://www.w3.org/2000/svg" xmlns:xlink="http://www.w3.org/1999/xlink" id="Red-Blood-Cell-Two--Streamline-Ultimate" fill="none" overflow="hidden"><path d="M17.4478 53.4803C27.1441 56.558 36.2823 55.0275 38.674 47.4914 41.066 39.9551 34.4832 33.4348 24.7871 30.3574 15.0906 27.2797 5.97471 28.7404 3.56059 36.3465 1.23404 43.6765 7.75143 50.4028 17.4478 53.4803Z" stroke="#66737C" stroke-width="3.33333" stroke-linecap="round" stroke-linejoin="round"/><path d="M46.092 21.4678C39.4764 24.6112 32.8085 24.4133 30.3655 19.2716 27.9222 14.1299 31.9801 8.83523 38.5957 5.69176 45.2111 2.54828 51.8564 2.69876 54.3222 7.88802 56.6986 12.8891 52.7074 18.3243 46.092 21.4678Z" stroke="#66737C" stroke-width="3.33333" stroke-linecap="round" stroke-linejoin="round"/><path d="M12.5577 39.4083C13.6008 41.4843 16.4807 43.5984 20.2099 44.7822 23.939 45.9657 27.5111 45.8994 29.5605 44.805" stroke="#66737C" stroke-width="3.33333" stroke-linecap="round" stroke-linejoin="round"/><path d="M47.0199 11.5147C46.5894 12.7743 45.1191 14.1986 43.0943 15.1608 41.0696 16.1229 39.0365 16.3632 37.788 15.9015" stroke="#66737C" stroke-width="3.33333" stroke-linecap="round" stroke-linejoin="round"/></svg>