<svg width="60" height="60" viewBox="-1.875 -1.875 60 60" xmlns="http://www.w3.org/2000/svg" xmlns:xlink="http://www.w3.org/1999/xlink" id="Red-Blood-Cell-Strem-2--Streamline-Ultimate" fill="none" overflow="hidden"><path d="M17.4505 2.19326 19.4765 7.1127" stroke="#66737C" stroke-width="3.33333" stroke-linecap="round" stroke-linejoin="round"/><path d="M28.1304 2.98463C30.3778 2.98463 32.3412 4.20056 33.3984 6.01043 35.779 6.57544 38.0147 7.51488 40.0397 8.76312 42.0677 8.22996 44.317 8.75827 45.9068 10.348 47.4966 11.9378 48.0248 14.187 47.4916 16.2151 48.7399 18.24 49.6793 20.4756 50.2444 22.8561 52.0549 23.9133 53.2713 25.8771 53.2713 28.1248 53.2713 30.3727 52.0549 32.3363 50.2444 33.3935 49.6793 35.7736 48.7402 38.0088 47.4921 40.0334 48.026 42.0619 47.4977 44.3119 45.9077 45.9019 44.3175 47.4921 42.0677 48.0202 40.0395 47.4865 38.0145 48.7348 35.779 49.6741 33.3984 50.239 32.3412 52.0491 30.3778 53.265 28.1304 53.265 25.8832 53.265 23.9198 52.0491 22.8624 50.2392 20.4817 49.6744 18.2459 48.7348 16.2208 47.4865 14.1927 48.0197 11.9434 47.4914 10.3536 45.9016 8.76389 44.3119 8.23556 42.0628 8.76867 40.0348 7.52016 38.0093 6.58055 35.7734 6.01552 33.3923 4.2063 32.3346 2.99091 30.3717 2.99091 28.1248 2.99091 25.878 4.20628 23.9149 6.01549 22.8574 6.58045 20.4766 7.51992 18.2407 8.76827 16.2155 8.23514 14.1874 8.76347 11.9382 10.3532 10.3484 11.9429 8.75873 14.192 8.23041 16.22 8.76342 18.2453 7.51491 20.4814 6.5753 22.8624 6.01024 23.9198 4.20047 25.8832 2.98463 28.1304 2.98463Z" stroke="#66737C" stroke-width="3.33333" stroke-linecap="round" stroke-linejoin="round"/><path d="M23.8312 40.4801C26.6578 36.6905 22.7207 34.7747 21.4132 31.0235 18.3613 22.2678 33.4172 23.7813 29.2973 14.7728 26.5343 8.73066 14.9302 12.8817 13.0857 26.0503 11.2987 38.8085 19.8886 45.7655 23.8312 40.4801Z" stroke="#66737C" stroke-width="3.33333" stroke-linecap="round" stroke-linejoin="round"/><path d="M38.0977 32.7075C36.9982 30.4172 34.913 29.1338 32.6782 30.2067 30.4432 31.2797 30.1409 33.7095 31.2405 35.9995 32.34 38.2898 34.4044 39.5834 36.66 38.5003 38.8338 37.4566 39.1973 34.9976 38.0977 32.7075Z" stroke="#66737C" stroke-width="3.33333" stroke-linecap="round" stroke-linejoin="round"/><path d="M42.3251 23.0983C43.0455 21.8231 42.8512 20.3495 41.3941 19.5261 39.9368 18.7026 38.5744 19.2966 37.8537 20.5718 37.1332 21.847 37.3139 23.313 38.7846 24.1441 40.2021 24.945 41.6044 24.3736 42.3251 23.0983Z" stroke="#66737C" stroke-width="3.33333" stroke-linecap="round" stroke-linejoin="round"/><path d="M36.799 49.1747 38.8097 54.057" stroke="#66737C" stroke-width="3.33333" stroke-linecap="round" stroke-linejoin="round"/><path d="M2.19326 38.7989 7.1127 36.773" stroke="#66737C" stroke-width="3.33333" stroke-linecap="round" stroke-linejoin="round"/><path d="M49.1747 19.4504 54.057 17.4397" stroke="#66737C" stroke-width="3.33333" stroke-linecap="round" stroke-linejoin="round"/><path d="M17.3361 54.0091 19.382 49.098" stroke="#66737C" stroke-width="3.33333" stroke-linecap="round" stroke-linejoin="round"/><path d="M36.8756 7.10679 38.9062 2.23279" stroke="#66737C" stroke-width="3.33333" stroke-linecap="round" stroke-linejoin="round"/><path d="M2.22759 17.3412 7.13876 19.3872" stroke="#66737C" stroke-width="3.33333" stroke-linecap="round" stroke-linejoin="round"/><path d="M49.1302 36.8808 54.004 38.9114" stroke="#66737C" stroke-width="3.33333" stroke-linecap="round" stroke-linejoin="round"/></svg>