<svg width="60" height="60" viewBox="-1.875 -1.875 60 60" xmlns="http://www.w3.org/2000/svg" xmlns:xlink="http://www.w3.org/1999/xlink" id="Redux-Logo--Streamline-Ultimate" overflow="hidden"><g><path d="M41.8125 16.8516C39.9609 9.11719 34.5234 3.51562 28.125 3.51562 20.2031 3.51562 13.7578 12.0938 13.7578 22.6641 13.6896 27.2287 14.9873 31.7096 17.4844 35.5312" stroke="#66737C" stroke-width="3.33333" stroke-linecap="round" stroke-linejoin="round" fill="none"/><path d="M15.7031 38.9531C15.7031 41.2701 17.5814 43.1484 19.8984 43.1484 22.2154 43.1484 24.0938 41.2701 24.0938 38.9531 24.0938 36.6361 22.2154 34.7578 19.8984 34.7578 17.5814 34.7578 15.7031 36.6361 15.7031 38.9531" stroke="#66737C" stroke-width="3.33333" stroke-linecap="round" stroke-linejoin="round" fill="none"/><path d="M7.94531 28.125C2.17969 33.5859 0.046875 41.0859 3.25781 46.6406 7.21875 53.5078 17.8594 54.7734 27.0234 49.5 31.0364 47.2815 34.2995 43.9205 36.3984 39.8438" stroke="#66737C" stroke-width="3.33333" stroke-linecap="round" stroke-linejoin="round" fill="none"/><path d="M33.8672 36C33.8672 38.317 35.7455 40.1953 38.0625 40.1953 40.3795 40.1953 42.2578 38.317 42.2578 36 42.2578 33.683 40.3795 31.8047 38.0625 31.8047 35.7455 31.8047 33.8672 33.683 33.8672 36" stroke="#66737C" stroke-width="3.33333" stroke-linecap="round" stroke-linejoin="round" fill="none"/><path d="M34.6172 51.7969C42.2344 54.1406 49.8047 52.1484 52.9922 46.6172 56.9766 39.7266 52.7578 29.8828 43.6172 24.5859 39.6915 22.2615 35.165 21.1523 30.6094 21.3984" stroke="#66737C" stroke-width="3.33333" stroke-linecap="round" stroke-linejoin="round" fill="none"/><path d="M22.2188 21.7734C22.2188 24.0904 24.0971 25.9688 26.4141 25.9688 28.7311 25.9688 30.6094 24.0904 30.6094 21.7734 30.6094 19.4564 28.7311 17.5781 26.4141 17.5781 24.0971 17.5781 22.2188 19.4564 22.2188 21.7734" stroke="#66737C" stroke-width="3.33333" stroke-linecap="round" stroke-linejoin="round" fill="none"/></g></svg>