<svg width="60" height="60" viewBox="-1.875 -1.875 60 60" xmlns="http://www.w3.org/2000/svg" xmlns:xlink="http://www.w3.org/1999/xlink" id="Renewable-Energy-Charging--Streamline-Ultimate" overflow="hidden"><path d="M15.8203 15.8203C19.7036 15.8203 22.8516 12.6723 22.8516 8.78906 22.8516 4.90581 19.7036 1.75781 15.8203 1.75781L10.5469 1.75781 10.5469 15.8203Z" stroke="#66737C" stroke-width="3.33333" stroke-linecap="round" stroke-linejoin="round" fill="none"/><path d="M10.5469 5.27344 3.51562 5.27344" stroke="#66737C" stroke-width="3.33333" stroke-linecap="round" stroke-linejoin="round" fill="none"/><path d="M10.5469 12.3047 3.51562 12.3047" stroke="#66737C" stroke-width="3.33333" stroke-linecap="round" stroke-linejoin="round" fill="none"/><path d="M22.8516 8.78906 42.1875 8.78906C48.0124 8.78906 52.7344 13.5111 52.7344 19.3359 52.7344 25.1608 48.0124 29.8828 42.1875 29.8828L15.8203 29.8828C10.9662 29.8828 7.03125 33.8178 7.03125 38.6719 7.03125 43.5259 10.9662 47.4609 15.8203 47.4609L40.4297 47.4609" stroke="#66737C" stroke-width="3.33333" stroke-linecap="round" stroke-linejoin="round" fill="none"/><path d="M33.0469 54.4922C29.1636 54.4934 26.0146 51.3464 26.0134 47.4632 26.0132 47.0698 26.0461 46.677 26.1117 46.2891 26.8063 42.8214 29.8885 40.3517 33.4242 40.4297L39.3352 40.4297C42.1122 40.4295 44.827 41.2516 47.1375 42.7922L51.9469 45.9984C52.7546 46.537 52.9728 47.6284 52.4342 48.4361 52.3055 48.6291 52.1399 48.7947 51.9469 48.9234L47.1375 52.1297C44.827 53.6703 42.1122 54.4923 39.3352 54.4922Z" stroke="#66737C" stroke-width="3.33333" stroke-linecap="round" stroke-linejoin="round" fill="none"/></svg>