<svg width="60" height="60" viewBox="-2.14 -2.14 60 60" xmlns="http://www.w3.org/2000/svg" xmlns:xlink="http://www.w3.org/1999/xlink" id="Renewable-Energy-Battery-Charge-1--Streamline-Ultimate.svg" overflow="hidden"><path d="M31.3425 15.6713 18.8984 28.1154C18.5586 28.4556 18.5589 29.0068 18.8991 29.3466 19.0622 29.5095 19.2832 29.601 19.5136 29.6012L24.3891 29.6012 24.3891 40.0488 36.8332 27.6046C37.173 27.2644 37.1727 26.7132 36.8325 26.3734 36.6694 26.2105 36.4484 26.119 36.218 26.1187L31.3425 26.1187Z" stroke="#66737C" stroke-width="3.57143" stroke-linecap="round" stroke-linejoin="round" fill="none"/><path d="M1.97109 31.3425C1.81806 30.188 1.74128 29.0246 1.74125 27.86 1.74125 13.435 13.435 1.74125 27.86 1.74125" stroke="#66737C" stroke-width="3.57143" stroke-linecap="round" stroke-linejoin="round" fill="none"/><path d="M53.7489 31.3425C53.9027 30.188 53.9803 29.0247 53.9811 27.86 53.9811 13.435 42.2873 1.74125 27.8623 1.74125 27.8615 1.74125 27.8608 1.74125 27.86 1.74125" stroke="#66737C" stroke-width="3.57143" stroke-linecap="round" stroke-linejoin="round" fill="none"/><path d="M51.8103 38.2889C50.9623 40.2651 49.862 42.1232 48.5368 43.8168" stroke="#66737C" stroke-width="3.57143" stroke-linecap="round" stroke-linejoin="round" fill="none"/><path d="M43.5011 48.7689C41.7911 50.0699 39.9178 51.1408 37.9291 51.9543" stroke="#66737C" stroke-width="3.57143" stroke-linecap="round" stroke-linejoin="round" fill="none"/><path d="M17.8443 51.9543C15.855 51.1421 13.9815 50.0711 12.2723 48.7689" stroke="#66737C" stroke-width="3.57143" stroke-linecap="round" stroke-linejoin="round" fill="none"/><path d="M7.22967 43.8168C5.90069 42.1241 4.79719 40.2659 3.94683 38.2889" stroke="#66737C" stroke-width="3.57143" stroke-linecap="round" stroke-linejoin="round" fill="none"/><path d="M31.3425 53.7489C29.0309 54.0554 26.6891 54.0554 24.3775 53.7489" stroke="#66737C" stroke-width="3.57143" stroke-linecap="round" stroke-linejoin="round" fill="none"/></svg>