<svg width="60" height="60" viewBox="-2.14 -2.14 60 60" xmlns="http://www.w3.org/2000/svg" xmlns:xlink="http://www.w3.org/1999/xlink" id="Reward-Stars-4--Streamline-Ultimate.svg" fill="none" overflow="hidden"><path d="M44.1117 27.86C33.7828 31.1856 30.3778 34.8886 27.86 44.1117 25.3422 34.8886 21.9372 31.1856 11.6083 27.86 21.9372 24.5344 25.3422 20.8314 27.86 11.6083 30.3778 20.8314 33.7828 24.5344 44.1117 27.86Z" stroke="#66737C" stroke-width="3.57143" stroke-linecap="round" stroke-linejoin="round"/><path d="M27.86 4.64333 27.86 2.32167" stroke="#66737C" stroke-width="3.57143" stroke-linecap="round" stroke-linejoin="round"/><path d="M27.86 53.3983 27.86 51.0767" stroke="#66737C" stroke-width="3.57143" stroke-linecap="round" stroke-linejoin="round"/><path d="M51.0767 27.86 53.3983 27.86" stroke="#66737C" stroke-width="3.57143" stroke-linecap="round" stroke-linejoin="round"/><path d="M2.32167 27.86 4.64333 27.86" stroke="#66737C" stroke-width="3.57143" stroke-linecap="round" stroke-linejoin="round"/><path d="M39.4683 16.2517 46.4333 9.28667" stroke="#66737C" stroke-width="3.57143" stroke-linecap="round" stroke-linejoin="round"/><path d="M16.2517 16.2517 9.28667 9.28667" stroke="#66737C" stroke-width="3.57143" stroke-linecap="round" stroke-linejoin="round"/><path d="M16.2517 39.4683 9.28667 46.4333" stroke="#66737C" stroke-width="3.57143" stroke-linecap="round" stroke-linejoin="round"/><path d="M39.4683 39.4683 46.4333 46.4333" stroke="#66737C" stroke-width="3.57143" stroke-linecap="round" stroke-linejoin="round"/></svg>