<svg width="60" height="60" viewBox="-2.14 -2.14 60 60" xmlns="http://www.w3.org/2000/svg" xmlns:xlink="http://www.w3.org/1999/xlink" id="Reward-Stars-5--Streamline-Ultimate.svg" fill="none" overflow="hidden"><path d="M27.86 4.64333 27.86 2.32167" stroke="#66737C" stroke-width="3.57143" stroke-linecap="round" stroke-linejoin="round"/><path d="M27.86 53.3983 27.86 46.9764" stroke="#66737C" stroke-width="3.57143" stroke-linecap="round" stroke-linejoin="round"/><path d="M2.32167 27.86 8.6337 27.86" stroke="#66737C" stroke-width="3.57143" stroke-linecap="round" stroke-linejoin="round"/><path d="M47.0862 27.86 53.3983 27.86" stroke="#66737C" stroke-width="3.57143" stroke-linecap="round" stroke-linejoin="round"/><path d="M14.0751 44.6359 9.39379 49.3173" stroke="#66737C" stroke-width="3.57143" stroke-linecap="round" stroke-linejoin="round"/><path d="M41.6449 11.7007 46.3263 7.01942" stroke="#66737C" stroke-width="3.57143" stroke-linecap="round" stroke-linejoin="round"/><path d="M14.0751 11.7007 9.39379 7.01942" stroke="#66737C" stroke-width="3.57143" stroke-linecap="round" stroke-linejoin="round"/><path d="M41.6449 44.0193 46.3263 48.7007" stroke="#66737C" stroke-width="3.57143" stroke-linecap="round" stroke-linejoin="round"/><path d="M28.8279 10.9032 33.2741 19.7933 41.8267 20.6495C42.0308 20.6695 42.2248 20.747 42.3867 20.8731 42.5483 20.9991 42.6708 21.1685 42.74 21.3616 42.809 21.5546 42.8217 21.7633 42.7769 21.9633 42.7321 22.1633 42.6311 22.3465 42.4863 22.4914L35.4379 29.5374 38.0512 39.1115C38.1057 39.3132 38.1009 39.5264 38.0373 39.7253 37.9734 39.9243 37.8536 40.1005 37.6923 40.2331 37.5307 40.3654 37.3343 40.4485 37.1267 40.472 36.9191 40.4954 36.7093 40.4585 36.5221 40.3657L27.86 36.0334 19.1979 40.3701C19.0109 40.4634 18.801 40.5005 18.5933 40.4773 18.3857 40.4539 18.1893 40.3708 18.0278 40.2382 17.8663 40.1056 17.7467 39.929 17.6834 39.73 17.6201 39.5308 17.6159 39.3177 17.6711 39.1161L20.2821 29.5374 13.2338 22.4869C13.0889 22.342 12.988 22.1588 12.9431 21.9588 12.8982 21.7588 12.911 21.5501 12.9801 21.3571 13.0492 21.1641 13.1718 20.9947 13.3334 20.8686 13.4951 20.7425 13.6893 20.665 13.8933 20.645L22.4459 19.7888 26.8921 10.8987C26.9824 10.7191 27.1208 10.5681 27.2921 10.4628 27.4632 10.3575 27.6603 10.3019 27.8614 10.3024 28.0624 10.3029 28.2593 10.3593 28.43 10.4654 28.6008 10.5715 28.7385 10.7231 28.8279 10.9032Z" stroke="#66737C" stroke-width="3.57143" stroke-linecap="round" stroke-linejoin="round"/></svg>