<svg width="60" height="60" viewBox="-2.14 -2.14 60 60" xmlns="http://www.w3.org/2000/svg" xmlns:xlink="http://www.w3.org/1999/xlink" id="Satellite--Streamline-Ultimate.svg" overflow="hidden"><path d="M48.3557 33.3322C40.8752 40.812 28.7475 40.8115 21.2676 33.331 13.7878 25.8505 13.7883 13.7228 21.2688 6.24296Z" stroke="#66737C" stroke-width="3.57143" stroke-linecap="round" stroke-linejoin="round" fill="none"/><path d="M49.5885 12.4C47.5485 14.44 44.241 14.44 42.201 12.4 40.161 10.36 40.161 7.05247 42.201 5.01248 44.241 2.97251 47.5485 2.97251 49.5885 5.01248 51.6285 7.05065 51.63 10.3567 49.5918 12.3967 49.5907 12.3978 49.5896 12.3989 49.5885 12.4Z" stroke="#66737C" stroke-width="3.57143" stroke-linecap="round" stroke-linejoin="round" fill="none"/><path d="M42.2009 12.4 34.8134 19.7876" stroke="#66737C" stroke-width="3.57143" stroke-linecap="round" stroke-linejoin="round" fill="none"/><path d="M7.54542 52.2886 17.3962 42.4401C18.7562 41.0806 20.9606 41.0806 22.3205 42.4401L32.1713 52.2886" stroke="#66737C" stroke-width="3.57143" stroke-linecap="round" stroke-linejoin="round" fill="none"/></svg>