<svg width="60" height="60" viewBox="-2.14 -2.14 60 60" xmlns="http://www.w3.org/2000/svg" xmlns:xlink="http://www.w3.org/1999/xlink" id="Saving-Dog-Guard-Decrease--Streamline-Ultimate.svg" overflow="hidden"><g><path d="M22.1719 48.9175C26.6422 46.8226 29.5261 42.3615 29.6012 37.4253 29.5983 35.3695 28.9929 33.3597 27.86 31.6443 29.9886 29.6969 30.1355 26.3927 28.1881 24.2641 27.2087 23.1936 25.8283 22.5787 24.3775 22.5666 22.0647 22.418 19.9753 23.9411 19.4091 26.1884 18.8602 26.153 18.3096 26.153 17.7607 26.1884L13.5585 26.1884C13.0226 26.1924 12.4875 26.2312 11.9566 26.3045 11.0922 23.552 8.16013 22.0215 5.40768 22.8859 2.65522 23.7503 1.12465 26.6823 1.98906 29.4348 2.26335 30.3082 2.76235 31.0942 3.43607 31.714 2.31952 33.4345 1.7304 35.4439 1.74125 37.4949 1.86402 42.4324 4.79339 46.867 9.28667 48.9175" stroke="#66737C" stroke-width="3.57143" stroke-linecap="round" stroke-linejoin="round" fill="none"/><path d="M20.895 36.4269 22.0094 47.896C22.5484 50.6649 20.7407 53.3465 17.9718 53.8855 17.6803 53.9422 17.3844 53.9734 17.0875 53.9788L14.2086 53.9787C12.9207 53.9814 11.6846 53.4719 10.7725 52.5625 9.49164 51.386 8.92677 49.6208 9.28667 47.9192L10.4011 36.4502" stroke="#66737C" stroke-width="3.57143" stroke-linecap="round" stroke-linejoin="round" fill="none"/><path d="M15.6713 45.2725 15.6713 47.0137" stroke="#66737C" stroke-width="3.57143" stroke-linecap="round" stroke-linejoin="round" fill="none"/><path d="M53.9787 15.6713 53.9787 26.1187 43.5312 26.1187" stroke="#66737C" stroke-width="3.57143" stroke-linecap="round" stroke-linejoin="round" fill="none"/><path d="M53.9787 26.1187 42.2543 14.5104C40.9329 13.1499 38.98 12.6084 37.1467 13.0942L23.7971 16.6231C21.9978 17.1095 20.0758 16.5958 18.7591 15.2766L5.22375 1.74125" stroke="#66737C" stroke-width="3.57143" stroke-linecap="round" stroke-linejoin="round" fill="none"/></g></svg>