<svg width="60" height="60" viewBox="-2.14 -2.14 60 60" xmlns="http://www.w3.org/2000/svg" xmlns:xlink="http://www.w3.org/1999/xlink" id="Saving-Bull--Streamline-Ultimate.svg" overflow="hidden"><g><path d="M42.649 43.6473 43.9492 44.2277C45.2092 44.7951 46.0183 46.0498 46.0154 47.4316L46.0154 48.755C46.0279 49.7114 46.8002 50.4837 47.7567 50.4963L51.0767 50.4963C51.8734 50.4822 52.5646 49.9425 52.7715 49.1729L53.8395 44.8314C54.057 43.995 53.9491 43.1072 53.5376 42.3472L52.9108 41.1632C52.0512 39.4199 51.6516 37.4859 51.75 35.5447 51.7536 34.1921 51.4436 32.857 50.8445 31.6443L50.8445 31.6443C49.6611 29.2347 47.4194 27.5169 44.785 27.001 42.1382 26.4902 40.6756 26.4902 39.3058 25.1204L36.4502 22.2183C33.2917 19.0605 29.0063 17.2896 24.54 17.2964L24.54 17.2964C19.1073 17.2964 16.4374 19.2466 9.0545 25.3758 9.14827 22.5098 8.2549 19.6986 6.52388 17.4125 1.06797 28.5101 1.88055 29.0208 1.88055 30.9478 1.88055 30.9478 1.88055 30.5299 3.18068 37.4717 3.38449 38.5032 4.38588 39.1741 5.41736 38.9703 5.59238 38.9358 5.76166 38.8768 5.92025 38.795L5.92025 38.7951C9.0096 37.2526 11.3393 34.5206 12.3745 31.2264" stroke="#66737C" stroke-width="3.57143" stroke-linecap="round" stroke-linejoin="round" fill="none"/><path d="M41.7173 13.761C43.0956 14.164 44.7586 12.6251 45.4315 10.3238 46.1045 8.02238 45.5327 5.83 44.1543 5.42694 42.776 5.02388 41.113 6.56276 40.44 8.86414 39.7671 11.1655 40.3389 13.3579 41.7173 13.761" stroke="#66737C" stroke-width="3.57143" stroke-linecap="round" stroke-linejoin="round" fill="none"/><path d="M41.79 13.7675 41.79 13.7675C41.0495 16.3563 42.5478 19.0553 45.1366 19.7958 45.3186 19.8479 45.5036 19.8893 45.6904 19.9199L48.221 20.361C51.4225 20.8849 53.5931 23.9048 53.0693 27.1062 52.9491 27.8406 52.6905 28.5455 52.3072 29.1833L50.8909 31.505" stroke="#66737C" stroke-width="3.57143" stroke-linecap="round" stroke-linejoin="round" fill="none"/><path d="M10.6332 34.825 14.998 37.1467C16.794 37.7155 17.8193 39.6021 17.3196 41.4185L15.323 48.1514C15.0023 49.058 15.4773 50.0529 16.3839 50.3736 16.5799 50.443 16.7867 50.4766 16.9946 50.473L20.57 50.473C21.2332 50.4755 21.8387 50.096 22.1255 49.4979L24.4471 44.6921C26.1209 41.7928 29.2254 40.0188 32.573 40.0487L34.0356 40.0488" stroke="#66737C" stroke-width="3.57143" stroke-linecap="round" stroke-linejoin="round" fill="none"/><path d="M32.6659 32.9677C32.2104 34.9552 32.561 37.0422 33.641 38.7718 34.1189 39.5148 34.3165 40.4038 34.1982 41.2792L33.0141 48.2442C32.8474 49.1913 33.4801 50.0943 34.4272 50.2609 34.5279 50.2787 34.6299 50.2875 34.7321 50.2873L39.3755 50.2873C40.1722 50.2732 40.8634 49.7335 41.0703 48.964L42.1847 44.5064C42.3787 43.6693 42.8962 42.9431 43.6241 42.4865 46.7424 40.9807 49.4864 38.7998 51.6571 36.1019L51.6571 36.1019" stroke="#66737C" stroke-width="3.57143" stroke-linecap="round" stroke-linejoin="round" fill="none"/></g></svg>