<svg width="60" height="60" viewBox="-1.875 -1.875 60 60" xmlns="http://www.w3.org/2000/svg" xmlns:xlink="http://www.w3.org/1999/xlink" id="Saving-Bank-International--Streamline-Ultimate" overflow="hidden"><path d="M22.8516 54.4922 52.7344 54.4922" stroke="#66737C" stroke-width="3.33333" stroke-linecap="round" stroke-linejoin="round" fill="none"/><path d="M26.3672 36.9141 26.3672 54.4922" stroke="#66737C" stroke-width="3.33333" stroke-linecap="round" stroke-linejoin="round" fill="none"/><path d="M33.3984 36.9141 33.3984 54.4922" stroke="#66737C" stroke-width="3.33333" stroke-linecap="round" stroke-linejoin="round" fill="none"/><path d="M42.1875 36.9141 42.1875 54.4922" stroke="#66737C" stroke-width="3.33333" stroke-linecap="round" stroke-linejoin="round" fill="none"/><path d="M49.2188 36.9141 49.2188 54.4922" stroke="#66737C" stroke-width="3.33333" stroke-linecap="round" stroke-linejoin="round" fill="none"/><path d="M54.4922 36.9141 21.0938 36.9141 36.5039 26.7867C37.2719 26.2263 38.314 26.2263 39.082 26.7867Z" stroke="#66737C" stroke-width="3.33333" stroke-linecap="round" stroke-linejoin="round" fill="none"/><path d="M13.4461 50.032C1.34368 41.9263-1.8963 25.5444 6.2094 13.442 14.3151 1.33961 30.697-1.90037 42.7994 6.20532 49.5938 10.7559 53.893 18.2008 54.4383 26.3602" stroke="#66737C" stroke-width="3.33333" stroke-linecap="round" stroke-linejoin="round" fill="none"/><path d="M16.0406 31.6242C15.6977 26.9873 15.8801 22.3264 16.5844 17.7305 17.2144 12.3525 18.9825 7.17037 21.7711 2.52891" stroke="#66737C" stroke-width="3.33333" stroke-linecap="round" stroke-linejoin="round" fill="none"/><path d="M1.81641 26.3672 15.8203 26.3672" stroke="#66737C" stroke-width="3.33333" stroke-linecap="round" stroke-linejoin="round" fill="none"/><path d="M5.81719 14.0625 50.4328 14.0625" stroke="#66737C" stroke-width="3.33333" stroke-linecap="round" stroke-linejoin="round" fill="none"/><path d="M3.95156 38.6719 14.0625 38.6719" stroke="#66737C" stroke-width="3.33333" stroke-linecap="round" stroke-linejoin="round" fill="none"/><path d="M34.4789 2.52891C37.5251 7.67758 39.3768 13.4443 39.8977 19.4039" stroke="#66737C" stroke-width="3.33333" stroke-linecap="round" stroke-linejoin="round" fill="none"/></svg>