<svg width="60" height="60" viewBox="-2.14 -2.14 60 60" xmlns="http://www.w3.org/2000/svg" xmlns:xlink="http://www.w3.org/1999/xlink" id="Science-Gmo--Streamline-Ultimate.svg" overflow="hidden"><defs></defs><path d="M12.01 41.6275C13.4204 41.9884 14.8701 42.1732 16.326 42.1777 21.6426 42.1777 25.6289 38.282 32.2735 38.282 33.6039 38.2907 34.9304 38.4283 36.2342 38.6929" stroke="#66737C" stroke-width="3.57143" stroke-linecap="round" stroke-linejoin="round" fill="none"/><path d="M16.052 26.0932 34.6253 26.0932" stroke="#66737C" stroke-width="3.57143" stroke-linecap="round" stroke-linejoin="round" fill="none"/><path d="M15.7572 53.9532C12.1677 54.0269 9.19814 51.1768 9.12447 47.5873 9.09262 46.0354 9.61709 44.5234 10.6031 43.3246L19.5345 32.5451 19.5345 26.0932 31.1428 26.0932 31.1428 32.5451 40.072 43.3246C42.3525 46.0975 41.9533 50.1941 39.1805 52.4746 37.9823 53.46 36.4712 53.9845 34.9202 53.9532Z" stroke="#66737C" stroke-width="3.57143" stroke-linecap="round" stroke-linejoin="round" fill="none"/><path d="M31.5306 16.4838C31.5306 16.4838 34.825 20.9623 38.7858 19.8665 46.835 17.647 44.3299 6.86517 46.633 2.48651 41.0378 0.856571 35.0005 2.00362 30.3929 5.572 26.5808 8.71786 27.0079 12.8156 31.5306 16.4838Z" stroke="#66737C" stroke-width="3.57143" stroke-linecap="round" stroke-linejoin="round" fill="none"/><path d="M26.0723 26.0932C27.8746 19.5372 31.6837 13.7098 36.9656 9.42829" stroke="#66737C" stroke-width="3.57143" stroke-linecap="round" stroke-linejoin="round" fill="none"/></svg>