<svg width="60" height="60" viewBox="-1.875 -1.875 60 60" xmlns="http://www.w3.org/2000/svg" xmlns:xlink="http://www.w3.org/1999/xlink" id="Science-Molecule-Strucutre--Streamline-Ultimate" stroke="#000000" overflow="hidden"><path d="M1.75781 40.4297C1.75781 48.1962 8.05381 54.4922 15.8203 54.4922 23.5868 54.4922 29.8828 48.1962 29.8828 40.4297 29.8828 32.6632 23.5868 26.3672 15.8203 26.3672 8.05381 26.3672 1.75781 32.6632 1.75781 40.4297" stroke="#66737C" stroke-width="3.57143" stroke-linecap="round" stroke-linejoin="round" fill="none"/><path d="M8.78906 40.4297C8.78906 36.5464 11.9371 33.3984 15.8203 33.3984" stroke="#66737C" stroke-width="3.57143" stroke-linecap="round" stroke-linejoin="round" fill="none"/><path d="M33.3984 19.3359C33.3984 25.1608 38.1204 29.8828 43.9453 29.8828 49.7702 29.8828 54.4922 25.1608 54.4922 19.3359 54.4922 13.5111 49.7702 8.78906 43.9453 8.78906 38.1204 8.78906 33.3984 13.5111 33.3984 19.3359" stroke="#66737C" stroke-width="3.57143" stroke-linecap="round" stroke-linejoin="round" fill="none"/><path d="M40.4297 19.3359C40.4297 17.3943 42.0037 15.8203 43.9453 15.8203" stroke="#66737C" stroke-width="3.57143" stroke-linecap="round" stroke-linejoin="round" fill="none"/><path d="M8.78906 7.03125C8.78906 9.94369 11.1501 12.3047 14.0625 12.3047 16.9749 12.3047 19.3359 9.94369 19.3359 7.03125 19.3359 4.11881 16.9749 1.75781 14.0625 1.75781 11.1501 1.75781 8.78906 4.11881 8.78906 7.03125" stroke="#66737C" stroke-width="3.57143" stroke-linecap="round" stroke-linejoin="round" fill="none"/><path d="M28.0336 33.4547 36.0867 26.3672M34.3078 15.0469 19.0992 8.5875" stroke="#66737C" stroke-width="3.57143" stroke-linecap="round" stroke-linejoin="round" fill="none"/></svg>