<svg width="60" height="60" viewBox="-2.14 -2.14 60 60" xmlns="http://www.w3.org/2000/svg" xmlns:xlink="http://www.w3.org/1999/xlink" id="Search-1--Streamline-Ultimate.svg" overflow="hidden"><path d="M10.3036 22.2926C10.3036 28.914 15.6713 34.2817 22.2926 34.2817 28.914 34.2817 34.2817 28.914 34.2817 22.2926 34.2817 15.6713 28.914 10.3036 22.2926 10.3036 15.6713 10.3036 10.3036 15.6713 10.3036 22.2926Z" stroke="#66737C" stroke-width="3.57143" stroke-linecap="round" stroke-linejoin="round" fill="none"/><path d="M39.5357 33.4808 52.7251 46.6655C54.3977 48.3388 54.3972 51.0512 52.7239 52.7239 51.0506 54.3965 48.3382 54.396 46.6655 52.7227L33.4784 39.5357C23.9554 45.7184 11.2233 43.0104 5.0406 33.4874-1.1421 23.9643 1.56581 11.2322 11.0889 5.04953 20.612-1.13317 33.344 1.57475 39.5267 11.0978 43.9456 17.9041 43.9472 26.6728 39.531 33.4808Z" stroke="#66737C" stroke-width="3.57143" stroke-linejoin="round" fill="none"/></svg>