<svg width="44.8" height="44.8" viewBox="-1.6 -1.6 44.8 44.8" xmlns="http://www.w3.org/2000/svg" xmlns:xlink="http://www.w3.org/1999/xlink" id="Security-Shield--Streamline-Core" fill="none" overflow="hidden"><g id="security-shield--business-money-protection-shield-insurance-secure-payment-security-cash"><path d="M25.8571 14.4033C25.6832 13.9112 25.4148 13.4637 25.0737 13.0827 24.3483 12.2721 23.294 11.762 22.1207 11.762L19.054 11.762C17.1008 11.762 15.5175 13.3454 15.5175 15.2985 15.5175 16.9605 16.6747 18.3982 18.2983 18.7534L22.9673 19.7747C24.7861 20.1726 26.0825 21.7844 26.0825 23.6463 26.0825 25.8344 24.3088 27.6097 22.1207 27.6097L19.4794 27.6097C17.7543 27.6097 16.2868 26.5072 15.7429 24.9684" id="Vector 3" stroke="#66737C" stroke-width="2.67857" stroke-linecap="round" stroke-linejoin="round"/><path d="M20.8 11.7619 20.8 7.8" id="Vector 2489" stroke="#66737C" stroke-width="2.67857" stroke-linecap="round" stroke-linejoin="round"/><path d="M20.8 31.5714 20.8 27.6094" id="Vector 2490" stroke="#66737C" stroke-width="2.67857" stroke-linecap="round" stroke-linejoin="round"/><path d="M35.6571 2.97143 5.94286 2.97143C4.3018 2.97143 2.97143 4.3018 2.97143 5.94286L2.97143 14.4814C2.97143 25.3529 9.92802 35.0046 20.2416 38.4426L20.8 38.6286 21.3584 38.4426C31.6719 35.0046 38.6286 25.3529 38.6286 14.4814L38.6286 5.94286C38.6286 4.3018 37.2983 2.97143 35.6571 2.97143Z" id="Vector 3701" stroke="#66737C" stroke-width="2.67857" stroke-linecap="round" stroke-linejoin="round"/></g></svg>