<svg width="60" height="60" viewBox="-1.875 -1.875 60 60" xmlns="http://www.w3.org/2000/svg" xmlns:xlink="http://www.w3.org/1999/xlink" id="Self-Adhesive-2--Streamline-Ultimate" overflow="hidden"><defs></defs><path d="M5.43984 28.125C5.43984 38.3884 13.76 46.7086 24.0234 46.7086 34.2869 46.7086 42.607 38.3884 42.607 28.125 42.607 17.8616 34.2869 9.54141 24.0234 9.54141 13.76 9.54141 5.43985 17.8616 5.43985 28.125" stroke="#66737C" stroke-width="3.33333" stroke-linecap="round" stroke-linejoin="round" fill="none"/><path d="M15.7641 28.125C15.7641 32.6865 19.4619 36.3844 24.0234 36.3844 28.585 36.3844 32.2828 32.6865 32.2828 28.125 32.2828 23.5635 28.585 19.8656 24.0234 19.8656 19.4619 19.8656 15.7641 23.5635 15.7641 28.125" stroke="#66737C" stroke-width="3.33333" stroke-linecap="round" stroke-linejoin="round" fill="none"/><path d="M22.6852 46.7086 50.8102 46.7086 46.1227 40.8492 50.8102 34.9898 41.4352 34.9898" stroke="#66737C" stroke-width="3.33333" stroke-linecap="round" stroke-linejoin="round" fill="none"/></svg>