<svg width="60" height="60" viewBox="-1.875 -1.875 60 60" xmlns="http://www.w3.org/2000/svg" xmlns:xlink="http://www.w3.org/1999/xlink" id="Send-Email-Fly--Streamline-Ultimate" overflow="hidden"><defs></defs><path d="M15.8203 1.75781 40.4297 1.75781C40.4297 1.75781 43.9453 1.75781 43.9453 5.27344L43.9453 22.8516C43.9453 22.8516 43.9453 26.3672 40.4297 26.3672L15.8203 26.3672C15.8203 26.3672 12.3047 26.3672 12.3047 22.8516L12.3047 5.27344C12.3047 5.27344 12.3047 1.75781 15.8203 1.75781" stroke="#66737C" stroke-width="3.57143" stroke-linecap="round" stroke-linejoin="round" fill="none"/><path d="M12.3047 5.27344 28.125 14.0625 43.9453 5.27344" stroke="#66737C" stroke-width="3.57143" stroke-linecap="round" stroke-linejoin="round" fill="none"/><path d="M43.9453 7.03125 54.4922 1.75781C54.4922 21.0938 43.9453 19.3359 43.9453 19.3359" stroke="#66737C" stroke-width="3.57143" stroke-linecap="round" stroke-linejoin="round" fill="none"/><path d="M12.3047 7.03125 1.75781 1.75781C1.75781 21.0938 12.3047 19.3359 12.3047 19.3359" stroke="#66737C" stroke-width="3.57143" stroke-linecap="round" stroke-linejoin="round" fill="none"/><path d="M28.125 36.9141 28.125 54.4922" stroke="#66737C" stroke-width="3.57143" stroke-linecap="round" stroke-linejoin="round" fill="none"/><path d="M36.9141 33.3984 36.9141 43.9453" stroke="#66737C" stroke-width="3.57143" stroke-linecap="round" stroke-linejoin="round" fill="none"/><path d="M19.3359 33.3984 19.3359 43.9453" stroke="#66737C" stroke-width="3.57143" stroke-linecap="round" stroke-linejoin="round" fill="none"/></svg>