<svg width="60" height="60" viewBox="-1.875 -1.875 60 60" xmlns="http://www.w3.org/2000/svg" xmlns:xlink="http://www.w3.org/1999/xlink" id="Server-Download-1--Streamline-Ultimate" fill="none" overflow="hidden"><style>
.MsftOfcResponsive_Stroke_66737c {
 stroke:#66737C; 
}
</style>
<path d="M22.8516 8.78963 26.3672 8.78963" class="MsftOfcResponsive_Stroke_66737c" stroke="#66737C" stroke-width="3.33333" stroke-linecap="round" stroke-linejoin="round"/><path d="M33.3984 8.78963 36.9141 8.78963" class="MsftOfcResponsive_Stroke_66737c" stroke="#66737C" stroke-width="3.33333" stroke-linecap="round" stroke-linejoin="round"/><path d="M22.8516 22.8521 26.3672 22.8521" class="MsftOfcResponsive_Stroke_66737c" stroke="#66737C" stroke-width="3.33333" stroke-linecap="round" stroke-linejoin="round"/><path d="M10.5492 43.9458 19.3382 43.9458 19.3382 29.8833" class="MsftOfcResponsive_Stroke_66737c" stroke="#66737C" stroke-width="3.33333" stroke-linecap="round" stroke-linejoin="round"/><path d="M43.9453 8.78963C43.9453 10.6544 43.2045 12.4429 41.8859 13.7615 40.5673 15.0801 38.7788 15.8209 36.9141 15.8209L8.78906 15.8209C6.92426 15.8209 5.13584 15.0801 3.81722 13.7615 2.4986 12.4429 1.75781 10.6544 1.75781 8.78963 1.75781 6.92482 2.4986 5.1364 3.81722 3.81778 5.13584 2.49916 6.92426 1.75838 8.78906 1.75838L36.9141 1.75838C38.7788 1.75838 40.5673 2.49916 41.8859 3.81778 43.2045 5.1364 43.9453 6.92482 43.9453 8.78963Z" class="MsftOfcResponsive_Stroke_66737c" stroke="#66737C" stroke-width="3.33333" stroke-linecap="round" stroke-linejoin="round"/><path d="M21.0938 29.8833 8.78906 29.8833C6.92426 29.8833 5.13584 29.1427 3.81722 27.8241 2.4986 26.5055 1.75781 24.717 1.75781 22.8521 1.75781 20.9873 2.4986 19.1989 3.81722 17.8803 5.13584 16.5617 6.92426 15.8209 8.78906 15.8209L36.9141 15.8209C38.149 15.8201 39.3626 16.1446 40.4323 16.7618 41.502 17.3789 42.3902 18.267 43.0078 19.3365" class="MsftOfcResponsive_Stroke_66737c" stroke="#66737C" stroke-width="3.33333" stroke-linecap="round" stroke-linejoin="round"/><path d="M40.432 54.4927C48.1985 54.4927 54.4945 48.1969 54.4945 40.4302 54.4945 32.6637 48.1985 26.3677 40.432 26.3677 32.6655 26.3677 26.3695 32.6637 26.3695 40.4302 26.3695 48.1969 32.6655 54.4927 40.432 54.4927Z" class="MsftOfcResponsive_Stroke_66737c" stroke="#66737C" stroke-width="3.33333" stroke-linecap="round" stroke-linejoin="round"/><path d="M40.432 33.3989 40.432 47.4614" class="MsftOfcResponsive_Stroke_66737c" stroke="#66737C" stroke-width="3.33333" stroke-linecap="round" stroke-linejoin="round"/><path d="M40.432 47.4614 35.1586 42.188" class="MsftOfcResponsive_Stroke_66737c" stroke="#66737C" stroke-width="3.33333" stroke-linecap="round" stroke-linejoin="round"/><path d="M40.432 47.4614 45.7055 42.188" class="MsftOfcResponsive_Stroke_66737c" stroke="#66737C" stroke-width="3.33333" stroke-linecap="round" stroke-linejoin="round"/><path d="M10.5492 9.66853C10.0638 9.66853 9.67027 9.27504 9.67027 8.78963 9.67027 8.30423 10.0638 7.91072 10.5492 7.91072" class="MsftOfcResponsive_Stroke_66737c" stroke="#66737C" stroke-width="3.33333"/><path d="M10.5492 9.66853C11.0346 9.66853 11.4281 9.27504 11.4281 8.78963 11.4281 8.30423 11.0346 7.91072 10.5492 7.91072" class="MsftOfcResponsive_Stroke_66737c" stroke="#66737C" stroke-width="3.33333"/><path d="M10.5492 23.7309C10.0638 23.7309 9.67027 23.3375 9.67027 22.8521 9.67027 22.3667 10.0638 21.9732 10.5492 21.9732" class="MsftOfcResponsive_Stroke_66737c" stroke="#66737C" stroke-width="3.33333"/><path d="M10.5492 23.7309C11.0346 23.7309 11.4281 23.3375 11.4281 22.8521 11.4281 22.3667 11.0346 21.9732 10.5492 21.9732" class="MsftOfcResponsive_Stroke_66737c" stroke="#66737C" stroke-width="3.33333"/><g><path d="M2.63902 43.9458C2.1536 43.9458 1.7601 43.5525 1.7601 43.0669 1.7601 42.5815 2.1536 42.188 2.63902 42.188" class="MsftOfcResponsive_Stroke_66737c" stroke="#66737C" stroke-width="3.33333"/><path d="M2.63902 43.9458C3.12441 43.9458 3.51792 43.5525 3.51792 43.0669 3.51792 42.5815 3.12441 42.188 2.63902 42.188" class="MsftOfcResponsive_Stroke_66737c" stroke="#66737C" stroke-width="3.33333"/></g></svg>