<svg width="60" height="60" viewBox="-1.875 -1.875 60 60" xmlns="http://www.w3.org/2000/svg" xmlns:xlink="http://www.w3.org/1999/xlink" id="Server-Settings-1--Streamline-Ultimate" fill="none" overflow="hidden"><path d="M22.8539 8.78963 26.3695 8.78963" stroke="#66737C" stroke-width="3.33333" stroke-linecap="round" stroke-linejoin="round"/><path d="M33.4008 8.78963 36.9164 8.78963" stroke="#66737C" stroke-width="3.33333" stroke-linecap="round" stroke-linejoin="round"/><path d="M22.8539 22.8521 26.3695 22.8521" stroke="#66737C" stroke-width="3.33333" stroke-linecap="round" stroke-linejoin="round"/><path d="M10.5492 43.9458 19.3382 43.9458 19.3382 29.8833" stroke="#66737C" stroke-width="3.33333" stroke-linecap="round" stroke-linejoin="round"/><path d="M43.9477 8.78963C43.9477 10.6544 43.2068 12.4429 41.8882 13.7615 40.5696 15.0801 38.7811 15.8209 36.9164 15.8209L8.79136 15.8209C6.92655 15.8209 5.13813 15.0801 3.81952 13.7615 2.5009 12.4429 1.7601 10.6544 1.7601 8.78963 1.7601 6.92482 2.5009 5.1364 3.81952 3.81778 5.13813 2.49916 6.92655 1.75838 8.79136 1.75838L36.9164 1.75838C38.7811 1.75838 40.5696 2.49916 41.8882 3.81778 43.2068 5.1364 43.9477 6.92482 43.9477 8.78963L43.9477 8.78963Z" stroke="#66737C" stroke-width="3.33333" stroke-linecap="round" stroke-linejoin="round"/><path d="M19.3382 29.8833 8.79136 29.8833C6.92655 29.8833 5.13813 29.1427 3.81952 27.8241 2.5009 26.5055 1.7601 24.717 1.7601 22.8521 1.7601 20.9873 2.5009 19.1989 3.81952 17.8803 5.13813 16.5617 6.92655 15.8209 8.79136 15.8209L36.9164 15.8209" stroke="#66737C" stroke-width="3.33333" stroke-linecap="round" stroke-linejoin="round"/><path d="M40.4297 42.188C42.3713 42.188 43.9453 40.6141 43.9453 38.6723 43.9453 36.7308 42.3713 35.1567 40.4297 35.1567 38.4881 35.1567 36.9141 36.7308 36.9141 38.6723 36.9141 40.6141 38.4881 42.188 40.4297 42.188Z" stroke="#66737C" stroke-width="3.33333" stroke-linecap="round" stroke-linejoin="round"/><path d="M43.4156 25.0788 44.4539 28.4843C44.6245 29.0494 45.0033 29.5284 45.5135 29.8249 46.024 30.1212 46.628 30.2126 47.2031 30.0804L50.6555 29.2812C51.3096 29.1328 51.9942 29.198 52.6085 29.4673 53.2228 29.7366 53.7347 30.1957 54.0687 30.7774 54.4029 31.3591 54.5416 32.0325 54.4648 32.6988 54.3879 33.3652 54.0991 33.9893 53.6414 34.4796L51.225 37.0835C50.8219 37.5171 50.5976 38.0873 50.5976 38.6796 50.5976 39.2719 50.8219 39.8421 51.225 40.2757L53.6414 42.8796C54.0991 43.3699 54.3879 43.9941 54.4648 44.6604 54.5416 45.3267 54.4029 46.0001 54.0687 46.5818 53.7347 47.1633 53.2228 47.6227 52.6085 47.892 51.9942 48.1613 51.3096 48.2264 50.6555 48.078L47.2031 47.2788C46.628 47.1466 46.024 47.238 45.5135 47.5343 45.0033 47.8305 44.6245 48.3098 44.4539 48.8749L43.4156 52.2663C43.2232 52.9085 42.8288 53.4717 42.2909 53.872 41.753 54.2723 41.1002 54.4884 40.4297 54.4884 39.7591 54.4884 39.1066 54.2723 38.5687 53.872 38.0309 53.4717 37.6364 52.9085 37.4437 52.2663L36.4078 48.8609C36.237 48.2955 35.8577 47.8165 35.3468 47.52 34.8361 47.2238 34.2319 47.1326 33.6562 47.2648L30.2062 48.064C29.5521 48.2123 28.8677 48.1472 28.2534 47.8779 27.6391 47.6086 27.1273 47.1492 26.793 46.5677 26.4591 45.986 26.3203 45.3127 26.3972 44.6463 26.4741 43.98 26.7626 43.3559 27.2203 42.8655L29.6344 40.2616C30.0377 39.828 30.2618 39.2578 30.2618 38.6655 30.2618 38.0733 30.0377 37.503 29.6344 37.0695L27.2203 34.4655C26.7626 33.9752 26.4741 33.3511 26.3972 32.6848 26.3203 32.0184 26.4591 31.3451 26.793 30.7634 27.1273 30.1816 27.6391 29.7225 28.2534 29.4532 28.8677 29.1839 29.5521 29.1187 30.2062 29.2671L33.6562 30.0663C34.2319 30.1985 34.8361 30.1073 35.3468 29.8109 35.8577 29.5146 36.237 29.0355 36.4078 28.4702L37.4437 25.0648C37.6378 24.4228 38.0337 23.8608 38.5725 23.4616 39.1113 23.0627 39.7645 22.848 40.4351 22.8496 41.1054 22.8511 41.7577 23.0689 42.2946 23.4705 42.8316 23.872 43.2246 24.4362 43.4156 25.0788Z" stroke="#66737C" stroke-width="3.33333" stroke-linecap="round" stroke-linejoin="round"/><path d="M10.5469 9.66853C10.0615 9.66853 9.66797 9.27504 9.66797 8.78963 9.66797 8.30423 10.0615 7.91072 10.5469 7.91072" stroke="#66737C" stroke-width="3.33333"/><path d="M10.5469 9.66853C11.0323 9.66853 11.4258 9.27504 11.4258 8.78963 11.4258 8.30423 11.0323 7.91072 10.5469 7.91072" stroke="#66737C" stroke-width="3.33333"/><path d="M10.5492 23.7309C10.0638 23.7309 9.67027 23.3375 9.67027 22.8521 9.67027 22.3667 10.0638 21.9732 10.5492 21.9732" stroke="#66737C" stroke-width="3.33333"/><path d="M10.5492 23.7309C11.0346 23.7309 11.4281 23.3375 11.4281 22.8521 11.4281 22.3667 11.0346 21.9732 10.5492 21.9732" stroke="#66737C" stroke-width="3.33333"/><g><path d="M2.63902 43.9458C2.1536 43.9458 1.7601 43.5525 1.7601 43.0669 1.7601 42.5815 2.1536 42.188 2.63902 42.188" stroke="#66737C" stroke-width="3.33333"/><path d="M2.63902 43.9458C3.12441 43.9458 3.51792 43.5525 3.51792 43.0669 3.51792 42.5815 3.12441 42.188 2.63902 42.188" stroke="#66737C" stroke-width="3.33333"/></g></svg>