<svg width="60" height="60" viewBox="-1.875 -1.875 60 60" xmlns="http://www.w3.org/2000/svg" xmlns:xlink="http://www.w3.org/1999/xlink" id="Service-Failure-Warning-2--Streamline-Ultimate" fill="none" overflow="hidden"><path d="M40.4295 49.2188C39.9441 49.2188 39.5505 48.8252 39.5505 48.3398 39.5505 47.8545 39.9441 47.4609 40.4295 47.4609" stroke="#66737C" stroke-width="3.33333" stroke-linecap="round" stroke-linejoin="round"/><path d="M40.4295 49.2188C40.9148 49.2188 41.3084 48.8252 41.3084 48.3398 41.3084 47.8545 40.9148 47.4609 40.4295 47.4609" stroke="#66737C" stroke-width="3.33333" stroke-linecap="round" stroke-linejoin="round"/><path d="M40.4295 42.1875 40.4295 35.1562" stroke="#66737C" stroke-width="3.33333" stroke-linecap="round" stroke-linejoin="round"/><path d="M54.0537 48.4758C54.3703 49.1095 54.5198 49.8141 54.488 50.5219 54.4559 51.2299 54.2435 51.9178 53.8709 52.5206 53.4982 53.1234 52.9777 53.621 52.3587 53.966 51.7397 54.311 51.0427 54.4922 50.3341 54.4922L30.5248 54.4922C29.816 54.4922 29.119 54.311 28.5 53.966 27.881 53.621 27.3605 53.1234 26.9878 52.5206 26.6152 51.9178 26.4028 51.2299 26.3709 50.5219 26.3388 49.8141 26.4884 49.1095 26.8052 48.4758L36.7099 28.6664C37.0549 27.9752 37.5858 27.3942 38.2427 26.988 38.8999 26.5819 39.657 26.3667 40.4295 26.3667 41.2017 26.3667 41.959 26.5819 42.6159 26.988 43.2729 27.3942 43.8037 27.9752 44.149 28.6664L54.0537 48.4758Z" stroke="#66737C" stroke-width="3.33333" stroke-linecap="round" stroke-linejoin="round"/><path d="M34.5026 21.7684C34.1766 21.4728 33.9176 21.1105 33.7437 20.7061 33.5698 20.3017 33.4849 19.8647 33.4948 19.4246 33.488 18.985 33.5742 18.5489 33.7479 18.1449 33.9216 17.741 34.1789 17.3783 34.5026 17.0809L36.1432 15.6278C36.6124 15.2034 36.9389 14.6445 37.0781 14.0275 37.2176 13.4105 37.163 12.7655 36.9218 12.1807 36.6809 11.5959 36.2651 11.0998 35.7312 10.7603 35.1975 10.4209 34.572 10.2545 33.9401 10.284L31.737 10.4012C31.3092 10.4249 30.881 10.3581 30.4807 10.2051 30.0804 10.0522 29.7169 9.81647 29.4138 9.51344 29.1108 9.21042 28.875 8.84686 28.7222 8.44655 28.5691 8.04621 28.5023 7.61812 28.526 7.19025L28.526 5.01056C28.5691 4.37616 28.4123 3.74421 28.0781 3.20327 27.7441 2.66234 27.2489 2.2395 26.6625 1.99402 26.0759 1.74855 25.4271 1.69273 24.8074 1.83439 24.1875 1.97605 23.6273 2.30809 23.2057 2.784L21.7292 4.42462C21.4414 4.74169 21.0905 4.99505 20.6989 5.16841 20.3074 5.3418 19.884 5.43136 19.4557 5.43136 19.0275 5.43136 18.6041 5.3418 18.2126 5.16841 17.821 4.99505 17.4701 4.74169 17.1823 4.42462L15.7058 2.784C15.2841 2.30809 14.724 1.97605 14.1042 1.83439 13.4843 1.69273 12.8356 1.74855 12.2491 1.99402 11.6625 2.2395 11.1675 2.66234 10.8333 3.20327 10.4991 3.74421 10.3425 4.37616 10.3854 5.01056L10.3854 7.19025C10.4092 7.61812 10.3424 8.04621 10.1894 8.44655 10.0364 8.84686 9.80074 9.21042 9.49769 9.51344 9.19467 9.81647 8.83113 10.0522 8.4308 10.2051 8.03048 10.3581 7.6024 10.4249 7.1745 10.4012L4.97137 10.284C4.33952 10.2545 3.71398 10.4209 3.18026 10.7603 2.64654 11.0998 2.23069 11.5959 1.98959 12.1807 1.74849 12.7655 1.6939 13.4105 1.83327 14.0275 1.97265 14.6445 2.29919 15.2034 2.76825 15.6278L4.40887 17.0809C4.73266 17.3783 4.98984 17.741 5.16354 18.1449 5.33723 18.5489 5.42351 18.985 5.41669 19.4246 5.42653 19.8647 5.34164 20.3017 5.16773 20.7061 4.99385 21.1105 4.73505 21.4728 4.40887 21.7684L2.76825 23.2449C2.30044 23.6698 1.97512 24.2288 1.8367 24.8454 1.69827 25.4618 1.75349 26.1061 1.99481 26.6902 2.23623 27.2721 2.65209 27.765 3.18516 28.1006 3.71822 28.4365 4.34227 28.5989 4.97137 28.5652L7.1745 28.5652C7.6024 28.5415 8.03048 28.6083 8.4308 28.7613 8.83113 28.9141 9.19467 29.1499 9.49769 29.453 9.80074 29.756 10.0364 30.1195 10.1894 30.5198 10.3424 30.9202 10.4092 31.3484 10.3854 31.7761L10.3854 33.9558C10.3479 34.5881 10.5084 35.2165 10.8446 35.7534 11.1808 36.2904 11.676 36.7092 12.2613 36.9516 12.8465 37.1939 13.4928 37.2478 14.1102 37.1058 14.7275 36.9637 15.2852 36.6328 15.7058 36.1589L17.1823 34.5417C17.4701 34.2248 17.821 33.9715 18.2126 33.798 18.6041 33.6246 19.0275 33.5351 19.4557 33.5351 19.884 33.5351 20.3074 33.6246 20.6989 33.798 21.0905 33.9715 21.4414 34.2248 21.7292 34.5417L23.2057 36.1589C23.6262 36.6328 24.184 36.9637 24.8013 37.1058" stroke="#66737C" stroke-width="3.33333" stroke-linecap="round" stroke-linejoin="round"/><path d="M19.4559 25.1175C22.6388 25.1175 25.219 22.5372 25.219 19.3544 25.219 16.1715 22.6388 13.5913 19.4559 13.5913 16.2731 13.5913 13.6929 16.1715 13.6929 19.3544 13.6929 22.5372 16.2731 25.1175 19.4559 25.1175Z" stroke="#66737C" stroke-width="3.33333" stroke-linecap="round" stroke-linejoin="round"/></svg>