<svg width="60" height="60" viewBox="-1.875 -1.875 60 60" xmlns="http://www.w3.org/2000/svg" xmlns:xlink="http://www.w3.org/1999/xlink" id="Settings-Slider--Streamline-Ultimate" overflow="hidden"><g><path d="M5.27344 1.75781 50.9766 1.75781C50.9766 1.75781 54.4922 1.75781 54.4922 5.27344L54.4922 50.9766C54.4922 50.9766 54.4922 54.4922 50.9766 54.4922L5.27344 54.4922C5.27344 54.4922 1.75781 54.4922 1.75781 50.9766L1.75781 5.27344C1.75781 5.27344 1.75781 1.75781 5.27344 1.75781" stroke="#66737C" stroke-width="3.33333" stroke-linecap="round" stroke-linejoin="round" fill="none"/><path d="M30.4688 36.9141 43.9453 36.9141" stroke="#66737C" stroke-width="3.33333" stroke-linecap="round" stroke-linejoin="round" fill="none"/><path d="M12.3047 36.9141 18.75 36.9141" stroke="#66737C" stroke-width="3.33333" stroke-linecap="round" stroke-linejoin="round" fill="none"/><path d="M30.4688 36.9141C30.4688 40.1501 27.8454 42.7734 24.6094 42.7734 21.3733 42.7734 18.75 40.1501 18.75 36.9141 18.75 33.678 21.3733 31.0547 24.6094 31.0547 27.8454 31.0547 30.4688 33.678 30.4688 36.9141Z" stroke="#66737C" stroke-width="3.33333" stroke-linecap="round" stroke-linejoin="round" fill="none" fill-rule="evenodd"/><path d="M32.8125 19.3359 12.3047 19.3359" stroke="#66737C" stroke-width="3.33333" stroke-linecap="round" stroke-linejoin="round" fill="none"/><path d="M44.5312 19.3359C44.5312 16.0999 41.9079 13.4766 38.6719 13.4766 35.4358 13.4766 32.8125 16.0999 32.8125 19.3359 32.8125 22.572 35.4358 25.1953 38.6719 25.1953 41.9079 25.1953 44.5312 22.572 44.5312 19.3359Z" stroke="#66737C" stroke-width="3.33333" stroke-linecap="round" stroke-linejoin="round" fill="none" fill-rule="evenodd"/></g></svg>