<svg width="60" height="60" viewBox="-1.875 -1.875 60 60" xmlns="http://www.w3.org/2000/svg" xmlns:xlink="http://www.w3.org/1999/xlink" id="Settings-User--Streamline-Ultimate" overflow="hidden"><style>
.MsftOfcResponsive_Stroke_66737c {
 stroke:#66737C; 
}
</style>
<g><g><path d="M24.6094 26.3672C17.8137 26.3672 12.3047 20.8582 12.3047 14.0625 12.3047 7.26681 17.8137 1.75781 24.6094 1.75781" class="MsftOfcResponsive_Stroke_66737c" stroke="#66737C" stroke-width="3.33333" stroke-linecap="round" stroke-linejoin="round" fill="none"/><path d="M1.75781 54.4922C1.77073 41.877 11.9942 31.6535 24.6094 31.6406" class="MsftOfcResponsive_Stroke_66737c" stroke="#66737C" stroke-width="3.33333" stroke-linecap="round" stroke-linejoin="round" fill="none"/></g><g><g><path d="M36.6094 9.09375 40.4297 5.27344" class="MsftOfcResponsive_Stroke_66737c" stroke="#66737C" stroke-width="3.33333" stroke-linecap="round" stroke-linejoin="round" fill="none"/><path d="M36.6094 19.0312 40.4297 22.8516" class="MsftOfcResponsive_Stroke_66737c" stroke="#66737C" stroke-width="3.33333" stroke-linecap="round" stroke-linejoin="round" fill="none"/><path d="M31.6406 7.03125C35.5239 7.03125 38.6719 10.1792 38.6719 14.0625 38.6719 17.9458 35.5239 21.0938 31.6406 21.0938" class="MsftOfcResponsive_Stroke_66737c" stroke="#66737C" stroke-width="3.33333" stroke-linecap="round" stroke-linejoin="round" fill="none"/><path d="M31.6406 7.03125 31.6406 1.75781" class="MsftOfcResponsive_Stroke_66737c" stroke="#66737C" stroke-width="3.33333" stroke-linecap="round" stroke-linejoin="round" fill="none"/><path d="M31.6406 21.0938 31.6406 26.3672" class="MsftOfcResponsive_Stroke_66737c" stroke="#66737C" stroke-width="3.33333" stroke-linecap="round" stroke-linejoin="round" fill="none"/><path d="M38.6719 14.0625 43.9453 14.0625" class="MsftOfcResponsive_Stroke_66737c" stroke="#66737C" stroke-width="3.33333" stroke-linecap="round" stroke-linejoin="round" fill="none"/></g><g><path d="M54.4922 54.4922 54.4922 50.9766 48.8672 50.9766C48.4244 48.7681 47.5567 46.6667 46.3125 44.7891L50.2734 40.8281 45.3047 35.8594 41.3438 39.8438C39.468 38.5913 37.3664 37.7156 35.1562 37.2656L35.1562 31.6406 31.6406 31.6406" class="MsftOfcResponsive_Stroke_66737c" stroke="#66737C" stroke-width="3.33333" stroke-linecap="round" stroke-linejoin="round" fill="none"/><path d="M31.6406 45.7031C36.4947 45.7031 40.4297 49.6381 40.4297 54.4922" class="MsftOfcResponsive_Stroke_66737c" stroke="#66737C" stroke-width="3.33333" stroke-linecap="round" stroke-linejoin="round" fill="none"/></g></g></g></svg>