<svg width="60" height="60" viewBox="-2.14 -2.14 60 60" xmlns="http://www.w3.org/2000/svg" xmlns:xlink="http://www.w3.org/1999/xlink" id="Shipping-Truck-Style-1--Streamline-Ultimate.svg" fill="none" overflow="hidden"><path d="M35.4056 22.0558 41.2098 22.0558C41.9063 22.0558 42.6028 22.5201 43.0672 22.9845L47.014 29.0208 52.3538 30.8782C53.2825 31.1103 53.979 32.039 53.979 32.9677L53.979 38.3075C53.979 39.7005 53.0503 40.6292 51.6573 40.6292L47.014 40.6292M30.7623 40.6292 37.7429 40.6292" stroke="#66737C" stroke-width="3.57143" stroke-linecap="round" stroke-linejoin="round" stroke-miterlimit="10"/><path d="M42.3706 45.2725C44.9349 45.2725 47.014 43.1937 47.014 40.6292 47.014 38.0647 44.9349 35.9858 42.3706 35.9858 39.8061 35.9858 37.7273 38.0647 37.7273 40.6292 37.7273 43.1937 39.8061 45.2725 42.3706 45.2725Z" stroke="#66737C" stroke-width="3.57143" stroke-linecap="round" stroke-linejoin="round" stroke-miterlimit="10"/><path d="M9.86708 40.6292 4.06278 40.6292C2.66978 40.6292 1.74111 39.7005 1.74111 38.3075L1.74111 31.3425 31.9227 31.3425 31.9227 40.6292 19.1537 40.6292" stroke="#66737C" stroke-width="3.57143" stroke-linecap="round" stroke-linejoin="round" stroke-miterlimit="10"/><path d="M14.5106 45.2725C17.075 45.2725 19.1539 43.1937 19.1539 40.6292 19.1539 38.0647 17.075 35.9858 14.5106 35.9858 11.9461 35.9858 9.86722 38.0647 9.86722 40.6292 9.86722 43.1937 11.9461 45.2725 14.5106 45.2725Z" stroke="#66737C" stroke-width="3.57143" stroke-linecap="round" stroke-linejoin="round" stroke-miterlimit="10"/><path d="M31.9231 10.4475 4.06306 10.4475C2.67006 10.4475 1.74139 11.3762 1.74139 12.7692L1.74139 31.3425 31.9231 31.3425 31.9231 10.4475Z" stroke="#66737C" stroke-width="3.57143" stroke-linecap="round" stroke-linejoin="round" stroke-miterlimit="10"/><path d="M31.9227 22.0558 43.531 22.0558 43.531 18.3411C43.531 16.4838 42.3702 14.6265 40.5129 13.93L31.9227 10.4475 31.9227 22.0558Z" stroke="#66737C" stroke-width="3.57143" stroke-linecap="round" stroke-linejoin="round" stroke-miterlimit="10"/></svg>