<svg width="60" height="60" viewBox="-2.14 -2.14 60 60" xmlns="http://www.w3.org/2000/svg" xmlns:xlink="http://www.w3.org/1999/xlink" id="Shipment-Tracking--Streamline-Ultimate.svg" overflow="hidden"><defs></defs><path d="M36.5662 21.2734C36.5647 21.7151 36.3238 22.1212 35.9371 22.3344 35.5454 22.5501 35.0693 22.5439 34.6834 22.3182L27.86 19.1537 20.9716 22.4993C20.5855 22.6961 20.1253 22.6812 19.7527 22.4598 19.383 22.2425 19.1553 21.8463 19.1537 21.4174L19.1537 1.74125 36.5662 1.74125Z" stroke="#66737C" stroke-width="3.57143" stroke-linecap="round" stroke-linejoin="round" fill="none"/><path d="M5.22375 1.74125 50.4963 1.74125C50.4963 1.74125 53.9787 1.74125 53.9787 5.22375L53.9787 50.4963C53.9787 50.4963 53.9787 53.9787 50.4963 53.9787L5.22375 53.9787C5.22375 53.9787 1.74125 53.9787 1.74125 50.4963L1.74125 5.22375C1.74125 5.22375 1.74125 1.74125 5.22375 1.74125" stroke="#66737C" stroke-width="3.57143" stroke-linecap="round" stroke-linejoin="round" fill="none"/><path d="M29.6012 38.3075 47.0137 38.3075 47.0137 47.0137 29.6012 47.0137Z" stroke="#66737C" stroke-width="3.57143" stroke-linecap="round" stroke-linejoin="round" fill="none"/></svg>