<svg width="60" height="60" viewBox="-2.14 -2.14 60 60" xmlns="http://www.w3.org/2000/svg" xmlns:xlink="http://www.w3.org/1999/xlink" id="Shipment-Lift--Streamline-Ultimate.svg" overflow="hidden"><g><path d="M5.1541 36.5662 15.6713 27.86 25.5848 36.5662" stroke="#66737C" stroke-width="3.57143" stroke-linecap="round" stroke-linejoin="round" fill="none"/><path d="M15.6713 13.3496 15.6713 27.86" stroke="#66737C" stroke-width="3.57143" stroke-linecap="round" stroke-linejoin="round" fill="none"/><path d="M46.8512 22.0558 52.9804 22.0558C52.9804 22.0558 53.9787 22.0558 53.9787 23.0541L53.9787 31.505C53.9787 31.505 53.9787 32.5033 52.9804 32.5033L46.8512 32.5033C46.8512 32.5033 45.8529 32.5033 45.8529 31.505L45.8529 23.0541C45.8529 23.0541 45.8529 22.0558 46.8512 22.0558" stroke="#66737C" stroke-width="3.57143" stroke-linecap="round" stroke-linejoin="round" fill="none"/><path d="M3.22712 36.5662 28.1154 36.5662C28.1154 36.5662 29.6012 36.5662 29.6012 38.0521L29.6012 52.4929C29.6012 52.4929 29.6012 53.9787 28.1154 53.9787L3.22712 53.9787C3.22712 53.9787 1.74125 53.9787 1.74125 52.4929L1.74125 38.0521C1.74125 38.0521 1.74125 36.5662 3.22712 36.5662" stroke="#66737C" stroke-width="3.57143" stroke-linecap="round" stroke-linejoin="round" fill="none"/><path d="M11.0279 43.5312 11.0279 47.0137" stroke="#66737C" stroke-width="3.57143" stroke-linecap="round" stroke-linejoin="round" fill="none"/><path d="M20.3146 43.5312 20.3146 47.0137" stroke="#66737C" stroke-width="3.57143" stroke-linecap="round" stroke-linejoin="round" fill="none"/><path d="M49.9158 13.3496 49.9158 22.0558" stroke="#66737C" stroke-width="3.57143" stroke-linecap="round" stroke-linejoin="round" fill="none"/><path d="M39.4683 1.8109C40.0822 1.65076 40.7356 1.78832 41.2328 2.18237L54.0484 13.3496 1.74125 13.3496Z" stroke="#66737C" stroke-width="3.57143" stroke-linecap="round" stroke-linejoin="round" fill="none"/><path d="M40.0488 24.4471 35.4054 24.4471C26.1187 23.356 26.1187 16.7624 26.1187 16.7624L26.1187 13.3496" stroke="#66737C" stroke-width="3.57143" stroke-linecap="round" stroke-linejoin="round" fill="none"/><path d="M40.0488 1.85733 40.0488 53.9787" stroke="#66737C" stroke-width="3.57143" stroke-linecap="round" stroke-linejoin="round" fill="none"/></g></svg>