<svg width="60" height="60" viewBox="-2.14 -2.14 60 60" xmlns="http://www.w3.org/2000/svg" xmlns:xlink="http://www.w3.org/1999/xlink" id="Shipment-International--Streamline-Ultimate.svg" overflow="hidden"><path d="M17.5007 50.4963 15.6713 50.4963C13.7479 50.4963 12.1888 48.9371 12.1888 47.0138L12.1888 33.0838C12.1888 31.1604 13.7479 29.6013 15.6713 29.6013L36.5662 29.6012C38.4896 29.6012 40.0487 31.1604 40.0487 33.0837L40.0488 45.3607" stroke="#66737C" stroke-width="3.57143" stroke-linecap="round" stroke-linejoin="round" fill="none"/><path d="M40.0488 33.0838 47.0137 33.0838C50.8604 33.0838 53.9787 36.2021 53.9787 40.0488L53.9787 47.0137C53.9787 48.9371 52.4196 50.4962 50.4963 50.4962L45.1843 50.4963" stroke="#66737C" stroke-width="3.57143" stroke-linecap="round" stroke-linejoin="round" fill="none"/><path d="M36.5662 49.6256C36.5662 52.0298 38.5152 53.9788 40.9194 53.9788 43.3235 53.9788 45.2725 52.0298 45.2725 49.6256 45.2725 47.2215 43.3235 45.2725 40.9194 45.2725 38.5152 45.2725 36.5662 47.2215 36.5662 49.6256Z" stroke="#66737C" stroke-width="3.57143" stroke-linecap="round" stroke-linejoin="round" fill="none"/><path d="M17.4125 49.6256C17.4125 52.0298 19.3615 53.9788 21.7656 53.9788 24.1698 53.9788 26.1187 52.0298 26.1187 49.6256 26.1187 47.2215 24.1698 45.2725 21.7656 45.2725 19.3615 45.2725 17.4125 47.2215 17.4125 49.6256Z" stroke="#66737C" stroke-width="3.57143" stroke-linecap="round" stroke-linejoin="round" fill="none"/><path d="M36.6545 50.4963 26.0305 50.4963" stroke="#66737C" stroke-width="3.57143" stroke-linecap="round" stroke-linejoin="round" fill="none"/><path d="M53.9787 40.0488 47.0137 40.0488" stroke="#66737C" stroke-width="3.57143" stroke-linecap="round" stroke-linejoin="round" fill="none"/><path d="M4.07917 32.2503C-1.22494 22.0015 2.78352 9.39336 13.0323 4.08925 23.2811-1.21486 35.8892 2.7936 41.1933 13.0424 42.728 16.0076 43.5296 19.2974 43.5312 22.6362" stroke="#66737C" stroke-width="3.57143" stroke-linecap="round" stroke-linejoin="round" fill="none"/><path d="M22.6362 1.74125C16.8718 7.1353 13.7011 14.745 13.93 22.6362" stroke="#66737C" stroke-width="3.57143" stroke-linecap="round" stroke-linejoin="round" fill="none"/><path d="M22.6362 1.74125C28.4007 7.1353 31.5714 14.745 31.3425 22.6362" stroke="#66737C" stroke-width="3.57143" stroke-linecap="round" stroke-linejoin="round" fill="none"/><path d="M2.93227 15.6713 42.3333 15.6713" stroke="#66737C" stroke-width="3.57143" stroke-linecap="round" stroke-linejoin="round" fill="none"/></svg>