<svg width="60" height="60" viewBox="-1.875 -1.875 60 60" xmlns="http://www.w3.org/2000/svg" xmlns:xlink="http://www.w3.org/1999/xlink" id="Shop-1--Streamline-Ultimate" fill="none" overflow="hidden"><path d="M50.9766 29.8828 50.9766 50.9766C50.9766 51.9089 50.6063 52.8033 49.947 53.4626 49.2877 54.1219 48.3933 54.4922 47.4609 54.4922L8.78906 54.4922C7.85667 54.4922 6.96244 54.1219 6.30314 53.4626 5.64384 52.8033 5.27344 51.9089 5.27344 50.9766L5.27344 29.8828" stroke="#66737C" stroke-width="3.33333" stroke-linecap="round" stroke-linejoin="round"/><path d="M43.9453 38.6719C43.9453 36.8072 43.2045 35.0187 41.8859 33.7001 40.5673 32.3815 38.7788 31.6406 36.9141 31.6406 35.0494 31.6406 33.2609 32.3815 31.9423 33.7001 30.6237 35.0187 29.8828 36.8072 29.8828 38.6719L29.8828 54.4922 43.9453 54.4922 43.9453 38.6719Z" stroke="#66737C" stroke-width="3.33333" stroke-linecap="round" stroke-linejoin="round"/><path d="M21.0938 36.9141 14.0625 36.9141C13.0917 36.9141 12.3047 37.7011 12.3047 38.6719L12.3047 45.7031C12.3047 46.6739 13.0917 47.4609 14.0625 47.4609L21.0938 47.4609C22.0646 47.4609 22.8516 46.6739 22.8516 45.7031L22.8516 38.6719C22.8516 37.7011 22.0646 36.9141 21.0938 36.9141Z" stroke="#66737C" stroke-width="3.33333" stroke-linecap="round" stroke-linejoin="round"/><path d="M37.793 43.9683C37.3076 43.9683 36.9141 43.5748 36.9141 43.0894 36.9141 42.604 37.3076 42.2105 37.793 42.2105" stroke="#66737C" stroke-width="3.33333"/><path d="M37.793 43.9683C38.2784 43.9683 38.6719 43.5748 38.6719 43.0894 38.6719 42.604 38.2784 42.2105 37.793 42.2105" stroke="#66737C" stroke-width="3.33333"/><path d="M1.75781 17.5781C1.8581 19.26 2.59687 20.84 3.82315 21.9953 5.04945 23.1507 6.67066 23.794 8.35547 23.794 10.0403 23.794 11.6615 23.1507 12.8878 21.9953 14.1141 20.84 14.8528 19.26 14.9531 17.5781 14.9531 19.3248 15.647 21 16.8821 22.2351 18.1172 23.4701 19.7924 24.1641 21.5391 24.1641 23.2858 24.1641 24.9609 23.4701 26.1961 22.2351 27.431 21 28.125 19.3248 28.125 17.5781 28.2253 19.26 28.9641 20.84 30.1903 21.9953 31.4166 23.1507 33.0377 23.794 34.7227 23.794 36.4076 23.794 38.0288 23.1507 39.255 21.9953 40.4813 20.84 41.22 19.26 41.3203 17.5781 41.3203 19.3248 42.0143 21 43.2492 22.2351 44.4844 23.4701 46.1595 24.1641 47.9062 24.1641 49.653 24.1641 51.3281 23.4701 52.5633 22.2351 53.7982 21 54.4922 19.3248 54.4922 17.5781L51.2812 3.14062C51.1959 2.74988 50.9798 2.39991 50.6688 2.14849 50.3578 1.89708 49.9702 1.75927 49.5703 1.75781L6.67969 1.75781C6.27973 1.75927 5.89223 1.89708 5.58117 2.14849 5.27011 2.39991 5.05406 2.74988 4.96875 3.14062L1.75781 17.5781Z" stroke="#66737C" stroke-width="3.33333" stroke-linecap="round" stroke-linejoin="round"/></svg>