<svg width="60" height="60" viewBox="-1.875 -1.875 60 60" xmlns="http://www.w3.org/2000/svg" xmlns:xlink="http://www.w3.org/1999/xlink" id="Smart-Air-Conditioner--Streamline-Ultimate" fill="none" overflow="hidden"><path d="M50.9766 35.4492C52.8516 35.4492 54.4922 33.8086 54.4922 31.9336L54.4922 14.3555C54.4922 10.3711 51.4453 7.32422 47.4609 7.32422L44.1797 7.32422" stroke="#66737C" stroke-width="3.33333" stroke-linecap="round" stroke-linejoin="round" stroke-miterlimit="10"/><path d="M5.27344 35.4492C3.39844 35.4492 1.75781 33.8086 1.75781 31.9336L1.75781 14.3555C1.75781 10.3711 4.80469 7.32422 8.78906 7.32422L11.1328 7.32422" stroke="#66737C" stroke-width="3.33333" stroke-linecap="round" stroke-linejoin="round" stroke-miterlimit="10"/><path d="M1.75781 28.418 54.4922 28.418" stroke="#66737C" stroke-width="3.33333" stroke-linecap="round" stroke-linejoin="round" stroke-miterlimit="10"/><path d="M45.8203 15.293C46.2891 15.293 46.7578 15.7618 46.7578 16.2305 46.7578 16.6993 46.2891 17.168 45.8203 17.168" stroke="#66737C" stroke-width="3.33333" stroke-linecap="round" stroke-linejoin="round" stroke-miterlimit="10"/><path d="M45.8208 15.293C45.352 15.293 44.8833 15.7618 44.8833 16.2305 44.8833 16.6993 45.352 17.168 45.8208 17.168" stroke="#66737C" stroke-width="3.33333" stroke-linecap="round" stroke-linejoin="round" stroke-miterlimit="10"/><path d="M12.3047 34.1016 12.3047 40.4297C12.3047 44.4141 9.25781 47.4609 5.27344 47.4609" stroke="#66737C" stroke-width="3.33333" stroke-linecap="round" stroke-linejoin="round" stroke-miterlimit="10"/><path d="M22.8516 34.1016 22.8516 50.9766C22.8516 52.8516 21.2109 54.4922 19.3359 54.4922" stroke="#66737C" stroke-width="3.33333" stroke-linecap="round" stroke-linejoin="round" stroke-miterlimit="10"/><path d="M43.9453 34.1016 43.9453 40.4297C43.9453 44.4141 46.9922 47.4609 50.9766 47.4609" stroke="#66737C" stroke-width="3.33333" stroke-linecap="round" stroke-linejoin="round" stroke-miterlimit="10"/><path d="M33.3984 34.1016 33.3984 50.9766C33.3984 52.8516 35.0391 54.4922 36.9141 54.4922" stroke="#66737C" stroke-width="3.33333" stroke-linecap="round" stroke-linejoin="round" stroke-miterlimit="10"/><path d="M28.125 15.41C27.6562 15.41 27.1875 15.8788 27.1875 16.3475 27.1875 16.8163 27.6562 17.285 28.125 17.285" stroke="#66737C" stroke-width="3.33333" stroke-linecap="round" stroke-linejoin="round" stroke-miterlimit="10"/><path d="M28.125 15.41C28.5938 15.41 29.0625 15.8788 29.0625 16.3475 29.0625 16.8163 28.5938 17.285 28.125 17.285" stroke="#66737C" stroke-width="3.33333" stroke-linecap="round" stroke-linejoin="round" stroke-miterlimit="10"/><path d="M23.203 10.7228C26.0156 7.91027 30.4688 7.91027 33.0469 10.7228" stroke="#66737C" stroke-width="3.33333" stroke-linecap="round" stroke-linejoin="round" stroke-miterlimit="10"/><path d="M18.1641 5.80078C23.5547 0.410156 32.4609 0.410156 38.0859 5.80078" stroke="#66737C" stroke-width="3.33333" stroke-linecap="round" stroke-linejoin="round" stroke-miterlimit="10"/></svg>