<svg width="60" height="60" viewBox="-1.875 -1.875 60 60" xmlns="http://www.w3.org/2000/svg" xmlns:xlink="http://www.w3.org/1999/xlink" id="Smiley-Disapointed-1--Streamline-Ultimate" fill="none" overflow="hidden"><path d="M28.125 54.4922C42.6872 54.4922 54.4922 42.6872 54.4922 28.125 54.4922 13.5628 42.6872 1.75781 28.125 1.75781 13.5628 1.75781 1.75781 13.5628 1.75781 28.125 1.75781 42.6872 13.5628 54.4922 28.125 54.4922Z" stroke="#66737C" stroke-width="3.33333" stroke-linecap="round" stroke-linejoin="round"/><path d="M36.7148 43.9453C36.9759 43.9441 37.2335 43.8858 37.4695 43.774 37.7058 43.6624 37.9144 43.5002 38.0805 43.2989 38.247 43.0976 38.3672 42.8623 38.4323 42.6094 38.4977 42.3567 38.5066 42.0926 38.4586 41.8359 37.972 39.4542 36.678 37.3137 34.7951 35.7764 32.9121 34.2389 30.5557 33.3994 28.125 33.3994 25.6941 33.3994 23.3379 34.2389 21.4549 35.7764 19.5719 37.3137 18.2777 39.4542 17.7913 41.8359 17.7428 42.0926 17.7514 42.3567 17.8165 42.6098 17.8817 42.8627 18.0017 43.0983 18.1682 43.2998 18.3347 43.5012 18.5434 43.6634 18.7797 43.7749 19.0159 43.8865 19.2738 43.9446 19.5351 43.9453 22.2503 42.7854 25.1723 42.1875 28.125 42.1875 31.0774 42.1875 33.9996 42.7854 36.7148 43.9453Z" stroke="#66737C" stroke-width="3.33333" stroke-linecap="round" stroke-linejoin="round"/><path d="M18.2063 23.1866C17.7209 23.1866 17.3274 22.7931 17.3274 22.3077 17.3274 21.8223 17.7209 21.4288 18.2063 21.4288" stroke="#66737C" stroke-width="3.33333"/><path d="M18.2063 23.1866C18.6917 23.1866 19.0852 22.7931 19.0852 22.3077 19.0852 21.8223 18.6917 21.4288 18.2063 21.4288" stroke="#66737C" stroke-width="3.33333"/><path d="M38.6719 23.1866C38.1865 23.1866 37.793 22.7931 37.793 22.3077 37.793 21.8223 38.1865 21.4288 38.6719 21.4288" stroke="#66737C" stroke-width="3.33333"/><path d="M38.6719 23.1866C39.1573 23.1866 39.5508 22.7931 39.5508 22.3077 39.5508 21.8223 39.1573 21.4288 38.6719 21.4288" stroke="#66737C" stroke-width="3.33333"/><path d="M21.7219 14.2593C19.8732 13.8563 17.9424 14.0969 16.2492 14.9413 14.5344 15.7384 13.1428 17.0969 12.3047 18.7921" stroke="#66737C" stroke-width="3.33333" stroke-linecap="round" stroke-linejoin="round"/><path d="M35.1562 14.2593C37.0055 13.8836 38.9269 14.1233 40.6273 14.9418 42.3277 15.7602 43.7135 17.1124 44.5734 18.7921" stroke="#66737C" stroke-width="3.33333" stroke-linecap="round" stroke-linejoin="round"/></svg>