<svg width="60" height="60" viewBox="-1.875 -1.875 60 60" xmlns="http://www.w3.org/2000/svg" xmlns:xlink="http://www.w3.org/1999/xlink" id="Space-Rocket-2--Streamline-Ultimate" overflow="hidden"><path d="M52.7344 26.3672 52.7344 16.5516C52.7337 14.9147 52.3526 13.3003 51.6211 11.8359L49.6125 7.81641C49.5004 7.59894 49.2333 7.51351 49.0158 7.62559 48.9339 7.6678 48.8672 7.7345 48.825 7.81641L46.8164 11.8359C46.0849 13.3003 45.7038 14.9147 45.7031 16.5516L45.7031 19.3359" stroke="#66737C" stroke-width="3.57143" stroke-linecap="round" stroke-linejoin="round" fill="none"/><path d="M3.51562 26.3672 3.51562 16.5516C3.51625 14.9147 3.89737 13.3003 4.62891 11.8359L6.6375 7.81641C6.74958 7.59894 7.01672 7.51351 7.23418 7.62559 7.31609 7.6678 7.38279 7.7345 7.425 7.81641L9.43359 11.8359C10.1651 13.3003 10.5462 14.9147 10.5469 16.5516L10.5469 19.3359" stroke="#66737C" stroke-width="3.57143" stroke-linecap="round" stroke-linejoin="round" fill="none"/><path d="M24.5953 17.2406C26.3972 15.3818 29.3648 15.3357 31.2236 17.1376 31.3619 17.2716 31.4918 17.4141 31.6125 17.5641" stroke="#66737C" stroke-width="3.57143" stroke-linecap="round" stroke-linejoin="round" fill="none"/><path d="M19.9547 8.78906 36.2953 8.78906" stroke="#66737C" stroke-width="3.57143" stroke-linecap="round" stroke-linejoin="round" fill="none"/><path d="M28.125 42.1875 28.125 54.4922" stroke="#66737C" stroke-width="3.57143" stroke-linecap="round" stroke-linejoin="round" fill="none"/><path d="M36.9141 54.4922 19.3359 54.4922 17.5781 17.5781C17.5781 11.7539 22.3008 1.75781 28.125 1.75781 33.9492 1.75781 38.6719 11.7539 38.6719 17.5781Z" stroke="#66737C" stroke-width="3.57143" stroke-linecap="round" stroke-linejoin="round" fill="none"/><path d="M38.3508 24.3281 50.3344 34.8141C51.8594 36.149 52.7342 38.0771 52.7344 40.1039L52.7344 47.4609C52.7344 49.4026 51.1604 50.9766 49.2188 50.9766L37.0805 50.9766" stroke="#66737C" stroke-width="3.57143" stroke-linecap="round" stroke-linejoin="round" fill="none"/><path d="M17.8992 24.3281 5.91563 34.8141C4.39061 36.149 3.51583 38.0771 3.51562 40.1039L3.51562 47.4609C3.51562 49.4026 5.08962 50.9766 7.03125 50.9766L19.1695 50.9766" stroke="#66737C" stroke-width="3.57143" stroke-linecap="round" stroke-linejoin="round" fill="none"/></svg>