<svg width="60" height="60" viewBox="-1.875 -1.875 60 60" xmlns="http://www.w3.org/2000/svg" xmlns:xlink="http://www.w3.org/1999/xlink" id="Space-Rocket-Flying--Streamline-Ultimate" overflow="hidden"><path d="M52.7344 3.67266 47.6766 4.23516C43.7095 4.67609 40.0106 6.45403 37.1883 9.27656L14.2031 32.2617 24.1406 42.2039 47.1305 19.2188C49.9539 16.3971 51.732 12.6979 52.1719 8.73047Z" stroke="#66737C" stroke-width="3.57143" stroke-linecap="round" stroke-linejoin="round" fill="none"/><path d="M14.2031 32.2617 5.71406 29.4305C4.79396 29.1249 4.29578 28.1313 4.60136 27.2112 4.68765 26.9513 4.83354 26.7153 5.02734 26.5219L5.57109 25.9781C9.33721 22.2113 14.9083 20.8956 19.9617 22.5797L22.9031 23.5594Z" stroke="#66737C" stroke-width="3.57143" stroke-linecap="round" stroke-linejoin="round" fill="none"/><path d="M14.2031 32.2617 5.71406 29.4305C4.79396 29.1249 4.29578 28.1313 4.60136 27.2112 4.68765 26.9513 4.83354 26.7153 5.02734 26.5219L5.57109 25.9781C9.33721 22.2113 14.9083 20.8956 19.9617 22.5797L22.9031 23.5594Z" stroke="#66737C" stroke-width="3.57143" stroke-linecap="round" stroke-linejoin="round" fill="none"/><path d="M24.1406 42.2039 26.9719 50.693C27.2774 51.6131 28.2711 52.1112 29.1912 51.8057 29.451 51.7194 29.6871 51.5735 29.8805 51.3797L30.4266 50.8359C34.1926 47.0693 35.5073 41.4982 33.8227 36.4453L32.8477 33.5156Z" stroke="#66737C" stroke-width="3.57143" stroke-linecap="round" stroke-linejoin="round" fill="none"/><path d="M24.1406 42.2039 26.9719 50.693C27.2774 51.6131 28.2711 52.1112 29.1912 51.8057 29.451 51.7194 29.6871 51.5735 29.8805 51.3797L30.4266 50.8359C34.1926 47.0693 35.5073 41.4982 33.8227 36.4453L32.8477 33.5156Z" stroke="#66737C" stroke-width="3.57143" stroke-linecap="round" stroke-linejoin="round" fill="none"/><path d="M18.232 43.4484C18.2339 44.8474 17.678 46.1894 16.6875 47.1773 14.6297 49.2352 4.26562 52.1484 4.26562 52.1484 4.26562 52.1484 7.17891 41.7773 9.23672 39.7266 10.1407 38.8204 11.3439 38.2747 12.6211 38.1914" stroke="#66737C" stroke-width="3.57143" stroke-linecap="round" stroke-linejoin="round" fill="none"/></svg>