<svg width="60" height="60" viewBox="-1.875 -1.875 60 60" xmlns="http://www.w3.org/2000/svg" xmlns:xlink="http://www.w3.org/1999/xlink" id="Startup-Product-Rocket-Box--Streamline-Ultimate" fill="none" overflow="hidden"><path d="M2.34375 42.4852 28.125 49.5164" stroke="#66737C" stroke-width="3.33333" stroke-linecap="round" stroke-linejoin="round"/><path d="M28.125 49.5164 53.9062 42.4852" stroke="#66737C" stroke-width="3.33333" stroke-linecap="round" stroke-linejoin="round"/><path d="M2.34375 42.4852 15.218 39.1125" stroke="#66737C" stroke-width="3.33333" stroke-linecap="round" stroke-linejoin="round"/><path d="M2.34375 53.175 2.34375 42.7781" stroke="#66737C" stroke-width="3.33333" stroke-linecap="round" stroke-linejoin="round"/><path d="M53.9062 42.7781 53.9062 53.175" stroke="#66737C" stroke-width="3.33333" stroke-linecap="round" stroke-linejoin="round"/><path d="M28.125 54.3469 28.125 49.5164" stroke="#66737C" stroke-width="3.33333" stroke-linecap="round" stroke-linejoin="round"/><path d="M36.3281 14.2078C36.3281 18.7383 34.9617 30.6141 28.125 30.6141 21.2883 30.6141 19.9219 18.75 19.9219 14.2078 19.9219 6.00471 28.125 1.90315 28.125 1.90315 28.125 1.90315 36.3281 6.00471 36.3281 14.2078Z" stroke="#66737C" stroke-width="3.33333" stroke-linecap="round" stroke-linejoin="round"/><path d="M28.125 13.9149C27.4779 13.9149 26.9531 13.3902 26.9531 12.743 26.9531 12.0958 27.4779 11.5711 28.125 11.5711" stroke="#66737C" stroke-width="3.33333"/><path d="M28.125 13.9149C28.7721 13.9149 29.2969 13.3902 29.2969 12.743 29.2969 12.0958 28.7721 11.5711 28.125 11.5711" stroke="#66737C" stroke-width="3.33333"/><path d="M23.4609 41.9088 23.4609 39.5463C23.6489 38.4279 24.2327 37.4142 25.106 36.6902 25.9793 35.9665 27.0837 35.5807 28.2176 35.6034 29.3517 35.6262 30.4397 36.056 31.2832 36.8142 32.1267 37.5724 32.6695 38.6086 32.8125 39.7338L32.8125 41.9088" stroke="#66737C" stroke-width="3.33333" stroke-linecap="round" stroke-linejoin="round"/><path d="M22.6945 28.5026 20.8008 29.4518C19.73 30.0202 18.7491 30.7434 17.8898 31.5987 17.6842 31.8192 17.4179 31.9741 17.1245 32.044 16.831 32.1136 16.5235 32.0951 16.2406 31.9908 15.9576 31.8862 15.7118 31.7006 15.534 31.4571 15.3563 31.2134 15.2545 30.9225 15.2414 30.6213 15.0405 28.8652 15.4146 27.0909 16.3075 25.5654 17.2005 24.0398 18.5641 22.8451 20.1938 22.1603" stroke="#66737C" stroke-width="3.33333" stroke-linecap="round" stroke-linejoin="round"/><path d="M33.5555 28.5026 35.4492 29.4518C36.5201 30.0202 37.5009 30.7434 38.3602 31.5987 38.5659 31.8192 38.8322 31.9741 39.1256 32.044 39.4191 32.1136 39.7266 32.0951 40.0095 31.9908 40.2923 31.8862 40.5382 31.7006 40.7159 31.4571 40.8937 31.2134 40.9955 30.9225 41.0086 30.6213 41.2095 28.8652 40.8354 27.0909 39.9424 25.5654 39.0495 24.0398 37.6859 22.8451 36.0563 22.1603" stroke="#66737C" stroke-width="3.33333" stroke-linecap="round" stroke-linejoin="round"/><path d="M53.9062 42.4852 41.032 39.1125" stroke="#66737C" stroke-width="3.33333" stroke-linecap="round" stroke-linejoin="round"/></svg>