<svg width="60" height="60" viewBox="-1.875 -1.875 60 60" xmlns="http://www.w3.org/2000/svg" xmlns:xlink="http://www.w3.org/1999/xlink" id="Stove-Gas-1--Streamline-Ultimate" overflow="hidden"><defs></defs><path d="M12.9727 1.75781C15.4251 4.68538 15.7937 8.83103 13.8961 12.1453 12.193 12.2765 10.6797 11.0654 10.4344 9.375 7.9251 10.7456 6.43917 13.4477 6.62578 16.3008 6.62578 20.8895 10.3457 24.6094 14.9344 24.6094 19.4951 24.5415 23.1761 20.8614 23.2453 16.3008 23.8127 9.60019 19.4775 3.46285 12.9727 1.75781Z" stroke="#66737C" stroke-width="3.33333" stroke-linecap="round" stroke-linejoin="round" fill="none"/><path d="M37.9875 1.75781C40.4411 4.68531 40.8079 8.8326 38.9062 12.1453 37.2053 12.2727 35.6955 11.0628 35.4492 9.375 32.9399 10.7456 31.454 13.4477 31.6406 16.3008 31.6406 20.8895 35.3605 24.6094 39.9492 24.6094 44.5099 24.5415 48.191 20.8614 48.2602 16.3008 48.8275 9.60019 44.4923 3.46285 37.9875 1.75781Z" stroke="#66737C" stroke-width="3.33333" stroke-linecap="round" stroke-linejoin="round" fill="none"/><path d="M4.10156 33.3984 52.1484 33.3984C52.1484 33.3984 54.4922 33.3984 54.4922 35.7422L54.4922 52.1484C54.4922 52.1484 54.4922 54.4922 52.1484 54.4922L4.10156 54.4922C4.10156 54.4922 1.75781 54.4922 1.75781 52.1484L1.75781 35.7422C1.75781 35.7422 1.75781 33.3984 4.10156 33.3984" stroke="#66737C" stroke-width="3.33333" stroke-linecap="round" stroke-linejoin="round" fill="none"/><path d="M12.3047 43.9453C12.3047 45.8869 13.8787 47.4609 15.8203 47.4609 17.7619 47.4609 19.3359 45.8869 19.3359 43.9453 19.3359 42.0037 17.7619 40.4297 15.8203 40.4297 13.8787 40.4297 12.3047 42.0037 12.3047 43.9453" stroke="#66737C" stroke-width="3.33333" stroke-linecap="round" stroke-linejoin="round" fill="none"/><path d="M36.9141 43.9453C36.9141 45.8869 38.4881 47.4609 40.4297 47.4609 42.3713 47.4609 43.9453 45.8869 43.9453 43.9453 43.9453 42.0037 42.3713 40.4297 40.4297 40.4297 38.4881 40.4297 36.9141 42.0037 36.9141 43.9453" stroke="#66737C" stroke-width="3.33333" stroke-linecap="round" stroke-linejoin="round" fill="none"/><path d="M15.8203 29.8828 15.8203 33.3984" stroke="#66737C" stroke-width="3.33333" stroke-linecap="round" stroke-linejoin="round" fill="none"/><path d="M40.4297 29.8828 40.4297 33.3984" stroke="#66737C" stroke-width="3.33333" stroke-linecap="round" stroke-linejoin="round" fill="none"/></svg>