<svg width="44.8" height="44.8" viewBox="-1.6 -1.6 44.8 44.8" xmlns="http://www.w3.org/2000/svg" xmlns:xlink="http://www.w3.org/1999/xlink" id="Strategy-Tasks--Streamline-Core" fill="none" overflow="hidden"><g id="strategy-tasks--strategy-tasks-work"><path d="M28.2286 4.45714 34.1714 4.45714C34.9594 4.45714 35.7154 4.77021 36.2725 5.32744 36.8297 5.88471 37.1429 6.64049 37.1429 7.42857L37.1429 37.1429C37.1429 37.9309 36.8297 38.6868 36.2725 39.244 35.7154 39.8011 34.9594 40.1143 34.1714 40.1143L7.42857 40.1143C6.64049 40.1143 5.88471 39.8011 5.32744 39.244 4.77021 38.6868 4.45714 37.9309 4.45714 37.1429L4.45714 7.42857C4.45714 6.64049 4.77021 5.88471 5.32744 5.32744 5.88471 4.77021 6.64049 4.45714 7.42857 4.45714L13.3714 4.45714" id="Vector" stroke="#66737C" stroke-width="2.67857" stroke-linecap="round" stroke-linejoin="round"/><path d="M25.2571 1.48571 16.3429 1.48571C14.7018 1.48571 13.3714 2.81607 13.3714 4.45714L13.3714 5.94286C13.3714 7.58392 14.7018 8.91429 16.3429 8.91429L25.2571 8.91429C26.8982 8.91429 28.2286 7.58392 28.2286 5.94286L28.2286 4.45714C28.2286 2.81607 26.8982 1.48571 25.2571 1.48571Z" id="Vector_2" stroke="#66737C" stroke-width="2.67857" stroke-linecap="round" stroke-linejoin="round"/><path d="M11.2802 19.9178C11.2802 21.9692 12.9432 23.6321 14.9945 23.6321 15.5131 23.6321 16.0069 23.5259 16.4552 23.3339 17.7804 22.7665 18.7088 21.4506 18.7088 19.9178 18.7088 17.8665 17.0459 16.2036 14.9945 16.2036 12.9432 16.2036 11.2802 17.8665 11.2802 19.9178Z" id="Vector_3" stroke="#66737C" stroke-width="2.67857" stroke-linecap="round" stroke-linejoin="round"/><path d="M24.3731 27.7316 30.316 33.6746" id="Vector_4" stroke="#66737C" stroke-width="2.67857" stroke-linecap="round" stroke-linejoin="round"/><path d="M30.3199 27.7316 24.3769 33.6746" id="Vector_5" stroke="#66737C" stroke-width="2.67857" stroke-linecap="round" stroke-linejoin="round"/></g></svg>