<svg width="60" height="60" viewBox="-1.875 -1.875 60 60" xmlns="http://www.w3.org/2000/svg" xmlns:xlink="http://www.w3.org/1999/xlink" id="Suply-Chain-Supplier-Trolley-Delivery--Streamline-Ultimate" overflow="hidden"><defs></defs><path d="M33.2273 8.78906C33.2273 12.0251 35.8507 14.6484 39.0867 14.6484 42.3228 14.6484 44.9461 12.0251 44.9461 8.78906 44.9461 5.55302 42.3228 2.92969 39.0867 2.92969 35.8507 2.92969 33.2273 5.55302 33.2273 8.78906" stroke="#66737C" stroke-width="3.33333" stroke-miterlimit="10" fill="none"/><path d="M53.0016 47.0602C49.3102 44.1047 48.4734 37.0383 48.4617 34.5633 48.4557 34.4061 48.4393 34.2495 48.4125 34.0945L48.4125 33.9984 46.0687 19.9359C45.7482 18.0209 43.936 16.7284 42.021 17.0489 41.1119 17.201 40.2988 17.7042 39.757 18.45 37.2248 21.965 32.6688 23.375 28.5937 21.9047 26.7616 21.2619 24.7553 22.226 24.1125 24.0582 23.4893 25.8345 24.3758 27.7864 26.1234 28.4859 30.7352 30.288 35.9234 29.8374 40.1555 27.2672L41.0508 32.6578C35.19 36.3246 31.4217 42.5595 30.9 49.4531 30.708 51.385 32.1182 53.1068 34.05 53.2992 34.1675 53.3125 34.2857 53.3187 34.4039 53.318 36.2072 53.3163 37.7169 51.9504 37.8984 50.1562 38.1664 46.622 39.6583 43.2918 42.1172 40.7391 42.8695 45.2995 45.1557 49.4667 48.5977 52.5516 50.0907 53.7928 52.3073 53.5887 53.5486 52.0957 54.7898 50.6027 54.5857 48.3861 53.0927 47.1448 53.0589 47.1167 53.0246 47.0893 52.9898 47.0625Z" stroke="#66737C" stroke-width="3.33333" stroke-linejoin="round" fill="none"/><path d="M12.1336 49.8047C12.1336 51.7463 13.7076 53.3203 15.6492 53.3203 17.5908 53.3203 19.1648 51.7463 19.1648 49.8047 19.1648 47.8631 17.5908 46.2891 15.6492 46.2891 13.7076 46.2891 12.1336 47.8631 12.1336 49.8047" stroke="#66737C" stroke-width="3.33333" stroke-linecap="round" stroke-linejoin="round" fill="none"/><path d="M22.6805 24.0234 16.5727 46.4109" stroke="#66737C" stroke-width="3.33333" stroke-linecap="round" stroke-linejoin="round" fill="none"/><path d="M4.59844 45.8648 7.68516 34.5609 18.9914 37.6477" stroke="#66737C" stroke-width="3.33333" stroke-linecap="round" stroke-linejoin="round" fill="none"/><path d="M12.6094 48.0516 1.92891 45.1359" stroke="#66737C" stroke-width="3.33333" stroke-linecap="round" stroke-linejoin="round" fill="none"/></svg>