<svg width="60" height="60" viewBox="-2.14 -2.14 60 60" xmlns="http://www.w3.org/2000/svg" xmlns:xlink="http://www.w3.org/1999/xlink" id="Suply-Chain-Distributor-Box-Package--Streamline-Ultimate.svg" overflow="hidden"><defs></defs><path d="M16.788 16.2354 38.9343 16.2354 38.9343 38.3818 16.788 38.3818Z" stroke="#66737C" stroke-width="3.57143" stroke-linecap="round" stroke-linejoin="round" fill="none"/><path d="M23.8412 16.326 23.8412 26.7735 27.9041 24.9858 31.967 26.7735 31.967 16.326" stroke="#66737C" stroke-width="3.57143" stroke-linecap="round" stroke-linejoin="round" fill="none"/><path d="M9.66742 9.66742 12.2329 12.8435" stroke="#66737C" stroke-width="3.57143" stroke-linecap="round" stroke-linejoin="round" fill="none"/><path d="M1.74125 6.38458C1.74125 8.94903 3.82014 11.0279 6.38458 11.0279 8.94903 11.0279 11.0279 8.94903 11.0279 6.38458 11.0279 3.82014 8.94903 1.74125 6.38458 1.74125 3.82014 1.74125 1.74125 3.82014 1.74125 6.38458" stroke="#66737C" stroke-width="3.57143" stroke-linecap="round" stroke-linejoin="round" fill="none"/><path d="M44.6921 6.38458C44.6921 8.94903 46.771 11.0279 49.3354 11.0279 51.8999 11.0279 53.9787 8.94903 53.9787 6.38458 53.9787 3.82014 51.8999 1.74125 49.3354 1.74125 46.771 1.74125 44.6921 3.82014 44.6921 6.38458" stroke="#66737C" stroke-width="3.57143" stroke-linecap="round" stroke-linejoin="round" fill="none"/><path d="M44.6921 49.3354C44.6921 51.8999 46.771 53.9787 49.3354 53.9787 51.8999 53.9787 53.9787 51.8999 53.9787 49.3354 53.9787 46.771 51.8999 44.6921 49.3354 44.6921 46.771 44.6921 44.6921 46.771 44.6921 49.3354" stroke="#66737C" stroke-width="3.57143" stroke-linecap="round" stroke-linejoin="round" fill="none"/><path d="M1.74125 49.3354C1.74125 51.8999 3.82014 53.9787 6.38458 53.9787 8.94903 53.9787 11.0279 51.8999 11.0279 49.3354 11.0279 46.771 8.94903 44.6921 6.38458 44.6921 3.82014 44.6921 1.74125 46.771 1.74125 49.3354" stroke="#66737C" stroke-width="3.57143" stroke-linecap="round" stroke-linejoin="round" fill="none"/><path d="M9.66742 46.0526 12.2329 43.0251" stroke="#66737C" stroke-width="3.57143" stroke-linecap="round" stroke-linejoin="round" fill="none"/><path d="M43.5754 12.8435 46.0549 9.6651" stroke="#66737C" stroke-width="3.57143" stroke-linecap="round" stroke-linejoin="round" fill="none"/><path d="M43.5754 43.0251 46.0526 46.0526" stroke="#66737C" stroke-width="3.57143" stroke-linecap="round" stroke-linejoin="round" fill="none"/></svg>