<svg width="60" height="60" viewBox="-1.875 -1.875 60 60" xmlns="http://www.w3.org/2000/svg" xmlns:xlink="http://www.w3.org/1999/xlink" id="Target-Center-1--Streamline-Ultimate" overflow="hidden"><g><path d="M28.9922 35.1562C28.9922 40.0103 25.0572 43.9453 20.2031 43.9453 15.349 43.9453 11.414 40.0103 11.4141 35.1562 11.4141 30.3021 15.3491 26.3671 20.2032 26.3672 20.211 26.3672 20.2188 26.3672 20.2266 26.3672" stroke="#66737C" stroke-width="3.33333" stroke-linecap="round" stroke-linejoin="round" fill="none"/><path d="M37.1719 30.4688C37.5775 31.9982 37.7824 33.5739 37.7812 35.1562 37.7434 44.8255 29.8742 52.6332 20.205 52.5954 10.5358 52.5575 2.72803 44.6883 2.76589 35.0191 2.80376 25.3499 10.6729 17.5421 20.3421 17.58 22.1907 17.5872 24.0265 17.8872 25.7812 18.4688" stroke="#66737C" stroke-width="3.33333" stroke-linecap="round" stroke-linejoin="round" fill="none"/><path d="M20.2266 35.1562 36.2109 19.1484" stroke="#66737C" stroke-width="3.33333" stroke-linecap="round" stroke-linejoin="round" fill="none"/><path d="M2.64844 54.4922 8.69531 48.4219" stroke="#66737C" stroke-width="3.33333" stroke-linecap="round" stroke-linejoin="round" fill="none"/><path d="M37.7812 54.4922 31.7344 48.4453" stroke="#66737C" stroke-width="3.33333" stroke-linecap="round" stroke-linejoin="round" fill="none"/><path d="M46.1484 19.1484C45.3783 19.947 44.2688 20.3227 43.1719 20.1562L36.1406 19.1484 35.1562 12.1875C35.003 11.0962 35.367 9.99574 36.1406 9.21094L43.6641 1.75781 45.7969 9.58594 53.6016 11.6953Z" stroke="#66737C" stroke-width="3.33333" stroke-linecap="round" stroke-linejoin="round" fill="none"/></g></svg>