<svg width="44.8" height="44.8" viewBox="-1.6 -1.6 44.8 44.8" xmlns="http://www.w3.org/2000/svg" xmlns:xlink="http://www.w3.org/1999/xlink" id="Task-List--Streamline-Core" fill="none" overflow="hidden"><g id="task-list--task-list-work"><path d="M37.1429 37.1429C37.1429 37.9309 36.8297 38.6868 36.2725 39.244 35.7154 39.8011 34.9594 40.1143 34.1714 40.1143L7.42857 40.1143C6.64049 40.1143 5.88471 39.8011 5.32744 39.244 4.77021 38.6868 4.45714 37.9309 4.45714 37.1429L4.45714 4.45714C4.45714 3.66906 4.77021 2.91328 5.32744 2.35602 5.88471 1.79878 6.64049 1.48571 7.42857 1.48571L24.0263 1.48571C24.8144 1.48571 25.5702 1.79878 26.1274 2.35602L36.2725 12.5011C36.8297 13.0584 37.1429 13.8142 37.1429 14.6022L37.1429 37.1429Z" id="Vector" stroke="#66737C" stroke-width="2.67857" stroke-linecap="round" stroke-linejoin="round"/><path d="M22.4598 18.9429 29.8884 18.9429" id="Vector_2" stroke="#66737C" stroke-width="2.67857" stroke-linecap="round" stroke-linejoin="round"/><path d="M22.4598 29.993 29.8884 29.993" id="Vector_3" stroke="#66737C" stroke-width="2.67857" stroke-linecap="round" stroke-linejoin="round"/><path d="M10.9688 29.8245 13.4585 32.3143 17.608 26.5049" id="Vector_4" stroke="#66737C" stroke-width="2.67857" stroke-linecap="round" stroke-linejoin="round"/><path d="M10.9688 18.5888 13.4585 21.0786 17.608 15.2692" id="Vector_5" stroke="#66737C" stroke-width="2.67857" stroke-linecap="round" stroke-linejoin="round"/></g></svg>