<svg width="60" height="60" viewBox="-1.875 -1.875 60 60" xmlns="http://www.w3.org/2000/svg" xmlns:xlink="http://www.w3.org/1999/xlink" id="Team-Idea--Streamline-Ultimate" overflow="hidden"><style>
.MsftOfcResponsive_Stroke_66737c {
 stroke:#66737C; 
}
</style>
<path d="M1.75781 43.3078C1.75781 46.7057 4.51231 49.4602 7.91016 49.4602 11.308 49.4602 14.0625 46.7057 14.0625 43.3078 14.0625 39.91 11.308 37.1555 7.91016 37.1555 4.51231 37.1555 1.75781 39.91 1.75781 43.3078Z" class="MsftOfcResponsive_Stroke_66737c" stroke="#66737C" stroke-width="3.33333" stroke-linecap="round" stroke-linejoin="round" fill="none"/><path d="M15.4242 54.375C11.7795 50.6709 5.97991 50.1736 1.75781 53.2031" class="MsftOfcResponsive_Stroke_66737c" stroke="#66737C" stroke-width="3.33333" stroke-linecap="round" stroke-linejoin="round" fill="none"/><path d="M42.1875 43.3078C42.1875 46.7057 44.942 49.4602 48.3398 49.4602 51.7377 49.4602 54.4922 46.7057 54.4922 43.3078 54.4922 39.91 51.7377 37.1555 48.3398 37.1555 44.942 37.1555 42.1875 39.91 42.1875 43.3078Z" class="MsftOfcResponsive_Stroke_66737c" stroke="#66737C" stroke-width="3.33333" stroke-linecap="round" stroke-linejoin="round" fill="none"/><path d="M41.0414 54.1523C44.7108 50.6368 50.3654 50.2378 54.4922 53.2031" class="MsftOfcResponsive_Stroke_66737c" stroke="#66737C" stroke-width="3.33333" stroke-linecap="round" stroke-linejoin="round" fill="none"/><path d="M20.2148 41.55C20.2148 45.9187 23.7563 49.4602 28.125 49.4602 32.4937 49.4602 36.0352 45.9187 36.0352 41.55 36.0352 37.1813 32.4937 33.6398 28.125 33.6398 23.7563 33.6398 20.2148 37.1813 20.2148 41.55Z" class="MsftOfcResponsive_Stroke_66737c" stroke="#66737C" stroke-width="3.33333" stroke-linecap="round" stroke-linejoin="round" fill="none"/><path d="M34.507 54.4922C30.537 52.4927 25.8594 52.4693 21.8695 54.4289" class="MsftOfcResponsive_Stroke_66737c" stroke="#66737C" stroke-width="3.33333" stroke-linecap="round" stroke-linejoin="round" fill="none"/><path d="M36.9141 10.7812C36.9153 5.92719 32.9813 1.99121 28.1272 1.99 23.2731 1.9888 19.3371 5.92282 19.3359 10.7769 19.3351 14.2724 21.4057 17.4362 24.6094 18.8344L24.6094 23.093 31.6406 23.093 31.6406 18.8344C34.8441 17.4383 36.915 14.2757 36.9141 10.7812Z" class="MsftOfcResponsive_Stroke_66737c" stroke="#66737C" stroke-width="3.33333" stroke-linecap="round" stroke-linejoin="round" fill="none"/><path d="M24.6094 28.3664 31.6406 28.3664" class="MsftOfcResponsive_Stroke_66737c" stroke="#66737C" stroke-width="3.33333" stroke-linecap="round" stroke-linejoin="round" fill="none"/><path d="M46.432 12.3047 49.9477 12.3047" class="MsftOfcResponsive_Stroke_66737c" stroke="#66737C" stroke-width="3.33333" stroke-linecap="round" stroke-linejoin="round" fill="none"/><path d="M45.7031 20.3648 48.1898 22.8516" class="MsftOfcResponsive_Stroke_66737c" stroke="#66737C" stroke-width="3.33333" stroke-linecap="round" stroke-linejoin="round" fill="none"/><path d="M45.7031 4.24219 48.1898 1.75781" class="MsftOfcResponsive_Stroke_66737c" stroke="#66737C" stroke-width="3.33333" stroke-linecap="round" stroke-linejoin="round" fill="none"/><path d="M9.81797 12.3047 6.30234 12.3047" class="MsftOfcResponsive_Stroke_66737c" stroke="#66737C" stroke-width="3.33333" stroke-linecap="round" stroke-linejoin="round" fill="none"/><path d="M10.5469 20.3648 8.06016 22.8516" class="MsftOfcResponsive_Stroke_66737c" stroke="#66737C" stroke-width="3.33333" stroke-linecap="round" stroke-linejoin="round" fill="none"/><path d="M10.5469 4.24219 8.06016 1.75781" class="MsftOfcResponsive_Stroke_66737c" stroke="#66737C" stroke-width="3.33333" stroke-linecap="round" stroke-linejoin="round" fill="none"/></svg>