<svg width="60" height="60" viewBox="-1.875 -1.875 60 60" xmlns="http://www.w3.org/2000/svg" xmlns:xlink="http://www.w3.org/1999/xlink" id="Technology-Robot-Head-3--Streamline-Ultimate" overflow="hidden"><defs></defs><path d="M8.78906 54.4922C6.20023 54.4922 4.10156 52.3935 4.10156 49.8047L4.10156 39.8438C4.10156 26.576 14.8572 15.8203 28.125 15.8203 41.3928 15.8203 52.1484 26.576 52.1484 39.8438L52.1484 49.8047C52.1484 52.3935 50.0498 54.4922 47.4609 54.4922Z" stroke="#66737C" stroke-width="3.33333" stroke-linecap="round" stroke-linejoin="round" fill="none"/><path d="M21.6797 40.4297 34.5703 40.4297C35.8647 40.4297 36.9141 41.479 36.9141 42.7734L36.9141 54.4922 36.9141 54.4922 19.3359 54.4922 19.3359 54.4922 19.3359 42.7734C19.3359 41.479 20.3853 40.4297 21.6797 40.4297Z" stroke="#66737C" stroke-width="3.33333" stroke-linecap="round" stroke-linejoin="round" fill="none"/><path d="M19.3359 47.4609 36.9141 47.4609" stroke="#66737C" stroke-width="3.33333" stroke-linecap="round" stroke-linejoin="round" fill="none"/><path d="M13.7016 31.0547C13.7016 33.3199 15.5379 35.1562 17.8031 35.1562 20.0684 35.1562 21.9047 33.3199 21.9047 31.0547 21.9047 28.7895 20.0684 26.9531 17.8031 26.9531 15.5379 26.9531 13.7016 28.7895 13.7016 31.0547" stroke="#66737C" stroke-width="3.33333" stroke-linecap="round" stroke-linejoin="round" fill="none"/><path d="M34.5703 31.0547C34.5703 33.3199 36.4066 35.1562 38.6719 35.1562 40.9371 35.1562 42.7734 33.3199 42.7734 31.0547 42.7734 28.7895 40.9371 26.9531 38.6719 26.9531 36.4066 26.9531 34.5703 28.7895 34.5703 31.0547" stroke="#66737C" stroke-width="3.33333" stroke-linecap="round" stroke-linejoin="round" fill="none"/><path d="M23.4375 6.44531C23.4375 9.03415 25.5362 11.1328 28.125 11.1328 30.7138 11.1328 32.8125 9.03415 32.8125 6.44531 32.8125 3.85648 30.7138 1.75781 28.125 1.75781 25.5362 1.75781 23.4375 3.85648 23.4375 6.44531" stroke="#66737C" stroke-width="3.33333" stroke-linecap="round" stroke-linejoin="round" fill="none"/><path d="M28.125 11.1328 28.125 15.8203" stroke="#66737C" stroke-width="3.33333" stroke-linecap="round" stroke-linejoin="round" fill="none"/></svg>