<svg width="60" height="60" viewBox="-1.875 -1.875 60 60" xmlns="http://www.w3.org/2000/svg" xmlns:xlink="http://www.w3.org/1999/xlink" id="Technology-Ai-Brain-Coding--Streamline-Ultimate" overflow="hidden"><defs></defs><path d="M35.9508 23.1281 37.1719 23.1281C37.8463 23.1281 38.393 23.6748 38.393 24.3492L38.393 32.8969" stroke="#66737C" stroke-width="3.33333" stroke-linecap="round" stroke-linejoin="round" fill="none"/><path d="M35.9508 32.8969 40.8352 32.8969" stroke="#66737C" stroke-width="3.33333" stroke-linecap="round" stroke-linejoin="round" fill="none"/><path d="M48.9961 6.03281 50.2172 6.03281C50.8916 6.03281 51.4383 6.57951 51.4383 7.25391L51.4383 15.8016" stroke="#66737C" stroke-width="3.33333" stroke-linecap="round" stroke-linejoin="round" fill="none"/><path d="M48.9961 15.8016 53.8805 15.8016" stroke="#66737C" stroke-width="3.33333" stroke-linecap="round" stroke-linejoin="round" fill="none"/><path d="M48.9961 40.2234 50.2172 40.2234C50.8916 40.2234 51.4383 40.7701 51.4383 41.4445L51.4383 49.9945" stroke="#66737C" stroke-width="3.33333" stroke-linecap="round" stroke-linejoin="round" fill="none"/><path d="M48.9961 49.9945 53.8805 49.9945" stroke="#66737C" stroke-width="3.33333" stroke-linecap="round" stroke-linejoin="round" fill="none"/><path d="M54.4922 29.8453C54.4922 31.5313 53.1254 32.898 51.4395 32.898 49.7535 32.898 48.3867 31.5313 48.3867 29.8453L48.3867 26.182C48.3867 24.4961 49.7535 23.1293 51.4395 23.1293 53.1254 23.1293 54.4922 24.4961 54.4922 26.182Z" stroke="#66737C" stroke-width="3.33333" stroke-linecap="round" stroke-linejoin="round" fill="none"/><path d="M41.4445 46.9406C41.4445 48.6266 40.0778 49.9934 38.3918 49.9934 36.7058 49.9934 35.3391 48.6266 35.3391 46.9406L35.3391 43.2773C35.3391 41.5914 36.7058 40.2246 38.3918 40.2246 40.0778 40.2246 41.4445 41.5914 41.4445 43.2773Z" stroke="#66737C" stroke-width="3.33333" stroke-linecap="round" stroke-linejoin="round" fill="none"/><path d="M41.4445 12.9727C41.4445 14.6586 40.0778 16.0254 38.3918 16.0254 36.7058 16.0254 35.3391 14.6586 35.3391 12.9727L35.3391 9.30937C35.3391 7.6234 36.7058 6.25664 38.3918 6.25664 40.0778 6.25664 41.4445 7.6234 41.4445 9.30937Z" stroke="#66737C" stroke-width="3.33333" stroke-linecap="round" stroke-linejoin="round" fill="none"/><path d="M28.125 51.0539C26.9153 51.055 25.7267 50.7365 24.6797 50.1305 24.5712 52.6561 22.4359 54.6157 19.9102 54.5072 17.3845 54.3988 15.425 52.2634 15.5334 49.7378 15.5487 49.3812 15.6057 49.0277 15.7031 48.6844 11.0135 49.14 6.84249 45.7077 6.38685 41.0181 6.17586 38.8466 6.80487 36.6767 8.14453 34.9547 4.3726 34.6931 1.52692 31.4233 1.78852 27.6513 2.02486 24.2437 4.73689 21.5316 8.14453 21.2953 5.25143 17.5765 5.92084 12.2164 9.63969 9.3233 11.3617 7.98364 13.5316 7.35464 15.7031 7.56562 15.0183 5.13214 16.4359 2.60428 18.8694 1.91949 21.3029 1.2347 23.8308 2.6523 24.5155 5.08578 24.6104 5.42286 24.6663 5.76971 24.682 6.11953 25.7284 5.51392 26.9161 5.19537 28.125 5.19609" stroke="#66737C" stroke-width="3.33333" stroke-linecap="round" stroke-linejoin="round" fill="none"/><path d="M28.125 32.025 28.125 34.3172" stroke="#66737C" stroke-width="3.33333" stroke-linecap="round" stroke-linejoin="round" fill="none"/><path d="M28.125 21.4781 28.125 23.7703" stroke="#66737C" stroke-width="3.33333" stroke-linecap="round" stroke-linejoin="round" fill="none"/><path d="M28.125 10.9289 28.125 13.2211" stroke="#66737C" stroke-width="3.33333" stroke-linecap="round" stroke-linejoin="round" fill="none"/><path d="M28.125 42.5742 28.125 44.8664" stroke="#66737C" stroke-width="3.33333" stroke-linecap="round" stroke-linejoin="round" fill="none"/></svg>