<svg width="60" height="60" viewBox="-1.875 -1.875 60 60" xmlns="http://www.w3.org/2000/svg" xmlns:xlink="http://www.w3.org/1999/xlink" id="Technology-Robot-Speech--Streamline-Ultimate" fill="none" overflow="hidden"><path d="M52.1484 25.1953 41.0156 25.1953 32.2266 32.2266 32.2266 25.1953 26.3672 25.1953C25.7456 25.1953 25.1494 24.9483 24.7099 24.5088 24.2705 24.0694 24.0234 23.4731 24.0234 22.8516L24.0234 4.10156C24.0234 3.47995 24.2705 2.88382 24.7099 2.44427 25.1494 2.00474 25.7456 1.75781 26.3672 1.75781L52.1484 1.75781C52.77 1.75781 53.3662 2.00474 53.8057 2.44427 54.2452 2.88382 54.4922 3.47995 54.4922 4.10156L54.4922 22.8516C54.4922 23.4731 54.2452 24.0694 53.8057 24.5088 53.3662 24.9483 52.77 25.1953 52.1484 25.1953Z" stroke="#66737C" stroke-width="3.33333" stroke-linecap="round" stroke-linejoin="round"/><path d="M32.2266 9.96094 46.2891 9.96094" stroke="#66737C" stroke-width="3.33333" stroke-linecap="round" stroke-linejoin="round"/><path d="M32.2266 16.9922 41.6016 16.9922" stroke="#66737C" stroke-width="3.33333" stroke-linecap="round" stroke-linejoin="round"/><path d="M27.5391 52.1484C27.5391 52.77 27.292 53.3662 26.8526 53.8057 26.4131 54.2452 25.8169 54.4922 25.1953 54.4922L4.10156 54.4922C3.47995 54.4922 2.88382 54.2452 2.44427 53.8057 2.00474 53.3662 1.75781 52.77 1.75781 52.1484L1.75781 46.2891C1.75781 42.8702 3.11592 39.5916 5.53338 37.174 7.95084 34.7566 11.2296 33.3984 14.6484 33.3984 18.0672 33.3984 21.346 34.7566 23.7635 37.174 26.1809 39.5916 27.5391 42.8702 27.5391 46.2891L27.5391 52.1484Z" stroke="#66737C" stroke-width="3.33333" stroke-linecap="round" stroke-linejoin="round"/><path d="M9.96094 44.2383C9.47552 44.2383 9.08203 43.8448 9.08203 43.3594 9.08203 42.874 9.47552 42.4805 9.96094 42.4805" stroke="#66737C" stroke-width="3.33333"/><path d="M9.96094 44.2383C10.4464 44.2383 10.8398 43.8448 10.8398 43.3594 10.8398 42.874 10.4464 42.4805 9.96094 42.4805" stroke="#66737C" stroke-width="3.33333"/><path d="M19.3359 44.2383C18.8505 44.2383 18.457 43.8448 18.457 43.3594 18.457 42.874 18.8505 42.4805 19.3359 42.4805" stroke="#66737C" stroke-width="3.33333"/><path d="M19.3359 44.2383C19.8214 44.2383 20.2148 43.8448 20.2148 43.3594 20.2148 42.874 19.8214 42.4805 19.3359 42.4805" stroke="#66737C" stroke-width="3.33333"/><path d="M14.6484 33.3984 14.6484 28.7109" stroke="#66737C" stroke-width="3.33333" stroke-linecap="round" stroke-linejoin="round"/><path d="M14.6484 28.7109C16.5901 28.7109 18.1641 27.1369 18.1641 25.1953 18.1641 23.2537 16.5901 21.6797 14.6484 21.6797 12.7068 21.6797 11.1328 23.2537 11.1328 25.1953 11.1328 27.1369 12.7068 28.7109 14.6484 28.7109Z" stroke="#66737C" stroke-width="3.33333" stroke-linecap="round" stroke-linejoin="round"/></svg>