<svg width="60" height="60" viewBox="-1.875 -3.075 60 60" xmlns="http://www.w3.org/2000/svg" xmlns:xlink="http://www.w3.org/1999/xlink" id="Technology-Robot-Explorer--Streamline-Ultimate" fill="none" overflow="hidden"><path d="M10.9665 50.3438C15.3157 50.3438 18.8415 46.818 18.8415 42.4688 18.8415 38.1195 15.3157 34.5938 10.9665 34.5938 6.61725 34.5938 3.09148 38.1195 3.09148 42.4688 3.09148 46.818 6.61725 50.3438 10.9665 50.3438Z" stroke="#66737C" stroke-width="3.33333" stroke-linecap="round" stroke-linejoin="round"/><path d="M39.0915 50.3438C43.4408 50.3438 46.9665 46.818 46.9665 42.4688 46.9665 38.1195 43.4408 34.5938 39.0915 34.5938 34.7422 34.5938 31.2165 38.1195 31.2165 42.4688 31.2165 46.818 34.7422 50.3438 39.0915 50.3438Z" stroke="#66737C" stroke-width="3.33333" stroke-linecap="round" stroke-linejoin="round"/><path d="M24.4665 42.4688 31.2165 42.4688" stroke="#66737C" stroke-width="3.33333" stroke-linecap="round" stroke-linejoin="round"/><path d="M5.34148 36.8372 5.34148 30.0872C5.34148 28.8936 5.8156 27.749 6.6595 26.9053 7.50341 26.0613 8.64801 25.5872 9.84148 25.5872L40.2165 25.5872C41.4099 25.5872 42.5545 26.0613 43.3984 26.9053 44.2424 27.749 44.7165 28.8936 44.7165 30.0872L44.7165 36.9542" stroke="#66737C" stroke-width="3.33333" stroke-linecap="round" stroke-linejoin="round"/><path d="M34.029 25.5938 29.529 14.3438" stroke="#66737C" stroke-width="3.33333" stroke-linecap="round" stroke-linejoin="round"/><path d="M29.529 14.3438C31.3929 14.3438 32.904 12.8327 32.904 10.9688 32.904 9.10478 31.3929 7.59375 29.529 7.59375 27.6651 7.59375 26.154 9.10478 26.154 10.9688 26.154 12.8327 27.6651 14.3438 29.529 14.3438Z" stroke="#66737C" stroke-width="3.33333" stroke-linecap="round" stroke-linejoin="round"/><path d="M32.904 10.9688 39.654 10.9688 43.029 3.65625 49.2165 3.65625 52.029 7.03125" stroke="#66737C" stroke-width="3.33333" stroke-linecap="round" stroke-linejoin="round"/><path d="M39.654 10.9688 43.029 18.2812 49.2165 18.2812 52.029 14.9062" stroke="#66737C" stroke-width="3.33333" stroke-linecap="round" stroke-linejoin="round"/><path d="M9.84148 25.5938 9.84148 17.7188" stroke="#66737C" stroke-width="3.33333" stroke-linecap="round" stroke-linejoin="round"/><path d="M17.5117 15.2822C17.5376 15.5929 17.4986 15.9057 17.3972 16.2007 17.2958 16.4956 17.1342 16.7662 16.9226 16.9953 16.711 17.2244 16.4541 17.4071 16.1682 17.5317 15.8823 17.6562 15.5736 17.72 15.2617 17.7189L4.40998 17.7189C4.09813 17.72 3.78943 17.6562 3.50352 17.5317 3.21761 17.4071 2.96071 17.2244 2.74914 16.9953 2.53757 16.7662 2.37596 16.4956 2.27452 16.2007 2.17311 15.9057 2.1341 15.5929 2.15999 15.2822L2.89573 6.46891C2.94696 5.90834 3.20643 5.38733 3.62297 5.0087 4.03952 4.63007 4.58285 4.42134 5.14573 4.42366L14.535 4.42366C15.0979 4.42134 15.6412 4.63007 16.0578 5.0087 16.4743 5.38733 16.7338 5.90834 16.785 6.46891L17.5117 15.2822Z" stroke="#66737C" stroke-width="3.33333" stroke-linecap="round" stroke-linejoin="round"/><path d="M9.83585 11.8125C9.36985 11.8125 8.9921 11.4347 8.9921 10.9688 8.9921 10.5028 9.36985 10.125 9.83585 10.125" stroke="#66737C" stroke-width="3.33333"/><path d="M9.83585 11.8125C10.3019 11.8125 10.6796 11.4347 10.6796 10.9688 10.6796 10.5028 10.3019 10.125 9.83585 10.125" stroke="#66737C" stroke-width="3.33333"/><path d="M10.9665 43.3125C10.5005 43.3125 10.1227 42.9347 10.1227 42.4688 10.1227 42.0028 10.5005 41.625 10.9665 41.625" stroke="#66737C" stroke-width="3.33333"/><path d="M10.9665 43.3125C11.4325 43.3125 11.8102 42.9347 11.8102 42.4688 11.8102 42.0028 11.4325 41.625 10.9665 41.625" stroke="#66737C" stroke-width="3.33333"/><g><path d="M39.0915 43.3125C38.6255 43.3125 38.2477 42.9347 38.2477 42.4688 38.2477 42.0028 38.6255 41.625 39.0915 41.625" stroke="#66737C" stroke-width="3.33333"/><path d="M39.0915 43.3125C39.5575 43.3125 39.9352 42.9347 39.9352 42.4688 39.9352 42.0028 39.5575 41.625 39.0915 41.625" stroke="#66737C" stroke-width="3.33333"/></g></svg>