<svg width="60" height="60" viewBox="-1.875 -1.875 60 60" xmlns="http://www.w3.org/2000/svg" xmlns:xlink="http://www.w3.org/1999/xlink" id="Timer--Streamline-Ultimate" fill="none" overflow="hidden"><path d="M28.125 1.75781C33.8831 1.76044 39.4816 3.64866 44.0653 7.13379 48.6488 10.6189 51.9647 15.5092 53.5064 21.0569 55.0479 26.6046 54.7303 32.5048 52.602 37.8548 50.4738 43.2052 46.6519 47.711 41.7209 50.6841 36.7896 53.6569 31.0207 54.9333 25.2956 54.3178 19.5707 53.7021 14.2048 51.2287 10.0184 47.2755 5.83191 43.3223 3.05524 38.1068 2.11291 32.4265 1.17057 26.7462 2.11439 20.9136 4.80007 15.8203" stroke="#66737C" stroke-width="3.33333" stroke-linecap="round" stroke-linejoin="round"/><path d="M3.51562 3.51562 28.125 28.125" stroke="#66737C" stroke-width="3.33333" stroke-linecap="round" stroke-linejoin="round"/><path d="M18.457 5.27344C17.9716 5.27344 17.5781 4.87995 17.5781 4.39453 17.5781 3.90912 17.9716 3.51562 18.457 3.51562" stroke="#66737C" stroke-width="3.33333"/><path d="M18.457 5.27344C18.9424 5.27344 19.3359 4.87995 19.3359 4.39453 19.3359 3.90912 18.9424 3.51562 18.457 3.51562" stroke="#66737C" stroke-width="3.33333"/></svg>