<svg width="60" height="60" viewBox="-2.14 -2.14 60 60" xmlns="http://www.w3.org/2000/svg" xmlns:xlink="http://www.w3.org/1999/xlink" id="Time-Clock-Circle-2--Streamline-Ultimate.svg" overflow="hidden"><defs></defs><path d="M35.9905 27.8623 27.8646 27.8623 27.8646 15.0932" stroke="#66737C" stroke-width="3.57143" stroke-linecap="round" stroke-linejoin="round" fill="none"/><path d="M10.4475 1.16315 45.2725 1.16315C45.2725 1.16315 54.5592 1.16315 54.5592 10.4498L54.5592 45.2748C54.5592 45.2748 54.5592 54.5615 45.2725 54.5615L10.4475 54.5615C10.4475 54.5615 1.16083 54.5615 1.16083 45.2748L1.16083 10.4498C1.16083 10.4498 1.16083 1.16315 10.4475 1.16315" stroke="#66737C" stroke-width="3.57143" stroke-linecap="round" stroke-linejoin="round" fill="none"/><path d="M8.12583 27.8623C8.12583 38.7612 16.9611 47.5965 27.86 47.5965 38.7589 47.5965 47.5942 38.7612 47.5942 27.8623 47.5942 16.9634 38.7589 8.12815 27.86 8.12815 16.9611 8.12815 8.12583 16.9634 8.12583 27.8623" stroke="#66737C" stroke-width="3.57143" stroke-linecap="round" stroke-linejoin="round" fill="none"/></svg>