<svg width="60" height="60" viewBox="-2.14 -2.14 60 60" xmlns="http://www.w3.org/2000/svg" xmlns:xlink="http://www.w3.org/1999/xlink" id="Tools-Ar-Kit--Streamline-Ultimate.svg" fill="none" overflow="hidden"><path d="M20.6389 21.9798 27.8602 25.7805 35.0813 21.9798" stroke="#66737C" stroke-width="3.57143" stroke-linecap="round" stroke-linejoin="round"/><path d="M5.51853 14.0216 14.0798 18.5275" stroke="#66737C" stroke-width="3.57143" stroke-linecap="round" stroke-linejoin="round"/><path d="M50.2014 14.0216 41.6403 18.5275" stroke="#66737C" stroke-width="3.57143" stroke-linecap="round" stroke-linejoin="round"/><path d="M27.86 2.09515 27.86 12.2415" stroke="#66737C" stroke-width="3.57143" stroke-linecap="round" stroke-linejoin="round"/><path d="M27.86 25.8234 27.86 34.5216" stroke="#66737C" stroke-width="3.57143" stroke-linecap="round" stroke-linejoin="round"/><path d="M27.86 43.6671 27.86 53.6247" stroke="#66737C" stroke-width="3.57143" stroke-linecap="round" stroke-linejoin="round"/><path d="M5.51853 32.7088 5.51853 42.0893 13.9079 46.5048" stroke="#66737C" stroke-width="3.57143" stroke-linecap="round" stroke-linejoin="round"/><path d="M14.0799 37.5504 5.51865 42.0563" stroke="#66737C" stroke-width="3.57143" stroke-linecap="round" stroke-linejoin="round"/><path d="M41.64 37.5504 50.2014 42.0563" stroke="#66737C" stroke-width="3.57143" stroke-linecap="round" stroke-linejoin="round"/><path d="M13.9079 9.45267 5.51853 13.8681 5.51853 23.8303" stroke="#66737C" stroke-width="3.57143" stroke-linecap="round" stroke-linejoin="round"/><path d="M20.1056 6.19063 27.86 2.10934 35.6146 6.19063" stroke="#66737C" stroke-width="3.57143" stroke-linecap="round" stroke-linejoin="round"/><path d="M41.8121 9.45267 50.2014 13.8681 50.2014 23.8303" stroke="#66737C" stroke-width="3.57143" stroke-linecap="round" stroke-linejoin="round"/><path d="M50.2014 32.7088 50.2014 42.0893 41.8121 46.5048" stroke="#66737C" stroke-width="3.57143" stroke-linecap="round" stroke-linejoin="round"/><path d="M20.1056 49.5144 27.86 53.5957 35.6146 49.5144" stroke="#66737C" stroke-width="3.57143" stroke-linecap="round" stroke-linejoin="round"/></svg>