<svg width="60" height="60" viewBox="-1.875 -1.875 60 60" xmlns="http://www.w3.org/2000/svg" xmlns:xlink="http://www.w3.org/1999/xlink" id="Touch-Password-Lock--Streamline-Ultimate" fill="none" overflow="hidden"><style>
.MsftOfcResponsive_Stroke_66737c {
 stroke:#66737C; 
}
</style>
<path d="M7.03125 28.125 5.27344 28.125C4.34105 28.125 3.44681 27.7547 2.78752 27.0954 2.12821 26.4361 1.75781 25.5417 1.75781 24.6094L1.75781 7.03125C1.75781 6.09886 2.12821 5.20463 2.78752 4.54533 3.44681 3.88603 4.34105 3.51562 5.27344 3.51562L29.8828 3.51562" class="MsftOfcResponsive_Stroke_66737c" stroke="#66737C" stroke-width="3.33333" stroke-linecap="round" stroke-linejoin="round"/><path d="M12.3049 52.7344 5.82673 45.4453C5.50177 45.0884 5.25089 44.6702 5.08863 44.2155 4.92635 43.7609 4.85592 43.2785 4.88142 42.7964 4.9069 42.3143 5.02781 41.842 5.23711 41.407 5.44643 40.9718 5.73998 40.5827 6.10078 40.2619 6.46158 39.941 6.88245 39.6952 7.33898 39.5381 7.79555 39.3811 8.27871 39.3164 8.76049 39.3473 9.24227 39.3785 9.71311 39.5048 10.1457 39.7193 10.5783 39.9335 10.9641 40.2316 11.2806 40.5961L15.8205 45.7031 15.8205 24.6094C15.8205 23.677 16.1909 22.7827 16.8502 22.1235 17.5095 21.4642 18.4037 21.0938 19.3361 21.0938 20.2685 21.0938 21.1627 21.4642 21.822 22.1235 22.4813 22.7827 22.8517 23.677 22.8517 24.6094L22.8517 40.4297 26.3674 40.4297C29.1645 40.4297 31.8471 41.5409 33.8252 43.5187 35.8031 45.4966 36.9143 48.1793 36.9143 50.9766L36.9143 52.7344" class="MsftOfcResponsive_Stroke_66737c" stroke="#66737C" stroke-width="3.33333" stroke-linecap="round" stroke-linejoin="round"/><path d="M50.9766 14.0625 36.9141 14.0625C34.9725 14.0625 33.3984 15.6365 33.3984 17.5781L33.3984 28.125C33.3984 30.0666 34.9725 31.6406 36.9141 31.6406L50.9766 31.6406C52.9181 31.6406 54.4922 30.0666 54.4922 28.125L54.4922 17.5781C54.4922 15.6365 52.9181 14.0625 50.9766 14.0625Z" class="MsftOfcResponsive_Stroke_66737c" stroke="#66737C" stroke-width="3.33333" stroke-linecap="round" stroke-linejoin="round"/><path d="M43.9453 23.7305C43.4599 23.7305 43.0664 23.337 43.0664 22.8516 43.0664 22.3661 43.4599 21.9727 43.9453 21.9727" class="MsftOfcResponsive_Stroke_66737c" stroke="#66737C" stroke-width="3.33333"/><path d="M43.9453 23.7305C44.4307 23.7305 44.8242 23.337 44.8242 22.8516 44.8242 22.3661 44.4307 21.9727 43.9453 21.9727" class="MsftOfcResponsive_Stroke_66737c" stroke="#66737C" stroke-width="3.33333"/><path d="M43.9453 3.51562C42.0806 3.51562 40.2921 4.25641 38.9735 5.57503 37.6549 6.89365 36.9141 8.68207 36.9141 10.5469L36.9141 14.0625 50.9766 14.0625 50.9766 10.5469C50.9766 8.68207 50.2357 6.89365 48.9171 5.57503 47.5985 4.25641 45.81 3.51562 43.9453 3.51562L43.9453 3.51562Z" class="MsftOfcResponsive_Stroke_66737c" stroke="#66737C" stroke-width="3.33333" stroke-linecap="round" stroke-linejoin="round"/></svg>