<svg width="60" height="60" viewBox="-1.875 -1.875 60 60" xmlns="http://www.w3.org/2000/svg" xmlns:xlink="http://www.w3.org/1999/xlink" id="Trader-Account-Increase--Streamline-Ultimate" fill="none" overflow="hidden"><path d="M6.08494 27.813 23.4278 11.28 30.5257 17.7072 47.2563 1.75789" stroke="#66737C" stroke-width="3.57143" stroke-linecap="round" stroke-linejoin="round" stroke-miterlimit="10"/><path d="M36.1235 1.75781 47.2563 1.75781 47.2563 11.7064" stroke="#66737C" stroke-width="3.57143" stroke-linecap="round" stroke-linejoin="round" stroke-miterlimit="10"/><path d="M19.4531 28.2422C22.5 31.2891 26.4844 33.3984 31.1719 33.3984 33.5156 33.3984 35.8594 32.9297 37.7344 31.9922" stroke="#66737C" stroke-width="3.57143" stroke-linecap="round" stroke-linejoin="round" stroke-miterlimit="10"/><path d="M28.125 42.7734C33.5616 42.7734 37.9688 38.3662 37.9688 32.9297 37.9688 27.4931 33.5616 23.086 28.125 23.086 22.6885 23.086 18.2812 27.4931 18.2812 32.9297 18.2812 38.3662 22.6885 42.7734 28.125 42.7734Z" stroke="#66737C" stroke-width="3.57143" stroke-linecap="round" stroke-linejoin="round" stroke-miterlimit="10"/><path d="M28.125 45.1172 28.125 54.4922" stroke="#66737C" stroke-width="3.57143" stroke-linecap="round" stroke-linejoin="round" stroke-miterlimit="10"/><path d="M44.2969 54.4922C41.0156 48.8672 34.9219 45.1172 28.125 45.1172 21.3281 45.1172 15.2344 48.8672 11.9531 54.4922" stroke="#66737C" stroke-width="3.57143" stroke-linecap="round" stroke-linejoin="round" stroke-miterlimit="10"/></svg>