<svg width="60" height="60" viewBox="-1.875 -1.875 60 60" xmlns="http://www.w3.org/2000/svg" xmlns:xlink="http://www.w3.org/1999/xlink" id="Transit-Gateway--Streamline-Ultimate" fill="none" overflow="hidden"><path d="M11.1327 25.0781 11.1327 8.20312C11.1327 5.625 13.242 3.51562 15.8202 3.51562L29.8826 3.51562C32.4607 3.51562 34.5701 5.625 34.5701 8.20312L34.5701 48.0469C34.5701 50.625 32.4607 52.7344 29.8826 52.7344L15.8202 52.7344C13.242 52.7344 11.1327 50.625 11.1327 48.0469L11.1327 32.1094" stroke="#66737C" stroke-width="3.33333" stroke-linecap="round" stroke-linejoin="round" stroke-miterlimit="10"/><path d="M34.5701 32.1094 42.7732 32.1094 42.7732 39.1406 54.492 28.5938 42.7732 18.0468 42.7732 25.0781 34.5701 25.0781" stroke="#66737C" stroke-width="3.33333" stroke-linecap="round" stroke-linejoin="round" stroke-miterlimit="10"/><path d="M1.75781 32.1094 21.6797 32.1094" stroke="#66737C" stroke-width="3.33333" stroke-linecap="round" stroke-linejoin="round" stroke-miterlimit="10"/><path d="M21.6797 25.0781 1.75781 25.0781" stroke="#66737C" stroke-width="3.33333" stroke-linecap="round" stroke-linejoin="round" stroke-miterlimit="10"/></svg>