<svg width="60" height="60" viewBox="-2.14 -2.14 60 60" xmlns="http://www.w3.org/2000/svg" xmlns:xlink="http://www.w3.org/1999/xlink" id="Tree-1--Streamline-Ultimate.svg" overflow="hidden"><path d="M21.631 6.18724 11.1835 28.4126C8.8618 33.7524 12.2352 40.0488 17.4125 40.0488L38.3075 40.0488C43.4848 40.0488 46.8536 33.757 44.5365 28.4126L34.089 6.18724C32.9068 2.74704 29.1596 0.916576 25.7194 2.09878 23.7993 2.75862 22.2908 4.26712 21.631 6.18724Z" stroke="#66737C" stroke-width="3.57143" stroke-linecap="round" stroke-linejoin="round" fill="none"/><path d="M27.86 22.6362 27.86 53.9787" stroke="#66737C" stroke-width="3.57143" stroke-linecap="round" stroke-linejoin="round" fill="none"/><path d="M27.86 48.755C32.3947 49.0287 36.2926 45.5745 36.5662 41.0398 36.5862 40.7098 36.5862 40.3788 36.5662 40.0488" stroke="#66737C" stroke-width="3.57143" stroke-linecap="round" stroke-linejoin="round" fill="none"/><path d="M20.895 26.1187C20.5348 28.6435 22.2895 30.9823 24.8142 31.3425 25.2469 31.4042 25.6861 31.4042 26.1187 31.3425L27.86 31.3425" stroke="#66737C" stroke-width="3.57143" stroke-linecap="round" stroke-linejoin="round" fill="none"/></svg>