<svg width="60" height="60" viewBox="-1.875 -1.875 60 60" xmlns="http://www.w3.org/2000/svg" xmlns:xlink="http://www.w3.org/1999/xlink" id="Trekking-Mountain--Streamline-Ultimate" overflow="hidden"><path d="M15.8203 54.1992 26.3672 54.1992 35.1562 47.168 42.1875 47.168 49.2188 33.1055 54.4922 33.1055" stroke="#66737C" stroke-width="3.57143" stroke-linecap="round" stroke-linejoin="round" fill="none"/><path d="M24.6094 47.168C24.6094 38.0672 15.8203 34.8633 14.8594 34.0922L16.6664 28.9688C19.9758 32.6836 24.7289 33.1055 29.8828 33.1055" stroke="#66737C" stroke-width="3.57143" stroke-linecap="round" stroke-linejoin="round" fill="none"/><path d="M29.8828 26.0742C25.8 26.0742 22.1484 25.5633 20.3086 21.9141L18.968 19.2188C18.3249 17.9672 17.0075 17.2094 15.6023 17.2828 14.1933 17.3715 12.9741 18.2945 12.5062 19.6266L1.95938 49.5094C1.31158 51.3398 2.27025 53.3487 4.10063 53.9965 4.10172 53.9969 4.10281 53.9973 4.10391 53.9977 4.48079 54.1285 4.87682 54.1959 5.27578 54.1969 6.76632 54.1977 8.09534 53.2584 8.59219 51.8531L12.3961 41.0719C14.0625 41.8922 17.5781 42.7781 17.5781 47.1656" stroke="#66737C" stroke-width="3.57143" stroke-linecap="round" stroke-linejoin="round" fill="none"/><path d="M16.7016 8.49609C16.7016 11.8939 19.4561 14.6484 22.8539 14.6484 26.2518 14.6484 29.0063 11.8939 29.0063 8.49609 29.0063 5.09825 26.2518 2.34375 22.8539 2.34375 19.4561 2.34375 16.7016 5.09825 16.7016 8.49609Z" stroke="#66737C" stroke-width="3.57143" stroke-linecap="round" stroke-linejoin="round" fill="none"/><path d="M1.76016 29.5898 7.03359 17.2852" stroke="#66737C" stroke-width="3.57143" stroke-linecap="round" stroke-linejoin="round" fill="none"/><path d="M38.6719 47.168 33.3984 17.2852" stroke="#66737C" stroke-width="3.57143" stroke-linecap="round" stroke-linejoin="round" fill="none"/></svg>