<svg width="60" height="60" viewBox="-1.875 -1.875 60 60" xmlns="http://www.w3.org/2000/svg" xmlns:xlink="http://www.w3.org/1999/xlink" id="Trip-Pins--Streamline-Ultimate" fill="none" overflow="hidden"><path d="M12.3047 1.75781C15.1019 1.75781 17.7845 2.86901 19.7625 4.84692 21.7404 6.82484 22.8516 9.50749 22.8516 12.3047 22.8516 16.807 16.5516 25.3734 13.6898 29.0344 13.5254 29.2448 13.3153 29.415 13.0752 29.532 12.8352 29.6491 12.5717 29.7098 12.3047 29.7098 12.0377 29.7098 11.7741 29.6491 11.5341 29.532 11.2941 29.415 11.0839 29.2448 10.9195 29.0344 8.05781 25.3758 1.75781 16.807 1.75781 12.3047 1.75781 9.50749 2.86901 6.82484 4.84692 4.84692 6.82484 2.86901 9.50749 1.75781 12.3047 1.75781L12.3047 1.75781Z" stroke="#66737C" stroke-width="3.57143" stroke-linecap="round" stroke-linejoin="round"/><path d="M43.9453 26.5406C46.7426 26.5406 49.4252 27.6518 51.4031 29.6297 53.381 31.6076 54.4922 34.2902 54.4922 37.0875 54.4922 41.5898 48.1922 50.1562 45.3305 53.8172 45.1662 54.0277 44.9559 54.1978 44.7159 54.3148 44.4759 54.432 44.2123 54.4927 43.9453 54.4927 43.6784 54.4927 43.4147 54.432 43.1747 54.3148 42.9347 54.1978 42.7245 54.0277 42.5602 53.8172 39.6984 50.1562 33.3984 41.5898 33.3984 37.0875 33.3984 34.2902 34.5096 31.6076 36.4875 29.6297 38.4654 27.6518 41.148 26.5406 43.9453 26.5406Z" stroke="#66737C" stroke-width="3.57143" stroke-linecap="round" stroke-linejoin="round"/><path d="M12.3047 36.9141 12.3047 43.9453" stroke="#66737C" stroke-width="3.57143" stroke-linecap="round" stroke-linejoin="round"/><path d="M12.3047 50.9766C12.3047 51.9089 12.6751 52.8033 13.3344 53.4626 13.9937 54.1219 14.8879 54.4922 15.8203 54.4922L19.3359 54.4922" stroke="#66737C" stroke-width="3.57143" stroke-linecap="round" stroke-linejoin="round"/><path d="M26.3672 54.4922 29.8828 54.4922" stroke="#66737C" stroke-width="3.57143" stroke-linecap="round" stroke-linejoin="round"/><path d="M12.3047 13.1836C11.8193 13.1836 11.4258 12.7901 11.4258 12.3047 11.4258 11.8193 11.8193 11.4258 12.3047 11.4258" stroke="#66737C" stroke-width="3.57143"/><path d="M12.3047 13.1836C12.7901 13.1836 13.1836 12.7901 13.1836 12.3047 13.1836 11.8193 12.7901 11.4258 12.3047 11.4258" stroke="#66737C" stroke-width="3.57143"/><g><path d="M43.9453 37.9688C43.4599 37.9688 43.0664 37.5752 43.0664 37.0898 43.0664 36.6045 43.4599 36.2109 43.9453 36.2109" stroke="#66737C" stroke-width="3.57143"/><path d="M43.9453 37.9688C44.4307 37.9688 44.8242 37.5752 44.8242 37.0898 44.8242 36.6045 44.4307 36.2109 43.9453 36.2109" stroke="#66737C" stroke-width="3.57143"/></g></svg>