<svg width="60" height="60" viewBox="-1.875 -1.875 60 60" xmlns="http://www.w3.org/2000/svg" xmlns:xlink="http://www.w3.org/1999/xlink" id="Ubuntu-Logo--Streamline-Ultimate" overflow="hidden"><defs></defs><path d="M3.66563 29.8828C3.66563 33.7661 6.81362 36.9141 10.6969 36.9141 14.5801 36.9141 17.7281 33.7661 17.7281 29.8828 17.7281 25.9996 14.5801 22.8516 10.6969 22.8516 6.81362 22.8516 3.66562 25.9996 3.66562 29.8828" stroke="#66737C" stroke-width="3.33333" stroke-linecap="round" stroke-linejoin="round" fill="none"/><path d="M38.0789 47.407C38.0789 51.2903 41.2269 54.4383 45.1102 54.4383 48.9934 54.4383 52.1414 51.2903 52.1414 47.407 52.1414 43.5238 48.9934 40.3758 45.1102 40.3758 41.2269 40.3758 38.0789 43.5238 38.0789 47.407" stroke="#66737C" stroke-width="3.33333" stroke-linecap="round" stroke-linejoin="round" fill="none"/><path d="M36.0492 8.84297C36.0492 12.7262 39.1972 15.8742 43.0805 15.8742 46.9637 15.8742 50.1117 12.7262 50.1117 8.84297 50.1117 4.95972 46.9637 1.81172 43.0805 1.81172 39.1972 1.81172 36.0492 4.95972 36.0492 8.84297" stroke="#66737C" stroke-width="3.33333" stroke-linecap="round" stroke-linejoin="round" fill="none"/><path d="M25.8586 10.0945C28.1268 9.22842 30.5346 8.78594 32.9625 8.78906 33.9998 8.78734 35.0357 8.8657 36.0609 9.02344" stroke="#66737C" stroke-width="3.33333" stroke-linecap="round" stroke-linejoin="round" fill="none"/><path d="M13.7133 23.5664C14.3403 21.211 15.3971 18.9917 16.8305 17.0203" stroke="#66737C" stroke-width="3.33333" stroke-linecap="round" stroke-linejoin="round" fill="none"/><path d="M20.093 43.9242C17.5432 41.7593 15.5757 38.9909 14.3695 35.8711" stroke="#66737C" stroke-width="3.33333" stroke-linecap="round" stroke-linejoin="round" fill="none"/><path d="M38.1352 47.9555C35.2595 48.7274 32.2472 48.8444 29.3203 48.2977" stroke="#66737C" stroke-width="3.33333" stroke-linecap="round" stroke-linejoin="round" fill="none"/><path d="M52.5844 32.1984C52.1767 34.4772 51.3757 36.6677 50.2172 38.6719 49.6985 39.5695 49.1116 40.4259 48.4617 41.2336" stroke="#66737C" stroke-width="3.33333" stroke-linecap="round" stroke-linejoin="round" fill="none"/><path d="M47.0438 14.6109C49.1512 16.7145 50.7588 19.2648 51.7477 22.0734" stroke="#66737C" stroke-width="3.33333" stroke-linecap="round" stroke-linejoin="round" fill="none"/></svg>