<svg width="60" height="60" viewBox="-1.875 -1.875 60 60" xmlns="http://www.w3.org/2000/svg" xmlns:xlink="http://www.w3.org/1999/xlink" id="User-Experience-Design--Streamline-Ultimate" fill="none" overflow="hidden"><style>
.MsftOfcResponsive_Stroke_66737c {
 stroke:#66737C; 
}
</style>
<path d="M27.5726 31.7269C30.333 31.7269 32.5706 29.4893 32.5706 26.7288 32.5706 23.9686 30.333 21.7309 27.5726 21.7309 24.8123 21.7309 22.5746 23.9686 22.5746 26.7288 22.5746 29.4893 24.8123 31.7269 27.5726 31.7269Z" class="MsftOfcResponsive_Stroke_66737c" stroke="#66737C" stroke-width="3.33333" stroke-linecap="round" stroke-linejoin="round" stroke-miterlimit="10"/><path d="M35.9496 39.4999C34.8551 35.9147 31.466 33.2264 27.5728 33.2264 23.6798 33.2264 20.2906 35.9147 19.1963 39.4999" class="MsftOfcResponsive_Stroke_66737c" stroke="#66737C" stroke-width="3.33333" stroke-linecap="round" stroke-linejoin="round" stroke-miterlimit="10"/><path d="M49.5652 30.6152C49.5652 23.1284 45.8241 16.5155 40.1093 12.5439M15.0384 12.5439C9.32358 16.5155 5.58244 23.1284 5.58244 30.6152 5.58244 31.3376 5.61727 32.052 5.68535 32.7565M32.4539 52.0631C30.8843 52.4187 29.2509 52.6066 27.5737 52.6066 24.1158 52.6066 20.8441 51.8084 17.9331 50.3862" class="MsftOfcResponsive_Stroke_66737c" stroke="#66737C" stroke-width="3.33333" stroke-linecap="round"/><path d="M2.20312 44.2687C2.20312 47.5151 4.83485 50.1469 8.08125 50.1469 11.3276 50.1469 13.9594 47.5151 13.9594 44.2687 13.9594 41.0224 11.3276 38.3906 8.08125 38.3906 4.83485 38.3906 2.20313 41.0224 2.20313 44.2687" class="MsftOfcResponsive_Stroke_66737c" stroke="#66737C" stroke-width="3.33333"/><path d="M33.1123 14.7217 22.0342 14.7217 22.0342 3.6435 33.1123 3.6435 33.1123 14.7217Z" class="MsftOfcResponsive_Stroke_66737c" stroke="#66737C" stroke-width="3.33333" stroke-linejoin="round"/><path d="M39.8231 50.0264 46.9355 37.878 54.0478 50.0264 39.8231 50.0264Z" class="MsftOfcResponsive_Stroke_66737c" stroke="#66737C" stroke-width="3.33333" stroke-linecap="round" stroke-linejoin="round"/></svg>