<svg width="60" height="60" viewBox="-1.875 -1.875 60 60" xmlns="http://www.w3.org/2000/svg" xmlns:xlink="http://www.w3.org/1999/xlink" id="User-Idea--Streamline-Ultimate" overflow="hidden"><path d="M36.9141 1.75781 36.9141 5.27344" stroke="#66737C" stroke-width="3.33333" stroke-linecap="round" stroke-linejoin="round" fill="none"/><path d="M54.4922 19.3359 50.7258 19.3359" stroke="#66737C" stroke-width="3.33333" stroke-linecap="round" stroke-linejoin="round" fill="none"/><path d="M22.4156 7.85156 25.6148 11.0484" stroke="#66737C" stroke-width="3.33333" stroke-linecap="round" stroke-linejoin="round" fill="none"/><path d="M51.4125 7.85156 48.2133 11.0484" stroke="#66737C" stroke-width="3.33333" stroke-linecap="round" stroke-linejoin="round" fill="none"/><path d="M33.3984 27.382 33.3984 31.6406 40.4297 31.6406 40.4297 27.382C44.8734 25.4351 46.8973 20.2544 44.9504 15.8108 43.0034 11.3671 37.8228 9.34313 33.3791 11.2901 32.6151 11.6248 31.9027 12.0667 31.2633 12.6023" stroke="#66737C" stroke-width="3.33333" stroke-linecap="round" stroke-linejoin="round" fill="none"/><path d="M33.3984 36.9141 40.4297 36.9141" stroke="#66737C" stroke-width="3.33333" stroke-linecap="round" stroke-linejoin="round" fill="none"/><path d="M1.75781 54.4922C1.75781 45.7549 8.84081 38.6719 17.5781 38.6719 26.3154 38.6719 33.3984 45.7549 33.3984 54.4922Z" stroke="#66737C" stroke-width="3.33333" stroke-linecap="round" stroke-linejoin="round" fill="none"/><path d="M9.24609 20.5805C13.8882 25.3876 21.0205 26.8209 27.1594 24.1805" stroke="#66737C" stroke-width="3.33333" stroke-linecap="round" stroke-linejoin="round" fill="none"/><path d="M7.91016 25.4883C7.91016 30.8278 12.2387 35.1562 17.5781 35.1562 22.9176 35.1562 27.2461 30.8278 27.2461 25.4883 27.2461 20.1488 22.9176 15.8203 17.5781 15.8203 12.2387 15.8203 7.91016 20.1488 7.91016 25.4883Z" stroke="#66737C" stroke-width="3.33333" stroke-linecap="round" stroke-linejoin="round" fill="none"/></svg>