<svg width="60" height="60" viewBox="-1.875 -1.875 60 60" xmlns="http://www.w3.org/2000/svg" xmlns:xlink="http://www.w3.org/1999/xlink" id="User-Multiple-Male-Female--Streamline-Ultimate" overflow="hidden"><style>
.MsftOfcResponsive_Stroke_66737c {
 stroke:#66737C; 
}
</style>
<defs></defs><path d="M45.7031 34.1297 49.2188 34.1297 50.2734 27.8016 54.4922 27.8016 51.3281 18.3094C50.2734 15.1453 48.968 13.0359 46.0547 13.0359 43.1414 13.0359 41.8359 15.1453 40.7812 18.3094L40.1555 20.1844" class="MsftOfcResponsive_Stroke_66737c" stroke="#66737C" stroke-width="3.33333" stroke-linecap="round" stroke-linejoin="round" fill="none"/><path d="M41.8359 6.70781C41.8359 9.03776 43.7247 10.9266 46.0547 10.9266 48.3846 10.9266 50.2734 9.03776 50.2734 6.70781 50.2734 4.37786 48.3846 2.48906 46.0547 2.48906 43.7247 2.48906 41.8359 4.37786 41.8359 6.70781" class="MsftOfcResponsive_Stroke_66737c" stroke="#66737C" stroke-width="3.33333" stroke-linecap="round" stroke-linejoin="round" fill="none"/><path d="M10.5469 34.1297 7.03125 34.1297 5.97656 27.8016 1.75781 27.8016 4.92188 18.3094C5.97656 15.1453 7.28203 13.0359 10.1953 13.0359 13.1086 13.0359 14.4141 15.1453 15.4688 18.3094L16.0945 20.1844" class="MsftOfcResponsive_Stroke_66737c" stroke="#66737C" stroke-width="3.33333" stroke-linecap="round" stroke-linejoin="round" fill="none"/><path d="M5.97656 6.70781C5.97656 9.03776 7.86536 10.9266 10.1953 10.9266 12.5253 10.9266 14.4141 9.03776 14.4141 6.70781 14.4141 4.37786 12.5253 2.48906 10.1953 2.48906 7.86536 2.48906 5.97656 4.37786 5.97656 6.70781" class="MsftOfcResponsive_Stroke_66737c" stroke="#66737C" stroke-width="3.33333" stroke-linecap="round" stroke-linejoin="round" fill="none"/><path d="M21.9445 13.582C21.9445 16.9954 24.7116 19.7625 28.125 19.7625 31.5384 19.7625 34.3055 16.9954 34.3055 13.582 34.3055 10.1687 31.5384 7.40156 28.125 7.40156 24.7116 7.40156 21.9445 10.1687 21.9445 13.582" class="MsftOfcResponsive_Stroke_66737c" stroke="#66737C" stroke-width="3.33333" stroke-linecap="round" stroke-linejoin="round" fill="none"/><path d="M38.9414 33.6727C38.9414 27.6989 34.0987 22.8563 28.125 22.8563 22.1513 22.8563 17.3086 27.6989 17.3086 33.6727L17.3086 38.3086 21.9445 38.3086 23.4891 53.7609 32.7609 53.7609 34.3055 38.3086 38.9414 38.3086Z" class="MsftOfcResponsive_Stroke_66737c" stroke="#66737C" stroke-width="3.33333" stroke-linecap="round" stroke-linejoin="round" fill="none"/></svg>