<svg width="60" height="60" viewBox="-1.875 -1.875 60 60" xmlns="http://www.w3.org/2000/svg" xmlns:xlink="http://www.w3.org/1999/xlink" id="User-Question--Streamline-Ultimate" fill="none" overflow="hidden"><path d="M36.3281 54.4924 36.3281 45.7291 38.6883 46.1229C39.6959 46.2907 40.7276 46.237 41.7122 45.9656 42.6968 45.6942 43.6104 45.2116 44.3895 44.5514 45.1688 43.8912 45.7948 43.069 46.2239 42.1423 46.653 41.2155 46.8755 40.2066 46.875 39.1854L46.875 33.4245 49.0664 32.876C49.613 32.7391 50.1185 32.4731 50.5406 32.1002 50.9627 31.7273 51.289 31.2584 51.4922 30.7329 51.6952 30.2077 51.769 29.6412 51.7076 29.0812 51.6459 28.5213 51.4507 27.9844 51.1383 27.5159L46.875 21.1196 46.875 19.3618C46.875 8.9884 36.3773 0.703247 23.8641 1.87512 19.4051 2.28012 15.1909 4.09441 11.832 7.05506 8.47324 10.0157 6.1444 13.969 5.18295 18.3419 4.22152 22.7149 4.67745 27.2803 6.48466 31.377 8.29188 35.4734 11.3565 38.888 15.2345 41.126L15.2345 54.4854" stroke="#66737C" stroke-width="3.33333" stroke-linecap="round" stroke-linejoin="round"/><path d="M20.0907 19.336C20.0909 18.047 20.4455 16.7829 21.1156 15.6818 21.7858 14.5807 22.7457 13.685 23.8905 13.0926 25.0355 12.5002 26.321 12.234 27.6068 12.3229 28.8928 12.4118 30.1296 12.8525 31.182 13.5968 32.2343 14.3411 33.0619 15.3604 33.5742 16.5432 34.0863 17.726 34.2635 19.0269 34.0866 20.3037 33.9094 21.5805 33.3846 22.784 32.5697 23.7827 31.7548 24.7814 30.6809 25.5368 29.4656 25.9664 28.7798 26.209 28.1864 26.658 27.7664 27.252 27.3466 27.8461 27.1216 28.5555 27.1219 29.2828L27.1219 29.8828" stroke="#66737C" stroke-width="3.33333" stroke-linecap="round" stroke-linejoin="round"/><path d="M27.1219 38.6719C26.6365 38.6719 26.243 38.2784 26.243 37.793 26.243 37.3076 26.6365 36.9141 27.1219 36.9141" stroke="#66737C" stroke-width="3.33333"/><path d="M27.1219 38.6719C27.6073 38.6719 28.0008 38.2784 28.0008 37.793 28.0008 37.3076 27.6073 36.9141 27.1219 36.9141" stroke="#66737C" stroke-width="3.33333"/></svg>