<svg width="60" height="60" viewBox="-1.875 -1.875 60 60" xmlns="http://www.w3.org/2000/svg" xmlns:xlink="http://www.w3.org/1999/xlink" id="Valve-Caution-2--Streamline-Ultimate" fill="none" overflow="hidden"><path d="M12.4266 32.8125 1.75781 32.8125" stroke="#66737C" stroke-width="3.33333" stroke-linecap="round" stroke-linejoin="round"/><path d="M54.4922 32.8125 43.6125 32.8125" stroke="#66737C" stroke-width="3.33333" stroke-linecap="round" stroke-linejoin="round"/><path d="M43.6242 23.4375 54.4922 23.4375" stroke="#66737C" stroke-width="3.33333" stroke-linecap="round" stroke-linejoin="round"/><path d="M1.75781 23.4375 12.6375 23.4375" stroke="#66737C" stroke-width="3.33333" stroke-linecap="round" stroke-linejoin="round"/><path d="M41.632 30.5109C41.3845 30.3687 41.1248 30.2487 40.8563 30.1523 41.0688 28.8091 41.0688 27.4409 40.8563 26.0977 41.1248 26.0013 41.3845 25.8813 41.632 25.7391 42.195 25.4123 42.6837 24.972 43.0671 24.4458 43.4505 23.9198 43.7201 23.3198 43.8588 22.6838 43.9976 22.0478 44.0023 21.39 43.8729 20.7521 43.7433 20.1142 43.4822 19.5102 43.1065 18.9788 42.7308 18.4473 42.2484 17.9999 41.6902 17.6651 41.1319 17.3302 40.5101 17.1154 39.8644 17.0341 39.2184 16.9528 38.5629 17.007 37.939 17.193 37.3153 17.3791 36.7371 17.693 36.2414 18.1148 35.1839 17.2567 33.9973 16.5709 32.7258 16.0828 32.7797 15.8031 32.8088 15.5192 32.8125 15.2344 32.8125 13.9912 32.3187 12.7989 31.4395 11.9198 30.5604 11.0407 29.3681 10.5469 28.125 10.5469 26.8819 10.5469 25.6896 11.0407 24.8105 11.9198 23.9313 12.7989 23.4375 13.9912 23.4375 15.2344 23.438 15.5189 23.464 15.8029 23.5148 16.0828 22.2433 16.5709 21.0568 17.2567 19.9992 18.1148 19.5035 17.693 18.9253 17.3791 18.3015 17.193 17.6778 17.007 17.0221 16.9528 16.3763 17.0341 15.7305 17.1154 15.1087 17.3302 14.5505 17.6651 13.9923 17.9999 13.5099 18.4473 13.1341 18.9788 12.7583 19.5102 12.4974 20.1142 12.3678 20.7521 12.2383 21.39 12.243 22.0478 12.3818 22.6838 12.5205 23.3198 12.7901 23.9198 13.1735 24.4458 13.5569 24.972 14.0456 25.4123 14.6086 25.7391 14.8561 25.8813 15.1157 26.0013 15.3844 26.0977 15.1719 27.4409 15.1719 28.8091 15.3844 30.1523 15.1157 30.2487 14.8561 30.3687 14.6086 30.5109 14.0456 30.8377 13.5569 31.278 13.1735 31.8042 12.7901 32.3302 12.5205 32.9302 12.3818 33.5662 12.243 34.2021 12.2383 34.86 12.3678 35.498 12.4974 36.1359 12.7583 36.7397 13.1341 37.2713 13.5099 37.8028 13.9923 38.2502 14.5505 38.5849 15.1087 38.9198 15.7305 39.1345 16.3763 39.2159 17.0221 39.2972 17.6778 39.243 18.3015 39.057 18.9253 38.8709 19.5035 38.557 19.9992 38.1352 21.0568 38.9934 22.2433 39.6792 23.5148 40.1672 23.464 40.4473 23.438 40.7311 23.4375 41.0156 23.4375 42.2588 23.9313 43.451 24.8105 44.3302 25.6896 45.2093 26.8819 45.7031 28.125 45.7031 29.3681 45.7031 30.5604 45.2093 31.4395 44.3302 32.3187 43.451 32.8125 42.2588 32.8125 41.0156 32.8118 40.7311 32.786 40.4473 32.7352 40.1672 34.0066 39.6792 35.1933 38.9934 36.2508 38.1352 36.7465 38.557 37.3247 38.8709 37.9484 39.057 38.5723 39.243 39.2278 39.2972 39.8737 39.2159 40.5195 39.1345 41.1413 38.9198 41.6995 38.5849 42.2578 38.2502 42.7402 37.8028 43.1159 37.2713 43.4916 36.7397 43.7527 36.1359 43.8823 35.498 44.0116 34.86 44.007 34.2021 43.8682 33.5662 43.7295 32.9302 43.4599 32.3302 43.0765 31.8042 42.693 31.278 42.2044 30.8377 41.6414 30.5109L41.632 30.5109Z" stroke="#66737C" stroke-width="3.33333" stroke-linecap="round" stroke-linejoin="round"/><path d="M28.125 21.3867 28.125 27.2461" stroke="#66737C" stroke-width="3.33333" stroke-linecap="round" stroke-linejoin="round"/><path d="M28.125 35.1562C27.6396 35.1562 27.2461 34.7627 27.2461 34.2773 27.2461 33.792 27.6396 33.3984 28.125 33.3984" stroke="#66737C" stroke-width="3.33333"/><path d="M28.125 35.1562C28.6104 35.1562 29.0039 34.7627 29.0039 34.2773 29.0039 33.792 28.6104 33.3984 28.125 33.3984" stroke="#66737C" stroke-width="3.33333"/></svg>