<svg width="60" height="60" viewBox="-1.875 -1.875 60 60" xmlns="http://www.w3.org/2000/svg" xmlns:xlink="http://www.w3.org/1999/xlink" id="Valve-3--Streamline-Ultimate" overflow="hidden"><defs></defs><path d="M14.6484 41.6016 14.6484 54.4922" stroke="#66737C" stroke-width="3.33333" stroke-linecap="round" stroke-linejoin="round" fill="none"/><path d="M14.6484 1.75781 14.6484 15.8203" stroke="#66737C" stroke-width="3.33333" stroke-linecap="round" stroke-linejoin="round" fill="none"/><path d="M5.27344 15.8203 5.27344 1.75781" stroke="#66737C" stroke-width="3.33333" stroke-linecap="round" stroke-linejoin="round" fill="none"/><path d="M5.27344 54.4922 5.27344 41.6016" stroke="#66737C" stroke-width="3.33333" stroke-linecap="round" stroke-linejoin="round" fill="none"/><path d="M18.1641 20.5078 14.6484 15.8203 5.27344 15.8203 1.75781 20.5078 1.75781 36.9141 5.27344 41.6016 14.6484 41.6016 18.1641 36.9141" stroke="#66737C" stroke-width="3.33333" stroke-linecap="round" stroke-linejoin="round" fill="none"/><path d="M25.1953 32.2266 12.3047 32.2266C10.3631 32.2266 8.78906 30.6526 8.78906 28.7109 8.78906 26.7693 10.3631 25.1953 12.3047 25.1953L25.1953 25.1953Z" stroke="#66737C" stroke-width="3.33333" stroke-linecap="round" stroke-linejoin="round" fill="none"/><path d="M54.4922 28.7109C54.4922 31.947 51.8689 34.5703 48.6328 34.5703L27.5391 34.5703C26.2446 34.5703 25.1953 33.521 25.1953 32.2266L25.1953 25.1953C25.1953 23.9009 26.2446 22.8516 27.5391 22.8516L48.6328 22.8516C51.8689 22.8516 54.4922 25.4749 54.4922 28.7109Z" stroke="#66737C" stroke-width="3.33333" stroke-linecap="round" stroke-linejoin="round" fill="none"/></svg>