<svg width="60" height="60" viewBox="-2.14 -2.14 60 60" xmlns="http://www.w3.org/2000/svg" xmlns:xlink="http://www.w3.org/1999/xlink" id="Vintage-Tv-4--Streamline-Ultimate.svg" overflow="hidden"><g><path d="M5.22375 12.1888 50.4963 12.1888C50.4963 12.1888 53.9787 12.1888 53.9787 15.6713L53.9787 50.4963C53.9787 50.4963 53.9787 53.9787 50.4963 53.9787L5.22375 53.9787C5.22375 53.9787 1.74125 53.9787 1.74125 50.4963L1.74125 15.6713C1.74125 15.6713 1.74125 12.1888 5.22375 12.1888" stroke="#66737C" stroke-width="3.57143" stroke-linecap="round" stroke-linejoin="round" fill="none"/><path d="M9.28667 41.2328 9.28667 24.8418C9.27386 23.1582 10.4829 21.7133 12.1423 21.429 17.3371 20.5836 22.5979 20.2106 27.86 20.3146 33.1221 20.2106 38.3829 20.5836 43.5777 21.429 45.2371 21.7133 46.4461 23.1582 46.4333 24.8418L46.4333 41.2328C46.4424 42.944 45.1988 44.4047 43.508 44.6689 38.3348 45.5043 33.1001 45.9004 27.86 45.8529 22.6199 45.9004 17.3852 45.5043 12.212 44.6689 10.5212 44.4047 9.27765 42.944 9.28667 41.2328Z" stroke="#66737C" stroke-width="3.57143" stroke-linecap="round" stroke-linejoin="round" fill="none"/><path d="M24.3775 1.74125 33.0838 12.1888 41.79 1.74125" stroke="#66737C" stroke-width="3.57143" stroke-linecap="round" stroke-linejoin="round" fill="none"/></g></svg>