<svg width="60" height="60" viewBox="-2.14 -2.14 60 60" xmlns="http://www.w3.org/2000/svg" xmlns:xlink="http://www.w3.org/1999/xlink" id="Vip-Crown-Queen-1--Streamline-Ultimate.svg" overflow="hidden"><g><path d="M50.8909 39.1897 53.9555 16.0891C54.0973 15.138 53.4412 14.252 52.49 14.1102 52.1337 14.0571 51.7697 14.1158 51.4481 14.2782L41.5114 21.8469C40.7677 22.4566 39.6706 22.348 39.0609 21.6043 39.0328 21.5701 39.0061 21.5349 38.9808 21.4986L29.1601 7.15073C28.5597 6.43269 27.4908 6.33737 26.7728 6.93782 26.6956 7.00234 26.6244 7.07359 26.5599 7.15073L16.7392 21.4986C16.1879 22.2866 15.1022 22.4783 14.3143 21.927 14.278 21.9016 14.2428 21.8749 14.2086 21.8469L4.27187 14.2782C3.41352 13.8446 2.36616 14.1889 1.93252 15.0472 1.77006 15.3688 1.71135 15.7328 1.76447 16.0891L4.82907 39.3058" stroke="#66737C" stroke-width="3.57143" stroke-linecap="round" stroke-linejoin="round" fill="none"/><path d="M48.755 38.7254 6.965 38.7254C4.08 38.7254 1.74125 41.0642 1.74125 43.9492L1.74125 43.9492C1.74125 46.8341 4.08 49.1729 6.965 49.1729L48.755 49.1729C51.64 49.1729 53.9788 46.8341 53.9788 43.9492L53.9787 43.9492C53.9787 41.0642 51.64 38.7254 48.755 38.7254Z" stroke="#66737C" stroke-width="3.57143" stroke-linecap="round" stroke-linejoin="round" fill="none"/></g></svg>