<svg width="60" height="60" viewBox="-2.14 -2.14 60 60" xmlns="http://www.w3.org/2000/svg" xmlns:xlink="http://www.w3.org/1999/xlink" id="Vip-Crown-Queen-2--Streamline-Ultimate.svg" overflow="hidden"><g><path d="M50.8909 39.4683 53.9555 16.2517C54.0973 15.3005 53.4412 14.4145 52.49 14.2727 52.1337 14.2196 51.7697 14.2783 51.4481 14.4408L41.5114 22.1951C40.7819 22.8019 39.6987 22.7025 39.0919 21.973 39.0522 21.9253 39.0151 21.8754 38.9808 21.8237L29.1601 7.47577C28.5399 6.75772 27.455 6.67845 26.7369 7.29871 26.6737 7.35334 26.6145 7.41252 26.5599 7.47577L16.7392 21.8237C16.2149 22.6145 15.1488 22.8306 14.358 22.3063 14.3062 22.2719 14.2563 22.2348 14.2086 22.1951L4.27187 14.6265C3.41352 14.1929 2.36616 14.5371 1.93252 15.3955 1.77006 15.717 1.71135 16.0811 1.76447 16.4374L4.82907 39.4683Z" stroke="#66737C" stroke-width="3.57143" stroke-linecap="round" stroke-linejoin="round" fill="none"/><path d="M5.22375 48.8246 50.4963 48.8246" stroke="#66737C" stroke-width="3.57143" stroke-linecap="round" stroke-linejoin="round" fill="none"/></g></svg>