<svg width="60" height="60" viewBox="-2.14 -2.14 60 60" xmlns="http://www.w3.org/2000/svg" xmlns:xlink="http://www.w3.org/1999/xlink" id="Warehouse-1--Streamline-Ultimate.svg" overflow="hidden"><g><path d="M1.76447 11.6083 1.76447 15.6713C1.76447 16.6329 2.54405 17.4125 3.50572 17.4125L52.2607 17.4125C53.2172 17.4 53.9895 16.6277 54.002 15.6713L54.002 11.6083C43.9027 0.812583 11.9101 0.742933 1.76447 11.6083Z" stroke="#66737C" stroke-width="3.57143" stroke-linecap="round" stroke-linejoin="round" fill="none"/><path d="M3.50572 52.2375 3.50572 17.4125" stroke="#66737C" stroke-width="3.57143" stroke-linecap="round" stroke-linejoin="round" fill="none"/><path d="M52.2607 52.2375 52.2607 17.4125" stroke="#66737C" stroke-width="3.57143" stroke-linecap="round" stroke-linejoin="round" fill="none"/><path d="M10.4707 52.2375 10.4707 29.6012C10.4707 27.6869 12.0157 26.1315 13.93 26.1187L41.79 26.1187C43.7133 26.1187 45.2725 27.6779 45.2725 29.6012L45.2725 52.2375" stroke="#66737C" stroke-width="3.57143" stroke-linecap="round" stroke-linejoin="round" fill="none"/><path d="M10.4707 34.825 45.2957 34.825" stroke="#66737C" stroke-width="3.57143" stroke-linecap="round" stroke-linejoin="round" fill="none"/><path d="M10.4707 43.5312 45.2957 43.5312" stroke="#66737C" stroke-width="3.57143" stroke-linecap="round" stroke-linejoin="round" fill="none"/><path d="M1.76447 52.2375 54.002 52.2375" stroke="#66737C" stroke-width="3.57143" stroke-linecap="round" stroke-linejoin="round" fill="none"/><path d="M23.8899 10.4475 31.8533 10.4475" stroke="#66737C" stroke-width="3.57143" stroke-linecap="round" stroke-linejoin="round" fill="none"/></g></svg>