<svg width="60" height="60" viewBox="-2.14 -2.14 60 60" xmlns="http://www.w3.org/2000/svg" xmlns:xlink="http://www.w3.org/1999/xlink" id="Warehouse-Cart-Worker--Streamline-Ultimate.svg" fill="none" overflow="hidden"><path d="M44.3671 23.8435C42.1708 24.1451 40.162 25.2437 38.7235 26.9306 37.285 28.6176 36.5173 30.7744 36.5662 32.9909L36.5662 39.9559 40.0488 39.9559 40.0488 52.2375C40.0548 52.6974 40.2401 53.1369 40.5653 53.4622 40.8906 53.7874 41.3301 53.9727 41.79 53.9787L48.755 53.9787C49.2149 53.9727 49.6544 53.7874 49.9797 53.4622 50.3049 53.1369 50.4902 52.6974 50.4963 52.2375L50.4963 40.0488 53.9787 40.0488 53.9787 32.5033C53.979 31.2835 53.7227 30.0774 53.2268 28.963 52.7309 27.8486 52.0063 26.8508 51.1001 26.0345 50.194 25.2179 49.1262 24.6011 47.9663 24.2236 46.8064 23.8461 45.5801 23.7168 44.3671 23.8435L44.3671 23.8435Z" stroke="#66737C" stroke-width="3.57143" stroke-linecap="round" stroke-linejoin="round"/><path d="M38.3075 8.70625C38.3075 6.85902 39.0414 5.08744 40.3475 3.78125 41.6537 2.47506 43.4254 1.74125 45.2725 1.74125 47.1196 1.74125 48.8913 2.47506 50.1975 3.78125 51.5036 5.08744 52.2375 6.85902 52.2375 8.70625" stroke="#66737C" stroke-width="3.57143" stroke-linecap="round" stroke-linejoin="round"/><path d="M31.3425 22.6362 29.0208 22.6362C28.2083 22.6142 27.414 22.879 26.7772 23.3843 26.1403 23.8895 25.7018 24.6027 25.5383 25.399L21.4754 44.251C21.315 45.0313 20.8901 45.7324 20.2725 46.236 19.655 46.7393 18.8825 47.014 18.0858 47.0137L1.83414 47.0137" stroke="#66737C" stroke-width="3.57143" stroke-linecap="round" stroke-linejoin="round"/><path d="M18.1637 53.9671C17.6829 53.9671 17.2931 53.5773 17.2931 53.0965 17.2931 52.6157 17.6829 52.2259 18.1637 52.2259" stroke="#66737C" stroke-width="3.57143"/><path d="M18.1637 53.9671C18.6446 53.9671 19.0344 53.5773 19.0344 53.0965 19.0344 52.6157 18.6446 52.2259 18.1637 52.2259" stroke="#66737C" stroke-width="3.57143"/><path d="M4.21051 53.9671C3.72966 53.9671 3.33988 53.5773 3.33988 53.0965 3.33988 52.6157 3.72966 52.2259 4.21051 52.2259" stroke="#66737C" stroke-width="3.57143"/><path d="M4.21051 53.9671C4.69132 53.9671 5.08113 53.5773 5.08113 53.0965 5.08113 52.6157 4.69132 52.2259 4.21051 52.2259" stroke="#66737C" stroke-width="3.57143"/><path d="M13.93 26.1187 3.4825 26.1187C2.52084 26.1187 1.74125 26.8984 1.74125 27.86L1.74125 38.3075C1.74125 39.2691 2.52084 40.0488 3.4825 40.0488L13.93 40.0488C14.8917 40.0488 15.6713 39.2691 15.6713 38.3075L15.6713 27.86C15.6713 26.8984 14.8917 26.1187 13.93 26.1187Z" stroke="#66737C" stroke-width="3.57143" stroke-linecap="round" stroke-linejoin="round"/><path d="M52.2375 8.70625 32.5033 8.70625" stroke="#66737C" stroke-width="3.57143" stroke-linecap="round" stroke-linejoin="round"/><path d="M51.0767 15.114C50.4224 16.0411 49.5518 16.7943 48.5402 17.3082 47.5287 17.822 46.4069 18.081 45.2725 18.0626 44.136 18.0784 43.0128 17.8159 42.0013 17.2979 40.9895 16.7799 40.1198 16.0222 39.4683 15.0908" stroke="#66737C" stroke-width="3.57143" stroke-linecap="round" stroke-linejoin="round"/></svg>