<svg width="60" height="60" viewBox="-2.14 -2.14 60 60" xmlns="http://www.w3.org/2000/svg" xmlns:xlink="http://www.w3.org/1999/xlink" id="Water-Protection-Faucet--Streamline-Ultimate.svg" overflow="hidden"><path d="M12.1888 20.895C12.1888 26.665 16.8663 31.3425 22.6362 31.3425 28.4062 31.3425 33.0837 26.665 33.0837 20.895 33.0837 15.125 28.4062 10.4475 22.6362 10.4475 16.8663 10.4475 12.1887 15.125 12.1887 20.895Z" stroke="#66737C" stroke-width="3.57143" stroke-linecap="round" stroke-linejoin="round" fill="none"/><path d="M19.1537 11.0418 19.1537 1.74125 26.1187 1.74125 26.1187 11.0442" stroke="#66737C" stroke-width="3.57143" stroke-linecap="round" stroke-linejoin="round" fill="none"/><path d="M26.1187 1.74125 33.0838 1.74125" stroke="#66737C" stroke-width="3.57143" stroke-linecap="round" stroke-linejoin="round" fill="none"/><path d="M12.1888 1.74125 19.1537 1.74125" stroke="#66737C" stroke-width="3.57143" stroke-linecap="round" stroke-linejoin="round" fill="none"/><path d="M51.1486 48.9732C51.1486 51.7377 48.9076 53.9787 46.1431 53.9787 43.3787 53.9787 41.1376 51.7377 41.1376 48.9732 41.1376 46.2081 44.4738 40.6292 46.1431 40.6292 47.8124 40.6292 51.1486 46.2012 51.1486 48.9732Z" stroke="#66737C" stroke-width="3.57143" stroke-linecap="round" stroke-linejoin="round" fill="none"/><path d="M31.6838 15.6713 40.0418 15.6713C45.8118 15.6713 50.4893 20.3488 50.4893 26.1187L50.4893 33.0838 41.79 33.0838 41.79 29.6012C41.79 27.6779 40.2308 26.1187 38.3075 26.1187L31.6861 26.1187" stroke="#66737C" stroke-width="3.57143" stroke-linecap="round" stroke-linejoin="round" fill="none"/><path d="M13.5887 15.6713 1.74125 15.6713 1.74125 26.1187 13.5887 26.1187" stroke="#66737C" stroke-width="3.57143" stroke-linecap="round" stroke-linejoin="round" fill="none"/><path d="M1.74125 1.74125 1.74125 40.0488" stroke="#66737C" stroke-width="3.57143" stroke-linecap="round" stroke-linejoin="round" fill="none"/></svg>