<svg width="60" height="60" viewBox="-1.875 -1.875 60 60" xmlns="http://www.w3.org/2000/svg" xmlns:xlink="http://www.w3.org/1999/xlink" id="Web-Hook--Streamline-Ultimate" fill="none" overflow="hidden"><path d="M28.0664 18.047C30.0082 18.047 31.582 16.473 31.582 14.5313 31.582 12.5897 30.0082 11.0157 28.0664 11.0157 26.1248 11.0157 24.5508 12.5897 24.5508 14.5313 24.5508 16.473 26.1248 18.047 28.0664 18.047Z" stroke="#66737C" stroke-width="3.33333" stroke-linecap="round" stroke-linejoin="round" stroke-miterlimit="10"/><path d="M12.1289 45C14.0705 45 15.6445 43.4262 15.6445 41.4844 15.6445 39.5428 14.0705 37.9688 12.1289 37.9688 10.1873 37.9688 8.61326 39.5428 8.61326 41.4844 8.61326 43.4262 10.1873 45 12.1289 45Z" stroke="#66737C" stroke-width="3.33333" stroke-linecap="round" stroke-linejoin="round" stroke-miterlimit="10"/><path d="M43.7695 45C45.7111 45 47.2852 43.4262 47.2852 41.4844 47.2852 39.5428 45.7111 37.9688 43.7695 37.9688 41.828 37.9688 40.2539 39.5428 40.2539 41.4844 40.2539 43.4262 41.828 45 43.7695 45Z" stroke="#66737C" stroke-width="3.33333" stroke-linecap="round" stroke-linejoin="round" stroke-miterlimit="10"/><path d="M36.3281 49.2188C40.5469 53.4375 47.1094 53.4375 51.3281 49.2188 55.5469 45 55.5469 38.4375 51.3281 34.2188 47.8125 30.7031 42.4219 30.2344 38.4375 32.5781L29.5941 17.6837" stroke="#66737C" stroke-width="3.33333" stroke-linecap="round" stroke-linejoin="round" stroke-miterlimit="10"/><path d="M9.25781 31.4062C5.03906 32.5781 1.75781 36.7969 1.75781 41.4844 1.75781 47.3438 6.44531 52.0312 12.3047 52.0312 18.1641 52.0312 22.8516 47.3438 22.8516 41.4844L40.2675 41.4844" stroke="#66737C" stroke-width="3.33333" stroke-linecap="round" stroke-linejoin="round" stroke-miterlimit="10"/><path d="M38.3789 17.3437C39.082 13.8281 38.1445 10.0781 35.5664 7.49998 31.3477 3.28123 24.7852 3.28123 20.5664 7.49998 15.8789 12.4219 16.582 20.3906 22.6758 24.1406L14.2721 38.6766" stroke="#66737C" stroke-width="3.33333" stroke-linecap="round" stroke-linejoin="round" stroke-miterlimit="10"/></svg>