<svg width="60" height="60" viewBox="-1.875 -1.875 60 60" xmlns="http://www.w3.org/2000/svg" xmlns:xlink="http://www.w3.org/1999/xlink" id="Wifi-Signal-3--Streamline-Ultimate" fill="none" overflow="hidden"><path d="M17.5781 54.4849 28.125 26.3599 28.125 19.3288 28.125 26.3599 38.6719 54.4849" stroke="#66737C" stroke-width="3.33333" stroke-linecap="round" stroke-linejoin="round"/><path d="M18.1852 22.8634C17.6207 21.2716 17.4468 19.5676 17.678 17.8946 17.9092 16.2217 18.5388 14.6287 19.5138 13.2497 20.4888 11.8707 21.7807 10.746 23.2808 9.97024 24.7809 9.19444 26.4455 8.79026 28.1344 8.79164 29.823 8.79302 31.4869 9.19997 32.9857 9.97826 34.4848 10.7565 35.7748 11.8833 36.7474 13.2639 37.7201 14.6445 38.347 16.2386 38.5755 17.9119 38.8041 19.5852 38.6271 21.289 38.0602 22.8798" stroke="#66737C" stroke-width="3.33333" stroke-linecap="round" stroke-linejoin="round"/><path d="M15.7312 31.8002C13.2631 29.3456 11.5792 26.2137 10.893 22.8013 10.2068 19.3888 10.5492 15.8494 11.8767 12.6317 13.2043 9.41402 15.4573 6.66291 18.3501 4.72706 21.2429 2.79122 24.6455 1.75781 28.1262 1.75781 31.6069 1.75781 35.0093 2.79122 37.9022 4.72706 40.7951 6.66291 43.0481 9.41402 44.3756 12.6317 45.7031 15.8494 46.0455 19.3888 45.3593 22.8013 44.673 26.2137 42.9893 29.3456 40.5211 31.8002" stroke="#66737C" stroke-width="3.33333" stroke-linecap="round" stroke-linejoin="round"/><path d="M10.5469 54.4922 45.7031 54.4922" stroke="#66737C" stroke-width="3.33333" stroke-linecap="round" stroke-linejoin="round"/><path d="M2.63672 54.4922C2.15131 54.4922 1.75781 54.0987 1.75781 53.6133 1.75781 53.1279 2.15131 52.7344 2.63672 52.7344" stroke="#66737C" stroke-width="3.33333"/><path d="M2.63672 54.4922C3.12213 54.4922 3.51562 54.0987 3.51562 53.6133 3.51562 53.1279 3.12213 52.7344 2.63672 52.7344" stroke="#66737C" stroke-width="3.33333"/><g><path d="M53.6133 54.4922C53.1279 54.4922 52.7344 54.0987 52.7344 53.6133 52.7344 53.1279 53.1279 52.7344 53.6133 52.7344" stroke="#66737C" stroke-width="3.33333"/><path d="M53.6133 54.4922C54.0987 54.4922 54.4922 54.0987 54.4922 53.6133 54.4922 53.1279 54.0987 52.7344 53.6133 52.7344" stroke="#66737C" stroke-width="3.33333"/></g></svg>