<svg width="60" height="60" viewBox="-1.875 -1.875 60 60" xmlns="http://www.w3.org/2000/svg" xmlns:xlink="http://www.w3.org/1999/xlink" id="Workflow-Coaching-Plan--Streamline-Ultimate" overflow="hidden"><defs></defs><path d="M45.7031 7.37344 46.875 7.37344C48.1694 7.37344 49.2188 8.42277 49.2188 9.71719L49.2188 51.5625C49.2188 52.8569 48.1694 53.9062 46.875 53.9062L9.375 53.9062C8.08058 53.9062 7.03125 52.8569 7.03125 51.5625L7.03125 9.71719C7.03125 8.42277 8.08058 7.37344 9.375 7.37344L10.5469 7.37344" stroke="#66737C" stroke-width="3.33333" stroke-linecap="round" stroke-linejoin="round" fill="none"/><path d="M38.6719 7.03125 32.8125 7.03125C32.8125 4.44242 30.7138 2.34375 28.125 2.34375 25.5362 2.34375 23.4375 4.44242 23.4375 7.03125L17.5781 7.03125" stroke="#66737C" stroke-width="3.33333" stroke-linecap="round" stroke-linejoin="round" fill="none"/><path d="M14.0625 41.0742C14.0625 44.2779 16.6596 46.875 19.8633 46.875 23.067 46.875 25.6641 44.2779 25.6641 41.0742 25.6641 37.8705 23.067 35.2734 19.8633 35.2734 16.6596 35.2734 14.0625 37.8705 14.0625 41.0742" stroke="#66737C" stroke-width="3.33333" stroke-linecap="round" stroke-linejoin="round" fill="none"/><path d="M34.2023 23.0133 43.1414 31.9547" stroke="#66737C" stroke-width="3.33333" stroke-linecap="round" stroke-linejoin="round" fill="none"/><path d="M43.1414 23.0133 34.2023 31.9547" stroke="#66737C" stroke-width="3.33333" stroke-linecap="round" stroke-linejoin="round" fill="none"/><path d="M15.0914 27.4852C16.9095 21.9402 22.313 18.3829 28.125 18.9047" stroke="#66737C" stroke-width="3.33333" stroke-linecap="round" stroke-linejoin="round" fill="none"/><path d="M24.5977 14.9953 28.125 18.9047 25.1719 23.1633" stroke="#66737C" stroke-width="3.33333" stroke-linecap="round" stroke-linejoin="round" fill="none"/></svg>