<svg width="60" height="60" viewBox="-1.875 -1.875 60 60" xmlns="http://www.w3.org/2000/svg" xmlns:xlink="http://www.w3.org/1999/xlink" id="Workflow-Gantt-Chart-11--Streamline-Ultimate" fill="none" overflow="hidden"><path d="M28.7109 11.7188 2.92969 11.7188C2.22656 11.7188 1.75781 11.25 1.75781 10.5469L1.75781 3.51562C1.75781 2.8125 2.22656 2.34375 2.92969 2.34375L28.7109 2.34375C29.4141 2.34375 29.8828 2.8125 29.8828 3.51562L29.8828 10.5469C29.8828 11.0156 29.4141 11.7188 28.7109 11.7188Z" stroke="#66737C" stroke-width="3.33333" stroke-linecap="round" stroke-linejoin="round" stroke-miterlimit="10"/><path d="M53.3203 53.9062 22.8516 53.9062C22.1484 53.9062 21.6797 53.4375 21.6797 52.7344L21.6797 45.7031C21.6797 45 22.1484 44.5312 22.8516 44.5312L53.3203 44.5312C54.0234 44.5312 54.4922 45 54.4922 45.7031L54.4922 52.7344C54.4922 53.2031 54.0234 53.9062 53.3203 53.9062Z" stroke="#66737C" stroke-width="3.33333" stroke-linecap="round" stroke-linejoin="round" stroke-miterlimit="10"/><path d="M53.3203 36.3281 32.2266 36.3281C31.5234 36.3281 31.0547 35.8594 31.0547 35.1562L31.0547 28.125C31.0547 27.4219 31.5234 26.9531 32.2266 26.9531L53.3203 26.9531C54.0234 26.9531 54.4922 27.4219 54.4922 28.125L54.4922 35.1562C54.4922 35.625 54.0234 36.3281 53.3203 36.3281Z" stroke="#66737C" stroke-width="3.33333" stroke-linecap="round" stroke-linejoin="round" stroke-miterlimit="10"/><path d="M29.8828 7.03125 36.9141 7.03125C37.6172 7.03125 38.0859 7.5 38.0859 8.20312L38.0859 18.75C38.0859 19.4531 37.6172 19.9219 36.9141 19.9219L12.3047 19.9219C11.6016 19.9219 11.1328 20.3906 11.1328 21.0938L11.1328 48.0469C11.1328 48.75 11.6016 49.2188 12.3047 49.2188L21.6797 49.2188" stroke="#66737C" stroke-width="3.33333" stroke-linecap="round" stroke-linejoin="round" stroke-miterlimit="10"/></svg>