<svg width="60" height="60" viewBox="-1.875 -1.875 60 60" xmlns="http://www.w3.org/2000/svg" xmlns:xlink="http://www.w3.org/1999/xlink" id="Workflow-Data-Table-Increasing-Arrow--Streamline-Ultimate" overflow="hidden"><defs></defs><path d="M45.1172 1.75547 53.3203 1.75547 53.3203 9.95859" stroke="#66737C" stroke-width="3.33333" stroke-linecap="round" stroke-linejoin="round" fill="none"/><path d="M53.3203 1.75547 41.6016 16.9898 32.2266 9.95859 22.8516 24.0211 22.8516 24.0211 13.4766 16.9898 1.75781 33.3961" stroke="#66737C" stroke-width="3.33333" stroke-linecap="round" stroke-linejoin="round" fill="none"/><path d="M30.4688 22.8539 52.1484 22.8539C53.4429 22.8539 54.4922 23.9032 54.4922 25.1977L54.4922 52.1508C54.4922 53.4452 53.4429 54.4945 52.1484 54.4945L19.3359 54.4945C18.0415 54.4945 16.9922 53.4452 16.9922 52.1508L16.9922 28.125" stroke="#66737C" stroke-width="3.33333" stroke-linecap="round" stroke-linejoin="round" fill="none"/><path d="M16.9922 32.3109 54.4922 32.3109" stroke="#66737C" stroke-width="3.33333" stroke-linecap="round" stroke-linejoin="round" fill="none"/><path d="M16.9922 43.4437 54.4922 43.4437" stroke="#66737C" stroke-width="3.33333" stroke-linecap="round" stroke-linejoin="round" fill="none"/><path d="M35.7422 32.3109 35.7422 54.4945" stroke="#66737C" stroke-width="3.33333" stroke-linecap="round" stroke-linejoin="round" fill="none"/><path d="M45.1172 32.3109 45.1172 54.4945" stroke="#66737C" stroke-width="3.33333" stroke-linecap="round" stroke-linejoin="round" fill="none"/></svg>