<svg width="60" height="60" viewBox="-2.14 -2.14 60 60" xmlns="http://www.w3.org/2000/svg" xmlns:xlink="http://www.w3.org/1999/xlink" id="Wrench-Double--Streamline-Ultimate.svg" overflow="hidden"><path d="M53.7373 6.62836 48.755 11.6083 44.1117 11.6083 44.1117 6.965 49.094 1.98503C44.4202-0.127083 38.9191 1.94958 36.807 6.62339 35.7081 9.05513 35.7083 11.8421 36.8077 14.2736L14.269 36.81C9.59516 34.6979 4.09409 36.7746 1.98198 41.4484 0.88307 43.8801 0.883333 46.6671 1.9827 49.0986L6.965 44.1117 11.6083 44.1117 11.6083 48.755 6.62604 53.7419C11.2998 55.854 16.8009 53.7774 18.913 49.1036 20.0119 46.6718 20.0117 43.8849 18.9123 41.4534L41.451 18.9169C46.1248 21.029 51.6259 18.9524 53.738 14.2786 54.8369 11.8468 54.8367 9.05989 53.7373 6.62836Z" stroke="#66737C" stroke-width="3.57143" stroke-linecap="round" stroke-linejoin="round" fill="none"/><path d="M27.86 23.2167 18.9123 14.2736C21.0253 9.6002 18.9497 4.09874 14.2763 1.98575 11.8447 0.886377 9.05777 0.886114 6.62604 1.98502L11.6083 6.965 11.6083 11.6083 6.965 11.6083 1.9827 6.62836C-0.130288 11.3018 1.94534 16.8032 6.61874 18.9162 9.05027 20.0156 11.8372 20.0159 14.269 18.9169L23.2167 27.86" stroke="#66737C" stroke-width="3.57143" stroke-linecap="round" stroke-linejoin="round" fill="none"/><path d="M27.86 32.5033 36.8077 41.451C34.6947 46.1244 36.7703 51.6259 41.4437 53.7389 43.8753 54.8383 46.6622 54.8385 49.094 53.7396L44.1117 48.755 44.1117 44.1117 48.755 44.1117 53.7373 49.0963C55.8503 44.4229 53.7747 38.9214 49.1013 36.8084 46.6697 35.7091 43.8828 35.7088 41.451 36.8077L32.5033 27.86" stroke="#66737C" stroke-width="3.57143" stroke-linecap="round" stroke-linejoin="round" fill="none"/></svg>