<svg width="60" height="60" viewBox="-1.875 -1.875 60 60" xmlns="http://www.w3.org/2000/svg" xmlns:xlink="http://www.w3.org/1999/xlink" id="Wrench-Double--Streamline-Ultimate" overflow="hidden"><g><path d="M22.0312 39.2344 39.2344 22.0312C44.5488 24.5697 50.9149 22.3193 53.4534 17.0049 54.8392 14.1035 54.842 10.7318 53.4609 7.82812L50.1094 11.1562C48.7243 12.5413 46.4788 12.5413 45.0938 11.1562 43.7087 9.77122 43.7087 7.52565 45.0938 6.14062L48.4219 2.78906C43.1032 0.25936 36.7409 2.52024 34.2112 7.83889 32.8301 10.7425 32.8329 14.1143 34.2188 17.0156L17.0156 34.2188C11.7012 31.6803 5.3351 33.9307 2.79663 39.2451 1.41079 42.1465 1.40801 45.5182 2.78906 48.4219L6.14062 45.0938C7.52565 43.7087 9.77122 43.7087 11.1562 45.0938 12.5413 46.4788 12.5413 48.7243 11.1562 50.1094L7.82812 53.4609C13.1468 55.9906 19.5091 53.7298 22.0388 48.4111 23.4199 45.5075 23.4171 42.1357 22.0312 39.2344Z" stroke="#66737C" stroke-width="3.33333" stroke-linecap="round" stroke-linejoin="round" fill="none"/><path d="M17.0156 22.0312C11.7012 24.5697 5.3351 22.3193 2.79663 17.0049 1.41079 14.1035 1.40801 10.7318 2.78906 7.82812L6.14062 11.1562C7.52565 12.5413 9.77122 12.5413 11.1562 11.1562 12.5413 9.77122 12.5413 7.52565 11.1562 6.14062L7.82812 2.78906C13.1468 0.25936 19.5091 2.52024 22.0388 7.83889 23.4199 10.7425 23.4171 14.1143 22.0312 17.0156" stroke="#66737C" stroke-width="3.33333" stroke-linecap="round" stroke-linejoin="round" fill="none"/><path d="M39.2344 34.2188C44.5488 31.6803 50.9149 33.9307 53.4534 39.2451 54.8392 42.1465 54.842 45.5182 53.4609 48.4219L50.1094 45.0938C48.7243 43.7087 46.4788 43.7087 45.0938 45.0938 43.7087 46.4788 43.7087 48.7243 45.0938 50.1094L48.4219 53.4609C43.1032 55.9906 36.7409 53.7298 34.2112 48.4111 32.8301 45.5075 32.8329 42.1357 34.2188 39.2344" stroke="#66737C" stroke-width="3.33333" stroke-linecap="round" stroke-linejoin="round" fill="none"/></g></svg>