<svg width="60" height="60" viewBox="-1.875 -1.875 60 60" xmlns="http://www.w3.org/2000/svg" xmlns:xlink="http://www.w3.org/1999/xlink" id="Bluetooth-Transfer--Streamline-Ultimate" overflow="hidden"><style>
.MsftOfcResponsive_Stroke_66737c {
 stroke:#66737C; 
}
</style>
<path d="M14.0625 14.0625 40.4297 40.4297 28.125 52.7344 28.125 3.51562 40.4297 15.8203 14.0625 42.1875" class="MsftOfcResponsive_Stroke_66737c" stroke="#66737C" stroke-width="3.33333" stroke-linecap="round" stroke-linejoin="round" fill="none"/><path d="M45.7031 28.125C45.7031 30.0666 47.2771 31.6406 49.2188 31.6406 51.1604 31.6406 52.7344 30.0666 52.7344 28.125 52.7344 26.1834 51.1604 24.6094 49.2188 24.6094 47.2771 24.6094 45.7031 26.1834 45.7031 28.125Z" class="MsftOfcResponsive_Stroke_66737c" stroke="#66737C" stroke-width="3.33333" stroke-linecap="round" stroke-linejoin="round" fill="none"/><path d="M3.51562 28.125C3.51562 30.0666 5.08962 31.6406 7.03125 31.6406 8.97288 31.6406 10.5469 30.0666 10.5469 28.125 10.5469 26.1834 8.97288 24.6094 7.03125 24.6094 5.08962 24.6094 3.51562 26.1834 3.51562 28.125Z" class="MsftOfcResponsive_Stroke_66737c" stroke="#66737C" stroke-width="3.33333" stroke-linecap="round" stroke-linejoin="round" fill="none"/></svg>