<svg width="60" height="60" viewBox="-1.875 -1.875 60 60" xmlns="http://www.w3.org/2000/svg" xmlns:xlink="http://www.w3.org/1999/xlink" id="Network-Navigation--Streamline-Ultimate" overflow="hidden"><g><g><path d="M31.8516 54.2344C30.6165 54.4035 29.3716 54.4896 28.125 54.4922 13.5628 54.4863 1.76256 42.6766 1.76842 28.1144 1.77428 13.5522 13.584 1.75196 28.1462 1.75782 41.3187 1.76312 52.4664 11.489 54.2578 24.5391 54.5863 26.9655 54.5863 29.4251 54.2578 31.8516" stroke="#66737C" stroke-width="3.33333" stroke-linecap="round" stroke-linejoin="round" fill="none"/><path d="M21.7734 53.7188C18.2109 48.4922 15.8203 38.9766 15.8203 28.125 15.8203 17.2734 18.1641 7.75781 21.7734 2.53125" stroke="#66737C" stroke-width="3.33333" stroke-linecap="round" stroke-linejoin="round" fill="none"/><path d="M1.75781 28.125 24.6094 28.125" stroke="#66737C" stroke-width="3.33333" stroke-linecap="round" stroke-linejoin="round" fill="none"/><path d="M38.6719 28.125 54.4922 28.125" stroke="#66737C" stroke-width="3.33333" stroke-linecap="round" stroke-linejoin="round" fill="none"/><path d="M5.48438 14.6484 50.7656 14.6484" stroke="#66737C" stroke-width="3.33333" stroke-linecap="round" stroke-linejoin="round" fill="none"/><path d="M5.48438 41.6016 26.3672 41.6016" stroke="#66737C" stroke-width="3.33333" stroke-linecap="round" stroke-linejoin="round" fill="none"/><path d="M34.4766 2.53125C38.6953 8.71875 40.2188 18.9375 40.4062 26.3672" stroke="#66737C" stroke-width="3.33333" stroke-linecap="round" stroke-linejoin="round" fill="none"/></g><path d="M31.0781 32.8125 40.6875 53.9062C41.0069 54.528 41.7699 54.7731 42.3916 54.4537 42.7041 54.2931 42.9358 54.01 43.0312 53.6719L45.8438 45.8906 53.625 43.0781C54.2953 42.8799 54.678 42.1758 54.4798 41.5056 54.3807 41.1707 54.1477 40.8916 53.8359 40.7344L32.7422 31.125C32.0574 30.8874 31.3096 31.25 31.072 31.9348 30.9732 32.2194 30.9754 32.5293 31.0781 32.8125Z" stroke="#66737C" stroke-width="3.33333" stroke-linecap="round" stroke-linejoin="round" fill="none"/></g></svg>