<svg width="60" height="60" viewBox="-1.875 -1.875 60 60" xmlns="http://www.w3.org/2000/svg" xmlns:xlink="http://www.w3.org/1999/xlink" id="Trip-Multiple-Destination--Streamline-Ultimate" fill="none" overflow="hidden"><path d="M54.4922 18.1641C54.4922 22.1484 48.5461 31.4719 46.4367 34.6547 46.3566 34.7756 46.2478 34.8748 46.1198 34.9432 45.9921 35.0119 45.8494 35.0477 45.7043 35.0477 45.5592 35.0477 45.4165 35.0119 45.2887 34.9432 45.1608 34.8748 45.052 34.7756 44.9719 34.6547 42.8625 31.4742 36.9141 22.1578 36.9141 18.1641 36.9141 15.8331 37.8401 13.5975 39.4882 11.9493 41.1366 10.301 43.372 9.375 45.7031 9.375 48.0342 9.375 50.2697 10.301 51.918 11.9493 53.5662 13.5975 54.4922 15.8331 54.4922 18.1641L54.4922 18.1641Z" stroke="#66737C" stroke-width="3.57143" stroke-linecap="round" stroke-linejoin="round"/><path d="M15.8203 53.3203 52.7344 41.0156" stroke="#66737C" stroke-width="3.57143" stroke-linecap="round" stroke-linejoin="round"/><path d="M31.7695 30.2648 36.8953 32.8922" stroke="#66737C" stroke-width="3.57143" stroke-linecap="round" stroke-linejoin="round"/><path d="M12.3047 19.9219C15.1019 19.9219 17.7845 21.0331 19.7625 23.011 21.7404 24.9888 22.8516 27.6715 22.8516 30.4688 22.8516 34.9711 16.5516 43.5398 13.6898 47.1984 13.5254 47.4089 13.3153 47.5791 13.0752 47.696 12.8352 47.8132 12.5717 47.8739 12.3047 47.8739 12.0377 47.8739 11.7741 47.8132 11.5341 47.696 11.2941 47.5791 11.0839 47.4089 10.9195 47.1984 8.05781 43.5375 1.75781 34.9711 1.75781 30.4688 1.75781 27.6715 2.86901 24.9888 4.84692 23.011 6.82484 21.0331 9.50749 19.9219 12.3047 19.9219L12.3047 19.9219Z" stroke="#66737C" stroke-width="3.57143" stroke-linecap="round" stroke-linejoin="round"/><path d="M12.5742 12.8906C12.4107 12.3184 12.3201 11.7278 12.3047 11.1328 12.3047 8.80181 13.2307 6.56627 14.8789 4.91801 16.5272 3.26974 18.7628 2.34375 21.0938 2.34375 23.4247 2.34375 25.6603 3.26974 27.3087 4.91801 28.9568 6.56627 29.8828 8.80181 29.8828 11.1328 29.3311 14.3571 28.1355 17.4371 26.3672 20.1891" stroke="#66737C" stroke-width="3.57143" stroke-linecap="round" stroke-linejoin="round"/><path d="M12.3047 31.3477C11.8193 31.3477 11.4258 30.9541 11.4258 30.4688 11.4258 29.9834 11.8193 29.5898 12.3047 29.5898" stroke="#66737C" stroke-width="3.57143"/><path d="M12.3047 31.3477C12.7901 31.3477 13.1836 30.9541 13.1836 30.4688 13.1836 29.9834 12.7901 29.5898 12.3047 29.5898" stroke="#66737C" stroke-width="3.57143"/><path d="M21.0938 12.0117C20.6083 12.0117 20.2148 11.6182 20.2148 11.1328 20.2148 10.6474 20.6083 10.2539 21.0938 10.2539" stroke="#66737C" stroke-width="3.57143"/><path d="M21.0938 12.0117C21.5792 12.0117 21.9727 11.6182 21.9727 11.1328 21.9727 10.6474 21.5792 10.2539 21.0938 10.2539" stroke="#66737C" stroke-width="3.57143"/><g><path d="M45.7031 19.043C45.2177 19.043 44.8242 18.6495 44.8242 18.1641 44.8242 17.6786 45.2177 17.2852 45.7031 17.2852" stroke="#66737C" stroke-width="3.57143"/><path d="M45.7031 19.043C46.1885 19.043 46.582 18.6495 46.582 18.1641 46.582 17.6786 46.1885 17.2852 45.7031 17.2852" stroke="#66737C" stroke-width="3.57143"/></g></svg>