<svg width="60" height="60" viewBox="-2.14 -2.14 60 60" xmlns="http://www.w3.org/2000/svg" xmlns:xlink="http://www.w3.org/1999/xlink" id="Amazon-Pin--Streamline-Ultimate.svg" fill="none" overflow="hidden"><path d="M35.0572 31.2264C45.7368 32.6194 53.3983 37.0303 53.3983 42.3702 53.3983 48.8708 42.0222 53.9785 27.86 53.9785 13.6978 53.9785 2.32167 48.8708 2.32167 42.3702 2.32167 37.0303 10.2153 32.6194 20.895 31.2264" stroke="#66737C" stroke-width="3.57143" stroke-linecap="round" stroke-linejoin="round" stroke-miterlimit="10"/><path d="M35.2893 38.1914C39.4683 38.8879 42.0222 40.5129 42.0222 42.138 42.0222 44.6919 35.7537 46.7814 28.0922 46.7814 20.4306 46.7814 14.1621 44.6919 14.1621 42.138 14.1621 40.2807 16.9481 38.8879 21.3593 38.1914" stroke="#66737C" stroke-width="3.57143" stroke-linecap="round" stroke-linejoin="round" stroke-miterlimit="10"/><path d="M28.0922 40.0488 28.0922 22.6362" stroke="#66737C" stroke-width="3.57143" stroke-linecap="round" stroke-linejoin="round" stroke-miterlimit="10"/><path d="M28.0922 22.6362C33.8622 22.6362 38.5397 17.9587 38.5397 12.1888 38.5397 6.41876 33.8622 1.74125 28.0922 1.74125 22.3221 1.74125 17.6446 6.41876 17.6446 12.1888 17.6446 17.9587 22.3221 22.6362 28.0922 22.6362Z" stroke="#66737C" stroke-width="3.57143" stroke-linecap="round" stroke-linejoin="round" stroke-miterlimit="10"/><path d="M24.6097 12.1888C24.6097 10.3314 26.2348 8.70625 28.0922 8.70625" stroke="#66737C" stroke-width="3.57143" stroke-linecap="round" stroke-linejoin="round" stroke-miterlimit="10"/></svg>