<svg width="60" height="60" viewBox="-1.875 -1.875 60 60" xmlns="http://www.w3.org/2000/svg" xmlns:xlink="http://www.w3.org/1999/xlink" id="Real-Estate-Market-Building-Rise--Streamline-Ultimate" overflow="hidden"><path d="M17.5781 54.4922 32.1562 39.9141C32.8413 39.228 33.9528 39.2272 34.6389 39.9123 34.6395 39.9129 34.64 39.9135 34.6406 39.9141L39.1875 44.4609C39.8726 45.147 40.9841 45.1478 41.6701 44.4627 41.6707 44.4621 41.6713 44.4615 41.6719 44.4609L54.4922 31.6406" stroke="#66737C" stroke-width="3.33333" stroke-linecap="round" stroke-linejoin="round" fill="none"/><path d="M45.7031 31.6406 54.4922 31.6406 54.4922 40.4297" stroke="#66737C" stroke-width="3.33333" stroke-linecap="round" stroke-linejoin="round" fill="none"/><path d="M36.9141 31.6406 36.9141 3.51562C36.911 2.54482 36.1215 1.76031 35.1507 1.76339 34.9421 1.76405 34.7352 1.80184 34.5398 1.875L15.2039 11.8828C14.5193 12.1392 14.0648 12.7924 14.0625 13.5234L14.0625 22.8516" stroke="#66737C" stroke-width="3.33333" stroke-linecap="round" stroke-linejoin="round" fill="none"/><path d="M31.6406 12.3047 36.9141 12.3047" stroke="#66737C" stroke-width="3.33333" stroke-linecap="round" stroke-linejoin="round" fill="none"/><path d="M28.125 19.3359 36.9141 19.3359" stroke="#66737C" stroke-width="3.33333" stroke-linecap="round" stroke-linejoin="round" fill="none"/><path d="M1.75781 29.8828 7.03125 29.8828" stroke="#66737C" stroke-width="3.33333" stroke-linecap="round" stroke-linejoin="round" fill="none"/><path d="M1.75781 36.9141 10.5469 36.9141" stroke="#66737C" stroke-width="3.33333" stroke-linecap="round" stroke-linejoin="round" fill="none"/><path d="M19.3359 9.74063 19.3359 1.76016" stroke="#66737C" stroke-width="3.33333" stroke-linecap="round" stroke-linejoin="round" fill="none"/><path d="M19.3359 42.1875 19.3359 26.3672C19.3359 24.4256 17.7619 22.8516 15.8203 22.8516L5.27344 22.8516C3.33181 22.8516 1.75781 24.4256 1.75781 26.3672L1.75781 54.4922 8.78906 54.4922" stroke="#66737C" stroke-width="3.33333" stroke-linecap="round" stroke-linejoin="round" fill="none"/></svg>