<svg width="60" height="60" viewBox="-1.875 -1.875 60 60" xmlns="http://www.w3.org/2000/svg" xmlns:xlink="http://www.w3.org/1999/xlink" id="House-Modern--Streamline-Ultimate" fill="none" overflow="hidden"><path d="M1.84679 48.2133 54.4922 48.2133" stroke="#66737C" stroke-width="3.33333" stroke-linecap="round" stroke-linejoin="round"/><path d="M22.9055 48.2133 5.35784 48.2133 5.35784 25.4016 22.9055 21.893 22.9055 48.2133Z" stroke="#66737C" stroke-width="3.33333" stroke-linecap="round" stroke-linejoin="round"/><path d="M50.9834 48.2133 22.9054 48.2133 22.9054 9.61172 50.9834 21.893 50.9834 48.2133Z" stroke="#66737C" stroke-width="3.33333" stroke-linecap="round" stroke-linejoin="round"/><path d="M43.9638 48.2133 29.9248 48.2133 29.9248 37.6852C29.9248 36.7528 30.2953 35.8584 30.9546 35.1991 31.6139 34.5398 32.508 34.1695 33.4404 34.1695L40.4716 34.1695C41.4042 34.1695 42.2984 34.5398 42.9577 35.1991 43.617 35.8584 43.9873 36.7528 43.9873 37.6852L43.9638 48.2133Z" stroke="#66737C" stroke-width="3.33333" stroke-linecap="round" stroke-linejoin="round"/><path d="M1.75781 26.1234 22.9055 21.893" stroke="#66737C" stroke-width="3.33333" stroke-linecap="round" stroke-linejoin="round"/><path d="M19.3079 8.03672 54.4828 23.4234" stroke="#66737C" stroke-width="3.33333" stroke-linecap="round" stroke-linejoin="round"/><path d="M43.9643 18.8016 43.9643 9.61172 50.9838 9.61172 50.9838 21.893" stroke="#66737C" stroke-width="3.33333" stroke-linecap="round" stroke-linejoin="round"/><path d="M29.9227 22.7742C29.4373 22.7742 29.0438 22.3807 29.0438 21.8953 29.0438 21.4099 29.4373 21.0164 29.9227 21.0164" stroke="#66737C" stroke-width="3.33333"/><path d="M29.9227 22.7742C30.408 22.7742 30.8016 22.3807 30.8016 21.8953 30.8016 21.4099 30.408 21.0164 29.9227 21.0164" stroke="#66737C" stroke-width="3.33333"/></svg>