<svg width="60" height="60" viewBox="-1.875 -1.875 60 60" xmlns="http://www.w3.org/2000/svg" xmlns:xlink="http://www.w3.org/1999/xlink" id="Common-File-Text-Cash--Streamline-Ultimate" overflow="hidden"><path d="M43.9453 33.3984 39.1805 33.3984C37.4434 33.3997 36.0361 34.8088 36.0374 36.5459 36.0382 37.8289 36.8183 38.9828 38.0086 39.4617L42.8461 41.3977C44.4576 42.0461 45.2384 43.8781 44.59 45.4897 44.1111 46.68 42.9572 47.46 41.6742 47.4609L36.9141 47.4609" stroke="#66737C" stroke-width="3.57143" stroke-linecap="round" stroke-linejoin="round" fill="none"/><path d="M40.4297 33.3984 40.4297 31.6406" stroke="#66737C" stroke-width="3.57143" stroke-linecap="round" stroke-linejoin="round" fill="none"/><path d="M40.4297 49.2188 40.4297 47.4609" stroke="#66737C" stroke-width="3.57143" stroke-linecap="round" stroke-linejoin="round" fill="none"/><path d="M26.3672 40.4297C26.3672 48.1962 32.6632 54.4922 40.4297 54.4922 48.1962 54.4922 54.4922 48.1962 54.4922 40.4297 54.4922 32.6632 48.1962 26.3672 40.4297 26.3672 32.6632 26.3672 26.3672 32.6632 26.3672 40.4297Z" stroke="#66737C" stroke-width="3.57143" stroke-linecap="round" stroke-linejoin="round" fill="none"/><path d="M8.78906 15.8203 33.3984 15.8203" stroke="#66737C" stroke-width="3.57143" stroke-linecap="round" stroke-linejoin="round" fill="none"/><path d="M8.78906 26.3672 22.8516 26.3672" stroke="#66737C" stroke-width="3.57143" stroke-linecap="round" stroke-linejoin="round" fill="none"/><path d="M8.78906 36.9141 17.5781 36.9141" stroke="#66737C" stroke-width="3.57143" stroke-linecap="round" stroke-linejoin="round" fill="none"/><path d="M17.5781 47.4609 5.27344 47.4609C3.33181 47.4609 1.75781 45.8869 1.75781 43.9453L1.75781 5.27344C1.75781 3.33181 3.33181 1.75781 5.27344 1.75781L30.1852 1.75781C31.1169 1.75801 32.0105 2.12808 32.6695 2.78672L39.4008 9.51797C40.0594 10.177 40.4295 11.0706 40.4297 12.0023L40.4297 19.3359" stroke="#66737C" stroke-width="3.57143" stroke-linecap="round" stroke-linejoin="round" fill="none"/></svg>