<svg width="60" height="60" viewBox="-1.875 -1.875 60 60" xmlns="http://www.w3.org/2000/svg" xmlns:xlink="http://www.w3.org/1999/xlink" id="Trading-News-2--Streamline-Ultimate" fill="none" overflow="hidden"><path d="M54.4922 13.711 54.4922 49.3359C54.4922 52.1484 52.1484 54.4922 49.3359 54.4922M49.3359 54.4922C46.5234 54.4922 44.1797 52.1484 44.1797 49.3359L44.1797 5.27344C44.1797 3.39844 42.5391 1.75781 40.6641 1.75781L5.27344 1.75781C3.39844 1.75781 1.75781 3.39844 1.75781 5.27344L1.75781 49.3359C1.75781 52.1484 4.10159 54.4922 6.91409 54.4922L49.3359 54.4922Z" stroke="#66737C" stroke-width="3.57143" stroke-linecap="round" stroke-linejoin="round" stroke-miterlimit="10"/><path d="M11.8359 34.8047 34.1016 34.8047" stroke="#66737C" stroke-width="3.57143" stroke-linecap="round" stroke-linejoin="round" stroke-miterlimit="10"/><path d="M11.8359 44.1797 25.8984 44.1797" stroke="#66737C" stroke-width="3.57143" stroke-linecap="round" stroke-linejoin="round" stroke-miterlimit="10"/><path d="M33.3984 13.711 22.8516 23.086 18.1641 18.8672 12.3047 24.0234" stroke="#66737C" stroke-width="3.57143" stroke-linecap="round" stroke-linejoin="round" stroke-miterlimit="10"/><path d="M33.3984 20.0391 33.3984 13.711 26.3672 13.711" stroke="#66737C" stroke-width="3.57143" stroke-linecap="round" stroke-linejoin="round" stroke-miterlimit="10"/></svg>