<svg width="60" height="60" viewBox="-1.875 -1.875 60 60" xmlns="http://www.w3.org/2000/svg" xmlns:xlink="http://www.w3.org/1999/xlink" id="Programming-Language-Code--Streamline-Ultimate" overflow="hidden"><path d="M33.3984 54.4922C37.2817 54.4922 40.4297 51.3442 40.4297 47.4609L40.4297 8.78906C40.4297 4.90581 43.5777 1.75781 47.4609 1.75781 51.3442 1.75781 54.4922 4.90581 54.4922 8.78906L54.4922 15.8203 40.4297 15.8203" stroke="#66737C" stroke-width="3.33333" stroke-linecap="round" stroke-linejoin="round" fill="none"/><path d="M15.8203 40.4297 15.8203 8.78906C15.8203 4.90581 18.9683 1.75781 22.8516 1.75781L47.4609 1.75781" stroke="#66737C" stroke-width="3.33333" stroke-linecap="round" stroke-linejoin="round" fill="none"/><path d="M8.78906 40.4297C4.90581 40.4297 1.75781 43.5777 1.75781 47.4609 1.75781 51.3442 4.90581 54.4922 8.78906 54.4922L33.3984 54.4922C29.5152 54.4922 26.3672 51.3442 26.3672 47.4609 26.3672 43.5777 29.5152 40.4297 33.3984 40.4297Z" stroke="#66737C" stroke-width="3.33333" stroke-linecap="round" stroke-linejoin="round" fill="none"/><path d="M22.8516 12.3047 33.3984 12.3047" stroke="#66737C" stroke-width="3.33333" stroke-linecap="round" stroke-linejoin="round" fill="none"/><path d="M22.8516 19.3359 33.3984 19.3359" stroke="#66737C" stroke-width="3.33333" stroke-linecap="round" stroke-linejoin="round" fill="none"/><path d="M22.8516 26.3672 33.3984 26.3672" stroke="#66737C" stroke-width="3.33333" stroke-linecap="round" stroke-linejoin="round" fill="none"/></svg>