<svg width="60" height="60" viewBox="-1.875 -1.875 60 60" xmlns="http://www.w3.org/2000/svg" xmlns:xlink="http://www.w3.org/1999/xlink" id="Amazon-Workdocs--Streamline-Ultimate" fill="none" overflow="hidden"><path d="M28.7109 1.75781 4.10156 1.75781C2.69531 1.75781 1.75781 2.69531 1.75781 4.10156L1.75781 52.1484C1.75781 53.5547 2.69531 54.4922 4.10156 54.4922L52.1484 54.4922C53.5547 54.4922 54.4922 53.5547 54.4922 52.1484L54.4922 27.5391" stroke="#66737C" stroke-width="3.33333" stroke-linecap="round" stroke-linejoin="round" stroke-miterlimit="10"/><path d="M28.7109 1.75781 28.7109 27.5391 54.4922 27.5391 28.7109 1.75781Z" stroke="#66737C" stroke-width="3.33333" stroke-linecap="round" stroke-linejoin="round" stroke-miterlimit="10"/><path d="M28.7109 27.5391 28.7109 31.0547" stroke="#66737C" stroke-width="3.33333" stroke-linecap="round" stroke-linejoin="round" stroke-miterlimit="10"/><path d="M28.7109 39.2578 28.7109 42.7734" stroke="#66737C" stroke-width="3.33333" stroke-linecap="round" stroke-linejoin="round" stroke-miterlimit="10"/><path d="M28.7109 50.9766 28.7109 54.4922" stroke="#66737C" stroke-width="3.33333" stroke-linecap="round" stroke-linejoin="round" stroke-miterlimit="10"/><path d="M28.7109 27.5391 25.1953 27.5391" stroke="#66737C" stroke-width="3.33333" stroke-linecap="round" stroke-linejoin="round" stroke-miterlimit="10"/><path d="M16.9922 27.5391 13.4766 27.5391" stroke="#66737C" stroke-width="3.33333" stroke-linecap="round" stroke-linejoin="round" stroke-miterlimit="10"/><path d="M5.27344 27.5391 1.75781 27.5391" stroke="#66737C" stroke-width="3.33333" stroke-linecap="round" stroke-linejoin="round" stroke-miterlimit="10"/></svg>