<svg width="60" height="60" viewBox="-1.875 -1.875 60 60" xmlns="http://www.w3.org/2000/svg" xmlns:xlink="http://www.w3.org/1999/xlink" id="Office-File-Graph--Streamline-Ultimate" overflow="hidden"><path d="M52.6266 50.9719C52.6266 52.9135 51.0526 54.4875 49.1109 54.4875L7.03125 54.4875C5.08962 54.4875 3.51562 52.9135 3.51562 50.9719L3.51562 5.26875C3.51562 3.32712 5.08962 1.75313 7.03125 1.75313L42.1875 1.75312C43.1044 1.75322 43.9849 2.1115 44.6414 2.75156L51.5625 9.50859C52.2404 10.1706 52.6224 11.0782 52.6219 12.0258Z" stroke="#66737C" stroke-width="3.33333" stroke-linecap="round" stroke-linejoin="round" fill="none"/><path d="M12.1969 22.8469C12.1969 29.6426 17.7059 35.1516 24.5016 35.1516 31.2973 35.1516 36.8063 29.6426 36.8063 22.8469 36.8063 16.0512 31.2973 10.5422 24.5016 10.5422 17.7059 10.5422 12.1969 16.0512 12.1969 22.8469Z" stroke="#66737C" stroke-width="3.33333" stroke-linecap="round" stroke-linejoin="round" fill="none"/><path d="M12.1992 22.8469 24.457 22.8469 27.143 34.868" stroke="#66737C" stroke-width="3.33333" stroke-linecap="round" stroke-linejoin="round" fill="none"/><path d="M24.457 22.8469 33.2039 14.1469" stroke="#66737C" stroke-width="3.33333" stroke-linecap="round" stroke-linejoin="round" fill="none"/><path d="M43.8375 38.6672 36.8063 38.6672" stroke="#66737C" stroke-width="3.33333" stroke-linecap="round" stroke-linejoin="round" fill="none"/><path d="M43.8375 45.6984 28.0172 45.6984" stroke="#66737C" stroke-width="3.33333" stroke-linecap="round" stroke-linejoin="round" fill="none"/></svg>