<svg width="60" height="60" viewBox="-1.875 -1.875 60 60" xmlns="http://www.w3.org/2000/svg" xmlns:xlink="http://www.w3.org/1999/xlink" id="Recruiting-Employee-Search-Document--Streamline-Ultimate" overflow="hidden"><defs></defs><path d="M33.4055 49.5211 5.76328 49.5211C4.46886 49.5211 3.41953 48.4718 3.41953 47.1773L3.41953 4.08516C3.41953 2.79074 4.46886 1.74141 5.76328 1.74141L37.0711 1.74141C38.3655 1.74141 39.4148 2.79074 39.4148 4.08516L39.4148 10.4133" stroke="#66737C" stroke-width="3.33333" stroke-linecap="round" stroke-linejoin="round" fill="none"/><path d="M21.2227 22.9898C21.2227 25.5774 23.3203 27.675 25.9078 27.675 28.4954 27.675 30.593 25.5774 30.593 22.9898 30.593 20.4023 28.4954 18.3047 25.9078 18.3047 23.3203 18.3047 21.2227 20.4023 21.2227 22.9898" stroke="#66737C" stroke-width="3.33333" stroke-linecap="round" stroke-linejoin="round" fill="none"/><path d="M35.925 37.5891C33.0094 27.8742 18.5039 28.3711 15.5953 38.0578" stroke="#66737C" stroke-width="3.33333" stroke-linecap="round" stroke-linejoin="round" fill="none"/><path d="M10.7836 27.1758C10.7836 35.3099 17.3776 41.9039 25.5117 41.9039 33.6458 41.9039 40.2398 35.3099 40.2398 27.1758 40.2398 19.0417 33.6458 12.4477 25.5117 12.4477 17.3776 12.4477 10.7836 19.0417 10.7836 27.1758" stroke="#66737C" stroke-width="3.33333" stroke-linecap="round" stroke-linejoin="round" fill="none"/><path d="M35.925 37.5891 40.6055 42.2836" stroke="#66737C" stroke-width="3.33333" stroke-linecap="round" stroke-linejoin="round" fill="none"/><path d="M38.1982 44.6907 43.0043 39.8846 43.0043 39.8846 51.8277 48.708C53.1567 50.037 53.1567 52.1917 51.8277 53.5207L51.8277 53.5207C50.4987 54.8497 48.3439 54.8497 47.0149 53.5207L38.1916 44.6973 38.1916 44.6973Z" stroke="#66737C" stroke-width="3.33333" stroke-linecap="round" stroke-linejoin="round" fill="none"/></svg>