<svg width="60" height="60" viewBox="-1.875 -1.875 60 60" xmlns="http://www.w3.org/2000/svg" xmlns:xlink="http://www.w3.org/1999/xlink" id="Office-File-Ppt-1--Streamline-Ultimate" overflow="hidden"><path d="M12.3023 54.4875 5.27109 54.4875C3.32947 54.4875 1.75547 52.9135 1.75547 50.9719L1.75547 5.26875C1.75547 3.32712 3.32947 1.75313 5.27109 1.75313L30.1828 1.75312C31.1154 1.7527 32.0099 2.12282 32.6695 2.78203L46.4297 16.5445C47.0883 17.2036 47.4584 18.0972 47.4586 19.0289L47.4586 29.8781" stroke="#66737C" stroke-width="3.33333" stroke-linecap="round" stroke-linejoin="round" fill="none"/><path d="M47.4586 19.3312 33.3961 19.3312C31.4545 19.3312 29.8805 17.7572 29.8805 15.8156L29.8805 1.75312" stroke="#66737C" stroke-width="3.33333" stroke-linecap="round" stroke-linejoin="round" fill="none"/><path d="M19.3336 54.4875 19.3336 36.9094" stroke="#66737C" stroke-width="3.33333" stroke-linecap="round" stroke-linejoin="round" fill="none"/><path d="M19.3336 36.9094 21.0938 36.9094C24.0062 36.9094 26.3672 39.2704 26.3672 42.1828 26.3672 45.0952 24.0062 47.4562 21.0938 47.4562L19.3359 47.4562" stroke="#66737C" stroke-width="3.33333" stroke-linecap="round" stroke-linejoin="round" fill="none"/><path d="M33.3961 54.4875 33.3961 36.9094" stroke="#66737C" stroke-width="3.33333" stroke-linecap="round" stroke-linejoin="round" fill="none"/><path d="M33.3961 36.9094 35.1562 36.9094C38.0687 36.9094 40.4297 39.2704 40.4297 42.1828 40.4297 45.0952 38.0687 47.4562 35.1562 47.4562L33.3984 47.4562" stroke="#66737C" stroke-width="3.33333" stroke-linecap="round" stroke-linejoin="round" fill="none"/><path d="M50.9742 54.4875 50.9742 36.9094" stroke="#66737C" stroke-width="3.33333" stroke-linecap="round" stroke-linejoin="round" fill="none"/><path d="M47.4586 36.9094 54.4898 36.9094" stroke="#66737C" stroke-width="3.33333" stroke-linecap="round" stroke-linejoin="round" fill="none"/></svg>