<svg width="60" height="60" viewBox="-1.875 -1.875 60 60" xmlns="http://www.w3.org/2000/svg" xmlns:xlink="http://www.w3.org/1999/xlink" id="File-Code-Check-1--Streamline-Ultimate" overflow="hidden"><path d="M26.3672 40.4391C26.3672 48.2056 32.6632 54.5016 40.4297 54.5016 48.1962 54.5016 54.4922 48.2056 54.4922 40.4391 54.4922 32.6726 48.1962 26.3766 40.4297 26.3766 32.6632 26.3766 26.3672 32.6726 26.3672 40.4391Z" stroke="#66737C" stroke-width="3.57143" stroke-linecap="round" stroke-linejoin="round" fill="none"/><path d="M46.6969 36.3492 39.8883 45.4289C39.3053 46.2052 38.2034 46.3619 37.4271 45.7789 37.361 45.7292 37.2984 45.6749 37.2398 45.6164L33.7242 42.1008" stroke="#66737C" stroke-width="3.57143" stroke-linecap="round" stroke-linejoin="round" fill="none"/><path d="M19.3359 47.4703 5.27344 47.4703C3.33181 47.4703 1.75781 45.8963 1.75781 43.9547L1.75781 5.28281C1.75781 3.34119 3.33181 1.76719 5.27344 1.76719L30.1852 1.76719C31.1177 1.76676 32.0122 2.13688 32.6719 2.79609L39.4008 9.525C40.06 10.1846 40.4301 11.0792 40.4297 12.0117L40.4297 19.3453" stroke="#66737C" stroke-width="3.57143" stroke-linecap="round" stroke-linejoin="round" fill="none"/><path d="M21.0938 14.0719 26.3672 19.3453 21.0938 24.6187" stroke="#66737C" stroke-width="3.57143" stroke-linecap="round" stroke-linejoin="round" fill="none"/><path d="M14.0625 14.0719 8.78906 19.3453 14.0625 24.6187" stroke="#66737C" stroke-width="3.57143" stroke-linecap="round" stroke-linejoin="round" fill="none"/></svg>