<svg width="60" height="60" viewBox="-1.875 -1.875 60 60" xmlns="http://www.w3.org/2000/svg" xmlns:xlink="http://www.w3.org/1999/xlink" id="Customer-Relationship-Management-Survey-Document--Streamline-Ultimate" overflow="hidden"><defs></defs><path d="M36.757 38.5992C36.757 40.5408 38.331 42.1148 40.2727 42.1148 42.2143 42.1148 43.7883 40.5408 43.7883 38.5992 43.7883 36.6576 42.2143 35.0836 40.2727 35.0836 38.331 35.0836 36.757 36.6576 36.757 38.5992" stroke="#66737C" stroke-width="3.33333" stroke-linecap="round" stroke-linejoin="round" fill="none"/><path d="M43.2586 24.9984 44.2945 28.4016C44.6482 29.5742 45.8496 30.2728 47.0438 30L50.4961 29.1984C52.1869 28.8175 53.8665 29.8794 54.2474 31.5702 54.4753 32.5818 54.1888 33.6406 53.482 34.3992L51.068 37.0031C50.2314 37.9027 50.2314 39.2957 51.068 40.1953L53.482 42.7992C54.6641 44.0651 54.5961 46.0495 53.3302 47.2315 52.5708 47.9406 51.5094 48.2276 50.4961 47.9977L47.0438 47.1984C45.8499 46.923 44.6473 47.6212 44.2945 48.7945L43.2586 52.1977C42.762 53.8474 41.022 54.7822 39.3722 54.2855 38.3701 53.9838 37.5861 53.1998 37.2844 52.1977L36.2484 48.7945C35.8957 47.6213 34.693 46.923 33.4992 47.1984L30.0469 47.9977C28.3579 48.3809 26.678 47.3223 26.2948 45.6333 26.0649 44.62 26.3518 43.5587 27.0609 42.7992L29.475 40.1953C30.3116 39.2957 30.3116 37.9027 29.475 37.0031L27.0609 34.3992C25.8795 33.1311 25.9497 31.1453 27.2179 29.9638 27.9765 29.257 29.0353 28.9705 30.0469 29.1984L33.4992 30C34.6935 30.274 35.8957 29.575 36.2484 28.4016L37.2844 24.9984C37.781 23.3487 39.521 22.4139 41.1707 22.9106 42.1728 23.2123 42.9569 23.9963 43.2586 24.9984Z" stroke="#66737C" stroke-width="3.33333" stroke-linecap="round" stroke-linejoin="round" fill="none"/><path d="M18.5156 15.1055 13.5164 21.7664C12.9322 22.5434 11.8287 22.6997 11.0518 22.1155 10.986 22.066 10.9238 22.012 10.8656 21.9539L8.15625 19.2422" stroke="#66737C" stroke-width="3.33333" stroke-linecap="round" stroke-linejoin="round" fill="none"/><path d="M18.5156 30.9375 13.5164 37.5867C12.9322 38.3637 11.8287 38.52 11.0518 37.9358 10.986 37.8863 10.9238 37.8324 10.8656 37.7742L8.15625 35.0625" stroke="#66737C" stroke-width="3.33333" stroke-linecap="round" stroke-linejoin="round" fill="none"/><path d="M29.557 1.64062C30.3341 1.64048 31.0794 1.94905 31.6289 2.49844L43.0969 13.9664C43.6463 14.5159 43.9548 15.2612 43.9547 16.0383" stroke="#66737C" stroke-width="3.33333" stroke-linecap="round" stroke-linejoin="round" fill="none"/><path d="M44.0812 16.1719 32.3625 16.1719C30.7445 16.1719 29.4328 14.8602 29.4328 13.2422L29.4328 1.52344" stroke="#66737C" stroke-width="3.33333" stroke-linecap="round" stroke-linejoin="round" fill="none"/><path d="M24.2648 54.0047 4.34297 54.0047C2.40134 54.0047 0.827344 52.4307 0.827344 50.4891L0.827344 4.78594C0.827344 2.84431 2.40134 1.27031 4.34297 1.27031L29.2523 1.27031" stroke="#66737C" stroke-width="3.33333" stroke-linecap="round" stroke-linejoin="round" fill="none"/></svg>