<svg width="60" height="60" viewBox="-1.875 -1.875 60 60" xmlns="http://www.w3.org/2000/svg" xmlns:xlink="http://www.w3.org/1999/xlink" id="Insurance-Document-Clipboard--Streamline-Ultimate" fill="none" overflow="hidden"><path d="M11.2009 21.4251 33.7219 21.4251" stroke="#66737C" stroke-width="3.33333" stroke-linecap="round" stroke-linejoin="round"/><path d="M11.2009 31.972 22.4614 31.972" stroke="#66737C" stroke-width="3.33333" stroke-linecap="round" stroke-linejoin="round"/><path d="M11.2009 42.5189 19.2441 42.5189" stroke="#66737C" stroke-width="3.33333" stroke-linecap="round" stroke-linejoin="round"/><path d="M27.0462 54.177 6.42926 54.177C5.36627 54.177 4.34684 53.7548 3.5952 53.0032 2.84355 52.2516 2.42128 51.232 2.42128 50.1691L2.42128 10.0894C2.42128 9.02639 2.84355 8.00693 3.5952 7.25529 4.34684 6.50365 5.36627 6.0814 6.42926 6.0814L12.4412 6.0814" stroke="#66737C" stroke-width="3.33333" stroke-linecap="round" stroke-linejoin="round"/><path d="M28.473 2.0731 16.4491 2.0731C14.2356 2.0731 12.4412 3.86752 12.4412 6.08107L12.4412 8.08505C12.4412 10.2986 14.2356 12.093 16.4491 12.093L28.473 12.093C30.6865 12.093 32.4811 10.2986 32.4811 8.08505L32.4811 6.08107C32.4811 3.86752 30.6865 2.0731 28.473 2.0731Z" stroke="#66737C" stroke-width="3.33333" stroke-linecap="round" stroke-linejoin="round"/><path d="M54.2571 38.8688C54.2639 42.4291 53.0555 45.885 50.8312 48.6654 48.607 51.4455 45.5006 53.3831 42.0255 54.158 38.5505 53.3831 35.4441 51.4455 33.2201 48.6654 30.9959 45.885 29.7872 42.4291 29.7942 38.8688L29.7942 32.753C29.7942 31.942 30.1162 31.1641 30.6898 30.5909 31.2633 30.0173 32.0409 29.6951 32.8521 29.6951L51.1992 29.6951C52.0102 29.6951 52.788 30.0173 53.3613 30.5909 53.9348 31.1641 54.2571 31.942 54.2571 32.753L54.2571 38.8688Z" stroke="#66737C" stroke-width="3.33333" stroke-linecap="round" stroke-linejoin="round"/><path d="M48.1298 36.5135 41.3716 45.5135 36.8716 42.1425" stroke="#66737C" stroke-width="3.33333" stroke-linecap="round" stroke-linejoin="round"/><path d="M32.4811 6.0814 38.493 6.0814C39.5562 6.0814 40.5755 6.50365 41.3271 7.25529 42.0788 8.00693 42.5011 9.02639 42.5011 10.0894L42.5011 22.5595" stroke="#66737C" stroke-width="3.33333" stroke-linecap="round" stroke-linejoin="round"/></svg>