<svg width="60" height="60" viewBox="-1.875 -1.875 60 60" xmlns="http://www.w3.org/2000/svg" xmlns:xlink="http://www.w3.org/1999/xlink" id="Brain--Streamline-Ultimate" overflow="hidden"><path d="M53.4375 28.125C53.4359 31.5821 50.7598 34.4487 47.3109 34.6875 50.088 38.2555 49.4469 43.3993 45.8788 46.1764 44.2257 47.4631 42.1421 48.0671 40.057 47.8641 40.7088 50.2006 39.343 52.6231 37.0065 53.2749 34.6699 53.9266 32.2474 52.5608 31.5957 50.2243 31.5072 49.9069 31.4546 49.5807 31.4391 49.2516 29.3942 50.4327 26.8745 50.4327 24.8297 49.2516 24.7151 51.6746 22.658 53.546 20.235 53.4315 17.812 53.3169 15.9406 51.2598 16.0551 48.8368 16.0707 48.5077 16.1232 48.1814 16.2117 47.8641 11.7122 48.3079 7.70476 45.02 7.26095 40.5205 7.05493 38.4317 7.65902 36.3436 8.94844 34.6875 5.32925 34.4938 2.55231 31.4029 2.74597 27.7837 2.92514 24.4352 5.59993 21.7604 8.94844 21.5812 6.17065 18.0138 6.81083 12.8699 10.3783 10.0921 12.0352 8.80203 14.1244 8.19792 16.2141 8.40469 15.5365 6.07551 16.8754 3.63804 19.2045 2.96045 21.5337 2.28286 23.9712 3.62174 24.6488 5.95092 24.7488 6.2949 24.8064 6.64984 24.8203 7.00781 26.8651 5.82668 29.3849 5.82668 31.4297 7.00781 31.5442 4.58478 33.6013 2.71338 36.0244 2.82792 38.4474 2.94246 40.3188 4.99956 40.2043 7.4226 40.1887 7.75168 40.1362 8.07797 40.0477 8.39531 44.5482 7.96146 48.5483 11.2582 48.9822 15.7587 49.1825 17.8368 48.5813 19.913 47.3016 21.5625 50.7541 21.7966 53.4356 24.6645 53.4375 28.125Z" stroke="#66737C" stroke-width="3.33333" stroke-linecap="round" stroke-linejoin="round" fill="none"/><path d="M28.125 31.868 28.125 34.0687" stroke="#66737C" stroke-width="3.33333" stroke-linecap="round" stroke-linejoin="round" fill="none"/><path d="M28.125 21.7453 28.125 23.9461" stroke="#66737C" stroke-width="3.33333" stroke-linecap="round" stroke-linejoin="round" fill="none"/><path d="M28.125 11.6227 28.125 13.8234" stroke="#66737C" stroke-width="3.33333" stroke-linecap="round" stroke-linejoin="round" fill="none"/><path d="M28.125 41.9906 28.125 44.1914" stroke="#66737C" stroke-width="3.33333" stroke-linecap="round" stroke-linejoin="round" fill="none"/><path d="M15.4734 19.5445C15.4734 21.3671 16.9509 22.8445 18.7734 22.8445 20.596 22.8445 22.0734 21.3671 22.0734 19.5445 22.0734 17.722 20.596 16.2445 18.7734 16.2445 16.9509 16.2445 15.4734 17.722 15.4734 19.5445Z" stroke="#66737C" stroke-width="3.33333" stroke-linecap="round" stroke-linejoin="round" fill="none"/><path d="M34.725 19.3242C34.725 21.1468 36.2025 22.6242 38.025 22.6242 39.8475 22.6242 41.325 21.1468 41.325 19.3242 41.325 17.5017 39.8475 16.0242 38.025 16.0242 36.2025 16.0242 34.725 17.5017 34.725 19.3242Z" stroke="#66737C" stroke-width="3.33333" stroke-linecap="round" stroke-linejoin="round" fill="none"/><path d="M13.8234 39.1266C13.8234 40.9491 15.3009 42.4266 17.1234 42.4266 18.946 42.4266 20.4234 40.9491 20.4234 39.1266 20.4234 37.304 18.946 35.8266 17.1234 35.8266 15.3009 35.8266 13.8234 37.304 13.8234 39.1266Z" stroke="#66737C" stroke-width="3.33333" stroke-linecap="round" stroke-linejoin="round" fill="none"/><path d="M35.0016 34.725C35.0016 36.5475 36.479 38.025 38.3016 38.025 40.1241 38.025 41.6016 36.5475 41.6016 34.725 41.6016 32.9025 40.1241 31.425 38.3016 31.425 36.479 31.425 35.0016 32.9025 35.0016 34.725Z" stroke="#66737C" stroke-width="3.33333" stroke-linecap="round" stroke-linejoin="round" fill="none"/><path d="M14.3742 27.2461 16.5727 27.2461C17.7868 27.2474 18.7721 26.2642 18.7734 25.05 18.7734 25.0484 18.7734 25.0469 18.7734 25.0453L18.7734 22.8445" stroke="#66737C" stroke-width="3.33333" stroke-linecap="round" stroke-linejoin="round" fill="none"/></svg>