<svg width="60" height="60" viewBox="-1.875 -1.875 60 60" xmlns="http://www.w3.org/2000/svg" xmlns:xlink="http://www.w3.org/1999/xlink" id="Amazon-Web-Service-Sagemaker--Streamline-Ultimate" fill="none" overflow="hidden"><path d="M37.5 30.4683C39.4416 30.4683 41.0156 28.8942 41.0156 26.9527 41.0156 25.0109 39.4416 23.4369 37.5 23.4369 35.5584 23.4369 33.9844 25.0109 33.9844 26.9527 33.9844 28.8942 35.5584 30.4683 37.5 30.4683Z" stroke="#66737C" stroke-width="3.33333" stroke-linecap="round" stroke-linejoin="round" stroke-miterlimit="10"/><path d="M36.7969 13.8275C36.5379 13.8275 36.3281 13.6177 36.3281 13.3588 36.3281 13.0999 36.5379 12.8901 36.7969 12.8901" stroke="#66737C" stroke-width="3.33333" stroke-linecap="round" stroke-linejoin="round" stroke-miterlimit="10"/><path d="M36.7969 13.8275C37.0556 13.8275 37.2656 13.6177 37.2656 13.3588 37.2656 13.0999 37.0556 12.8901 36.7969 12.8901" stroke="#66737C" stroke-width="3.33333" stroke-linecap="round" stroke-linejoin="round" stroke-miterlimit="10"/><path d="M47.3438 26.9527C47.0848 26.9527 46.875 26.7429 46.875 26.4841 46.875 26.2252 47.0848 26.0154 47.3438 26.0154" stroke="#66737C" stroke-width="3.33333" stroke-linecap="round" stroke-linejoin="round" stroke-miterlimit="10"/><path d="M47.3438 26.9527C47.6025 26.9527 47.8125 26.7429 47.8125 26.4841 47.8125 26.2252 47.6025 26.0154 47.3438 26.0154" stroke="#66737C" stroke-width="3.33333" stroke-linecap="round" stroke-linejoin="round" stroke-miterlimit="10"/><path d="M35.625 45.7027C35.366 45.7027 35.1562 45.4929 35.1562 45.2341 35.1562 44.9752 35.366 44.7654 35.625 44.7654" stroke="#66737C" stroke-width="3.33333" stroke-linecap="round" stroke-linejoin="round" stroke-miterlimit="10"/><path d="M35.625 45.7027C35.8838 45.7027 36.0938 45.4929 36.0938 45.2341 36.0938 44.9752 35.8838 44.7654 35.625 44.7654" stroke="#66737C" stroke-width="3.33333" stroke-linecap="round" stroke-linejoin="round" stroke-miterlimit="10"/><path d="M28.125 30.4683 28.125 49.2183" stroke="#66737C" stroke-width="3.33333" stroke-linecap="round" stroke-linejoin="round" stroke-miterlimit="10"/><path d="M28.125 37.4995 37.5 37.4995" stroke="#66737C" stroke-width="3.33333" stroke-linecap="round" stroke-linejoin="round" stroke-miterlimit="10"/><path d="M10.5469 15.2338 16.4062 18.7494 16.4062 29.2964 22.0965 34.9866" stroke="#66737C" stroke-width="3.33333" stroke-linecap="round" stroke-linejoin="round" stroke-miterlimit="10"/><path d="M2.34375 32.8125 7.96875 28.8281" stroke="#66737C" stroke-width="3.33333" stroke-linecap="round" stroke-linejoin="round" stroke-miterlimit="10"/><path d="M19.9219 2.9643 19.9219 11.718" stroke="#66737C" stroke-width="3.33333" stroke-linecap="round" stroke-linejoin="round" stroke-miterlimit="10"/><path d="M28.125 30.4683 18.75 37.4995" stroke="#66737C" stroke-width="3.33333" stroke-linecap="round" stroke-linejoin="round" stroke-miterlimit="10"/><path d="M15.0895 50.7865 19.922 46.8745" stroke="#66737C" stroke-width="3.33333" stroke-linecap="round" stroke-linejoin="round" stroke-miterlimit="10"/><path d="M28.1252 19.9213 23.9065 24.1402" stroke="#66737C" stroke-width="3.33333" stroke-linecap="round" stroke-linejoin="round" stroke-miterlimit="10"/><path d="M28.125 6.42457 33.9844 1.75781 45.7031 7.82461 45.7031 15.7581 53.9062 21.8249 53.9062 33.4917 45.7031 39.0919 45.7031 48.4254 33.9844 54.4922 28.125 49.8255 22.2656 54.4922 10.5469 48.4254 10.5469 39.0919 2.34375 33.4917 2.34375 21.8249 10.5469 15.7581 10.5469 7.82461 22.2656 1.75781 28.125 6.42457ZM28.125 6.42457 28.125 19.9582 34.4878 25.1222" stroke="#66737C" stroke-width="3.33333" stroke-linecap="round" stroke-linejoin="round" stroke-miterlimit="10"/></svg>