<svg width="60" height="60" viewBox="-2.14 -2.14 60 60" xmlns="http://www.w3.org/2000/svg" xmlns:xlink="http://www.w3.org/1999/xlink" id="Ai-Chip-Robot--Streamline-Ultimate.svg" fill="none" overflow="hidden"><path d="M14.1877 9.54902 41.53 9.54902C41.53 9.54902 46.1733 9.54902 46.1733 14.1923L46.1733 41.5346C46.1733 41.5346 46.1733 46.178 41.53 46.178L14.1877 46.178C14.1877 46.178 9.54437 46.178 9.54437 41.5346L9.54437 14.1923C9.54437 14.1923 9.54437 9.54902 14.1877 9.54902" stroke="#66737C" stroke-width="3.57143" stroke-linejoin="round"/><path d="M20.7816 2.4033 20.7816 9.54632" stroke="#66737C" stroke-width="3.57143" stroke-linecap="round"/><path d="M2.4033 34.9429 9.54542 34.9429" stroke="#66737C" stroke-width="3.57143" stroke-linecap="round"/><path d="M34.9383 2.4033 34.9383 9.54632" stroke="#66737C" stroke-width="3.57143" stroke-linecap="round"/><path d="M2.4033 20.7771 9.54542 20.7771" stroke="#66737C" stroke-width="3.57143" stroke-linecap="round"/><path d="M20.7816 46.1793 20.7816 53.3134" stroke="#66737C" stroke-width="3.57143" stroke-linecap="round"/><path d="M46.1749 34.9429 53.3171 34.9429" stroke="#66737C" stroke-width="3.57143" stroke-linecap="round"/><path d="M34.9383 46.1793 34.9383 53.3134" stroke="#66737C" stroke-width="3.57143" stroke-linecap="round"/><path d="M46.1749 20.7771 53.3171 20.7771" stroke="#66737C" stroke-width="3.57143" stroke-linecap="round"/><path d="M22.7686 21.7378 32.9514 21.7378C32.9514 21.7378 37.5947 21.7378 37.5947 26.3811L37.5947 32.241C37.5947 32.241 37.5947 36.8843 32.9514 36.8843L22.7686 36.8843C22.7686 36.8843 18.1253 36.8843 18.1253 32.241L18.1253 26.3811C18.1253 26.3811 18.1253 21.7378 22.7686 21.7378" stroke="#66737C" stroke-width="3.57143" stroke-linejoin="round"/><path d="M27.86 15.7644 27.86 21.7384" stroke="#66737C" stroke-width="3.57143" stroke-linecap="round" stroke-linejoin="round"/><path d="M24.6677 27.9649 24.6677 30.6623" stroke="#66737C" stroke-width="3.57143" stroke-linecap="round" stroke-linejoin="round"/><path d="M31.0523 27.9649 31.0523 30.6623" stroke="#66737C" stroke-width="3.57143" stroke-linecap="round" stroke-linejoin="round"/></svg>