<svg width="60" height="60" viewBox="-3.075 -1.875 60 60" xmlns="http://www.w3.org/2000/svg" xmlns:xlink="http://www.w3.org/1999/xlink" id="Amazon-Web-Service-Cost-Explorer--Streamline-Ultimate" fill="none" overflow="hidden"><path d="M35.2125 48.2625C41.6743 48.2625 46.9125 43.0243 46.9125 36.5625 46.9125 30.101 41.6743 24.8625 35.2125 24.8625 28.7507 24.8625 23.5125 30.101 23.5125 36.5625 23.5125 43.0243 28.7507 48.2625 35.2125 48.2625Z" stroke="#66737C" stroke-width="3.33333" stroke-linecap="round" stroke-linejoin="round" stroke-miterlimit="10"/><path d="M52.3125 53.437 43.5908 44.7154" stroke="#66737C" stroke-width="3.33333" stroke-linecap="round" stroke-linejoin="round" stroke-miterlimit="10"/><path d="M5.06263 43.313C6.9266 43.313 8.43764 41.8021 8.43764 39.938 8.43764 38.0741 6.9266 36.563 5.06263 36.563 3.19867 36.563 1.68764 38.0741 1.68764 39.938 1.68764 41.8021 3.19867 43.313 5.06263 43.313Z" stroke="#66737C" stroke-width="3.33333" stroke-linecap="round" stroke-linejoin="round" stroke-miterlimit="10"/><path d="M17.2124 28.688C19.0764 28.688 20.5874 27.1771 20.5874 25.313 20.5874 23.4491 19.0764 21.938 17.2124 21.938 15.3485 21.938 13.8374 23.4491 13.8374 25.313 13.8374 27.1771 15.3485 28.688 17.2124 28.688Z" stroke="#66737C" stroke-width="3.33333" stroke-linecap="round" stroke-linejoin="round" stroke-miterlimit="10"/><path d="M32.0627 18.563C33.9266 18.563 35.4377 17.052 35.4377 15.188 35.4377 13.3241 33.9266 11.813 32.0627 11.813 30.1986 11.813 28.6877 13.3241 28.6877 15.188 28.6877 17.052 30.1986 18.563 32.0627 18.563Z" stroke="#66737C" stroke-width="3.33333" stroke-linecap="round" stroke-linejoin="round" stroke-miterlimit="10"/><path d="M48.7125 14.063C50.5764 14.063 52.0875 12.552 52.0875 10.688 52.0875 8.82409 50.5764 7.31304 48.7125 7.31304 46.8484 7.31304 45.3375 8.82409 45.3375 10.688 45.3375 12.552 46.8484 14.063 48.7125 14.063Z" stroke="#66737C" stroke-width="3.33333" stroke-linecap="round" stroke-linejoin="round" stroke-miterlimit="10"/><path d="M6.87373 37.0926 15.1875 28.0134" stroke="#66737C" stroke-width="3.33333" stroke-linecap="round" stroke-linejoin="round" stroke-miterlimit="10"/><path d="M20.0918 23.546 29.2939 17.1046" stroke="#66737C" stroke-width="3.33333" stroke-linecap="round" stroke-linejoin="round" stroke-miterlimit="10"/><path d="M35.2881 14.1697 45.4833 11.6395" stroke="#66737C" stroke-width="3.33333" stroke-linecap="round" stroke-linejoin="round" stroke-miterlimit="10"/><path d="M5.06263 2.81304 5.06263 36.563" stroke="#66737C" stroke-width="3.33333" stroke-linecap="round" stroke-linejoin="round" stroke-miterlimit="10"/><path d="M5.06263 43.313 5.06263 50.063 23.0627 50.063" stroke="#66737C" stroke-width="3.33333" stroke-linecap="round" stroke-linejoin="round" stroke-miterlimit="10"/></svg>