<svg width="60" height="60" viewBox="-1.875 -1.875 60 60" xmlns="http://www.w3.org/2000/svg" xmlns:xlink="http://www.w3.org/1999/xlink" id="Crypto-Blockchain-Technology-Chip--Streamline-Ultimate" fill="none" overflow="hidden"><path d="M35.8594 17.8125 20.3906 17.8125C18.9667 17.8125 17.8125 18.9667 17.8125 20.3906L17.8125 35.8594C17.8125 37.2832 18.9667 38.4375 20.3906 38.4375L35.8594 38.4375C37.2832 38.4375 38.4375 37.2832 38.4375 35.8594L38.4375 20.3906C38.4375 18.9667 37.2832 17.8125 35.8594 17.8125Z" stroke="#66737C" stroke-width="3.33333" stroke-linecap="round" stroke-linejoin="round"/><path d="M17.8124 31.5626 14.3749 31.5626" stroke="#66737C" stroke-width="3.33333" stroke-linecap="round" stroke-linejoin="round"/><path d="M41.8751 31.5626 38.4375 31.5626" stroke="#66737C" stroke-width="3.33333" stroke-linecap="round" stroke-linejoin="round"/><path d="M17.8124 22.9689 14.3749 22.9689" stroke="#66737C" stroke-width="3.33333" stroke-linecap="round" stroke-linejoin="round"/><path d="M41.8751 22.9689 38.4375 22.9689" stroke="#66737C" stroke-width="3.33333" stroke-linecap="round" stroke-linejoin="round"/><path d="M23.828 41.8751 23.828 38.4375" stroke="#66737C" stroke-width="3.33333" stroke-linecap="round" stroke-linejoin="round"/><path d="M23.828 17.8124 23.828 14.3749" stroke="#66737C" stroke-width="3.33333" stroke-linecap="round" stroke-linejoin="round"/><path d="M32.422 41.8751 32.422 38.4375" stroke="#66737C" stroke-width="3.33333" stroke-linecap="round" stroke-linejoin="round"/><path d="M32.422 17.8124 32.422 14.3749" stroke="#66737C" stroke-width="3.33333" stroke-linecap="round" stroke-linejoin="round"/><path d="M31.5626 31.5626 26.4063 31.5626" stroke="#66737C" stroke-width="3.33333" stroke-linecap="round" stroke-linejoin="round"/><path d="M2.34375 4.63542C2.34375 3.36977 3.36977 2.34375 4.63542 2.34375L12.6562 2.34375C13.9219 2.34375 14.9479 3.36977 14.9479 4.63542L14.9479 12.6562C14.9479 13.9219 13.9219 14.9479 12.6562 14.9479L4.63542 14.9479C3.36977 14.9479 2.34375 13.9219 2.34375 12.6562L2.34375 4.63542Z" stroke="#66737C" stroke-width="3.33333" stroke-linejoin="round"/><path d="M8.64572 9.79155C8.01288 9.79155 7.49988 9.27855 7.49988 8.64572 7.49988 8.01288 8.01288 7.49988 8.64572 7.49988" stroke="#66737C" stroke-width="3.33333" stroke-linecap="round" stroke-linejoin="round"/><path d="M8.64572 9.79155C9.27855 9.79155 9.79155 9.27855 9.79155 8.64572 9.79155 8.01288 9.27855 7.49988 8.64572 7.49988" stroke="#66737C" stroke-width="3.33333" stroke-linecap="round" stroke-linejoin="round"/><path d="M47.6044 9.79155C46.9713 9.79155 46.4585 9.27855 46.4585 8.64572 46.4585 8.01288 46.9713 7.49988 47.6044 7.49988" stroke="#66737C" stroke-width="3.33333" stroke-linecap="round" stroke-linejoin="round"/><path d="M47.6044 9.79155C48.2372 9.79155 48.75 9.27855 48.75 8.64572 48.75 8.01288 48.2372 7.49988 47.6044 7.49988" stroke="#66737C" stroke-width="3.33333" stroke-linecap="round" stroke-linejoin="round"/><path d="M8.64572 48.75C8.01288 48.75 7.49988 48.2372 7.49988 47.6044 7.49988 46.9713 8.01288 46.4585 8.64572 46.4585" stroke="#66737C" stroke-width="3.33333" stroke-linecap="round" stroke-linejoin="round"/><path d="M8.64572 48.75C9.27855 48.75 9.79155 48.2372 9.79155 47.6044 9.79155 46.9713 9.27855 46.4585 8.64572 46.4585" stroke="#66737C" stroke-width="3.33333" stroke-linecap="round" stroke-linejoin="round"/><path d="M47.6044 48.75C46.9713 48.75 46.4585 48.2372 46.4585 47.6044 46.4585 46.9713 46.9713 46.4585 47.6044 46.4585" stroke="#66737C" stroke-width="3.33333" stroke-linecap="round" stroke-linejoin="round"/><path d="M47.6044 48.75C48.2372 48.75 48.75 48.2372 48.75 47.6044 48.75 46.9713 48.2372 46.4585 47.6044 46.4585" stroke="#66737C" stroke-width="3.33333" stroke-linecap="round" stroke-linejoin="round"/><path d="M41.302 4.63542C41.302 3.36977 42.3281 2.34375 43.5938 2.34375L51.6145 2.34375C52.8802 2.34375 53.9062 3.36977 53.9062 4.63542L53.9062 12.6562C53.9062 13.9219 52.8802 14.9479 51.6145 14.9479L43.5938 14.9479C42.3281 14.9479 41.302 13.9219 41.302 12.6562L41.302 4.63542Z" stroke="#66737C" stroke-width="3.33333" stroke-linejoin="round"/><path d="M14.948 8.64572 41.3023 8.64572" stroke="#66737C" stroke-width="3.33333" stroke-linecap="round" stroke-linejoin="round"/><path d="M14.948 47.6044 41.3023 47.6044" stroke="#66737C" stroke-width="3.33333" stroke-linecap="round" stroke-linejoin="round"/><path d="M2.34375 43.5938C2.34375 42.3281 3.36977 41.302 4.63542 41.302L12.6562 41.302C13.9219 41.302 14.9479 42.3281 14.9479 43.5938L14.9479 51.6145C14.9479 52.8802 13.9219 53.9062 12.6562 53.9062L4.63542 53.9062C3.36977 53.9062 2.34375 52.8802 2.34375 51.6145L2.34375 43.5938Z" stroke="#66737C" stroke-width="3.33333" stroke-linejoin="round"/><path d="M41.302 43.5938C41.302 42.3281 42.3281 41.302 43.5938 41.302L51.6145 41.302C52.8802 41.302 53.9062 42.3281 53.9062 43.5938L53.9062 51.6145C53.9062 52.8802 52.8802 53.9062 51.6145 53.9062L43.5938 53.9062C42.3281 53.9062 41.302 52.8802 41.302 51.6145L41.302 43.5938Z" stroke="#66737C" stroke-width="3.33333" stroke-linejoin="round"/><path d="M8.64572 14.948 8.64572 41.3023" stroke="#66737C" stroke-width="3.33333" stroke-linecap="round" stroke-linejoin="round"/><path d="M47.6044 14.948 47.6044 41.3023" stroke="#66737C" stroke-width="3.33333" stroke-linecap="round" stroke-linejoin="round"/></svg>