<svg width="60" height="60" viewBox="-1.875 -1.875 60 60" xmlns="http://www.w3.org/2000/svg" xmlns:xlink="http://www.w3.org/1999/xlink" id="Freert-Os-1--Streamline-Ultimate" fill="none" overflow="hidden"><path d="M14.1795 30.4688C16.1211 30.4688 17.6951 28.8947 17.6951 26.9531 17.6951 25.0116 16.1211 23.4375 14.1795 23.4375 12.2379 23.4375 10.6639 25.0116 10.6639 26.9531 10.6639 28.8947 12.2379 30.4688 14.1795 30.4688Z" stroke="#66737C" stroke-width="3.33333" stroke-linecap="round" stroke-linejoin="round" stroke-miterlimit="10"/><path d="M28.242 17.5781C30.1838 17.5781 31.7576 16.0041 31.7576 14.0625 31.7576 12.1209 30.1838 10.5469 28.242 10.5469 26.3004 10.5469 24.7263 12.1209 24.7263 14.0625 24.7263 16.0041 26.3004 17.5781 28.242 17.5781Z" stroke="#66737C" stroke-width="3.33333" stroke-linecap="round" stroke-linejoin="round" stroke-miterlimit="10"/><path d="M28.242 17.5781 28.242 45.7031" stroke="#66737C" stroke-width="3.33333" stroke-linecap="round" stroke-linejoin="round" stroke-miterlimit="10"/><path d="M17.6951 26.9531 19.5701 26.9531C20.9764 26.9531 21.9139 27.8906 21.9139 29.2969L21.9139 45.7031" stroke="#66737C" stroke-width="3.33333" stroke-linecap="round" stroke-linejoin="round" stroke-miterlimit="10"/><path d="M42.3045 30.4688C44.2463 30.4688 45.8201 28.8947 45.8201 26.9531 45.8201 25.0116 44.2463 23.4375 42.3045 23.4375 40.3629 23.4375 38.7888 25.0116 38.7888 26.9531 38.7888 28.8947 40.3629 30.4688 42.3045 30.4688Z" stroke="#66737C" stroke-width="3.33333" stroke-linecap="round" stroke-linejoin="round" stroke-miterlimit="10"/><path d="M38.7891 26.9531 36.9141 26.9531C35.5078 26.9531 34.5703 27.8906 34.5703 29.2969L34.5703 45.7031" stroke="#66737C" stroke-width="3.33333" stroke-linecap="round" stroke-linejoin="round" stroke-miterlimit="10"/><path d="M50.9766 46.875C50.9766 49.4531 48.8672 51.5625 46.2891 51.5625L9.96094 51.5625C7.38281 51.5625 5.27344 49.4531 5.27344 46.875L5.27344 9.375C5.27344 6.79688 7.38281 4.6875 9.96094 4.6875L46.2891 4.6875C48.8672 4.6875 50.9766 6.79688 50.9766 9.375L50.9766 46.875Z" stroke="#66737C" stroke-width="3.33333" stroke-linecap="round" stroke-linejoin="round" stroke-miterlimit="10"/><path d="M1.75781 10.5469 5.27344 10.5469" stroke="#66737C" stroke-width="3.33333" stroke-linecap="round" stroke-linejoin="round" stroke-miterlimit="10"/><path d="M1.75781 22.2656 5.27344 22.2656" stroke="#66737C" stroke-width="3.33333" stroke-linecap="round" stroke-linejoin="round" stroke-miterlimit="10"/><path d="M1.75781 33.9844 5.27344 33.9844" stroke="#66737C" stroke-width="3.33333" stroke-linecap="round" stroke-linejoin="round" stroke-miterlimit="10"/><path d="M50.9766 22.2656 54.4922 22.2656" stroke="#66737C" stroke-width="3.33333" stroke-linecap="round" stroke-linejoin="round" stroke-miterlimit="10"/><path d="M50.9766 33.9844 54.4922 33.9844" stroke="#66737C" stroke-width="3.33333" stroke-linecap="round" stroke-linejoin="round" stroke-miterlimit="10"/><path d="M1.75781 45.7031 5.27344 45.7031" stroke="#66737C" stroke-width="3.33333" stroke-linecap="round" stroke-linejoin="round" stroke-miterlimit="10"/><path d="M54.4922 10.5469 50.9766 10.5469" stroke="#66737C" stroke-width="3.33333" stroke-linecap="round" stroke-linejoin="round" stroke-miterlimit="10"/><path d="M54.4922 45.7031 50.9766 45.7031" stroke="#66737C" stroke-width="3.33333" stroke-linecap="round" stroke-linejoin="round" stroke-miterlimit="10"/></svg>