<svg width="60" height="60" viewBox="-1.875 -1.875 60 60" xmlns="http://www.w3.org/2000/svg" xmlns:xlink="http://www.w3.org/1999/xlink" id="Design-Document-Ai-1--Streamline-Ultimate" overflow="hidden"><defs></defs><path d="M5.27344 1.75781 50.9766 1.75781C50.9766 1.75781 54.4922 1.75781 54.4922 5.27344L54.4922 50.9766C54.4922 50.9766 54.4922 54.4922 50.9766 54.4922L5.27344 54.4922C5.27344 54.4922 1.75781 54.4922 1.75781 50.9766L1.75781 5.27344C1.75781 5.27344 1.75781 1.75781 5.27344 1.75781" stroke="#66737C" stroke-width="3.33333" stroke-linecap="round" stroke-linejoin="round" fill="none"/><path d="M35.1562 42.1875 35.1562 24.6094" stroke="#66737C" stroke-width="3.33333" stroke-linecap="round" stroke-linejoin="round" fill="none"/><path d="M17.5781 42.1875 17.5781 28.125C17.5781 26.1834 19.1521 24.6094 21.0938 24.6094 23.0354 24.6094 24.6094 26.1834 24.6094 28.125L24.6094 42.1875" stroke="#66737C" stroke-width="3.33333" stroke-linecap="round" stroke-linejoin="round" fill="none"/><path d="M17.5781 35.1562 24.6094 35.1562" stroke="#66737C" stroke-width="3.33333" stroke-linecap="round" stroke-linejoin="round" fill="none"/></svg>