<svg width="60" height="60" viewBox="-1.875 -1.875 60 60" xmlns="http://www.w3.org/2000/svg" xmlns:xlink="http://www.w3.org/1999/xlink" id="Transfer-Speed-5g-1--Streamline-Ultimate" fill="none" overflow="hidden"><path d="M40.4297 1.75781 54.4922 12.3047 1.75781 12.3047" stroke="#66737C" stroke-width="3.33333" stroke-linecap="round" stroke-linejoin="round"/><path d="M15.8203 54.4922 1.75781 43.9453 54.4922 43.9453" stroke="#66737C" stroke-width="3.33333" stroke-linecap="round" stroke-linejoin="round"/><path d="M37.5919 29.4005 41.6934 29.4005 41.6934 32.1347C41.6934 34.3999 39.8571 36.2363 37.5919 36.2363L34.8577 36.2363C32.5924 36.2363 30.7561 34.3999 30.7561 32.1347L30.7561 23.9316C30.7561 21.6664 32.5924 19.83 34.8577 19.83L37.5919 19.83C39.3778 19.83 40.897 20.9714 41.46 22.5644" stroke="#66737C" stroke-width="3.33333" stroke-linecap="round" stroke-linejoin="round"/><path d="M24.3164 19.83 15.4297 19.83 14.0625 28.0331 15.0648 27.532C16.2039 26.9625 17.4599 26.666 18.7334 26.666L20.8984 26.666C23.1637 26.666 25.0001 28.5023 25.0001 30.7676L25.0001 32.1347C25.0001 34.3999 23.1637 36.2363 20.8984 36.2363L18.1641 36.2363C16.3782 36.2363 14.859 35.0948 14.2959 33.5018" stroke="#66737C" stroke-width="3.33333" stroke-linecap="round" stroke-linejoin="round"/></svg>