<svg width="60" height="60" viewBox="-1.875 -1.875 60 60" xmlns="http://www.w3.org/2000/svg" xmlns:xlink="http://www.w3.org/1999/xlink" id="Hyperloop-Track--Streamline-Ultimate" fill="none" overflow="hidden"><path d="M43.9455 35.7422C44.883 37.1484 45.8203 38.0859 46.9922 38.0859 50.2734 38.0859 52.8516 30.1172 52.8516 20.5078 52.8516 10.8984 50.2734 2.92969 46.9922 2.92969 44.8828 2.92969 43.008 6.44531 42.0705 11.6016" stroke="#66737C" stroke-width="3.33333" stroke-linecap="round" stroke-linejoin="round" stroke-miterlimit="10"/><path d="M39.4924 40.4297C41.6018 43.2422 44.1799 45.1172 46.9924 45.1172 49.8049 45.1172 52.383 43.4766 54.4924 40.4297" stroke="#66737C" stroke-width="3.33333" stroke-linecap="round" stroke-linejoin="round" stroke-miterlimit="10"/><path d="M46.9922 45.1172 46.9922 53.3203" stroke="#66737C" stroke-width="3.33333" stroke-linecap="round" stroke-linejoin="round" stroke-miterlimit="10"/><path d="M14.8829 12.3047C13.9454 6.67969 11.836 2.92969 9.72666 2.92969 6.44541 2.92969 3.86728 10.8984 3.86728 20.5078 3.86728 30.1172 6.44541 38.0859 9.72666 38.0859 12.0704 38.0859 13.9454 34.3359 14.8829 28.7109" stroke="#66737C" stroke-width="3.33333" stroke-linecap="round" stroke-linejoin="round" stroke-miterlimit="10"/><path d="M2.22664 40.4297C4.33603 43.2422 6.91416 45.1172 9.72666 45.1172 12.5392 45.1172 15.1173 43.4766 17.2267 40.4297" stroke="#66737C" stroke-width="3.33333" stroke-linecap="round" stroke-linejoin="round" stroke-miterlimit="10"/><path d="M9.72661 45.1172 9.72661 53.3203" stroke="#66737C" stroke-width="3.33333" stroke-linecap="round" stroke-linejoin="round" stroke-miterlimit="10"/><path d="M23.7891 28.7109 41.8359 28.7109C44.1797 28.7109 46.0547 26.8359 46.0547 24.4922 46.0547 23.0859 45.3516 21.6797 43.9453 20.9766L39.7266 18.3984C33.1641 14.4141 25.4297 12.3047 17.6954 12.3047L4.57139 12.3047" stroke="#66737C" stroke-width="3.33333" stroke-linecap="round" stroke-linejoin="round" stroke-miterlimit="10"/><path d="M15.586 28.7109 4.55018 28.7109" stroke="#66737C" stroke-width="3.33333" stroke-linecap="round" stroke-linejoin="round" stroke-miterlimit="10"/><path d="M15.8203 20.5078 1.75781 20.5078" stroke="#66737C" stroke-width="3.33333" stroke-linecap="round" stroke-linejoin="round" stroke-miterlimit="10"/><path d="M43.2495 20.5536 27.7734 20.5536C23.3204 20.5536 19.5704 16.8036 19.5704 12.3505" stroke="#66737C" stroke-width="3.33333" stroke-linecap="round" stroke-linejoin="round" stroke-miterlimit="10"/></svg>