<svg width="60" height="60" viewBox="-1.875 -1.875 60 60" xmlns="http://www.w3.org/2000/svg" xmlns:xlink="http://www.w3.org/1999/xlink" id="Book-Play--Streamline-Ultimate" overflow="hidden"><defs></defs><path d="M49.2188 54.4922 12.3047 54.4922C9.39225 54.4922 7.03125 52.1312 7.03125 49.2188" stroke="#66737C" stroke-width="3.33333" stroke-linecap="round" stroke-linejoin="round" fill="none"/><path d="M14.0625 1.75781C10.1792 1.75781 7.03125 4.90581 7.03125 8.78906L7.03125 49.2188C7.03125 46.3063 9.39225 43.9453 12.3047 43.9453L47.4609 43.9453C48.4318 43.9453 49.2188 43.1583 49.2188 42.1875L49.2188 3.51562C49.2188 2.54481 48.4318 1.75781 47.4609 1.75781Z" stroke="#66737C" stroke-width="3.33333" stroke-linecap="round" stroke-linejoin="round" fill="none"/><path d="M45.7031 54.4922 45.7031 43.9453" stroke="#66737C" stroke-width="3.33333" stroke-linecap="round" stroke-linejoin="round" fill="none"/><path d="M17.5781 16.6992 17.5781 30.5555C17.5774 31.525 18.3627 32.3116 19.3322 32.3123 19.6061 32.3125 19.8763 32.2487 20.1211 32.1258L38.6719 22.8516 20.0109 15.0773C19.1165 14.7033 18.0882 15.1251 17.7141 16.0195 17.624 16.2348 17.5778 16.4659 17.5781 16.6992Z" stroke="#66737C" stroke-width="3.33333" stroke-linecap="round" stroke-linejoin="round" fill="none"/></svg>