<svg width="60" height="60" viewBox="-1.875 -1.875 60 60" xmlns="http://www.w3.org/2000/svg" xmlns:xlink="http://www.w3.org/1999/xlink" id="Book-Bookmark--Streamline-Ultimate" overflow="hidden"><path d="M28.125 9.50859 28.125 50.9508" stroke="#66737C" stroke-width="3.33333" stroke-linecap="round" stroke-linejoin="round" fill="none"/><path d="M36.3047 7.4625C33.9508 7.85955 31.6387 8.47309 29.3977 9.29531 28.5755 9.58954 27.6768 9.58954 26.8547 9.29531 19.6583 6.47487 11.6929 6.3087 4.38516 8.82656 2.81884 9.32353 1.75551 10.7786 1.75781 12.4219L1.75781 46.0242C1.74963 48.1043 3.42925 49.7972 5.50937 49.8054 5.82976 49.8067 6.14901 49.7671 6.45937 49.6875 13.1887 47.8032 20.3498 48.172 26.85 50.7375 27.6718 51.0337 28.5712 51.0337 29.393 50.7375 35.8931 48.1715 43.0543 47.8027 49.7836 49.6875 51.8003 50.2027 53.8527 48.9855 54.3679 46.9688 54.446 46.6632 54.4854 46.349 54.4852 46.0336L54.4852 12.4219C54.4843 10.784 53.4251 9.33434 51.8648 8.83594 50.052 8.25335 48.1996 7.80218 46.3219 7.48594" stroke="#66737C" stroke-width="3.33333" stroke-linecap="round" stroke-linejoin="round" fill="none"/><path d="M46.582 26.393 41.3086 21.1195 36.0352 26.393 36.0352 8.81484C36.0352 6.87322 37.6092 5.29922 39.5508 5.29922L43.0664 5.29922C45.008 5.29922 46.582 6.87322 46.582 8.81484Z" stroke="#66737C" stroke-width="3.33333" stroke-linecap="round" stroke-linejoin="round" fill="none"/></svg>