<svg width="60" height="60" viewBox="-1.875 -1.875 60 60" xmlns="http://www.w3.org/2000/svg" xmlns:xlink="http://www.w3.org/1999/xlink" id="Book-Library-2--Streamline-Ultimate" overflow="hidden"><defs></defs><path d="M8.78906 1.75781 15.8203 1.75781C15.8203 1.75781 19.3359 1.75781 19.3359 5.27344L19.3359 38.6719C19.3359 38.6719 19.3359 42.1875 15.8203 42.1875L8.78906 42.1875C8.78906 42.1875 5.27344 42.1875 5.27344 38.6719L5.27344 5.27344C5.27344 5.27344 5.27344 1.75781 8.78906 1.75781" stroke="#66737C" stroke-width="3.33333" stroke-linecap="round" stroke-linejoin="round" fill="none"/><path d="M22.8516 1.75781 29.8828 1.75781C29.8828 1.75781 33.3984 1.75781 33.3984 5.27344L33.3984 38.6719C33.3984 38.6719 33.3984 42.1875 29.8828 42.1875L22.8516 42.1875C22.8516 42.1875 19.3359 42.1875 19.3359 38.6719L19.3359 5.27344C19.3359 5.27344 19.3359 1.75781 22.8516 1.75781" stroke="#66737C" stroke-width="3.33333" stroke-linecap="round" stroke-linejoin="round" fill="none"/><path d="M38.6386 5.65738 42.1177 5.15188C42.1177 5.15188 45.5968 4.64638 46.1023 8.12547L50.399 37.6978C50.399 37.6978 50.9045 41.1769 47.4254 41.6824L43.9463 42.1879C43.9463 42.1879 40.4672 42.6934 39.9617 39.2143L35.665 9.64197C35.665 9.64197 35.1595 6.16288 38.6386 5.65738" stroke="#66737C" stroke-width="3.33333" stroke-linecap="round" stroke-linejoin="round" fill="none"/><path d="M1.75781 45.7031C1.75781 47.6448 3.33181 49.2188 5.27344 49.2188L50.9766 49.2188C52.9182 49.2188 54.4922 47.6448 54.4922 45.7031 54.4922 43.7615 52.9182 42.1875 50.9766 42.1875L5.27344 42.1875C3.33181 42.1875 1.75781 43.7615 1.75781 45.7031Z" stroke="#66737C" stroke-width="3.33333" stroke-linecap="round" stroke-linejoin="round" fill="none"/><path d="M7.03125 49.2188 7.03125 54.4922" stroke="#66737C" stroke-width="3.33333" stroke-linecap="round" stroke-linejoin="round" fill="none"/><path d="M49.2188 49.2188 49.2188 54.4922" stroke="#66737C" stroke-width="3.33333" stroke-linecap="round" stroke-linejoin="round" fill="none"/></svg>