<svg width="60" height="60" viewBox="-2.14 -2.14 60 60" xmlns="http://www.w3.org/2000/svg" xmlns:xlink="http://www.w3.org/1999/xlink" id="Performance-Increase--Streamline-Ultimate.svg" overflow="hidden"><g><path d="M1.74125 53.9787 53.9787 53.9787" stroke="#66737C" stroke-width="3.57143" stroke-linecap="round" stroke-linejoin="round" fill="none"/><path d="M13.93 37.7271 6.965 37.7271C6.00856 37.7396 5.23625 38.5119 5.22375 39.4683L5.22375 53.9787 15.6713 53.9787 15.6713 39.4683C15.6587 38.5119 14.8864 37.7396 13.93 37.7271Z" stroke="#66737C" stroke-width="3.57143" stroke-linecap="round" stroke-linejoin="round" fill="none"/><path d="M31.3425 28.4404 24.3775 28.4404C23.4211 28.4529 22.6488 29.2252 22.6363 30.1817L22.6362 53.9787 33.0838 53.9787 33.0838 30.1817C33.0712 29.2252 32.2989 28.4529 31.3425 28.4404Z" stroke="#66737C" stroke-width="3.57143" stroke-linecap="round" stroke-linejoin="round" fill="none"/><path d="M48.755 19.1537 41.79 19.1537C40.8336 19.1663 40.0613 19.9386 40.0488 20.895L40.0488 53.9787 50.4963 53.9787 50.4963 20.895C50.4837 19.9386 49.7114 19.1663 48.755 19.1538Z" stroke="#66737C" stroke-width="3.57143" stroke-linecap="round" stroke-linejoin="round" fill="none"/><path d="M9.70457 21.4522 47.0137 4.50403" stroke="#66737C" stroke-width="3.57143" stroke-linecap="round" stroke-linejoin="round" fill="none"/><path d="M44.251 11.9101 47.0137 4.50403 39.6309 1.74125" stroke="#66737C" stroke-width="3.57143" stroke-linecap="round" stroke-linejoin="round" fill="none"/></g></svg>