<svg width="60" height="60" viewBox="-2.14 -2.14 60 60" xmlns="http://www.w3.org/2000/svg" xmlns:xlink="http://www.w3.org/1999/xlink" id="Performance-Money-Increase--Streamline-Ultimate.svg" overflow="hidden"><g><path d="M50.4963 1.74125 33.432 18.8055C32.2335 20.0154 30.3326 20.173 28.9512 19.177L21.2897 13.7211C20.0004 12.841 18.2831 12.9264 17.0875 13.93L1.74125 26.1187" stroke="#66737C" stroke-width="3.57143" stroke-linecap="round" stroke-linejoin="round" fill="none"/><path d="M36.5662 1.74125 50.4963 1.74125 50.4963 15.6713" stroke="#66737C" stroke-width="3.57143" stroke-linecap="round" stroke-linejoin="round" fill="none"/><path d="M34.825 44.6921 52.2375 44.6921C52.2375 44.6921 53.9787 44.6921 53.9787 46.4333L53.9787 52.2375C53.9787 52.2375 53.9787 53.9787 52.2375 53.9787L34.825 53.9787C34.825 53.9787 33.0838 53.9787 33.0838 52.2375L33.0838 46.4333C33.0838 46.4333 33.0838 44.6921 34.825 44.6921" stroke="#66737C" stroke-width="3.57143" stroke-linecap="round" stroke-linejoin="round" fill="none"/><path d="M6.965 44.6921 24.3775 44.6921C24.3775 44.6921 26.1187 44.6921 26.1187 46.4333L26.1187 52.2375C26.1187 52.2375 26.1187 53.9787 24.3775 53.9787L6.965 53.9787C6.965 53.9787 5.22375 53.9787 5.22375 52.2375L5.22375 46.4333C5.22375 46.4333 5.22375 44.6921 6.965 44.6921" stroke="#66737C" stroke-width="3.57143" stroke-linecap="round" stroke-linejoin="round" fill="none"/><path d="M3.4825 35.4054 20.895 35.4054C20.895 35.4054 22.6362 35.4054 22.6362 37.1467L22.6362 42.9508C22.6362 42.9508 22.6362 44.6921 20.895 44.6921L3.4825 44.6921C3.4825 44.6921 1.74125 44.6921 1.74125 42.9508L1.74125 37.1467C1.74125 37.1467 1.74125 35.4054 3.4825 35.4054" stroke="#66737C" stroke-width="3.57143" stroke-linecap="round" stroke-linejoin="round" fill="none"/><path d="M31.3425 35.4054 48.755 35.4054C48.755 35.4054 50.4963 35.4054 50.4963 37.1467L50.4963 42.9508C50.4963 42.9508 50.4963 44.6921 48.755 44.6921L31.3425 44.6921C31.3425 44.6921 29.6012 44.6921 29.6012 42.9508L29.6012 37.1467C29.6012 37.1467 29.6012 35.4054 31.3425 35.4054" stroke="#66737C" stroke-width="3.57143" stroke-linecap="round" stroke-linejoin="round" fill="none"/><path d="M34.825 26.1187 52.2375 26.1187C52.2375 26.1187 53.9787 26.1187 53.9787 27.86L53.9787 33.6642C53.9787 33.6642 53.9787 35.4054 52.2375 35.4054L34.825 35.4054C34.825 35.4054 33.0838 35.4054 33.0838 33.6642L33.0838 27.86C33.0838 27.86 33.0838 26.1187 34.825 26.1187" stroke="#66737C" stroke-width="3.57143" stroke-linecap="round" stroke-linejoin="round" fill="none"/></g></svg>