<svg width="60" height="60" viewBox="-2.14 -2.14 60 60" xmlns="http://www.w3.org/2000/svg" xmlns:xlink="http://www.w3.org/1999/xlink" id="Analytics-Bars--Streamline-Ultimate.svg" overflow="hidden"><style>
.MsftOfcResponsive_Stroke_66737c {
 stroke:#66737C; 
}
</style>
<path d="M1.74125 50.4963 53.9787 50.4963" class="MsftOfcResponsive_Stroke_66737c" stroke="#66737C" stroke-width="3.57143" stroke-linecap="round" stroke-linejoin="round" fill="none"/><path d="M13.93 26.1187 6.965 26.1187C6.00333 26.1187 5.22375 26.8983 5.22375 27.86L5.22375 50.4963 15.6713 50.4963 15.6713 27.86C15.6713 26.8983 14.8917 26.1188 13.93 26.1188Z" class="MsftOfcResponsive_Stroke_66737c" stroke="#66737C" stroke-width="3.57143" stroke-linecap="round" stroke-linejoin="round" fill="none"/><path d="M31.3425 5.22375 24.3775 5.22375C23.4158 5.22375 22.6363 6.00333 22.6363 6.965L22.6362 50.4963 33.0838 50.4963 33.0838 6.965C33.0838 6.00333 32.3042 5.22375 31.3425 5.22375Z" class="MsftOfcResponsive_Stroke_66737c" stroke="#66737C" stroke-width="3.57143" stroke-linecap="round" stroke-linejoin="round" fill="none"/><path d="M48.755 15.6713 41.79 15.6713C40.8283 15.6713 40.0488 16.4508 40.0488 17.4125L40.0488 50.4963 50.4963 50.4963 50.4963 17.4125C50.4963 16.4508 49.7167 15.6713 48.755 15.6713Z" class="MsftOfcResponsive_Stroke_66737c" stroke="#66737C" stroke-width="3.57143" stroke-linecap="round" stroke-linejoin="round" fill="none"/></svg>