<svg width="60" height="60" viewBox="-2.14 -2.14 60 60" xmlns="http://www.w3.org/2000/svg" xmlns:xlink="http://www.w3.org/1999/xlink" id="Analytics-Graph-Line-Spline--Streamline-Ultimate.svg" fill="none" overflow="hidden"><path d="M53.9625 53.9787 1.74125 53.9787 1.74125 1.74125" stroke="#66737C" stroke-width="3.57143" stroke-linecap="round" stroke-linejoin="round"/><path d="M53.9625 25.5383C47.229 26.9847 45.1193 15.0908 39.2239 14.5103 33.3285 13.9299 25.959 27.86 20.0635 27.86 14.1681 27.86 9.74647 14.5103 2.37715 16.2516 2.16737 16.3012 1.96716 16.3658 1.77586 16.4446" stroke="#66737C" stroke-width="3.57143" stroke-linecap="round" stroke-linejoin="round"/><path d="M1.74125 49.3354C8.99646 47.9545 19.7342 35.9858 25.5383 37.8271 31.3425 39.6685 38.3075 48.875 42.9508 47.9545 47.5942 47.0337 53.3983 35.9858 53.3983 35.9858" stroke="#66737C" stroke-width="3.57143" stroke-linecap="round" stroke-linejoin="round"/><path d="M53.9625 9.28667C52.4887 15.0908 46.5931 34.825 37.7498 33.6642 28.9068 32.5033 27.4328 5.80417 20.0635 5.80417 9.39323 5.80417 15.4586 31.102 1.77745 31.1883" stroke="#66737C" stroke-width="3.57143" stroke-linecap="round" stroke-linejoin="round"/></svg>