<svg width="60" height="60" viewBox="-2.14 -2.14 60 60" xmlns="http://www.w3.org/2000/svg" xmlns:xlink="http://www.w3.org/1999/xlink" id="Apple-Vision-Pro--Streamline-Ultimate.svg" fill="none" overflow="hidden"><path d="M2.13908 27.9362C2.13908 20.3985 7.87667 14.0996 15.3817 13.398L18.5205 13.1046C24.7332 12.5238 30.9868 12.5238 37.1996 13.1046L40.3313 13.3973C47.8403 14.0993 53.581 20.4015 53.581 27.9431L53.581 30.1037C53.581 35.206 50.2662 39.7165 45.3969 41.2405 40.9558 42.6302 36.1105 41.5335 32.7009 38.3667L30.3644 36.1964C28.9535 34.8861 26.7695 34.8893 25.3626 36.2038L23.0868 38.3298C19.6736 41.5184 14.8112 42.6293 10.3518 41.2393 5.46655 39.7165 2.13908 35.1939 2.13908 30.0767L2.13908 27.9362Z" stroke="#66737C" stroke-width="3.57143"/><path d="M40.0193 20.206 36.182 19.8438C30.6467 19.3213 25.0786 19.3213 19.5435 19.8438L15.7006 20.2066" stroke="#66737C" stroke-width="3.57143" stroke-linecap="round"/></svg>