<svg width="60" height="60" viewBox="-1.875 -1.875 60 60" xmlns="http://www.w3.org/2000/svg" xmlns:xlink="http://www.w3.org/1999/xlink" id="Module--Streamline-Ultimate" overflow="hidden"><path d="M4.25859 10.6031 25.5867 2.24062C27.2143 1.59609 29.0263 1.59609 30.6539 2.24062L51.982 10.6031C53.5366 11.266 54.5308 12.8088 54.4922 14.4984L54.4922 41.7516C54.5324 43.4389 53.5423 44.981 51.9914 45.6469L30.6633 54.0117C29.0348 54.6516 27.2246 54.6516 25.5961 54.0117L4.26797 45.6469C2.71338 44.984 1.71919 43.4412 1.75781 41.7516L1.75781 14.4984C1.71762 12.8111 2.70768 11.269 4.25859 10.6031Z" stroke="#66737C" stroke-width="3.33333" stroke-linecap="round" stroke-linejoin="round" fill="none"/><path d="M28.125 21.9211 2.5875 11.9086" stroke="#66737C" stroke-width="3.33333" stroke-linecap="round" stroke-linejoin="round" fill="none"/><path d="M28.125 21.9211 53.6625 11.9086" stroke="#66737C" stroke-width="3.33333" stroke-linecap="round" stroke-linejoin="round" fill="none"/><path d="M28.125 54.4922 28.125 21.9211" stroke="#66737C" stroke-width="3.33333" stroke-linecap="round" stroke-linejoin="round" fill="none"/></svg>