<svg width="60" height="60" viewBox="-1.875 -1.875 60 60" xmlns="http://www.w3.org/2000/svg" xmlns:xlink="http://www.w3.org/1999/xlink" id="Database-Share-1--Streamline-Ultimate" overflow="hidden"><path d="M1.75781 12.307C1.75781 18.1319 13.5628 22.8539 28.125 22.8539 42.6872 22.8539 54.4922 18.1319 54.4922 12.307 54.4922 6.48215 42.6872 1.76016 28.125 1.76016 13.5628 1.76016 1.75781 6.48215 1.75781 12.307Z" stroke="#66737C" stroke-width="3.33333" stroke-linecap="round" stroke-linejoin="round" fill="none"/><path d="M1.75781 12.307 1.75781 26.3695C1.75781 30.9562 9.07969 34.8609 19.3055 36.3117" stroke="#66737C" stroke-width="3.33333" stroke-linecap="round" stroke-linejoin="round" fill="none"/><path d="M1.75781 26.3695 1.75781 40.432C1.75781 45.5156 10.7508 49.7602 22.7227 50.7445" stroke="#66737C" stroke-width="3.33333" stroke-linecap="round" stroke-linejoin="round" fill="none"/><path d="M26.3648 42.1898C26.3648 45.1023 28.7258 47.4633 31.6383 47.4633 34.5507 47.4633 36.9117 45.1023 36.9117 42.1898 36.9117 39.2774 34.5507 36.9164 31.6383 36.9164 28.7258 36.9164 26.3648 39.2774 26.3648 42.1898Z" stroke="#66737C" stroke-width="3.33333" stroke-linecap="round" stroke-linejoin="round" fill="none"/><path d="M43.943 49.2211C43.943 52.1335 46.304 54.4945 49.2164 54.4945 52.1288 54.4945 54.4898 52.1335 54.4898 49.2211 54.4898 46.3087 52.1288 43.9477 49.2164 43.9477 46.304 43.9477 43.943 46.3087 43.943 49.2211Z" stroke="#66737C" stroke-width="3.33333" stroke-linecap="round" stroke-linejoin="round" fill="none"/><path d="M43.943 31.643C43.943 34.5554 46.304 36.9164 49.2164 36.9164 52.1288 36.9164 54.4898 34.5554 54.4898 31.643 54.4898 28.7305 52.1288 26.3695 49.2164 26.3695 46.304 26.3695 43.943 28.7305 43.943 31.643Z" stroke="#66737C" stroke-width="3.33333" stroke-linecap="round" stroke-linejoin="round" fill="none"/><path d="M36.1477 39.4828 44.7023 34.35" stroke="#66737C" stroke-width="3.33333" stroke-linecap="round" stroke-linejoin="round" fill="none"/><path d="M36.532 44.1469 44.3227 47.2641" stroke="#66737C" stroke-width="3.33333" stroke-linecap="round" stroke-linejoin="round" fill="none"/></svg>