<svg width="60" height="60" viewBox="-1.875 -1.875 60 60" xmlns="http://www.w3.org/2000/svg" xmlns:xlink="http://www.w3.org/1999/xlink" id="Cloud-Endure-Migration-Mass--Streamline-Ultimate" fill="none" overflow="hidden"><path d="M4.68764 51.5625 22.2658 33.9844" stroke="#66737C" stroke-width="3.33333" stroke-linecap="round" stroke-linejoin="round" stroke-miterlimit="10"/><path d="M14.0626 33.9844 22.2658 33.9844 22.2658 41.0156" stroke="#66737C" stroke-width="3.33333" stroke-linecap="round" stroke-linejoin="round" stroke-miterlimit="10"/><path d="M19.922 51.5625 42.1877 29.2969" stroke="#66737C" stroke-width="3.33333" stroke-linecap="round" stroke-linejoin="round" stroke-miterlimit="10"/><path d="M30.469 29.2969 42.1877 29.2969 42.1877 41.0156" stroke="#66737C" stroke-width="3.33333" stroke-linecap="round" stroke-linejoin="round" stroke-miterlimit="10"/><path d="M49.5921 37.7344C52.6256 35.625 54.4922 32.3438 54.4922 28.3594 54.4922 22.0312 49.3587 16.875 43.0587 16.875 40.7252 16.875 38.3918 17.5781 36.5252 18.9844 34.8919 10.7812 27.8918 4.6875 19.2582 4.6875 9.69131 4.6875 1.75781 12.6562 1.75781 22.2656 1.75781 27.1875 3.85784 31.6406 7.12455 34.9219" stroke="#66737C" stroke-width="3.33333" stroke-linecap="round" stroke-linejoin="round" stroke-miterlimit="10"/></svg>