<svg width="60" height="60" viewBox="-1.875 -1.875 60 60" xmlns="http://www.w3.org/2000/svg" xmlns:xlink="http://www.w3.org/1999/xlink" id="Programming-Monitor--Streamline-Ultimate" overflow="hidden"><defs></defs><path d="M35.1562 54.4922 21.0938 54.4922 22.8516 43.9453 33.3984 43.9453 35.1562 54.4922Z" stroke="#66737C" stroke-width="3.33333" stroke-linecap="round" stroke-linejoin="round" fill="none"/><path d="M15.8203 54.4922 40.4297 54.4922" stroke="#66737C" stroke-width="3.33333" stroke-linecap="round" stroke-linejoin="round" fill="none"/><path d="M8.78906 1.75781 47.4609 1.75781C47.4609 1.75781 54.4922 1.75781 54.4922 8.78906L54.4922 36.9141C54.4922 36.9141 54.4922 43.9453 47.4609 43.9453L8.78906 43.9453C8.78906 43.9453 1.75781 43.9453 1.75781 36.9141L1.75781 8.78906C1.75781 8.78906 1.75781 1.75781 8.78906 1.75781" stroke="#66737C" stroke-width="3.33333" stroke-linecap="round" stroke-linejoin="round" fill="none"/><path d="M12.3047 12.3047 12.3047 19.3359" stroke="#66737C" stroke-width="3.33333" stroke-linecap="round" stroke-linejoin="round" fill="none"/><path d="M33.3984 12.3047 33.3984 19.3359" stroke="#66737C" stroke-width="3.33333" stroke-linecap="round" stroke-linejoin="round" fill="none"/><path d="M43.9453 12.3047 43.9453 19.3359" stroke="#66737C" stroke-width="3.33333" stroke-linecap="round" stroke-linejoin="round" fill="none"/><path d="M43.9453 26.3672 43.9453 33.3984" stroke="#66737C" stroke-width="3.33333" stroke-linecap="round" stroke-linejoin="round" fill="none"/><path d="M22.8516 26.3672 22.8516 33.3984" stroke="#66737C" stroke-width="3.33333" stroke-linecap="round" stroke-linejoin="round" fill="none"/><path d="M12.3047 26.3672 12.3047 33.3984" stroke="#66737C" stroke-width="3.33333" stroke-linecap="round" stroke-linejoin="round" fill="none"/><path d="M19.3359 15.8203C19.3359 17.7619 20.9099 19.3359 22.8516 19.3359 24.7932 19.3359 26.3672 17.7619 26.3672 15.8203 26.3672 13.8787 24.7932 12.3047 22.8516 12.3047 20.9099 12.3047 19.3359 13.8787 19.3359 15.8203" stroke="#66737C" stroke-width="3.33333" stroke-linecap="round" stroke-linejoin="round" fill="none"/><path d="M29.8828 29.8828C29.8828 31.8244 31.4568 33.3984 33.3984 33.3984 35.3401 33.3984 36.9141 31.8244 36.9141 29.8828 36.9141 27.9412 35.3401 26.3672 33.3984 26.3672 31.4568 26.3672 29.8828 27.9412 29.8828 29.8828" stroke="#66737C" stroke-width="3.33333" stroke-linecap="round" stroke-linejoin="round" fill="none"/></svg>