<svg width="60" height="60" viewBox="-1.875 -1.875 60 60" xmlns="http://www.w3.org/2000/svg" xmlns:xlink="http://www.w3.org/1999/xlink" id="Data-Lake-Code--Streamline-Ultimate" fill="none" overflow="hidden"><path d="M1.75781 54.4922C5.25787 54.4922 8.75796 54.4922 12.258 50.9766 15.7581 54.4922 19.2581 54.4922 20.1915 54.4922 21.1249 54.4922 24.6248 54.4922 28.125 50.9766 31.6252 54.4922 35.1251 54.4922 36.0586 54.4922 36.9919 54.4922 40.4918 54.4922 43.992 50.9766 47.4921 54.4922 50.992 54.4922 54.4922 54.4922" stroke="#66737C" stroke-width="3.33333" stroke-linecap="round" stroke-linejoin="round" stroke-miterlimit="10"/><path d="M1.75781 45.8203C5.25787 45.8203 8.75796 45.8203 12.258 42.3047 15.7581 45.8203 19.2581 45.8203 20.1915 45.8203 21.1249 45.8203 24.6248 45.8203 28.125 42.3047 31.6252 45.8203 35.1251 45.8203 36.0586 45.8203 36.9919 45.8203 40.4918 45.8203 43.992 42.3047 47.4921 45.8203 50.992 45.8203 54.4922 45.8203" stroke="#66737C" stroke-width="3.33333" stroke-linecap="round" stroke-linejoin="round" stroke-miterlimit="10"/><path d="M5.33595 4.47141 5.33595 14.0313" stroke="#66737C" stroke-width="3.33333" stroke-linecap="round" stroke-linejoin="round"/><path d="M2.14933 6.86135 2.94598 6.86135C4.26593 6.86135 5.33595 5.79134 5.33595 4.47138L5.33595 4.47138" stroke="#66737C" stroke-width="3.33333" stroke-linecap="round" stroke-linejoin="round"/><path d="M8.52255 14.0313 2.14931 14.0313" stroke="#66737C" stroke-width="3.33333" stroke-linecap="round" stroke-linejoin="round"/><path d="M16.5347 22.338 16.5347 31.898" stroke="#66737C" stroke-width="3.33333" stroke-linecap="round" stroke-linejoin="round"/><path d="M13.3481 24.728 14.1447 24.728C15.4647 24.728 16.5347 23.658 16.5347 22.338L16.5347 22.338" stroke="#66737C" stroke-width="3.33333" stroke-linecap="round" stroke-linejoin="round"/><path d="M19.7213 31.898 13.3481 31.898" stroke="#66737C" stroke-width="3.33333" stroke-linecap="round" stroke-linejoin="round"/><path d="M28.0671 22.338 28.0671 31.898" stroke="#66737C" stroke-width="3.33333" stroke-linecap="round" stroke-linejoin="round"/><path d="M24.8805 24.728 25.6772 24.728C26.9972 24.728 28.0671 23.658 28.0671 22.338L28.0671 22.338" stroke="#66737C" stroke-width="3.33333" stroke-linecap="round" stroke-linejoin="round"/><path d="M31.2539 31.898 24.8805 31.898" stroke="#66737C" stroke-width="3.33333" stroke-linecap="round" stroke-linejoin="round"/><path d="M39.3237 4.47141 39.3237 14.0313" stroke="#66737C" stroke-width="3.33333" stroke-linecap="round" stroke-linejoin="round"/><path d="M36.1371 6.86135 36.9338 6.86135C38.2537 6.86135 39.3237 5.79134 39.3237 4.47138L39.3237 4.47138" stroke="#66737C" stroke-width="3.33333" stroke-linecap="round" stroke-linejoin="round"/><path d="M42.5105 14.0313 36.1371 14.0313" stroke="#66737C" stroke-width="3.33333" stroke-linecap="round" stroke-linejoin="round"/><path d="M13.2101 7.65802 13.2101 10.8446C13.2101 12.6046 14.6368 14.0313 16.3967 14.0313 18.1566 14.0313 19.5833 12.6046 19.5833 10.8446L19.5833 7.65802C19.5833 5.89809 18.1566 4.47138 16.3967 4.47138 14.6368 4.47138 13.2101 5.89809 13.2101 7.65802Z" stroke="#66737C" stroke-width="3.33333" stroke-linecap="round" stroke-linejoin="round"/><path d="M2.14934 25.5246 2.14934 28.7112C2.14934 30.4711 3.57605 31.898 5.33597 31.898 7.09589 31.898 8.52258 30.4711 8.52258 28.7112L8.52258 25.5246C8.52258 23.7647 7.09589 22.338 5.33597 22.338 3.57605 22.338 2.14934 23.7647 2.14934 25.5246Z" stroke="#66737C" stroke-width="3.33333" stroke-linecap="round" stroke-linejoin="round"/><path d="M36.1371 25.5246 36.1371 28.7112C36.1371 30.4711 37.5638 31.898 39.3237 31.898 41.0836 31.898 42.5105 30.4711 42.5105 28.7112L42.5105 25.5246C42.5105 23.7647 41.0836 22.338 39.3237 22.338 37.5638 22.338 36.1371 23.7647 36.1371 25.5246Z" stroke="#66737C" stroke-width="3.33333" stroke-linecap="round" stroke-linejoin="round"/><path d="M47.7274 25.5246 47.7274 28.7112C47.7274 30.4711 49.1541 31.898 50.914 31.898 52.6739 31.898 54.1008 30.4711 54.1008 28.7112L54.1008 25.5246C54.1008 23.7647 52.6739 22.338 50.914 22.338 49.1541 22.338 47.7274 23.7647 47.7274 25.5246Z" stroke="#66737C" stroke-width="3.33333" stroke-linecap="round" stroke-linejoin="round"/><path d="M24.6045 7.65802 24.6045 10.8446C24.6045 12.6046 26.0311 14.0313 27.7913 14.0313 29.5512 14.0313 30.9778 12.6046 30.9778 10.8446L30.9778 7.65802C30.9778 5.89809 29.5512 4.47138 27.7913 4.47138 26.0311 4.47138 24.6045 5.89809 24.6045 7.65802Z" stroke="#66737C" stroke-width="3.33333" stroke-linecap="round" stroke-linejoin="round"/><path d="M47.7274 7.65802 47.7274 10.8446C47.7274 12.6046 49.1541 14.0313 50.914 14.0313 52.6739 14.0313 54.1008 12.6046 54.1008 10.8446L54.1008 7.65802C54.1008 5.89809 52.6739 4.47138 50.914 4.47138 49.1541 4.47138 47.7274 5.89809 47.7274 7.65802Z" stroke="#66737C" stroke-width="3.33333" stroke-linecap="round" stroke-linejoin="round"/></svg>