<svg width="60" height="60" viewBox="-1.875 -1.875 60 60" xmlns="http://www.w3.org/2000/svg" xmlns:xlink="http://www.w3.org/1999/xlink" id="Amazon-Redshift-Data-Warehousing-Connecting--Streamline-Ultimate" fill="none" overflow="hidden"><style>
.MsftOfcResponsive_Stroke_66737c {
 stroke:#66737C; 
}
</style>
<path d="M20.0391 17.6953C30.1355 17.6953 38.3203 14.1276 38.3203 9.72656 38.3203 5.32554 30.1355 1.75781 20.0391 1.75781 9.94261 1.75781 1.75781 5.32554 1.75781 9.72656 1.75781 14.1276 9.94261 17.6953 20.0391 17.6953Z" class="MsftOfcResponsive_Stroke_66737c" stroke="#66737C" stroke-width="3.33333" stroke-linecap="round" stroke-linejoin="round" stroke-miterlimit="10"/><path d="M1.75781 9.72661 1.75781 21.9141C1.75781 26.3672 9.96094 29.8828 20.0391 29.8828 30.1172 29.8828 38.3203 26.3672 38.3203 21.9141L38.3203 9.72661" class="MsftOfcResponsive_Stroke_66737c" stroke="#66737C" stroke-width="3.33333" stroke-linecap="round" stroke-linejoin="round" stroke-miterlimit="10"/><path d="M38.3203 31.0547 38.3203 21.914" class="MsftOfcResponsive_Stroke_66737c" stroke="#66737C" stroke-width="3.33333" stroke-linecap="round" stroke-linejoin="round" stroke-miterlimit="10"/><path d="M1.75781 21.914 1.75781 34.1016C1.75781 38.5547 9.96094 42.0703 20.0391 42.0703" class="MsftOfcResponsive_Stroke_66737c" stroke="#66737C" stroke-width="3.33333" stroke-linecap="round" stroke-linejoin="round" stroke-miterlimit="10"/><path d="M35.0391 45.1172C36.9806 45.1172 38.5547 43.5431 38.5547 41.6016 38.5547 39.66 36.9806 38.0859 35.0391 38.0859 33.0975 38.0859 31.5234 39.66 31.5234 41.6016 31.5234 43.5431 33.0975 45.1172 35.0391 45.1172Z" class="MsftOfcResponsive_Stroke_66737c" stroke="#66737C" stroke-width="3.33333" stroke-linecap="round" stroke-linejoin="round" stroke-miterlimit="10"/><path d="M44.4141 54.4922C46.3556 54.4922 47.9297 52.9181 47.9297 50.9766 47.9297 49.035 46.3556 47.4609 44.4141 47.4609 42.4725 47.4609 40.8984 49.035 40.8984 50.9766 40.8984 52.9181 42.4725 54.4922 44.4141 54.4922Z" class="MsftOfcResponsive_Stroke_66737c" stroke="#66737C" stroke-width="3.33333" stroke-linecap="round" stroke-linejoin="round" stroke-miterlimit="10"/><path d="M50.9768 42.7734C52.9184 42.7734 54.4924 41.1994 54.4924 39.2578 54.4924 37.3162 52.9184 35.7422 50.9768 35.7422 49.035 35.7422 47.4612 37.3162 47.4612 39.2578 47.4612 41.1994 49.035 42.7734 50.9768 42.7734Z" class="MsftOfcResponsive_Stroke_66737c" stroke="#66737C" stroke-width="3.33333" stroke-linecap="round" stroke-linejoin="round" stroke-miterlimit="10"/><path d="M48.8672 42.0703 46.5234 48.1638" class="MsftOfcResponsive_Stroke_66737c" stroke="#66737C" stroke-width="3.33333" stroke-linecap="round" stroke-linejoin="round" stroke-miterlimit="10"/><path d="M37.6172 43.9453 41.8359 48.6328" class="MsftOfcResponsive_Stroke_66737c" stroke="#66737C" stroke-width="3.33333" stroke-linecap="round" stroke-linejoin="round" stroke-miterlimit="10"/><path d="M25.6641 54.4922C27.6056 54.4922 29.1797 52.9181 29.1797 50.9766 29.1797 49.035 27.6056 47.4609 25.6641 47.4609 23.7225 47.4609 22.1485 49.035 22.1485 50.9766 22.1485 52.9181 23.7225 54.4922 25.6641 54.4922Z" class="MsftOfcResponsive_Stroke_66737c" stroke="#66737C" stroke-width="3.33333" stroke-linecap="round" stroke-linejoin="round" stroke-miterlimit="10"/><path d="M32.4609 43.9453 28.2422 48.6328" class="MsftOfcResponsive_Stroke_66737c" stroke="#66737C" stroke-width="3.33333" stroke-linecap="round" stroke-linejoin="round" stroke-miterlimit="10"/></svg>