<svg width="60" height="60" viewBox="-1.875 -1.875 60 60" xmlns="http://www.w3.org/2000/svg" xmlns:xlink="http://www.w3.org/1999/xlink" id="Server-Share--Streamline-Ultimate" fill="none" overflow="hidden"><path d="M40.2867 22.8521 12.307 22.8521C9.50977 22.8521 6.82713 21.741 4.84922 19.763 2.87128 17.7851 1.7601 15.1025 1.7601 12.3053 1.7601 9.50805 2.87128 6.82542 4.84922 4.84748 6.82713 2.86957 9.50977 1.75838 12.307 1.75838L40.432 1.75838C42.458 1.75825 44.441 2.34162 46.1442 3.43875 47.8474 4.53586 49.1986 6.10031 50.036 7.94501 50.8737 9.7897 51.1622 11.8366 50.8671 13.8409 50.572 15.8453 49.706 17.7223 48.3727 19.2474" stroke="#66737C" stroke-width="3.33333" stroke-linecap="round" stroke-linejoin="round"/><path d="M19.3382 43.9458 12.307 43.9458C9.50977 43.9458 6.82713 42.8346 4.84922 40.8567 2.87128 38.8788 1.7601 36.1962 1.7601 33.3989 1.7601 30.6019 2.87128 27.9192 4.84922 25.9413 6.82713 23.9634 9.50977 22.8521 12.307 22.8521L38.6719 22.8521" stroke="#66737C" stroke-width="3.33333" stroke-linecap="round" stroke-linejoin="round"/><path d="M24.6117 12.3053 40.432 12.3053" stroke="#66737C" stroke-width="3.33333" stroke-linecap="round" stroke-linejoin="round"/><path d="M31.643 47.4614C34.5553 47.4614 36.9164 45.1005 36.9164 42.188 36.9164 39.2756 34.5553 36.9145 31.643 36.9145 28.7304 36.9145 26.3695 39.2756 26.3695 42.188 26.3695 45.1005 28.7304 47.4614 31.643 47.4614Z" stroke="#66737C" stroke-width="3.33333" stroke-linecap="round" stroke-linejoin="round"/><path d="M49.2211 54.4927C52.1334 54.4927 54.4945 52.1318 54.4945 49.2192 54.4945 46.3069 52.1334 43.9458 49.2211 43.9458 46.3085 43.9458 43.9477 46.3069 43.9477 49.2192 43.9477 52.1318 46.3085 54.4927 49.2211 54.4927Z" stroke="#66737C" stroke-width="3.33333" stroke-linecap="round" stroke-linejoin="round"/><path d="M49.2211 36.9145C52.1334 36.9145 54.4945 34.5537 54.4945 31.6411 54.4945 28.7288 52.1334 26.3677 49.2211 26.3677 46.3085 26.3677 43.9477 28.7288 43.9477 31.6411 43.9477 34.5537 46.3085 36.9145 49.2211 36.9145Z" stroke="#66737C" stroke-width="3.33333" stroke-linecap="round" stroke-linejoin="round"/><path d="M36.1547 39.4812 44.7094 34.3484" stroke="#66737C" stroke-width="3.33333" stroke-linecap="round" stroke-linejoin="round"/><path d="M36.5367 44.145 44.3273 47.2622" stroke="#66737C" stroke-width="3.33333" stroke-linecap="round" stroke-linejoin="round"/><path d="M12.307 13.1842C11.8216 13.1842 11.4281 12.7907 11.4281 12.3053 11.4281 11.8199 11.8216 11.4263 12.307 11.4263" stroke="#66737C" stroke-width="3.33333"/><path d="M12.307 13.1842C12.7924 13.1842 13.1859 12.7907 13.1859 12.3053 13.1859 11.8199 12.7924 11.4263 12.307 11.4263" stroke="#66737C" stroke-width="3.33333"/><g><path d="M12.307 34.2778C11.8216 34.2778 11.4281 33.8845 11.4281 33.3989 11.4281 32.9135 11.8216 32.52 12.307 32.52" stroke="#66737C" stroke-width="3.33333"/><path d="M12.307 34.2778C12.7924 34.2778 13.1859 33.8845 13.1859 33.3989 13.1859 32.9135 12.7924 32.52 12.307 32.52" stroke="#66737C" stroke-width="3.33333"/></g></svg>