<svg width="60" height="60" viewBox="-1.875 -1.875 60 60" xmlns="http://www.w3.org/2000/svg" xmlns:xlink="http://www.w3.org/1999/xlink" id="Amazon-Managed-Workflows-For-Apache-Airflow--Streamline-Ultimate" fill="none" overflow="hidden"><path d="M8.0861 15.8203C11.3222 15.8203 13.9455 13.197 13.9455 9.96094 13.9455 6.7249 11.3222 4.10156 8.0861 4.10156 4.85006 4.10156 2.22673 6.7249 2.22673 9.96094 2.22673 13.197 4.85006 15.8203 8.0861 15.8203Z" stroke="#66737C" stroke-width="3.33333" stroke-linecap="round" stroke-linejoin="round" stroke-miterlimit="10"/><path d="M49.3359 15.1179C52.1836 15.1179 54.4922 12.8093 54.4922 9.96162 54.4922 7.11389 52.1836 4.80537 49.3359 4.80537 46.488 4.80537 44.1797 7.11389 44.1797 9.96162 44.1797 12.8093 46.488 15.1179 49.3359 15.1179Z" stroke="#66737C" stroke-width="3.33333" stroke-linecap="round" stroke-linejoin="round" stroke-miterlimit="10"/><path d="M49.3359 32.696C52.1836 32.696 54.4922 30.3874 54.4922 27.5398 54.4922 24.6921 52.1836 22.3835 49.3359 22.3835 46.488 22.3835 44.1797 24.6921 44.1797 27.5398 44.1797 30.3874 46.488 32.696 49.3359 32.696Z" stroke="#66737C" stroke-width="3.33333" stroke-linecap="round" stroke-linejoin="round" stroke-miterlimit="10"/><path d="M49.3359 50.2741C52.1836 50.2741 54.4922 47.9655 54.4922 45.1179 54.4922 42.2702 52.1836 39.9616 49.3359 39.9616 46.488 39.9616 44.1797 42.2702 44.1797 45.1179 44.1797 47.9655 46.488 50.2741 49.3359 50.2741Z" stroke="#66737C" stroke-width="3.33333" stroke-linecap="round" stroke-linejoin="round" stroke-miterlimit="10"/><path d="M14.6485 50.9766 8.08594 40.4297 1.75781 50.9766 14.6485 50.9766Z" stroke="#66737C" stroke-width="3.33333" stroke-linecap="round" stroke-linejoin="round" stroke-miterlimit="10"/><path d="M2.86413 33.3984 13.4111 33.3984 13.4111 22.8516 2.86413 22.8516 2.86413 33.3984Z" stroke="#66737C" stroke-width="3.33333" stroke-linecap="round" stroke-linejoin="round" stroke-miterlimit="10"/><path d="M39.258 1.75781 33.3987 1.75781 33.3987 54.4922 39.258 54.4922" stroke="#66737C" stroke-width="3.33333" stroke-linecap="round" stroke-linejoin="round" stroke-miterlimit="10"/><path d="M20.508 28.125 33.3987 28.125" stroke="#66737C" stroke-width="3.33333" stroke-linecap="round" stroke-linejoin="round" stroke-miterlimit="10"/></svg>