<svg width="60" height="60" viewBox="-1.875 -1.875 60 60" xmlns="http://www.w3.org/2000/svg" xmlns:xlink="http://www.w3.org/1999/xlink" id="Calendar-Favorite--Streamline-Ultimate" overflow="hidden"><g><g><path d="M1.75781 22.8516 54.4922 22.8516" stroke="#66737C" stroke-width="3.33333" stroke-linejoin="round" fill="none"/><path d="M15.8203 14.0625 15.8203 1.75781" stroke="#66737C" stroke-width="3.33333" stroke-linecap="round" stroke-linejoin="round" fill="none"/><path d="M40.4297 14.0625 40.4297 1.75781" stroke="#66737C" stroke-width="3.33333" stroke-linecap="round" stroke-linejoin="round" fill="none"/><path d="M42.1875 54.4922 50.9766 54.4922C52.9182 54.4922 54.4922 52.9182 54.4922 50.9766L54.4922 12.3047C54.4922 10.3631 52.9182 8.78906 50.9766 8.78906L5.27344 8.78906C3.33181 8.78906 1.75781 10.3631 1.75781 12.3047L1.75781 50.9766C1.75781 52.9182 3.33181 54.4922 5.27344 54.4922L14.0625 54.4922" stroke="#66737C" stroke-width="3.33333" stroke-linecap="round" stroke-linejoin="round" fill="none"/></g><path d="M27.0469 30.4688C27.3608 29.8733 28.0979 29.6451 28.6933 29.959 28.9108 30.0736 29.0885 30.2513 29.2031 30.4688L31.7109 35.5078C31.8857 35.8565 32.2168 36.1004 32.6016 36.1641L38.2266 36.9609C38.677 37.0289 39.0497 37.347 39.1875 37.7812 39.3386 38.2002 39.2284 38.6689 38.9062 38.9766L34.8281 42.9375C34.545 43.2002 34.4129 43.5877 34.4766 43.9688L35.4375 49.5234C35.5076 49.9637 35.3269 50.4064 34.9688 50.6719 34.5831 50.9193 34.0887 50.9193 33.7031 50.6719L28.6875 48.0703C28.3359 47.8828 27.9141 47.8828 27.5625 48.0703L22.5469 50.8359C22.1613 51.0833 21.6669 51.0833 21.2812 50.8359 20.9231 50.5705 20.7424 50.1278 20.8125 49.6875L21.7734 44.1328C21.8371 43.7518 21.705 43.3643 21.4219 43.1016L17.3438 39.0469C17.0101 38.746 16.898 38.2697 17.0625 37.8516 17.2003 37.4173 17.573 37.0992 18.0234 37.0312L23.6484 36.2344C24.0332 36.1707 24.3643 35.9268 24.5391 35.5781Z" stroke="#66737C" stroke-width="3.33333" stroke-linecap="round" stroke-linejoin="round" fill="none"/></g></svg>