<svg width="60" height="60" viewBox="-1.875 -1.875 60 60" xmlns="http://www.w3.org/2000/svg" xmlns:xlink="http://www.w3.org/1999/xlink" id="Strategy-Split--Streamline-Ultimate" overflow="hidden"><path d="M22.6195 14.0625C21.9037 14.0621 21.3237 13.4816 21.3241 12.7657 21.3242 12.5343 21.3863 12.3071 21.5039 12.1078L27.0094 2.34375C27.3737 1.72761 28.1686 1.52349 28.7847 1.88785 28.9727 1.99899 29.1295 2.15581 29.2406 2.34375L34.7484 12.1055C35.1122 12.7235 34.906 13.5193 34.288 13.8831 34.0887 14.0004 33.8617 14.0623 33.6305 14.0625Z" stroke="#66737C" stroke-width="3.33333" stroke-linecap="round" stroke-linejoin="round" fill="none"/><path d="M15.0281 25.6406C15.3015 24.9763 14.9845 24.2161 14.3202 23.9427 14.1075 23.8552 13.8755 23.8256 13.6477 23.857L2.86641 25.3734C2.15731 25.4713 1.66181 26.1255 1.75966 26.8345 1.79005 27.0548 1.87658 27.2635 2.01094 27.4406L8.55469 36.1289C8.98831 36.7017 9.80416 36.8145 10.3769 36.3809 10.5609 36.2416 10.7044 36.056 10.793 35.843L12.9023 30.743Z" stroke="#66737C" stroke-width="3.33333" stroke-linecap="round" stroke-linejoin="round" fill="none"/><path d="M12.6094 31.4813C22.3336 34.5281 28.125 40.3875 28.125 51.4477L28.125 54.4945" stroke="#66737C" stroke-width="3.33333" stroke-linecap="round" stroke-linejoin="round" fill="none"/><path d="M41.2219 25.6406C40.9485 24.9763 41.2655 24.2161 41.9298 23.9427 42.1425 23.8552 42.3745 23.8256 42.6023 23.857L53.3836 25.3734C54.0927 25.4713 54.5882 26.1255 54.4903 26.8345 54.4599 27.0548 54.3734 27.2635 54.2391 27.4406L47.6953 36.1289C47.2617 36.7017 46.4458 36.8145 45.8731 36.3809 45.6891 36.2416 45.5456 36.056 45.457 35.843L43.3477 30.743Z" stroke="#66737C" stroke-width="3.33333" stroke-linecap="round" stroke-linejoin="round" fill="none"/><path d="M43.6406 31.4813C33.9164 34.5281 28.125 40.3875 28.125 51.4477L28.125 54.4945" stroke="#66737C" stroke-width="3.33333" stroke-linecap="round" stroke-linejoin="round" fill="none"/><path d="M28.125 14.0625 28.125 51.4477" stroke="#66737C" stroke-width="3.33333" stroke-linecap="round" stroke-linejoin="round" fill="none"/></svg>