<svg width="60" height="60" viewBox="-2.14 -2.14 60 60" xmlns="http://www.w3.org/2000/svg" xmlns:xlink="http://www.w3.org/1999/xlink" id="Accounting-Coins--Streamline-Ultimate.svg" overflow="hidden"><path d="M19.7435 18.5733C19.7435 28.19 27.5393 35.9858 37.156 35.9858 46.7726 35.9858 54.5685 28.19 54.5685 18.5733 54.5685 8.95667 46.7726 1.16083 37.156 1.16083 27.5393 1.16083 19.7435 8.95667 19.7435 18.5733Z" stroke="#66737C" stroke-width="3.57143" stroke-linecap="round" stroke-linejoin="round" fill="none"/><path d="M19.8038 19.7945C10.2115 19.1111 1.88129 26.3331 1.19782 35.9255 0.514352 45.5178 7.73642 53.848 17.3288 54.5315 26.9211 55.2149 35.2513 47.9929 35.9348 38.4005 35.9935 37.5766 35.9935 36.7494 35.9348 35.9255" stroke="#66737C" stroke-width="3.57143" stroke-linecap="round" stroke-linejoin="round" fill="none"/><path d="M17.4218 31.3425 17.4218 29.0208" stroke="#66737C" stroke-width="3.57143" stroke-linecap="round" stroke-linejoin="round" fill="none"/><path d="M20.895 31.3425 16.1843 31.3425C14.4636 31.3437 13.0696 32.7396 13.0708 34.4604 13.0717 35.7313 13.8445 36.8743 15.0235 37.3487L19.8154 39.2663C21.4118 39.9087 22.1852 41.7235 21.5429 43.3198 21.0685 44.4989 19.9255 45.2716 18.6546 45.2725L13.93 45.2725" stroke="#66737C" stroke-width="3.57143" stroke-linecap="round" stroke-linejoin="round" fill="none"/><path d="M17.4218 47.5942 17.4218 45.2725" stroke="#66737C" stroke-width="3.57143" stroke-linecap="round" stroke-linejoin="round" fill="none"/><path d="M37.156 11.6083 37.156 9.28667" stroke="#66737C" stroke-width="3.57143" stroke-linecap="round" stroke-linejoin="round" fill="none"/><path d="M40.6292 11.6083 35.9185 11.6083C34.1978 11.6095 32.8038 13.0054 32.805 14.7262 32.8059 15.9971 33.5786 17.1401 34.7577 17.6145L39.5496 19.5322C41.146 20.1745 41.9194 21.9893 41.2771 23.5857 40.8027 24.7647 39.6597 25.5374 38.3888 25.5383L33.6642 25.5383" stroke="#66737C" stroke-width="3.57143" stroke-linecap="round" stroke-linejoin="round" fill="none"/><path d="M37.156 27.86 37.156 25.5383" stroke="#66737C" stroke-width="3.57143" stroke-linecap="round" stroke-linejoin="round" fill="none"/></svg>