<svg width="60" height="60" viewBox="-2.14 -2.14 60 60" xmlns="http://www.w3.org/2000/svg" xmlns:xlink="http://www.w3.org/1999/xlink" id="Saving-Bank-Cash--Streamline-Ultimate.svg" fill="none" overflow="hidden"><path d="M1.74125 10.7985 1.74125 22.3372C1.74125 23.4783 2.66636 24.4035 3.80753 24.4035L24.0525 24.4035C25.1936 24.4035 26.1187 23.4783 26.1187 22.3372L26.1187 10.7985C26.1187 9.6573 25.1936 8.73218 24.0525 8.73218L3.80753 8.73218C2.66636 8.73218 1.74125 9.6573 1.74125 10.7985Z" stroke="#66737C" stroke-width="3.57143" stroke-linecap="round" stroke-linejoin="round"/><path d="M10.2851 8.73225 10.9816 4.08892C11.0852 3.3725 11.4681 2.72617 12.0466 2.29115 12.6252 1.85614 13.3524 1.66778 14.0694 1.76725L29.7872 4.08892C30.1436 4.13141 30.4877 4.24528 30.799 4.4238 31.1103 4.60229 31.3824 4.84174 31.5993 5.12782 31.8159 5.41387 31.9728 5.74072 32.0604 6.08876 32.1479 6.43682 32.1644 6.79895 32.1089 7.15352L30.8784 15.349C30.7918 16.0115 30.46 16.6174 29.9486 17.0473 29.4371 17.4771 28.7831 17.6995 28.1156 17.6707L26.1654 17.3921" stroke="#66737C" stroke-width="3.57143" stroke-linecap="round" stroke-linejoin="round"/><path d="M13.93 17.4384C13.4492 17.4384 13.0594 17.0486 13.0594 16.5678 13.0594 16.087 13.4492 15.6972 13.93 15.6972" stroke="#66737C" stroke-width="3.57143"/><path d="M13.93 17.4384C14.4108 17.4384 14.8006 17.0486 14.8006 16.5678 14.8006 16.087 14.4108 15.6972 13.93 15.6972" stroke="#66737C" stroke-width="3.57143"/><g><path d="M12.1423 53.9787 53.9323 53.9787" stroke="#66737C" stroke-width="3.57143" stroke-linecap="round" stroke-linejoin="round"/><path d="M36.1251 15.2534 53.3519 26.7224C53.5441 26.8489 53.702 27.0214 53.8114 27.2239 53.9207 27.4265 53.9783 27.6529 53.9787 27.8832L53.9787 29.9495C53.9787 30.3189 53.832 30.6732 53.5706 30.9346 53.3094 31.1958 52.9551 31.3425 52.5858 31.3425L12.1423 31.3425" stroke="#66737C" stroke-width="3.57143" stroke-linecap="round" stroke-linejoin="round"/><path d="M48.7086 53.9787 48.7086 31.3425" stroke="#66737C" stroke-width="3.57143" stroke-linecap="round" stroke-linejoin="round"/><path d="M38.2611 53.9787 38.2611 31.3425" stroke="#66737C" stroke-width="3.57143" stroke-linecap="round" stroke-linejoin="round"/><path d="M27.8136 53.9787 27.8136 31.3425" stroke="#66737C" stroke-width="3.57143" stroke-linecap="round" stroke-linejoin="round"/><path d="M17.366 53.9787 17.366 31.3425" stroke="#66737C" stroke-width="3.57143" stroke-linecap="round" stroke-linejoin="round"/></g></svg>