<svg width="60" height="60" viewBox="-1.875 -1.875 60 60" xmlns="http://www.w3.org/2000/svg" xmlns:xlink="http://www.w3.org/1999/xlink" id="Crypto-Currency-Bitcoin--Streamline-Ultimate" overflow="hidden"><path d="M14.0625 24.6094C14.0625 32.3759 20.3585 38.6719 28.125 38.6719 35.8915 38.6719 42.1875 32.3759 42.1875 24.6094 42.1875 16.8429 35.8915 10.5469 28.125 10.5469 20.3585 10.5469 14.0625 16.8429 14.0625 24.6094Z" stroke="#66737C" stroke-width="3.33333" stroke-linecap="round" stroke-linejoin="round" fill="none"/><path d="M24.6094 31.6406 24.6094 17.5781 29.8828 17.5781C31.8244 17.5781 33.3984 19.1521 33.3984 21.0938 33.3984 23.0354 31.8244 24.6094 29.8828 24.6094 31.8244 24.6094 33.3984 26.1834 33.3984 28.125 33.3984 30.0666 31.8244 31.6406 29.8828 31.6406Z" stroke="#66737C" stroke-width="3.33333" stroke-linecap="round" stroke-linejoin="round" fill="none"/><path d="M24.6094 24.6094 29.8828 24.6094" stroke="#66737C" stroke-width="3.33333" stroke-linecap="round" stroke-linejoin="round" fill="none"/><path d="M28.125 17.5781 28.125 15.8203" stroke="#66737C" stroke-width="3.33333" stroke-linecap="round" stroke-linejoin="round" fill="none"/><path d="M28.125 31.6406 28.125 33.3984" stroke="#66737C" stroke-width="3.33333" stroke-linecap="round" stroke-linejoin="round" fill="none"/><path d="M22.8516 49.2188C22.8516 52.1312 25.2126 54.4922 28.125 54.4922 31.0374 54.4922 33.3984 52.1312 33.3984 49.2188 33.3984 46.3063 31.0374 43.9453 28.125 43.9453 25.2126 43.9453 22.8516 46.3063 22.8516 49.2188Z" stroke="#66737C" stroke-width="3.33333" stroke-linecap="round" stroke-linejoin="round" fill="none"/><path d="M1.75781 7.03125C1.75781 9.94369 4.11881 12.3047 7.03125 12.3047 9.94369 12.3047 12.3047 9.94369 12.3047 7.03125 12.3047 4.11881 9.94369 1.75781 7.03125 1.75781 4.11881 1.75781 1.75781 4.11881 1.75781 7.03125Z" stroke="#66737C" stroke-width="3.33333" stroke-linecap="round" stroke-linejoin="round" fill="none"/><path d="M43.9453 7.03125C43.9453 9.94369 46.3063 12.3047 49.2188 12.3047 52.1312 12.3047 54.4922 9.94369 54.4922 7.03125 54.4922 4.11881 52.1312 1.75781 49.2188 1.75781 46.3063 1.75781 43.9453 4.11881 43.9453 7.03125Z" stroke="#66737C" stroke-width="3.33333" stroke-linecap="round" stroke-linejoin="round" fill="none"/><path d="M28.125 43.9453 28.125 38.6719" stroke="#66737C" stroke-width="3.33333" stroke-linecap="round" stroke-linejoin="round" fill="none"/><path d="M11.0836 10.4062 17.3227 15.607" stroke="#66737C" stroke-width="3.33333" stroke-linecap="round" stroke-linejoin="round" fill="none"/><path d="M45.1664 10.4062 38.9273 15.607" stroke="#66737C" stroke-width="3.33333" stroke-linecap="round" stroke-linejoin="round" fill="none"/></svg>