<svg width="60" height="60" viewBox="-1.875 -1.875 60 60" xmlns="http://www.w3.org/2000/svg" xmlns:xlink="http://www.w3.org/1999/xlink" id="Factory-Building-Water-Treatment-1--Streamline-Ultimate" overflow="hidden"><defs></defs><path d="M18.1641 20.5078 18.1641 6.44531C18.1641 3.85648 20.2627 1.75781 22.8516 1.75781L29.8828 1.75781C32.4716 1.75781 34.5703 3.85648 34.5703 6.44531L34.5703 54.4922 27.5391 54.4922" stroke="#66737C" stroke-width="3.33333" stroke-linecap="round" stroke-linejoin="round" fill="none"/><path d="M54.4922 54.4922 42.7734 54.4922 42.7734 19.3359C42.7734 16.0999 45.3968 13.4766 48.6328 13.4766 51.8689 13.4766 54.4922 16.0999 54.4922 19.3359Z" stroke="#66737C" stroke-width="3.33333" stroke-linecap="round" stroke-linejoin="round" fill="none"/><path d="M34.5703 25.1953 42.7734 25.1953" stroke="#66737C" stroke-width="3.33333" stroke-linecap="round" stroke-linejoin="round" fill="none"/><path d="M34.5703 33.3984 42.7734 33.3984" stroke="#66737C" stroke-width="3.33333" stroke-linecap="round" stroke-linejoin="round" fill="none"/><path d="M34.5703 41.6016 42.7734 41.6016" stroke="#66737C" stroke-width="3.33333" stroke-linecap="round" stroke-linejoin="round" fill="none"/><path d="M18.1641 14.6484 13.4766 14.6484C12.1821 14.6484 11.1328 15.6978 11.1328 16.9922L11.1328 27.5391" stroke="#66737C" stroke-width="3.33333" stroke-linecap="round" stroke-linejoin="round" fill="none"/><path d="M1.75781 39.2578 1.75781 54.4922" stroke="#66737C" stroke-width="3.33333" stroke-linecap="round" stroke-linejoin="round" fill="none"/><path d="M11.1328 48.6328 11.1328 54.4922" stroke="#66737C" stroke-width="3.33333" stroke-linecap="round" stroke-linejoin="round" fill="none"/><path d="M20.5078 39.2578 20.5078 54.4922" stroke="#66737C" stroke-width="3.33333" stroke-linecap="round" stroke-linejoin="round" fill="none"/><path d="M15.8203 31.1836 15.8203 27.5391 6.44531 27.5391 6.44531 31.1836C1.96132 33.7724 0.42499 39.5061 3.01382 43.9901 5.60266 48.4741 11.3363 50.0104 15.8203 47.4216 20.3043 44.8327 21.8406 39.0991 19.2518 34.6151 18.429 33.1899 17.2455 32.0064 15.8203 31.1836Z" stroke="#66737C" stroke-width="3.33333" stroke-linecap="round" stroke-linejoin="round" fill="none"/></svg>