<svg width="60" height="60" viewBox="-1.875 -1.875 60 60" xmlns="http://www.w3.org/2000/svg" xmlns:xlink="http://www.w3.org/1999/xlink" id="Shopping-Cart-Check--Streamline-Ultimate" overflow="hidden"><path d="M32.857 9.60938 23.6344 21.9141C22.8453 22.9661 21.3527 23.1793 20.3006 22.3902 20.2107 22.3228 20.1256 22.249 20.0461 22.1695L15.2789 17.4023" stroke="#66737C" stroke-width="3.33333" stroke-linecap="round" stroke-linejoin="round" fill="none"/><path d="M10.5469 49.1437C10.5469 51.5708 12.5144 53.5383 14.9414 53.5383 17.3684 53.5383 19.3359 51.5708 19.3359 49.1437 19.3359 46.7167 17.3684 44.7492 14.9414 44.7492 12.5144 44.7492 10.5469 46.7167 10.5469 49.1437Z" stroke="#66737C" stroke-width="3.33333" stroke-linecap="round" stroke-linejoin="round" fill="none"/><path d="M28.125 49.1437C28.125 51.5708 30.0925 53.5383 32.5195 53.5383 34.9466 53.5383 36.9141 51.5708 36.9141 49.1437 36.9141 46.7167 34.9466 44.7492 32.5195 44.7492 30.0925 44.7492 28.125 46.7167 28.125 49.1437Z" stroke="#66737C" stroke-width="3.33333" stroke-linecap="round" stroke-linejoin="round" fill="none"/><path d="M1.75781 16.6242 7.21641 35.1094C7.6274 36.6484 9.02186 37.7188 10.6148 37.718L35.9695 37.718C37.5651 37.722 38.9633 36.651 39.375 35.1094L46.9641 6.62344C47.5792 4.31476 49.6702 2.70852 52.0594 2.70937L54.4922 2.70937" stroke="#66737C" stroke-width="3.33333" stroke-linecap="round" stroke-linejoin="round" fill="none"/></svg>