<svg width="60" height="60" viewBox="-1.875 -1.875 60 60" xmlns="http://www.w3.org/2000/svg" xmlns:xlink="http://www.w3.org/1999/xlink" id="Recycled-Box-1--Streamline-Ultimate" fill="none" overflow="hidden"><path d="M53.9297 42.9961C55.5703 46.043 53.4609 49.793 49.9453 49.793L39.6328 49.793" stroke="#66737C" stroke-width="3.33333" stroke-linecap="round" stroke-linejoin="round" stroke-miterlimit="10"/><path d="M37.0547 27.293C38.9297 24.2461 43.3828 24.2461 45.0234 27.293L51.1172 37.8398" stroke="#66737C" stroke-width="3.33333" stroke-linecap="round" stroke-linejoin="round" stroke-miterlimit="10"/><path d="M32.1328 49.793C28.6172 49.793 26.2734 46.043 28.1484 42.9961L33.7734 32.918" stroke="#66737C" stroke-width="3.33333" stroke-linecap="round" stroke-linejoin="round" stroke-miterlimit="10"/><path d="M44.0859 45.1055 39.6328 49.793 44.0859 54.4805" stroke="#66737C" stroke-width="3.33333" stroke-linecap="round" stroke-linejoin="round" stroke-miterlimit="10"/><path d="M35.6484 39.0117 33.7734 32.918 27.4453 34.5586" stroke="#66737C" stroke-width="3.33333" stroke-linecap="round" stroke-linejoin="round" stroke-miterlimit="10"/><path d="M44.7891 36.199 51.1172 37.8396 52.7578 31.5115" stroke="#66737C" stroke-width="3.33333" stroke-linecap="round" stroke-linejoin="round" stroke-miterlimit="10"/><path d="M19.3359 43.9453 5.27344 43.9453C3.39844 43.9453 1.75781 42.3047 1.75781 40.4297L1.75781 15.8203C1.75781 13.9453 3.39844 12.3047 5.27344 12.3047L40.4297 12.3047C42.3047 12.3047 43.9453 13.9453 43.9453 15.8203L43.9453 20.5078" stroke="#66737C" stroke-width="3.33333" stroke-linecap="round" stroke-linejoin="round" stroke-miterlimit="10"/><path d="M42.7734 13.2422 36.2109 3.39844C35.5078 2.46094 34.5703 1.75781 33.3984 1.75781L12.5391 1.75781C11.3672 1.75781 10.1953 2.46094 9.72656 3.39844L2.92969 13.2422" stroke="#66737C" stroke-width="3.33333" stroke-linecap="round" stroke-linejoin="round" stroke-miterlimit="10"/><path d="M22.8516 1.75781 22.8516 12.3047" stroke="#66737C" stroke-width="3.33333" stroke-linecap="round" stroke-linejoin="round" stroke-miterlimit="10"/></svg>