<svg width="60" height="60" viewBox="-1.875 -1.875 60 60" xmlns="http://www.w3.org/2000/svg" xmlns:xlink="http://www.w3.org/1999/xlink" id="Shipment-Download--Streamline-Ultimate" overflow="hidden"><path d="M26.3672 40.4297C26.3672 48.1962 32.6632 54.4922 40.4297 54.4922 48.1962 54.4922 54.4922 48.1962 54.4922 40.4297 54.4922 32.6632 48.1962 26.3672 40.4297 26.3672 32.6632 26.3672 26.3672 32.6632 26.3672 40.4297Z" stroke="#66737C" stroke-width="3.57143" stroke-linecap="round" stroke-linejoin="round" fill="none"/><path d="M40.4297 33.3984 40.4297 47.4609" stroke="#66737C" stroke-width="3.57143" stroke-linecap="round" stroke-linejoin="round" fill="none"/><path d="M40.4297 47.4609 35.1562 42.1875" stroke="#66737C" stroke-width="3.57143" stroke-linecap="round" stroke-linejoin="round" fill="none"/><path d="M40.4297 47.4609 45.7031 42.1875" stroke="#66737C" stroke-width="3.57143" stroke-linecap="round" stroke-linejoin="round" fill="none"/><path d="M19.3359 43.9453 5.27344 43.9453C3.33181 43.9453 1.75781 42.3713 1.75781 40.4297L1.75781 15.8203C1.75781 13.8787 3.33181 12.3047 5.27344 12.3047L40.4297 12.3047C42.3713 12.3047 43.9453 13.8787 43.9453 15.8203L43.9453 19.3359" stroke="#66737C" stroke-width="3.57143" stroke-linecap="round" stroke-linejoin="round" fill="none"/><path d="M42.8109 13.2352 36.1992 3.32344C35.5486 2.34747 34.4542 1.76025 33.2812 1.75781L12.4219 1.75781C11.2465 1.7579 10.1488 2.3454 9.49687 3.32344L2.89219 13.2352" stroke="#66737C" stroke-width="3.57143" stroke-linecap="round" stroke-linejoin="round" fill="none"/><path d="M22.8516 1.75781 22.8516 12.3047" stroke="#66737C" stroke-width="3.57143" stroke-linecap="round" stroke-linejoin="round" fill="none"/></svg>