<svg width="60" height="60" viewBox="-2.14 -2.14 60 60" xmlns="http://www.w3.org/2000/svg" xmlns:xlink="http://www.w3.org/1999/xlink" id="Multiple-Circle--Streamline-Ultimate.svg" overflow="hidden"><path d="M20.895 8.70625C20.895 12.5529 24.0133 15.6713 27.86 15.6713 31.7067 15.6713 34.825 12.5529 34.825 8.70625 34.825 4.85959 31.7067 1.74125 27.86 1.74125 24.0133 1.74125 20.895 4.85959 20.895 8.70625Z" stroke="#66737C" stroke-width="3.57143" stroke-linecap="round" stroke-linejoin="round" fill="none"/><path d="M36.5662 33.0838 36.5662 27.86C36.5662 23.0517 32.6683 19.1538 27.86 19.1538 23.0517 19.1538 19.1538 23.0517 19.1538 27.86L19.1537 33.0838 22.6362 33.0838 24.3775 47.0137 31.3425 47.0137 33.0838 33.0838Z" stroke="#66737C" stroke-width="3.57143" stroke-linecap="round" stroke-linejoin="round" fill="none"/><path d="M5.22375 13.93C5.22375 16.815 7.5625 19.1537 10.4475 19.1537 13.3325 19.1537 15.6713 16.815 15.6713 13.93 15.6713 11.045 13.3325 8.70625 10.4475 8.70625 7.5625 8.70625 5.22375 11.045 5.22375 13.93Z" stroke="#66737C" stroke-width="3.57143" stroke-linecap="round" stroke-linejoin="round" fill="none"/><path d="M13.2335 23.0936C8.67265 21.5588 3.73113 24.0119 2.19631 28.5727 1.89593 29.4653 1.74225 30.4007 1.74125 31.3425L1.74125 33.0838 5.22375 33.0838 6.965 43.5312 13.93 43.5312 14.8029 38.2936" stroke="#66737C" stroke-width="3.57143" stroke-linecap="round" stroke-linejoin="round" fill="none"/><path d="M40.0488 13.93C40.0488 16.815 42.3875 19.1537 45.2725 19.1537 48.1575 19.1537 50.4963 16.815 50.4963 13.93 50.4963 11.045 48.1575 8.70625 45.2725 8.70625 42.3875 8.70625 40.0488 11.045 40.0488 13.93Z" stroke="#66737C" stroke-width="3.57143" stroke-linecap="round" stroke-linejoin="round" fill="none"/><path d="M42.4865 23.0936C47.0474 21.5588 51.9889 24.0119 53.5237 28.5727 53.8241 29.4653 53.9777 30.4007 53.9787 31.3425L53.9787 33.0838 50.4963 33.0838 48.755 43.5312 41.79 43.5312 40.9171 38.2936" stroke="#66737C" stroke-width="3.57143" stroke-linecap="round" stroke-linejoin="round" fill="none"/><path d="M53.9787 48.755C53.9787 51.6408 42.2845 53.9787 27.86 53.9787 13.4355 53.9787 1.74125 51.6408 1.74125 48.755" stroke="#66737C" stroke-width="3.57143" stroke-linecap="round" stroke-linejoin="round" fill="none"/></svg>