<svg width="60" height="60" viewBox="-2.14 -2.14 60 60" xmlns="http://www.w3.org/2000/svg" xmlns:xlink="http://www.w3.org/1999/xlink" id="Multiple-Users-2--Streamline-Ultimate.svg" overflow="hidden"><path d="M43.5312 27.86C43.5312 26.8983 42.7517 26.1188 41.79 26.1188L13.93 26.1187C12.9683 26.1187 12.1888 26.8983 12.1888 27.86" stroke="#66737C" stroke-width="3.57143" stroke-linecap="round" stroke-linejoin="round" fill="none"/><path d="M4.35313 40.9194C4.35313 44.2852 7.08167 47.0138 10.4475 47.0138 13.8133 47.0138 16.5419 44.2852 16.5419 40.9194 16.5419 37.5535 13.8133 34.825 10.4475 34.825 7.08167 34.825 4.35313 37.5535 4.35313 40.9194Z" stroke="#66737C" stroke-width="3.57143" stroke-linecap="round" stroke-linejoin="round" fill="none"/><path d="M19.1537 53.9787C16.5893 49.1704 10.6125 47.3514 5.80417 49.9158 4.0768 50.8371 2.66251 52.2514 1.74125 53.9787" stroke="#66737C" stroke-width="3.57143" stroke-linecap="round" stroke-linejoin="round" fill="none"/><path d="M39.1781 40.9194C39.1781 44.2852 41.9067 47.0138 45.2725 47.0138 48.6383 47.0138 51.3669 44.2852 51.3669 40.9194 51.3669 37.5535 48.6383 34.825 45.2725 34.825 41.9067 34.825 39.1781 37.5535 39.1781 40.9194Z" stroke="#66737C" stroke-width="3.57143" stroke-linecap="round" stroke-linejoin="round" fill="none"/><path d="M53.9787 53.9787C51.4143 49.1704 45.4375 47.3514 40.6292 49.9158 38.9018 50.8371 37.4875 52.2514 36.5662 53.9787" stroke="#66737C" stroke-width="3.57143" stroke-linecap="round" stroke-linejoin="round" fill="none"/><path d="M21.7656 7.83563C21.7656 11.2015 24.4942 13.93 27.86 13.93 31.2258 13.93 33.9544 11.2015 33.9544 7.83563 33.9544 4.4698 31.2258 1.74125 27.86 1.74125 24.4942 1.74125 21.7656 4.4698 21.7656 7.83563Z" stroke="#66737C" stroke-width="3.57143" stroke-linecap="round" stroke-linejoin="round" fill="none"/><path d="M35.4031 19.1537C31.8539 14.9865 25.5985 14.4855 21.4313 18.0347 21.029 18.3773 20.6548 18.7515 20.3123 19.1537" stroke="#66737C" stroke-width="3.57143" stroke-linecap="round" stroke-linejoin="round" fill="none"/></svg>