<svg width="60" height="60" viewBox="-2.14 -2.14 60 60" xmlns="http://www.w3.org/2000/svg" xmlns:xlink="http://www.w3.org/1999/xlink" id="Single-Neutral-Statics-2--Streamline-Ultimate.svg" overflow="hidden"><g><g><path d="M5.22375 8.70625C5.22375 12.5529 8.34209 15.6713 12.1888 15.6713 16.0354 15.6713 19.1537 12.5529 19.1537 8.70625 19.1537 4.85959 16.0354 1.74125 12.1887 1.74125 8.34209 1.74125 5.22375 4.85959 5.22375 8.70625" stroke="#66737C" stroke-width="3.57143" stroke-linecap="round" stroke-linejoin="round" fill="none"/><path d="M17.4125 53.9787 19.1537 36.5662 22.6362 36.5662 22.6362 29.6012C22.6362 23.8313 17.9587 19.1537 12.1887 19.1537 6.41875 19.1537 1.74125 23.8313 1.74125 29.6012L1.74125 36.5662 5.22375 36.5662 6.965 53.9787Z" stroke="#66737C" stroke-width="3.57143" stroke-linecap="round" stroke-linejoin="round" fill="none"/></g><g><path d="M29.6012 33.0838 50.4963 33.0838C52.4196 33.0838 53.9787 31.5246 53.9787 29.6013L53.9787 5.22375C53.9787 3.30042 52.4196 1.74125 50.4963 1.74125L26.1187 1.74125" stroke="#66737C" stroke-width="3.57143" stroke-linecap="round" stroke-linejoin="round" fill="none"/><path d="M47.0137 24.9579 29.6012 24.9579" stroke="#66737C" stroke-width="3.57143" stroke-linecap="round" stroke-linejoin="round" fill="none"/><path d="M43.5312 24.9579 43.5312 18.5733" stroke="#66737C" stroke-width="3.57143" stroke-linecap="round" stroke-linejoin="round" fill="none"/><path d="M36.5662 24.9579 36.5662 9.86708" stroke="#66737C" stroke-width="3.57143" stroke-linecap="round" stroke-linejoin="round" fill="none"/><path d="M29.6012 24.9579 29.6012 16.8321" stroke="#66737C" stroke-width="3.57143" stroke-linecap="round" stroke-linejoin="round" fill="none"/></g></g></svg>