<svg width="60" height="60" viewBox="-2.14 -2.14 60 60" xmlns="http://www.w3.org/2000/svg" xmlns:xlink="http://www.w3.org/1999/xlink" id="Following-2--Streamline-Ultimate.svg" fill="none" overflow="hidden"><path d="M29.7735 44.9756 53.0582 44.9756" stroke="#66737C" stroke-width="3.57143" stroke-linecap="round" stroke-linejoin="round"/><path d="M45.0865 36.9992 53.0596 44.9723 45.0865 52.9454" stroke="#66737C" stroke-width="3.57143" stroke-linecap="round" stroke-linejoin="round"/><path d="M22.0172 23.4052C25.1202 23.4052 27.6355 20.8896 27.6355 17.7867 27.6355 14.6838 25.1202 12.1683 22.0172 12.1683 18.9142 12.1683 16.3988 14.6838 16.3988 17.7867 16.3988 20.8896 18.9142 23.4052 22.0172 23.4052Z" stroke="#66737C" stroke-width="3.57143" stroke-linecap="round" stroke-linejoin="round" stroke-miterlimit="10"/><path d="M31.4384 32.1347C30.2084 28.1042 26.3985 25.0826 22.0222 25.0826 17.6458 25.0826 13.8361 28.1042 12.6059 32.1347" stroke="#66737C" stroke-width="3.57143" stroke-linecap="round" stroke-linejoin="round" stroke-miterlimit="10"/><path d="M23.0578 41.5246 4.98341 41.5246C3.7012 41.5246 2.66174 40.4852 2.66174 39.203L2.66174 5.09453C2.66174 3.81229 3.7012 2.77286 4.98341 2.77286L39.092 2.77286C40.3742 2.77286 41.4137 3.81229 41.4137 5.09453L41.4137 27.694" stroke="#66737C" stroke-width="3.57143" stroke-linecap="round" stroke-linejoin="round"/></svg>