<svg width="60" height="60" viewBox="-1.875 -1.875 60 60" xmlns="http://www.w3.org/2000/svg" xmlns:xlink="http://www.w3.org/1999/xlink" id="Presentation-Audience--Streamline-Ultimate" overflow="hidden"><path d="M10.5469 26.3672 45.7031 26.3672" stroke="#66737C" stroke-width="3.33333" stroke-linecap="round" stroke-linejoin="round" fill="none"/><path d="M18.2812 33.3984 17.5781 26.3672 38.6719 26.3672 37.9688 33.3984" stroke="#66737C" stroke-width="3.33333" stroke-linecap="round" stroke-linejoin="round" fill="none"/><path d="M21.9727 7.91016C21.9727 11.308 24.7272 14.0625 28.125 14.0625 31.5228 14.0625 34.2773 11.308 34.2773 7.91016 34.2773 4.51231 31.5228 1.75781 28.125 1.75781 24.7272 1.75781 21.9727 4.51231 21.9727 7.91016Z" stroke="#66737C" stroke-width="3.33333" stroke-linecap="round" stroke-linejoin="round" fill="none"/><path d="M35.7398 19.3359C32.1569 15.1291 25.842 14.6233 21.6351 18.2063 21.2291 18.5521 20.8513 18.9299 20.5055 19.3359" stroke="#66737C" stroke-width="3.33333" stroke-linecap="round" stroke-linejoin="round" fill="none"/><path d="M3.22031 43.0664C3.22031 46.4643 5.97481 49.2188 9.37266 49.2188 12.7705 49.2188 15.525 46.4643 15.525 43.0664 15.525 39.6686 12.7705 36.9141 9.37266 36.9141 5.97481 36.9141 3.22031 39.6686 3.22031 43.0664Z" stroke="#66737C" stroke-width="3.33333" stroke-linecap="round" stroke-linejoin="round" fill="none"/><path d="M16.9875 54.4922C13.4045 50.2853 7.08965 49.7796 2.8828 53.3625 2.47673 53.7084 2.09897 54.0861 1.75312 54.4922" stroke="#66737C" stroke-width="3.33333" stroke-linecap="round" stroke-linejoin="round" fill="none"/><path d="M21.9727 43.0664C21.9727 46.4643 24.7272 49.2188 28.125 49.2188 31.5228 49.2188 34.2773 46.4643 34.2773 43.0664 34.2773 39.6686 31.5228 36.9141 28.125 36.9141 24.7272 36.9141 21.9727 39.6686 21.9727 43.0664Z" stroke="#66737C" stroke-width="3.33333" stroke-linecap="round" stroke-linejoin="round" fill="none"/><path d="M35.7398 54.4922C32.1569 50.2853 25.842 49.7796 21.6351 53.3625 21.2291 53.7084 20.8513 54.0861 20.5055 54.4922" stroke="#66737C" stroke-width="3.33333" stroke-linecap="round" stroke-linejoin="round" fill="none"/><path d="M40.725 43.0664C40.725 46.4643 43.4795 49.2188 46.8773 49.2188 50.2752 49.2188 53.0297 46.4643 53.0297 43.0664 53.0297 39.6686 50.2752 36.9141 46.8773 36.9141 43.4795 36.9141 40.725 39.6686 40.725 43.0664Z" stroke="#66737C" stroke-width="3.33333" stroke-linecap="round" stroke-linejoin="round" fill="none"/><path d="M54.4922 54.4922C50.9092 50.2853 44.5943 49.7796 40.3875 53.3625 39.9814 53.7084 39.6037 54.0861 39.2578 54.4922" stroke="#66737C" stroke-width="3.33333" stroke-linecap="round" stroke-linejoin="round" fill="none"/></svg>