<svg width="60" height="60" viewBox="-1.875 -1.875 60 60" xmlns="http://www.w3.org/2000/svg" xmlns:xlink="http://www.w3.org/1999/xlink" id="Multiple-Man-Woman-2--Streamline-Ultimate" overflow="hidden"><path d="M7.03125 8.78906C7.03125 12.6723 10.1792 15.8203 14.0625 15.8203 17.9458 15.8203 21.0938 12.6723 21.0938 8.78906 21.0938 4.90581 17.9458 1.75781 14.0625 1.75781 10.1792 1.75781 7.03125 4.90581 7.03125 8.78906Z" stroke="#66737C" stroke-width="3.33333" stroke-linecap="round" stroke-linejoin="round" fill="none"/><path d="M26.3672 31.6406C26.3672 24.8449 20.8582 19.3359 14.0625 19.3359 7.26681 19.3359 1.75781 24.8449 1.75781 31.6406L1.75781 36.9141 7.03125 36.9141 8.78906 54.4922 19.3359 54.4922 21.0938 36.9141 26.3672 36.9141Z" stroke="#66737C" stroke-width="3.33333" stroke-linecap="round" stroke-linejoin="round" fill="none"/><path d="M29.8828 43.9453 33.3984 43.9453 35.1562 54.4922 45.7031 54.4922 47.4609 43.9453 54.4922 43.9453 49.2188 28.125C47.4609 22.8516 45.2836 19.3359 40.4297 19.3359 37.0926 19.3392 34.1239 21.4557 33.0328 24.6094" stroke="#66737C" stroke-width="3.33333" stroke-linecap="round" stroke-linejoin="round" fill="none"/><path d="M33.3984 8.78906C33.3984 12.6723 36.5464 15.8203 40.4297 15.8203 44.3129 15.8203 47.4609 12.6723 47.4609 8.78906 47.4609 4.90581 44.3129 1.75781 40.4297 1.75781 36.5464 1.75781 33.3984 4.90581 33.3984 8.78906Z" stroke="#66737C" stroke-width="3.33333" stroke-linecap="round" stroke-linejoin="round" fill="none"/></svg>