<svg width="60" height="60" viewBox="-1.875 -1.875 60 60" xmlns="http://www.w3.org/2000/svg" xmlns:xlink="http://www.w3.org/1999/xlink" id="User-Network--Streamline-Ultimate" overflow="hidden"><path d="M1.75781 7.03125C1.75781 9.94369 4.11881 12.3047 7.03125 12.3047 9.94369 12.3047 12.3047 9.94369 12.3047 7.03125 12.3047 4.11881 9.94369 1.75781 7.03125 1.75781 4.11881 1.75781 1.75781 4.11881 1.75781 7.03125Z" stroke="#66737C" stroke-width="3.33333" stroke-linecap="round" stroke-linejoin="round" fill="none"/><path d="M11.3016 10.1273 15.8203 13.4039" stroke="#66737C" stroke-width="3.33333" stroke-linecap="round" stroke-linejoin="round" fill="none"/><path d="M1.75781 49.2188C1.75781 52.1312 4.11881 54.4922 7.03125 54.4922 9.94369 54.4922 12.3047 52.1312 12.3047 49.2188 12.3047 46.3063 9.94369 43.9453 7.03125 43.9453 4.11881 43.9453 1.75781 46.3063 1.75781 49.2188Z" stroke="#66737C" stroke-width="3.33333" stroke-linecap="round" stroke-linejoin="round" fill="none"/><path d="M11.3016 46.1227 15.8203 42.8438" stroke="#66737C" stroke-width="3.33333" stroke-linecap="round" stroke-linejoin="round" fill="none"/><path d="M43.9453 7.03125C43.9453 9.94369 46.3063 12.3047 49.2188 12.3047 52.1312 12.3047 54.4922 9.94369 54.4922 7.03125 54.4922 4.11881 52.1312 1.75781 49.2188 1.75781 46.3063 1.75781 43.9453 4.11881 43.9453 7.03125Z" stroke="#66737C" stroke-width="3.33333" stroke-linecap="round" stroke-linejoin="round" fill="none"/><path d="M44.9484 10.1273 40.4297 13.4039" stroke="#66737C" stroke-width="3.33333" stroke-linecap="round" stroke-linejoin="round" fill="none"/><path d="M43.9453 49.2188C43.9453 52.1312 46.3063 54.4922 49.2188 54.4922 52.1312 54.4922 54.4922 52.1312 54.4922 49.2188 54.4922 46.3063 52.1312 43.9453 49.2188 43.9453 46.3063 43.9453 43.9453 46.3063 43.9453 49.2188Z" stroke="#66737C" stroke-width="3.33333" stroke-linecap="round" stroke-linejoin="round" fill="none"/><path d="M44.9484 46.1227 40.4297 42.8438" stroke="#66737C" stroke-width="3.33333" stroke-linecap="round" stroke-linejoin="round" fill="none"/><path d="M21.9727 18.457C21.9727 21.8549 24.7272 24.6094 28.125 24.6094 31.5228 24.6094 34.2773 21.8549 34.2773 18.457 34.2773 15.0592 31.5228 12.3047 28.125 12.3047 24.7272 12.3047 21.9727 15.0592 21.9727 18.457Z" stroke="#66737C" stroke-width="3.33333" stroke-linecap="round" stroke-linejoin="round" fill="none"/><path d="M17.5781 36.9141C17.5781 31.0892 22.3001 26.3672 28.125 26.3672 33.9499 26.3672 38.6719 31.0892 38.6719 36.9141Z" stroke="#66737C" stroke-width="3.33333" stroke-linecap="round" stroke-linejoin="round" fill="none"/></svg>