<svg width="60" height="60" viewBox="-1.875 -1.875 60 60" xmlns="http://www.w3.org/2000/svg" xmlns:xlink="http://www.w3.org/1999/xlink" id="Human-Resources-Hierarchy-Woman--Streamline-Ultimate" overflow="hidden"><path d="M33.3961 47.4609 31.0523 47.4609C30.3931 47.4481 29.8687 46.9038 29.8805 46.2445L29.8805 8.24531C29.8687 7.58656 30.3932 7.04301 31.052 7.03126 31.0521 7.03125 31.0522 7.03125 31.0523 7.03125L33.3961 7.03125" stroke="#66737C" stroke-width="3.33333" stroke-linecap="round" stroke-linejoin="round" fill="none"/><path d="M40.4273 7.03125C40.4273 9.94369 42.7883 12.3047 45.7008 12.3047 48.6132 12.3047 50.9742 9.94369 50.9742 7.03125 50.9742 4.11881 48.6132 1.75781 45.7008 1.75781 42.7883 1.75781 40.4273 4.11881 40.4273 7.03125Z" stroke="#66737C" stroke-width="3.33333" stroke-linecap="round" stroke-linejoin="round" fill="none"/><path d="M54.4898 21.0938C53.4178 17.078 49.8562 14.2279 45.7031 14.0625 41.5491 14.2269 37.9863 17.0772 36.9141 21.0938Z" stroke="#66737C" stroke-width="3.33333" stroke-linecap="round" stroke-linejoin="round" fill="none"/><path d="M40.4273 40.4297C40.4273 43.3421 42.7883 45.7031 45.7008 45.7031 48.6132 45.7031 50.9742 43.3421 50.9742 40.4297 50.9742 37.5173 48.6132 35.1562 45.7008 35.1562 42.7883 35.1562 40.4273 37.5173 40.4273 40.4297Z" stroke="#66737C" stroke-width="3.33333" stroke-linecap="round" stroke-linejoin="round" fill="none"/><path d="M54.4898 54.4922C53.4176 50.4756 49.8548 47.6254 45.7008 47.4609 41.5468 47.6254 37.984 50.4756 36.9117 54.4922Z" stroke="#66737C" stroke-width="3.33333" stroke-linecap="round" stroke-linejoin="round" fill="none"/><path d="M1.75547 42.1875C1.75547 36.3626 6.47747 31.6406 12.3023 31.6406 18.1272 31.6406 22.8492 36.3626 22.8492 42.1875Z" stroke="#66737C" stroke-width="3.33333" stroke-linecap="round" stroke-linejoin="round" fill="none"/><path d="M19.8141 21.6445 19.8141 23.4375C19.7441 25.4991 20.2794 27.536 21.3539 29.2969" stroke="#66737C" stroke-width="3.33333" stroke-linecap="round" stroke-linejoin="round" fill="none"/><path d="M5.05078 21.6445 5.05078 23.4375C5.12092 25.4985 4.58734 27.5351 3.51562 29.2969" stroke="#66737C" stroke-width="3.33333" stroke-linecap="round" stroke-linejoin="round" fill="none"/><path d="M5.07188 22.0312C7.90036 22.0122 10.5833 20.7746 12.4336 18.6352 14.2828 20.7747 16.9651 22.0125 19.793 22.0312" stroke="#66737C" stroke-width="3.33333" stroke-linecap="round" stroke-linejoin="round" fill="none"/><path d="M5.04844 21.4453C5.04844 25.524 8.35489 28.8305 12.4336 28.8305 16.5123 28.8305 19.8188 25.524 19.8188 21.4453 19.8188 17.3666 16.5123 14.0602 12.4336 14.0602 8.35488 14.0602 5.04844 17.3666 5.04844 21.4453Z" stroke="#66737C" stroke-width="3.33333" stroke-linecap="round" stroke-linejoin="round" fill="none"/><path d="M29.8805 26.3672 26.3648 26.3672" stroke="#66737C" stroke-width="3.33333" stroke-linecap="round" stroke-linejoin="round" fill="none"/></svg>