<svg width="60" height="60" viewBox="-1.875 -1.875 60 60" xmlns="http://www.w3.org/2000/svg" xmlns:xlink="http://www.w3.org/1999/xlink" id="Monetization-Team--Streamline-Ultimate" overflow="hidden"><path d="M30.7617 5.27344 24.6094 5.27344C22.8736 5.26791 21.4619 6.67058 21.4564 8.40638 21.4523 9.69732 22.238 10.8595 23.4375 11.3367L29.6602 13.2703C31.273 13.9155 32.0574 15.746 31.4122 17.3589 30.9341 18.5542 29.7757 19.3374 28.4883 19.3359L21.0938 19.3359" stroke="#66737C" stroke-width="3.33333" stroke-linecap="round" stroke-linejoin="round" fill="none"/><path d="M26.3672 5.27344 26.3672 1.75781" stroke="#66737C" stroke-width="3.33333" stroke-linecap="round" stroke-linejoin="round" fill="none"/><path d="M26.3672 24.6094 26.3672 19.3359" stroke="#66737C" stroke-width="3.33333" stroke-linecap="round" stroke-linejoin="round" fill="none"/><path d="M4.39453 41.3086C4.39453 44.7064 7.14903 47.4609 10.5469 47.4609 13.9447 47.4609 16.6992 44.7064 16.6992 41.3086 16.6992 37.9107 13.9447 35.1562 10.5469 35.1562 7.14903 35.1562 4.39453 37.9107 4.39453 41.3086Z" stroke="#66737C" stroke-width="3.33333" stroke-linecap="round" stroke-linejoin="round" fill="none"/><path d="M19.3359 54.4922C16.7471 49.6381 10.7134 47.8018 5.85938 50.3906 4.11557 51.3207 2.68784 52.7484 1.75781 54.4922" stroke="#66737C" stroke-width="3.33333" stroke-linecap="round" stroke-linejoin="round" fill="none"/><path d="M21.9727 41.3086C21.9727 44.7064 24.7272 47.4609 28.125 47.4609 31.5228 47.4609 34.2773 44.7064 34.2773 41.3086 34.2773 37.9107 31.5228 35.1562 28.125 35.1562 24.7272 35.1562 21.9727 37.9107 21.9727 41.3086Z" stroke="#66737C" stroke-width="3.33333" stroke-linecap="round" stroke-linejoin="round" fill="none"/><path d="M36.9141 54.4922C34.3252 49.6381 28.2916 47.8018 23.4375 50.3906 21.6937 51.3207 20.266 52.7484 19.3359 54.4922" stroke="#66737C" stroke-width="3.33333" stroke-linecap="round" stroke-linejoin="round" fill="none"/><path d="M39.5508 41.3086C39.5508 44.7064 42.3053 47.4609 45.7031 47.4609 49.101 47.4609 51.8555 44.7064 51.8555 41.3086 51.8555 37.9107 49.101 35.1562 45.7031 35.1562 42.3053 35.1562 39.5508 37.9107 39.5508 41.3086Z" stroke="#66737C" stroke-width="3.33333" stroke-linecap="round" stroke-linejoin="round" fill="none"/><path d="M54.4922 54.4922C51.9034 49.6381 45.8697 47.8018 41.0156 50.3906 39.2718 51.3207 37.8441 52.7484 36.9141 54.4922" stroke="#66737C" stroke-width="3.33333" stroke-linecap="round" stroke-linejoin="round" fill="none"/><path d="M14.9414 24.6094C8.63204 18.2987 8.63204 8.06848 14.9414 1.75781" stroke="#66737C" stroke-width="3.33333" stroke-linecap="round" stroke-linejoin="round" fill="none"/><path d="M37.793 1.75781C44.1023 8.06848 44.1023 18.2987 37.793 24.6094" stroke="#66737C" stroke-width="3.33333" stroke-linecap="round" stroke-linejoin="round" fill="none"/></svg>