<svg width="60" height="60" viewBox="-1.875 -1.875 60 60" xmlns="http://www.w3.org/2000/svg" xmlns:xlink="http://www.w3.org/1999/xlink" id="Customer-Relationship-Management-Referral-Tracking-2--Streamline-Ultimate" overflow="hidden"><defs></defs><path d="M4.37813 24.6C4.37813 28.9687 7.91962 32.5102 12.2883 32.5102 16.6569 32.5102 20.1984 28.9687 20.1984 24.6 20.1984 20.2313 16.6569 16.6898 12.2883 16.6898 7.91962 16.6898 4.37812 20.2313 4.37812 24.6" stroke="#66737C" stroke-width="3.33333" stroke-linecap="round" stroke-linejoin="round" fill="none"/><path d="M18.6281 37.5187C12.937 34.6814 6.05378 35.9698 1.77422 40.6734" stroke="#66737C" stroke-width="3.33333" stroke-linecap="round" stroke-linejoin="round" fill="none"/><path d="M36.0516 24.6C36.0516 28.9687 39.5931 32.5102 43.9617 32.5102 48.3304 32.5102 51.8719 28.9687 51.8719 24.6 51.8719 20.2313 48.3304 16.6898 43.9617 16.6898 39.5931 16.6898 36.0516 20.2313 36.0516 24.6" stroke="#66737C" stroke-width="3.33333" stroke-linecap="round" stroke-linejoin="round" fill="none"/><path d="M54.4758 40.6734C50.1889 35.9653 43.2937 34.683 37.6008 37.5352" stroke="#66737C" stroke-width="3.33333" stroke-linecap="round" stroke-linejoin="round" fill="none"/><path d="M12.8742 10.8398C15.5571 5.5935 21.0493 2.3897 26.9367 2.63672 32.8241 2.3897 38.3163 5.5935 40.9992 10.8398" stroke="#66737C" stroke-width="3.33333" stroke-linecap="round" stroke-linejoin="round" fill="none"/><path d="M33.968 10.8398 42.1711 10.8398 42.1711 2.63672" stroke="#66737C" stroke-width="3.33333" stroke-linecap="round" stroke-linejoin="round" fill="none"/><path d="M31.6406 37.793 26.8711 37.793C25.134 37.7942 23.7268 39.2034 23.728 40.9405 23.7289 42.2235 24.509 43.3773 25.6992 43.8562L30.5367 45.7922C32.1483 46.4406 32.929 48.2727 32.2806 49.8842 31.8017 51.0745 30.6478 51.8546 29.3648 51.8555L24.6094 51.8555" stroke="#66737C" stroke-width="3.33333" stroke-linecap="round" stroke-linejoin="round" fill="none"/><path d="M28.1203 37.793 28.1203 36.0352" stroke="#66737C" stroke-width="3.33333" stroke-linecap="round" stroke-linejoin="round" fill="none"/><path d="M28.1203 53.6133 28.1203 51.8555" stroke="#66737C" stroke-width="3.33333" stroke-linecap="round" stroke-linejoin="round" fill="none"/></svg>