<svg width="60" height="60" viewBox="-1.875 -1.875 60 60" xmlns="http://www.w3.org/2000/svg" xmlns:xlink="http://www.w3.org/1999/xlink" id="Service-Failure-Warning-1--Streamline-Ultimate" fill="none" overflow="hidden"><path d="M50.5195 24.712 52.9617 22.509C53.6644 21.8739 54.1535 21.0371 54.3619 20.1132 54.5705 19.1892 54.488 18.2235 54.1261 17.3482 53.7642 16.473 53.1403 15.731 52.3404 15.2241 51.5402 14.7172 50.603 14.4702 49.657 14.5168L46.3758 14.6832C45.7357 14.7145 45.0961 14.6113 44.4982 14.3803 43.9003 14.1493 43.3575 13.7957 42.9047 13.3422 42.4519 12.8887 42.0989 12.3453 41.869 11.7472 41.6388 11.149 41.5366 10.5092 41.5687 9.86916L41.7352 6.58791C41.7834 5.64131 41.5373 4.70299 41.0311 3.90173 40.5248 3.10045 39.7828 2.47554 38.9072 2.1127 38.0316 1.74986 37.0652 1.66691 36.1406 1.87523 35.216 2.08354 34.3784 2.57292 33.743 3.27619L31.5258 5.709C31.0957 6.18642 30.57 6.56815 29.9829 6.82943 29.396 7.09071 28.7606 7.22573 28.118 7.22573 27.4753 7.22573 26.8399 7.09071 26.2528 6.82943 25.6659 6.56815 25.1402 6.18642 24.7102 5.709L22.507 3.27619C21.8711 2.57716 21.0351 2.09136 20.113 1.88505 19.1908 1.67875 18.2275 1.762 17.3544 2.12344 16.4813 2.48487 15.741 3.1069 15.2344 3.90464 14.7279 4.70238 14.4799 5.63695 14.5242 6.58087L14.6812 9.86447C14.7156 10.5071 14.6145 11.1499 14.3843 11.751 14.1542 12.352 13.8001 12.8979 13.3453 13.3532 12.8904 13.8086 12.3448 14.1631 11.744 14.3939 11.1431 14.6246 10.5005 14.7264 9.85779 14.6926L6.57654 14.5262C5.63227 14.481 4.69709 14.7286 3.89885 15.2351 3.10062 15.7416 2.47828 16.4822 2.1169 17.3558 1.75553 18.2293 1.67276 19.1932 1.8799 20.1156 2.08704 21.0379 2.574 21.8738 3.2742 22.509L5.71404 24.7237C6.19088 25.1545 6.57204 25.6805 6.83292 26.2676 7.0938 26.8549 7.22859 27.4903 7.22859 28.1327 7.22859 28.7754 7.0938 29.4108 6.83292 29.9979 6.57204 30.5852 6.19088 31.1112 5.71404 31.5417L3.2742 33.7448C2.57173 34.3807 2.08328 35.2184 1.87592 36.143 1.66857 37.0676 1.75247 38.0334 2.11611 38.9086 2.47973 39.7835 3.10528 40.5244 3.90687 41.0295 4.70843 41.5348 5.64673 41.7795 6.59295 41.73L9.8742 41.5636C10.5157 41.5308 11.157 41.6327 11.7566 41.8631 12.3562 42.0938 12.9007 42.4474 13.3549 42.9016 13.8091 43.3559 14.1629 43.9005 14.3934 44.5001 14.6239 45.0996 14.7259 45.7409 14.6929 46.3823L14.5242 49.6636C14.481 50.6072 14.7297 51.5412 15.2366 52.338 15.7435 53.1349 16.4839 53.7562 17.3567 54.117 18.2296 54.4779 19.1925 54.5606 20.1142 54.3544" stroke="#66737C" stroke-width="3.33333" stroke-linecap="round" stroke-linejoin="round"/><path d="M35.9775 21.0886C34.0462 18.9322 31.2405 17.5753 28.1182 17.5753 22.2933 17.5753 17.5713 22.2973 17.5713 28.1222 17.5713 32.2631 19.9579 35.847 23.4306 37.5727" stroke="#66737C" stroke-width="3.33333" stroke-linecap="round" stroke-linejoin="round"/><path d="M40.4224 49.2136C39.937 49.2136 39.5435 48.8201 39.5435 48.3347 39.5435 47.8493 39.937 47.4558 40.4224 47.4558" stroke="#66737C" stroke-width="3.33333" stroke-linecap="round" stroke-linejoin="round"/><path d="M40.4224 49.2136C40.908 49.2136 41.3013 48.8201 41.3013 48.3347 41.3013 47.8493 40.908 47.4558 40.4224 47.4558" stroke="#66737C" stroke-width="3.33333" stroke-linecap="round" stroke-linejoin="round"/><path d="M40.4224 42.1823 40.4224 35.1511" stroke="#66737C" stroke-width="3.33333" stroke-linecap="round" stroke-linejoin="round"/><path d="M54.0466 48.4706C54.3635 49.1044 54.513 49.8089 54.4809 50.5167 54.4491 51.2248 54.2367 51.9129 53.8641 52.5155 53.4914 53.1183 52.9709 53.6159 52.3519 53.9609 51.7329 54.3059 51.0359 54.487 50.3271 54.487L30.5177 54.487C29.8092 54.487 29.1122 54.3059 28.4932 53.9609 27.8742 53.6159 27.3537 53.1183 26.981 52.5155 26.6084 51.9129 26.396 51.2248 26.3639 50.5167 26.332 49.8089 26.4816 49.1044 26.7982 48.4706L36.7029 28.6612C37.0481 27.9703 37.579 27.3891 38.2359 26.9829 38.8929 26.5767 39.6502 26.3616 40.4224 26.3616 41.1949 26.3616 41.952 26.5767 42.6091 26.9829 43.2661 27.3891 43.797 27.9703 44.142 28.6612L54.0466 48.4706Z" stroke="#66737C" stroke-width="3.33333" stroke-linecap="round" stroke-linejoin="round"/></svg>