<svg width="60" height="60" viewBox="-1.875 -1.875 60 60" xmlns="http://www.w3.org/2000/svg" xmlns:xlink="http://www.w3.org/1999/xlink" id="Single-Man-Actions-Question--Streamline-Ultimate" fill="none" overflow="hidden"><path d="M1.75781 40.4295C1.75959 37.8141 2.40947 35.2397 3.64936 32.937 4.88923 30.634 6.68046 28.6744 8.86287 27.2332 11.0453 25.7918 13.5509 24.9138 16.1556 24.6776 18.7603 24.4413 21.3829 24.8543 23.7891 25.8795" stroke="#66737C" stroke-width="3.33333" stroke-linecap="round" stroke-linejoin="round"/><path d="M9.24609 6.51741C10.7435 8.06991 12.5384 9.30464 14.5237 10.1479 16.509 10.9911 18.6439 11.4255 20.8008 11.4252 22.9865 11.4267 25.1494 10.9817 27.157 10.1174" stroke="#66737C" stroke-width="3.33333" stroke-linecap="round" stroke-linejoin="round"/><path d="M17.5781 21.0938C22.9176 21.0938 27.2461 16.7652 27.2461 11.4258 27.2461 6.08632 22.9176 1.75781 17.5781 1.75781 12.2387 1.75781 7.91016 6.08632 7.91016 11.4258 7.91016 16.7652 12.2387 21.0938 17.5781 21.0938Z" stroke="#66737C" stroke-width="3.33333" stroke-linecap="round" stroke-linejoin="round"/><path d="M40.4297 54.4922C48.1962 54.4922 54.4922 48.1962 54.4922 40.4297 54.4922 32.6632 48.1962 26.3672 40.4297 26.3672 32.6632 26.3672 26.3672 32.6632 26.3672 40.4297 26.3672 48.1962 32.6632 54.4922 40.4297 54.4922Z" stroke="#66737C" stroke-width="3.33333" stroke-linecap="round" stroke-linejoin="round"/><path d="M36.0352 37.793C36.0352 36.9239 36.293 36.0741 36.7758 35.3515 37.2586 34.6289 37.9451 34.0655 38.748 33.7329 39.551 33.4003 40.4346 33.3134 41.287 33.4828 42.1395 33.6525 42.9225 34.0711 43.537 34.6856 44.1516 35.3002 44.5702 36.0832 44.7398 36.9356 44.9093 37.788 44.8223 38.6716 44.4898 39.4746 44.1572 40.2776 43.5938 40.9641 42.8712 41.4469 42.1486 41.9297 41.2988 42.1875 40.4297 42.1875" stroke="#66737C" stroke-width="3.33333" stroke-linecap="round" stroke-linejoin="round"/><path d="M40.4297 49.2188C39.9443 49.2188 39.5508 48.8252 39.5508 48.3398 39.5508 47.8545 39.9443 47.4609 40.4297 47.4609" stroke="#66737C" stroke-width="3.33333"/><path d="M40.4297 49.2188C40.9151 49.2188 41.3086 48.8252 41.3086 48.3398 41.3086 47.8545 40.9151 47.4609 40.4297 47.4609" stroke="#66737C" stroke-width="3.33333"/></svg>