<svg width="60" height="60" viewBox="-1.875 -1.875 60 60" xmlns="http://www.w3.org/2000/svg" xmlns:xlink="http://www.w3.org/1999/xlink" id="Cash-User-Message--Streamline-Ultimate" overflow="hidden"><path d="M33.3984 36.9141 33.3984 47.4609 43.9453 36.9141 50.9766 36.9141C52.9182 36.9141 54.4922 35.3401 54.4922 33.3984L54.4922 5.27344C54.4922 3.33181 52.9182 1.75781 50.9766 1.75781L22.8516 1.75781C20.9099 1.75781 19.3359 3.33181 19.3359 5.27344" stroke="#66737C" stroke-width="3.33333" stroke-linecap="round" stroke-linejoin="round" fill="none"/><path d="M41.3086 11.932 35.1562 11.932C33.4191 11.93 32.0093 13.3366 32.0073 15.0737 32.0058 16.3611 32.789 17.5195 33.9844 17.9977L40.207 19.9312C41.8186 20.5797 42.5993 22.4117 41.9509 24.0233 41.472 25.2136 40.3182 25.9936 39.0352 25.9945L31.6406 25.9945" stroke="#66737C" stroke-width="3.33333" stroke-linecap="round" stroke-linejoin="round" fill="none"/><path d="M36.9141 11.932 36.9141 8.41641" stroke="#66737C" stroke-width="3.33333" stroke-linecap="round" stroke-linejoin="round" fill="none"/><path d="M36.9141 29.5102 36.9141 25.9945" stroke="#66737C" stroke-width="3.33333" stroke-linecap="round" stroke-linejoin="round" fill="none"/><path d="M7.03125 17.5781C7.03125 21.4614 10.1792 24.6094 14.0625 24.6094 17.9458 24.6094 21.0938 21.4614 21.0938 17.5781 21.0938 13.6949 17.9458 10.5469 14.0625 10.5469 10.1792 10.5469 7.03125 13.6949 7.03125 17.5781Z" stroke="#66737C" stroke-width="3.33333" stroke-linecap="round" stroke-linejoin="round" fill="none"/><path d="M20.2148 54.4922 21.0938 45.7031 26.3672 45.7031 26.3672 40.4297C26.3672 33.634 20.8582 28.125 14.0625 28.125 7.26681 28.125 1.75781 33.634 1.75781 40.4297L1.75781 45.7031 7.03125 45.7031 7.91016 54.4922" stroke="#66737C" stroke-width="3.33333" stroke-linecap="round" stroke-linejoin="round" fill="none"/></svg>