<svg width="60" height="60" viewBox="-1.875 -1.875 60 60" xmlns="http://www.w3.org/2000/svg" xmlns:xlink="http://www.w3.org/1999/xlink" id="Credential-Stuffing-Authentication-Avatar-Circle--Streamline-Ultimate" fill="none" overflow="hidden"><path d="M22.8907 21.3688C25.9523 21.3688 28.4344 18.8868 28.4344 15.8251 28.4344 12.7634 25.9523 10.2814 22.8907 10.2814 19.8289 10.2814 17.347 12.7634 17.347 15.8251 17.347 18.8868 19.8289 21.3688 22.8907 21.3688Z" stroke="#66737C" stroke-width="3.33333" stroke-linecap="round" stroke-linejoin="round" stroke-miterlimit="10"/><path d="M13.1882 32.7361C13.1882 27.4697 17.6231 23.0347 22.8896 23.0347 24.9188 23.0347 26.8245 23.693 28.4004 24.8037" stroke="#66737C" stroke-width="3.33333" stroke-linecap="round" stroke-linejoin="round" stroke-miterlimit="10"/><path d="M43.2141 19.6665C41.6105 9.88751 33.1205 2.42616 22.8876 2.42616 11.5112 2.42616 2.28882 11.6486 2.28882 23.025 2.28882 33.9136 10.7372 42.8288 21.4365 43.5734" stroke="#66737C" stroke-width="3.33333" stroke-linecap="round"/><path d="M39.9412 47.0306C39.4725 47.0306 39.0037 47.4994 39.0037 47.9681 39.0037 48.4369 39.4725 48.9056 39.9412 48.9056" stroke="#66737C" stroke-width="3.33333" stroke-linecap="round" stroke-linejoin="round" stroke-miterlimit="10"/><path d="M39.9431 47.0306C40.4119 47.0306 40.8806 47.4994 40.8806 47.9681 40.8806 48.4369 40.4119 48.9056 39.9431 48.9056" stroke="#66737C" stroke-width="3.33333" stroke-linecap="round" stroke-linejoin="round" stroke-miterlimit="10"/><path d="M39.9422 41.8671 39.9422 34.8359" stroke="#66737C" stroke-width="3.33333" stroke-linecap="round" stroke-linejoin="round" stroke-miterlimit="10"/><path d="M53.5362 47.9644C54.2393 49.1362 54.0049 50.7769 53.3018 51.9487 52.5987 53.1206 51.1924 53.8237 49.7862 53.8237L29.8643 53.8237C28.458 53.8237 27.0518 53.1206 26.3487 51.9487 25.6455 50.7769 25.4112 49.1362 26.1143 47.9644L35.958 28.0425C36.6612 26.6362 38.0674 25.6987 39.708 25.6987 41.3487 25.6987 42.7549 26.6362 43.458 28.0425L53.5362 47.9644Z" stroke="#66737C" stroke-width="3.33333" stroke-linecap="round" stroke-linejoin="round" stroke-miterlimit="10"/></svg>