<svg width="60" height="60" viewBox="-1.875 -1.875 60 60" xmlns="http://www.w3.org/2000/svg" xmlns:xlink="http://www.w3.org/1999/xlink" id="Car-Engine-15--Streamline-Ultimate" fill="none" overflow="hidden"><style>
.MsftOfcResponsive_Stroke_66737c {
 stroke:#66737C; 
}
</style>
<path d="M10.5469 12.3047C11.5177 12.3047 12.3047 11.5177 12.3047 10.5469 12.3047 9.57607 11.5177 8.78906 10.5469 8.78906 9.57607 8.78906 8.78906 9.57607 8.78906 10.5469 8.78906 11.5177 9.57607 12.3047 10.5469 12.3047Z" class="MsftOfcResponsive_Stroke_66737c" stroke="#66737C" stroke-width="3.33333" stroke-linecap="round" stroke-linejoin="round"/><path d="M44.6742 18.3071C45.645 18.3071 46.432 17.5201 46.432 16.5493 46.432 15.5785 45.645 14.7915 44.6742 14.7915 43.7034 14.7915 42.9164 15.5785 42.9164 16.5493 42.9164 17.5201 43.7034 18.3071 44.6742 18.3071Z" class="MsftOfcResponsive_Stroke_66737c" stroke="#66737C" stroke-width="3.33333" stroke-linecap="round" stroke-linejoin="round"/><path d="M28.125 45.7031C30.0666 45.7031 31.6406 44.1291 31.6406 42.1875 31.6406 40.2459 30.0666 38.6719 28.125 38.6719 26.1834 38.6719 24.6094 40.2459 24.6094 42.1875 24.6094 44.1291 26.1834 45.7031 28.125 45.7031Z" class="MsftOfcResponsive_Stroke_66737c" stroke="#66737C" stroke-width="3.33333" stroke-linecap="round" stroke-linejoin="round"/><path d="M10.5469 19.3359C15.4009 19.3359 19.3359 15.4009 19.3359 10.5469 19.3359 5.6928 15.4009 1.75781 10.5469 1.75781 5.6928 1.75781 1.75781 5.6928 1.75781 10.5469 1.75781 15.4009 5.6928 19.3359 10.5469 19.3359Z" class="MsftOfcResponsive_Stroke_66737c" stroke="#66737C" stroke-width="3.33333" stroke-linecap="round" stroke-linejoin="round"/><path d="M44.5312 26.3672C50.0325 26.3672 54.4922 21.9075 54.4922 16.4062 54.4922 10.905 50.0325 6.44531 44.5312 6.44531 39.03 6.44531 34.5703 10.905 34.5703 16.4062 34.5703 21.9075 39.03 26.3672 44.5312 26.3672Z" class="MsftOfcResponsive_Stroke_66737c" stroke="#66737C" stroke-width="3.33333" stroke-linecap="round" stroke-linejoin="round"/><path d="M28.125 54.4922C34.9207 54.4922 40.4297 48.9832 40.4297 42.1875 40.4297 35.3918 34.9207 29.8828 28.125 29.8828 21.3293 29.8828 15.8203 35.3918 15.8203 42.1875 15.8203 48.9832 21.3293 54.4922 28.125 54.4922Z" class="MsftOfcResponsive_Stroke_66737c" stroke="#66737C" stroke-width="3.33333" stroke-linecap="round" stroke-linejoin="round"/><path d="M2.48438 14.0482 16.6617 46.6896" class="MsftOfcResponsive_Stroke_66737c" stroke="#66737C" stroke-width="3.33333" stroke-linecap="round" stroke-linejoin="round"/><path d="M38.9742 47.9927 53.3156 21.1052" class="MsftOfcResponsive_Stroke_66737c" stroke="#66737C" stroke-width="3.33333" stroke-linecap="round" stroke-linejoin="round"/><path d="M11.7562 1.84193 45.9398 6.54349" class="MsftOfcResponsive_Stroke_66737c" stroke="#66737C" stroke-width="3.33333" stroke-linecap="round" stroke-linejoin="round"/><path d="M28.125 36.9141 28.125 38.6719" class="MsftOfcResponsive_Stroke_66737c" stroke="#66737C" stroke-width="3.33333" stroke-linecap="round" stroke-linejoin="round"/><path d="M23.557 39.5508 25.0805 40.4297" class="MsftOfcResponsive_Stroke_66737c" stroke="#66737C" stroke-width="3.33333" stroke-linecap="round" stroke-linejoin="round"/><path d="M23.557 44.8242 25.0805 43.9453" class="MsftOfcResponsive_Stroke_66737c" stroke="#66737C" stroke-width="3.33333" stroke-linecap="round" stroke-linejoin="round"/><path d="M28.125 47.4609 28.125 45.7031" class="MsftOfcResponsive_Stroke_66737c" stroke="#66737C" stroke-width="3.33333" stroke-linecap="round" stroke-linejoin="round"/><path d="M32.693 44.8242 31.1695 43.9453" class="MsftOfcResponsive_Stroke_66737c" stroke="#66737C" stroke-width="3.33333" stroke-linecap="round" stroke-linejoin="round"/><path d="M32.693 39.5508 31.1695 40.4297" class="MsftOfcResponsive_Stroke_66737c" stroke="#66737C" stroke-width="3.33333" stroke-linecap="round" stroke-linejoin="round"/></svg>