<svg width="60" height="60" viewBox="-1.875 -1.875 60 60" xmlns="http://www.w3.org/2000/svg" xmlns:xlink="http://www.w3.org/1999/xlink" id="Network-Users--Streamline-Ultimate" overflow="hidden"><path d="M5.50781 39.5508C5.50781 42.9486 8.26231 45.7031 11.6602 45.7031 15.058 45.7031 17.8125 42.9486 17.8125 39.5508 17.8125 36.1529 15.058 33.3984 11.6602 33.3984 8.26231 33.3984 5.50781 36.1529 5.50781 39.5508Z" stroke="#66737C" stroke-width="3.33333" stroke-linecap="round" stroke-linejoin="round" fill="none"/><path d="M21.5625 54.4922C19.6556 49.0239 13.6768 46.1369 8.20855 48.0438 5.18801 49.0971 2.81349 51.4716 1.76016 54.4922Z" stroke="#66737C" stroke-width="3.33333" stroke-linecap="round" stroke-linejoin="round" fill="none"/><path d="M38.4398 39.5508C38.4398 42.9486 41.1943 45.7031 44.5922 45.7031 47.99 45.7031 50.7445 42.9486 50.7445 39.5508 50.7445 36.1529 47.99 33.3984 44.5922 33.3984 41.1943 33.3984 38.4398 36.1529 38.4398 39.5508Z" stroke="#66737C" stroke-width="3.33333" stroke-linecap="round" stroke-linejoin="round" fill="none"/><path d="M54.4922 54.4922C52.5853 49.0239 46.6065 46.1369 41.1382 48.0438 38.1177 49.0971 35.7432 51.4716 34.6898 54.4922Z" stroke="#66737C" stroke-width="3.33333" stroke-linecap="round" stroke-linejoin="round" fill="none"/><path d="M12.3047 17.5781C12.3047 26.3154 19.3877 33.3984 28.125 33.3984 36.8623 33.3984 43.9453 26.3154 43.9453 17.5781 43.9453 8.84081 36.8623 1.75781 28.125 1.75781 19.3877 1.75781 12.3047 8.84081 12.3047 17.5781Z" stroke="#66737C" stroke-width="3.33333" stroke-linecap="round" stroke-linejoin="round" fill="none"/><path d="M13.2047 22.8516 43.0453 22.8516" stroke="#66737C" stroke-width="3.33333" stroke-linecap="round" stroke-linejoin="round" fill="none"/><path d="M13.2047 12.3047 43.0453 12.3047" stroke="#66737C" stroke-width="3.33333" stroke-linecap="round" stroke-linejoin="round" fill="none"/><path d="M24.7125 2.12812C21.8736 12.3729 22.2913 23.247 25.9078 33.2438" stroke="#66737C" stroke-width="3.33333" stroke-linecap="round" stroke-linejoin="round" fill="none"/><path d="M31.5375 2.12812C32.7768 6.58648 33.4029 11.1929 33.3984 15.8203 33.4083 21.7615 32.3771 27.6585 30.3516 33.2438" stroke="#66737C" stroke-width="3.33333" stroke-linecap="round" stroke-linejoin="round" fill="none"/></svg>