<svg width="60" height="60" viewBox="-1.875 -1.875 60 60" xmlns="http://www.w3.org/2000/svg" xmlns:xlink="http://www.w3.org/1999/xlink" id="Gas-Station--Streamline-Ultimate" fill="none" overflow="hidden"><path d="M31.0547 16.922 35.7422 16.922C37.6172 16.922 39.2578 18.5627 39.2578 20.4377L39.2578 50.2034C39.2578 52.3127 40.6641 54.1877 42.7734 54.4221 45.3516 54.8909 47.4609 52.7815 47.4609 50.4377L47.4609 11.5314C47.4609 8.48454 49.1016 5.43766 51.6797 3.79704L54.4922 1.92203" stroke="#66737C" stroke-width="3.33333" stroke-linecap="round" stroke-linejoin="round" stroke-miterlimit="10"/><path d="M47.4609 15.7499 50.9766 15.7499" stroke="#66737C" stroke-width="3.33333" stroke-linecap="round" stroke-linejoin="round" stroke-miterlimit="10"/><path d="M31.0547 52.1163C31.0547 53.5226 30.1172 54.4601 28.7109 54.4601L4.10156 54.4601C2.69531 54.4601 1.75781 53.5226 1.75781 52.1163L1.75781 7.58515C1.75781 6.1789 2.69531 5.2414 4.10156 5.2414L28.7109 5.2414C30.1172 5.2414 31.0547 6.1789 31.0547 7.58515L31.0547 52.1163Z" stroke="#66737C" stroke-width="3.33333" stroke-linecap="round" stroke-linejoin="round" stroke-miterlimit="10"/><path d="M24.6094 15.7883C24.6094 13.9133 22.9688 12.2726 21.0938 12.2726L11.7188 12.2726C9.84375 12.2726 8.20312 13.9133 8.20312 15.7883 8.20312 17.6633 9.84375 19.3039 11.7188 19.3039L21.0938 19.3039C22.9688 19.3039 24.6094 17.6633 24.6094 15.7883Z" stroke="#66737C" stroke-width="3.33333" stroke-linecap="round" stroke-linejoin="round" stroke-miterlimit="10"/><path d="M1.76697 26.3351 31.0547 26.3351" stroke="#66737C" stroke-width="3.33333" stroke-linecap="round" stroke-linejoin="round" stroke-miterlimit="10"/></svg>