<svg width="60" height="60" viewBox="-1.875 -1.875 60 60" xmlns="http://www.w3.org/2000/svg" xmlns:xlink="http://www.w3.org/1999/xlink" id="Pie-Line-Graph-Desktop--Streamline-Ultimate" overflow="hidden"><g><g><path d="M35.1562 54.4922 21.0938 54.4922 22.8516 43.9453 33.3984 43.9453 35.1562 54.4922Z" stroke="#66737C" stroke-width="3.33333" stroke-linecap="round" stroke-linejoin="round" fill="none"/><path d="M15.8203 54.4922 40.4297 54.4922" stroke="#66737C" stroke-width="3.33333" stroke-linecap="round" stroke-linejoin="round" fill="none"/><path d="M8.78906 1.75781 47.4609 1.75781C47.4609 1.75781 54.4922 1.75781 54.4922 8.78906L54.4922 36.9141C54.4922 36.9141 54.4922 43.9453 47.4609 43.9453L8.78906 43.9453C8.78906 43.9453 1.75781 43.9453 1.75781 36.9141L1.75781 8.78906C1.75781 8.78906 1.75781 1.75781 8.78906 1.75781" stroke="#66737C" stroke-width="3.33333" stroke-linecap="round" stroke-linejoin="round" fill="none"/></g><path d="M1.75781 25.1953 11.1328 15.8203C11.8191 15.1349 12.9309 15.1349 13.6172 15.8203L18.0938 20.4375C18.78 21.1229 19.8918 21.1229 20.5781 20.4375L29.9531 11.0625" stroke="#66737C" stroke-width="3.33333" stroke-linecap="round" stroke-linejoin="round" fill="none"/><path d="M1.75781 34.5703 54.4922 34.5703" stroke="#66737C" stroke-width="3.33333" stroke-linecap="round" stroke-linejoin="round" fill="none"/><path d="M33.3984 20.5078 33.3984 26.9531" stroke="#66737C" stroke-width="3.33333" stroke-linecap="round" stroke-linejoin="round" fill="none"/><path d="M47.4609 20.5078 47.4609 26.9531" stroke="#66737C" stroke-width="3.33333" stroke-linecap="round" stroke-linejoin="round" fill="none"/><path d="M40.4297 15.2344 40.4297 26.9531" stroke="#66737C" stroke-width="3.33333" stroke-linecap="round" stroke-linejoin="round" fill="none"/></g></svg>