<svg width="60" height="60" viewBox="-1.875 -1.875 60 60" xmlns="http://www.w3.org/2000/svg" xmlns:xlink="http://www.w3.org/1999/xlink" id="Carousel-Horizontal--Streamline-Ultimate" fill="none" overflow="hidden"><path d="M39.2716 41.0238C39.2716 42.3183 38.2221 43.3676 36.9279 43.3676L19.3241 43.3676C18.0297 43.3676 16.9804 42.3183 16.9804 41.0238L16.9804 15.2258C16.9804 13.9314 18.0297 12.882 19.3241 12.882L36.9279 12.882C38.2221 12.882 39.2716 13.9314 39.2716 15.2258L39.2716 41.0238Z" stroke="#66737C" stroke-width="3.33333" stroke-linejoin="round"/><path d="M2.28882 39.8763 6.90307 39.8763C8.1975 39.8763 9.24682 38.827 9.24682 37.5326L9.24682 18.7171C9.24682 17.4227 8.1975 16.3733 6.90307 16.3733L2.28882 16.3733" stroke="#66737C" stroke-width="3.33333" stroke-linecap="round" stroke-linejoin="round"/><path d="M53.9611 16.3733 49.347 16.3733C48.0525 16.3733 47.0032 17.4227 47.0032 18.7171L47.0032 37.5326C47.0032 38.827 48.0525 39.8763 49.347 39.8763L53.9611 39.8763" stroke="#66737C" stroke-width="3.33333" stroke-linecap="round" stroke-linejoin="round"/></svg>