<svg width="60" height="60" viewBox="-1.875 -1.875 60 60" xmlns="http://www.w3.org/2000/svg" xmlns:xlink="http://www.w3.org/1999/xlink" id="Layout-Content--Streamline-Ultimate" fill="none" overflow="hidden"><path d="M23.4375 21.3281C23.4375 21.8876 23.2153 22.4241 22.8197 22.8197 22.4241 23.2153 21.8876 23.4375 21.3281 23.4375L4.45312 23.4375C3.8937 23.4375 3.35716 23.2153 2.96156 22.8197 2.56598 22.4241 2.34375 21.8876 2.34375 21.3281L2.34375 4.45312C2.34375 3.8937 2.56598 3.35716 2.96156 2.96156 3.35716 2.56598 3.8937 2.34375 4.45312 2.34375L21.3281 2.34375C21.8876 2.34375 22.4241 2.56598 22.8197 2.96156 23.2153 3.35716 23.4375 3.8937 23.4375 4.45312L23.4375 21.3281Z" stroke="#66737C" stroke-width="3.33333" stroke-linecap="round" stroke-linejoin="round"/><path d="M23.4375 51.7969C23.4375 52.3563 23.2153 52.8928 22.8197 53.2884 22.4241 53.6841 21.8876 53.9062 21.3281 53.9062L4.45312 53.9062C3.8937 53.9062 3.35716 53.6841 2.96156 53.2884 2.56598 52.8928 2.34375 52.3563 2.34375 51.7969L2.34375 34.9219C2.34375 34.3624 2.56598 33.8259 2.96156 33.4303 3.35716 33.0347 3.8937 32.8125 4.45312 32.8125L21.3281 32.8125C21.8876 32.8125 22.4241 33.0347 22.8197 33.4303 23.2153 33.8259 23.4375 34.3624 23.4375 34.9219L23.4375 51.7969Z" stroke="#66737C" stroke-width="3.33333" stroke-linecap="round" stroke-linejoin="round"/><path d="M30.462 5.27344 53.8995 5.27344" stroke="#66737C" stroke-width="3.33333" stroke-linecap="round" stroke-linejoin="round"/><path d="M30.462 12.8906 53.8995 12.8906" stroke="#66737C" stroke-width="3.33333" stroke-linecap="round" stroke-linejoin="round"/><path d="M30.462 20.5078 53.8995 20.5078" stroke="#66737C" stroke-width="3.33333" stroke-linecap="round" stroke-linejoin="round"/><path d="M30.462 35.7422 53.8995 35.7422" stroke="#66737C" stroke-width="3.33333" stroke-linecap="round" stroke-linejoin="round"/><path d="M30.462 43.3594 53.8995 43.3594" stroke="#66737C" stroke-width="3.33333" stroke-linecap="round" stroke-linejoin="round"/><path d="M30.462 50.9766 53.8995 50.9766" stroke="#66737C" stroke-width="3.33333" stroke-linecap="round" stroke-linejoin="round"/></svg>