<svg width="60" height="60" viewBox="-2.14 -2.14 60 60" xmlns="http://www.w3.org/2000/svg" xmlns:xlink="http://www.w3.org/1999/xlink" id="Volleyball-Ball--Streamline-Ultimate.svg" overflow="hidden"><path d="M1.74125 27.86C1.74125 42.285 13.435 53.9788 27.86 53.9788 42.285 53.9788 53.9788 42.285 53.9788 27.86 53.9788 13.435 42.285 1.74125 27.86 1.74125 13.435 1.74125 1.74125 13.435 1.74125 27.86Z" stroke="#66737C" stroke-width="3.57143" stroke-linecap="round" stroke-linejoin="round" fill="none"/><path d="M47.8519 44.6689C44.6361 35.92 37.0311 29.5259 27.86 27.86" stroke="#66737C" stroke-width="3.57143" stroke-linecap="round" stroke-linejoin="round" fill="none"/><path d="M3.16908 36.4014C12.3376 38.2165 21.7729 34.9525 27.86 27.86" stroke="#66737C" stroke-width="3.57143" stroke-linecap="round" stroke-linejoin="round" fill="none"/><path d="M32.2456 2.10807C26.2496 9.27438 24.5741 19.1129 27.86 27.86" stroke="#66737C" stroke-width="3.57143" stroke-linecap="round" stroke-linejoin="round" fill="none"/><path d="M11.4737 36.6823C5.75157 29.0214 4.6714 18.8466 8.65749 10.155" stroke="#66737C" stroke-width="3.57143" stroke-linecap="round" stroke-linejoin="round" fill="none"/><path d="M20.2148 33.9358C13.4951 24.5112 13.7785 11.7883 20.9113 2.67224" stroke="#66737C" stroke-width="3.57143" stroke-linecap="round" stroke-linejoin="round" fill="none"/><path d="M28.0341 9.18219C37.3246 7.8221 46.6306 11.5507 52.4116 18.9494" stroke="#66737C" stroke-width="3.57143" stroke-linecap="round" stroke-linejoin="round" fill="none"/><path d="M26.2348 18.2506C37.569 16.7339 48.5822 22.724 53.468 33.0629" stroke="#66737C" stroke-width="3.57143" stroke-linecap="round" stroke-linejoin="round" fill="none"/><path d="M43.7193 37.3208C40.1241 46.16 31.9987 52.3384 22.5202 53.4401" stroke="#66737C" stroke-width="3.57143" stroke-linecap="round" stroke-linejoin="round" fill="none"/><path d="M36.8007 31.252C32.2392 41.7952 21.3247 48.1208 9.90887 46.8373" stroke="#66737C" stroke-width="3.57143" stroke-linecap="round" stroke-linejoin="round" fill="none"/></svg>