<svg width="60" height="60" viewBox="-2.14 -2.14 60 60" xmlns="http://www.w3.org/2000/svg" xmlns:xlink="http://www.w3.org/1999/xlink" id="Golf-Ball--Streamline-Ultimate.svg" fill="none" overflow="hidden"><path d="M27.86 40.0488C38.4382 40.0488 47.0137 31.4732 47.0137 20.895 47.0137 10.3167 38.4382 1.74125 27.86 1.74125 17.2817 1.74125 8.70625 10.3167 8.70625 20.895 8.70625 31.4732 17.2817 40.0488 27.86 40.0488Z" stroke="#66737C" stroke-width="3.57143" stroke-linecap="round" stroke-linejoin="round"/><path d="M13.93 42.9903C18.1007 45.6189 22.9301 47.0137 27.86 47.0137 32.7901 47.0137 37.6194 45.6189 41.79 42.9903" stroke="#66737C" stroke-width="3.57143" stroke-linecap="round" stroke-linejoin="round"/><path d="M27.86 47.0137 27.86 53.9787" stroke="#66737C" stroke-width="3.57143" stroke-linecap="round" stroke-linejoin="round"/><path d="M31.3425 26.9894C30.8617 26.9894 30.4719 26.5996 30.4719 26.1187 30.4719 25.6379 30.8617 25.2481 31.3425 25.2481" stroke="#66737C" stroke-width="3.57143"/><path d="M31.3425 26.9894C31.8233 26.9894 32.2131 26.5996 32.2131 26.1187 32.2131 25.6379 31.8233 25.2481 31.3425 25.2481" stroke="#66737C" stroke-width="3.57143"/><path d="M27.86 33.9544C27.3792 33.9544 26.9894 33.5646 26.9894 33.0838 26.9894 32.6029 27.3792 32.2131 27.86 32.2131" stroke="#66737C" stroke-width="3.57143"/><path d="M27.86 33.9544C28.3408 33.9544 28.7306 33.5646 28.7306 33.0838 28.7306 32.6029 28.3408 32.2131 27.86 32.2131" stroke="#66737C" stroke-width="3.57143"/><g><path d="M36.5662 32.2131C36.0854 32.2131 35.6956 31.8233 35.6956 31.3425 35.6956 30.8617 36.0854 30.4719 36.5662 30.4719" stroke="#66737C" stroke-width="3.57143"/><path d="M36.5662 32.2131C37.0471 32.2131 37.4369 31.8233 37.4369 31.3425 37.4369 30.8617 37.0471 30.4719 36.5662 30.4719" stroke="#66737C" stroke-width="3.57143"/></g><g><path d="M40.0488 25.2481C39.5679 25.2481 39.1781 24.8583 39.1781 24.3775 39.1781 23.8967 39.5679 23.5069 40.0488 23.5069" stroke="#66737C" stroke-width="3.57143"/><path d="M40.0488 25.2481C40.5296 25.2481 40.9194 24.8583 40.9194 24.3775 40.9194 23.8967 40.5296 23.5069 40.0488 23.5069" stroke="#66737C" stroke-width="3.57143"/></g></svg>