<svg width="60" height="60" viewBox="-1.875 -1.875 60 60" xmlns="http://www.w3.org/2000/svg" xmlns:xlink="http://www.w3.org/1999/xlink" id="Amazon-Code-Guru-3--Streamline-Ultimate" fill="none" overflow="hidden"><path d="M43.3594 25.6641C43.3594 17.2264 36.5625 10.4296 28.125 10.4296 19.6875 10.4296 12.8906 17.2264 12.8906 25.6641 12.8906 29.8828 14.5312 33.3984 17.1094 36.2109 19.6875 38.7891 21.0938 42.3045 21.0938 45.8201L21.0938 46.2888C21.0938 49.3357 23.6719 51.6795 26.4844 51.6795L29.2969 51.6795C32.3438 51.6795 34.6875 49.1013 34.6875 46.2888L34.6875 45.8201C34.6875 42.3045 36.0938 38.7891 38.6719 36.2109 41.7188 33.3984 43.3594 29.6484 43.3594 25.6641Z" stroke="#66737C" stroke-width="3.33333" stroke-linecap="round" stroke-linejoin="round" stroke-miterlimit="10"/><path d="M28.3594 51.6797 28.3594 54.4924" stroke="#66737C" stroke-width="3.33333" stroke-linecap="round" stroke-linejoin="round" stroke-miterlimit="10"/><path d="M21.3281 41.8357 35.1562 41.8357" stroke="#66737C" stroke-width="3.33333" stroke-linecap="round" stroke-linejoin="round" stroke-miterlimit="10"/><path d="M49.2188 25.1953 51.5625 25.1953" stroke="#66737C" stroke-width="3.33333" stroke-linecap="round" stroke-linejoin="round" stroke-miterlimit="10"/><path d="M28.3594 4.10156 28.3594 1.75781" stroke="#66737C" stroke-width="3.33333" stroke-linecap="round" stroke-linejoin="round" stroke-miterlimit="10"/><path d="M13.3594 9.7264 11.7188 8.08582" stroke="#66737C" stroke-width="3.33333" stroke-linecap="round" stroke-linejoin="round" stroke-miterlimit="10"/><path d="M7.03125 25.1953 4.6875 25.1953" stroke="#66737C" stroke-width="3.33333" stroke-linecap="round" stroke-linejoin="round" stroke-miterlimit="10"/><path d="M43.3594 9.7264 45 8.08582" stroke="#66737C" stroke-width="3.33333" stroke-linecap="round" stroke-linejoin="round" stroke-miterlimit="10"/><path d="M24.6094 23.3202 21.0938 26.8359 24.6094 30.3516" stroke="#66737C" stroke-width="3.33333" stroke-linecap="round" stroke-linejoin="round" stroke-miterlimit="10"/><path d="M31.6406 23.3202 35.1562 26.8359 31.6406 30.3516" stroke="#66737C" stroke-width="3.33333" stroke-linecap="round" stroke-linejoin="round" stroke-miterlimit="10"/></svg>