<svg width="60" height="60" viewBox="-1.875 -1.875 60 60" xmlns="http://www.w3.org/2000/svg" xmlns:xlink="http://www.w3.org/1999/xlink" id="Technology-Robot-Head-5--Streamline-Ultimate" overflow="hidden"><defs></defs><path d="M14.6484 15.2344 41.6016 15.2344C41.6016 15.2344 46.2891 15.2344 46.2891 19.9219L46.2891 44.5312C46.2891 44.5312 46.2891 49.2188 41.6016 49.2188L14.6484 49.2188C14.6484 49.2188 9.96094 49.2188 9.96094 44.5312L9.96094 19.9219C9.96094 19.9219 9.96094 15.2344 14.6484 15.2344" stroke="#66737C" stroke-width="3.33333" stroke-linecap="round" stroke-linejoin="round" fill="none"/><path d="M16.4062 26.3672C16.4062 28.3088 17.9802 29.8828 19.9219 29.8828 21.8635 29.8828 23.4375 28.3088 23.4375 26.3672 23.4375 24.4256 21.8635 22.8516 19.9219 22.8516 17.9802 22.8516 16.4062 24.4256 16.4062 26.3672" stroke="#66737C" stroke-width="3.33333" stroke-linecap="round" stroke-linejoin="round" fill="none"/><path d="M32.8125 26.3672C32.8125 28.3088 34.3865 29.8828 36.3281 29.8828 38.2698 29.8828 39.8438 28.3088 39.8438 26.3672 39.8438 24.4256 38.2698 22.8516 36.3281 22.8516 34.3865 22.8516 32.8125 24.4256 32.8125 26.3672" stroke="#66737C" stroke-width="3.33333" stroke-linecap="round" stroke-linejoin="round" fill="none"/><path d="M23.4375 35.7422 32.8125 35.7422C34.1069 35.7422 35.1562 36.7915 35.1562 38.0859L35.1562 49.2188 35.1562 49.2188 21.0938 49.2188 21.0938 49.2188 21.0938 38.0859C21.0938 36.7915 22.1431 35.7422 23.4375 35.7422Z" stroke="#66737C" stroke-width="3.33333" stroke-linecap="round" stroke-linejoin="round" fill="none"/><path d="M21.0938 42.1875 35.1562 42.1875" stroke="#66737C" stroke-width="3.33333" stroke-linecap="round" stroke-linejoin="round" fill="none"/><path d="M46.2891 25.7812 47.4609 25.7812C51.3442 25.7812 54.4922 28.9292 54.4922 32.8125 54.4922 36.6958 51.3442 39.8438 47.4609 39.8438L46.2891 39.8438" stroke="#66737C" stroke-width="3.33333" stroke-linecap="round" stroke-linejoin="round" fill="none"/><path d="M9.96094 25.7812 8.78906 25.7812C4.90581 25.7812 1.75781 28.9292 1.75781 32.8125 1.75781 36.6958 4.90581 39.8438 8.78906 39.8438L9.96094 39.8438" stroke="#66737C" stroke-width="3.33333" stroke-linecap="round" stroke-linejoin="round" fill="none"/><path d="M54.4922 32.8125 54.4922 7.03125" stroke="#66737C" stroke-width="3.33333" stroke-linecap="round" stroke-linejoin="round" fill="none"/><path d="M1.75781 32.8125 1.75781 7.03125" stroke="#66737C" stroke-width="3.33333" stroke-linecap="round" stroke-linejoin="round" fill="none"/></svg>