<svg width="60" height="60" viewBox="-2.14 -2.14 60 60" xmlns="http://www.w3.org/2000/svg" xmlns:xlink="http://www.w3.org/1999/xlink" id="Airport-Stairs--Streamline-Ultimate.svg" overflow="hidden"><path d="M19.3047 41.79 19.3047 31.3425C19.3047 29.4192 17.7455 27.86 15.8222 27.86L12.7506 27.86C11.4313 27.8596 10.2251 28.6047 9.63492 29.7847L7.11591 34.825 3.44303 37.272C2.47558 37.9169 1.89379 39.0021 1.89216 40.1648L1.89216 45.2725C1.89216 47.1958 3.45133 48.755 5.37466 48.755L10.8956 48.755" stroke="#66737C" stroke-width="3.57143" stroke-linecap="round" stroke-linejoin="round" fill="none"/><path d="M10.5984 47.0137C10.5984 49.8987 12.9372 52.2375 15.8222 52.2375 18.7072 52.2375 21.0459 49.8987 21.0459 47.0137 21.0459 44.1287 18.7072 41.79 15.8222 41.79 12.9372 41.79 10.5984 44.1287 10.5984 47.0137Z" stroke="#66737C" stroke-width="3.57143" stroke-linecap="round" stroke-linejoin="round" fill="none"/><path d="M36.7172 47.0137C36.7172 49.8987 39.0559 52.2375 41.9409 52.2375 44.8259 52.2375 47.1647 49.8987 47.1647 47.0137 47.1647 44.1287 44.8259 41.79 41.9409 41.79 39.0559 41.79 36.7172 44.1287 36.7172 47.0137Z" stroke="#66737C" stroke-width="3.57143" stroke-linecap="round" stroke-linejoin="round" fill="none"/><path d="M53.3983 38.9135 25.5708 4.69673C24.9088 3.92548 23.9429 3.48195 22.9265 3.4825L10.5984 3.4825C9.63803 3.48122 8.85844 4.25872 8.85716 5.2191 8.85716 5.22065 8.85716 5.2222 8.85716 5.22375L8.85716 12.1888C8.85716 13.1504 9.63674 13.93 10.5984 13.93L21.0459 13.93 41.9409 41.79 52.0843 41.79C53.0459 41.7866 53.8227 41.0042 53.8193 40.0426 53.8179 39.6281 53.6686 39.2277 53.3983 38.9135Z" stroke="#66737C" stroke-width="3.57143" stroke-linecap="round" stroke-linejoin="round" fill="none"/><path d="M19.3047 41.79 41.9409 41.79" stroke="#66737C" stroke-width="3.57143" stroke-linecap="round" stroke-linejoin="round" fill="none"/><path d="M20.7464 48.755 37.0143 48.755" stroke="#66737C" stroke-width="3.57143" stroke-linecap="round" stroke-linejoin="round" fill="none"/></svg>