<svg width="60" height="60" viewBox="-1.875 -1.875 60 60" xmlns="http://www.w3.org/2000/svg" xmlns:xlink="http://www.w3.org/1999/xlink" id="Cashless-Payment-Qr-Code-Basket--Streamline-Ultimate" overflow="hidden"><defs></defs><path d="M50.5898 40.4297 32.6133 40.4297C30.6717 40.4353 29.1023 42.0139 29.1079 43.9555 29.1091 44.3739 29.185 44.7887 29.332 45.1805L32.3977 53.3508C32.6529 54.0362 33.3068 54.4912 34.0383 54.4922L49.1789 54.4922C49.9103 54.4912 50.5643 54.0362 50.8195 53.3508L53.8852 45.1805C54.5673 43.3626 53.6467 41.336 51.8288 40.6538 51.4327 40.5051 51.013 40.4292 50.5898 40.4297Z" stroke="#66737C" stroke-width="3.33333" stroke-linecap="round" stroke-linejoin="round" fill="none"/><path d="M32.8125 40.4297 36.3281 31.6406" stroke="#66737C" stroke-width="3.33333" stroke-linecap="round" stroke-linejoin="round" fill="none"/><path d="M50.3906 40.4297 46.875 31.6406" stroke="#66737C" stroke-width="3.33333" stroke-linecap="round" stroke-linejoin="round" fill="none"/><path d="M38.0859 49.2188 38.0859 45.7031" stroke="#66737C" stroke-width="3.33333" stroke-linecap="round" stroke-linejoin="round" fill="none"/><path d="M45.1172 49.2188 45.1172 45.7031" stroke="#66737C" stroke-width="3.33333" stroke-linecap="round" stroke-linejoin="round" fill="none"/><path d="M23.2336 54.4922 9.17109 54.4922C5.28784 54.4922 2.13984 51.3442 2.13984 47.4609L2.13984 8.78906C2.13984 4.90581 5.28784 1.75781 9.17109 1.75781L26.7492 1.75781C30.6325 1.75781 33.7805 4.90581 33.7805 8.78906L33.7805 24.0234" stroke="#66737C" stroke-width="3.33333" stroke-linecap="round" stroke-linejoin="round" fill="none"/><path d="M2.13984 44.8242 22.0617 44.8242" stroke="#66737C" stroke-width="3.33333" stroke-linecap="round" stroke-linejoin="round" fill="none"/><path d="M9.17109 14.9414 9.17109 11.4258 12.6867 11.4258" stroke="#66737C" stroke-width="3.33333" stroke-linecap="round" stroke-linejoin="round" fill="none"/><path d="M19.718 11.4258 26.7492 11.4258 26.7492 18.457 19.718 18.457Z" stroke="#66737C" stroke-width="3.33333" stroke-linecap="round" stroke-linejoin="round" fill="none"/><path d="M9.17109 29.0039 16.2023 29.0039 16.2023 36.0352 9.17109 36.0352Z" stroke="#66737C" stroke-width="3.33333" stroke-linecap="round" stroke-linejoin="round" fill="none"/><path d="M9.17109 21.9727 16.2023 21.9727" stroke="#66737C" stroke-width="3.33333" stroke-linecap="round" stroke-linejoin="round" fill="none"/><path d="M21.4758 25.4883 26.7492 25.4883" stroke="#66737C" stroke-width="3.33333" stroke-linecap="round" stroke-linejoin="round" fill="none"/><path d="M26.7492 32.5195 26.7492 36.0352 21.4758 36.0352" stroke="#66737C" stroke-width="3.33333" stroke-linecap="round" stroke-linejoin="round" fill="none"/></svg>