<svg width="60" height="60" viewBox="-2.14 -2.14 60 60" xmlns="http://www.w3.org/2000/svg" xmlns:xlink="http://www.w3.org/1999/xlink" id="Cloud-Settings--Streamline-Ultimate.svg" overflow="hidden"><path d="M47.5942 32.3571C51.2397 30.6719 53.5249 26.9708 53.3983 22.9566 53.309 16.918 48.3414 12.0952 42.3028 12.1845 42.1674 12.1865 42.032 12.191 41.8968 12.198 39.2547 6.87063 33.8065 3.51574 27.86 3.55447 19.759 3.44694 12.9717 9.65876 12.3629 17.7375 7.90181 16.7583 3.49159 19.5809 2.51237 24.042 2.39621 24.5711 2.33234 25.1104 2.32167 25.6521 2.13329 29.2675 4.5894 32.4879 8.12583 33.2625" stroke="#66737C" stroke-width="3.57143" stroke-linecap="round" stroke-linejoin="round" fill="none"/><path d="M25.1019 37.2186C25.1019 39.0625 26.5966 40.5572 28.4404 40.5572 30.2843 40.5572 31.779 39.0625 31.779 37.2186 31.779 35.3748 30.2843 33.8801 28.4404 33.8801 26.5966 33.8801 25.1019 35.3748 25.1019 37.2186Z" stroke="#66737C" stroke-width="3.57143" stroke-linecap="round" stroke-linejoin="round" fill="none"/><path d="M31.2752 24.3078 32.2596 27.5396C32.5944 28.6545 33.7373 29.3178 34.8714 29.0557L38.1473 28.2965C39.7521 27.9347 41.3463 28.9425 41.7081 30.5473 41.9244 31.5073 41.6527 32.5122 40.9821 33.2323L38.6883 35.7026C37.9034 36.5556 37.9034 37.8678 38.6883 38.7208L40.9797 41.1933C42.1009 42.3972 42.0339 44.282 40.83 45.4032 40.1099 46.0739 39.105 46.3456 38.145 46.1292L34.8691 45.37C33.7362 45.1171 32.6009 45.7847 32.2712 46.8977L31.2868 50.1294C30.816 51.695 29.1653 52.5826 27.5997 52.1118 26.648 51.8257 25.9034 51.0811 25.6173 50.1294L24.6213 46.8977C24.2864 45.7828 23.1435 45.1194 22.0094 45.3816L18.7335 46.1408C17.1287 46.5025 15.5345 45.4948 15.1728 43.89 14.9564 42.93 15.2281 41.9251 15.8988 41.2049L18.1903 38.7324C18.9751 37.8794 18.9751 36.5672 18.1903 35.7142L15.8988 33.2416C14.7776 32.0378 14.8446 30.1529 16.0485 29.0318 16.7686 28.3611 17.7735 28.0894 18.7335 28.3058L22.0094 29.0649C23.1434 29.3259 24.2855 28.663 24.6213 27.5489L25.6057 24.3171C26.0738 22.7508 27.7231 21.8605 29.2895 22.3287 30.2417 22.6133 30.9875 23.3566 31.2752 24.3078Z" stroke="#66737C" stroke-width="3.57143" stroke-linecap="round" stroke-linejoin="round" fill="none"/></svg>