<svg width="60" height="60" viewBox="-1.875 -1.875 60 60" xmlns="http://www.w3.org/2000/svg" xmlns:xlink="http://www.w3.org/1999/xlink" id="Task-List-Star--Streamline-Ultimate" fill="none" overflow="hidden"><path d="M41.8298 27.3766 45.4416 36.9157 52.4728 36.9157C52.8274 36.9019 53.1778 36.9977 53.4757 37.1904 53.7738 37.383 54.0049 37.6631 54.1378 37.9922 54.2707 38.321 54.2986 38.6831 54.218 39.0288 54.1373 39.3743 53.9517 39.6865 53.6869 39.9227L47.5931 44.1766 50.9728 51.9438C51.1205 52.2994 51.153 52.6924 51.0659 53.0674 50.9784 53.4424 50.7759 53.7806 50.4865 54.0347 50.1973 54.2887 49.8354 54.4455 49.4522 54.4833 49.069 54.5213 48.6837 54.4378 48.3502 54.2454L40.1728 49.6493 32.0002 54.2454C31.6669 54.4378 31.2813 54.5213 30.8981 54.4833 30.5149 54.4455 30.1533 54.2887 29.8638 54.0347 29.5746 53.7806 29.3719 53.4424 29.2847 53.0674 29.1975 52.6924 29.2301 52.2994 29.3775 51.9438L32.7595 44.1766 26.6658 39.9227C26.4002 39.6874 26.2137 39.3759 26.1321 39.0305 26.0505 38.6852 26.0775 38.3231 26.2097 37.9938 26.3419 37.6645 26.5727 37.3842 26.8704 37.1911 27.1683 36.9982 27.5184 36.9019 27.8728 36.9157L34.9041 36.9157 38.5228 27.3766C38.6829 27.0771 38.9212 26.8268 39.2126 26.6524 39.5037 26.4778 39.837 26.3857 40.1763 26.3857 40.5159 26.3857 40.849 26.4778 41.1403 26.6524 41.4314 26.8268 41.6698 27.0771 41.8298 27.3766Z" stroke="#66737C" stroke-width="3.33333" stroke-linecap="round" stroke-linejoin="round"/><path d="M12.3047 24.6352 28.125 24.6352" stroke="#66737C" stroke-width="3.33333" stroke-linecap="round" stroke-linejoin="round"/><path d="M12.3047 33.4242 17.5781 33.4242" stroke="#66737C" stroke-width="3.33333" stroke-linecap="round" stroke-linejoin="round"/><path d="M12.3047 42.2133 17.5781 42.2133" stroke="#66737C" stroke-width="3.33333" stroke-linecap="round" stroke-linejoin="round"/><path d="M21.0938 54.4922 5.27344 54.4922C4.34105 54.4922 3.44681 54.1219 2.78752 53.4626 2.12821 52.8033 1.75781 51.9089 1.75781 50.9766L1.75781 14.0625C1.75781 13.1301 2.12821 12.2359 2.78752 11.5766 3.44681 10.9173 4.34105 10.5469 5.27344 10.5469L14.0625 10.5469C14.0625 8.21587 14.9885 5.98034 16.6368 4.33207 18.285 2.6838 20.5206 1.75781 22.8516 1.75781 25.1827 1.75781 27.4181 2.6838 29.0665 4.33207 30.7146 5.98034 31.6406 8.21587 31.6406 10.5469L40.4297 10.5469C41.362 10.5469 42.2564 10.9173 42.9157 11.5766 43.575 12.2359 43.9453 13.1301 43.9453 14.0625L43.9453 19.3359" stroke="#66737C" stroke-width="3.33333" stroke-linecap="round" stroke-linejoin="round"/><path d="M22.8516 10.5726C22.3661 10.5726 21.9727 10.1791 21.9727 9.69373 21.9727 9.20831 22.3661 8.81482 22.8516 8.81482" stroke="#66737C" stroke-width="3.33333"/><path d="M22.8516 10.5726C23.337 10.5726 23.7305 10.1791 23.7305 9.69373 23.7305 9.20831 23.337 8.81482 22.8516 8.81482" stroke="#66737C" stroke-width="3.33333"/></svg>