<svg width="44.8" height="44.8" viewBox="-1.6 -1.6 44.8 44.8" xmlns="http://www.w3.org/2000/svg" xmlns:xlink="http://www.w3.org/1999/xlink" id="Business-User-Curriculum--Streamline-Core" fill="none" overflow="hidden"><g id="business-user-curriculum"><path d="M37.1429 37.1429C37.1429 37.9309 36.8297 38.6868 36.2725 39.244 35.7154 39.8011 34.9594 40.1143 34.1714 40.1143L7.42857 40.1143C6.64049 40.1143 5.88471 39.8011 5.32744 39.244 4.77021 38.6868 4.45714 37.9309 4.45714 37.1429L4.45714 4.45714C4.45714 3.66906 4.77021 2.91328 5.32744 2.35602 5.88471 1.79878 6.64049 1.48571 7.42857 1.48571L24.0263 1.48571C24.8144 1.48571 25.5702 1.79878 26.1274 2.35602L36.2725 12.5011C36.8297 13.0584 37.1429 13.8142 37.1429 14.6022L37.1429 37.1429Z" id="Vector" stroke="#66737C" stroke-width="2.67857" stroke-linecap="round" stroke-linejoin="round"/><path d="M10.4 17.6504C10.9431 16.6173 11.7065 15.7635 12.6167 15.171 13.527 14.5785 14.5534 14.2673 15.5974 14.2673 16.6413 14.2673 17.6678 14.5785 18.578 15.171 19.4882 15.7635 20.2516 16.6173 20.7947 17.6504" id="Vector_2" stroke="#66737C" stroke-width="2.67857" stroke-linecap="round" stroke-linejoin="round"/><path d="M12.1759 10.8475C12.1759 12.7354 13.7063 14.2658 15.5941 14.2658 16.0714 14.2658 16.5258 14.1679 16.9384 13.9913 18.158 13.4691 19.0124 12.2581 19.0124 10.8475 19.0124 8.95969 17.482 7.42928 15.5941 7.42928 13.7063 7.42928 12.1759 8.95969 12.1759 10.8475Z" id="Vector_3" stroke="#66737C" stroke-width="2.67857" stroke-linecap="round" stroke-linejoin="round"/><path d="M10.4 25.2571 31.2 25.2571" id="Vector 2531" stroke="#66737C" stroke-width="2.67857" stroke-linecap="round" stroke-linejoin="round"/><path d="M10.4 32.6857 22.2857 32.6857" id="Vector 2532" stroke="#66737C" stroke-width="2.67857" stroke-linecap="round" stroke-linejoin="round"/></g></svg>