<svg width="60" height="60" viewBox="-1.875 -1.875 60 60" xmlns="http://www.w3.org/2000/svg" xmlns:xlink="http://www.w3.org/1999/xlink" id="Book-Close-Bookmark-1--Streamline-Ultimate" overflow="hidden"><path d="M49.2188 54.4922 12.3047 54.4922C9.39225 54.4922 7.03125 52.1312 7.03125 49.2188" stroke="#66737C" stroke-width="3.33333" stroke-linecap="round" stroke-linejoin="round" fill="none"/><path d="M28.125 5.27344 14.0625 5.27344C10.1792 5.27344 7.03125 8.42144 7.03125 12.3047L7.03125 49.2188C7.03125 46.3063 9.39225 43.9453 12.3047 43.9453L47.4609 43.9453C48.4318 43.9453 49.2188 43.1583 49.2188 42.1875L49.2188 7.03125C49.2188 6.06044 48.4318 5.27344 47.4609 5.27344L42.1875 5.27344" stroke="#66737C" stroke-width="3.33333" stroke-linecap="round" stroke-linejoin="round" fill="none"/><path d="M45.7031 54.4922 45.7031 43.9453" stroke="#66737C" stroke-width="3.33333" stroke-linecap="round" stroke-linejoin="round" fill="none"/><path d="M42.1875 29.8828 35.1562 22.8516 28.125 29.8828 28.125 5.27344C28.125 3.33181 29.699 1.75781 31.6406 1.75781L38.6719 1.75781C40.6135 1.75781 42.1875 3.33181 42.1875 5.27344Z" stroke="#66737C" stroke-width="3.33333" stroke-linecap="round" stroke-linejoin="round" fill="none"/></svg>