<svg width="60" height="60" viewBox="-2.14 -2.14 60 60" xmlns="http://www.w3.org/2000/svg" xmlns:xlink="http://www.w3.org/1999/xlink" id="Lab-Flask-Experiment--Streamline-Ultimate.svg" fill="none" overflow="hidden"><path d="M15.6156 1.74125 39.993 1.74125" stroke="#66737C" stroke-width="3.57143" stroke-linecap="round" stroke-linejoin="round"/><path d="M36.5105 19.1537 36.5105 1.74125 19.0981 1.74125 19.0981 19.1537 3.45703 43.2178C2.77416 44.2684 2.38732 45.4835 2.33729 46.7356 2.28724 47.9875 2.57584 49.2298 3.17267 50.3314 3.7695 51.433 4.65246 52.3534 5.72848 52.9953 6.80453 53.6372 8.03378 53.9769 9.28674 53.9787L46.3126 53.9787C47.5663 53.9785 48.7968 53.64 49.8743 52.9988 50.9515 52.3575 51.8358 51.4375 52.4339 50.3356 53.0317 49.2335 53.3213 47.9907 53.2716 46.7379 53.2219 45.4852 52.8349 44.2691 52.1516 43.2178L36.5105 19.1537Z" stroke="#66737C" stroke-width="3.57143" stroke-linecap="round" stroke-linejoin="round"/><path d="M12.3072 29.6012 43.3014 29.6012" stroke="#66737C" stroke-width="3.57143" stroke-linecap="round" stroke-linejoin="round"/><path d="M33.028 40.0488 39.993 40.0488" stroke="#66737C" stroke-width="3.57143" stroke-linecap="round" stroke-linejoin="round"/><path d="M36.5105 36.5662 36.5105 43.5312" stroke="#66737C" stroke-width="3.57143" stroke-linecap="round" stroke-linejoin="round"/><path d="M36.5105 8.70625 29.5455 8.70625" stroke="#66737C" stroke-width="3.57143" stroke-linecap="round" stroke-linejoin="round"/><path d="M36.5105 15.6713 29.5455 15.6713" stroke="#66737C" stroke-width="3.57143" stroke-linecap="round" stroke-linejoin="round"/><path d="M15.6156 46.1431C15.1347 46.1431 14.7449 45.7533 14.7449 45.2725 14.7449 44.7917 15.1347 44.4019 15.6156 44.4019" stroke="#66737C" stroke-width="3.57143"/><path d="M15.6156 46.1431C16.0964 46.1431 16.4862 45.7533 16.4862 45.2725 16.4862 44.7917 16.0964 44.4019 15.6156 44.4019" stroke="#66737C" stroke-width="3.57143"/><g><path d="M22.5806 39.1781C22.0997 39.1781 21.7099 38.7883 21.7099 38.3075 21.7099 37.8267 22.0997 37.4369 22.5806 37.4369" stroke="#66737C" stroke-width="3.57143"/><path d="M22.5806 39.1781C23.0614 39.1781 23.4512 38.7883 23.4512 38.3075 23.4512 37.8267 23.0614 37.4369 22.5806 37.4369" stroke="#66737C" stroke-width="3.57143"/></g></svg>