<svg width="60" height="60" viewBox="-2.14 -2.14 60 60" xmlns="http://www.w3.org/2000/svg" xmlns:xlink="http://www.w3.org/1999/xlink" id="Lab-Tube-Experiment--Streamline-Ultimate.svg" fill="none" overflow="hidden"><path d="M34.825 45.2725C34.825 47.5816 33.9077 49.796 32.2751 51.4289 30.6423 53.0615 28.4279 53.9787 26.1187 53.9787 23.8096 53.9787 21.5952 53.0615 19.9625 51.4289 18.3298 49.796 17.4125 47.5816 17.4125 45.2725L17.4125 1.74125 34.825 1.74125 34.825 45.2725Z" stroke="#66737C" stroke-width="3.57143" stroke-linecap="round" stroke-linejoin="round"/><path d="M40.0488 1.74125 12.1888 1.74125" stroke="#66737C" stroke-width="3.57143" stroke-linecap="round" stroke-linejoin="round"/><path d="M34.825 12.1888 17.4125 12.1888" stroke="#66737C" stroke-width="3.57143" stroke-linecap="round" stroke-linejoin="round"/><path d="M3.4825 29.6012 10.4475 29.6012" stroke="#66737C" stroke-width="3.57143" stroke-linecap="round" stroke-linejoin="round"/><path d="M6.965 26.1187 6.965 33.0838" stroke="#66737C" stroke-width="3.57143" stroke-linecap="round" stroke-linejoin="round"/><path d="M48.755 15.6713C50.6783 15.6713 52.2375 14.1121 52.2375 12.1888 52.2375 10.2654 50.6783 8.70625 48.755 8.70625 46.8317 8.70625 45.2725 10.2654 45.2725 12.1888 45.2725 14.1121 46.8317 15.6713 48.755 15.6713Z" stroke="#66737C" stroke-width="3.57143" stroke-linecap="round" stroke-linejoin="round"/><path d="M28.7306 20.895C28.2498 20.895 27.86 20.5052 27.86 20.0244 27.86 19.5435 28.2498 19.1537 28.7306 19.1537" stroke="#66737C" stroke-width="3.57143"/><path d="M28.7306 20.895C29.2114 20.895 29.6012 20.5052 29.6012 20.0244 29.6012 19.5435 29.2114 19.1537 28.7306 19.1537" stroke="#66737C" stroke-width="3.57143"/><path d="M23.5069 31.3425C23.026 31.3425 22.6362 30.9527 22.6362 30.4719 22.6362 29.9911 23.026 29.6012 23.5069 29.6012" stroke="#66737C" stroke-width="3.57143"/><path d="M23.5069 31.3425C23.9877 31.3425 24.3775 30.9527 24.3775 30.4719 24.3775 29.9911 23.9877 29.6012 23.5069 29.6012" stroke="#66737C" stroke-width="3.57143"/><g><path d="M26.9894 41.79C26.5086 41.79 26.1187 41.4002 26.1187 40.9194 26.1187 40.4386 26.5086 40.0488 26.9894 40.0488" stroke="#66737C" stroke-width="3.57143"/><path d="M26.9894 41.79C27.4702 41.79 27.86 41.4002 27.86 40.9194 27.86 40.4386 27.4702 40.0488 26.9894 40.0488" stroke="#66737C" stroke-width="3.57143"/></g></svg>