<svg width="60" height="60" viewBox="-2.14 -2.14 60 60" xmlns="http://www.w3.org/2000/svg" xmlns:xlink="http://www.w3.org/1999/xlink" id="Lab-Tube-Bottle--Streamline-Ultimate.svg" overflow="hidden"><path d="M36.5662 17.4125 36.5662 8.70625 47.0137 8.70625 47.0137 48.755C47.011 51.6426 44.6679 53.9812 41.7804 53.9784 41.1906 53.9778 40.6051 53.8775 40.0487 53.6816" stroke="#66737C" stroke-width="3.57143" stroke-linecap="round" stroke-linejoin="round" fill="none"/><path d="M50.4963 8.70625 33.0838 8.70625" stroke="#66737C" stroke-width="3.57143" stroke-linecap="round" stroke-linejoin="round" fill="none"/><path d="M15.6713 1.74125 29.6012 1.74125" stroke="#66737C" stroke-width="3.57143" stroke-linecap="round" stroke-linejoin="round" fill="none"/><path d="M26.1187 19.502 26.1187 1.74125 19.1537 1.74125 19.1537 19.502C9.73139 21.4253 3.65222 30.6228 5.57555 40.0452 7.49889 49.4676 16.6964 55.5467 26.1187 53.6234 35.5411 51.7001 41.6203 42.5026 39.6969 33.0802 38.3011 26.2419 32.957 20.8979 26.1187 19.502Z" stroke="#66737C" stroke-width="3.57143" stroke-linecap="round" stroke-linejoin="round" fill="none"/><path d="M39.7005 40.0488 5.572 40.0488" stroke="#66737C" stroke-width="3.57143" stroke-linecap="round" stroke-linejoin="round" fill="none"/></svg>