<svg width="60" height="60" viewBox="-2.14 -2.14 60 60" xmlns="http://www.w3.org/2000/svg" xmlns:xlink="http://www.w3.org/1999/xlink" id="Science-Brain--Streamline-Ultimate.svg" fill="none" overflow="hidden"><path d="M10.9676 8.67839C12.2096 4.4785 14.2434 1.74125 16.5419 1.74125 18.8403 1.74125 20.8741 4.4785 22.1139 8.67839" stroke="#66737C" stroke-width="3.57143" stroke-linecap="round" stroke-linejoin="round"/><path d="M22.1138 27.8879C20.8741 32.0878 18.8403 34.825 16.5418 34.825 14.2434 34.825 12.2096 32.0878 10.9698 27.8879" stroke="#66737C" stroke-width="3.57143" stroke-linecap="round" stroke-linejoin="round"/><path d="M19.934 24.1976C27.8883 19.6367 32.8181 13.291 30.945 10.024 29.0717 6.75707 21.1049 7.80598 13.1506 12.3668 5.19622 16.9277 0.266437 23.2733 2.13964 26.5404 4.01284 29.8074 11.9797 28.7585 19.934 24.1976Z" stroke="#66737C" stroke-width="3.57143" stroke-linecap="round" stroke-linejoin="round"/><path d="M30.9439 26.5415C32.817 23.2745 27.8872 16.9289 19.9329 12.368 11.9785 7.80714 4.0117 6.75821 2.1385 10.0252 0.265304 13.2921 5.19508 19.6378 13.1495 24.1987 21.1038 28.7596 29.0707 29.8086 30.9439 26.5415Z" stroke="#66737C" stroke-width="3.57143" stroke-linecap="round" stroke-linejoin="round"/><path d="M12.1888 53.9787 12.1888 45.2725" stroke="#66737C" stroke-width="3.57143" stroke-linecap="round" stroke-linejoin="round"/><path d="M26.9894 1.74125C43.5638 1.74125 47.1414 15.388 53.0501 30.7157 53.1513 30.9796 53.1868 31.264 53.1536 31.5447 53.1207 31.8254 53.0197 32.0938 52.8597 32.3267 52.7 32.5597 52.4857 32.7504 52.2359 32.8822 51.9858 33.0141 51.7075 33.0833 51.4249 33.0838L47.0137 33.0838 47.0137 40.0488C47.0137 41.8959 46.2799 43.6675 44.9737 44.9737 43.6675 46.2799 41.8959 47.0137 40.0488 47.0137L36.5662 47.0137 36.5662 53.9787" stroke="#66737C" stroke-width="3.57143" stroke-linecap="round" stroke-linejoin="round"/><path d="M16.5413 19.1528C16.0605 19.1528 15.6707 18.763 15.6707 18.2822 15.6707 17.8014 16.0605 17.4116 16.5413 17.4116" stroke="#66737C" stroke-width="3.57143"/><path d="M16.5413 19.1528C17.0221 19.1528 17.4119 18.763 17.4119 18.2822 17.4119 17.8014 17.0221 17.4116 16.5413 17.4116" stroke="#66737C" stroke-width="3.57143"/></svg>