<svg width="60" height="60" viewBox="-2.14 -2.14 60 60" xmlns="http://www.w3.org/2000/svg" xmlns:xlink="http://www.w3.org/1999/xlink" id="Anxiety-Disorder-Symptoms-1--Streamline-Ultimate.svg" fill="none" overflow="hidden"><path d="M10.8546 53.9787 10.8546 39.4335C7.64662 36.4615 5.40934 32.5913 4.43494 28.3283 3.46056 24.0652 3.79432 19.6073 5.3927 15.5368 6.99105 11.4663 9.7797 7.97237 13.3945 5.51129 17.0093 3.05021 21.2822 1.73634 25.6553 1.74126 42.2297 1.74126 45.8074 15.388 51.7161 30.7157 51.8173 30.9796 51.8528 31.264 51.8196 31.5447 51.7864 31.8254 51.6856 32.0938 51.5257 32.3269 51.3657 32.5597 51.1517 32.7504 50.9016 32.8822 50.6516 33.0141 50.3734 33.0833 50.0909 33.0838L45.6797 33.0838 45.6797 40.0488C45.6797 41.8961 44.9458 43.6675 43.6397 44.9737 42.3335 46.2799 40.5618 47.0137 38.7147 47.0137L35.2322 47.0137 35.2322 53.9787" stroke="#66737C" stroke-width="3.57143" stroke-linecap="round" stroke-linejoin="round"/><path d="M12.999 22.5898C12.999 29.3856 18.5081 34.8946 25.3038 34.8946 32.0996 34.8946 37.6087 29.3856 37.6087 22.5898 37.6087 15.794 32.0996 10.285 25.3038 10.285 18.5081 10.285 12.999 15.794 12.999 22.5898" stroke="#66737C" stroke-width="3.57143"/><path d="M25.3048 16.3766 25.3048 21.6494" stroke="#66737C" stroke-width="3.57143" stroke-linecap="round" stroke-linejoin="round"/><path d="M25.3041 28.8012C24.8219 28.8012 24.4307 28.4102 24.4307 27.928 24.4307 27.4456 24.8219 27.0546 25.3041 27.0546" stroke="#66737C" stroke-width="3.57143" stroke-linecap="round" stroke-linejoin="round"/><path d="M25.3043 28.8012C25.7868 28.8012 26.1777 28.4102 26.1777 27.928 26.1777 27.4456 25.7868 27.0546 25.3043 27.0546" stroke="#66737C" stroke-width="3.57143" stroke-linecap="round" stroke-linejoin="round"/></svg>