<svg width="60" height="60" viewBox="-2.14 -2.14 60 60" xmlns="http://www.w3.org/2000/svg" xmlns:xlink="http://www.w3.org/1999/xlink" id="Adhd-Disorder-Symptoms-2--Streamline-Ultimate.svg" fill="none" overflow="hidden"><path d="M10.8546 53.9787 10.8546 39.4335C7.64662 36.4615 5.40934 32.5913 4.43494 28.3283 3.46056 24.0652 3.79432 19.6073 5.3927 15.5368 6.99105 11.4663 9.7797 7.97237 13.3945 5.51129 17.0093 3.05021 21.2822 1.73634 25.6553 1.74126 42.2297 1.74126 45.8074 15.388 51.7161 30.7157 51.8173 30.9796 51.8528 31.264 51.8196 31.5447 51.7864 31.8254 51.6856 32.0938 51.5257 32.3269 51.3657 32.5597 51.1517 32.7504 50.9016 32.8822 50.6516 33.0141 50.3734 33.0833 50.0909 33.0838L45.6797 33.0838 45.6797 40.0488C45.6797 41.8961 44.9458 43.6675 43.6397 44.9737 42.3335 46.2799 40.5618 47.0137 38.7147 47.0137L35.2322 47.0137 35.2322 53.9787" stroke="#66737C" stroke-width="3.57143" stroke-linecap="round" stroke-linejoin="round"/><path d="M12.1275 21.0076C13.0861 14.8734 18.8364 9.84668 27.6209 10.5282L29.8552 10.774" stroke="#66737C" stroke-width="3.57143" stroke-linecap="round" stroke-linejoin="round"/><path d="M26.783 7.0506 30.1986 10.4661 26.783 13.8818" stroke="#66737C" stroke-width="3.57143" stroke-linecap="round" stroke-linejoin="round"/><path d="M34.9773 32.5324 30.1529 32.2932 30.3922 27.4686" stroke="#66737C" stroke-width="3.57143" stroke-linecap="round" stroke-linejoin="round"/><path d="M21.0661 19.66 25.706 21.0036 24.3624 25.6433" stroke="#66737C" stroke-width="3.57143" stroke-linecap="round" stroke-linejoin="round"/><path d="M37.6567 16.6615C39.323 21.0239 36.8641 27.6069 31.7086 30.6209L30.1817 31.4514" stroke="#66737C" stroke-width="3.57143" stroke-linecap="round" stroke-linejoin="round"/><path d="M23.8997 34.5097C16.345 39.0265 12.2979 30.6096 18.2599 25.4682 20.246 23.7555 23.3348 22.1241 24.0973 21.8669L25.6112 21.2578" stroke="#66737C" stroke-width="3.57143" stroke-linecap="round" stroke-linejoin="round"/></svg>