<svg width="60" height="60" viewBox="-2.14 -2.14 60 60" xmlns="http://www.w3.org/2000/svg" xmlns:xlink="http://www.w3.org/1999/xlink" id="Construction-Shovel--Streamline-Ultimate.svg" overflow="hidden"><path d="M22.3646 43.8238C21.0393 42.4885 19.5727 41.3013 17.9906 40.2832 13.2237 37.2656 6.91305 38.6837 3.89543 43.4506 3.521 44.0421 3.20836 44.6705 2.96245 45.3259 2.06326 48.1191 1.6502 51.0458 1.74125 53.9787L53.9787 53.9787C53.9787 45.2725 52.205 36.4061 43.8006 33.5852 39.8265 32.2533 35.4641 32.7793 31.9206 35.0177 26.7331 38.5726 22.312 43.1326 18.9193 48.4276" stroke="#66737C" stroke-width="3.57143" stroke-linecap="round" stroke-linejoin="round" fill="none"/><path d="M1.74125 12.2166 12.2166 1.74125" stroke="#66737C" stroke-width="3.57143" stroke-linecap="round" stroke-linejoin="round" fill="none"/><path d="M6.97893 6.97893 22.6943 22.6943" stroke="#66737C" stroke-width="3.57143" stroke-linecap="round" stroke-linejoin="round" fill="none"/><path d="M23.3861 33.8615 20.0755 30.5508C18.6352 29.102 18.6352 26.762 20.0755 25.3131L25.3062 20.0755C26.755 18.6352 29.095 18.6352 30.5438 20.0755L33.8545 23.3861C34.2611 23.7924 34.5679 24.2876 34.7507 24.8325L35.8372 28.0968" stroke="#66737C" stroke-width="3.57143" stroke-linecap="round" stroke-linejoin="round" fill="none"/></svg>