<svg width="60" height="60" viewBox="-1.875 -1.875 60 60" xmlns="http://www.w3.org/2000/svg" xmlns:xlink="http://www.w3.org/1999/xlink" id="Construction-House-1--Streamline-Ultimate" overflow="hidden"><defs></defs><path d="M54.4922 22.8516 1.75781 22.8516 17.5781 1.75781 33.3984 22.8516" stroke="#66737C" stroke-width="3.57143" stroke-linecap="round" stroke-linejoin="round" fill="none"/><path d="M31.6406 1.75781 47.4609 22.8516" stroke="#66737C" stroke-width="3.57143" stroke-linecap="round" stroke-linejoin="round" fill="none"/><path d="M38.6719 40.4297 50.9766 40.4297C52.9182 40.4297 54.4922 42.0037 54.4922 43.9453L54.4922 50.9766C54.4922 52.9182 52.9182 54.4922 50.9766 54.4922L14.0625 54.4922" stroke="#66737C" stroke-width="3.57143" stroke-linecap="round" stroke-linejoin="round" fill="none"/><path d="M33.3984 22.8516 33.3984 33.3984" stroke="#66737C" stroke-width="3.57143" stroke-linecap="round" stroke-linejoin="round" fill="none"/><path d="M1.75781 22.8516 1.75781 26.3672" stroke="#66737C" stroke-width="3.57143" stroke-linecap="round" stroke-linejoin="round" fill="none"/><path d="M17.5781 1.75781 43.9453 1.75781" stroke="#66737C" stroke-width="3.57143" stroke-linecap="round" stroke-linejoin="round" fill="none"/><path d="M25.4883 12.3047 49.2188 12.3047" stroke="#66737C" stroke-width="3.57143" stroke-linecap="round" stroke-linejoin="round" fill="none"/><path d="M47.4609 22.8516 47.4609 40.4297" stroke="#66737C" stroke-width="3.57143" stroke-linecap="round" stroke-linejoin="round" fill="none"/><path d="M2.92969 47.4609 26.9531 47.4609C26.9531 47.4609 28.125 47.4609 28.125 48.6328L28.125 53.3203C28.125 53.3203 28.125 54.4922 26.9531 54.4922L2.92969 54.4922C2.92969 54.4922 1.75781 54.4922 1.75781 53.3203L1.75781 48.6328C1.75781 48.6328 1.75781 47.4609 2.92969 47.4609" stroke="#66737C" stroke-width="3.57143" stroke-linecap="round" stroke-linejoin="round" fill="none"/><path d="M8.20312 40.4297 32.2266 40.4297C32.2266 40.4297 33.3984 40.4297 33.3984 41.6016L33.3984 46.2891C33.3984 46.2891 33.3984 47.4609 32.2266 47.4609L8.20312 47.4609C8.20312 47.4609 7.03125 47.4609 7.03125 46.2891L7.03125 41.6016C7.03125 41.6016 7.03125 40.4297 8.20312 40.4297" stroke="#66737C" stroke-width="3.57143" stroke-linecap="round" stroke-linejoin="round" fill="none"/><path d="M2.92969 33.3984 26.9531 33.3984C26.9531 33.3984 28.125 33.3984 28.125 34.5703L28.125 39.2578C28.125 39.2578 28.125 40.4297 26.9531 40.4297L2.92969 40.4297C2.92969 40.4297 1.75781 40.4297 1.75781 39.2578L1.75781 34.5703C1.75781 34.5703 1.75781 33.3984 2.92969 33.3984" stroke="#66737C" stroke-width="3.57143" stroke-linecap="round" stroke-linejoin="round" fill="none"/></svg>