<svg width="60" height="60" viewBox="-1.875 -1.875 60 60" xmlns="http://www.w3.org/2000/svg" xmlns:xlink="http://www.w3.org/1999/xlink" id="Buildings-Modern--Streamline-Ultimate" overflow="hidden"><path d="M5.27344 54.4922 5.27344 14.0625C5.27251 13.4161 5.62741 12.8216 6.19688 12.5156L25.5328 2.10938C26.3873 1.64856 27.4535 1.96768 27.9144 2.82216 28.0518 3.07705 28.1242 3.36196 28.125 3.65156L28.125 54.4922" stroke="#66737C" stroke-width="3.57143" stroke-linecap="round" stroke-linejoin="round" fill="none"/><path d="M50.9766 54.4922 50.9766 30.6633C50.9763 30.1207 50.7254 29.6086 50.2969 29.2758L37.9922 19.7062C37.2281 19.1095 36.1249 19.2452 35.5282 20.0093 35.2863 20.319 35.1554 20.7008 35.1562 21.0938L35.1562 54.4922" stroke="#66737C" stroke-width="3.57143" stroke-linecap="round" stroke-linejoin="round" fill="none"/><path d="M54.4922 54.4922 1.75781 54.4922" stroke="#66737C" stroke-width="3.57143" stroke-linecap="round" stroke-linejoin="round" fill="none"/><path d="M28.125 19.3359 17.5781 19.3359" stroke="#66737C" stroke-width="3.57143" stroke-linecap="round" stroke-linejoin="round" fill="none"/><path d="M28.125 26.3672 14.0625 26.3672" stroke="#66737C" stroke-width="3.57143" stroke-linecap="round" stroke-linejoin="round" fill="none"/><path d="M14.0625 54.4922 21.0938 54.4922 21.0938 47.4609C21.0938 45.5193 19.5198 43.9453 17.5781 43.9453 15.6365 43.9453 14.0625 45.5193 14.0625 47.4609Z" stroke="#66737C" stroke-width="3.57143" stroke-linecap="round" stroke-linejoin="round" fill="none"/><path d="M10.5469 10.1719 10.5469 1.75781" stroke="#66737C" stroke-width="3.57143" stroke-linecap="round" stroke-linejoin="round" fill="none"/><path d="M35.1562 31.6406 40.4297 31.6406" stroke="#66737C" stroke-width="3.57143" stroke-linecap="round" stroke-linejoin="round" fill="none"/><path d="M35.1562 38.6719 43.9453 38.6719" stroke="#66737C" stroke-width="3.57143" stroke-linecap="round" stroke-linejoin="round" fill="none"/><path d="M47.4609 27.0703 47.4609 19.3359" stroke="#66737C" stroke-width="3.57143" stroke-linecap="round" stroke-linejoin="round" fill="none"/></svg>