<svg width="60" height="60" viewBox="-1.875 -1.875 60 60" xmlns="http://www.w3.org/2000/svg" xmlns:xlink="http://www.w3.org/1999/xlink" id="Historical-Building-Pillar--Streamline-Ultimate" overflow="hidden"><path d="M33.4172 19.3359 22.8703 19.3359" stroke="#66737C" stroke-width="3.57143" stroke-linecap="round" stroke-linejoin="round" fill="none"/><path d="M22.8703 12.3047 33.4172 12.3047" stroke="#66737C" stroke-width="3.57143" stroke-linecap="round" stroke-linejoin="round" fill="none"/><path d="M40.4297 26.3672 40.4297 54.4922" stroke="#66737C" stroke-width="3.57143" stroke-linecap="round" stroke-linejoin="round" fill="none"/><path d="M15.8203 54.4922 15.8203 26.3672" stroke="#66737C" stroke-width="3.57143" stroke-linecap="round" stroke-linejoin="round" fill="none"/><path d="M22.8516 26.3672 22.8516 54.4922" stroke="#66737C" stroke-width="3.57143" stroke-linecap="round" stroke-linejoin="round" fill="none"/><path d="M33.3984 26.3672 33.3984 54.4922" stroke="#66737C" stroke-width="3.57143" stroke-linecap="round" stroke-linejoin="round" fill="none"/><path d="M8.84531 10.2164C9.71558 9.47503 10.8404 9.10177 11.9812 9.17578 15.0186 9.36474 17.3276 11.9801 17.1386 15.0174 17.1383 15.0234 17.1379 15.0293 17.1375 15.0352 16.8906 18.8288 13.6151 21.7041 9.82147 21.4573 9.8203 21.4572 9.81913 21.4571 9.81797 21.457 5.07569 21.1562 1.47516 17.068 1.77596 12.3257 1.77616 12.3226 1.77636 12.3195 1.77656 12.3164L1.77656 12.3047C1.77656 6.47981 6.49856 1.75781 12.3234 1.75781L43.9266 1.75781C49.7514 1.75781 54.4734 6.47981 54.4734 12.3047L54.4734 12.3188C54.7794 17.0607 51.1833 21.1528 46.4414 21.4588 46.4383 21.459 46.4351 21.4592 46.432 21.4594 42.6381 21.7025 39.3654 18.824 39.1223 15.0301 39.1222 15.0279 39.122 15.0257 39.1219 15.0234 38.9296 11.9863 41.2358 9.36841 44.2728 9.17611 44.2746 9.176 44.2764 9.17589 44.2781 9.17578 45.4448 9.09971 46.5937 9.49195 47.4703 10.2656" stroke="#66737C" stroke-width="3.57143" stroke-linecap="round" stroke-linejoin="round" fill="none"/></svg>