<svg width="60" height="60" viewBox="-1.875 -1.875 60 60" xmlns="http://www.w3.org/2000/svg" xmlns:xlink="http://www.w3.org/1999/xlink" id="Buildings-1--Streamline-Ultimate" overflow="hidden"><defs></defs><path d="M7.03125 33.3984 17.5781 33.3984" stroke="#66737C" stroke-width="3.57143" stroke-linecap="round" stroke-linejoin="round" fill="none"/><path d="M7.03125 40.4297 17.5781 40.4297" stroke="#66737C" stroke-width="3.57143" stroke-linecap="round" stroke-linejoin="round" fill="none"/><path d="M7.03125 47.4609 17.5781 47.4609" stroke="#66737C" stroke-width="3.57143" stroke-linecap="round" stroke-linejoin="round" fill="none"/><path d="M7.03125 19.3359 17.5781 19.3359" stroke="#66737C" stroke-width="3.57143" stroke-linecap="round" stroke-linejoin="round" fill="none"/><path d="M7.03125 26.3672 17.5781 26.3672" stroke="#66737C" stroke-width="3.57143" stroke-linecap="round" stroke-linejoin="round" fill="none"/><path d="M43.9453 33.3984 47.4609 33.3984" stroke="#66737C" stroke-width="3.57143" stroke-linecap="round" stroke-linejoin="round" fill="none"/><path d="M43.9453 40.4297 47.4609 40.4297" stroke="#66737C" stroke-width="3.57143" stroke-linecap="round" stroke-linejoin="round" fill="none"/><path d="M43.9453 47.4609 47.4609 47.4609" stroke="#66737C" stroke-width="3.57143" stroke-linecap="round" stroke-linejoin="round" fill="none"/><path d="M43.9453 26.3672 47.4609 26.3672" stroke="#66737C" stroke-width="3.57143" stroke-linecap="round" stroke-linejoin="round" fill="none"/><path d="M2.92969 8.78906 21.6797 8.78906C22.3269 8.78906 22.8516 9.31373 22.8516 9.96094L22.8516 54.4922 22.8516 54.4922 2.92969 54.4922C2.28248 54.4922 1.75781 53.9675 1.75781 53.3203L1.75781 9.96094C1.75781 9.31373 2.28248 8.78906 2.92969 8.78906Z" stroke="#66737C" stroke-width="3.57143" stroke-linecap="round" stroke-linejoin="round" fill="none"/><path d="M22.8516 29.8828 36.9141 29.8828 36.9141 54.4922 22.8516 54.4922Z" stroke="#66737C" stroke-width="3.57143" stroke-linecap="round" stroke-linejoin="round" fill="none"/><path d="M38.0859 15.8203 53.3203 15.8203C53.9675 15.8203 54.4922 16.345 54.4922 16.9922L54.4922 53.3203C54.4922 53.9675 53.9675 54.4922 53.3203 54.4922L36.9141 54.4922 36.9141 54.4922 36.9141 16.9922C36.9141 16.345 37.4387 15.8203 38.0859 15.8203Z" stroke="#66737C" stroke-width="3.57143" stroke-linecap="round" stroke-linejoin="round" fill="none"/><path d="M8.78906 1.75781 8.78906 8.78906" stroke="#66737C" stroke-width="3.57143" stroke-linecap="round" stroke-linejoin="round" fill="none"/></svg>