<svg width="60" height="60" viewBox="-2.14 -2.14 60 60" xmlns="http://www.w3.org/2000/svg" xmlns:xlink="http://www.w3.org/1999/xlink" id="Building-1--Streamline-Ultimate.svg" fill="none" overflow="hidden"><path d="M47.0137 8.70625 47.0137 53.9787" stroke="#66737C" stroke-width="3.57143" stroke-linecap="round" stroke-linejoin="round"/><path d="M8.70625 8.70625 47.0137 8.70625" stroke="#66737C" stroke-width="3.57143" stroke-linecap="round" stroke-linejoin="round"/><path d="M8.70625 53.9787 8.70625 8.70625" stroke="#66737C" stroke-width="3.57143" stroke-linecap="round" stroke-linejoin="round"/><path d="M47.0137 53.9787 8.70625 53.9787" stroke="#66737C" stroke-width="3.57143" stroke-linecap="round" stroke-linejoin="round"/><path d="M47.0137 8.70625 8.70625 8.70625 12.1888 1.74125 43.5312 1.74125 47.0137 8.70625Z" stroke="#66737C" stroke-width="3.57143" stroke-linecap="round" stroke-linejoin="round"/><path d="M1.74125 53.9787 53.9787 53.9787" stroke="#66737C" stroke-width="3.57143" stroke-linecap="round" stroke-linejoin="round"/><path d="M33.0838 48.755C33.0838 47.3697 32.5333 46.041 31.5538 45.0612 30.574 44.0817 29.2453 43.5312 27.86 43.5312 26.4747 43.5312 25.146 44.0817 24.1662 45.0612 23.1866 46.041 22.6362 47.3697 22.6362 48.755L22.6362 53.9787 33.0838 53.9787 33.0838 48.755Z" stroke="#66737C" stroke-width="3.57143" stroke-linecap="round" stroke-linejoin="round"/><path d="M17.4125 16.5419C16.9317 16.5419 16.5419 16.1521 16.5419 15.6713 16.5419 15.1904 16.9317 14.8006 17.4125 14.8006" stroke="#66737C" stroke-width="3.57143"/><path d="M17.4125 16.5419C17.8933 16.5419 18.2831 16.1521 18.2831 15.6713 18.2831 15.1904 17.8933 14.8006 17.4125 14.8006" stroke="#66737C" stroke-width="3.57143"/><path d="M27.86 16.5419C27.3792 16.5419 26.9894 16.1521 26.9894 15.6713 26.9894 15.1904 27.3792 14.8006 27.86 14.8006" stroke="#66737C" stroke-width="3.57143"/><path d="M27.86 16.5419C28.3408 16.5419 28.7306 16.1521 28.7306 15.6713 28.7306 15.1904 28.3408 14.8006 27.86 14.8006" stroke="#66737C" stroke-width="3.57143"/><path d="M38.3075 16.5419C37.8267 16.5419 37.4369 16.1521 37.4369 15.6713 37.4369 15.1904 37.8267 14.8006 38.3075 14.8006" stroke="#66737C" stroke-width="3.57143"/><path d="M38.3075 16.5419C38.7883 16.5419 39.1781 16.1521 39.1781 15.6713 39.1781 15.1904 38.7883 14.8006 38.3075 14.8006" stroke="#66737C" stroke-width="3.57143"/><path d="M17.4125 26.9894C16.9317 26.9894 16.5419 26.5996 16.5419 26.1187 16.5419 25.6379 16.9317 25.2481 17.4125 25.2481" stroke="#66737C" stroke-width="3.57143"/><path d="M17.4125 26.9894C17.8933 26.9894 18.2831 26.5996 18.2831 26.1187 18.2831 25.6379 17.8933 25.2481 17.4125 25.2481" stroke="#66737C" stroke-width="3.57143"/><path d="M27.86 26.9894C27.3792 26.9894 26.9894 26.5996 26.9894 26.1187 26.9894 25.6379 27.3792 25.2481 27.86 25.2481" stroke="#66737C" stroke-width="3.57143"/><path d="M27.86 26.9894C28.3408 26.9894 28.7306 26.5996 28.7306 26.1187 28.7306 25.6379 28.3408 25.2481 27.86 25.2481" stroke="#66737C" stroke-width="3.57143"/><g><path d="M38.3075 26.9894C37.8267 26.9894 37.4369 26.5996 37.4369 26.1187 37.4369 25.6379 37.8267 25.2481 38.3075 25.2481" stroke="#66737C" stroke-width="3.57143"/><path d="M38.3075 26.9894C38.7883 26.9894 39.1781 26.5996 39.1781 26.1187 39.1781 25.6379 38.7883 25.2481 38.3075 25.2481" stroke="#66737C" stroke-width="3.57143"/></g><g><path d="M17.4125 37.4369C16.9317 37.4369 16.5419 37.0471 16.5419 36.5662 16.5419 36.0854 16.9317 35.6956 17.4125 35.6956" stroke="#66737C" stroke-width="3.57143"/><path d="M17.4125 37.4369C17.8933 37.4369 18.2831 37.0471 18.2831 36.5662 18.2831 36.0854 17.8933 35.6956 17.4125 35.6956" stroke="#66737C" stroke-width="3.57143"/></g><g><path d="M27.86 37.4369C27.3792 37.4369 26.9894 37.0471 26.9894 36.5662 26.9894 36.0854 27.3792 35.6956 27.86 35.6956" stroke="#66737C" stroke-width="3.57143"/><path d="M27.86 37.4369C28.3408 37.4369 28.7306 37.0471 28.7306 36.5662 28.7306 36.0854 28.3408 35.6956 27.86 35.6956" stroke="#66737C" stroke-width="3.57143"/></g><g><path d="M38.3075 37.4369C37.8267 37.4369 37.4369 37.0471 37.4369 36.5662 37.4369 36.0854 37.8267 35.6956 38.3075 35.6956" stroke="#66737C" stroke-width="3.57143"/><path d="M38.3075 37.4369C38.7883 37.4369 39.1781 37.0471 39.1781 36.5662 39.1781 36.0854 38.7883 35.6956 38.3075 35.6956" stroke="#66737C" stroke-width="3.57143"/></g></svg>