<svg width="60" height="60" viewBox="-2.14 -2.14 60 60" xmlns="http://www.w3.org/2000/svg" xmlns:xlink="http://www.w3.org/1999/xlink" id="Milk-Carton--Streamline-Ultimate.svg" overflow="hidden"><path d="M41.79 12.1888 13.93 12.1888 7.33182 21.9003C7.09167 22.3812 6.96611 22.9113 6.965 23.4488L6.965 50.4963C6.965 52.4196 8.52417 53.9787 10.4475 53.9787L45.2725 53.9787C47.1958 53.9787 48.755 52.4196 48.755 50.4963L48.755 23.4488C48.7553 22.9081 48.6297 22.3748 48.3882 21.891Z" stroke="#66737C" stroke-width="3.57143" stroke-linecap="round" stroke-linejoin="round" fill="none"/><path d="M41.79 5.22375C41.79 3.30042 40.2308 1.74125 38.3075 1.74125L17.4125 1.74125C15.4892 1.74125 13.93 3.30042 13.93 5.22375L13.93 12.1888 41.79 12.1888Z" stroke="#66737C" stroke-width="3.57143" stroke-linecap="round" stroke-linejoin="round" fill="none"/><path d="M15.6713 22.6362 40.0488 22.6362" stroke="#66737C" stroke-width="3.57143" stroke-linecap="round" stroke-linejoin="round" fill="none"/><path d="M20.895 40.0488C20.895 43.8954 24.0133 47.0138 27.86 47.0138 31.7067 47.0138 34.825 43.8954 34.825 40.0488 34.825 36.2021 31.7067 33.0838 27.86 33.0838 24.0133 33.0838 20.895 36.2021 20.895 40.0488Z" stroke="#66737C" stroke-width="3.57143" stroke-linecap="round" stroke-linejoin="round" fill="none"/></svg>