<svg width="60" height="60" viewBox="-2.14 -2.14 60 60" xmlns="http://www.w3.org/2000/svg" xmlns:xlink="http://www.w3.org/1999/xlink" id="Business-Deal-Handshake-Circle--Streamline-Ultimate.svg" overflow="hidden"><path d="M43.5312 32.5126 32.4174 34.7345" stroke="#66737C" stroke-width="3.57143" stroke-linecap="round" stroke-linejoin="round" fill="none"/><path d="M33.5202 22.1278 28.2733 24.345C27.4367 24.6908 26.4947 24.6773 25.6683 24.3078 24.8306 23.9337 24.1776 23.2398 23.8551 22.3809 23.2039 20.7076 23.9084 18.8117 25.4942 17.9697L30.7389 15.3532C31.8856 14.7588 33.2309 14.6794 34.4396 15.1349L45.2098 19.379" stroke="#66737C" stroke-width="3.57143" stroke-linecap="round" stroke-linejoin="round" fill="none"/><path d="M12.0727 34.825 15.7873 34.825 22.8661 40.2252C23.5543 41.0029 24.7351 41.0954 25.536 40.4341L35.4263 32.2665C36.2388 31.594 36.3714 30.3982 35.7258 29.5641L30.2769 23.5069" stroke="#66737C" stroke-width="3.57143" stroke-linecap="round" stroke-linejoin="round" fill="none"/><path d="M24.9254 18.3412 24.352 17.8768C23.1959 17.0239 21.6808 16.8298 20.3471 17.3637L12.0587 20.895" stroke="#66737C" stroke-width="3.57143" stroke-linecap="round" stroke-linejoin="round" fill="none"/><path d="M3.22712 36.5662 9.40275 36.5662C10.8579 36.6441 12.1027 35.5321 12.1888 34.0774L12.1888 21.6403C12.1015 20.1865 10.857 19.0758 9.40275 19.1537L3.22712 19.1537" stroke="#66737C" stroke-width="3.57143" stroke-linecap="round" stroke-linejoin="round" fill="none"/><path d="M52.4929 36.5662 46.3172 36.5662C44.8621 36.6441 43.6173 35.5321 43.5312 34.0774L43.5312 21.6403C43.6185 20.1865 44.863 19.0758 46.3172 19.1537L52.4929 19.1537" stroke="#66737C" stroke-width="3.57143" stroke-linecap="round" stroke-linejoin="round" fill="none"/><path d="M1.74125 27.86C1.74125 42.285 13.435 53.9788 27.86 53.9788 42.285 53.9788 53.9788 42.285 53.9788 27.86 53.9788 13.435 42.285 1.74125 27.86 1.74125 13.435 1.74125 1.74125 13.435 1.74125 27.86Z" stroke="#66737C" stroke-width="3.57143" stroke-linecap="round" stroke-linejoin="round" fill="none"/></svg>