<svg width="60" height="60" viewBox="-1.875 -1.875 60 60" xmlns="http://www.w3.org/2000/svg" xmlns:xlink="http://www.w3.org/1999/xlink" id="Car-Smart--Streamline-Ultimate" overflow="hidden"><path d="M36.9141 38.6719C36.9141 40.6135 38.4881 42.1875 40.4297 42.1875 42.3713 42.1875 43.9453 40.6135 43.9453 38.6719 43.9453 36.7302 42.3713 35.1562 40.4297 35.1562 38.4881 35.1562 36.9141 36.7302 36.9141 38.6719Z" stroke="#66737C" stroke-width="3.57143" stroke-linecap="round" stroke-linejoin="round" fill="none"/><path d="M8.78906 38.6719C8.78906 40.6135 10.3631 42.1875 12.3047 42.1875 14.2463 42.1875 15.8203 40.6135 15.8203 38.6719 15.8203 36.7302 14.2463 35.1562 12.3047 35.1562 10.3631 35.1562 8.78906 36.7302 8.78906 38.6719Z" stroke="#66737C" stroke-width="3.57143" stroke-linecap="round" stroke-linejoin="round" fill="none"/><path d="M36.9141 38.6719 15.8203 38.6719" stroke="#66737C" stroke-width="3.57143" stroke-linecap="round" stroke-linejoin="round" fill="none"/><path d="M8.78906 38.6719 5.27344 38.6719C3.33181 38.6719 1.75781 37.0979 1.75781 35.1562L1.75781 26.7375C1.75519 25.3504 2.16291 23.9934 2.92969 22.8375L8.78906 12.3047 26.2641 12.3047C28.5345 12.3047 30.6653 13.401 31.9852 15.2484L38.6719 24.6094 46.7789 24.6094C50.216 24.6096 53.1492 27.0947 53.7141 30.4852L54.4922 35.1562C54.4922 37.0979 52.9182 38.6719 50.9766 38.6719L43.9453 38.6719" stroke="#66737C" stroke-width="3.57143" stroke-linecap="round" stroke-linejoin="round" fill="none"/><path d="M38.6719 24.6094 2.09063 24.6094" stroke="#66737C" stroke-width="3.57143" stroke-linecap="round" stroke-linejoin="round" fill="none"/><path d="M15.8203 12.3047 15.8203 24.6094" stroke="#66737C" stroke-width="3.57143" stroke-linecap="round" stroke-linejoin="round" fill="none"/><path d="M8.78906 12.3047 3.51562 12.3047" stroke="#66737C" stroke-width="3.57143" stroke-linecap="round" stroke-linejoin="round" fill="none"/></svg>