<svg width="60" height="60" viewBox="-1.875 -1.875 60 60" xmlns="http://www.w3.org/2000/svg" xmlns:xlink="http://www.w3.org/1999/xlink" id="Car-Truck-Woods--Streamline-Ultimate" overflow="hidden"><path d="M8.78906 50.9766C8.78906 52.9182 10.3631 54.4922 12.3047 54.4922 14.2463 54.4922 15.8203 52.9182 15.8203 50.9766 15.8203 49.0349 14.2463 47.4609 12.3047 47.4609 10.3631 47.4609 8.78906 49.0349 8.78906 50.9766Z" stroke="#66737C" stroke-width="3.57143" stroke-linecap="round" stroke-linejoin="round" fill="none"/><path d="M36.9141 50.9766C36.9141 52.9182 38.4881 54.4922 40.4297 54.4922 42.3713 54.4922 43.9453 52.9182 43.9453 50.9766 43.9453 49.0349 42.3713 47.4609 40.4297 47.4609 38.4881 47.4609 36.9141 49.0349 36.9141 50.9766Z" stroke="#66737C" stroke-width="3.57143" stroke-linecap="round" stroke-linejoin="round" fill="none"/><path d="M8.78906 50.9766 5.27344 50.9766C3.33181 50.9766 1.75781 49.4026 1.75781 47.4609L1.75781 43.9453C1.75781 40.0621 4.90581 36.9141 8.78906 36.9141L12.3047 36.9141 18.3633 24.7945C18.9591 23.6034 20.1768 22.8512 21.5086 22.8516L29.8828 22.8516C31.8244 22.8516 33.3984 24.4256 33.3984 26.3672L33.3984 36.9141 50.9766 36.9141C52.9182 36.9141 54.4922 38.4881 54.4922 40.4297L54.4922 47.4609C54.4922 49.4026 52.9182 50.9766 50.9766 50.9766L43.9453 50.9766" stroke="#66737C" stroke-width="3.57143" stroke-linecap="round" stroke-linejoin="round" fill="none"/><path d="M15.8203 50.9766 36.9141 50.9766" stroke="#66737C" stroke-width="3.57143" stroke-linecap="round" stroke-linejoin="round" fill="none"/><path d="M33.3984 36.9141 12.3047 36.9141" stroke="#66737C" stroke-width="3.57143" stroke-linecap="round" stroke-linejoin="round" fill="none"/><path d="M47.4609 1.75781 42.832 14.4867C41.9082 17.0432 43.2317 19.8645 45.7882 20.7884 48.3447 21.7122 51.166 20.3887 52.0898 17.8322 52.4805 16.7513 52.4805 15.5677 52.0898 14.4867Z" stroke="#66737C" stroke-width="3.57143" stroke-linecap="round" stroke-linejoin="round" fill="none"/><path d="M47.4609 21.0938 47.4609 28.125" stroke="#66737C" stroke-width="3.57143" stroke-linecap="round" stroke-linejoin="round" fill="none"/><path d="M33.2438 15.8367 28.125 1.75781 23.0109 15.8203" stroke="#66737C" stroke-width="3.57143" stroke-linecap="round" stroke-linejoin="round" fill="none"/><path d="M8.78906 1.75781 4.16016 14.4867C3.23632 17.0432 4.55984 19.8645 7.11632 20.7884 9.67279 21.7122 12.4941 20.3887 13.418 17.8322 13.8086 16.7513 13.8086 15.5677 13.418 14.4867Z" stroke="#66737C" stroke-width="3.57143" stroke-linecap="round" stroke-linejoin="round" fill="none"/><path d="M8.78906 21.0938 8.78906 28.125" stroke="#66737C" stroke-width="3.57143" stroke-linecap="round" stroke-linejoin="round" fill="none"/></svg>