<svg width="60" height="60" viewBox="-1.875 -1.875 60 60" xmlns="http://www.w3.org/2000/svg" xmlns:xlink="http://www.w3.org/1999/xlink" id="Car-Engine-1--Streamline-Ultimate" fill="none" overflow="hidden"><path d="M17.1094 23.9836 12.0352 26.9133 2.07187 9.66103C1.76109 9.12272 1.67686 8.48302 1.83773 7.88259 1.9986 7.2822 2.3914 6.7703 2.92969 6.45947L9.02344 2.94384C9.56175 2.63306 10.2015 2.54885 10.8019 2.7097 11.4023 2.87058 11.9142 3.26337 12.225 3.80166L14.5688 7.86103" stroke="#66737C" stroke-width="3.57143" stroke-linecap="round" stroke-linejoin="round"/><path d="M2.38594 14.8922 16.5938 6.68906" stroke="#66737C" stroke-width="3.57143" stroke-linecap="round" stroke-linejoin="round"/><path d="M5.90156 20.981 13.0055 16.8795" stroke="#66737C" stroke-width="3.57143" stroke-linecap="round" stroke-linejoin="round"/><path d="M17.107 23.9834 22.2563 32.9037" stroke="#66737C" stroke-width="3.57143" stroke-linecap="round" stroke-linejoin="round"/><path d="M38.9461 24.3234 44.2172 26.9133 54.1781 9.66103C54.4889 9.12272 54.573 8.48302 54.4123 7.88259 54.2515 7.2822 53.8587 6.7703 53.3203 6.45947L47.2266 2.94384C46.6882 2.63306 46.0486 2.54885 45.4481 2.7097 44.8477 2.87058 44.3358 3.26337 44.025 3.80166L41.6813 7.86103" stroke="#66737C" stroke-width="3.57143" stroke-linecap="round" stroke-linejoin="round"/><path d="M53.8641 14.8922 39.6562 6.68906" stroke="#66737C" stroke-width="3.57143" stroke-linecap="round" stroke-linejoin="round"/><path d="M50.3484 20.981 43.2445 16.8795" stroke="#66737C" stroke-width="3.57143" stroke-linecap="round" stroke-linejoin="round"/><path d="M38.9461 24.3232 33.9938 32.9037" stroke="#66737C" stroke-width="3.57143" stroke-linecap="round" stroke-linejoin="round"/><path d="M15.2344 53.6201 15.2344 35.456 28.125 30.7685 41.0156 35.456 41.0156 53.6201 15.2344 53.6201Z" stroke="#66737C" stroke-width="3.57143" stroke-linecap="round" stroke-linejoin="round"/><path d="M11.7188 53.6201 44.5312 53.6201" stroke="#66737C" stroke-width="3.57143" stroke-linecap="round" stroke-linejoin="round"/><path d="M28.125 41.3154C27.4779 41.3154 26.9531 40.7909 26.9531 40.1435 26.9531 39.4964 27.4779 38.9716 28.125 38.9716" stroke="#66737C" stroke-width="3.57143"/><path d="M28.125 41.3154C28.7721 41.3154 29.2969 40.7909 29.2969 40.1435 29.2969 39.4964 28.7721 38.9716 28.125 38.9716" stroke="#66737C" stroke-width="3.57143"/><path d="M15.2344 44.7 19.3359 44.7" stroke="#66737C" stroke-width="3.57143" stroke-linecap="round" stroke-linejoin="round"/><path d="M28.125 24.3232C32.9791 24.3232 36.9141 20.3883 36.9141 15.5342 36.9141 10.6801 32.9791 6.74515 28.125 6.74515 23.2709 6.74515 19.3359 10.6801 19.3359 15.5342 19.3359 20.3883 23.2709 24.3232 28.125 24.3232Z" stroke="#66737C" stroke-width="3.57143" stroke-linecap="round" stroke-linejoin="round"/><path d="M28.125 16.4131C27.6396 16.4131 27.2461 16.0196 27.2461 15.5342 27.2461 15.0488 27.6396 14.6553 28.125 14.6553" stroke="#66737C" stroke-width="3.57143"/><path d="M28.125 16.4131C28.6104 16.4131 29.0039 16.0196 29.0039 15.5342 29.0039 15.0488 28.6104 14.6553 28.125 14.6553" stroke="#66737C" stroke-width="3.57143"/></svg>