<svg width="60" height="60" viewBox="-1.875 -1.875 60 60" xmlns="http://www.w3.org/2000/svg" xmlns:xlink="http://www.w3.org/1999/xlink" id="Charging-E-Car-1--Streamline-Ultimate" overflow="hidden"><defs></defs><path d="M49.3359 6.45 49.3359 2.93438 40.5469 2.93438 40.5469 6.45 39.082 6.45C37.4901 6.4239 36.1785 7.69326 36.1524 9.28518 36.1524 9.28543 36.1523 9.28568 36.1523 9.28594L36.1523 27.0492C36.1767 28.6412 37.487 29.9119 39.079 29.8875 39.08 29.8875 39.081 29.8875 39.082 29.8875L50.8008 29.8875C52.3934 29.9123 53.7048 28.6418 53.7305 27.0492L53.7305 9.28594C53.7035 7.69427 52.3925 6.4252 50.8008 6.45Z" stroke="#66737C" stroke-width="3.57143" stroke-linecap="round" stroke-linejoin="round" fill="none"/><path d="M45.7547 11.1375 42.4992 16.9969 47.3812 16.9969 44.1281 22.8563" stroke="#66737C" stroke-width="3.57143" stroke-linecap="round" stroke-linejoin="round" fill="none"/><path d="M29.2242 32.2219 8.78906 32.2219 4.24453 36.7687C2.65284 38.3599 1.75835 40.5181 1.75781 42.7687 1.75781 44.7104 3.33181 46.2844 5.27344 46.2844L50.9766 46.2844C52.9182 46.2844 54.4922 44.7104 54.4922 42.7687 54.4916 40.5181 53.5972 38.3599 52.0055 36.7687" stroke="#66737C" stroke-width="3.57143" stroke-linecap="round" stroke-linejoin="round" fill="none"/><path d="M2.51953 39.2531 12.3047 39.2531" stroke="#66737C" stroke-width="3.57143" stroke-linecap="round" stroke-linejoin="round" fill="none"/><path d="M53.7305 39.2531 43.9453 39.2531" stroke="#66737C" stroke-width="3.57143" stroke-linecap="round" stroke-linejoin="round" fill="none"/><path d="M8.78906 32.2219 12.7734 21.5812C13.5445 19.5231 15.5116 18.1594 17.7094 18.1594L29.2172 18.1594" stroke="#66737C" stroke-width="3.57143" stroke-linecap="round" stroke-linejoin="round" fill="none"/><path d="M5.27344 46.2844 5.27344 49.8C5.58545 52.0016 7.58888 53.5578 9.79922 53.3156 12.0099 53.5591 14.0141 52.0022 14.325 49.8L14.325 46.2844Z" stroke="#66737C" stroke-width="3.57143" stroke-linecap="round" stroke-linejoin="round" fill="none"/><path d="M41.925 46.2844 41.925 49.8C42.2359 52.0022 44.2401 53.5591 46.4508 53.3156 48.6611 53.5578 50.6645 52.0016 50.9766 49.8L50.9766 46.2844Z" stroke="#66737C" stroke-width="3.57143" stroke-linecap="round" stroke-linejoin="round" fill="none"/></svg>