<svg width="60" height="60" viewBox="-1.875 -1.875 60 60" xmlns="http://www.w3.org/2000/svg" xmlns:xlink="http://www.w3.org/1999/xlink" id="Card-Game-Choose--Streamline-Ultimate" overflow="hidden"><path d="M22.8516 44.7891 16.1039 47.2477C14.279 47.9108 12.2621 46.969 11.599 45.1441 11.5983 45.1422 11.5976 45.1402 11.5969 45.1383L1.97109 18.7219C1.30797 16.897 2.24977 14.8801 4.07465 14.217 4.07659 14.2162 4.07853 14.2155 4.08047 14.2148L19.3359 8.65312" stroke="#66737C" stroke-width="3.57143" stroke-linecap="round" stroke-linejoin="round" fill="none"/><path d="M43.9453 29.8828 43.9453 5.27344C43.9453 3.33181 42.3713 1.75781 40.4297 1.75781L22.8516 1.75781C20.9099 1.75781 19.3359 3.33181 19.3359 5.27344L19.3359 33.3984C19.3359 35.3401 20.9099 36.9141 22.8516 36.9141L24.6094 36.9141" stroke="#66737C" stroke-width="3.57143" stroke-linecap="round" stroke-linejoin="round" fill="none"/><path d="M26.3672 19.3359C26.3672 22.2484 28.7282 24.6094 31.6406 24.6094 34.5531 24.6094 36.9141 22.2484 36.9141 19.3359 36.9141 16.4235 34.5531 14.0625 31.6406 14.0625 28.7282 14.0625 26.3672 16.4235 26.3672 19.3359Z" stroke="#66737C" stroke-width="3.57143" stroke-linecap="round" stroke-linejoin="round" fill="none"/><path d="M42 53.2031C41.7445 54.1397 40.7781 54.6918 39.8415 54.4363 39.2747 54.2817 38.8227 53.8542 38.6367 53.2969L31.1719 33.4031C30.8643 32.4823 31.3613 31.4865 32.2821 31.1789 32.6436 31.0581 33.0346 31.0581 33.3961 31.1789L53.2828 38.6367C54.2037 38.944 54.7012 39.9396 54.3939 40.8605 54.2079 41.4178 53.7559 41.8454 53.1891 42L44.0273 44.0344Z" stroke="#66737C" stroke-width="3.57143" stroke-linecap="round" stroke-linejoin="round" fill="none"/></svg>