<svg width="60" height="60" viewBox="-2.14 -2.14 60 60" xmlns="http://www.w3.org/2000/svg" xmlns:xlink="http://www.w3.org/1999/xlink" id="E-Commerce-Cart-Laptop--Streamline-Ultimate.svg" fill="none" overflow="hidden"><path d="M40.0488 3.4825 34.825 20.895 20.895 20.895 17.4125 10.4475 37.9593 10.4475" stroke="#66737C" stroke-width="3.57143" stroke-linecap="round" stroke-linejoin="round"/><path d="M21.7656 27.86C21.2848 27.86 20.895 27.4702 20.895 26.9894 20.895 26.5086 21.2848 26.1187 21.7656 26.1187" stroke="#66737C" stroke-width="3.57143"/><path d="M21.7656 27.86C22.2465 27.86 22.6362 27.4702 22.6362 26.9894 22.6362 26.5086 22.2465 26.1187 21.7656 26.1187" stroke="#66737C" stroke-width="3.57143"/><path d="M33.9544 27.86C33.4736 27.86 33.0838 27.4702 33.0838 26.9894 33.0838 26.5086 33.4736 26.1187 33.9544 26.1187" stroke="#66737C" stroke-width="3.57143"/><path d="M33.9544 27.86C34.4352 27.86 34.825 27.4702 34.825 26.9894 34.825 26.5086 34.4352 26.1187 33.9544 26.1187" stroke="#66737C" stroke-width="3.57143"/><path d="M45.9945 7.98421C46.3179 8.30776 46.5743 8.69181 46.7491 9.11447 46.9241 9.53713 47.014 9.99009 47.0137 10.4475L47.0137 31.3425C47.0137 32.2661 46.6469 33.152 45.9938 33.8051 45.3408 34.4582 44.4548 34.825 43.5312 34.825L12.1888 34.825C11.2651 34.825 10.3793 34.4582 9.72625 33.8051 9.07317 33.152 8.70625 32.2661 8.70625 31.3425L8.70625 10.4475C8.70625 9.52389 9.07317 8.63809 9.72625 7.985 10.3793 7.33192 11.2651 6.965 12.1888 6.965" stroke="#66737C" stroke-width="3.57143" stroke-linecap="round" stroke-linejoin="round"/><path d="M50.4914 52.2375 5.22818 52.2375C4.63444 52.2377 4.05052 52.0861 3.53188 51.7971 3.01324 51.508 2.5771 51.0911 2.26491 50.5861 1.95272 50.0811 1.77484 49.5047 1.74817 48.9115 1.72149 48.3183 1.84692 47.7281 2.11252 47.1972L6.37509 38.6743C6.95362 37.5177 7.84278 36.5449 8.94294 35.8651 10.0431 35.1851 11.3108 34.825 12.6041 34.825L43.1154 34.825C44.4088 34.825 45.6765 35.1851 46.7767 35.8651 47.8767 36.5449 48.7659 37.5177 49.3445 38.6743L53.6071 47.1972C53.8727 47.7281 53.998 48.3183 53.9713 48.9115 53.9449 49.5047 53.7668 50.0811 53.4548 50.5861 53.1425 51.0911 52.7065 51.508 52.1878 51.7971 51.6692 52.0861 51.0853 52.2377 50.4914 52.2375Z" stroke="#66737C" stroke-width="3.57143" stroke-linecap="round" stroke-linejoin="round"/><path d="M24.3775 45.2725 31.3425 45.2725" stroke="#66737C" stroke-width="3.57143" stroke-linecap="round" stroke-linejoin="round"/></svg>