<svg width="60" height="60" viewBox="-1.875 -1.875 60 60" xmlns="http://www.w3.org/2000/svg" xmlns:xlink="http://www.w3.org/1999/xlink" id="Mobile-Shopping-Cart-Exchange--Streamline-Ultimate" fill="none" overflow="hidden"><path d="M50.9766 26.3672 40.4297 26.3672C38.4881 26.3672 36.9141 27.9412 36.9141 29.8828L36.9141 50.9766C36.9141 52.9181 38.4881 54.4922 40.4297 54.4922L50.9766 54.4922C52.9181 54.4922 54.4922 52.9181 54.4922 50.9766L54.4922 29.8828C54.4922 27.9412 52.9181 26.3672 50.9766 26.3672Z" stroke="#66737C" stroke-width="3.57143" stroke-linecap="round" stroke-linejoin="round"/><path d="M36.9141 47.4609 54.4922 47.4609" stroke="#66737C" stroke-width="3.57143" stroke-linecap="round" stroke-linejoin="round"/><path d="M8.78906 36.9141C8.78906 40.6437 10.2706 44.2205 12.9079 46.8577 15.5451 49.4951 19.122 50.9766 22.8516 50.9766L28.125 50.9766" stroke="#66737C" stroke-width="3.57143" stroke-linecap="round" stroke-linejoin="round"/><path d="M54.4922 19.3359C54.4922 15.6063 53.0107 12.0295 50.3733 9.39225 47.7361 6.75502 44.1593 5.27344 40.4297 5.27344L36.9141 5.27344" stroke="#66737C" stroke-width="3.57143" stroke-linecap="round" stroke-linejoin="round"/><path d="M40.4297 1.75781 36.9141 5.27344 40.4297 8.78906" stroke="#66737C" stroke-width="3.57143" stroke-linecap="round" stroke-linejoin="round"/><path d="M24.6094 54.4922 28.125 50.9766 24.6094 47.4609" stroke="#66737C" stroke-width="3.57143" stroke-linecap="round" stroke-linejoin="round"/><path d="M24.6094 1.75781 19.3359 19.3359 5.27344 19.3359 1.75781 8.78906 22.5 8.78906" stroke="#66737C" stroke-width="3.57143" stroke-linecap="round" stroke-linejoin="round"/><path d="M6.15234 26.3672C5.66693 26.3672 5.27344 25.9737 5.27344 25.4883 5.27344 25.0029 5.66693 24.6094 6.15234 24.6094" stroke="#66737C" stroke-width="3.57143"/><path d="M6.15234 26.3672C6.63776 26.3672 7.03125 25.9737 7.03125 25.4883 7.03125 25.0029 6.63776 24.6094 6.15234 24.6094" stroke="#66737C" stroke-width="3.57143"/><g><path d="M18.457 26.3672C17.9716 26.3672 17.5781 25.9737 17.5781 25.4883 17.5781 25.0029 17.9716 24.6094 18.457 24.6094" stroke="#66737C" stroke-width="3.57143"/><path d="M18.457 26.3672C18.9424 26.3672 19.3359 25.9737 19.3359 25.4883 19.3359 25.0029 18.9424 24.6094 18.457 24.6094" stroke="#66737C" stroke-width="3.57143"/></g></svg>