<svg width="60" height="60" viewBox="-2.14 -2.14 60 60" xmlns="http://www.w3.org/2000/svg" xmlns:xlink="http://www.w3.org/1999/xlink" id="Safety-Helmet--Streamline-Ultimate.svg" overflow="hidden"><path d="M54.5592 35.3799 3.4825 35.3799C2.20028 35.3799 1.16083 34.3404 1.16083 33.0582L1.16083 30.7365C1.16083 29.4543 2.20028 28.4149 3.4825 28.4149L26.6992 28.4149" stroke="#66737C" stroke-width="3.57143" stroke-linecap="round" stroke-linejoin="round" fill="none"/><path d="M3.4825 28.4149C3.4825 17.516 12.3178 8.68071 23.2167 8.68071 30.5047 8.68071 37.1995 12.6976 40.6292 19.1282" stroke="#66737C" stroke-width="3.57143" stroke-linecap="round" stroke-linejoin="round" fill="none"/><path d="M47.5942 35.3799 47.5942 28.4149C47.5962 16.2062 38.5667 5.87879 26.467 4.25097 24.5386 3.99615 22.5916 4.5593 21.097 5.80417L16.1054 10.018" stroke="#66737C" stroke-width="3.57143" stroke-linecap="round" stroke-linejoin="round" fill="none"/><path d="M5.80417 35.3799 5.80417 43.5057C5.80417 45.429 7.36334 46.9882 9.28667 46.9882 11.21 46.9882 12.7692 45.429 12.7692 43.5057 12.7692 41.5824 14.3283 40.0232 16.2517 40.0232L40.6292 40.0232C43.1936 40.0232 45.2725 37.9443 45.2725 35.3799" stroke="#66737C" stroke-width="3.57143" stroke-linecap="round" stroke-linejoin="round" fill="none"/></svg>