<svg width="60" height="60" viewBox="-2.14 -2.14 60 60" xmlns="http://www.w3.org/2000/svg" xmlns:xlink="http://www.w3.org/1999/xlink" id="Equipment-Cement--Streamline-Ultimate.svg" overflow="hidden"><path d="M29.6012 43.5312 26.1187 43.5312" stroke="#66737C" stroke-width="3.57143" stroke-linecap="round" stroke-linejoin="round" fill="none"/><path d="M46.7166 43.5312 47.0137 43.5312C50.8604 43.5312 53.9787 40.4129 53.9787 36.5662L53.9787 22.6362 1.74125 22.6362 1.74125 36.5662C1.74125 40.4129 4.85959 43.5312 8.70625 43.5312L9.00342 43.5312" stroke="#66737C" stroke-width="3.57143" stroke-linecap="round" stroke-linejoin="round" fill="none"/><path d="M8.70625 45.2725C8.70625 48.1575 11.045 50.4963 13.93 50.4963 16.815 50.4963 19.1537 48.1575 19.1537 45.2725 19.1537 42.3875 16.815 40.0487 13.93 40.0487 11.045 40.0487 8.70625 42.3875 8.70625 45.2725Z" stroke="#66737C" stroke-width="3.57143" stroke-linecap="round" stroke-linejoin="round" fill="none"/><path d="M36.5662 45.2725C36.5662 48.1575 38.905 50.4963 41.79 50.4963 44.675 50.4963 47.0138 48.1575 47.0138 45.2725 47.0138 42.3875 44.675 40.0487 41.79 40.0487 38.905 40.0487 36.5662 42.3875 36.5662 45.2725Z" stroke="#66737C" stroke-width="3.57143" stroke-linecap="round" stroke-linejoin="round" fill="none"/><path d="M49.5304 22.6362C50.1565 21.582 50.4899 20.3798 50.4963 19.1537 50.5127 15.3238 47.4212 12.2057 43.5912 12.1893 42.0708 12.1828 40.5904 12.6761 39.3778 13.5934 37.3122 7.23226 30.481 3.75006 24.1199 5.81564 20.4316 7.01333 17.5399 9.905 16.3422 13.5934 13.2945 11.2802 8.94859 11.8758 6.63546 14.9235 4.93409 17.1652 4.75786 20.2134 6.18956 22.6362" stroke="#66737C" stroke-width="3.57143" stroke-linecap="round" stroke-linejoin="round" fill="none"/></svg>