<svg width="60" height="60" viewBox="-2.14 -2.14 60 60" xmlns="http://www.w3.org/2000/svg" xmlns:xlink="http://www.w3.org/1999/xlink" id="Equipment-Cement-Cart--Streamline-Ultimate.svg" overflow="hidden"><path d="M8.70625 41.79C8.70625 45.6367 11.8246 48.755 15.6713 48.755 19.5179 48.755 22.6362 45.6367 22.6362 41.79 22.6362 37.9433 19.5179 34.825 15.6712 34.825 11.8246 34.825 8.70625 37.9433 8.70625 41.79Z" stroke="#66737C" stroke-width="3.57143" stroke-linecap="round" stroke-linejoin="round" fill="none"/><path d="M10.4893 37.1467 2.21487 26.1327C1.24551 24.4715 1.80635 22.339 3.46754 21.3697 4.00055 21.0586 4.60663 20.8948 5.22375 20.895L41.79 20.895C43.7133 20.8951 45.2724 22.4544 45.2722 24.3778 45.2722 25.0652 45.0687 25.7372 44.6874 26.3091L30.6274 40.7383C29.9715 41.4112 29.0714 41.7905 28.1316 41.79L22.6362 41.79" stroke="#66737C" stroke-width="3.57143" stroke-linecap="round" stroke-linejoin="round" fill="none"/><path d="M43.5312 27.4955 43.5312 41.79C43.5321 43.7133 41.9737 45.2732 40.0503 45.2741 39.1258 45.2745 38.239 44.9073 37.5855 44.2533L31.5491 39.7794" stroke="#66737C" stroke-width="3.57143" stroke-linecap="round" stroke-linejoin="round" fill="none"/><path d="M44.9637 22.945 53.9787 13.93" stroke="#66737C" stroke-width="3.57143" stroke-linecap="round" stroke-linejoin="round" fill="none"/><path d="M39.0806 20.895C39.2181 20.3919 39.2876 19.8726 39.2872 19.3511 39.335 15.9792 36.6402 13.207 33.2683 13.1593 32.8654 13.1536 32.463 13.1878 32.0669 13.2614 29.5825 7.84269 23.1758 5.46398 17.7571 7.94836 15.407 9.02587 13.5217 10.9112 12.4441 13.2614 9.12859 12.6456 5.94161 14.8341 5.32581 18.1497 5.25223 18.5458 5.21805 18.9482 5.22375 19.3511 5.22373 19.8709 5.28371 20.389 5.40252 20.895" stroke="#66737C" stroke-width="3.57143" stroke-linecap="round" stroke-linejoin="round" fill="none"/></svg>