<svg width="60" height="60" viewBox="-2.14 -2.14 60 60" xmlns="http://www.w3.org/2000/svg" xmlns:xlink="http://www.w3.org/1999/xlink" id="Room-Service-Bring-Plate--Streamline-Ultimate.svg" overflow="hidden"><path d="M14.8029 45.3538C14.8029 45.3538 16.4838 35.5726 11.7012 30.1817 11.4419 29.8898 11.449 29.4482 11.7175 29.1648 13.3682 27.3585 17.5518 29.2135 21.761 36.9308 22.8591 38.9436 25.1529 38.8392 27.1472 37.7015 30.9362 35.5401 35.9696 29.9031 39.4521 29.0208 44.0234 27.86 45.5999 30.646 44.7199 31.5259L24.7722 51.4644Z" stroke="#66737C" stroke-width="3.57143" stroke-linecap="round" stroke-linejoin="round" fill="none"/><path d="M21.6797 54.5592 24.7722 51.4644 14.8029 45.3538 6.43798 54.5592" stroke="#66737C" stroke-width="3.57143" stroke-linecap="round" stroke-linejoin="round" fill="none"/><path d="M54.464 26.6992 1.25602 26.6992" stroke="#66737C" stroke-width="3.57143" stroke-linecap="round" stroke-linejoin="round" fill="none"/><path d="M49.7603 26.6992C49.7812 26.3114 49.8206 25.9307 49.8206 25.5383 49.8206 13.3572 39.9459 3.4825 27.7648 3.4825 15.5837 3.4825 5.70898 13.3572 5.70898 25.5383 5.70898 25.9307 5.74613 26.3114 5.76702 26.6992" stroke="#66737C" stroke-width="3.57143" stroke-linecap="round" stroke-linejoin="round" fill="none"/><path d="M26.604 3.4825 26.604 1.16083" stroke="#66737C" stroke-width="3.57143" stroke-linecap="round" stroke-linejoin="round" fill="none"/></svg>