<svg width="60" height="60" viewBox="-2.14 -2.14 60 60" xmlns="http://www.w3.org/2000/svg" xmlns:xlink="http://www.w3.org/1999/xlink" id="Room-Service-Give-Plate-2--Streamline-Ultimate.svg" overflow="hidden"><path d="M2.24505 35.9858 2.24505 54.5592" stroke="#66737C" stroke-width="3.57143" stroke-linecap="round" stroke-linejoin="round" fill="none"/><path d="M37.0701 52.2375C37.0701 48.3908 33.9517 45.2725 30.1051 45.2725L21.3988 45.2725C21.3988 41.4258 18.2805 38.3075 14.4338 38.3075L2.24505 38.3075 2.24505 52.2375Z" stroke="#66737C" stroke-width="3.57143" stroke-linecap="round" stroke-linejoin="round" fill="none"/><path d="M14.4338 45.2725 23.1401 45.2725" stroke="#66737C" stroke-width="3.57143" stroke-linecap="round" stroke-linejoin="round" fill="none"/><path d="M25.4617 4.64333C25.4617 6.56667 27.0209 8.12583 28.9442 8.12583 30.8675 8.12583 32.4267 6.56667 32.4267 4.64333 32.4267 2.72 30.8675 1.16083 28.9442 1.16083 27.0209 1.16083 25.4617 2.72 25.4617 4.64333Z" stroke="#66737C" stroke-width="3.57143" stroke-linecap="round" stroke-linejoin="round" fill="none"/><path d="M8.04922 29.0208C8.04922 17.4808 17.4042 8.12583 28.9442 8.12583 40.4842 8.12583 49.8392 17.4808 49.8392 29.0208" stroke="#66737C" stroke-width="3.57143" stroke-linecap="round" stroke-linejoin="round" fill="none"/><path d="M5.72755 32.5033 4.60851 30.8248C4.25333 30.291 4.39808 29.5704 4.93181 29.2153 5.1215 29.089 5.34415 29.0214 5.572 29.0208L52.3141 29.0208C52.9552 29.0212 53.4747 29.5412 53.4743 30.1823 53.4742 30.4109 53.4066 30.6344 53.2799 30.8248L50.1851 35.4681C49.9701 35.7913 49.6076 35.9856 49.2193 35.9858L21.9792 35.9858" stroke="#66737C" stroke-width="3.57143" stroke-linecap="round" stroke-linejoin="round" fill="none"/></svg>