<svg width="60" height="60" viewBox="-2.14 -2.14 60 60" xmlns="http://www.w3.org/2000/svg" xmlns:xlink="http://www.w3.org/1999/xlink" id="Room-Service-Cart-1--Streamline-Ultimate.svg" overflow="hidden"><defs></defs><path d="M1.19798 47.5942 54.522 47.5942" stroke="#66737C" stroke-width="3.57143" stroke-linecap="round" stroke-linejoin="round" fill="none"/><path d="M49.953 47.5942 49.953 15.0908C49.953 9.96195 45.7952 5.80417 40.6663 5.80417L15.128 5.80417C9.9991 5.80417 5.84131 9.96195 5.84131 15.0908L5.84131 47.5942" stroke="#66737C" stroke-width="3.57143" stroke-linecap="round" stroke-linejoin="round" fill="none"/><path d="M26.7363 1.16083 26.7363 12.7692" stroke="#66737C" stroke-width="3.57143" stroke-linecap="round" stroke-linejoin="round" fill="none"/><path d="M19.8061 12.7692 33.7013 12.7692" stroke="#66737C" stroke-width="3.57143" stroke-linecap="round" stroke-linejoin="round" fill="none"/><path d="M22.093 29.0208 22.093 26.6992C22.1006 24.1379 24.175 22.0635 26.7363 22.0558L29.058 22.0558C31.6192 22.0635 33.6937 24.1379 33.7013 26.6992L33.7013 29.0208" stroke="#66737C" stroke-width="3.57143" stroke-linecap="round" stroke-linejoin="round" fill="none"/><path d="M17.4496 29.0208 38.3446 29.0208C38.3446 29.0208 42.988 29.0208 42.988 33.6642L42.988 42.9508C42.988 42.9508 42.988 47.5942 38.3446 47.5942L17.4496 47.5942C17.4496 47.5942 12.8063 47.5942 12.8063 42.9508L12.8063 33.6642C12.8063 33.6642 12.8063 29.0208 17.4496 29.0208" stroke="#66737C" stroke-width="3.57143" stroke-linecap="round" stroke-linejoin="round" fill="none"/><path d="M45.3096 51.0767C45.3096 53 46.8688 54.5592 48.7921 54.5592 50.7155 54.5592 52.2746 53 52.2746 51.0767 52.2746 49.1533 50.7155 47.5942 48.7921 47.5942 46.8688 47.5942 45.3096 49.1533 45.3096 51.0767" stroke="#66737C" stroke-width="3.57143" stroke-linecap="round" stroke-linejoin="round" fill="none"/><path d="M3.51965 51.0767C3.51965 53 5.07881 54.5592 7.00215 54.5592 8.92548 54.5592 10.4846 53 10.4846 51.0767 10.4846 49.1533 8.92548 47.5942 7.00215 47.5942 5.07881 47.5942 3.51965 49.1533 3.51965 51.0767" stroke="#66737C" stroke-width="3.57143" stroke-linecap="round" stroke-linejoin="round" fill="none"/></svg>