<svg width="60" height="60" viewBox="-2.14 -2.14 60 60" xmlns="http://www.w3.org/2000/svg" xmlns:xlink="http://www.w3.org/1999/xlink" id="Room-Service-Cart-Food--Streamline-Ultimate.svg" overflow="hidden"><path d="M24.3775 49.9158C24.3775 52.4803 22.2986 54.5592 19.7342 54.5592 17.1697 54.5592 15.0908 52.4803 15.0908 49.9158" stroke="#66737C" stroke-width="3.57143" stroke-linecap="round" stroke-linejoin="round" fill="none"/><path d="M49.9158 49.9158C49.9158 52.4803 47.8369 54.5592 45.2725 54.5592 42.7081 54.5592 40.6292 52.4803 40.6292 49.9158" stroke="#66737C" stroke-width="3.57143" stroke-linecap="round" stroke-linejoin="round" fill="none"/><path d="M10.4475 29.0208 49.9158 29.0208C52.4803 29.0208 54.5592 31.0997 54.5592 33.6642L54.5592 47.5942C54.5592 48.8764 53.5197 49.9158 52.2375 49.9158L12.7692 49.9158C11.4869 49.9158 10.4475 48.8764 10.4475 47.5942Z" stroke="#66737C" stroke-width="3.57143" stroke-linecap="round" stroke-linejoin="round" fill="none"/><path d="M1.16083 18.5733C3.71374 18.601 5.77654 20.6638 5.80417 23.2167L5.80417 24.3775C5.80417 26.9419 7.88306 29.0208 10.4475 29.0208" stroke="#66737C" stroke-width="3.57143" stroke-linecap="round" stroke-linejoin="round" fill="none"/><path d="M19.7342 49.9158 19.7342 38.3075" stroke="#66737C" stroke-width="3.57143" stroke-linecap="round" stroke-linejoin="round" fill="none"/><path d="M31.3425 49.9158 31.3425 38.3075" stroke="#66737C" stroke-width="3.57143" stroke-linecap="round" stroke-linejoin="round" fill="none"/><path d="M45.2725 49.9158 45.2725 38.3075" stroke="#66737C" stroke-width="3.57143" stroke-linecap="round" stroke-linejoin="round" fill="none"/><path d="M13.9346 22.0558 51.0813 22.0558" stroke="#66737C" stroke-width="3.57143" stroke-linecap="round" stroke-linejoin="round" fill="none"/><path d="M30.1863 3.4825C30.1863 4.76472 31.2258 5.80417 32.508 5.80417 33.7902 5.80417 34.8296 4.76472 34.8296 3.4825 34.8296 2.20028 33.7902 1.16083 32.508 1.16083 31.2258 1.16083 30.1863 2.20028 30.1863 3.4825Z" stroke="#66737C" stroke-width="3.57143" stroke-linecap="round" stroke-linejoin="round" fill="none"/><path d="M18.5733 22.0558C18.5733 14.3625 24.81 8.12583 32.5033 8.12583 40.1967 8.12583 46.4333 14.3625 46.4333 22.0558" stroke="#66737C" stroke-width="3.57143" stroke-linecap="round" stroke-linejoin="round" fill="none"/></svg>