<svg width="60" height="60" viewBox="-2.14 -2.14 60 60" xmlns="http://www.w3.org/2000/svg" xmlns:xlink="http://www.w3.org/1999/xlink" id="Cog-3--Streamline-Ultimate.svg" overflow="hidden"><path d="M53.5423 31.4725C54.1266 31.3995 54.5637 30.9005 54.5592 30.3117L54.5592 25.4037C54.5637 24.8148 54.1266 24.3158 53.5423 24.2428L48.3162 23.5905C47.7835 21.0308 46.7712 18.5951 45.3329 16.4119L48.5716 12.2329C48.9304 11.771 48.8896 11.1144 48.4764 10.7006L44.9939 7.21806C44.58 6.80489 43.9234 6.7641 43.4616 7.12287L39.3012 10.3895C37.1175 8.9513 34.682 7.93834 32.1226 7.4038L31.4702 2.18004C31.3972 1.59571 30.8982 1.15861 30.3094 1.16315L25.4014 1.16315C24.8125 1.15861 24.3135 1.59571 24.2405 2.18004L23.5881 7.40379C21.0319 7.93945 18.5996 8.95237 16.4188 10.3895L12.2514 7.15073C11.7896 6.79196 11.133 6.83275 10.7191 7.24592L7.23664 10.7284C6.82346 11.1423 6.78267 11.7989 7.14145 12.2607L10.3918 16.4397C8.9534 18.623 7.94115 21.0587 7.40844 23.6183L2.18237 24.2707C1.59803 24.3437 1.16093 24.8427 1.16548 25.4315L1.16548 30.321C1.16093 30.9098 1.59803 31.4088 2.18237 31.4818L7.40844 32.1342C7.94115 34.6938 8.9534 37.1295 10.3918 39.3128L7.15306 43.4918C6.79428 43.9536 6.83507 44.6102 7.24824 45.0241L10.7307 48.5066C11.1446 48.9198 11.8012 48.9605 12.263 48.6018L16.442 45.363C18.6257 46.8012 21.0612 47.8142 23.6206 48.3487L24.273 53.5725C24.346 54.1568 24.845 54.5939 25.4339 54.5894L30.3511 54.5893C30.94 54.5939 31.439 54.1568 31.512 53.5725L32.1644 48.3487C34.7238 47.8142 37.1593 46.8012 39.343 45.363L43.5104 48.6018C43.9722 48.9605 44.6288 48.9198 45.0427 48.5066L48.5252 45.0241C48.9383 44.6102 48.9791 43.9536 48.6203 43.4918L45.3816 39.3128C46.82 37.1295 47.8322 34.6938 48.365 32.1342Z" stroke="#66737C" stroke-width="3.57143" stroke-linecap="round" stroke-linejoin="round" fill="none"/><path d="M12.7692 27.8623C12.7692 36.1968 19.5256 42.9532 27.86 42.9532 36.1944 42.9532 42.9508 36.1968 42.9508 27.8623 42.9508 19.5279 36.1944 12.7715 27.86 12.7715 19.5256 12.7715 12.7692 19.5279 12.7692 27.8623Z" stroke="#66737C" stroke-width="3.57143" stroke-linecap="round" stroke-linejoin="round" fill="none"/><path d="M27.86 12.7715 27.86 24.3798" stroke="#66737C" stroke-width="3.57143" stroke-linecap="round" stroke-linejoin="round" fill="none"/><path d="M24.3775 27.8623C24.3775 29.7857 25.9367 31.3448 27.86 31.3448 29.7833 31.3448 31.3425 29.7857 31.3425 27.8623 31.3425 25.939 29.7833 24.3798 27.86 24.3798 25.9367 24.3798 24.3775 25.939 24.3775 27.8623Z" stroke="#66737C" stroke-width="3.57143" stroke-linecap="round" stroke-linejoin="round" fill="none"/><path d="M30.5996 30.0145 39.726 37.1861" stroke="#66737C" stroke-width="3.57143" stroke-linecap="round" stroke-linejoin="round" fill="none"/><path d="M25.1204 30.0145 15.994 37.1861" stroke="#66737C" stroke-width="3.57143" stroke-linecap="round" stroke-linejoin="round" fill="none"/></svg>