<svg width="60" height="60" viewBox="-2.14 -2.14 60 60" xmlns="http://www.w3.org/2000/svg" xmlns:xlink="http://www.w3.org/1999/xlink" id="Compass-Directions--Streamline-Ultimate.svg" overflow="hidden"><path d="M1.74125 27.86C1.74125 42.285 13.435 53.9788 27.86 53.9788 42.285 53.9788 53.9788 42.285 53.9788 27.86 53.9788 13.435 42.285 1.74125 27.86 1.74125 13.435 1.74125 1.74125 13.435 1.74125 27.86Z" stroke="#66737C" stroke-width="3.57143" stroke-linecap="round" stroke-linejoin="round" fill="none"/><path d="M40.8149 17.4496C41.1729 16.3972 40.6099 15.2538 39.5574 14.8958 39.1371 14.7529 38.6814 14.7529 38.2611 14.8958L20.7464 20.7464 34.9736 34.9736Z" stroke="#66737C" stroke-width="3.57143" stroke-linecap="round" stroke-linejoin="round" fill="none"/><path d="M20.7464 20.7464 14.9028 38.2704C14.5448 39.3228 15.1078 40.4662 16.1603 40.8242 16.5806 40.9671 17.0363 40.9671 17.4566 40.8242L34.9806 34.9829" stroke="#66737C" stroke-width="3.57143" stroke-linecap="round" stroke-linejoin="round" fill="none"/></svg>