<svg width="60" height="60" viewBox="-1.875 -1.875 60 60" xmlns="http://www.w3.org/2000/svg" xmlns:xlink="http://www.w3.org/1999/xlink" id="Software-Monitor-Cog--Streamline-Ultimate" fill="none" overflow="hidden"><path d="M42.5166 20.4199 47.2041 20.4199" stroke="#66737C" stroke-width="3.33333" stroke-linecap="round" stroke-linejoin="round" stroke-miterlimit="10"/><path d="M35.4853 20.4199 36.6572 20.4199" stroke="#66737C" stroke-width="3.33333" stroke-linecap="round" stroke-linejoin="round" stroke-miterlimit="10"/><path d="M35.4853 27.9199 47.2041 27.9199" stroke="#66737C" stroke-width="3.33333" stroke-linecap="round" stroke-linejoin="round" stroke-miterlimit="10"/><path d="M30.0947 36.123 47.2041 36.123" stroke="#66737C" stroke-width="3.33333" stroke-linecap="round" stroke-linejoin="round" stroke-miterlimit="10"/><path d="M16.0322 36.123 21.4228 36.123" stroke="#66737C" stroke-width="3.33333" stroke-linecap="round" stroke-linejoin="round" stroke-miterlimit="10"/><path d="M16.1267 3.80859 17.0642 6.62109C17.2986 7.55859 18.4705 8.26172 19.408 8.02734L22.2205 7.32422C24.7985 6.85547 26.4391 9.66797 24.7985 11.543L22.6892 13.6523C21.9861 14.3555 21.9861 15.5273 22.6892 16.2305L24.7985 18.3398C26.4391 20.2148 24.7985 23.2617 22.2205 22.5586L19.408 21.8555C18.4705 21.6211 17.2986 22.0898 17.0642 23.2617L16.1267 26.0742C15.4236 28.6523 11.908 28.6523 11.2049 26.0742L10.2674 23.2617C10.033 22.3242 8.86111 21.6211 7.92361 21.8555L5.11111 22.5586C2.53298 23.0273 0.892364 20.2148 2.53298 18.3398L4.64236 16.2305C5.34548 15.5273 5.34548 14.3555 4.64236 13.6523L2.53298 11.543C0.892364 9.66797 2.53298 6.62109 5.11111 7.32422L7.92361 8.02734C8.86111 8.26172 10.033 7.79297 10.2674 6.62109L11.2049 3.80859C11.908 1.23047 15.4236 1.23047 16.1267 3.80859Z" stroke="#66737C" stroke-width="3.33333" stroke-linecap="round" stroke-linejoin="round" stroke-miterlimit="10"/><path d="M23.4375 44.748 21.0938 54.1699" stroke="#66737C" stroke-width="3.33333" stroke-linecap="round" stroke-linejoin="round" stroke-miterlimit="10"/><path d="M32.8125 44.748 35.1562 54.1699" stroke="#66737C" stroke-width="3.33333" stroke-linecap="round" stroke-linejoin="round" stroke-miterlimit="10"/><path d="M14.0625 54.1699 42.1875 54.1699" stroke="#66737C" stroke-width="3.33333" stroke-linecap="round" stroke-linejoin="round" stroke-miterlimit="10"/><path d="M35.0098 7.06057 49.8047 7.06057C52.3828 7.06057 54.4922 9.18049 54.4922 11.7715L54.4922 40.0371C54.4922 42.6281 52.3828 44.748 49.8047 44.748L6.44531 44.748C3.86719 44.748 1.75781 42.6281 1.75781 40.0371L1.75781 31.2012" stroke="#66737C" stroke-width="3.33333" stroke-linecap="round" stroke-linejoin="round" stroke-miterlimit="10"/><path d="M10.1508 14.9414C10.1508 16.883 11.7248 18.457 13.6664 18.457 15.608 18.457 17.182 16.883 17.182 14.9414 17.182 12.9998 15.608 11.4258 13.6664 11.4258 11.7248 11.4258 10.1508 12.9998 10.1508 14.9414" stroke="#66737C" stroke-width="3.33333"/></svg>