<svg width="60" height="60" viewBox="-2.14 -2.14 60 60" xmlns="http://www.w3.org/2000/svg" xmlns:xlink="http://www.w3.org/1999/xlink" id="Customer-Relationship-Management-Lead-Management-2--Streamline-Ultimate.svg" overflow="hidden"><defs></defs><path d="M1.74125 39.4823C1.74125 42.8481 4.46979 45.5766 7.83562 45.5766 11.2015 45.5766 13.93 42.8481 13.93 39.4823 13.93 36.1164 11.2015 33.3879 7.83563 33.3879 4.46979 33.3879 1.74125 36.1164 1.74125 39.4823" stroke="#66737C" stroke-width="3.57143" stroke-linecap="round" stroke-linejoin="round" fill="none"/><path d="M17.445 53.663C15.1786 48.3568 9.03975 45.8925 3.73351 48.1589 3.03032 48.4592 2.36223 48.8359 1.74125 49.282" stroke="#66737C" stroke-width="3.57143" stroke-linecap="round" stroke-linejoin="round" fill="none"/><path d="M41.79 39.4823C41.79 42.8481 44.5185 45.5766 47.8844 45.5766 51.2502 45.5766 53.9788 42.8481 53.9788 39.4823 53.9788 36.1164 51.2502 33.3879 47.8844 33.3879 44.5185 33.3879 41.79 36.1164 41.79 39.4823" stroke="#66737C" stroke-width="3.57143" stroke-linecap="round" stroke-linejoin="round" fill="none"/><path d="M38.275 53.663C40.5414 48.3568 46.6803 45.8925 51.9865 48.1589 52.6897 48.4592 53.3578 48.8359 53.9788 49.282" stroke="#66737C" stroke-width="3.57143" stroke-linecap="round" stroke-linejoin="round" fill="none"/><path d="M20.0244 37.741C20.0244 42.0685 23.5325 45.5766 27.86 45.5766 32.1875 45.5766 35.6956 42.0685 35.6956 37.741 35.6956 33.4135 32.1875 29.9054 27.86 29.9054 23.5325 29.9054 20.0244 33.4135 20.0244 37.741" stroke="#66737C" stroke-width="3.57143" stroke-linecap="round" stroke-linejoin="round" fill="none"/><path d="M38.275 53.663C33.0395 47.911 24.1323 47.4922 18.3803 52.7277 18.054 53.0247 17.7419 53.3368 17.445 53.663" stroke="#66737C" stroke-width="3.57143" stroke-linecap="round" stroke-linejoin="round" fill="none"/><path d="M24.3775 17.7282C24.3775 19.6516 25.9367 21.2107 27.86 21.2107 29.7833 21.2107 31.3425 19.6516 31.3425 17.7282 31.3425 15.8049 29.7833 14.2457 27.86 14.2457 25.9367 14.2457 24.3775 15.8049 24.3775 17.7282" stroke="#66737C" stroke-width="3.57143" stroke-linecap="round" stroke-linejoin="round" fill="none"/><path d="M21.1504 26.2464 17.7306 27.0381C16.0553 27.414 14.3926 26.3606 14.0167 24.6853 13.7924 23.6855 14.0752 22.6393 14.7728 21.8887L17.1641 19.3093C17.9928 18.4182 17.9928 17.0383 17.1641 16.1472L14.7728 13.5678C13.6024 12.3116 13.672 10.3445 14.9282 9.17419 15.6797 8.47405 16.7286 8.1903 17.7306 8.41604L21.1504 9.20773C22.3329 9.48055 23.5243 8.7889 23.8737 7.62668L24.9022 4.25562C25.3918 2.62207 27.113 1.69474 28.7466 2.18438 29.7414 2.48256 30.5196 3.26083 30.8178 4.25562L31.844 7.62668C32.1944 8.78923 33.3865 9.48072 34.5696 9.20773L37.9871 8.41604C39.662 8.03869 41.3257 9.09058 41.7031 10.7655 41.9288 11.7675 41.6451 12.8163 40.9449 13.5678L38.5536 16.1472C37.7249 17.0383 37.7249 18.4182 38.5536 19.3093L40.9449 21.8887C42.1158 23.1426 42.0485 25.1083 40.7945 26.2792 40.0422 26.9816 38.9909 27.2659 37.9871 27.0381L34.5696 26.2464" stroke="#66737C" stroke-width="3.57143" stroke-linecap="round" stroke-linejoin="round" fill="none"/></svg>