<svg width="60" height="60" viewBox="-2.14 -2.14 60 60" xmlns="http://www.w3.org/2000/svg" xmlns:xlink="http://www.w3.org/1999/xlink" id="Customer-Relationship-Management-Call-Center-Support--Streamline-Ultimate.svg" overflow="hidden"><defs></defs><path d="M8.70625 41.79C4.85959 41.79 1.74125 38.6717 1.74125 34.825L1.74125 27.86C1.74125 24.0133 4.85959 20.895 8.70625 20.895Z" stroke="#66737C" stroke-width="3.57143" stroke-linecap="round" stroke-linejoin="round" fill="none"/><path d="M47.0137 20.895C50.8604 20.895 53.9787 24.0133 53.9787 27.86L53.9787 34.825C53.9787 38.6717 50.8604 41.79 47.0137 41.79Z" stroke="#66737C" stroke-width="3.57143" stroke-linecap="round" stroke-linejoin="round" fill="none"/><path d="M8.70625 20.895C8.70625 10.3167 17.2817 1.74125 27.86 1.74125L27.86 1.74125C38.4383 1.74125 47.0138 10.3167 47.0138 20.895" stroke="#66737C" stroke-width="3.57143" stroke-linecap="round" stroke-linejoin="round" fill="none"/><path d="M34.825 50.4963 40.0488 50.4963C43.8954 50.4963 47.0138 47.3779 47.0138 43.5312L47.0137 43.5312 47.0137 41.79" stroke="#66737C" stroke-width="3.57143" stroke-linecap="round" stroke-linejoin="round" fill="none"/><path d="M31.3425 53.9787 27.86 53.9787C25.9367 53.9787 24.3775 52.4196 24.3775 50.4963L24.3775 50.4963C24.3775 48.5729 25.9367 47.0138 27.86 47.0138L31.3425 47.0137C33.2658 47.0137 34.825 48.5729 34.825 50.4962L34.825 50.4963C34.825 52.4196 33.2658 53.9787 31.3425 53.9787Z" stroke="#66737C" stroke-width="3.57143" stroke-linecap="round" stroke-linejoin="round" fill="none"/><path d="M24.5122 26.6992C24.5122 28.5109 25.9809 29.9797 27.7927 29.9797 29.6045 29.9797 31.0732 28.5109 31.0732 26.6992 31.0732 24.8874 29.6045 23.4187 27.7927 23.4187 25.9809 23.4187 24.5122 24.8874 24.5122 26.6992" stroke="#66737C" stroke-width="3.57143" stroke-linecap="round" stroke-linejoin="round" fill="none"/><path d="M30.581 14.0043 31.5491 17.1803C31.8783 18.2752 33.0003 18.9271 34.1146 18.6708L37.337 17.9233C38.9142 17.5672 40.4815 18.557 40.8376 20.1342 41.0508 21.0786 40.7833 22.0674 40.123 22.7756L37.8687 25.2063C37.0911 26.0479 37.0911 27.3458 37.8687 28.1874L40.123 30.6181C41.2257 31.8007 41.1609 33.6532 39.9784 34.7559 39.2703 35.4162 38.2815 35.6837 37.337 35.4704L34.1146 34.7228C33.0003 34.4666 31.8783 35.1184 31.5491 36.2134L30.581 39.3917C30.1142 40.9304 28.4885 41.7993 26.9498 41.3326 26.0194 41.0503 25.2913 40.3222 25.009 39.3917L24.0385 36.218C23.7096 35.1285 22.5951 34.4781 21.4847 34.7275L18.2622 35.4751C16.6851 35.8312 15.1178 34.8413 14.7617 33.2641 14.5485 32.3197 14.8159 31.3309 15.4762 30.6228L17.7306 28.192C18.5082 27.3504 18.5082 26.0525 17.7306 25.211L15.4623 22.7779C14.3596 21.5953 14.4244 19.7428 15.607 18.6401 16.3151 17.9798 17.3039 17.7123 18.2483 17.9256L21.4708 18.6732C22.5812 18.9226 23.6956 18.2721 24.0246 17.1827L24.9927 14.0043C25.4444 12.4611 27.0616 11.5763 28.6048 12.0281 29.5573 12.3069 30.3022 13.0518 30.581 14.0043Z" stroke="#66737C" stroke-width="3.57143" stroke-linecap="round" stroke-linejoin="round" fill="none"/></svg>