<svg width="60" height="60" viewBox="-2.14 -2.14 60 60" xmlns="http://www.w3.org/2000/svg" xmlns:xlink="http://www.w3.org/1999/xlink" id="Vip-Crown-King--Streamline-Ultimate.svg" overflow="hidden"><g><path d="M48.755 43.5312 6.965 43.5312C4.08 43.5312 1.74125 45.87 1.74125 48.755L1.74125 48.755C1.74125 51.64 4.08 53.9788 6.965 53.9788L48.755 53.9787C51.64 53.9787 53.9788 51.64 53.9788 48.755L53.9787 48.755C53.9787 45.87 51.64 43.5312 48.755 43.5312Z" stroke="#66737C" stroke-width="3.57143" stroke-linecap="round" stroke-linejoin="round" fill="none"/><path d="M15.6713 29.6012C15.6713 22.8696 21.1283 17.4125 27.86 17.4125 34.5917 17.4125 40.0488 22.8696 40.0488 29.6012" stroke="#66737C" stroke-width="3.57143" stroke-linecap="round" stroke-linejoin="round" fill="none"/><path d="M27.86 17.4125 27.86 1.74125" stroke="#66737C" stroke-width="3.57143" stroke-linecap="round" stroke-linejoin="round" fill="none"/><path d="M22.6362 6.965 33.0838 6.965" stroke="#66737C" stroke-width="3.57143" stroke-linecap="round" stroke-linejoin="round" fill="none"/><path d="M37.9593 22.7988C38.6501 22.687 39.349 22.6327 40.0488 22.6362 47.742 22.5989 54.0088 28.8053 54.0461 36.4985 54.0597 39.302 53.2271 42.0444 51.6571 44.3671" stroke="#66737C" stroke-width="3.57143" stroke-linecap="round" stroke-linejoin="round" fill="none"/><path d="M17.7607 22.7988C17.0699 22.687 16.371 22.6327 15.6712 22.6362 7.97801 22.5989 1.71117 28.8053 1.67387 36.4985 1.66028 39.302 2.49291 42.0444 4.06292 44.3671" stroke="#66737C" stroke-width="3.57143" stroke-linecap="round" stroke-linejoin="round" fill="none"/></g></svg>