<svg width="60" height="60" viewBox="-2.14 -2.14 60 60" xmlns="http://www.w3.org/2000/svg" xmlns:xlink="http://www.w3.org/1999/xlink" id="Vip-Crown-Queen--Streamline-Ultimate.svg" overflow="hidden"><g><path d="M48.755 43.5312 6.965 43.5312C4.08 43.5312 1.74125 45.87 1.74125 48.755L1.74125 48.755C1.74125 51.64 4.08 53.9788 6.965 53.9788L48.755 53.9787C51.64 53.9787 53.9788 51.64 53.9788 48.755L53.9787 48.755C53.9787 45.87 51.64 43.5312 48.755 43.5312Z" stroke="#66737C" stroke-width="3.57143" stroke-linecap="round" stroke-linejoin="round" fill="none"/><path d="M27.86 19.1537 27.86 1.74125" stroke="#66737C" stroke-width="3.57143" stroke-linecap="round" stroke-linejoin="round" fill="none"/><path d="M22.6362 6.965 33.0838 6.965" stroke="#66737C" stroke-width="3.57143" stroke-linecap="round" stroke-linejoin="round" fill="none"/><path d="M4.82907 44.1117C0.733765 40.047 0.708914 33.4321 4.77356 29.3368 8.83821 25.2415 15.4532 25.2166 19.5485 29.2813 21.5213 31.2393 22.6325 33.9028 22.6362 36.6823L22.6362 43.6473" stroke="#66737C" stroke-width="3.57143" stroke-linecap="round" stroke-linejoin="round" fill="none"/><path d="M50.8909 44.1117C54.9862 40.047 55.0111 33.4321 50.9464 29.3368 46.8818 25.2415 40.2668 25.2166 36.1716 29.2813 34.1987 31.2393 33.0875 33.9028 33.0838 36.6823L33.0838 43.6473" stroke="#66737C" stroke-width="3.57143" stroke-linecap="round" stroke-linejoin="round" fill="none"/><path d="M19.2002 28.8351C18.3412 20.895 25.933 19.1537 27.86 19.1537 29.787 19.1537 37.3788 20.895 36.5198 28.8351" stroke="#66737C" stroke-width="3.57143" stroke-linecap="round" stroke-linejoin="round" fill="none"/></g></svg>