<svg width="60" height="60" viewBox="-2.14 -2.14 60 60" xmlns="http://www.w3.org/2000/svg" xmlns:xlink="http://www.w3.org/1999/xlink" id="Coding-Apps-Website-Big-Data-Sync-Cloud--Streamline-Ultimate.svg" fill="none" overflow="hidden"><path d="M12.9038 23.1354C11.3805 21.8126 10.2094 20.1323 9.4955 18.2453 8.78163 16.3583 8.54731 14.3236 8.81358 12.3237 9.07988 10.3238 9.83839 8.42136 11.0211 6.78688 12.2039 5.15241 13.7739 3.83709 15.5902 2.95892 17.4066 2.08074 19.4125 1.66717 21.4281 1.7553 23.4437 1.84343 25.406 2.43051 27.1387 3.46386 28.8715 4.49723 30.3207 5.94456 31.3562 7.67603 32.3919 9.40749 32.9814 11.3689 33.0721 13.3844 33.816 12.4625 34.7591 11.7213 35.8307 11.2164 36.9022 10.7115 38.0744 10.4562 39.2589 10.4696 40.4434 10.483 41.6094 10.7647 42.6692 11.2937 43.7291 11.8226 44.6554 12.585 45.3781 13.5235 46.1009 14.462 46.6017 15.5521 46.8424 16.7119 47.0832 17.8717 47.0579 19.0711 46.7683 20.2197 46.4788 21.3683 45.9328 22.4364 45.1708 23.3434 44.4091 24.2507 43.4516 24.9732 42.3704 25.4571" stroke="#66737C" stroke-width="3.57143" stroke-linecap="round" stroke-linejoin="round"/><path d="M1.74125 43.5312C1.74125 42.6077 2.10815 41.7217 2.76125 41.0687 3.41434 40.4156 4.30014 40.0488 5.22375 40.0488L21.4754 40.0488C22.399 40.0488 23.2849 40.4156 23.938 41.0687 24.5911 41.7217 24.9579 42.6077 24.9579 43.5312L24.9579 50.4963C24.9579 51.4198 24.5911 52.3058 23.938 52.9588 23.2849 53.6119 22.399 53.9787 21.4754 53.9787L5.22375 53.9787C4.30014 53.9787 3.41434 53.6119 2.76125 52.9588 2.10815 52.3058 1.74125 51.4198 1.74125 50.4963L1.74125 43.5312Z" stroke="#66737C" stroke-width="3.57143" stroke-linecap="round" stroke-linejoin="round"/><path d="M8.70625 47.896C8.22541 47.896 7.83563 47.5062 7.83563 47.0254 7.83563 46.5445 8.22541 46.1547 8.70625 46.1547" stroke="#66737C" stroke-width="3.57143"/><path d="M8.70625 47.896C9.18709 47.896 9.57687 47.5062 9.57687 47.0254 9.57687 46.5445 9.18709 46.1547 8.70625 46.1547" stroke="#66737C" stroke-width="3.57143"/><path d="M37.7271 47.896C37.2463 47.896 36.8565 47.5062 36.8565 47.0254 36.8565 46.5445 37.2463 46.1547 37.7271 46.1547" stroke="#66737C" stroke-width="3.57143"/><path d="M37.7271 47.896C38.2079 47.896 38.5977 47.5062 38.5977 47.0254 38.5977 46.5445 38.2079 46.1547 37.7271 46.1547" stroke="#66737C" stroke-width="3.57143"/><path d="M17.9929 47.0137 15.6713 47.0137" stroke="#66737C" stroke-width="3.57143" stroke-linecap="round" stroke-linejoin="round"/><path d="M30.7621 43.5312C30.7621 42.6077 31.1289 41.7217 31.782 41.0687 32.4351 40.4156 33.321 40.0488 34.2446 40.0488L50.4963 40.0488C51.4198 40.0488 52.3058 40.4156 52.9588 41.0687 53.6119 41.7217 53.9787 42.6077 53.9787 43.5312L53.9787 50.4963C53.9787 51.4198 53.6119 52.3058 52.9588 52.9588 52.3058 53.6119 51.4198 53.9787 50.4963 53.9787L34.2446 53.9787C33.321 53.9787 32.4351 53.6119 31.782 52.9588 31.1289 52.3058 30.7621 51.4198 30.7621 50.4963L30.7621 43.5312Z" stroke="#66737C" stroke-width="3.57143" stroke-linecap="round" stroke-linejoin="round"/><path d="M47.0137 47.0137 44.6921 47.0137" stroke="#66737C" stroke-width="3.57143" stroke-linecap="round" stroke-linejoin="round"/><path d="M24.3775 33.6642 24.3775 20.5444 20.0731 24.8488" stroke="#66737C" stroke-width="3.57143" stroke-linecap="round" stroke-linejoin="round"/><path d="M31.8417 20.5444 31.8417 33.6642 36.0485 29.4573" stroke="#66737C" stroke-width="3.57143" stroke-linecap="round" stroke-linejoin="round"/></svg>