<svg width="60" height="60" viewBox="-1.875 -1.875 60 60" xmlns="http://www.w3.org/2000/svg" xmlns:xlink="http://www.w3.org/1999/xlink" id="Reorder-Pdf-Pages--Streamline-Ultimate" fill="none" overflow="hidden"><path d="M13.8809 46.2813C14.4958 46.2813 14.9921 45.7849 14.9921 45.1702L14.9921 32.8584C14.9921 32.5622 14.8736 32.2732 14.6587 32.0658L12.4364 29.9325C12.229 29.7251 11.9475 29.614 11.6586 29.614L3.26264 29.614C2.6478 29.614 2.15149 30.1102 2.15149 30.7252L2.15149 45.1702C2.15149 45.7849 2.6478 46.2813 3.26264 46.2813L13.8809 46.2813Z" stroke="#66737C" stroke-width="3.33333" stroke-linecap="round" stroke-linejoin="round"/><path d="M33.4962 46.2813C34.1109 46.2813 34.6073 45.7849 34.6073 45.1702L34.6073 32.8584C34.6073 32.5622 34.4888 32.2732 34.2738 32.0658L32.0515 29.9325C31.8441 29.7251 31.5626 29.614 31.2738 29.614L22.8778 29.614C22.263 29.614 21.7667 30.1102 21.7667 30.7252L21.7667 45.1702C21.7667 45.7849 22.263 46.2813 22.8778 46.2813L33.4962 46.2813Z" stroke="#66737C" stroke-width="3.33333" stroke-linecap="round" stroke-linejoin="round"/><path d="M52.9877 46.2813C53.6025 46.2813 54.0989 45.7849 54.0989 45.1702L54.0989 32.8584C54.0989 32.5622 53.9803 32.2732 53.7654 32.0658L51.5433 29.9325C51.3359 29.7251 51.0544 29.614 50.7654 29.614L42.3694 29.614C41.7546 29.614 41.2582 30.1102 41.2582 30.7252L41.2582 45.1702C41.2582 45.7849 41.7546 46.2813 42.3694 46.2813L52.9877 46.2813Z" stroke="#66737C" stroke-width="3.33333" stroke-linecap="round" stroke-linejoin="round"/><path d="M37.5504 19.7925 45.1959 20.6417 46.0448 12.9959" stroke="#66737C" stroke-width="3.33333" stroke-linecap="round" stroke-linejoin="round"/><path d="M11.6592 19.793C14.2986 15.8307 20.2436 9.96895 27.8365 9.96895 35.4293 9.96895 41.0442 14.7576 44.0984 19.793" stroke="#66737C" stroke-width="3.33333" stroke-linecap="round" stroke-linejoin="round"/></svg>