<svg width="60" height="60" viewBox="-2.14 -2.14 60 60" xmlns="http://www.w3.org/2000/svg" xmlns:xlink="http://www.w3.org/1999/xlink" id="Color-Brush-2--Streamline-Ultimate.svg" overflow="hidden"><path d="M2.29381 53.2637C2.29381 53.2637 5.572 49.881 5.92025 41.1632 5.87324 38.7869 6.78445 36.4917 8.44854 34.7948 11.9664 31.5169 17.4754 31.7113 20.7534 35.2292 23.8689 38.5727 23.8689 43.7561 20.7534 47.0997 16.0279 52.1273 9.092 54.4433 2.29381 53.2637Z" stroke="#66737C" stroke-width="3.57143" stroke-linecap="round" stroke-linejoin="round" fill="none"/><path d="M25.1135 24.3705 31.2473 30.5044" stroke="#66737C" stroke-width="3.57143" stroke-linecap="round" stroke-linejoin="round" fill="none"/><path d="M51.541 4.01416C49.0277 1.50274 44.9543 1.50429 42.4429 4.01762 42.3233 4.13726 42.2085 4.26158 42.0988 4.39027L17.8768 32.8818C20.1002 33.7836 21.8532 35.5626 22.7222 37.7991L51.1672 13.4657C53.8724 11.1621 54.1979 7.1018 51.8944 4.39666 51.7818 4.26444 51.6639 4.13684 51.541 4.01416Z" stroke="#66737C" stroke-width="3.57143" stroke-linecap="round" stroke-linejoin="round" fill="none"/></svg>