<svg width="60" height="60" viewBox="-1.875 -1.875 60 60" xmlns="http://www.w3.org/2000/svg" xmlns:xlink="http://www.w3.org/1999/xlink" id="Technology-Robot-Drone--Streamline-Ultimate" fill="none" overflow="hidden"><path d="M11.1328 20.5078C16.3105 20.5078 20.5078 16.3105 20.5078 11.1328 20.5078 5.95514 16.3105 1.75781 11.1328 1.75781 5.95514 1.75781 1.75781 5.95514 1.75781 11.1328 1.75781 16.3105 5.95514 20.5078 11.1328 20.5078Z" stroke="#66737C" stroke-width="3.33333" stroke-linecap="round" stroke-linejoin="round"/><path d="M45.1172 20.5078C50.2948 20.5078 54.4922 16.3105 54.4922 11.1328 54.4922 5.95514 50.2948 1.75781 45.1172 1.75781 39.9396 1.75781 35.7422 5.95514 35.7422 11.1328 35.7422 16.3105 39.9396 20.5078 45.1172 20.5078Z" stroke="#66737C" stroke-width="3.33333" stroke-linecap="round" stroke-linejoin="round"/><path d="M11.1328 54.4922C16.3105 54.4922 20.5078 50.2948 20.5078 45.1172 20.5078 39.9396 16.3105 35.7422 11.1328 35.7422 5.95514 35.7422 1.75781 39.9396 1.75781 45.1172 1.75781 50.2948 5.95514 54.4922 11.1328 54.4922Z" stroke="#66737C" stroke-width="3.33333" stroke-linecap="round" stroke-linejoin="round"/><path d="M45.1172 54.4922C50.2948 54.4922 54.4922 50.2948 54.4922 45.1172 54.4922 39.9396 50.2948 35.7422 45.1172 35.7422 39.9396 35.7422 35.7422 39.9396 35.7422 45.1172 35.7422 50.2948 39.9396 54.4922 45.1172 54.4922Z" stroke="#66737C" stroke-width="3.33333" stroke-linecap="round" stroke-linejoin="round"/><path d="M37.6688 16.8257C34.6948 18.2696 31.4311 19.0174 28.125 19.0124 24.8189 19.0177 21.5552 18.2698 18.5812 16.8257" stroke="#66737C" stroke-width="3.33333" stroke-linecap="round" stroke-linejoin="round"/><path d="M18.5812 39.4242C21.5569 37.9849 24.8196 37.2373 28.125 37.2373 31.4304 37.2373 34.6931 37.9849 37.6688 39.4242" stroke="#66737C" stroke-width="3.33333" stroke-linecap="round" stroke-linejoin="round"/><path d="M39.4242 18.5812C37.9849 21.5569 37.2375 24.8196 37.2375 28.125 37.2375 31.4304 37.9849 34.6931 39.4242 37.6688" stroke="#66737C" stroke-width="3.33333" stroke-linecap="round" stroke-linejoin="round"/><path d="M16.8258 37.6688C18.2697 34.6948 19.0175 31.4309 19.0125 28.125 19.0175 24.8189 18.2697 21.5552 16.8258 18.5812" stroke="#66737C" stroke-width="3.33333" stroke-linecap="round" stroke-linejoin="round"/><path d="M11.1328 12.0117C10.6474 12.0117 10.2539 11.6182 10.2539 11.1328 10.2539 10.6474 10.6474 10.2539 11.1328 10.2539" stroke="#66737C" stroke-width="3.33333"/><path d="M11.1328 12.0117C11.6182 12.0117 12.0117 11.6182 12.0117 11.1328 12.0117 10.6474 11.6182 10.2539 11.1328 10.2539" stroke="#66737C" stroke-width="3.33333"/><path d="M45.1172 12.0117C44.6318 12.0117 44.2383 11.6182 44.2383 11.1328 44.2383 10.6474 44.6318 10.2539 45.1172 10.2539" stroke="#66737C" stroke-width="3.33333"/><path d="M45.1172 12.0117C45.6026 12.0117 45.9961 11.6182 45.9961 11.1328 45.9961 10.6474 45.6026 10.2539 45.1172 10.2539" stroke="#66737C" stroke-width="3.33333"/><path d="M11.1328 45.9961C10.6474 45.9961 10.2539 45.6026 10.2539 45.1172 10.2539 44.6318 10.6474 44.2383 11.1328 44.2383" stroke="#66737C" stroke-width="3.33333"/><path d="M11.1328 45.9961C11.6182 45.9961 12.0117 45.6026 12.0117 45.1172 12.0117 44.6318 11.6182 44.2383 11.1328 44.2383" stroke="#66737C" stroke-width="3.33333"/><path d="M45.1172 45.9961C44.6318 45.9961 44.2383 45.6026 44.2383 45.1172 44.2383 44.6318 44.6318 44.2383 45.1172 44.2383" stroke="#66737C" stroke-width="3.33333"/><path d="M45.1172 45.9961C45.6026 45.9961 45.9961 45.6026 45.9961 45.1172 45.9961 44.6318 45.6026 44.2383 45.1172 44.2383" stroke="#66737C" stroke-width="3.33333"/></svg>