<svg width="60" height="60" viewBox="-1.875 -1.875 60 60" xmlns="http://www.w3.org/2000/svg" xmlns:xlink="http://www.w3.org/1999/xlink" id="Harvest-Farmer-Technology-3--Streamline-Ultimate" fill="none" overflow="hidden"><path d="M50.3906 12.7242C50.3906 11.7918 50.0203 10.8976 49.361 10.2383 48.7017 9.57898 47.8073 9.20859 46.875 9.20859L43.3875 9.20859C41.9201 9.24785 40.4613 8.97073 39.1106 8.39606 37.7599 7.82137 36.5487 6.9626 35.5594 5.87813 34.5691 4.7187 33.3396 3.78771 31.9549 3.14934 30.5702 2.511 29.0637 2.18042 27.5391 2.18042 26.0145 2.18042 24.5079 2.511 23.1232 3.14934 21.7386 3.78771 20.5089 4.7187 19.5187 5.87813 18.5295 6.96272 17.3183 7.82156 15.9675 8.39627 14.6168 8.97096 13.158 9.24802 11.6906 9.20859L8.20312 9.20859C7.27073 9.20859 6.3765 9.57898 5.7172 10.2383 5.05791 10.8976 4.6875 11.7918 4.6875 12.7242 4.6875 13.6566 5.05791 14.5508 5.7172 15.2101 6.3765 15.8694 7.27073 16.2398 8.20312 16.2398L11.6906 16.2398C13.1583 16.2003 14.6173 16.4775 15.9681 17.0526 17.319 17.6277 18.53 18.4873 19.5187 19.5727 20.5089 20.7321 21.7386 21.6631 23.1232 22.3014 24.5079 22.9398 26.0145 23.2704 27.5391 23.2704 29.0637 23.2704 30.5702 22.9398 31.9549 22.3014 33.3396 21.6631 34.5691 20.7321 35.5594 19.5727 36.5482 18.4875 37.7595 17.6281 39.1102 17.053 40.4611 16.4779 41.9198 16.2006 43.3875 16.2398L46.875 16.2398C47.8073 16.2398 48.7017 15.8694 49.361 15.2101 50.0203 14.5508 50.3906 13.6566 50.3906 12.7242Z" stroke="#66737C" stroke-width="3.33333" stroke-linecap="round" stroke-linejoin="round"/><path d="M4.6875 2.17735 11.7188 2.17735" stroke="#66737C" stroke-width="3.33333" stroke-linecap="round" stroke-linejoin="round"/><path d="M43.3594 2.17735 50.3906 2.17735" stroke="#66737C" stroke-width="3.33333" stroke-linecap="round" stroke-linejoin="round"/><path d="M38.25 17.4516C42.3457 20.3238 45.2473 24.597 46.4062 29.4633" stroke="#66737C" stroke-width="3.33333" stroke-linecap="round" stroke-linejoin="round"/><path d="M16.8281 17.4516C12.7331 20.3244 9.83166 24.5972 8.67188 29.4633" stroke="#66737C" stroke-width="3.33333" stroke-linecap="round" stroke-linejoin="round"/><path d="M21.6797 40.0102C21.3561 40.0102 21.0938 39.7479 21.0938 39.4242 21.0938 39.1005 21.3561 38.8383 21.6797 38.8383" stroke="#66737C" stroke-width="3.33333"/><path d="M21.6797 40.0102C22.0033 40.0102 22.2656 39.7479 22.2656 39.4242 22.2656 39.1005 22.0033 38.8383 21.6797 38.8383" stroke="#66737C" stroke-width="3.33333"/><path d="M25.1953 30.6352C24.8716 30.6352 24.6094 30.3729 24.6094 30.0492 24.6094 29.7255 24.8716 29.4633 25.1953 29.4633" stroke="#66737C" stroke-width="3.33333"/><path d="M25.1953 30.6352C25.519 30.6352 25.7812 30.3729 25.7812 30.0492 25.7812 29.7255 25.519 29.4633 25.1953 29.4633" stroke="#66737C" stroke-width="3.33333"/><path d="M34.5703 35.3227C34.2466 35.3227 33.9844 35.0604 33.9844 34.7367 33.9844 34.413 34.2466 34.1508 34.5703 34.1508" stroke="#66737C" stroke-width="3.33333"/><path d="M34.5703 35.3227C34.894 35.3227 35.1562 35.0604 35.1562 34.7367 35.1562 34.413 34.894 34.1508 34.5703 34.1508" stroke="#66737C" stroke-width="3.33333"/><path d="M11.7188 44.6977 2.34375 54.0727 53.9062 54.0727 44.5312 44.6977" stroke="#66737C" stroke-width="3.33333" stroke-linecap="round" stroke-linejoin="round"/><path d="M28.125 44.6977 28.125 54.0727" stroke="#66737C" stroke-width="3.33333" stroke-linecap="round" stroke-linejoin="round"/></svg>