<svg width="60" height="60" viewBox="-1.875 -1.875 60 60" xmlns="http://www.w3.org/2000/svg" xmlns:xlink="http://www.w3.org/1999/xlink" id="Delivery-Drone--Streamline-Ultimate" overflow="hidden"><g><path d="M17.5781 33.3984 38.6719 33.3984C38.6719 33.3984 39.8438 33.3984 39.8438 34.5703L39.8438 53.3203C39.8438 53.3203 39.8438 54.4922 38.6719 54.4922L17.5781 54.4922C17.5781 54.4922 16.4062 54.4922 16.4062 53.3203L16.4062 34.5703C16.4062 34.5703 16.4062 33.3984 17.5781 33.3984" stroke="#66737C" stroke-width="3.33333" stroke-linecap="round" stroke-linejoin="round" fill="none"/><path d="M9.96094 1.75781 9.96094 10.9688C9.98557 13.0131 11.3324 14.8057 13.2891 15.3984L17.0391 16.4062" stroke="#66737C" stroke-width="3.33333" stroke-linecap="round" stroke-linejoin="round" fill="none"/><path d="M18.6094 23.4375 11.8359 24.9609C9.32106 25.5753 7.7804 28.1121 8.39478 30.627 8.40099 30.6524 8.40742 30.6778 8.41406 30.7031L9.375 34.0078" stroke="#66737C" stroke-width="3.33333" stroke-linecap="round" stroke-linejoin="round" fill="none"/><path d="M26.3672 17.5781C26.3672 18.5489 27.1542 19.3359 28.125 19.3359 29.0958 19.3359 29.8828 18.5489 29.8828 17.5781 29.8828 16.6073 29.0958 15.8203 28.125 15.8203 27.1542 15.8203 26.3672 16.6073 26.3672 17.5781" stroke="#66737C" stroke-width="3.33333" stroke-linecap="round" stroke-linejoin="round" fill="none"/><path d="M16.9922 17.5781C16.9922 23.7266 21.9765 28.7109 28.125 28.7109 34.2735 28.7109 39.2578 23.7266 39.2578 17.5781 39.2578 11.4296 34.2735 6.44531 28.125 6.44531 21.9765 6.44531 16.9922 11.4296 16.9922 17.5781" stroke="#66737C" stroke-width="3.33333" stroke-linecap="round" stroke-linejoin="round" fill="none"/><path d="M32.8125 33.3984 32.8125 43.9453 23.4375 43.9453 23.4375 33.3984" stroke="#66737C" stroke-width="3.33333" stroke-linecap="round" stroke-linejoin="round" fill="none"/><path d="M1.75781 1.78125 18.1641 1.78125" stroke="#66737C" stroke-width="3.33333" stroke-linecap="round" stroke-linejoin="round" fill="none"/><path d="M46.2891 1.75781 46.2891 10.9688C46.2644 13.0131 44.9176 14.8057 42.9609 15.3984L39.2109 16.4062" stroke="#66737C" stroke-width="3.33333" stroke-linecap="round" stroke-linejoin="round" fill="none"/><path d="M37.6406 23.4375 44.4141 24.9609C46.9289 25.5753 48.4696 28.1121 47.8552 30.627 47.849 30.6524 47.8426 30.6778 47.8359 30.7031L46.875 34.0078" stroke="#66737C" stroke-width="3.33333" stroke-linecap="round" stroke-linejoin="round" fill="none"/><path d="M54.4922 1.78125 38.0859 1.78125" stroke="#66737C" stroke-width="3.33333" stroke-linecap="round" stroke-linejoin="round" fill="none"/></g></svg>