<svg width="60" height="60" viewBox="-1.875 -1.875 60 60" xmlns="http://www.w3.org/2000/svg" xmlns:xlink="http://www.w3.org/1999/xlink" id="Drone-Controller-1--Streamline-Ultimate" overflow="hidden"><path d="M54.4922 12.3047C54.4922 10.3631 52.9182 8.78906 50.9766 8.78906L47.4891 8.78906C44.5198 8.86852 41.6628 7.65299 39.6609 5.45859 35.8782 1.0291 29.2209 0.50476 24.7915 4.28745 24.371 4.64653 23.9794 5.03812 23.6203 5.45859 21.6187 7.65325 18.7615 8.86883 15.7922 8.78906L12.3047 8.78906C10.3631 8.78906 8.78906 10.3631 8.78906 12.3047 8.78906 14.2463 10.3631 15.8203 12.3047 15.8203L15.7922 15.8203C18.7615 15.7405 21.6187 16.9561 23.6203 19.1508 27.403 23.5803 34.0603 24.1046 38.4898 20.3219 38.9103 19.9628 39.3019 19.5713 39.6609 19.1508 41.6628 16.9564 44.5198 15.7409 47.4891 15.8203L50.9766 15.8203C52.9182 15.8203 54.4922 14.2463 54.4922 12.3047Z" stroke="#66737C" stroke-width="3.33333" stroke-linecap="round" stroke-linejoin="round" fill="none"/><path d="M8.78906 1.75781 15.8203 1.75781" stroke="#66737C" stroke-width="3.33333" stroke-linecap="round" stroke-linejoin="round" fill="none"/><path d="M47.4609 1.75781 54.4922 1.75781" stroke="#66737C" stroke-width="3.33333" stroke-linecap="round" stroke-linejoin="round" fill="none"/><path d="M20.9297 17.032C16.8352 19.9045 13.934 24.1764 12.7734 29.0414" stroke="#66737C" stroke-width="3.33333" stroke-linecap="round" stroke-linejoin="round" fill="none"/><path d="M42.3516 17.032C46.4468 19.9037 49.3483 24.1759 50.5078 29.0414 50.9531 30.9512 49.766 32.8604 47.8562 33.3058 47.6005 33.3654 47.3391 33.3965 47.0766 33.3984L43.9453 33.3984" stroke="#66737C" stroke-width="3.33333" stroke-linecap="round" stroke-linejoin="round" fill="none"/><path d="M26.3672 28.125C26.3672 31.0374 28.7282 33.3984 31.6406 33.3984 34.5531 33.3984 36.9141 31.0374 36.9141 28.125 36.9141 25.2126 34.5531 22.8516 31.6406 22.8516 28.7282 22.8516 26.3672 25.2126 26.3672 28.125Z" stroke="#66737C" stroke-width="3.33333" stroke-linecap="round" stroke-linejoin="round" fill="none"/><path d="M19.3359 36.9141 8.78906 36.9141C4.90581 36.9141 1.75781 40.0621 1.75781 43.9453L1.75781 51.232C1.75781 53.0326 3.21743 54.4922 5.01797 54.4922L5.01797 54.4922C6.25289 54.4926 7.38188 53.7947 7.93359 52.6898L10.5469 47.4609 17.5781 47.4609 20.1938 52.6922C21.0019 54.3012 22.9614 54.9503 24.5704 54.1421 25.6709 53.5893 26.366 52.4636 26.3672 51.232L26.3672 43.9453C26.3672 40.0621 23.2192 36.9141 19.3359 36.9141Z" stroke="#66737C" stroke-width="3.33333" stroke-linecap="round" stroke-linejoin="round" fill="none"/></svg>