<svg width="60" height="60" viewBox="-2.14 -2.14 60 60" xmlns="http://www.w3.org/2000/svg" xmlns:xlink="http://www.w3.org/1999/xlink" id="Drugs-Dealer-Money-Bag--Streamline-Ultimate.svg" overflow="hidden"><defs></defs><path d="M39.4683 51.0093 51.0093 39.4683C54.1963 36.2814 54.1963 31.1143 51.0093 27.9273 47.8224 24.7404 42.6553 24.7404 39.4683 27.9273L27.9273 39.4683C24.7404 42.6553 24.7404 47.8224 27.9273 51.0093 31.1143 54.1963 36.2814 54.1963 39.4683 51.0093Z" stroke="#66737C" stroke-width="3.57143" stroke-linecap="round" stroke-linejoin="round" fill="none"/><path d="M45.2377 45.2377 33.699 33.699" stroke="#66737C" stroke-width="3.57143" stroke-linecap="round" stroke-linejoin="round" fill="none"/><path d="M18.5733 40.6292 5.23768 40.6292C3.62774 40.6279 2.32295 39.3231 2.32167 37.7132L2.32167 13.3635C2.32295 11.7536 3.62774 10.4488 5.23768 10.4475L38.874 10.4475C40.4839 10.4488 41.7887 11.7536 41.79 13.3635L41.79 19.7342" stroke="#66737C" stroke-width="3.57143" stroke-linecap="round" stroke-linejoin="round" fill="none"/><path d="M18.5733 29.0208C18.5733 30.9442 20.1325 32.5033 22.0558 32.5033 23.9792 32.5033 25.5383 30.9442 25.5383 29.0208 25.5383 27.0975 23.9792 25.5383 22.0558 25.5383 20.1325 25.5383 18.5733 23.9792 18.5733 22.0558 18.5733 20.1325 20.1325 18.5733 22.0558 18.5733 23.9792 18.5733 25.5383 20.1325 25.5383 22.0558" stroke="#66737C" stroke-width="3.57143" stroke-linecap="round" stroke-linejoin="round" fill="none"/><path d="M22.0558 18.5733 22.0558 16.2517" stroke="#66737C" stroke-width="3.57143" stroke-linecap="round" stroke-linejoin="round" fill="none"/><path d="M22.0558 34.825 22.0558 32.5033" stroke="#66737C" stroke-width="3.57143" stroke-linecap="round" stroke-linejoin="round" fill="none"/><path d="M16.2517 2.32167 27.86 2.32167C29.1422 2.32167 30.1817 3.36111 30.1817 4.64333L30.1817 10.4475 30.1817 10.4475 13.93 10.4475 13.93 10.4475 13.93 4.64333C13.93 3.36111 14.9694 2.32167 16.2517 2.32167Z" stroke="#66737C" stroke-width="3.57143" stroke-linecap="round" stroke-linejoin="round" fill="none"/></svg>