<svg width="60" height="60" viewBox="-2.14 -2.14 60 60" xmlns="http://www.w3.org/2000/svg" xmlns:xlink="http://www.w3.org/1999/xlink" id="Drugs-Logistic-Box--Streamline-Ultimate.svg" overflow="hidden"><defs></defs><path d="M18.9866 36.0508 27.2146 44.2788C29.4792 46.5584 33.163 46.5705 35.4426 44.3059 37.7221 42.0413 37.7343 38.3575 35.4696 36.0779 35.4606 36.0689 35.4516 36.0598 35.4426 36.0508L27.2146 27.8229C24.95 25.5433 21.2662 25.5312 18.9866 27.7958 16.707 30.0604 16.6949 33.7442 18.9595 36.0238 18.9685 36.0328 18.9775 36.0418 18.9866 36.0508Z" stroke="#66737C" stroke-width="3.57143" stroke-linecap="round" stroke-linejoin="round" fill="none"/><path d="M23.1006 40.1648 31.3286 31.9368" stroke="#66737C" stroke-width="3.57143" stroke-linecap="round" stroke-linejoin="round" fill="none"/><path d="M4.06292 19.1537 51.6571 19.1537 51.6571 19.1537 51.6571 51.6571C51.6571 52.9393 50.6176 53.9787 49.3354 53.9787L6.38458 53.9787C5.10236 53.9787 4.06292 52.9393 4.06292 51.6571L4.06292 19.1537 4.06292 19.1537Z" stroke="#66737C" stroke-width="3.57143" stroke-linecap="round" stroke-linejoin="round" fill="none"/><path d="M51.6571 19.1537 4.06292 19.1537 12.8365 1.74125 42.8835 1.74125 51.6571 19.1537Z" stroke="#66737C" stroke-width="3.57143" stroke-linecap="round" stroke-linejoin="round" fill="none"/><path d="M27.86 1.74125 27.86 19.1537" stroke="#66737C" stroke-width="3.57143" stroke-linecap="round" stroke-linejoin="round" fill="none"/></svg>