<svg width="60" height="60" viewBox="-2.14 -2.14 60 60" xmlns="http://www.w3.org/2000/svg" xmlns:xlink="http://www.w3.org/1999/xlink" id="Drugs-Pills-Box--Streamline-Ultimate.svg" overflow="hidden"><path d="M22.0558 50.4963C22.0558 52.4196 23.615 53.9787 25.5383 53.9787L46.4333 53.9787C48.3567 53.9787 49.9158 52.4196 49.9158 50.4963L49.9158 12.1888 22.0558 12.1888 22.0558 26.1187" stroke="#66737C" stroke-width="3.57143" stroke-linecap="round" stroke-linejoin="round" fill="none"/><path d="M51.6571 12.1888 20.3146 12.1888C19.3529 12.1888 18.5733 11.4092 18.5733 10.4475L18.5733 5.22375C18.5733 3.30042 20.1325 1.74125 22.0558 1.74125L49.9158 1.74125C51.8392 1.74125 53.3983 3.30042 53.3983 5.22375L53.3983 10.4475C53.3983 11.4092 52.6188 12.1888 51.6571 12.1888Z" stroke="#66737C" stroke-width="3.57143" stroke-linecap="round" stroke-linejoin="round" fill="none"/><path d="M11.9682 52.4232C9.8942 54.4972 6.53159 54.4972 4.4576 52.4232 2.38361 50.3492 2.38361 46.9866 4.4576 44.9126L16.4838 32.898C18.5578 30.824 21.9204 30.824 23.9944 32.898 26.0684 34.972 26.0684 38.3346 23.9944 40.4086Z" stroke="#66737C" stroke-width="3.57143" stroke-linecap="round" stroke-linejoin="round" fill="none"/><path d="M10.4661 38.9065 17.9743 46.4148" stroke="#66737C" stroke-width="3.57143" stroke-linecap="round" stroke-linejoin="round" fill="none"/><path d="M32.5033 26.1187 49.9158 26.1187 49.9158 43.5312 32.5033 43.5312Z" stroke="#66737C" stroke-width="3.57143" stroke-linecap="round" stroke-linejoin="round" fill="none"/></svg>