<svg width="60" height="60" viewBox="-1.875 -1.875 60 60" xmlns="http://www.w3.org/2000/svg" xmlns:xlink="http://www.w3.org/1999/xlink" id="Vaccine-Protection-Face-Mask-1--Streamline-Ultimate" fill="none" overflow="hidden"><path d="M28.125 10.6945C26.6037 10.6945 25.1234 11.1879 23.9062 12.1008 22.0805 13.4695 17.5172 17.1398 15.2344 17.1398L11.7188 17.4328 11.7188 38.5266 19.418 43.1461C22.0482 44.7239 25.0577 45.5576 28.125 45.5578" stroke="#66737C" stroke-width="3.57143" stroke-linecap="round" stroke-linejoin="round"/><path d="M11.7188 38.5266 10.882 38.1328C8.15393 36.8484 5.84747 34.8143 4.23187 32.2683 2.61628 29.7223 1.75821 26.7694 1.75781 23.7539 1.75797 22.5772 2.05533 21.4196 2.62228 20.3885 3.18926 19.3574 4.00746 18.4862 5.001 17.8557 5.99452 17.2253 7.13121 16.8559 8.30559 16.782 9.47998 16.7081 10.654 16.9319 11.7188 17.4328" stroke="#66737C" stroke-width="3.57143" stroke-linecap="round" stroke-linejoin="round"/><path d="M28.125 10.6945C29.6463 10.6945 31.1266 11.1879 32.3438 12.1008 34.1695 13.4695 38.7328 17.1398 41.0156 17.1398L44.5312 17.4328 44.5312 38.5266 36.832 43.1461C34.2019 44.7239 31.1923 45.5576 28.125 45.5578" stroke="#66737C" stroke-width="3.57143" stroke-linecap="round" stroke-linejoin="round"/><path d="M44.5312 38.5266 45.368 38.1328C48.0961 36.8484 50.4026 34.8143 52.0181 32.2683 53.6337 29.7223 54.4917 26.7694 54.4922 23.7539 54.492 22.5772 54.1948 21.4196 53.6278 20.3885 53.0609 19.3574 52.2427 18.4862 51.2489 17.8557 50.2554 17.2253 49.1187 16.8559 47.9445 16.782 46.77 16.7081 45.596 16.9319 44.5312 17.4328" stroke="#66737C" stroke-width="3.57143" stroke-linecap="round" stroke-linejoin="round"/><path d="M22.2656 28.5656 33.9844 28.5656" stroke="#66737C" stroke-width="3.57143" stroke-linecap="round" stroke-linejoin="round"/><path d="M28.125 34.425 28.125 22.7062" stroke="#66737C" stroke-width="3.57143" stroke-linecap="round" stroke-linejoin="round"/></svg>