<svg width="60" height="60" viewBox="-2.14 -2.14 60 60" xmlns="http://www.w3.org/2000/svg" xmlns:xlink="http://www.w3.org/1999/xlink" id="Ecology-Human-Mind--Streamline-Ultimate.svg" overflow="hidden"><g><path d="M21.9398 28.5101C21.9398 28.5101 25.3526 32.0158 28.6726 30.5763 35.4054 27.6278 31.8997 18.5501 33.3159 14.464 28.248 13.7181 23.1294 15.4444 19.5484 19.1073 16.6696 22.3809 17.5518 25.8866 21.9398 28.5101Z" stroke="#66737C" stroke-width="3.57143" stroke-linecap="round" stroke-linejoin="round" fill="none"/><path d="M25.5383 22.6595C25.5383 22.6595 21.3825 24.6329 20.6396 33.107" stroke="#66737C" stroke-width="3.57143" stroke-linecap="round" stroke-linejoin="round" fill="none"/><path d="M35.893 53.9787 35.893 45.2957 38.2146 45.6904C42.0096 46.319 45.5956 43.7522 46.2242 39.9573 46.2917 39.5502 46.3228 39.138 46.3173 38.7254L46.3172 33.107 48.5228 32.5033C50.3881 32.0342 51.5198 30.1418 51.0507 28.2765 50.9529 27.8881 50.789 27.5194 50.5659 27.1867L46.4333 20.895 46.4333 19.177C46.4333 8.89198 35.9394 0.6965 23.5649 1.85733 12.0731 2.91069 3.61106 13.0806 4.66442 24.5724 5.28291 31.3199 9.13492 37.3487 14.998 40.7453L14.998 53.9787" stroke="#66737C" stroke-width="3.57143" stroke-linecap="round" stroke-linejoin="round" fill="none"/></g></svg>