<svg width="60" height="60" viewBox="-1.875 -1.875 60 60" xmlns="http://www.w3.org/2000/svg" xmlns:xlink="http://www.w3.org/1999/xlink" id="Recycling-Sign--Streamline-Ultimate" overflow="hidden"><path d="M42.9938 21.5625 34.0875 5.90156C32.1502 2.53608 27.8514 1.37831 24.4859 3.31562 23.411 3.93442 22.5188 4.82658 21.9 5.90156L19.4203 10.1906" stroke="#66737C" stroke-width="3.33333" stroke-linecap="round" stroke-linejoin="round" fill="none"/><path d="M27.9891 47.1094 45.7031 47.1094C49.5864 47.1119 52.7364 43.9659 52.7389 40.0826 52.7397 38.8469 52.4148 37.6327 51.7969 36.5625L48.75 31.2891" stroke="#66737C" stroke-width="3.33333" stroke-linecap="round" stroke-linejoin="round" fill="none"/><path d="M13.1109 20.7375 4.20469 36.5578C2.26306 39.9208 3.41531 44.2211 6.7783 46.1627 7.84851 46.7806 9.06267 47.1055 10.2984 47.1047L17.4516 47.1047" stroke="#66737C" stroke-width="3.33333" stroke-linecap="round" stroke-linejoin="round" fill="none"/><path d="M35.0203 40.0734 27.9891 47.1047 35.0203 54.1359" stroke="#66737C" stroke-width="3.33333" stroke-linecap="round" stroke-linejoin="round" fill="none"/><path d="M45.5672 11.9484 42.9938 21.5531 33.3891 18.9797" stroke="#66737C" stroke-width="3.33333" stroke-linecap="round" stroke-linejoin="round" fill="none"/><path d="M3.50625 23.3109 13.1109 20.7375 15.6844 30.3422" stroke="#66737C" stroke-width="3.33333" stroke-linecap="round" stroke-linejoin="round" fill="none"/></svg>