<svg width="60" height="60" viewBox="-1.875 -1.875 60 60" xmlns="http://www.w3.org/2000/svg" xmlns:xlink="http://www.w3.org/1999/xlink" id="Network-Arrow-Sync--Streamline-Ultimate" overflow="hidden"><g><g><path d="M28.125 14.0625 28.125 20.8359C28.125 22.9453 26.5781 23.7422 25.4297 24.4922 23.9527 25.4756 23.4401 27.4055 24.2344 28.9922L24.7969 30.1172C25.6654 31.8363 27.7555 32.5365 29.4844 31.6875L31.4297 30.7031C32.6241 30.113 33.3787 28.8947 33.375 27.5625 33.1307 25.8731 34.1111 24.2456 35.7188 23.6719L40.4062 21.5156" stroke="#66737C" stroke-width="3.33333" stroke-linecap="round" stroke-linejoin="round" fill="none"/><path d="M14.0625 28.125C14.0625 35.8915 20.3585 42.1875 28.125 42.1875 35.8915 42.1875 42.1875 35.8915 42.1875 28.125 42.1875 20.3585 35.8915 14.0625 28.125 14.0625 20.3585 14.0625 14.0625 20.3585 14.0625 28.125" stroke="#66737C" stroke-width="3.33333" stroke-linecap="round" stroke-linejoin="round" fill="none"/></g><g><path d="M37.6641 3.53906C24.0914-1.73737 8.81121 4.98805 3.53478 18.5607-0.386739 28.6481 2.25426 40.1075 10.1953 47.4609" stroke="#66737C" stroke-width="3.33333" stroke-linecap="round" stroke-linejoin="round" fill="none"/><path d="M10.1953 39.0234 10.1953 47.4609 1.75781 47.4609" stroke="#66737C" stroke-width="3.33333" stroke-linecap="round" stroke-linejoin="round" fill="none"/></g><g><path d="M18.5859 52.7109C32.1586 57.9874 47.4388 51.262 52.7152 37.6893 56.6367 27.6019 53.9957 16.1425 46.0547 8.78906" stroke="#66737C" stroke-width="3.33333" stroke-linecap="round" stroke-linejoin="round" fill="none"/><path d="M46.0547 17.2266 46.0547 8.78906 54.4922 8.78906" stroke="#66737C" stroke-width="3.33333" stroke-linecap="round" stroke-linejoin="round" fill="none"/></g></g></svg>