<svg width="60" height="60" viewBox="-2.14 -2.14 60 60" xmlns="http://www.w3.org/2000/svg" xmlns:xlink="http://www.w3.org/1999/xlink" id="Email-Action-Sync-1--Streamline-Ultimate.svg" overflow="hidden"><path d="M34.825 43.5312 26.1187 43.5312 26.1187 52.2375" stroke="#66737C" stroke-width="3.57143" stroke-linecap="round" stroke-linejoin="round" fill="none"/><path d="M52.6252 45.233C50.3121 51.9928 42.9571 55.5975 36.1974 53.2844 31.8225 51.7873 28.5793 48.069 27.6905 43.5312" stroke="#66737C" stroke-width="3.57143" stroke-linecap="round" stroke-linejoin="round" fill="none"/><path d="M45.2725 36.5662 53.9787 36.5662 53.9787 27.86" stroke="#66737C" stroke-width="3.57143" stroke-linecap="round" stroke-linejoin="round" fill="none"/><path d="M27.4723 34.8645C29.7854 28.1047 37.1404 24.5 43.9001 26.8131 48.275 28.3102 51.5182 32.0285 52.407 36.5662" stroke="#66737C" stroke-width="3.57143" stroke-linecap="round" stroke-linejoin="round" fill="none"/><path d="M19.1537 36.5662 5.22375 36.5662C3.30042 36.5662 1.74125 35.0071 1.74125 33.0838L1.74125 5.22375C1.74125 3.30042 3.30042 1.74125 5.22375 1.74125L47.0137 1.74125C48.9371 1.74125 50.4962 3.30042 50.4962 5.22375L50.4963 19.1537" stroke="#66737C" stroke-width="3.57143" stroke-linecap="round" stroke-linejoin="round" fill="none"/><path d="M49.7092 3.01817 30.8016 17.5611C28.0409 19.6848 24.1966 19.6848 21.4359 17.5611L2.5283 3.01817" stroke="#66737C" stroke-width="3.57143" stroke-linecap="round" stroke-linejoin="round" fill="none"/></svg>