<svg width="60" height="60" viewBox="-2.14 -2.14 60 60" xmlns="http://www.w3.org/2000/svg" xmlns:xlink="http://www.w3.org/1999/xlink" id="Email-Action-At--Streamline-Ultimate.svg" overflow="hidden"><g><g><path d="M31.3425 30.1817C30.2258 30.5846 29.0472 30.7889 27.86 30.7853 22.09 30.7853 17.4125 26.1078 17.4125 20.3378 17.4125 14.5678 22.09 9.8903 27.86 9.8903 33.63 9.8903 38.3075 14.5678 38.3075 20.3378" stroke="#66737C" stroke-width="3.57143" stroke-linecap="round" stroke-linejoin="round" fill="none"/><path d="M24.3775 20.3146C24.3775 22.2379 25.9367 23.7971 27.86 23.7971 29.7833 23.7971 31.3425 22.2379 31.3425 20.3146 31.3425 18.3913 29.7833 16.8321 27.86 16.8321 25.9367 16.8321 24.3775 18.3913 24.3775 20.3146" stroke="#66737C" stroke-width="3.57143" stroke-linecap="round" stroke-linejoin="round" fill="none"/><path d="M31.3425 20.3146C31.3425 22.2379 32.9017 23.7971 34.825 23.7971 36.7483 23.7971 38.3075 22.2379 38.3075 20.3146" stroke="#66737C" stroke-width="3.57143" stroke-linecap="round" stroke-linejoin="round" fill="none"/></g><g><path d="M47.0137 29.6012 47.0137 5.22375C47.0137 3.30042 45.4546 1.74125 43.5312 1.74125L12.1888 1.74125C10.2654 1.74125 8.70625 3.30042 8.70625 5.22375L8.70625 29.6012" stroke="#66737C" stroke-width="3.57143" stroke-linecap="round" stroke-linejoin="round" fill="none"/><path d="M51.0767 26.6063C51.6117 26.2004 52.3292 26.1287 52.934 26.4206 53.536 26.7029 53.9174 27.3112 53.9091 27.9761L53.9091 50.4963C53.9091 52.4196 52.3499 53.9787 50.4266 53.9787L5.22375 53.9787C3.30042 53.9787 1.74125 52.4196 1.74125 50.4963L1.74125 27.9761C1.73299 27.3112 2.11431 26.7029 2.71635 26.4206 3.3212 26.1287 4.03861 26.2004 4.57368 26.6063L23.5649 40.3041C26.0874 42.2801 29.6326 42.2801 32.1551 40.3041Z" stroke="#66737C" stroke-width="3.57143" stroke-linecap="round" stroke-linejoin="round" fill="none"/></g></g></svg>