<svg width="60" height="60" viewBox="-1.875 -1.875 60 60" xmlns="http://www.w3.org/2000/svg" xmlns:xlink="http://www.w3.org/1999/xlink" id="Heavy-Equipment-Lift-Hook-Box--Streamline-Ultimate" fill="none" overflow="hidden"><path d="M47.3763 54.3623 26.3791 54.3623C24.5229 54.3623 22.7426 53.625 21.43 52.3123 20.1174 50.9998 19.38 49.2195 19.38 47.3632 19.38 45.507 20.1174 43.7266 21.43 42.4141 22.7426 41.1016 24.5229 40.3641 26.3791 40.3641L47.3763 40.3641C49.2326 40.3641 51.0127 41.1016 52.3254 42.4141 53.6379 43.7266 54.3752 45.507 54.3752 47.3632 54.3752 49.2195 53.6379 50.9998 52.3254 52.3123 51.0127 53.625 49.2326 54.3623 47.3763 54.3623Z" stroke="#66737C" stroke-width="3.33333" stroke-linecap="round" stroke-linejoin="round"/><path d="M50.8755 41.2973 50.8755 29.8657C50.8755 28.9376 50.5069 28.0474 49.8506 27.3912 49.1944 26.7349 48.3042 26.366 47.3761 26.366L43.8764 26.366C42.9483 26.366 42.0584 25.9973 41.4019 25.3411 40.7456 24.6848 40.377 23.7947 40.377 22.8666L40.377 19.367C40.377 18.4389 40.0083 17.5488 39.352 16.8925 38.6958 16.2362 37.8056 15.8675 36.8775 15.8675L26.3789 15.8675C25.4508 15.8675 24.5606 16.2362 23.9044 16.8925 23.248 17.5488 22.8793 18.4389 22.8793 19.367L22.8793 41.2973" stroke="#66737C" stroke-width="3.33333" stroke-linecap="round" stroke-linejoin="round"/><path d="M29.8786 22.8666 33.378 22.8666" stroke="#66737C" stroke-width="3.33333" stroke-linecap="round" stroke-linejoin="round"/><path d="M8.8812 14.0011 8.8812 28.1159" stroke="#66737C" stroke-width="3.33333" stroke-linecap="round" stroke-linejoin="round"/><path d="M22.8793 26.996 3.09532 8.61176C2.39573 7.9541 1.96539 7.06003 1.88779 6.10298 1.81019 5.14596 2.09087 4.19423 2.67537 3.43247L2.67537 3.43247C3.25338 2.66398 4.09662 2.138 5.04101 1.95689 5.9854 1.77577 6.96338 1.95247 7.7847 2.45259L30.9516 15.8908" stroke="#66737C" stroke-width="3.33333" stroke-linecap="round" stroke-linejoin="round"/><path d="M13.5474 28.1159 4.21528 28.1159C2.9268 28.1159 1.88227 29.1605 1.88227 30.4488L1.88227 39.7809C1.88227 41.0695 2.9268 42.1139 4.21528 42.1139L13.5474 42.1139C14.8359 42.1139 15.8804 41.0695 15.8804 39.7809L15.8804 30.4488C15.8804 29.1605 14.8359 28.1159 13.5474 28.1159Z" stroke="#66737C" stroke-width="3.33333" stroke-linecap="round" stroke-linejoin="round"/><g><path d="M28.1287 48.2498C27.6455 48.2498 27.2538 47.8582 27.2538 47.3749 27.2538 46.8919 27.6455 46.5 28.1287 46.5" stroke="#66737C" stroke-width="3.33333"/><path d="M28.1287 48.2498C28.612 48.2498 29.0037 47.8582 29.0037 47.3749 29.0037 46.8919 28.612 46.5 28.1287 46.5" stroke="#66737C" stroke-width="3.33333"/></g><g><path d="M36.8831 48.2498C36.4001 48.2498 36.0082 47.8582 36.0082 47.3749 36.0082 46.8919 36.4001 46.5 36.8831 46.5" stroke="#66737C" stroke-width="3.33333"/><path d="M36.8831 48.2498C37.3664 48.2498 37.758 47.8582 37.758 47.3749 37.758 46.8919 37.3664 46.5 36.8831 46.5" stroke="#66737C" stroke-width="3.33333"/></g><g><path d="M45.6382 48.2498C45.1549 48.2498 44.7633 47.8582 44.7633 47.3749 44.7633 46.8919 45.1549 46.5 45.6382 46.5" stroke="#66737C" stroke-width="3.33333"/><path d="M45.638 48.2498C46.121 48.2498 46.5129 47.8582 46.5129 47.3749 46.5129 46.8919 46.121 46.5 45.638 46.5" stroke="#66737C" stroke-width="3.33333"/></g></svg>