<svg width="60" height="60" viewBox="-1.875 -1.875 60 60" xmlns="http://www.w3.org/2000/svg" xmlns:xlink="http://www.w3.org/1999/xlink" id="Factory-Building-Cog-3--Streamline-Ultimate" overflow="hidden"><defs></defs><path d="M19.3359 40.4297 19.3359 33.3984C19.3359 32.104 18.2866 31.0547 16.9922 31.0547L4.10156 31.0547C2.80715 31.0547 1.75781 32.104 1.75781 33.3984L1.75781 54.4922 54.4922 54.4922 54.4922 40.4297Z" stroke="#66737C" stroke-width="3.33333" stroke-linecap="round" stroke-linejoin="round" fill="none"/><path d="M15.8203 31.0547 5.27344 31.0547 7.03125 1.75781 14.0625 1.75781 15.8203 31.0547Z" stroke="#66737C" stroke-width="3.33333" stroke-linecap="round" stroke-linejoin="round" fill="none"/><path d="M22.8516 47.4609 26.3672 47.4609" stroke="#66737C" stroke-width="3.33333" stroke-linecap="round" stroke-linejoin="round" fill="none"/><path d="M33.3984 47.4609 36.9141 47.4609" stroke="#66737C" stroke-width="3.33333" stroke-linecap="round" stroke-linejoin="round" fill="none"/><path d="M43.9453 47.4609 47.4609 47.4609" stroke="#66737C" stroke-width="3.33333" stroke-linecap="round" stroke-linejoin="round" fill="none"/><path d="M6.52969 9.96094 14.5641 9.96094" stroke="#66737C" stroke-width="3.33333" stroke-linecap="round" stroke-linejoin="round" fill="none"/><path d="M35.1445 28.1297C35.1445 30.0713 36.7185 31.6453 38.6602 31.6453 40.6018 31.6453 42.1758 30.0713 42.1758 28.1297 42.1758 26.1881 40.6018 24.6141 38.6602 24.6141 36.7185 24.6141 35.1445 26.1881 35.1445 28.1297" stroke="#66737C" stroke-width="3.33333" stroke-linecap="round" stroke-linejoin="round" fill="none"/><path d="M25.4484 32.3227 27.8648 29.7188C28.7015 28.8191 28.7015 27.4262 27.8648 26.5266L25.4484 23.9227C24.2682 22.6533 24.3405 20.6676 25.6098 19.4874 26.3684 18.7821 27.4262 18.4965 28.4367 18.7242L31.8867 19.5234C33.0809 19.7978 34.2836 19.1002 34.6383 17.9273L35.6742 14.5312C36.1724 12.8833 37.9121 11.9513 39.5601 12.4494 40.5636 12.7528 41.3475 13.5403 41.6461 14.5453L42.682 17.9508C43.0425 19.1191 44.2405 19.814 45.4336 19.5469L48.8836 18.75C50.5744 18.3689 52.254 19.4307 52.635 21.1215 52.8628 22.132 52.5772 23.1898 51.8719 23.9484L49.4531 26.5406C48.6165 27.4402 48.6165 28.8332 49.4531 29.7328L51.8719 32.3438" stroke="#66737C" stroke-width="3.33333" stroke-linecap="round" stroke-linejoin="round" fill="none"/></svg>