<svg width="60" height="60" viewBox="-2.14 -2.14 60 60" xmlns="http://www.w3.org/2000/svg" xmlns:xlink="http://www.w3.org/1999/xlink" id="Building-Helmet--Streamline-Ultimate.svg" fill="none" overflow="hidden"><path d="M29.8334 32.039 38.6558 32.039 38.6558 3.71469C38.6558 2.78602 37.9593 1.85734 36.7984 1.85734L20.5467 1.85734C19.6181 1.85734 18.6894 2.55386 18.6894 3.71469L18.6894 21.3315" stroke="#66737C" stroke-width="3.57143" stroke-linecap="round" stroke-linejoin="round" stroke-miterlimit="10"/><path d="M31.4586 16.2517 38.6558 16.2517" stroke="#66737C" stroke-width="3.57143" stroke-linecap="round" stroke-linejoin="round" stroke-miterlimit="10"/><path d="M27.0474 9.28667 38.6558 9.28667" stroke="#66737C" stroke-width="3.57143" stroke-linecap="round" stroke-linejoin="round" stroke-miterlimit="10"/><path d="M34.9411 23.2167 38.6558 23.2167" stroke="#66737C" stroke-width="3.57143" stroke-linecap="round" stroke-linejoin="round" stroke-miterlimit="10"/><path d="M53.7466 32.039 38.6558 32.039" stroke="#66737C" stroke-width="3.57143" stroke-linecap="round" stroke-linejoin="round" stroke-miterlimit="10"/><path d="M50.2641 32.039 50.2641 11.144C50.2641 10.2153 49.5676 9.28662 48.4067 9.28662L39.1201 9.28662" stroke="#66737C" stroke-width="3.57143" stroke-linecap="round" stroke-linejoin="round" stroke-miterlimit="10"/><path d="M44.4599 16.2516 50.2641 16.2516" stroke="#66737C" stroke-width="3.57143" stroke-linecap="round" stroke-linejoin="round" stroke-miterlimit="10"/><path d="M44.4599 23.2166 50.2641 23.2166" stroke="#66737C" stroke-width="3.57143" stroke-linecap="round" stroke-linejoin="round" stroke-miterlimit="10"/><path d="M20.5468 33.432C25.6544 34.825 29.3691 39.7005 29.3691 45.2725L29.3691 46.8977" stroke="#66737C" stroke-width="3.57143" stroke-linecap="round" stroke-linejoin="round" stroke-miterlimit="10"/><path d="M13.5818 46.8977 13.5818 30.1817C13.5818 28.7887 14.5105 27.86 15.9035 27.86L18.2252 27.86C19.6182 27.86 20.5468 28.7887 20.5468 30.1817L20.5468 46.8977" stroke="#66737C" stroke-width="3.57143" stroke-linecap="round" stroke-linejoin="round" stroke-miterlimit="10"/><path d="M32.8516 51.541C32.8516 52.934 31.9229 53.8627 30.5299 53.8627L3.8308 53.8627C2.4378 53.8627 1.50914 52.934 1.50914 51.541L1.50914 49.2193C1.50914 47.8263 2.4378 46.8977 3.8308 46.8977L30.5299 46.8977C31.9229 46.8977 32.8516 47.8263 32.8516 49.2193L32.8516 51.541Z" stroke="#66737C" stroke-width="3.57143" stroke-linecap="round" stroke-linejoin="round" stroke-miterlimit="10"/><path d="M13.5817 33.432C8.47406 34.825 4.75939 39.7005 4.75939 45.2725L4.75939 46.8977" stroke="#66737C" stroke-width="3.57143" stroke-linecap="round" stroke-linejoin="round" stroke-miterlimit="10"/></svg>