<svg width="60" height="60" viewBox="-1.875 -1.875 60 60" xmlns="http://www.w3.org/2000/svg" xmlns:xlink="http://www.w3.org/1999/xlink" id="Filter-Text--Streamline-Ultimate" overflow="hidden"><path d="M33.3914 12.3047 50.9695 12.3047C52.9112 12.3047 54.4852 13.8787 54.4852 15.8203L54.4852 50.9766C54.4852 52.9182 52.9112 54.4922 50.9695 54.4922L19.3289 54.4922C17.3873 54.4922 15.8133 52.9182 15.8133 50.9766L15.8133 36.9141" stroke="#66737C" stroke-width="3.33333" stroke-linecap="round" stroke-linejoin="round" fill="none"/><path d="M29.8758 22.8516 47.4609 22.8516" stroke="#66737C" stroke-width="3.33333" stroke-linecap="round" stroke-linejoin="round" fill="none"/><path d="M24.6023 33.3984 47.4609 33.3984" stroke="#66737C" stroke-width="3.33333" stroke-linecap="round" stroke-linejoin="round" fill="none"/><path d="M24.6094 43.9453 47.4609 43.9453" stroke="#66737C" stroke-width="3.33333" stroke-linecap="round" stroke-linejoin="round" fill="none"/><path d="M19.3359 22.8516 19.3359 15.8203 29.1539 6.00234C30.1247 5.03091 30.1242 3.45641 29.1528 2.48559 28.6868 2.01986 28.0549 1.75811 27.3961 1.75781L4.24453 1.75781C2.87115 1.75843 1.75832 2.87228 1.75894 4.24566 1.75924 4.90451 2.02099 5.53632 2.48672 6.00234L12.3047 15.8203 12.3047 29.8828Z" stroke="#66737C" stroke-width="3.33333" stroke-linecap="round" stroke-linejoin="round" fill="none"/></svg>