<svg width="60" height="60" viewBox="-1.875 -1.875 60 60" xmlns="http://www.w3.org/2000/svg" xmlns:xlink="http://www.w3.org/1999/xlink" id="Engine-Air-Filter--Streamline-Ultimate" fill="none" overflow="hidden"><path d="M16.0546 54.4922 39.4922 54.4922" stroke="#66737C" stroke-width="3.33333" stroke-linecap="round" stroke-linejoin="round" stroke-miterlimit="10"/><path d="M16.0546 1.75781 39.4922 1.75781" stroke="#66737C" stroke-width="3.33333" stroke-linecap="round" stroke-linejoin="round" stroke-miterlimit="10"/><path d="M23.086 9.84387C22.8271 9.84387 22.6172 9.63401 22.6172 9.37512 22.6172 9.11623 22.8271 8.90637 23.086 8.90637" stroke="#66737C" stroke-width="3.33333" stroke-linecap="round" stroke-linejoin="round" stroke-miterlimit="10"/><path d="M23.0859 9.84387C23.3448 9.84387 23.5547 9.63401 23.5547 9.37512 23.5547 9.11623 23.3448 8.90637 23.0859 8.90637" stroke="#66737C" stroke-width="3.33333" stroke-linecap="round" stroke-linejoin="round" stroke-miterlimit="10"/><path d="M32.4609 9.84387C32.2022 9.84387 31.9922 9.63401 31.9922 9.37512 31.9922 9.11623 32.2022 8.90637 32.4609 8.90637" stroke="#66737C" stroke-width="3.33333" stroke-linecap="round" stroke-linejoin="round" stroke-miterlimit="10"/><path d="M32.4609 9.84387C32.7197 9.84387 32.9297 9.63401 32.9297 9.37512 32.9297 9.11623 32.7197 8.90637 32.4609 8.90637" stroke="#66737C" stroke-width="3.33333" stroke-linecap="round" stroke-linejoin="round" stroke-miterlimit="10"/><path d="M23.086 19.2189C22.8271 19.2189 22.6172 19.009 22.6172 18.7501 22.6172 18.4912 22.8271 18.2814 23.086 18.2814" stroke="#66737C" stroke-width="3.33333" stroke-linecap="round" stroke-linejoin="round" stroke-miterlimit="10"/><path d="M23.0859 19.2189C23.3448 19.2189 23.5547 19.009 23.5547 18.7501 23.5547 18.4912 23.3448 18.2814 23.0859 18.2814" stroke="#66737C" stroke-width="3.33333" stroke-linecap="round" stroke-linejoin="round" stroke-miterlimit="10"/><path d="M32.4609 19.2189C32.2022 19.2189 31.9922 19.009 31.9922 18.7501 31.9922 18.4912 32.2022 18.2814 32.4609 18.2814" stroke="#66737C" stroke-width="3.33333" stroke-linecap="round" stroke-linejoin="round" stroke-miterlimit="10"/><path d="M32.4609 19.2189C32.7197 19.2189 32.9297 19.009 32.9297 18.7501 32.9297 18.4912 32.7197 18.2814 32.4609 18.2814" stroke="#66737C" stroke-width="3.33333" stroke-linecap="round" stroke-linejoin="round" stroke-miterlimit="10"/><path d="M23.086 28.5938C22.8271 28.5938 22.6172 28.384 22.6172 28.125 22.6172 27.8662 22.8271 27.6562 23.086 27.6562" stroke="#66737C" stroke-width="3.33333" stroke-linecap="round" stroke-linejoin="round" stroke-miterlimit="10"/><path d="M23.0859 28.5938C23.3448 28.5938 23.5547 28.384 23.5547 28.125 23.5547 27.8662 23.3448 27.6562 23.0859 27.6562" stroke="#66737C" stroke-width="3.33333" stroke-linecap="round" stroke-linejoin="round" stroke-miterlimit="10"/><path d="M32.4609 28.5938C32.2022 28.5938 31.9922 28.384 31.9922 28.125 31.9922 27.8662 32.2022 27.6562 32.4609 27.6562" stroke="#66737C" stroke-width="3.33333" stroke-linecap="round" stroke-linejoin="round" stroke-miterlimit="10"/><path d="M32.4609 28.5938C32.7197 28.5938 32.9297 28.384 32.9297 28.125 32.9297 27.8662 32.7197 27.6562 32.4609 27.6562" stroke="#66737C" stroke-width="3.33333" stroke-linecap="round" stroke-linejoin="round" stroke-miterlimit="10"/><path d="M23.086 37.9688C22.8271 37.9688 22.6172 37.759 22.6172 37.5 22.6172 37.2412 22.8271 37.0312 23.086 37.0312" stroke="#66737C" stroke-width="3.33333" stroke-linecap="round" stroke-linejoin="round" stroke-miterlimit="10"/><path d="M23.0859 37.9688C23.3448 37.9688 23.5547 37.759 23.5547 37.5 23.5547 37.2412 23.3448 37.0312 23.0859 37.0312" stroke="#66737C" stroke-width="3.33333" stroke-linecap="round" stroke-linejoin="round" stroke-miterlimit="10"/><path d="M32.4609 37.9688C32.2022 37.9688 31.9922 37.759 31.9922 37.5 31.9922 37.2412 32.2022 37.0312 32.4609 37.0312" stroke="#66737C" stroke-width="3.33333" stroke-linecap="round" stroke-linejoin="round" stroke-miterlimit="10"/><path d="M32.4609 37.9688C32.7197 37.9688 32.9297 37.759 32.9297 37.5 32.9297 37.2412 32.7197 37.0312 32.4609 37.0312" stroke="#66737C" stroke-width="3.33333" stroke-linecap="round" stroke-linejoin="round" stroke-miterlimit="10"/><path d="M23.086 47.3438C22.8271 47.3438 22.6172 47.134 22.6172 46.875 22.6172 46.6162 22.8271 46.4062 23.086 46.4062" stroke="#66737C" stroke-width="3.33333" stroke-linecap="round" stroke-linejoin="round" stroke-miterlimit="10"/><path d="M23.0859 47.3438C23.3448 47.3438 23.5547 47.134 23.5547 46.875 23.5547 46.6162 23.3448 46.4062 23.0859 46.4062" stroke="#66737C" stroke-width="3.33333" stroke-linecap="round" stroke-linejoin="round" stroke-miterlimit="10"/><path d="M32.4609 47.3438C32.2022 47.3438 31.9922 47.134 31.9922 46.875 31.9922 46.6162 32.2022 46.4062 32.4609 46.4062" stroke="#66737C" stroke-width="3.33333" stroke-linecap="round" stroke-linejoin="round" stroke-miterlimit="10"/><path d="M32.4609 47.3438C32.7197 47.3438 32.9297 47.134 32.9297 46.875 32.9297 46.6162 32.7197 46.4062 32.4609 46.4062" stroke="#66737C" stroke-width="3.33333" stroke-linecap="round" stroke-linejoin="round" stroke-miterlimit="10"/><path d="M13.7109 35.1562 1.75781 39.6094" stroke="#66737C" stroke-width="3.33333" stroke-linecap="round" stroke-linejoin="round" stroke-miterlimit="10"/><path d="M13.7109 21.0937 1.75781 16.6406" stroke="#66737C" stroke-width="3.33333" stroke-linecap="round" stroke-linejoin="round" stroke-miterlimit="10"/><path d="M41.3672 28.125 54.483 28.125" stroke="#66737C" stroke-width="3.33333" stroke-linecap="round" stroke-linejoin="round" stroke-miterlimit="10"/><path d="M48.6328 22.2656 54.4922 28.125 48.6328 33.9844" stroke="#66737C" stroke-width="3.33333" stroke-linecap="round" stroke-linejoin="round" stroke-miterlimit="10"/></svg>