<svg width="60" height="60" viewBox="-2.14 -2.14 60 60" xmlns="http://www.w3.org/2000/svg" xmlns:xlink="http://www.w3.org/1999/xlink" id="Saving-Piggy-Bank--Streamline-Ultimate.svg" fill="none" overflow="hidden"><path d="M53.9787 20.895C53.9787 22.7422 53.2449 24.5138 51.9387 25.82 50.6325 27.1261 48.8609 27.86 47.0137 27.86" stroke="#66737C" stroke-width="3.57143" stroke-linecap="round" stroke-linejoin="round"/><path d="M23.2167 17.4125 30.1817 17.4125" stroke="#66737C" stroke-width="3.57143" stroke-linecap="round" stroke-linejoin="round"/><path d="M14.6581 26.1071C14.1772 26.1071 13.7874 25.7173 13.7874 25.2365 13.7874 24.7557 14.1772 24.3659 14.6581 24.3659" stroke="#66737C" stroke-width="3.57143"/><path d="M14.6581 26.1071C15.1389 26.1071 15.5287 25.7173 15.5287 25.2365 15.5287 24.7557 15.1389 24.3659 14.6581 24.3659" stroke="#66737C" stroke-width="3.57143"/><path d="M18.3412 10.1689C15.6248 5.24697 8.70625 5.22375 8.70625 5.22375L10.1689 15.3926C8.25411 17.4583 6.84014 19.9368 6.03633 22.6362L1.74125 22.6362 1.74125 36.5662 7.5222 36.5662C8.7164 38.6718 10.2908 40.5375 12.1655 42.0686L12.1655 48.755C12.1715 49.2149 12.3569 49.6544 12.6822 49.9797 13.0074 50.3049 13.4468 50.4902 13.9068 50.4963L17.4125 50.4963C17.8724 50.4902 18.3118 50.3049 18.6371 49.9797 18.9624 49.6544 19.1477 49.2149 19.1537 48.755L19.1537 45.8761C23.6757 47.3776 28.5618 47.3776 33.0838 45.8761L33.0838 48.755C33.0898 49.2149 33.2751 49.6544 33.6003 49.9797 33.9256 50.3049 34.3651 50.4902 34.825 50.4963L38.3075 50.4963C38.7674 50.4902 39.2069 50.3049 39.5322 49.9797 39.8574 49.6544 40.0427 49.2149 40.0488 48.755L40.0488 42.115C42.1977 40.4074 43.9382 38.2413 45.1434 35.7753 46.3484 33.309 46.9873 30.6047 47.0137 27.86 47.0137 12.7924 30.646 6.05955 18.3412 10.1689Z" stroke="#66737C" stroke-width="3.57143" stroke-linecap="round" stroke-linejoin="round"/></svg>