<svg width="60" height="60" viewBox="-2.14 -2.14 60 60" xmlns="http://www.w3.org/2000/svg" xmlns:xlink="http://www.w3.org/1999/xlink" id="Saving-Bull-Increase--Streamline-Ultimate.svg" overflow="hidden"><path d="M25.146 31.8393 23.4117 36.1762C22.7704 37.7908 23.15 39.632 24.3775 40.8613L27.7555 44.2394C28.4744 44.9588 28.8785 45.934 28.8792 46.9511 28.8792 48.6014 29.9349 50.0667 31.5004 50.5891L34.031 51.4319C34.9244 51.7313 35.8911 51.7313 36.7845 51.4319L39.3151 50.5891C40.8805 50.0667 41.9362 48.6014 41.9363 46.9511 41.9369 45.934 42.3411 44.9588 43.06 44.2394L46.4333 40.8613C47.6639 39.6297 48.0428 37.7837 47.3968 36.1669L45.7717 32.1365" stroke="#66737C" stroke-width="3.57143" stroke-linecap="round" stroke-linejoin="round" fill="none"/><path d="M37.1467 41.2096 33.6642 41.2096" stroke="#66737C" stroke-width="3.57143" stroke-linecap="round" stroke-linejoin="round" fill="none"/><path d="M24.1778 34.2585 20.5189 31.8184C18.941 30.7672 17.9931 28.9968 17.9929 27.1008L17.9929 27.1008C17.9929 23.9683 20.5323 21.429 23.6647 21.429L23.6647 21.429C24.8029 21.4286 25.8657 20.8598 26.4972 19.9129L29.8404 14.8981C31.4598 16.0612 32.5997 17.7748 33.0466 19.7179 33.4561 21.0207 34.844 21.7448 36.1468 21.3354 36.9179 21.093 37.5219 20.489 37.7642 19.7179 38.2111 17.7748 39.351 16.0612 40.9705 14.8981L44.3137 19.9129C44.9452 20.8598 46.0079 21.4286 47.1461 21.429L47.1461 21.429C50.2785 21.429 52.8179 23.9683 52.8179 27.1008L52.8179 27.1008C52.8177 28.9968 51.8698 30.7672 50.2919 31.8184L46.633 34.2585" stroke="#66737C" stroke-width="3.57143" stroke-linecap="round" stroke-linejoin="round" fill="none"/><path d="M52.8179 13.3496 52.8179 2.90208 42.3704 2.90208" stroke="#66737C" stroke-width="3.57143" stroke-linecap="round" stroke-linejoin="round" fill="none"/><path d="M22.6455 12.3954C20.844 11.9128 18.9218 12.4279 17.6029 13.7466L4.06292 27.2889" stroke="#66737C" stroke-width="3.57143" stroke-linecap="round" stroke-linejoin="round" fill="none"/><path d="M52.8179 2.90208 45.9945 9.72546" stroke="#66737C" stroke-width="3.57143" stroke-linecap="round" stroke-linejoin="round" fill="none"/></svg>