<svg width="60" height="60" viewBox="-1.875 -1.875 60 60" xmlns="http://www.w3.org/2000/svg" xmlns:xlink="http://www.w3.org/1999/xlink" id="Charging-Flash-Wave--Streamline-Ultimate" overflow="hidden"><path d="M31.7227 12.3047 17.8687 28.4344C17.5542 28.8041 17.5989 29.3588 17.9686 29.6733 18.1278 29.8088 18.3301 29.883 18.5391 29.8828L24.6914 29.8828 24.6914 43.9453 38.543 27.8156C38.8575 27.4459 38.8128 26.8912 38.4431 26.5767 38.2845 26.4418 38.0832 26.3675 37.875 26.3672L31.7227 26.3672Z" stroke="#66737C" stroke-width="3.33333" stroke-linecap="round" stroke-linejoin="round" fill="none"/><path d="M12.3047 10.8984C2.79072 15.7572-0.983101 27.4085 3.87562 36.9225 5.7279 40.5495 8.67771 43.4993 12.3047 45.3516" stroke="#66737C" stroke-width="3.33333" stroke-linecap="round" stroke-linejoin="round" fill="none"/><path d="M15.8203 17.0063C9.67895 19.9218 7.06389 27.2638 9.97941 33.4052 11.1955 35.9668 13.2587 38.03 15.8203 39.2461" stroke="#66737C" stroke-width="3.33333" stroke-linecap="round" stroke-linejoin="round" fill="none"/><path d="M43.9453 10.8984C53.4593 15.7543 57.2354 27.4034 52.3795 36.9173 50.5269 40.5471 47.5751 43.4989 43.9453 45.3516" stroke="#66737C" stroke-width="3.33333" stroke-linecap="round" stroke-linejoin="round" fill="none"/><path d="M40.4297 17.0063C46.5711 19.9218 49.1861 27.2638 46.2706 33.4052 45.0545 35.9668 42.9913 38.03 40.4297 39.2461" stroke="#66737C" stroke-width="3.33333" stroke-linecap="round" stroke-linejoin="round" fill="none"/></svg>