<svg width="60" height="60" viewBox="-2.14 -2.14 60 60" xmlns="http://www.w3.org/2000/svg" xmlns:xlink="http://www.w3.org/1999/xlink" id="Flower-3--Streamline-Ultimate.svg" overflow="hidden"><path d="M53.9787 23.5069C54.0101 17.7677 49.3829 13.0899 43.6438 13.0586 41.7068 13.048 39.8055 13.579 38.1543 14.5917 38.2431 14.0854 38.2943 13.5732 38.3075 13.0594 38.3075 7.28938 33.63 2.61187 27.86 2.61187 22.09 2.61187 17.4125 7.28938 17.4125 13.0594 17.4257 13.5732 17.4769 14.0854 17.5657 14.5917 12.6429 11.6066 6.23225 13.1775 3.2472 18.1004 0.26216 23.0233 1.83307 29.4339 6.75593 32.4189 8.31218 33.3626 10.0884 33.8823 11.9078 33.9265 7.54425 37.6703 7.04178 44.2426 10.7855 48.6061 14.5293 52.9697 21.1016 53.4722 25.4652 49.7284 26.4405 48.8916 27.2525 47.8815 27.86 46.7491 30.5727 51.8198 36.8824 53.7314 41.9532 51.0187 47.0239 48.306 48.9355 41.9963 46.2228 36.9255 45.6125 35.7848 44.795 34.7677 43.8122 33.9265 49.4645 33.7818 53.9731 29.1611 53.9788 23.5069Z" stroke="#66737C" stroke-width="3.57143" stroke-linecap="round" stroke-linejoin="round" fill="none"/><path d="M19.1537 29.6012C19.1537 34.4096 23.0517 38.3075 27.86 38.3075 32.6683 38.3075 36.5662 34.4096 36.5662 29.6012 36.5662 24.7929 32.6683 20.895 27.86 20.895 23.0517 20.895 19.1538 24.7929 19.1538 29.6012Z" stroke="#66737C" stroke-width="3.57143" stroke-linecap="round" stroke-linejoin="round" fill="none"/></svg>