<svg width="60" height="60" viewBox="-2.14 -2.14 60 60" xmlns="http://www.w3.org/2000/svg" xmlns:xlink="http://www.w3.org/1999/xlink" id="Tree-2--Streamline-Ultimate.svg" overflow="hidden"><path d="M52.2375 26.1187C52.2281 21.3769 49.4643 17.0726 45.1564 15.0908 45.857 11.3685 43.4074 7.78304 39.685 7.08246 39.231 6.99701 38.7695 6.95765 38.3075 6.965 38.1612 6.965 38.0243 6.99983 37.878 7.00911 34.0728 1.47633 26.5029 0.0758304 20.9701 3.88101 19.7449 4.72366 18.6846 5.7839 17.842 7.00911 17.6957 6.99983 17.5588 6.965 17.4125 6.965 13.6253 6.90478 10.5063 9.92609 10.4461 13.7133 10.4388 14.1753 10.4781 14.6368 10.5636 15.0908 4.46104 17.8988 1.79024 25.1222 4.59819 31.2247 6.2054 34.7177 9.36955 37.245 13.1313 38.0405 15.3318 42.7895 20.9655 44.8555 25.7145 42.655 26.4881 42.2966 27.2098 41.8354 27.86 41.2839 31.8528 44.668 37.833 44.1746 41.2172 40.1818 41.769 39.5307 42.2303 38.8081 42.5887 38.0335 48.2138 36.8369 52.2363 31.8698 52.2375 26.1187Z" stroke="#66737C" stroke-width="3.57143" stroke-linecap="round" stroke-linejoin="round" fill="none"/><path d="M27.86 19.1537 27.86 53.9787" stroke="#66737C" stroke-width="3.57143" stroke-linecap="round" stroke-linejoin="round" fill="none"/><path d="M27.86 34.825C34.825 34.825 38.3075 31.3425 38.3075 24.3775" stroke="#66737C" stroke-width="3.57143" stroke-linecap="round" stroke-linejoin="round" fill="none"/><path d="M27.86 27.86C23.3253 28.1337 19.4274 24.6795 19.1538 20.1448 19.1338 19.8147 19.1338 19.4838 19.1538 19.1537" stroke="#66737C" stroke-width="3.57143" stroke-linecap="round" stroke-linejoin="round" fill="none"/></svg>