<svg width="60" height="60" viewBox="-1.875 -1.875 60 60" xmlns="http://www.w3.org/2000/svg" xmlns:xlink="http://www.w3.org/1999/xlink" id="Speed-5g--Streamline-Ultimate" fill="none" overflow="hidden"><path d="M28.125 28.125 37.5 35.1562" stroke="#66737C" stroke-width="3.33333" stroke-linecap="round" stroke-linejoin="round" stroke-miterlimit="10"/><path d="M42.6562 39.8438C41.0156 41.7188 39.1406 43.3594 37.0312 44.5312" stroke="#66737C" stroke-width="3.33333" stroke-linecap="round" stroke-linejoin="round" stroke-miterlimit="10"/><path d="M46.6406 25.7812C46.6406 26.4844 46.875 27.4219 46.875 28.125 46.875 29.7656 46.6406 31.4062 46.1719 32.8125" stroke="#66737C" stroke-width="3.33333" stroke-linecap="round" stroke-linejoin="round" stroke-miterlimit="10"/><path d="M38.2031 12.1874C40.3125 13.5936 42.1875 15.4686 43.8281 17.578" stroke="#66737C" stroke-width="3.33333" stroke-linecap="round" stroke-linejoin="round" stroke-miterlimit="10"/><path d="M18.9844 44.5312C13.125 41.25 9.375 35.1562 9.375 28.125 9.375 17.8125 17.8125 9.375 28.125 9.375 28.8281 9.375 29.7656 9.375 30.4688 9.60938" stroke="#66737C" stroke-width="3.33333" stroke-linecap="round" stroke-linejoin="round" stroke-miterlimit="10"/><path d="M28.125 29.2969C28.7721 29.2969 29.2969 28.7721 29.2969 28.125 29.2969 27.4779 28.7721 26.9531 28.125 26.9531 27.4779 26.9531 26.9531 27.4779 26.9531 28.125 26.9531 28.7721 27.4779 29.2969 28.125 29.2969Z" stroke="#66737C" stroke-width="3.33333" stroke-linecap="round" stroke-linejoin="round" stroke-miterlimit="10"/><path d="M28.125 54.4922C42.6872 54.4922 54.4922 42.6872 54.4922 28.125 54.4922 13.5628 42.6872 1.75781 28.125 1.75781 13.5628 1.75781 1.75781 13.5628 1.75781 28.125 1.75781 42.6872 13.5628 54.4922 28.125 54.4922Z" stroke="#66737C" stroke-width="3.33333" stroke-linecap="round" stroke-linejoin="round" stroke-miterlimit="10"/></svg>