<svg width="60" height="60" viewBox="-1.875 -1.875 60 60" xmlns="http://www.w3.org/2000/svg" xmlns:xlink="http://www.w3.org/1999/xlink" id="Gauge-Dashboard--Streamline-Ultimate" fill="none" overflow="hidden"><path d="M28.1252 10.5469C24.6359 10.5732 21.186 11.2867 17.9725 12.6465 14.7589 14.0062 11.8447 15.9857 9.39626 18.4718 6.94779 20.9579 5.01302 23.902 3.70245 27.1359 2.39187 30.3698 1.73115 33.8302 1.75803 37.3195L1.75803 42.1875C1.75803 43.1198 2.12842 44.0142 2.78773 44.6735 3.44705 45.3328 4.34126 45.7031 5.27365 45.7031L50.9768 45.7031C51.9091 45.7031 52.8033 45.3328 53.4628 44.6735 54.1221 44.0142 54.4924 43.1198 54.4924 42.1875L54.4924 37.3125C54.5449 30.2667 51.7964 23.4888 46.8516 18.4693 41.907 13.4499 35.171 10.6001 28.1252 10.5469Z" stroke="#66737C" stroke-width="3.33333" stroke-linecap="round" stroke-linejoin="round"/><path d="M21.0938 45.7031 21.0938 43.9453C21.0938 42.0806 21.8345 40.2921 23.1532 38.9735 24.4718 37.6549 26.2603 36.9141 28.125 36.9141 29.9897 36.9141 31.7782 37.6549 33.0968 38.9735 34.4154 40.2921 35.1562 42.0806 35.1562 43.9453L35.1562 45.7031" stroke="#66737C" stroke-width="3.33333" stroke-linecap="round" stroke-linejoin="round"/><path d="M33.3984 21.1006 28.125 36.9209" stroke="#66737C" stroke-width="3.33333" stroke-linecap="round" stroke-linejoin="round"/><path d="M11.4258 36.9141C10.9404 36.9141 10.5469 36.5205 10.5469 36.0352 10.5469 35.5498 10.9404 35.1562 11.4258 35.1562" stroke="#66737C" stroke-width="3.33333"/><path d="M11.4258 36.9141C11.9112 36.9141 12.3047 36.5205 12.3047 36.0352 12.3047 35.5498 11.9112 35.1562 11.4258 35.1562" stroke="#66737C" stroke-width="3.33333"/><path d="M14.9414 28.1318C14.456 28.1318 14.0625 27.7383 14.0625 27.2529 14.0625 26.7675 14.456 26.374 14.9414 26.374" stroke="#66737C" stroke-width="3.33333"/><path d="M14.9414 28.1318C15.4268 28.1318 15.8203 27.7383 15.8203 27.2529 15.8203 26.7675 15.4268 26.374 14.9414 26.374" stroke="#66737C" stroke-width="3.33333"/><path d="M21.9727 21.1006C21.4872 21.1006 21.0938 20.7071 21.0938 20.2217 21.0938 19.7363 21.4872 19.3428 21.9727 19.3428" stroke="#66737C" stroke-width="3.33333"/><path d="M21.9727 21.1006C22.4581 21.1006 22.8516 20.7071 22.8516 20.2217 22.8516 19.7363 22.4581 19.3428 21.9727 19.3428" stroke="#66737C" stroke-width="3.33333"/><g><path d="M41.3086 28.125C40.8232 28.125 40.4297 27.7315 40.4297 27.2461 40.4297 26.7607 40.8232 26.3672 41.3086 26.3672" stroke="#66737C" stroke-width="3.33333"/><path d="M41.3086 28.125C41.794 28.125 42.1875 27.7315 42.1875 27.2461 42.1875 26.7607 41.794 26.3672 41.3086 26.3672" stroke="#66737C" stroke-width="3.33333"/></g><g><path d="M44.8242 36.9209C44.3388 36.9209 43.9453 36.5273 43.9453 36.042 43.9453 35.5566 44.3388 35.163 44.8242 35.163" stroke="#66737C" stroke-width="3.33333"/><path d="M44.8242 36.9209C45.3096 36.9209 45.7031 36.5273 45.7031 36.042 45.7031 35.5566 45.3096 35.163 44.8242 35.163" stroke="#66737C" stroke-width="3.33333"/></g></svg>