<svg width="60" height="60" viewBox="-1.875 -1.875 60 60" xmlns="http://www.w3.org/2000/svg" xmlns:xlink="http://www.w3.org/1999/xlink" id="Launch-Go-Flag--Streamline-Ultimate" overflow="hidden"><path d="M2.11875 1.75781 2.11875 54.4922" stroke="#66737C" stroke-width="3.33333" stroke-linecap="round" stroke-linejoin="round" fill="none"/><path d="M33.75 12.3047C31.8084 12.3047 30.2344 13.8787 30.2344 15.8203L30.2344 26.3672C30.2344 28.3088 31.8084 29.8828 33.75 29.8828 35.6916 29.8828 37.2656 28.3088 37.2656 26.3672L37.2656 15.8203C37.2656 13.8787 35.6916 12.3047 33.75 12.3047Z" stroke="#66737C" stroke-width="3.33333" stroke-linecap="round" stroke-linejoin="round" fill="none"/><path d="M21.4547 22.8516 23.2031 22.8516 23.2031 26.3672C23.2031 28.3088 21.6291 29.8828 19.6875 29.8828 17.7459 29.8828 16.1719 28.3088 16.1719 26.3672L16.1719 15.8203C16.1719 13.8787 17.7459 12.3047 19.6875 12.3047L23.2031 12.3047" stroke="#66737C" stroke-width="3.33333" stroke-linecap="round" stroke-linejoin="round" fill="none"/><path d="M2.10938 5.27344 52.1484 5.27344C53.118 5.27455 53.903 6.0614 53.9019 7.03091 53.9016 7.2731 53.8512 7.51261 53.7539 7.73438L48.1383 20.3906C47.9367 20.8451 47.9367 21.3635 48.1383 21.818L53.7633 34.4531C54.1581 35.34 53.7591 36.3791 52.8722 36.7739 52.6474 36.874 52.404 36.9257 52.1578 36.9258L2.10938 36.9258" stroke="#66737C" stroke-width="3.33333" stroke-linecap="round" stroke-linejoin="round" fill="none"/></svg>