<svg width="60" height="60" viewBox="-2.14 -2.14 60 60" xmlns="http://www.w3.org/2000/svg" xmlns:xlink="http://www.w3.org/1999/xlink" id="Shipment-Open--Streamline-Ultimate.svg" overflow="hidden"><g><path d="M30.1817 29.0208 30.1817 44.1117 15.0908 44.1117C13.1675 44.1117 11.6083 42.5525 11.6083 40.6292L11.6083 11.6083" stroke="#66737C" stroke-width="3.57143" stroke-linecap="round" stroke-linejoin="round" fill="none"/><path d="M47.5942 26.142 47.5942 40.6292C47.5942 42.5525 46.035 44.1117 44.1117 44.1117L30.1817 44.1117" stroke="#66737C" stroke-width="3.57143" stroke-linecap="round" stroke-linejoin="round" fill="none"/><path d="M29.4387 11.6083 33.8963 25.074C34.162 25.7239 34.7962 26.1467 35.4983 26.142L52.7018 26.142C53.1266 26.1384 53.5239 25.9311 53.7698 25.5848 54.0053 25.2261 54.0488 24.7744 53.8859 24.3775L49.5444 11.6083 9.28667 11.6083 1.92698 24.2614C1.69299 24.6466 1.69299 25.13 1.92698 25.5151 2.15955 25.9084 2.58452 26.1474 3.04138 26.142L11.6083 26.142" stroke="#66737C" stroke-width="3.57143" stroke-linecap="round" stroke-linejoin="round" fill="none"/></g></svg>