<svg width="60" height="60" viewBox="-1.875 -1.875 60 60" xmlns="http://www.w3.org/2000/svg" xmlns:xlink="http://www.w3.org/1999/xlink" id="Wrench-1--Streamline-Ultimate" overflow="hidden"><path d="M22.0312 39.2391 39.2367 22.0312C44.5521 24.5678 50.9173 22.3151 53.4539 16.9997 54.8402 14.0948 54.8402 10.719 53.4539 7.81406L50.1141 11.1633C48.7264 12.5509 46.4767 12.5509 45.0891 11.1633 43.7014 9.77567 43.7014 7.5259 45.0891 6.13828L48.4266 2.79844C43.108 0.268581 36.7456 2.52928 34.2157 7.84785 32.8361 10.7483 32.8372 14.1161 34.2188 17.0156L17.0133 34.2188C11.6979 31.6822 5.33265 33.9349 2.79609 39.2503 1.4098 42.1552 1.4098 45.531 2.79609 48.4359L6.13594 45.0984C7.52355 43.7108 9.77332 43.7108 11.1609 45.0984 12.5486 46.4861 12.5486 48.7358 11.1609 50.1234L7.82344 53.4562C13.142 55.9861 19.5044 53.7254 22.0343 48.4068 23.4139 45.5064 23.4128 42.1386 22.0312 39.2391Z" stroke="#66737C" stroke-width="3.33333" stroke-linecap="round" stroke-linejoin="round" fill="none"/></svg>