<svg width="60" height="60" viewBox="-1.875 -1.875 60 60" xmlns="http://www.w3.org/2000/svg" xmlns:xlink="http://www.w3.org/1999/xlink" id="Aircraft-Plane--Streamline-Ultimate" overflow="hidden"><path d="M35.1562 51.8555C32.2438 51.8563 29.8822 49.4959 29.8813 46.5835 29.8805 43.6711 32.2409 41.3094 35.1533 41.3086 36.5798 41.3082 37.9456 41.8857 38.9391 42.9094 39.9966 39.1729 43.8829 37.0012 47.6194 38.0587 51.3559 39.1163 53.5276 43.0026 52.47 46.7391 51.6132 49.7665 48.8494 51.8561 45.7031 51.8555Z" stroke="#66737C" stroke-width="3.57143" stroke-linecap="round" stroke-linejoin="round" fill="none"/><path d="M48.3398 25.4883C51.7377 25.4883 54.4922 22.7338 54.4922 19.3359L54.4922 19.3359C54.4922 15.9381 51.7377 13.1836 48.3398 13.1836L14.0625 13.1836 8.78906 4.39453 1.75781 4.39453 1.75781 14.9414 1.75781 14.9414C1.75781 20.7663 6.47981 25.4883 12.3047 25.4883L21.0938 25.4883 21.0938 34.2C21.0942 35.1708 21.8816 35.9574 22.8524 35.957 23.2426 35.9568 23.6215 35.8268 23.9297 35.5875L36.9141 25.4883Z" stroke="#66737C" stroke-width="3.57143" stroke-linecap="round" stroke-linejoin="round" fill="none"/></svg>