<svg width="60" height="60" viewBox="-2.14 -2.14 60 60" xmlns="http://www.w3.org/2000/svg" xmlns:xlink="http://www.w3.org/1999/xlink" id="Hardware-Nut--Streamline-Ultimate.svg" overflow="hidden"><path d="M39.7005 50.4963 16.0195 50.4963C14.738 50.4964 13.56 49.7928 12.9526 48.6645L2.63973 29.5107C2.08497 28.4802 2.08497 27.2398 2.63973 26.2093L12.9526 7.05554C13.56 5.92718 14.738 5.22357 16.0195 5.22375L39.7005 5.22375C40.982 5.22357 42.16 5.92718 42.7674 7.05555L53.0803 26.2093C53.635 27.2398 53.635 28.4802 53.0803 29.5107L42.7674 48.6645C42.16 49.7928 40.982 50.4964 39.7005 50.4963Z" stroke="#66737C" stroke-width="3.57143" stroke-linecap="round" stroke-linejoin="round" fill="none"/><path d="M15.6713 27.86C15.6713 34.5917 21.1283 40.0488 27.86 40.0488 34.5917 40.0488 40.0488 34.5917 40.0488 27.86 40.0488 21.1283 34.5917 15.6713 27.86 15.6713 21.1283 15.6713 15.6713 21.1283 15.6713 27.86Z" stroke="#66737C" stroke-width="3.57143" stroke-linecap="round" stroke-linejoin="round" fill="none"/></svg>