<svg width="60" height="60" viewBox="-2.14 -2.14 60 60" xmlns="http://www.w3.org/2000/svg" xmlns:xlink="http://www.w3.org/1999/xlink" id="Chess-King--Streamline-Ultimate.svg" fill="none" overflow="hidden"><path d="M15.5785 13.4816C14.8458 13.4816 14.2963 14.1521 14.4402 14.8705L16.3252 24.2807C16.4279 24.7931 16.7004 25.2558 17.0987 25.5943L20.4685 28.4562 18.8887 41.1852 18.5402 41.1852 15.0242 44.2442C13.5038 45.5669 12.6309 47.4834 12.6309 49.4989L12.6309 52.5124 43.0873 52.5124 43.0873 49.4989C43.0873 47.4834 42.2144 45.5669 40.6939 44.2442L37.178 41.1852 36.8305 41.1852 35.2503 28.4541 38.6177 25.5943C39.0161 25.2558 39.2886 24.7931 39.3913 24.2807L41.2762 14.8705C41.4202 14.1521 40.8706 13.4816 40.1381 13.4816L15.5785 13.4816Z" stroke="#66737C" stroke-width="3.57143" stroke-linecap="round" stroke-linejoin="round"/><path d="M27.86 12.6847 27.86 3.20759" stroke="#66737C" stroke-width="3.57143" stroke-linecap="round" stroke-linejoin="round"/><path d="M24.2278 6.84086 31.4932 6.84086" stroke="#66737C" stroke-width="3.57143" stroke-linecap="round" stroke-linejoin="round"/><path d="M18.8522 41.1727 36.869 41.1727" stroke="#66737C" stroke-width="3.57143" stroke-linecap="round" stroke-linejoin="round"/></svg>