<svg width="60" height="60" viewBox="-1.875 -1.875 60 60" xmlns="http://www.w3.org/2000/svg" xmlns:xlink="http://www.w3.org/1999/xlink" id="Online-Certificate-Honor-Language--Streamline-Ultimate" fill="none" overflow="hidden"><path d="M50.0391 16.0547 50.0391 5.03906C50.0391 3.16406 48.6328 1.75781 46.7578 1.75781L5.03897 1.75781C3.16397 1.75781 1.75774 3.16406 1.75774 5.03906L1.75774 37.1484C1.75774 39.0234 3.16397 40.4297 5.03897 40.4297L32.2266 40.4297" stroke="#66737C" stroke-width="3.33333" stroke-linecap="round" stroke-linejoin="round" stroke-miterlimit="10"/><path d="M20.5077 40.4297 18.867 50.0391" stroke="#66737C" stroke-width="3.33333" stroke-linecap="round" stroke-linejoin="round" stroke-miterlimit="10"/><path d="M30.1172 50.0391 16.289 50.0391" stroke="#66737C" stroke-width="3.33333" stroke-linecap="round" stroke-linejoin="round" stroke-miterlimit="10"/><path d="M12.6569 17.3437 33.5163 17.3437" stroke="#66737C" stroke-width="3.33333" stroke-linecap="round" stroke-linejoin="round" stroke-miterlimit="10"/><path d="M17.813 17.3437C17.813 22.9687 24.3755 28.8281 30.938 30.7031" stroke="#66737C" stroke-width="3.33333" stroke-linecap="round" stroke-linejoin="round" stroke-miterlimit="10"/><path d="M28.3601 17.3437C28.3601 22.9687 21.7974 28.8281 15.2349 30.7031" stroke="#66737C" stroke-width="3.33333" stroke-linecap="round" stroke-linejoin="round" stroke-miterlimit="10"/><path d="M20.3914 9.6094 22.9695 12.1875" stroke="#66737C" stroke-width="3.33333" stroke-linecap="round" stroke-linejoin="round" stroke-miterlimit="10"/><path d="M51.2098 40.7227 52.8504 52.7109C53.0848 54.1172 51.4441 55.0547 50.2723 54.1172L46.2879 50.1328 42.3035 54.1172C41.366 55.0547 39.491 54.1172 39.7254 52.7109L41.366 40.7227" stroke="#66737C" stroke-width="3.33333" stroke-linecap="round" stroke-linejoin="round" stroke-miterlimit="10"/><path d="M46.2891 42.3984C41.7586 42.3984 38.0859 38.7258 38.0859 34.1953 38.0859 29.6648 41.7586 25.9922 46.2891 25.9922 50.8195 25.9922 54.4922 29.6648 54.4922 34.1953 54.4922 38.7258 50.8195 42.3984 46.2891 42.3984Z" stroke="#66737C" stroke-width="3.33333" stroke-linecap="round" stroke-linejoin="round" stroke-miterlimit="10"/><path d="M46.2891 33.2578C46.7578 33.2578 47.2266 33.7266 47.2266 34.1953 47.2266 34.6641 46.7578 35.1328 46.2891 35.1328" stroke="#66737C" stroke-width="3.33333" stroke-linecap="round" stroke-linejoin="round" stroke-miterlimit="10"/><path d="M46.2895 33.2578C45.8208 33.2578 45.352 33.7266 45.352 34.1953 45.352 34.6641 45.8208 35.1328 46.2895 35.1328" stroke="#66737C" stroke-width="3.33333" stroke-linecap="round" stroke-linejoin="round" stroke-miterlimit="10"/></svg>