<svg width="60" height="60" viewBox="-2.14 -2.14 60 60" xmlns="http://www.w3.org/2000/svg" xmlns:xlink="http://www.w3.org/1999/xlink" id="Elastic-Compute-Cloud-2--Streamline-Ultimate.svg" fill="none" overflow="hidden"><path d="M53.9787 41.4417C53.9787 42.3704 53.5144 43.2991 52.5858 43.5312L34.0124 51.8893C33.3159 52.1214 32.3872 52.1214 31.6908 51.6571 30.9942 51.1927 30.5299 50.4963 30.5299 49.7998L30.5299 5.92025C30.5299 5.22375 30.9942 4.29511 31.6908 4.06294 32.3872 3.59861 33.0838 3.59858 34.0124 3.83075L52.5858 12.1888C53.5144 12.6531 53.9787 13.3496 53.9787 14.2782L53.9787 41.4417Z" stroke="#66737C" stroke-width="3.57143" stroke-linecap="round" stroke-linejoin="round" stroke-miterlimit="10"/><path d="M24.029 50.0319C23.3325 50.2641 22.6361 50.2641 21.9396 49.7998 21.2431 49.3354 21.0109 48.6389 21.0109 47.9424L21.0109 8.24192C21.0109 7.54542 21.4753 6.61677 22.1718 6.38461 22.8683 5.92027 23.5647 5.92025 24.4934 6.15242" stroke="#66737C" stroke-width="3.57143" stroke-linecap="round" stroke-linejoin="round" stroke-miterlimit="10"/><path d="M14.3942 47.71C13.6977 47.9422 13.0012 47.9422 12.3047 47.4779 11.6082 47.0135 11.3761 46.317 11.3761 45.6205L11.3761 10.3312C11.3761 9.63471 11.8404 8.70604 12.5369 8.47387 13.2334 8.00954 13.9299 8.00954 14.8586 8.24171" stroke="#66737C" stroke-width="3.57143" stroke-linecap="round" stroke-linejoin="round" stroke-miterlimit="10"/><path d="M4.75942 45.3884C4.06292 45.6205 3.36642 45.6205 2.66992 45.1562 1.97341 44.6919 1.74125 43.9953 1.74125 43.2989L1.74125 12.6529C1.74125 11.9564 2.20558 11.0277 2.90208 10.7955 3.59858 10.3312 4.29508 10.3312 5.22375 10.5634" stroke="#66737C" stroke-width="3.57143" stroke-linecap="round" stroke-linejoin="round" stroke-miterlimit="10"/></svg>