<svg width="60" height="60" viewBox="-2.14 -2.14 60 60" xmlns="http://www.w3.org/2000/svg" xmlns:xlink="http://www.w3.org/1999/xlink" id="Layers-1--Streamline-Ultimate.svg" overflow="hidden"><defs></defs><path d="M19.1537 8.70625 50.4963 8.70625C50.4963 8.70625 53.9787 8.70625 53.9787 12.1888L53.9787 29.6012C53.9787 29.6012 53.9787 33.0838 50.4963 33.0838L19.1537 33.0838C19.1537 33.0838 15.6713 33.0838 15.6713 29.6012L15.6713 12.1888C15.6713 12.1888 15.6713 8.70625 19.1537 8.70625" stroke="#66737C" stroke-width="3.57143" stroke-linecap="round" stroke-linejoin="round" fill="none"/><path d="M8.70625 17.4125 8.70625 36.5662C8.70625 38.4896 10.2654 40.0487 12.1888 40.0487L45.2725 40.0488" stroke="#66737C" stroke-width="3.57143" stroke-linecap="round" stroke-linejoin="round" fill="none"/><path d="M1.74125 24.3775 1.74125 43.5312C1.74125 45.4546 3.30042 47.0137 5.22375 47.0137L38.3075 47.0137" stroke="#66737C" stroke-width="3.57143" stroke-linecap="round" stroke-linejoin="round" fill="none"/></svg>