<svg width="44.8" height="44.8" viewBox="-1.6 -1.6 44.8 44.8" xmlns="http://www.w3.org/2000/svg" xmlns:xlink="http://www.w3.org/1999/xlink" id="Business-Idea--Streamline-Core" fill="none" overflow="hidden"><g id="business-idea--lightbulb-idea-brainstorm-puzzle-money-payment-business"><path d="M37.1429 13.3714C37.1429 10.2191 35.8907 7.19597 33.6615 4.96695 31.4327 2.73795 28.4094 1.48571 25.2571 1.48571L25.2571 13.3714 37.1429 13.3714Z" id="Vector" stroke="#66737C" stroke-width="2.67857" stroke-linecap="round" stroke-linejoin="round"/><path d="M11.7051 40.1143 23.5908 40.1143" id="Vector_2" stroke="#66737C" stroke-width="2.67857" stroke-linecap="round" stroke-linejoin="round"/><path d="M17.6481 20.8 17.6481 1.48571C14.6654 1.52599 11.7819 2.56242 9.45607 4.43016 7.1303 6.29791 5.49581 8.88971 4.81261 11.7933 4.12939 14.697 4.4367 17.7457 5.68565 20.4545 6.9346 23.1634 9.05344 25.3768 11.7052 26.7429L11.7052 31.2C11.7052 31.594 11.8617 31.972 12.1403 32.2507 12.419 32.5291 12.7969 32.6857 13.1909 32.6857L22.1052 32.6857C22.4992 32.6857 22.8771 32.5291 23.1557 32.2507 23.4344 31.972 23.5909 31.594 23.5909 31.2L23.5909 26.7429C26.1642 25.4591 28.2501 23.3733 29.5338 20.8" id="Vector_3" stroke="#66737C" stroke-width="2.67857" stroke-linecap="round" stroke-linejoin="round"/><path d="M4.45714 14.8571 20.6194 14.8571" id="Vector_4" stroke="#66737C" stroke-width="2.67857" stroke-linecap="round" stroke-linejoin="round"/></g></svg>