<svg width="60" height="60" viewBox="-2.14 -2.14 60 60" xmlns="http://www.w3.org/2000/svg" xmlns:xlink="http://www.w3.org/1999/xlink" id="Study-Light-Idea--Streamline-Ultimate.svg" overflow="hidden"><path d="M27.86 5.22607 27.86 1.74357" stroke="#66737C" stroke-width="3.57143" stroke-linecap="round" stroke-linejoin="round" fill="none"/><path d="M42.6351 11.3483 45.0984 8.88502" stroke="#66737C" stroke-width="3.57143" stroke-linecap="round" stroke-linejoin="round" fill="none"/><path d="M48.755 26.1211 52.2375 26.1211" stroke="#66737C" stroke-width="3.57143" stroke-linecap="round" stroke-linejoin="round" fill="none"/><path d="M42.6351 40.8962 45.0984 43.3594" stroke="#66737C" stroke-width="3.57143" stroke-linecap="round" stroke-linejoin="round" fill="none"/><path d="M13.0849 11.3483 10.6216 8.88502" stroke="#66737C" stroke-width="3.57143" stroke-linecap="round" stroke-linejoin="round" fill="none"/><path d="M6.965 26.1211 3.4825 26.1211" stroke="#66737C" stroke-width="3.57143" stroke-linecap="round" stroke-linejoin="round" fill="none"/><path d="M13.0849 40.8962 10.6216 43.3594" stroke="#66737C" stroke-width="3.57143" stroke-linecap="round" stroke-linejoin="round" fill="none"/><path d="M20.895 38.1891 20.895 43.5289C20.895 47.3756 24.0133 50.4939 27.86 50.4939 31.7067 50.4939 34.825 47.3756 34.825 43.5289L34.825 38.1891" stroke="#66737C" stroke-width="3.57143" stroke-linecap="round" stroke-linejoin="round" fill="none"/><path d="M13.93 26.1211C13.93 33.8144 20.1667 40.0511 27.86 40.0511 35.5533 40.0511 41.79 33.8144 41.79 26.1211 41.79 18.4277 35.5533 12.1911 27.86 12.1911 20.1667 12.1911 13.93 18.4277 13.93 26.1211Z" stroke="#66737C" stroke-width="3.57143" stroke-linecap="round" stroke-linejoin="round" fill="none"/><path d="M27.86 50.4986 27.86 53.9811" stroke="#66737C" stroke-width="3.57143" stroke-linecap="round" stroke-linejoin="round" fill="none"/></svg>