<svg width="60" height="60" viewBox="-1.875 -1.875 60 60" xmlns="http://www.w3.org/2000/svg" xmlns:xlink="http://www.w3.org/1999/xlink" id="Thumb-Up-Like--Streamline-Ultimate" fill="none" overflow="hidden"><path d="M47.4609 29.1326 50.2734 29.1326C52.6172 29.1326 54.4922 31.0076 54.4922 33.3513 54.4922 35.6951 52.6172 37.5701 50.2734 37.5701L47.4609 37.5701" stroke="#66737C" stroke-width="3.33333" stroke-linecap="round" stroke-linejoin="round" stroke-miterlimit="10"/><path d="M47.4609 46.0076 48.1641 46.0076C50.5078 46.0076 52.3828 44.1326 52.3828 41.7888 52.3828 39.4451 50.5078 37.5701 48.1641 37.5701L47.4609 37.5701" stroke="#66737C" stroke-width="3.33333" stroke-linecap="round" stroke-linejoin="round" stroke-miterlimit="10"/><path d="M47.4607 29.1326 49.1013 29.1326C51.4451 29.1326 53.3201 27.2576 53.3201 24.9138 53.3201 22.5701 51.4451 20.6952 49.1013 20.6952L35.0388 20.6952 35.2732 20.2264C37.617 16.242 39.0232 11.5546 39.2576 6.6327 39.492 4.99207 38.7888 3.58577 37.3826 2.64827 36.4451 1.94516 35.5076 1.94513 34.3357 2.1795 33.1638 2.41388 32.2263 3.11705 31.7576 4.05455 26.9775 12.4194 23.7954 22.9691 15.5857 28.8982L9.96094 28.8982" stroke="#66737C" stroke-width="3.33333" stroke-linecap="round" stroke-linejoin="round" stroke-miterlimit="10"/><path d="M47.4609 46.0076 45.8203 46.0076C48.3984 46.0076 50.2734 48.117 49.8047 50.6951 49.5703 52.8045 47.6953 54.2107 45.5859 54.2107L30.3516 54.2107C29.4141 54.2107 28.2422 54.2107 27.3047 53.9763L14.8828 51.867 9.96094 51.867" stroke="#66737C" stroke-width="3.33333" stroke-linecap="round" stroke-linejoin="round" stroke-miterlimit="10"/><path d="M9.96094 24.9138 1.75781 24.9138 1.75781 54.2107 9.96094 54.2107 9.96094 24.9138Z" stroke="#66737C" stroke-width="3.33333" stroke-linecap="round" stroke-linejoin="round" stroke-miterlimit="10"/></svg>