<svg width="60" height="60" viewBox="-1.875 -1.875 60 60" xmlns="http://www.w3.org/2000/svg" xmlns:xlink="http://www.w3.org/1999/xlink" id="Thumb-Up-Like-Sparkle--Streamline-Ultimate" fill="none" overflow="hidden"><path d="M47.4609 29.4136 50.2734 29.4136C52.6172 29.4136 54.4922 31.2886 54.4922 33.6323 54.4922 35.9761 52.6172 37.8511 50.2734 37.8511L47.4609 37.8511" stroke="#66737C" stroke-width="3.33333" stroke-linecap="round" stroke-linejoin="round" stroke-miterlimit="10"/><path d="M47.4609 46.2886 48.1641 46.2886C50.5078 46.2886 52.3828 44.4136 52.3828 42.0698 52.3828 39.7261 50.5078 37.8511 48.1641 37.8511L47.4609 37.8511" stroke="#66737C" stroke-width="3.33333" stroke-linecap="round" stroke-linejoin="round" stroke-miterlimit="10"/><path d="M47.4607 29.4136 49.1013 29.4136C51.4451 29.4136 53.3201 27.5386 53.3201 25.1948 53.3201 22.8511 51.4451 20.9761 49.1013 20.9761L35.0388 20.9761 35.2732 20.5074C37.617 16.523 39.0232 11.8355 39.2576 6.91364 39.492 5.27302 38.7888 3.86674 37.3826 2.92924 36.4451 2.22611 35.5076 2.22608 34.3357 2.46045 33.1638 2.69482 32.2263 3.39799 31.7576 4.33549 26.9775 12.7004 23.7954 23.2501 15.5857 29.1792L1.75781 29.1792" stroke="#66737C" stroke-width="3.33333" stroke-linecap="round" stroke-linejoin="round" stroke-miterlimit="10"/><path d="M47.4609 46.2886 45.8203 46.2886C48.3984 46.2886 50.2734 48.398 49.8047 50.9761 49.5703 53.0855 47.6953 54.4917 45.5859 54.4917L30.3516 54.4917C29.4141 54.4917 28.2422 54.4917 27.3047 54.2573L14.8828 52.148 1.75781 52.148" stroke="#66737C" stroke-width="3.33333" stroke-linecap="round" stroke-linejoin="round" stroke-miterlimit="10"/><path d="M5.27344 12.3277 5.27344 19.359" stroke="#66737C" stroke-width="3.33333" stroke-linecap="round" stroke-linejoin="round" stroke-miterlimit="10"/><path d="M1.75781 15.8434 8.78906 15.8434" stroke="#66737C" stroke-width="3.33333" stroke-linecap="round" stroke-linejoin="round" stroke-miterlimit="10"/><path d="M18.0468 1.75781 18.0468 8.78906" stroke="#66737C" stroke-width="3.33333" stroke-linecap="round" stroke-linejoin="round" stroke-miterlimit="10"/><path d="M14.5311 5.27344 21.5624 5.27344" stroke="#66737C" stroke-width="3.33333" stroke-linecap="round" stroke-linejoin="round" stroke-miterlimit="10"/><path d="M50.9766 6.46835 50.9766 13.4996" stroke="#66737C" stroke-width="3.33333" stroke-linecap="round" stroke-linejoin="round" stroke-miterlimit="10"/><path d="M47.4609 9.98398 54.4922 9.98398" stroke="#66737C" stroke-width="3.33333" stroke-linecap="round" stroke-linejoin="round" stroke-miterlimit="10"/></svg>