<svg width="60" height="60" viewBox="-2.14 -2.14 60 60" xmlns="http://www.w3.org/2000/svg" xmlns:xlink="http://www.w3.org/1999/xlink" id="Like-Dislike--Streamline-Ultimate.svg" fill="none" overflow="hidden"><path d="M27.86 1.74125C42.285 1.74125 53.9787 13.435 53.9787 27.86 53.9787 42.285 42.285 53.9787 27.86 53.9787 13.435 53.9787 1.74125 42.285 1.74125 27.86 1.74125 13.435 13.435 1.74125 27.86 1.74125Z" stroke="#66737C" stroke-width="3.57143" stroke-linecap="round" stroke-linejoin="round"/><path d="M17.655 20.7993C23.9668 17.5575 28.6255 16.3224 35.6708 16.3224 38.9404 16.3224 40.6027 18.4502 41.5685 21.5664L41.5685 21.5865 43.9454 29.5193 43.9454 29.5344C44.4232 31.1066 43.2044 32.7446 41.5611 32.7385L35.6708 32.7385C34.0723 32.7429 32.8474 34.2984 33.2611 35.8523 33.2611 35.8523 33.8095 37.7271 34.2446 39.9763 34.6797 42.2253 32.0527 44.5628 30.9072 42.9508L24.237 32.3914C23.7725 31.7441 22.9965 31.3446 22.1998 31.3427L17.655 31.3427" stroke="#66737C" stroke-width="3.57143" stroke-linecap="round" stroke-linejoin="round"/><path d="M13.9789 33.8578 17.6548 33.8578 17.6548 16.252 13.9789 16.252" stroke="#66737C" stroke-width="3.57143" stroke-linecap="round" stroke-linejoin="round"/></svg>