<svg width="60" height="60" viewBox="-2.14 -2.14 60 60" xmlns="http://www.w3.org/2000/svg" xmlns:xlink="http://www.w3.org/1999/xlink" id="Ccpa-Lock-Protection-Opt-Out-Check--Streamline-Ultimate.svg" overflow="hidden"><g><path d="M25.5383 54.6288C19.7299 54.6288 15.0212 49.9201 15.0212 44.1117 15.0212 38.3032 19.7299 33.5945 25.5383 33.5945L44.1117 33.5945C49.9201 33.5945 54.6288 38.3032 54.6288 44.1117 54.6288 49.9201 49.9201 54.6288 44.1117 54.6288Z" stroke="#66737C" stroke-width="3.57143" stroke-linecap="round" stroke-linejoin="round" fill="none"/><path d="M29.0208 43.8098 32.898 47.6638 40.6292 39.9327" stroke="#66737C" stroke-width="3.57143" stroke-linecap="round" stroke-linejoin="round" fill="none"/><g><path d="M40.4434 27.2564 40.4434 26.0723C40.4434 24.0977 38.8427 22.497 36.8681 22.497L4.64333 22.497C2.70507 22.5473 1.16018 24.1334 1.16083 26.0723L1.16083 51.0767C1.17272 53.0066 2.71406 54.5787 4.64333 54.6288L10.6797 54.6288" stroke="#66737C" stroke-width="3.57143" stroke-linecap="round" stroke-linejoin="round" fill="none"/><path d="M33.2927 22.497 33.2927 13.5817C33.2927 6.6834 27.7005 1.09118 20.8021 1.09118 13.9038 1.09118 8.31157 6.6834 8.31157 13.5817L8.31157 22.497" stroke="#66737C" stroke-width="3.57143" stroke-linecap="round" stroke-linejoin="round" fill="none"/></g></g></svg>