<svg width="60" height="60" viewBox="-2.14 -2.14 60 60" xmlns="http://www.w3.org/2000/svg" xmlns:xlink="http://www.w3.org/1999/xlink" id="Travel-Crossroad-Direction-Board--Streamline-Ultimate.svg" overflow="hidden"><defs></defs><path d="M1.73196 53.9718C1.73196 39.5468 13.4257 27.853 27.8507 27.853 42.2757 27.853 53.9695 39.5468 53.9695 53.9718" stroke="#66737C" stroke-width="3.57143" stroke-linecap="round" stroke-linejoin="round" fill="none"/><path d="M18.708 53.9602 18.0626 51.3878C17.6731 49.8397 16.2809 48.7546 14.6845 48.755L2.25666 48.755" stroke="#66737C" stroke-width="3.57143" stroke-linecap="round" stroke-linejoin="round" fill="none"/><path d="M48.7109 38.3075 39.278 38.3075C37.6787 38.3069 36.2846 39.3955 35.8976 40.9472L34.1564 47.9122C33.6909 49.7784 34.8264 51.6685 36.6926 52.134 36.9687 52.2028 37.2522 52.2376 37.5367 52.2375L41.2003 52.2375 41.4928 53.9857" stroke="#66737C" stroke-width="3.57143" stroke-linecap="round" stroke-linejoin="round" fill="none"/><path d="M27.8507 8.69928 27.8507 1.73428" stroke="#66737C" stroke-width="3.57143" stroke-linecap="round" stroke-linejoin="round" fill="none"/><path d="M17.4032 8.69928 40.0395 8.69928 40.0395 19.1468 17.4032 19.1468 12.1795 13.923 17.4032 8.69928Z" stroke="#66737C" stroke-width="3.57143" stroke-linecap="round" stroke-linejoin="round" fill="none"/><path d="M27.8507 27.853 27.8507 19.1468" stroke="#66737C" stroke-width="3.57143" stroke-linecap="round" stroke-linejoin="round" fill="none"/></svg>