<svg width="60" height="60" viewBox="-2.14 -2.14 60 60" xmlns="http://www.w3.org/2000/svg" xmlns:xlink="http://www.w3.org/1999/xlink" id="Travel-Luggage--Streamline-Ultimate.svg" overflow="hidden"><path d="M20.895 47.0091 8.69696 47.0091C4.8503 47.0091 1.73196 43.8908 1.73196 40.0441L1.73196 19.1491C1.73196 15.3024 4.8503 12.1841 8.69696 12.1841L40.0395 12.1841C43.8861 12.1841 47.0045 15.3024 47.0045 19.1491L47.0045 20.895M13.9207 12.1841 13.9207 47.0091M34.8157 12.1841 34.8157 20.8927M31.3425 12.1841 31.3425 5.21911C31.3425 3.29577 29.7833 1.73661 27.86 1.73661L20.895 1.73661C18.9717 1.73661 17.4125 3.29578 17.4125 5.21911L17.4125 12.1841" stroke="#66737C" stroke-width="3.57143" stroke-linecap="round" stroke-linejoin="round" fill="none"/><path d="M26.1095 40.0441C26.1095 47.7374 32.3461 53.9741 40.0395 53.9741 47.7328 53.9741 53.9695 47.7374 53.9695 40.0441 53.9695 32.3508 47.7328 26.1141 40.0395 26.1141 32.3461 26.1141 26.1095 32.3508 26.1095 40.0441" stroke="#66737C" stroke-width="3.57143" stroke-linecap="round" stroke-linejoin="round" fill="none"/><path d="M35.7653 26.7827 39.7005 32.039C40.8545 33.5777 40.5427 35.7605 39.004 36.9145L34.825 40.0441 34.825 41.79C34.825 43.7133 33.2658 45.2725 31.3425 45.2725L27.124 45.2725M53.9416 39.1688 47.7636 42.2775C46.3026 43.0072 45.5448 44.654 45.9411 46.2383L47.3829 51.8823" stroke="#66737C" stroke-width="3.57143" stroke-linecap="round" stroke-linejoin="round" fill="none"/></svg>