<svg width="60" height="60" viewBox="-1.875 -1.875 60 60" xmlns="http://www.w3.org/2000/svg" xmlns:xlink="http://www.w3.org/1999/xlink" id="Sync-Location--Streamline-Ultimate" overflow="hidden"><path d="M20.5078 15.8203C20.5078 19.7036 23.6558 22.8516 27.5391 22.8516 31.4223 22.8516 34.5703 19.7036 34.5703 15.8203 34.5703 11.9371 31.4223 8.78906 27.5391 8.78906 23.6558 8.78906 20.5078 11.9371 20.5078 15.8203Z" stroke="#66737C" stroke-width="3.57143" stroke-linecap="round" stroke-linejoin="round" fill="none"/><path d="M27.5391 1.75781C35.3056 1.75781 41.6016 8.05381 41.6016 15.8203 41.6016 22.0828 32.4609 34.2445 28.9172 38.7211 28.3154 39.4829 27.21 39.6125 26.4482 39.0107 26.3407 38.9258 26.2435 38.8286 26.1586 38.7211 22.6172 34.2422 13.4766 22.0828 13.4766 15.8203 13.4766 8.05381 19.7726 1.75781 27.5391 1.75781Z" stroke="#66737C" stroke-width="3.57143" stroke-linecap="round" stroke-linejoin="round" fill="none"/><path d="M11.7188 32.8125C7.38281 34.7297 4.6875 37.432 4.6875 40.4227 4.6875 46.2469 14.918 50.9695 27.5391 50.9695L29.2969 50.9695" stroke="#66737C" stroke-width="3.57143" stroke-linecap="round" stroke-linejoin="round" fill="none"/><path d="M43.3805 32.8289C47.7023 34.7461 50.3906 37.4437 50.3906 40.4297 50.3906 44.4984 45.3984 48.0305 38.0859 49.7883" stroke="#66737C" stroke-width="3.57143" stroke-linecap="round" stroke-linejoin="round" fill="none"/><path d="M25.7812 54.4922 29.2969 50.9766 25.7812 47.4609" stroke="#66737C" stroke-width="3.57143" stroke-linecap="round" stroke-linejoin="round" fill="none"/></svg>