<svg width="60" height="60" viewBox="-2.14 -2.14 60 60" xmlns="http://www.w3.org/2000/svg" xmlns:xlink="http://www.w3.org/1999/xlink" id="Cash-Payment-Bills--Streamline-Ultimate.svg" fill="none" overflow="hidden"><path d="M7.36205 29.695 13.1662 29.695C13.3249 29.689 13.4831 29.7166 13.6303 29.7761 13.7775 29.8357 13.9104 29.9258 14.0202 30.0407 14.1299 30.1554 14.214 30.2922 14.2669 30.4419 14.3198 30.5917 14.3403 30.7509 14.3271 30.9093L14.3271 52.7538C14.3403 52.9122 14.3198 53.0714 14.2669 53.2212 14.214 53.3709 14.1299 53.5077 14.0202 53.6224 13.9104 53.7373 13.7775 53.8274 13.6303 53.887 13.4831 53.9465 13.3249 53.9741 13.1662 53.9681L7.36205 53.9681" stroke="#66737C" stroke-width="3.57143" stroke-linecap="round" stroke-linejoin="round"/><path d="M23.9642 24.5725 19.502 30.1283C19.209 30.4935 18.8405 30.7911 18.4217 31.0005 18.003 31.2102 17.5439 31.3267 17.0759 31.3425L14.3271 31.3425" stroke="#66737C" stroke-width="3.57143" stroke-linecap="round" stroke-linejoin="round"/><path d="M14.3271 47.6636C19.3047 51.4363 23.8458 53.969 26.7781 53.969L41.3419 53.969C43.1064 53.969 44.2161 53.8436 44.9823 51.5429 46.1522 45.6697 46.9631 39.7309 47.4108 33.7589 47.4108 32.547 46.1965 31.3327 43.7704 31.3327L29.9983 31.3327" stroke="#66737C" stroke-width="3.57143" stroke-linecap="round" stroke-linejoin="round"/><path d="M24.5026 28.3359 20.9088 3.18765C20.8832 3.008 20.8965 2.82493 20.9477 2.65086 20.999 2.47678 21.087 2.31574 21.2059 2.17861 21.3247 2.04149 21.4717 1.93148 21.6367 1.85602 21.8017 1.78057 21.981 1.74143 22.1625 1.74125L39.7003 1.74125" stroke="#66737C" stroke-width="3.57143" stroke-linecap="round" stroke-linejoin="round"/><path d="M32.1295 31.3425 30.0029 10.0784C29.9855 9.91591 30.0027 9.75163 30.0533 9.59626 30.1037 9.4409 30.1865 9.29795 30.2961 9.17676 30.4057 9.05557 30.5397 8.95887 30.6892 8.893 30.8387 8.82712 31.0003 8.79354 31.1637 8.79447L47.1832 8.79447C47.352 8.79245 47.5189 8.82726 47.6729 8.89642 47.8268 8.9656 47.9638 9.0675 48.0743 9.19501 48.1848 9.32254 48.2663 9.47261 48.3127 9.6348 48.3594 9.79697 48.3701 9.96736 48.3441 10.1341L45.1402 31.4934" stroke="#66737C" stroke-width="3.57143" stroke-linecap="round" stroke-linejoin="round"/><path d="M38.7625 21.7563C38.2817 21.7563 37.8919 21.3665 37.8919 20.8856 37.8919 20.4048 38.2817 20.015 38.7625 20.015" stroke="#66737C" stroke-width="3.57143"/><path d="M38.7625 21.7563C39.2436 21.7563 39.6332 21.3665 39.6332 20.8856 39.6332 20.4048 39.2436 20.015 38.7625 20.015" stroke="#66737C" stroke-width="3.57143"/></svg>