<svg width="44.8" height="44.8" viewBox="-1.6 -1.6 44.8 44.8" xmlns="http://www.w3.org/2000/svg" xmlns:xlink="http://www.w3.org/1999/xlink" id="Investment-Selection--Streamline-Core" fill="none" overflow="hidden"><g id="investment-selection"><path d="M38.6286 38.6286 38.6286 32.9026C38.6286 28.6802 35.2055 25.2571 30.9831 25.2571L28.2285 25.2571 28.2285 17.0857C28.2285 15.0344 26.5656 13.3714 24.5143 13.3714 22.4629 13.3714 20.7999 15.0344 20.7999 17.0857L20.7999 28.2286 20.6544 28.2528C16.7707 28.9001 15.0561 33.5189 17.5767 36.5435L19.3142 38.6286" id="Vector 108" stroke="#66737C" stroke-width="2.67857" stroke-linecap="round" stroke-linejoin="round"/><path d="M13.3111 9.57472C13.1371 9.08262 12.8688 8.63515 12.5277 8.25409 11.8022 7.44355 10.748 6.93344 9.5746 6.93344L6.50796 6.93344C4.55478 6.93344 2.97143 8.5168 2.97143 10.47 2.97143 12.1319 4.12865 13.5697 5.75221 13.9248L10.4212 14.9462C12.2401 15.344 13.5365 16.9559 13.5365 18.8177 13.5365 21.0058 11.7627 22.7811 9.5746 22.7811L6.93332 22.7811C5.20829 22.7811 3.74076 21.6786 3.19687 20.1398" id="Vector 3" stroke="#66737C" stroke-width="2.67857" stroke-linecap="round" stroke-linejoin="round"/><path d="M8.25395 6.93332 8.25395 2.97143" id="Vector 2489" stroke="#66737C" stroke-width="2.67857" stroke-linecap="round" stroke-linejoin="round"/><path d="M8.25395 26.7427 8.25395 22.7808" id="Vector 2490" stroke="#66737C" stroke-width="2.67857" stroke-linecap="round" stroke-linejoin="round"/></g></svg>