<svg width="60" height="60" viewBox="-2.14 -2.14 60 60" xmlns="http://www.w3.org/2000/svg" xmlns:xlink="http://www.w3.org/1999/xlink" id="Monetization-Touch-Coin--Streamline-Ultimate.svg" overflow="hidden"><style>
.MsftOfcResponsive_Stroke_66737c {
 stroke:#66737C; 
}
</style>
<path d="M53.7141 53.9787 53.9462 51.3715C54.2632 47.883 51.94 44.7019 48.5205 43.9422L40.462 42.0593 40.462 28.7306C40.4116 26.2949 38.3962 24.3613 35.9605 24.4117 35.9519 24.4119 35.9433 24.4121 35.9348 24.4123 33.7146 24.3203 31.8402 26.0455 31.7481 28.2657 31.7417 28.4207 31.7443 28.5759 31.7558 28.7306L31.7558 50.09 28.3243 47.5292C26.7494 46.353 24.5192 46.6762 23.343 48.2511 22.4001 49.5137 22.3997 51.2461 23.342 52.5091L24.4448 53.9787" class="MsftOfcResponsive_Stroke_66737c" stroke="#66737C" stroke-width="3.57143" stroke-linecap="round" stroke-linejoin="round" fill="none"/><path d="M20.895 40.0488C10.3167 40.0454 1.74394 31.4673 1.74725 20.889 1.75057 10.3107 10.3287 1.73794 20.907 1.74125 29.4561 1.74393 36.9683 7.41183 39.3174 15.6318" class="MsftOfcResponsive_Stroke_66737c" stroke="#66737C" stroke-width="3.57143" stroke-linecap="round" stroke-linejoin="round" fill="none"/><path d="M26.3672 12.6856 18.6848 12.6856C17.0168 12.5519 15.5563 13.7957 15.4227 15.4637 15.4097 15.6255 15.4097 15.7881 15.4228 15.9499 15.4228 19.5252 26.3672 22.2625 26.3672 25.8402 26.393 27.6094 24.9797 29.0647 23.2104 29.0905 23.1792 29.0909 23.148 29.0909 23.1168 29.0905L15.4228 29.0905" class="MsftOfcResponsive_Stroke_66737c" stroke="#66737C" stroke-width="3.57143" stroke-linecap="round" stroke-linejoin="round" fill="none"/><path d="M20.895 12.6856 20.895 8.58088" class="MsftOfcResponsive_Stroke_66737c" stroke="#66737C" stroke-width="3.57143" stroke-linecap="round" stroke-linejoin="round" fill="none"/><path d="M20.895 33.2068 20.895 29.1021" class="MsftOfcResponsive_Stroke_66737c" stroke="#66737C" stroke-width="3.57143" stroke-linecap="round" stroke-linejoin="round" fill="none"/></svg>