<svg width="60" height="60" viewBox="-1.875 -1.875 60 60" xmlns="http://www.w3.org/2000/svg" xmlns:xlink="http://www.w3.org/1999/xlink" id="Shopping-Advertising-Audience-Targer-User--Streamline-Ultimate" overflow="hidden"><defs></defs><path d="M28.125 9.78281 28.125 1.75781" stroke="#66737C" stroke-width="3.33333" stroke-linecap="round" stroke-linejoin="round" fill="none"/><path d="M28.125 54.4922 28.125 46.4672" stroke="#66737C" stroke-width="3.33333" stroke-linecap="round" stroke-linejoin="round" fill="none"/><path d="M9.78281 28.125 1.75781 28.125" stroke="#66737C" stroke-width="3.33333" stroke-linecap="round" stroke-linejoin="round" fill="none"/><path d="M54.4922 28.125 46.4672 28.125" stroke="#66737C" stroke-width="3.33333" stroke-linecap="round" stroke-linejoin="round" fill="none"/><path d="M22.8328 21.3656C22.8328 24.2884 25.2022 26.6578 28.125 26.6578 31.0478 26.6578 33.4172 24.2884 33.4172 21.3656 33.4172 18.4428 31.0478 16.0734 28.125 16.0734 25.2022 16.0734 22.8328 18.4428 22.8328 21.3656" stroke="#66737C" stroke-width="3.33333" stroke-linecap="round" stroke-linejoin="round" fill="none"/><path d="M18.6773 39.0023C18.6773 33.7845 22.9072 29.5547 28.125 29.5547 33.3428 29.5547 37.5727 33.7845 37.5727 39.0023Z" stroke="#66737C" stroke-width="3.33333" stroke-linecap="round" stroke-linejoin="round" fill="none"/><path d="M5.81719 28.125C5.81719 40.422 15.7858 50.3906 28.0828 50.3906 40.3798 50.3906 50.3484 40.422 50.3484 28.125 50.3484 15.828 40.3798 5.85938 28.0828 5.85938 15.7858 5.85938 5.81719 15.828 5.81719 28.125" stroke="#66737C" stroke-width="3.33333" stroke-linecap="round" stroke-linejoin="round" fill="none"/></svg>