<svg width="60" height="60" viewBox="-2.14 -2.14 60 60" xmlns="http://www.w3.org/2000/svg" xmlns:xlink="http://www.w3.org/1999/xlink" id="Single-Neutral-Book--Streamline-Ultimate.svg" overflow="hidden"><path d="M48.755 53.9787 12.1888 53.9787C9.30375 53.9787 6.965 51.64 6.965 48.755" stroke="#66737C" stroke-width="3.57143" stroke-linecap="round" stroke-linejoin="round" fill="none"/><path d="M13.93 1.74125C10.0833 1.74125 6.965 4.85959 6.965 8.70625L6.965 48.755C6.965 45.87 9.30375 43.5312 12.1888 43.5312L45.2725 43.5312C47.1958 43.5312 48.755 41.9721 48.755 40.0488L48.755 5.22375C48.755 3.30042 47.1958 1.74125 45.2725 1.74125Z" stroke="#66737C" stroke-width="3.57143" stroke-linecap="round" stroke-linejoin="round" fill="none"/><path d="M45.2725 53.9787 45.2725 43.5312" stroke="#66737C" stroke-width="3.57143" stroke-linecap="round" stroke-linejoin="round" fill="none"/><path d="M21.7656 18.2831C21.7656 21.649 24.4942 24.3775 27.86 24.3775 31.2258 24.3775 33.9544 21.649 33.9544 18.2831 33.9544 14.9173 31.2258 12.1888 27.86 12.1887 24.4942 12.1887 21.7656 14.9173 21.7656 18.2831Z" stroke="#66737C" stroke-width="3.57143" stroke-linecap="round" stroke-linejoin="round" fill="none"/><path d="M17.4125 36.5662C17.4125 30.7963 22.09 26.1187 27.86 26.1187 33.63 26.1187 38.3075 30.7963 38.3075 36.5662" stroke="#66737C" stroke-width="3.57143" stroke-linecap="round" stroke-linejoin="round" fill="none"/></svg>