<svg width="60" height="60" viewBox="-2.14 -2.14 60 60" xmlns="http://www.w3.org/2000/svg" xmlns:xlink="http://www.w3.org/1999/xlink" id="Multiple-Neutral-2--Streamline-Ultimate.svg" overflow="hidden"><path d="M7.83563 18.2831C7.83563 23.5723 12.1233 27.86 17.4125 27.86 22.7017 27.86 26.9894 23.5723 26.9894 18.2831 26.9894 12.994 22.7017 8.70625 17.4125 8.70625 12.1233 8.70625 7.83563 12.994 7.83563 18.2831Z" stroke="#66737C" stroke-width="3.57143" stroke-linecap="round" stroke-linejoin="round" fill="none"/><path d="M1.74125 47.0137C1.74125 38.3588 8.75751 31.3425 17.4125 31.3425 26.0675 31.3425 33.0838 38.3588 33.0838 47.0137" stroke="#66737C" stroke-width="3.57143" stroke-linecap="round" stroke-linejoin="round" fill="none"/><path d="M33.3206 23.5069C33.3206 27.8344 36.8287 31.3425 41.1562 31.3425 45.4837 31.3425 48.9918 27.8344 48.9918 23.5069 48.9918 19.1794 45.4837 15.6712 41.1562 15.6712 36.8287 15.6712 33.3206 19.1794 33.3206 23.5069Z" stroke="#66737C" stroke-width="3.57143" stroke-linecap="round" stroke-linejoin="round" fill="none"/><path d="M36.7125 34.9829C43.3609 32.5325 50.7369 35.9357 53.1872 42.5841 53.7099 44.0025 53.9779 45.5021 53.9788 47.0137" stroke="#66737C" stroke-width="3.57143" stroke-linecap="round" stroke-linejoin="round" fill="none"/></svg>