<svg width="60" height="60" viewBox="-1.875 -1.875 60 60" xmlns="http://www.w3.org/2000/svg" xmlns:xlink="http://www.w3.org/1999/xlink" id="Fiber-Access-1--Streamline-Ultimate" fill="none" overflow="hidden"><path d="M23.4375 19.9219C27.3209 19.9219 30.4688 16.7739 30.4688 12.8906 30.4688 9.00738 27.3209 5.85938 23.4375 5.85938 19.5543 5.85938 16.4062 9.00738 16.4062 12.8906 16.4062 16.7739 19.5543 19.9219 23.4375 19.9219Z" stroke="#66737C" stroke-width="3.33333" stroke-linecap="round" stroke-linejoin="round" stroke-miterlimit="10"/><path d="M23.4375 5.85938 2.34375 5.85938" stroke="#66737C" stroke-width="3.33333" stroke-linecap="round" stroke-linejoin="round" stroke-miterlimit="10"/><path d="M28.5938 8.20312 35.8594 18.75 53.9062 18.75" stroke="#66737C" stroke-width="3.33333" stroke-linecap="round" stroke-linejoin="round" stroke-miterlimit="10"/><path d="M48.0469 12.8906 53.9062 18.75 48.0469 24.6094" stroke="#66737C" stroke-width="3.33333" stroke-linecap="round" stroke-linejoin="round" stroke-miterlimit="10"/><path d="M23.4375 50.3906C27.3209 50.3906 30.4688 47.2427 30.4688 43.3594 30.4688 39.476 27.3209 36.3281 23.4375 36.3281 19.5543 36.3281 16.4062 39.476 16.4062 43.3594 16.4062 47.2427 19.5543 50.3906 23.4375 50.3906Z" stroke="#66737C" stroke-width="3.33333" stroke-linecap="round" stroke-linejoin="round" stroke-miterlimit="10"/><path d="M23.4375 50.3906 2.34375 50.3906" stroke="#66737C" stroke-width="3.33333" stroke-linecap="round" stroke-linejoin="round" stroke-miterlimit="10"/><path d="M28.5938 48.0469 35.8594 37.5 53.9062 37.5" stroke="#66737C" stroke-width="3.33333" stroke-linecap="round" stroke-linejoin="round" stroke-miterlimit="10"/><path d="M48.0469 43.3594 53.9062 37.5 48.0469 31.6406" stroke="#66737C" stroke-width="3.33333" stroke-linecap="round" stroke-linejoin="round" stroke-miterlimit="10"/></svg>