<svg width="60" height="60" viewBox="-1.875 -1.875 60 60" xmlns="http://www.w3.org/2000/svg" xmlns:xlink="http://www.w3.org/1999/xlink" id="Hacker-Laptop--Streamline-Ultimate" overflow="hidden"><defs></defs><path d="M34.9219 12.2625C34.9219 16.0163 31.8788 19.0594 28.125 19.0594 24.3712 19.0594 21.3281 16.0163 21.3281 12.2625L21.3281 9.54375 34.9219 9.54375Z" stroke="#66737C" stroke-width="3.33333" stroke-linecap="round" stroke-linejoin="round" fill="none"/><path d="M17.2523 9.54375 38.9977 9.54375" stroke="#66737C" stroke-width="3.33333" stroke-linecap="round" stroke-linejoin="round" fill="none"/><path d="M19.9711 9.54375 21.9656 3.72891C22.3691 2.31596 23.8223 1.47933 25.2469 1.83984L28.125 2.56172 31.0102 1.83984C32.4347 1.47933 33.8879 2.31596 34.2914 3.72891L36.2859 9.54375Z" stroke="#66737C" stroke-width="3.33333" stroke-linecap="round" stroke-linejoin="round" fill="none"/><path d="M43.718 54.4922 12.532 54.4922C11.3864 54.4917 10.409 53.663 10.2211 52.5328L7.48594 36.1266C7.27365 34.8497 8.13669 33.6425 9.41358 33.4302 9.54026 33.4091 9.66846 33.3985 9.79688 33.3984L46.4531 33.3984C47.7475 33.399 48.7964 34.4488 48.7958 35.7433 48.7957 35.8717 48.7851 35.9999 48.7641 36.1266L46.0289 52.5328C45.841 53.663 44.8636 54.4917 43.718 54.4922Z" stroke="#66737C" stroke-width="3.33333" stroke-linecap="round" stroke-linejoin="round" fill="none"/><path d="M24.6094 43.9453C24.6094 45.8869 26.1834 47.4609 28.125 47.4609 30.0666 47.4609 31.6406 45.8869 31.6406 43.9453 31.6406 42.0037 30.0666 40.4297 28.125 40.4297 26.1834 40.4297 24.6094 42.0037 24.6094 43.9453" stroke="#66737C" stroke-width="3.33333" stroke-linecap="round" stroke-linejoin="round" fill="none"/><path d="M41.3695 33.3984C38.7867 26.085 30.7641 22.2501 23.4507 24.8329 19.4476 26.2467 16.2989 29.3954 14.8852 33.3984Z" stroke="#66737C" stroke-width="3.33333" stroke-linecap="round" stroke-linejoin="round" fill="none"/></svg>