<svg width="60" height="60" viewBox="-1.875 -1.875 60 60" xmlns="http://www.w3.org/2000/svg" xmlns:xlink="http://www.w3.org/1999/xlink" id="Baby-Family-Magnetic-Building-Toy-Node--Streamline-Ultimate" overflow="hidden"><defs></defs><path d="M35.7422 7.03125C35.7422 9.94369 38.1032 12.3047 41.0156 12.3047 43.9281 12.3047 46.2891 9.94369 46.2891 7.03125 46.2891 4.11881 43.9281 1.75781 41.0156 1.75781 38.1032 1.75781 35.7422 4.11881 35.7422 7.03125" stroke="#66737C" stroke-width="3.33333" stroke-linecap="round" stroke-linejoin="round" fill="none"/><path d="M9.96094 7.03125C9.96094 9.94369 12.3219 12.3047 15.2344 12.3047 18.1468 12.3047 20.5078 9.94369 20.5078 7.03125 20.5078 4.11881 18.1468 1.75781 15.2344 1.75781 12.3219 1.75781 9.96094 4.11881 9.96094 7.03125" stroke="#66737C" stroke-width="3.33333" stroke-linecap="round" stroke-linejoin="round" fill="none"/><path d="M43.9453 28.125C43.9453 31.0374 46.3063 33.3984 49.2188 33.3984 52.1312 33.3984 54.4922 31.0374 54.4922 28.125 54.4922 25.2126 52.1312 22.8516 49.2188 22.8516 46.3063 22.8516 43.9453 25.2126 43.9453 28.125" stroke="#66737C" stroke-width="3.33333" stroke-linecap="round" stroke-linejoin="round" fill="none"/><path d="M1.75781 28.125C1.75781 31.0374 4.11881 33.3984 7.03125 33.3984 9.94369 33.3984 12.3047 31.0374 12.3047 28.125 12.3047 25.2126 9.94369 22.8516 7.03125 22.8516 4.11881 22.8516 1.75781 25.2126 1.75781 28.125" stroke="#66737C" stroke-width="3.33333" stroke-linecap="round" stroke-linejoin="round" fill="none"/><path d="M22.8516 28.125C22.8516 31.0374 25.2126 33.3984 28.125 33.3984 31.0374 33.3984 33.3984 31.0374 33.3984 28.125 33.3984 25.2126 31.0374 22.8516 28.125 22.8516 25.2126 22.8516 22.8516 25.2126 22.8516 28.125" stroke="#66737C" stroke-width="3.33333" stroke-linecap="round" stroke-linejoin="round" fill="none"/><path d="M35.7422 49.2188C35.7422 52.1312 38.1032 54.4922 41.0156 54.4922 43.9281 54.4922 46.2891 52.1312 46.2891 49.2188 46.2891 46.3063 43.9281 43.9453 41.0156 43.9453 38.1032 43.9453 35.7422 46.3063 35.7422 49.2188" stroke="#66737C" stroke-width="3.33333" stroke-linecap="round" stroke-linejoin="round" fill="none"/><path d="M9.96094 49.2188C9.96094 52.1312 12.3219 54.4922 15.2344 54.4922 18.1468 54.4922 20.5078 52.1312 20.5078 49.2188 20.5078 46.3063 18.1468 43.9453 15.2344 43.9453 12.3219 43.9453 9.96094 46.3063 9.96094 49.2188" stroke="#66737C" stroke-width="3.33333" stroke-linecap="round" stroke-linejoin="round" fill="none"/><path d="M18.1594 11.4187 25.2 23.7375" stroke="#66737C" stroke-width="3.33333" stroke-linecap="round" stroke-linejoin="round" fill="none"/><path d="M37.7977 11.2266 30.9727 23.6859" stroke="#66737C" stroke-width="3.33333" stroke-linecap="round" stroke-linejoin="round" fill="none"/><path d="M18.1594 44.8312 25.2 32.5125" stroke="#66737C" stroke-width="3.33333" stroke-linecap="round" stroke-linejoin="round" fill="none"/><path d="M37.7977 45.0234 30.9727 32.5641" stroke="#66737C" stroke-width="3.33333" stroke-linecap="round" stroke-linejoin="round" fill="none"/><path d="M22.8516 28.125 12.3047 28.125" stroke="#66737C" stroke-width="3.33333" stroke-linecap="round" stroke-linejoin="round" fill="none"/><path d="M43.9453 28.125 33.3984 28.125" stroke="#66737C" stroke-width="3.33333" stroke-linecap="round" stroke-linejoin="round" fill="none"/><path d="M8.69531 23.1305 13.5703 12.0234" stroke="#66737C" stroke-width="3.33333" stroke-linecap="round" stroke-linejoin="round" fill="none"/><path d="M47.5805 23.1305 42.7078 12.0234" stroke="#66737C" stroke-width="3.33333" stroke-linecap="round" stroke-linejoin="round" fill="none"/><path d="M8.69531 33.1195 13.5703 44.2266" stroke="#66737C" stroke-width="3.33333" stroke-linecap="round" stroke-linejoin="round" fill="none"/><path d="M47.5805 33.1195 42.7078 44.2266" stroke="#66737C" stroke-width="3.33333" stroke-linecap="round" stroke-linejoin="round" fill="none"/><path d="M20.5078 7.03125 35.7422 7.03125" stroke="#66737C" stroke-width="3.33333" stroke-linecap="round" stroke-linejoin="round" fill="none"/><path d="M20.5078 49.2188 35.7422 49.2188" stroke="#66737C" stroke-width="3.33333" stroke-linecap="round" stroke-linejoin="round" fill="none"/></svg>