<svg width="60" height="60" viewBox="-1.875 -1.875 60 60" xmlns="http://www.w3.org/2000/svg" xmlns:xlink="http://www.w3.org/1999/xlink" id="Hyperlink-Circle--Streamline-Ultimate" overflow="hidden"><path d="M29.6602 42.1711C27.1437 47.4807 20.8116 49.7614 15.4875 47.2758L15.4875 47.2758C10.1779 44.7593 7.89718 38.4273 10.3828 33.1031L13.6219 26.2195C16.1374 20.9102 22.4687 18.6294 27.7922 21.1148L27.7922 21.1148C30.8208 22.5436 33.0009 25.314 33.6773 28.5938" stroke="#66737C" stroke-width="3.33333" stroke-linecap="round" stroke-linejoin="round" fill="none"/><path d="M27.7641 14.3133C30.2805 9.00363 36.6126 6.72296 41.9367 9.20859L41.9367 9.20859C47.245 11.725 49.5255 18.0554 47.0414 23.3789L43.8023 30.2625C41.2859 35.5721 34.9538 37.8528 29.6297 35.3672L29.6297 35.3672C27.0403 34.1472 25.0528 31.934 24.1172 29.2289" stroke="#66737C" stroke-width="3.33333" stroke-linecap="round" stroke-linejoin="round" fill="none"/></svg>