<svg width="60" height="60" viewBox="-1.875 -1.875 60 60" xmlns="http://www.w3.org/2000/svg" xmlns:xlink="http://www.w3.org/1999/xlink" id="Arrow-Rectangle-Left-1--Streamline-Ultimate" overflow="hidden"><defs></defs><path d="M54.4922 6.44531 54.4922 49.8047C54.4922 49.8047 54.4922 54.4922 49.8047 54.4922L6.44531 54.4922C6.44531 54.4922 1.75781 54.4922 1.75781 49.8047L1.75781 6.44531C1.75781 6.44531 1.75781 1.75781 6.44531 1.75781L49.8047 1.75781C49.8047 1.75781 54.4922 1.75781 54.4922 6.44531" stroke="#66737C" stroke-width="3.33333" stroke-linecap="round" stroke-linejoin="round" fill="none"/><path d="M36.1219 15.5859 26.3672 28.125 36.1219 40.6664C36.8304 41.5217 36.7114 42.7893 35.8562 43.4979 35.5546 43.7476 35.1868 43.904 34.7977 43.9477L29.7211 43.9477C28.6774 43.9327 27.6997 43.4339 27.075 42.5977L16.8328 29.4305C16.2543 28.6589 16.2543 27.5981 16.8328 26.8266L27.075 13.6594C27.6988 12.8217 28.6768 12.3219 29.7211 12.307L34.7977 12.307C35.9022 12.4344 36.6944 13.4332 36.567 14.5377 36.5226 14.9227 36.368 15.2867 36.1219 15.5859Z" stroke="#66737C" stroke-width="3.33333" stroke-linecap="round" stroke-linejoin="round" fill="none" fill-rule="evenodd"/></svg>