<svg width="60" height="60" viewBox="-1.875 -1.875 60 60" xmlns="http://www.w3.org/2000/svg" xmlns:xlink="http://www.w3.org/1999/xlink" id="Arrow-Thick-Down-1--Streamline-Ultimate" overflow="hidden"><path d="M51.8484 32.3438C52.5351 31.6575 52.5355 30.5445 51.8492 29.8578 51.849 29.8576 51.8487 29.8573 51.8484 29.857L46.875 24.8742C46.1888 24.1875 45.0758 24.1872 44.3891 24.8734 44.3888 24.8737 44.3885 24.874 44.3883 24.8742L33.5156 35.7586 33.5156 3.51562C33.5156 2.54481 32.7286 1.75781 31.7578 1.75781L24.7266 1.75781C23.7557 1.75781 22.9688 2.54481 22.9688 3.51562L22.9688 35.7586 12.075 24.8742C11.3888 24.1875 10.2758 24.1872 9.58908 24.8734 9.58881 24.8737 9.58855 24.874 9.58828 24.8742L4.61719 29.8453C3.9305 30.5316 3.93014 31.6445 4.61639 32.3312 4.61666 32.3315 4.61692 32.3318 4.61719 32.332L25.7461 53.4633C27.1186 54.8367 29.3446 54.8374 30.7179 53.4649 30.7185 53.4643 30.719 53.4638 30.7195 53.4633Z" stroke="#66737C" stroke-width="3.57143" stroke-linecap="round" stroke-linejoin="round" fill="none"/></svg>