<svg width="60" height="60" viewBox="-2.14 -2.14 60 60" xmlns="http://www.w3.org/2000/svg" xmlns:xlink="http://www.w3.org/1999/xlink" id="Open-Eyes--Streamline-Ultimate.svg" fill="none" overflow="hidden"><path d="M3.22856 15.86 7.87189 20.5033" stroke="#66737C" stroke-width="3.57143" stroke-linecap="round" stroke-linejoin="round" stroke-miterlimit="10"/><path d="M17.1659 7.1101 19.9519 12.9143" stroke="#66737C" stroke-width="3.57143" stroke-linecap="round" stroke-linejoin="round" stroke-miterlimit="10"/><path d="M27.86 44.2277C45.2725 44.2277 53.3983 27.9761 53.3983 27.9761 53.3983 27.9761 45.2725 11.7245 27.86 11.7245 10.4475 11.7245 2.32166 27.9761 2.32166 27.9761 2.32166 27.9761 10.4475 44.2277 27.86 44.2277Z" stroke="#66737C" stroke-width="3.57143" stroke-linecap="round" stroke-linejoin="round" stroke-miterlimit="10"/><path d="M52.4915 15.86 47.8482 20.5033" stroke="#66737C" stroke-width="3.57143" stroke-linecap="round" stroke-linejoin="round" stroke-miterlimit="10"/><path d="M38.5541 7.1101 35.7681 12.9143" stroke="#66737C" stroke-width="3.57143" stroke-linecap="round" stroke-linejoin="round" stroke-miterlimit="10"/><path d="M27.86 34.7091C31.7068 34.7091 34.825 31.5907 34.825 27.7441 34.825 23.8974 31.7068 20.7791 27.86 20.7791 24.0132 20.7791 20.895 23.8974 20.895 27.7441 20.895 31.5907 24.0132 34.7091 27.86 34.7091Z" stroke="#66737C" stroke-width="3.57143" stroke-linecap="round" stroke-linejoin="round" stroke-miterlimit="10"/></svg>