<svg width="60" height="60" viewBox="-2.14 -2.14 60 60" xmlns="http://www.w3.org/2000/svg" xmlns:xlink="http://www.w3.org/1999/xlink" id="Cursor-Target--Streamline-Ultimate.svg" overflow="hidden"><path d="M6.965 27.8554C6.965 39.3953 16.32 48.7504 27.86 48.7504 39.4 48.7504 48.755 39.3953 48.755 27.8554 48.755 16.3154 39.4 6.96035 27.86 6.96035 16.32 6.96035 6.965 16.3154 6.965 27.8554Z" stroke="#66737C" stroke-width="3.57143" stroke-linecap="round" stroke-linejoin="round" fill="none"/><path d="M17.4125 27.8554C17.4125 33.6254 22.09 38.3029 27.86 38.3029 33.63 38.3029 38.3075 33.6254 38.3075 27.8554 38.3075 22.0854 33.63 17.4079 27.86 17.4079 22.09 17.4079 17.4125 22.0854 17.4125 27.8554Z" stroke="#66737C" stroke-width="3.57143" stroke-linecap="round" stroke-linejoin="round" fill="none"/><path d="M27.86 2.31702 27.86 53.3937" stroke="#66737C" stroke-width="3.57143" stroke-linecap="round" stroke-linejoin="round" fill="none"/><path d="M53.3983 27.8554 2.32167 27.8554" stroke="#66737C" stroke-width="3.57143" stroke-linecap="round" stroke-linejoin="round" fill="none"/></svg>