<svg width="60" height="60" viewBox="-2.14 -2.14 60 60" xmlns="http://www.w3.org/2000/svg" xmlns:xlink="http://www.w3.org/1999/xlink" id="Iris-Scan-2--Streamline-Ultimate.svg" fill="none" overflow="hidden"><path d="M27.86 28.7306C27.3792 28.7306 26.9894 28.3408 26.9894 27.86 26.9894 27.3792 27.3792 26.9894 27.86 26.9894" stroke="#66737C" stroke-width="3.57143"/><path d="M27.86 28.7306C28.3408 28.7306 28.7306 28.3408 28.7306 27.86 28.7306 27.3792 28.3408 26.9894 27.86 26.9894" stroke="#66737C" stroke-width="3.57143"/><path d="M27.86 39.4683C34.271 39.4683 39.4683 34.271 39.4683 27.86 39.4683 21.4489 34.271 16.2517 27.86 16.2517 21.4489 16.2517 16.2517 21.4489 16.2517 27.86 16.2517 34.271 21.4489 39.4683 27.86 39.4683Z" stroke="#66737C" stroke-width="3.57143" stroke-linecap="round" stroke-linejoin="round"/><path d="M27.86 10.4475 27.86 19.1537" stroke="#66737C" stroke-width="3.57143" stroke-linecap="round" stroke-linejoin="round"/><path d="M27.86 36.5662 27.86 45.2725" stroke="#66737C" stroke-width="3.57143" stroke-linecap="round" stroke-linejoin="round"/><path d="M36.5662 27.86 43.5312 27.86" stroke="#66737C" stroke-width="3.57143" stroke-linecap="round" stroke-linejoin="round"/><path d="M12.1888 27.86 19.1537 27.86" stroke="#66737C" stroke-width="3.57143" stroke-linecap="round" stroke-linejoin="round"/><path d="M19.7341 10.935C12.9848 14.0704 7.13859 18.8624 2.73947 24.865 2.09374 25.7563 1.74607 26.8289 1.74607 27.9296 1.74607 29.0304 2.09374 30.1027 2.73947 30.9942 7.13193 37.003 12.98 41.7965 19.7341 44.9243" stroke="#66737C" stroke-width="3.57143" stroke-linecap="round" stroke-linejoin="round"/><path d="M35.9858 44.7847C42.74 41.657 48.5881 36.8637 52.9804 30.8547 53.6261 29.9634 53.9739 28.8908 53.9739 27.7901 53.9739 26.6894 53.6261 25.6168 52.9804 24.7255 48.5813 18.723 42.7351 13.931 35.9858 10.7955" stroke="#66737C" stroke-width="3.57143" stroke-linecap="round" stroke-linejoin="round"/></svg>