<svg width="60" height="60" viewBox="-1.875 -1.875 60 60" xmlns="http://www.w3.org/2000/svg" xmlns:xlink="http://www.w3.org/1999/xlink" id="Beach-Sunbed--Streamline-Ultimate" overflow="hidden"><path d="M53.557 30.4031C51.903 28.0072 48.6202 27.4049 46.2234 29.0578L35.1562 36.9141 12.3047 36.9141C9.39225 36.9141 7.03125 39.2751 7.03125 42.1875 7.03125 45.0999 9.39225 47.4609 12.3047 47.4609L36.9141 47.4609C38.2373 47.4593 39.5109 46.9569 40.4789 46.0547L52.2141 37.7344C54.6078 36.0797 55.2088 32.7988 53.557 30.4031Z" stroke="#66737C" stroke-width="3.57143" stroke-linecap="round" stroke-linejoin="round" fill="none"/><path d="M14.0578 47.4609 12.3 54.4922" stroke="#66737C" stroke-width="3.57143" stroke-linecap="round" stroke-linejoin="round" fill="none"/><path d="M38.6672 47.4609 42.1828 54.4922" stroke="#66737C" stroke-width="3.57143" stroke-linecap="round" stroke-linejoin="round" fill="none"/><path d="M10.5469 13.9359C10.5469 16.8484 12.9079 19.2094 15.8203 19.2094 18.7328 19.2094 21.0938 16.8484 21.0938 13.9359 21.0938 11.0235 18.7328 8.6625 15.8203 8.6625 12.9079 8.6625 10.5469 11.0235 10.5469 13.9359Z" stroke="#66737C" stroke-width="3.57143" stroke-linecap="round" stroke-linejoin="round" fill="none"/><path d="M26.3672 13.9359 29.8828 13.9359" stroke="#66737C" stroke-width="3.57143" stroke-linecap="round" stroke-linejoin="round" fill="none"/><path d="M5.27344 13.9359 1.75781 13.9359" stroke="#66737C" stroke-width="3.57143" stroke-linecap="round" stroke-linejoin="round" fill="none"/><path d="M21.0938 4.80234 22.8516 1.75781" stroke="#66737C" stroke-width="3.57143" stroke-linecap="round" stroke-linejoin="round" fill="none"/><path d="M10.5469 23.0695 8.78906 26.1141" stroke="#66737C" stroke-width="3.57143" stroke-linecap="round" stroke-linejoin="round" fill="none"/><path d="M10.5469 4.80234 8.78906 1.75781" stroke="#66737C" stroke-width="3.57143" stroke-linecap="round" stroke-linejoin="round" fill="none"/><path d="M21.0938 23.0695 22.8516 26.1141" stroke="#66737C" stroke-width="3.57143" stroke-linecap="round" stroke-linejoin="round" fill="none"/></svg>