<svg width="60" height="60" viewBox="-1.875 -1.875 60 60" xmlns="http://www.w3.org/2000/svg" xmlns:xlink="http://www.w3.org/1999/xlink" id="Beach-Palm--Streamline-Ultimate" overflow="hidden"><path d="M54.4922 50.9766C54.4922 45.1523 42.6867 40.4297 28.125 40.4297 13.5633 40.4297 1.75781 45.1523 1.75781 50.9766L1.75781 54.4922 54.4922 54.4922Z" stroke="#66737C" stroke-width="3.57143" stroke-linecap="round" stroke-linejoin="round" fill="none"/><path d="M36.6422 19.868 34.7414 40.7648" stroke="#66737C" stroke-width="3.57143" stroke-linecap="round" stroke-linejoin="round" fill="none"/><path d="M19.8914 40.9547 32.1891 18.4102" stroke="#66737C" stroke-width="3.57143" stroke-linecap="round" stroke-linejoin="round" fill="none"/><path d="M32.1891 18.4102 51.5859 24.7594C52.5075 25.0687 53.5054 24.5723 53.8146 23.6507 53.9129 23.3578 53.9324 23.0442 53.8711 22.7414 53.2981 18.1507 49.9346 14.3985 45.4336 13.3289 43.5847 12.9326 41.6802 12.8676 39.8086 13.1367" stroke="#66737C" stroke-width="3.57143" stroke-linecap="round" stroke-linejoin="round" fill="none"/><path d="M32.1891 18.4102 14.5312 23.2031C13.5953 23.4609 12.6276 22.9111 12.3698 21.9751 12.2963 21.7084 12.2869 21.4281 12.3422 21.157 12.8694 16.4971 16.257 12.6655 20.8172 11.5711 23.2261 11.0264 25.7328 11.09 28.1109 11.7563" stroke="#66737C" stroke-width="3.57143" stroke-linecap="round" stroke-linejoin="round" fill="none"/><path d="M43.5422 13.0477 50.8078 5.74453C51.4977 5.06699 51.5076 3.9585 50.8301 3.26865 50.6819 3.11777 50.5076 2.99499 50.3156 2.90625 46.4345 1.01734 41.8197 1.47991 38.3906 4.10156 36.8995 5.29902 35.8451 6.95488 35.3906 8.8125" stroke="#66737C" stroke-width="3.57143" stroke-linecap="round" stroke-linejoin="round" fill="none"/><path d="M23.857 11.2125 19.2867 6.25313C18.6265 5.54491 18.6654 4.43558 19.3736 3.77536 19.6071 3.55773 19.8955 3.40795 20.2078 3.34219 22.1463 2.96759 24.1163 2.78001 26.0906 2.78203 29.9942 3.13907 33.4721 5.39425 35.3906 8.8125" stroke="#66737C" stroke-width="3.57143" stroke-linecap="round" stroke-linejoin="round" fill="none"/></svg>