<svg width="60" height="60" viewBox="-2.14 -2.14 60 60" xmlns="http://www.w3.org/2000/svg" xmlns:xlink="http://www.w3.org/1999/xlink" id="Graph-Stats-Circle--Streamline-Ultimate.svg" overflow="hidden"><path d="M1.74125 27.86C1.74125 42.285 13.435 53.9788 27.86 53.9788 42.285 53.9788 53.9788 42.285 53.9788 27.86 53.9788 13.435 42.285 1.74125 27.86 1.74125 13.435 1.74125 1.74125 13.435 1.74125 27.86Z" stroke="#66737C" stroke-width="3.57143" stroke-linecap="round" stroke-linejoin="round" fill="none"/><path d="M8.70625 29.6012 15.6713 29.6012 20.9182 16.4838C21.2779 15.5933 22.2913 15.163 23.1818 15.5227 23.6426 15.7088 24.0017 16.0831 24.1686 16.5512L31.8115 38.2007C32.1317 39.1075 33.1264 39.583 34.0332 39.2627 34.4266 39.1238 34.757 38.8483 34.9643 38.4863L40.0488 29.6012 47.0137 29.6012" stroke="#66737C" stroke-width="3.57143" stroke-linecap="round" stroke-linejoin="round" fill="none"/></svg>