<svg width="60" height="60" viewBox="-2.14 -2.14 60 60" xmlns="http://www.w3.org/2000/svg" xmlns:xlink="http://www.w3.org/1999/xlink" id="Performance-Increase--Streamline-Ultimate.svg" overflow="hidden"><path d="M1.17012 53.9787 54.5685 53.9787" stroke="#66737C" stroke-width="3.57143" stroke-linecap="round" stroke-linejoin="round" fill="none"/><path d="M10.4475 53.9787 10.4475 48.1746C10.4475 47.5335 9.92778 47.0138 9.28667 47.0138L4.64333 47.0137C4.00222 47.0137 3.4825 47.5335 3.4825 48.1746L3.4825 53.9787" stroke="#66737C" stroke-width="3.57143" stroke-linecap="round" stroke-linejoin="round" fill="none"/><path d="M24.3775 53.9787 24.3775 38.8879C24.3775 38.2468 23.8578 37.7271 23.2167 37.7271L18.5733 37.7271C17.9322 37.7271 17.4125 38.2468 17.4125 38.8879L17.4125 53.9787" stroke="#66737C" stroke-width="3.57143" stroke-linecap="round" stroke-linejoin="round" fill="none"/><path d="M38.3075 53.9787 38.3075 29.6012C38.3075 28.9601 37.7878 28.4404 37.1467 28.4404L32.5033 28.4404C31.8622 28.4404 31.3425 28.9601 31.3425 29.6012L31.3425 53.9787" stroke="#66737C" stroke-width="3.57143" stroke-linecap="round" stroke-linejoin="round" fill="none"/><path d="M52.2375 53.9787 52.2375 20.3146C52.2375 19.6735 51.7178 19.1537 51.0767 19.1537L46.4333 19.1537C45.7922 19.1537 45.2725 19.6735 45.2725 20.3146L45.2725 53.9787" stroke="#66737C" stroke-width="3.57143" stroke-linecap="round" stroke-linejoin="round" fill="none"/><path d="M6.97429 30.7621 48.7643 2.90208" stroke="#66737C" stroke-width="3.57143" stroke-linecap="round" stroke-linejoin="round" fill="none"/><path d="M47.6035 12.1888 48.7643 2.90208 39.4776 1.74125" stroke="#66737C" stroke-width="3.57143" stroke-linecap="round" stroke-linejoin="round" fill="none"/></svg>