<svg width="60" height="60" viewBox="-2.14 -2.14 60 60" xmlns="http://www.w3.org/2000/svg" xmlns:xlink="http://www.w3.org/1999/xlink" id="Truck-1--Streamline-Ultimate.svg" overflow="hidden"><path d="M40.0488 40.0488C40.0488 41.9721 41.6079 43.5312 43.5312 43.5312 45.4546 43.5312 47.0137 41.9721 47.0137 40.0488 47.0137 38.1254 45.4546 36.5663 43.5312 36.5663 41.6079 36.5663 40.0488 38.1254 40.0488 40.0488Z" stroke="#66737C" stroke-width="3.57143" stroke-linecap="round" stroke-linejoin="round" fill="none"/><path d="M8.70625 40.0488C8.70625 41.9721 10.2654 43.5312 12.1888 43.5312 14.1121 43.5312 15.6713 41.9721 15.6713 40.0488 15.6713 38.1254 14.1121 36.5663 12.1888 36.5663 10.2654 36.5663 8.70625 38.1254 8.70625 40.0488Z" stroke="#66737C" stroke-width="3.57143" stroke-linecap="round" stroke-linejoin="round" fill="none"/><path d="M45.2725 26.1187 31.3425 26.1187" stroke="#66737C" stroke-width="3.57143" stroke-linecap="round" stroke-linejoin="round" fill="none"/><path d="M47.0137 40.0488 50.4963 40.0488C52.4196 40.0488 53.9787 38.4896 53.9787 36.5663L53.9787 33.0838C53.9787 29.7382 52.8365 29.8613 45.2725 26.1187L43.1087 17.4636C42.3333 14.3637 39.548 12.1891 36.3527 12.1888L5.22375 12.1888C3.30042 12.1888 1.74125 13.7479 1.74125 15.6713L1.74125 36.5662C1.74125 38.4896 3.30042 40.0487 5.22375 40.0487L8.70625 40.0488" stroke="#66737C" stroke-width="3.57143" stroke-linecap="round" stroke-linejoin="round" fill="none"/><path d="M40.0488 40.0488 15.6713 40.0488" stroke="#66737C" stroke-width="3.57143" stroke-linecap="round" stroke-linejoin="round" fill="none"/><path d="M31.3425 12.1888 31.3425 40.0488" stroke="#66737C" stroke-width="3.57143" stroke-linecap="round" stroke-linejoin="round" fill="none"/><path d="M24.3775 26.1187 8.70625 26.1187 8.70625 19.1537 24.3775 19.1537Z" stroke="#66737C" stroke-width="3.57143" stroke-linecap="round" stroke-linejoin="round" fill="none"/></svg>