<svg width="60" height="60" viewBox="-1.875 -1.875 60 60" xmlns="http://www.w3.org/2000/svg" xmlns:xlink="http://www.w3.org/1999/xlink" id="Workflow-Coaching-Puzzle-Lightbulb--Streamline-Ultimate" overflow="hidden"><defs></defs><path d="M29.4773 3.42422C29.4094 3.45703 29.3461 3.49922 29.2781 3.53672L31.3875 7.71328C31.5661 8.08869 31.9855 8.28512 32.3883 8.18203 34.2783 7.65409 36.2384 8.75825 36.7663 10.6482 37.1548 12.0391 36.6629 13.5267 35.5219 14.4117 35.1957 14.6686 35.0975 15.1207 35.2875 15.4898L36.9258 18.75 40.1813 17.1094C40.5504 16.9193 41.0024 17.0176 41.2594 17.3438 42.4621 18.8943 44.694 19.1763 46.2446 17.9736 47.3857 17.0886 47.8776 15.601 47.4891 14.2102 47.385 13.8073 47.5817 13.3873 47.9578 13.2094L51.0305 11.6648C50.8359 11.2242 50.6414 10.7836 50.4023 10.357 46.5446 2.66634 37.1828-0.440909 29.4921 3.4168 29.4872 3.41927 29.4823 3.42174 29.4773 3.42422Z" stroke="#66737C" stroke-width="3.33333" stroke-linecap="round" stroke-linejoin="round" fill="none"/><path d="M28.9711 44.6719 28.9711 44.6391C29.0267 41.5907 30.5429 38.7544 33.0469 37.0148 37.2872 33.9222 39.8991 29.0759 40.1508 23.8336L36.2953 23.8336C35.8304 23.8255 35.4248 24.1477 35.3273 24.6023 34.9057 26.7621 32.8131 28.1711 30.6533 27.7494 29.0616 27.4387 27.817 26.1941 27.5063 24.6023 27.408 24.1482 27.0029 23.8264 26.5383 23.8336L22.4531 23.8336 22.4531 27.9188C22.4601 28.3828 22.1382 28.7871 21.6844 28.8844 19.5246 29.306 18.1156 31.3986 18.5373 33.5584 18.848 35.1501 20.0926 36.3947 21.6844 36.7055 22.1385 36.8037 22.4603 37.2088 22.4531 37.6734L22.4531 44.6719Z" stroke="#66737C" stroke-width="3.33333" stroke-linecap="round" stroke-linejoin="round" fill="none"/><path d="M22.4531 37.6734C22.4603 37.2088 22.1385 36.8037 21.6844 36.7055 19.5246 36.2838 18.1156 34.1912 18.5373 32.0315 18.848 30.4397 20.0926 29.1951 21.6844 28.8844 22.1382 28.7871 22.4601 28.3828 22.4531 27.9188L22.4531 23.8336 18.368 23.8336C17.904 23.8389 17.4999 23.518 17.4 23.0648 16.9751 20.9058 14.8803 19.5 12.7212 19.9249 11.1343 20.2372 9.89359 21.4779 9.58125 23.0648 9.48137 23.518 9.07728 23.8389 8.61328 23.8336L5.26641 23.8336C5.51984 29.0866 8.1431 33.9409 12.3984 37.0312 14.9115 38.7722 16.4342 41.6152 16.4906 44.6719L22.4531 44.6719Z" stroke="#66737C" stroke-width="3.33333" stroke-linecap="round" stroke-linejoin="round" fill="none"/><path d="M23.2219 10.9594C22.7682 10.8603 22.4469 10.4557 22.4531 9.99141L22.4531 4.74844C12.9065 4.88298 5.23755 12.6594 5.23594 22.207 5.2125 22.7555 5.23594 23.2945 5.26641 23.8336L8.61328 23.8336C9.07728 23.8389 9.48137 23.518 9.58125 23.0648 10.0062 20.9058 12.101 19.5 14.2601 19.9249 15.847 20.2372 17.0877 21.4779 17.4 23.0648 17.4999 23.518 17.904 23.8389 18.368 23.8336L22.4531 23.8336 22.4531 19.7484C22.4467 19.2836 22.7679 18.8782 23.2219 18.7781 25.381 18.3532 26.7868 16.2584 26.3618 14.0993 26.0495 12.5124 24.8088 11.2717 23.2219 10.9594Z" stroke="#66737C" stroke-width="3.33333" stroke-linecap="round" stroke-linejoin="round" fill="none"/><path d="M16.4086 50.993 29.2406 50.993" stroke="#66737C" stroke-width="3.33333" stroke-linecap="round" stroke-linejoin="round" fill="none"/><path d="M22.8234 50.993 22.8234 54.4922" stroke="#66737C" stroke-width="3.33333" stroke-linecap="round" stroke-linejoin="round" fill="none"/></svg>