<svg width="60" height="60" viewBox="-1.875 -1.875 60 60" xmlns="http://www.w3.org/2000/svg" xmlns:xlink="http://www.w3.org/1999/xlink" id="Autism-Disorder-Symptoms-2--Streamline-Ultimate" fill="none" overflow="hidden"><path d="M19.1273 54.003 19.1273 41.9658C16.4724 39.5062 14.6209 36.3033 13.8145 32.7752 13.7288 32.4 13.5962 31.8945 13.5349 31.5162L21.1159 31.4864C21.1159 33.702 22.8886 35.498 25.0753 35.498 27.262 35.498 29.0346 33.702 29.0346 31.4864L34.2019 31.5162 34.1862 25.6048C31.9812 25.6048 30.1936 23.832 30.1936 21.6453 30.1936 19.4586 31.9812 17.686 34.1862 17.686L34.1892 10.9463C45.5309 12.4143 48.4069 22.9841 52.943 34.751 53.0269 34.9695 53.0562 35.2048 53.0288 35.437 53.0013 35.6693 52.9179 35.8915 52.7855 36.0844 52.6533 36.2773 52.4759 36.435 52.2691 36.5442 52.0622 36.6532 51.832 36.7104 51.5981 36.7109L47.9475 36.7109 47.9475 42.4748C47.9475 44.0037 47.3402 45.4697 46.2593 46.5506 45.1784 47.6316 43.7121 48.2388 42.1835 48.2388L39.3014 48.2388 39.3014 54.003" stroke="#66737C" stroke-width="3.33333" stroke-linecap="round" stroke-linejoin="round"/><path d="M14.2438 19.4598C14.4355 19.0246 14.5496 18.575 14.5923 18.1265L19.2082 20.1593 21.1901 15.6588C21.0602 15.6178 20.9312 15.5693 20.8036 15.5131 18.9137 14.6808 18.0549 12.477 18.8856 10.5908 19.7162 8.70464 21.9217 7.8503 23.8116 8.68261 23.9393 8.73879 24.0621 8.80123 24.18 8.86936L26.3184 4.01346C15.6033-0.469174 5.95315 3.94718 3.21122 13.1144L7.14333 14.8461C6.84129 15.1804 6.58669 15.5682 6.39504 16.0033 5.4364 18.1802 6.41625 20.7187 8.58363 21.6731 10.751 22.6276 13.2851 21.6367 14.2438 19.4598Z" stroke="#66737C" stroke-width="3.33333" stroke-linejoin="round"/></svg>