<svg width="60" height="60" viewBox="-2.14 -2.14 60 60" xmlns="http://www.w3.org/2000/svg" xmlns:xlink="http://www.w3.org/1999/xlink" id="Electricity-Tower--Streamline-Ultimate.svg" overflow="hidden"><path d="M18.5037 1.74125 35.9162 1.74125 35.9162 29.6012 18.5037 29.6012Z" stroke="#66737C" stroke-width="3.57143" stroke-linecap="round" stroke-linejoin="round" fill="none"/><path d="M35.9162 1.74125 48.3603 14.1854C48.7001 14.5256 48.6998 15.0768 48.3596 15.4166 48.1959 15.5801 47.974 15.6717 47.7428 15.6713L35.9162 15.6713" stroke="#66737C" stroke-width="3.57143" stroke-linecap="round" stroke-linejoin="round" fill="none"/><path d="M35.9162 15.6713 48.3603 28.1154C48.7001 28.4556 48.6998 29.0068 48.3596 29.3466 48.1959 29.5101 47.974 29.6017 47.7428 29.6012L35.9162 29.6012" stroke="#66737C" stroke-width="3.57143" stroke-linecap="round" stroke-linejoin="round" fill="none"/><path d="M18.5037 15.6713 6.67479 15.6713C6.19396 15.6708 5.80451 15.2807 5.80493 14.7999 5.80514 14.5694 5.8967 14.3484 6.05955 14.1854L18.5037 1.74125" stroke="#66737C" stroke-width="3.57143" stroke-linecap="round" stroke-linejoin="round" fill="none"/><path d="M18.5037 15.6713 6.05955 28.1154C5.71976 28.4556 5.7201 29.0068 6.06032 29.3466 6.22337 29.5095 6.44434 29.601 6.67479 29.6012L18.5153 29.6012" stroke="#66737C" stroke-width="3.57143" stroke-linecap="round" stroke-linejoin="round" fill="none"/><path d="M35.9162 29.6012 18.5037 1.74125" stroke="#66737C" stroke-width="3.57143" stroke-linecap="round" stroke-linejoin="round" fill="none"/><path d="M18.5037 29.6012 35.9162 1.74125" stroke="#66737C" stroke-width="3.57143" stroke-linecap="round" stroke-linejoin="round" fill="none"/><path d="M8.05618 53.9787 18.5037 29.6012" stroke="#66737C" stroke-width="3.57143" stroke-linecap="round" stroke-linejoin="round" fill="none"/><path d="M46.3637 53.9787 35.9162 29.6012" stroke="#66737C" stroke-width="3.57143" stroke-linecap="round" stroke-linejoin="round" fill="none"/><path d="M16.9667 33.1859 43.0391 46.2221" stroke="#66737C" stroke-width="3.57143" stroke-linecap="round" stroke-linejoin="round" fill="none"/><path d="M37.4508 33.1859 11.3785 46.2221" stroke="#66737C" stroke-width="3.57143" stroke-linecap="round" stroke-linejoin="round" fill="none"/></svg>