<svg width="60" height="60" viewBox="-2.14 -2.14 60 60" xmlns="http://www.w3.org/2000/svg" xmlns:xlink="http://www.w3.org/1999/xlink" id="Renewable-Energy-Solar-Panel--Streamline-Ultimate.svg" overflow="hidden"><path d="M52.2375 47.0137 14.659 47.0137C13.6986 47.0141 12.9198 46.2359 12.9194 45.2755 12.9193 45.0767 12.9533 44.8794 13.0199 44.6921L20.4817 23.7971C20.7268 23.1018 21.3836 22.6366 22.1208 22.6362L43.2805 22.6362C43.9772 22.6361 44.6067 23.0518 44.8801 23.6926L53.8371 44.5876C54.2154 45.4718 53.8053 46.4951 52.9211 46.8734 52.7051 46.9658 52.4725 47.0136 52.2375 47.0137Z" stroke="#66737C" stroke-width="3.57143" stroke-linecap="round" stroke-linejoin="round" fill="none"/><path d="M27.86 47.0137 27.86 53.9787" stroke="#66737C" stroke-width="3.57143" stroke-linecap="round" stroke-linejoin="round" fill="none"/><path d="M38.3075 47.0137 38.3075 53.9787" stroke="#66737C" stroke-width="3.57143" stroke-linecap="round" stroke-linejoin="round" fill="none"/><path d="M11.3762 26.1211C7.515 21.8334 7.86076 15.2274 12.1484 11.3663 16.4361 7.50511 23.0421 7.85087 26.9032 12.1386 27.3981 12.6881 27.8332 13.2886 28.2013 13.93" stroke="#66737C" stroke-width="3.57143" stroke-linecap="round" stroke-linejoin="round" fill="none"/><path d="M19.1537 3.4825 19.1537 1.74125" stroke="#66737C" stroke-width="3.57143" stroke-linecap="round" stroke-linejoin="round" fill="none"/><path d="M31.3425 8.70625 33.0838 6.965" stroke="#66737C" stroke-width="3.57143" stroke-linecap="round" stroke-linejoin="round" fill="none"/><path d="M6.965 8.70625 5.22375 6.965" stroke="#66737C" stroke-width="3.57143" stroke-linecap="round" stroke-linejoin="round" fill="none"/><path d="M3.4825 19.1537 1.74125 19.1537" stroke="#66737C" stroke-width="3.57143" stroke-linecap="round" stroke-linejoin="round" fill="none"/><path d="M6.965 29.6012 5.22375 31.3425" stroke="#66737C" stroke-width="3.57143" stroke-linecap="round" stroke-linejoin="round" fill="none"/><path d="M33.0838 22.6362 33.0838 47.0137" stroke="#66737C" stroke-width="3.57143" stroke-linecap="round" stroke-linejoin="round" fill="none"/><path d="M17.1641 33.0838 48.9175 33.0838" stroke="#66737C" stroke-width="3.57143" stroke-linecap="round" stroke-linejoin="round" fill="none"/></svg>