<svg width="60" height="60" viewBox="-1.875 -1.875 60 60" xmlns="http://www.w3.org/2000/svg" xmlns:xlink="http://www.w3.org/1999/xlink" id="Sailing-Boat-Water--Streamline-Ultimate" overflow="hidden"><g><path d="M40.4297 45.7969C42.5554 44.6433 44.2435 42.8235 45.2344 40.6172L47.3203 35.7656C47.6365 34.8341 47.1376 33.8226 46.206 33.5064 45.9616 33.4234 45.702 33.3946 45.4453 33.4219L10.8047 33.4219C9.82644 33.3179 8.94913 34.0266 8.84516 35.0049 8.81788 35.2616 8.84672 35.5212 8.92969 35.7656L11.0156 40.6172C12.0065 42.8235 13.6946 44.6433 15.8203 45.7969" stroke="#66737C" stroke-width="3.57143" stroke-linecap="round" stroke-linejoin="round" fill="none"/><path d="M29.8828 33.3984 29.8828 1.75781 14.0625 22.8516 29.8828 22.8516" stroke="#66737C" stroke-width="3.57143" stroke-linecap="round" stroke-linejoin="round" fill="none"/><path d="M10.5469 22.8516 14.0625 22.8516" stroke="#66737C" stroke-width="3.57143" stroke-linecap="round" stroke-linejoin="round" fill="none"/><path d="M1.75781 54.4922C5.62374 54.971 9.49923 53.6792 12.3047 50.9766 16.2547 55.3452 22.9982 55.6846 27.3669 51.7347 27.6321 51.4948 27.8852 51.2418 28.125 50.9766 32.075 55.3452 38.8185 55.6846 43.1872 51.7347 43.4525 51.4948 43.7055 51.2418 43.9453 50.9766 46.7508 53.6792 50.6263 54.971 54.4922 54.4922" stroke="#66737C" stroke-width="3.57143" stroke-linecap="round" stroke-linejoin="round" fill="none"/></g></svg>