<svg width="60" height="60" viewBox="-1.875 -1.875 60 60" xmlns="http://www.w3.org/2000/svg" xmlns:xlink="http://www.w3.org/1999/xlink" id="Smiley-Happy--Streamline-Ultimate" fill="none" overflow="hidden"><path d="M28.125 54.4922C42.6872 54.4922 54.4922 42.6872 54.4922 28.125 54.4922 13.5628 42.6872 1.75781 28.125 1.75781 13.5628 1.75781 1.75781 13.5628 1.75781 28.125 1.75781 42.6872 13.5628 54.4922 28.125 54.4922Z" stroke="#66737C" stroke-width="3.33333" stroke-linecap="round" stroke-linejoin="round"/><path d="M13.2047 33.3984C12.9235 33.3984 12.6464 33.4659 12.3967 33.5953 12.147 33.7245 11.9319 33.912 11.7696 34.1414 11.6073 34.3711 11.5024 34.6362 11.4637 34.9148 11.4251 35.1933 11.4539 35.4771 11.5476 35.7422 12.7574 39.1725 15.0016 42.143 17.9707 44.2441 20.9398 46.3453 24.4875 47.4738 28.125 47.4738 31.7623 47.4738 35.3102 46.3453 38.2793 44.2441 41.2484 42.143 43.4925 39.1725 44.7023 35.7422 44.7961 35.4771 44.8249 35.1933 44.7863 34.9148 44.7476 34.6362 44.6426 34.3711 44.4804 34.1414 44.318 33.912 44.103 33.7245 43.8532 33.5953 43.6036 33.4659 43.3266 33.3984 43.0453 33.3984L13.2047 33.3984Z" stroke="#66737C" stroke-width="3.33333" stroke-linecap="round" stroke-linejoin="round"/><path d="M17.5781 20.2148C17.0927 20.2148 16.6992 19.8214 16.6992 19.3359 16.6992 18.8505 17.0927 18.457 17.5781 18.457" stroke="#66737C" stroke-width="3.33333"/><path d="M17.5781 20.2148C18.0635 20.2148 18.457 19.8214 18.457 19.3359 18.457 18.8505 18.0635 18.457 17.5781 18.457" stroke="#66737C" stroke-width="3.33333"/><g><path d="M38.6719 20.2148C38.1865 20.2148 37.793 19.8214 37.793 19.3359 37.793 18.8505 38.1865 18.457 38.6719 18.457" stroke="#66737C" stroke-width="3.33333"/><path d="M38.6719 20.2148C39.1573 20.2148 39.5508 19.8214 39.5508 19.3359 39.5508 18.8505 39.1573 18.457 38.6719 18.457" stroke="#66737C" stroke-width="3.33333"/></g></svg>