<svg width="60" height="60" viewBox="-2.14 -2.14 60 60" xmlns="http://www.w3.org/2000/svg" xmlns:xlink="http://www.w3.org/1999/xlink" id="Soft-Drinks-Glass--Streamline-Ultimate.svg" fill="none" overflow="hidden"><path d="M45.6138 50.7865C45.5411 51.6564 45.1441 52.4673 44.5017 53.0587 43.8593 53.65 43.0184 53.9783 42.1452 53.9787L22.4343 53.9787C21.5589 53.9818 20.7144 53.6549 20.069 53.0633 19.4237 52.4718 19.0248 51.6589 18.9518 50.7865L15.9058 14.0739C15.8866 13.8338 15.9173 13.5923 15.9959 13.3646 16.0746 13.1369 16.1995 12.928 16.3628 12.7509 16.5262 12.5738 16.7244 12.4325 16.945 12.3357 17.1656 12.239 17.4038 12.1889 17.6447 12.1888L46.9441 12.1888C47.1849 12.1889 47.4231 12.2389 47.6434 12.3357 47.8637 12.4325 48.0617 12.574 48.2247 12.7511 48.3877 12.9283 48.5122 13.1373 48.5902 13.365 48.6684 13.5926 48.6984 13.834 48.6784 14.0739L45.6138 50.7865Z" stroke="#66737C" stroke-width="3.57143" stroke-linecap="round" stroke-linejoin="round"/><path d="M45.3491 3.4825C44.8683 3.4825 44.4785 3.09272 44.4785 2.61188 44.4785 2.13104 44.8683 1.74125 45.3491 1.74125" stroke="#66737C" stroke-width="3.57143"/><path d="M45.3491 3.4825C45.8299 3.4825 46.2197 3.09272 46.2197 2.61188 46.2197 2.13104 45.8299 1.74125 45.3491 1.74125" stroke="#66737C" stroke-width="3.57143"/><path d="M32.2897 6.965C31.8089 6.965 31.4191 6.57522 31.4191 6.09438 31.4191 5.61353 31.8089 5.22375 32.2897 5.22375" stroke="#66737C" stroke-width="3.57143"/><path d="M32.2897 6.965C32.7706 6.965 33.1604 6.57522 33.1604 6.09438 33.1604 5.61353 32.7706 5.22375 32.2897 5.22375" stroke="#66737C" stroke-width="3.57143"/><path d="M39.2547 29.6012C38.7739 29.6012 38.3841 29.2114 38.3841 28.7306 38.3841 28.2498 38.7739 27.86 39.2547 27.86" stroke="#66737C" stroke-width="3.57143"/><path d="M39.2547 29.6012C39.7356 29.6012 40.1254 29.2114 40.1254 28.7306 40.1254 28.2498 39.7356 27.86 39.2547 27.86" stroke="#66737C" stroke-width="3.57143"/><path d="M34.031 36.5662C33.5502 36.5662 33.1604 36.1764 33.1604 35.6956 33.1604 35.2148 33.5502 34.825 34.031 34.825" stroke="#66737C" stroke-width="3.57143"/><path d="M34.031 36.5662C34.5118 36.5662 34.9016 36.1764 34.9016 35.6956 34.9016 35.2148 34.5118 34.825 34.031 34.825" stroke="#66737C" stroke-width="3.57143"/><g><path d="M37.5135 45.2725C37.0327 45.2725 36.6429 44.8827 36.6429 44.4019 36.6429 43.9211 37.0327 43.5312 37.5135 43.5312" stroke="#66737C" stroke-width="3.57143"/><path d="M37.5135 45.2725C37.9943 45.2725 38.3841 44.8827 38.3841 44.4019 38.3841 43.9211 37.9943 43.5312 37.5135 43.5312" stroke="#66737C" stroke-width="3.57143"/></g><path d="M7.04152 1.74125 15.8174 2.8394C17.3058 3.02543 18.6944 3.68699 19.7765 4.72566 20.8587 5.76433 21.5767 7.12459 21.8236 8.6041L27.9366 45.2725" stroke="#66737C" stroke-width="3.57143" stroke-linecap="round" stroke-linejoin="round"/><path d="M16.6184 22.6362 47.961 22.6362" stroke="#66737C" stroke-width="3.57143" stroke-linecap="round" stroke-linejoin="round"/></svg>