<svg width="60" height="60" viewBox="-1.875 -1.875 60 60" xmlns="http://www.w3.org/2000/svg" xmlns:xlink="http://www.w3.org/1999/xlink" id="Material-Isolation--Streamline-Ultimate" overflow="hidden"><path d="M1.75781 45.7031C1.75781 50.5572 5.69281 54.4922 10.5469 54.4922 15.4009 54.4922 19.3359 50.5572 19.3359 45.7031 19.3359 40.8491 15.4009 36.9141 10.5469 36.9141 5.69281 36.9141 1.75781 40.8491 1.75781 45.7031Z" stroke="#66737C" stroke-width="3.33333" stroke-linecap="round" stroke-linejoin="round" fill="none"/><path d="M1.75781 45.7031 1.75781 10.5469C1.75781 5.69281 5.69281 1.75781 10.5469 1.75781 15.4009 1.75781 19.3359 5.69281 19.3359 10.5469L19.3359 45.7031" stroke="#66737C" stroke-width="3.33333" stroke-linecap="round" stroke-linejoin="round" fill="none"/><path d="M19.3359 12.3047 50.9766 12.3047C52.9182 12.3047 54.4922 13.8787 54.4922 15.8203L54.4922 50.9766C54.4922 52.9182 52.9182 54.4922 50.9766 54.4922L10.5469 54.4922" stroke="#66737C" stroke-width="3.33333" stroke-linecap="round" stroke-linejoin="round" fill="none"/><path d="M47.4609 19.3359 47.4609 22.8516" stroke="#66737C" stroke-width="3.33333" stroke-linecap="round" stroke-linejoin="round" fill="none"/><path d="M47.4609 29.8828 47.4609 33.3984" stroke="#66737C" stroke-width="3.33333" stroke-linecap="round" stroke-linejoin="round" fill="none"/><path d="M47.4609 40.4297 47.4609 43.9453" stroke="#66737C" stroke-width="3.33333" stroke-linecap="round" stroke-linejoin="round" fill="none"/><path d="M40.4297 22.8516 40.4297 26.3672" stroke="#66737C" stroke-width="3.33333" stroke-linecap="round" stroke-linejoin="round" fill="none"/><path d="M40.4297 33.3984 40.4297 36.9141" stroke="#66737C" stroke-width="3.33333" stroke-linecap="round" stroke-linejoin="round" fill="none"/><path d="M40.4297 43.9453 40.4297 47.4609" stroke="#66737C" stroke-width="3.33333" stroke-linecap="round" stroke-linejoin="round" fill="none"/><path d="M33.3984 19.3359 33.3984 22.8516" stroke="#66737C" stroke-width="3.33333" stroke-linecap="round" stroke-linejoin="round" fill="none"/><path d="M33.3984 29.8828 33.3984 33.3984" stroke="#66737C" stroke-width="3.33333" stroke-linecap="round" stroke-linejoin="round" fill="none"/><path d="M33.3984 40.4297 33.3984 43.9453" stroke="#66737C" stroke-width="3.33333" stroke-linecap="round" stroke-linejoin="round" fill="none"/><path d="M26.3672 22.8516 26.3672 26.3672" stroke="#66737C" stroke-width="3.33333" stroke-linecap="round" stroke-linejoin="round" fill="none"/><path d="M26.3672 33.3984 26.3672 36.9141" stroke="#66737C" stroke-width="3.33333" stroke-linecap="round" stroke-linejoin="round" fill="none"/><path d="M26.3672 43.9453 26.3672 47.4609" stroke="#66737C" stroke-width="3.33333" stroke-linecap="round" stroke-linejoin="round" fill="none"/><path d="M10.5469 44.8242C11.0323 44.8242 11.4258 45.2177 11.4258 45.7031 11.4258 46.1885 11.0323 46.582 10.5469 46.582 10.0615 46.582 9.66797 46.1885 9.66797 45.7031 9.66797 45.2177 10.0615 44.8242 10.5469 44.8242" stroke="#66737C" stroke-width="3.33333" stroke-linecap="round" stroke-linejoin="round" fill="none"/></svg>