<svg width="60" height="60" viewBox="-2.14 -2.14 60 60" xmlns="http://www.w3.org/2000/svg" xmlns:xlink="http://www.w3.org/1999/xlink" id="Steel-2--Streamline-Ultimate.svg" overflow="hidden"><defs></defs><path d="M4.85228 31.714 27.7416 31.714C27.7416 31.714 30.0633 31.714 30.0633 34.0356L30.0633 47.0137C30.0633 47.0137 30.0633 49.3354 27.7416 49.3354L4.85228 49.3354C4.85228 49.3354 2.53062 49.3354 2.53062 47.0137L2.53062 34.0356C2.53062 34.0356 2.53062 31.714 4.85228 31.714" stroke="#66737C" stroke-width="3.57143" stroke-linecap="round" stroke-linejoin="round" fill="none"/><path d="M11.0929 40.5247 21.4104 40.5247" stroke="#66737C" stroke-width="3.57143" stroke-linecap="round" stroke-linejoin="round" fill="none"/><path d="M24.2753 7.89367 3.74485 30.3837C2.96344 31.2395 2.53033 32.3567 2.53062 33.5156L2.53062 47.0137C2.53062 48.296 3.57006 49.3354 4.85228 49.3354L28.0156 49.3354C29.3202 49.3357 30.5647 48.7872 31.4447 47.824L51.9752 25.3363C52.7566 24.4805 53.1897 23.3633 53.1894 22.2044L53.1894 8.70625C53.1894 7.42403 52.1499 6.38458 50.8677 6.38458L27.7044 6.38458C26.4002 6.38369 25.1557 6.93137 24.2753 7.89367Z" stroke="#66737C" stroke-width="3.57143" stroke-linecap="round" stroke-linejoin="round" fill="none"/><path d="M29.4109 32.429 52.537 7.09966" stroke="#66737C" stroke-width="3.57143" stroke-linecap="round" stroke-linejoin="round" fill="none"/></svg>