<svg width="60" height="60" viewBox="-2.14 -2.14 60 60" xmlns="http://www.w3.org/2000/svg" xmlns:xlink="http://www.w3.org/1999/xlink" id="Time-Twentfour-Hours-2--Streamline-Ultimate.svg" overflow="hidden"><defs></defs><path d="M12.7692 24.3775 24.3752 24.3775 24.3775 10.4475" stroke="#66737C" stroke-width="3.57143" stroke-linecap="round" stroke-linejoin="round" fill="none"/><path d="M22.1278 47.4874C9.37867 46.2333 0.0600775 34.8814 1.31416 22.1323 2.56824 9.38316 13.9201 0.0645693 26.6692 1.31865 39.4184 2.57273 48.737 13.9246 47.4829 26.6737 47.3338 28.189 47.0359 29.6859 46.5935 31.1428" stroke="#66737C" stroke-width="3.57143" stroke-linecap="round" stroke-linejoin="round" fill="none"/><path d="M54.5592 54.5592 54.5592 35.9858C48.1481 35.9858 42.9508 41.1831 42.9508 47.5942L42.9508 49.9158 54.5592 49.9158" stroke="#66737C" stroke-width="3.57143" stroke-linecap="round" stroke-linejoin="round" fill="none"/><path d="M39.4683 54.5592 26.6992 54.5592 34.825 47.3875C37.1142 45.3677 38.8647 43.9538 38.1891 40.6292 37.5449 37.489 34.4771 35.4656 31.337 36.1098 28.6392 36.6632 26.7018 39.0361 26.6992 41.79" stroke="#66737C" stroke-width="3.57143" stroke-linecap="round" stroke-linejoin="round" fill="none"/></svg>