<svg width="60" height="60" viewBox="-2.14 -2.14 60 60" xmlns="http://www.w3.org/2000/svg" xmlns:xlink="http://www.w3.org/1999/xlink" id="Hourglass--Streamline-Ultimate.svg" overflow="hidden"><path d="M42.9508 12.7692C42.9508 21.1036 36.1944 27.86 27.86 27.86 19.5256 27.86 12.7692 21.1036 12.7692 12.7692L12.7692 1.16083 42.9508 1.16083Z" stroke="#66737C" stroke-width="3.57143" stroke-linecap="round" stroke-linejoin="round" fill="none"/><path d="M42.9508 42.9508C42.9508 34.6164 36.1944 27.86 27.86 27.86 19.5256 27.86 12.7692 34.6164 12.7692 42.9508L12.7692 54.5592 42.9508 54.5592Z" stroke="#66737C" stroke-width="3.57143" stroke-linecap="round" stroke-linejoin="round" fill="none"/><path d="M8.12583 1.16315 47.5942 1.16315" stroke="#66737C" stroke-width="3.57143" stroke-linecap="round" stroke-linejoin="round" fill="none"/><path d="M8.12583 54.5615 47.5942 54.5615" stroke="#66737C" stroke-width="3.57143" stroke-linecap="round" stroke-linejoin="round" fill="none"/><path d="M12.7692 45.2748 20.895 45.2748 27.86 38.3098 34.825 45.2748 42.9508 45.2748" stroke="#66737C" stroke-width="3.57143" stroke-linecap="round" stroke-linejoin="round" fill="none"/><path d="M16.0102 22.0582 39.7098 22.0582" stroke="#66737C" stroke-width="3.57143" stroke-linecap="round" stroke-linejoin="round" fill="none"/></svg>