<svg width="60" height="60" viewBox="-2.14 -2.14 60 60" xmlns="http://www.w3.org/2000/svg" xmlns:xlink="http://www.w3.org/1999/xlink" id="Family-Home-1--Streamline-Ultimate.svg" overflow="hidden"><path d="M53.9996 20.895 27.8809 1.74125 1.76215 20.895" stroke="#66737C" stroke-width="3.57143" stroke-linecap="round" stroke-linejoin="round" fill="none"/><path d="M6.9859 29.6012C6.9859 33.4479 10.1042 36.5662 13.9509 36.5662 17.7976 36.5662 20.9159 33.4479 20.9159 29.6012 20.9159 25.7546 17.7976 22.6362 13.9509 22.6362 10.1042 22.6362 6.9859 25.7546 6.9859 29.6012Z" stroke="#66737C" stroke-width="3.57143" stroke-linecap="round" stroke-linejoin="round" fill="none"/><path d="M17.4334 40.6431C11.9934 38.7198 6.02423 41.5706 4.1009 47.0106 3.7051 48.1301 3.50304 49.3089 3.5034 50.4963" stroke="#66737C" stroke-width="3.57143" stroke-linecap="round" stroke-linejoin="round" fill="none"/><path d="M52.2584 50.4963C52.2601 44.7263 47.584 40.0473 41.8141 40.0456 40.6267 40.0452 39.4479 40.2473 38.3284 40.6431" stroke="#66737C" stroke-width="3.57143" stroke-linecap="round" stroke-linejoin="round" fill="none"/><path d="M34.8459 29.6012C34.8459 33.4479 37.9642 36.5662 41.8109 36.5662 45.6576 36.5662 48.7759 33.4479 48.7759 29.6012 48.7759 25.7546 45.6576 22.6362 41.8109 22.6362 37.9642 22.6362 34.8459 25.7546 34.8459 29.6012Z" stroke="#66737C" stroke-width="3.57143" stroke-linecap="round" stroke-linejoin="round" fill="none"/><path d="M48.7759 29.6012C48.7759 29.6012 48.7759 38.3075 53.9996 38.3075" stroke="#66737C" stroke-width="3.57143" stroke-linecap="round" stroke-linejoin="round" fill="none"/><path d="M22.6571 41.79C22.6571 44.675 24.9959 47.0138 27.8809 47.0138 30.7659 47.0138 33.1046 44.675 33.1046 41.79 33.1046 38.905 30.7659 36.5662 27.8809 36.5662 24.9959 36.5662 22.6571 38.905 22.6571 41.79Z" stroke="#66737C" stroke-width="3.57143" stroke-linecap="round" stroke-linejoin="round" fill="none"/><path d="M36.9284 53.9787C34.0421 48.9826 27.652 47.2722 22.6558 50.1586 21.0695 51.075 19.7521 52.3925 18.8357 53.9787" stroke="#66737C" stroke-width="3.57143" stroke-linecap="round" stroke-linejoin="round" fill="none"/></svg>