<svg width="60" height="60" viewBox="-1.875 -1.875 60 60" xmlns="http://www.w3.org/2000/svg" xmlns:xlink="http://www.w3.org/1999/xlink" id="Red-Blood-Cell-Three--Streamline-Ultimate" fill="none" overflow="hidden"><path d="M16.2685 52.5717C25.3125 55.4421 33.836 54.0145 36.067 46.9854 38.298 39.9562 32.1581 33.8747 23.114 31.0041 14.07 28.1334 5.56725 29.4959 3.31554 36.5902 1.14548 43.4273 7.22445 49.7011 16.2685 52.5717Z" stroke="#66737C" stroke-width="3.33333" stroke-linecap="round" stroke-linejoin="round"/><path d="M44.9878 28.0542C38.5282 30.2205 32.3923 29.295 30.7085 24.2745 29.0248 19.2539 33.3621 14.8161 39.8217 12.6497 46.2813 10.4834 52.4016 11.3625 54.101 16.4295 55.7386 21.3128 51.4474 25.8879 44.9878 28.0542Z" stroke="#66737C" stroke-width="3.33333" stroke-linecap="round" stroke-linejoin="round"/><path d="M13.572 18.8688C20.0269 19.4008 25.4803 17.1522 25.8937 12.1354 26.3072 7.11855 21.2953 4.00763 14.8405 3.47569 8.38556 2.94377 2.93585 5.14582 2.51859 10.2091 2.11647 15.0888 7.11705 18.3369 13.572 18.8688Z" stroke="#66737C" stroke-width="3.33333" stroke-linecap="round" stroke-linejoin="round"/><path d="M11.7073 39.446C12.6803 41.3822 15.3664 43.3542 18.8448 44.4584 22.323 45.5623 25.6549 45.5004 27.5662 44.4797" stroke="#66737C" stroke-width="3.33333" stroke-linecap="round" stroke-linejoin="round"/><path d="M9.69314 10.9257C10.4431 11.8329 12.1046 12.5514 14.0802 12.7142 16.0559 12.877 17.8126 12.4403 18.7009 11.668" stroke="#66737C" stroke-width="3.33333" stroke-linecap="round" stroke-linejoin="round"/><path d="M46.954 18.9657C46.4161 20.081 44.8995 21.2327 42.9225 21.8957 40.9453 22.5588 39.0412 22.5543 37.9395 21.9888" stroke="#66737C" stroke-width="3.33333" stroke-linecap="round" stroke-linejoin="round"/></svg>