<svg width="60" height="60" viewBox="-2.14 -2.14 60 60" xmlns="http://www.w3.org/2000/svg" xmlns:xlink="http://www.w3.org/1999/xlink" id="Antenna-2--Streamline-Ultimate.svg" overflow="hidden"><path d="M31.3425 41.3233 31.3425 53.9787" stroke="#66737C" stroke-width="3.57143" stroke-linecap="round" stroke-linejoin="round" fill="none"/><path d="M24.3775 53.9787 24.3775 41.3233" stroke="#66737C" stroke-width="3.57143" stroke-linecap="round" stroke-linejoin="round" fill="none"/><path d="M22.6362 26.1187 33.0838 26.1187 33.0838 41.79 22.6362 41.79Z" stroke="#66737C" stroke-width="3.57143" stroke-linecap="round" stroke-linejoin="round" fill="none"/><path d="M27.86 26.1187 27.86 17.4125" stroke="#66737C" stroke-width="3.57143" stroke-linecap="round" stroke-linejoin="round" fill="none"/><path d="M22.6362 33.0838 13.8418 34.4814" stroke="#66737C" stroke-width="3.57143" stroke-linecap="round" stroke-linejoin="round" fill="none"/><path d="M20.895 15.6713C20.895 11.8246 24.0133 8.70625 27.86 8.70625 31.7067 8.70625 34.825 11.8246 34.825 15.6713" stroke="#66737C" stroke-width="3.57143" stroke-linecap="round" stroke-linejoin="round" fill="none"/><path d="M13.93 13.0988C13.93 6.8257 20.166 1.74125 27.86 1.74125 35.554 1.74125 41.79 6.8257 41.79 13.0988" stroke="#66737C" stroke-width="3.57143" stroke-linecap="round" stroke-linejoin="round" fill="none"/><path d="M11.6524 42.7535 13.4239 42.4401C14.4036 42.2659 15.1071 41.6252 14.998 41.0076L12.8156 28.7028C12.7065 28.0852 11.8242 27.7253 10.8445 27.8995L9.07307 28.2129C5.69153 32.4977 6.42376 38.7125 10.7086 42.094 11.0101 42.332 11.3253 42.5522 11.6524 42.7535Z" stroke="#66737C" stroke-width="3.57143" stroke-linecap="round" stroke-linejoin="round" fill="none"/><path d="M33.0838 33.0838 41.8805 34.4814" stroke="#66737C" stroke-width="3.57143" stroke-linecap="round" stroke-linejoin="round" fill="none"/><path d="M44.0676 42.7535 42.2961 42.4401C41.3164 42.2659 40.6129 41.6252 40.722 41.0076L42.9044 28.7028C43.0135 28.0852 43.8958 27.7253 44.8755 27.8995L46.6469 28.2129C50.0285 32.4977 49.2962 38.7125 45.0114 42.094 44.7099 42.332 44.3947 42.5522 44.0676 42.7535Z" stroke="#66737C" stroke-width="3.57143" stroke-linecap="round" stroke-linejoin="round" fill="none"/></svg>