<svg width="60" height="60" viewBox="-2.14 -2.14 60 60" xmlns="http://www.w3.org/2000/svg" xmlns:xlink="http://www.w3.org/1999/xlink" id="Antenna--Streamline-Ultimate.svg" overflow="hidden"><defs></defs><path d="M26.1559 35.359C21.3476 35.359 17.4496 31.4611 17.4496 26.6527 17.4496 21.8444 21.3476 17.9465 26.1559 17.9465 30.9642 17.9465 34.8621 21.8444 34.8621 26.6527Z" stroke="#66737C" stroke-width="3.57143" stroke-linecap="round" stroke-linejoin="round" fill="none"/><path d="M34.7751 7.70492 39.7001 2.77992C39.7001 2.77992 42.1626 0.31742 44.6251 2.77992L49.5501 7.70492C49.5501 7.70492 52.0126 10.1674 49.5501 12.6299L44.6251 17.5549C44.6251 17.5549 42.1626 20.0174 39.7001 17.5549L34.7751 12.6299C34.7751 12.6299 32.3126 10.1674 34.7751 7.70492" stroke="#66737C" stroke-width="3.57143" stroke-linecap="round" stroke-linejoin="round" fill="none"/><path d="M2.76084 40.1972 7.68584 35.2722C7.68584 35.2722 10.1483 32.8097 12.6108 35.2722L17.5358 40.1972C17.5358 40.1972 19.9983 42.6597 17.5358 45.1222L12.6108 50.0472C12.6108 50.0472 10.1483 52.5097 7.68584 50.0472L2.76084 45.1222C2.76084 45.1222 0.298341 42.6597 2.76084 40.1972" stroke="#66737C" stroke-width="3.57143" stroke-linecap="round" stroke-linejoin="round" fill="none"/><path d="M16.3051 16.8019 19.9988 20.4957" stroke="#66737C" stroke-width="3.57143" stroke-linecap="round" stroke-linejoin="round" fill="none"/><path d="M39.3964 31.9531C38.1673 35.4105 35.45 38.1329 31.9949 39.3685" stroke="#66737C" stroke-width="3.57143" stroke-linecap="round" stroke-linejoin="round" fill="none"/><path d="M46.7816 31.1405C45.4 39.1264 39.1452 45.3803 31.1591 46.7607" stroke="#66737C" stroke-width="3.57143" stroke-linecap="round" stroke-linejoin="round" fill="none"/><path d="M53.9787 29.4016C53.1997 42.7851 42.4147 53.4056 29.0208 53.9787" stroke="#66737C" stroke-width="3.57143" stroke-linecap="round" stroke-linejoin="round" fill="none"/></svg>