<svg width="60" height="60" viewBox="-2.14 -2.14 60 60" xmlns="http://www.w3.org/2000/svg" xmlns:xlink="http://www.w3.org/1999/xlink" id="Wifi-Signal-4--Streamline-Ultimate.svg" overflow="hidden"><path d="M17.4125 53.9741 27.86 26.1141 27.86 19.1491 27.86 26.1141 38.3075 53.9741" stroke="#66737C" stroke-width="3.57143" stroke-linecap="round" stroke-linejoin="round" fill="none"/><path d="M41.1539 1.73428C50.7705 8.11325 53.3952 21.0803 47.0162 30.6969 45.4733 33.023 43.4799 35.0163 41.1539 36.5593" stroke="#66737C" stroke-width="3.57143" stroke-linecap="round" stroke-linejoin="round" fill="none"/><path d="M38.3075 10.6216C42.9498 15.3598 42.9498 22.9408 38.3075 27.6789" stroke="#66737C" stroke-width="3.57143" stroke-linecap="round" stroke-linejoin="round" fill="none"/><path d="M14.5685 1.73428C4.9518 8.11325 2.32714 21.0803 8.7061 30.6969 10.249 33.023 12.2424 35.0163 14.5685 36.5593" stroke="#66737C" stroke-width="3.57143" stroke-linecap="round" stroke-linejoin="round" fill="none"/><path d="M17.4125 10.6216C12.7726 15.3608 12.7726 22.9397 17.4125 27.6789" stroke="#66737C" stroke-width="3.57143" stroke-linecap="round" stroke-linejoin="round" fill="none"/><path d="M20.0244 47.0091 35.6956 47.0091" stroke="#66737C" stroke-width="3.57143" stroke-linecap="round" stroke-linejoin="round" fill="none"/></svg>