<svg width="60" height="60" viewBox="-1.875 -1.875 60 60" xmlns="http://www.w3.org/2000/svg" xmlns:xlink="http://www.w3.org/1999/xlink" id="Data-File-Bars-Info--Streamline-Ultimate" fill="none" overflow="hidden"><path d="M40.4297 54.4922C48.1962 54.4922 54.4922 48.1962 54.4922 40.4297 54.4922 32.6632 48.1962 26.3672 40.4297 26.3672 32.6632 26.3672 26.3672 32.6632 26.3672 40.4297 26.3672 48.1962 32.6632 54.4922 40.4297 54.4922Z" stroke="#66737C" stroke-width="3.33333" stroke-linecap="round" stroke-linejoin="round"/><path d="M40.4297 47.4609 40.4297 40.4297" stroke="#66737C" stroke-width="3.33333" stroke-linecap="round" stroke-linejoin="round"/><path d="M40.4297 35.2992C39.9443 35.2992 39.5508 34.9057 39.5508 34.4203 39.5508 33.9349 39.9443 33.5414 40.4297 33.5414" stroke="#66737C" stroke-width="3.33333"/><path d="M40.4297 35.2992C40.9151 35.2992 41.3086 34.9057 41.3086 34.4203 41.3086 33.9349 40.9151 33.5414 40.4297 33.5414" stroke="#66737C" stroke-width="3.33333"/><path d="M8.78906 33.3984 19.3359 33.3984" stroke="#66737C" stroke-width="3.33333" stroke-linecap="round" stroke-linejoin="round"/><path d="M19.3359 33.3984 19.3359 15.8203" stroke="#66737C" stroke-width="3.33333" stroke-linecap="round" stroke-linejoin="round"/><path d="M26.3672 22.8516 26.3672 19.3359" stroke="#66737C" stroke-width="3.33333" stroke-linecap="round" stroke-linejoin="round"/><path d="M12.3047 33.3984 12.3047 22.8516" stroke="#66737C" stroke-width="3.33333" stroke-linecap="round" stroke-linejoin="round"/><path d="M17.5781 47.4609 5.27344 47.4609C4.34105 47.4609 3.44681 47.0906 2.78752 46.4313 2.12821 45.772 1.75781 44.8777 1.75781 43.9453L1.75781 5.27344C1.75781 4.34105 2.12821 3.44681 2.78752 2.78752 3.44681 2.12821 4.34105 1.75781 5.27344 1.75781L30.1852 1.75781C31.1168 1.75801 32.0105 2.12808 32.6695 2.78672L39.4008 9.51797C40.0594 10.177 40.4295 11.0706 40.4297 12.0023L40.4297 17.5781" stroke="#66737C" stroke-width="3.33333" stroke-linecap="round" stroke-linejoin="round"/></svg>