<svg width="60" height="60" viewBox="-2.14 -2.14 60 60" xmlns="http://www.w3.org/2000/svg" xmlns:xlink="http://www.w3.org/1999/xlink" id="Trading-Website-Network--Streamline-Ultimate.svg" fill="none" overflow="hidden"><path d="M19.6181 49.1032C17.2964 43.7634 15.9034 36.1019 15.9034 27.7439 15.9034 17.0643 18.2251 7.54542 21.7076 2.43775" stroke="#66737C" stroke-width="3.57143" stroke-linecap="round" stroke-linejoin="round" stroke-miterlimit="10"/><path d="M1.74127 27.7439 53.7466 27.7439" stroke="#66737C" stroke-width="3.57143" stroke-linecap="round" stroke-linejoin="round" stroke-miterlimit="10"/><path d="M4.75944 15.6713 50.8046 15.6713" stroke="#66737C" stroke-width="3.57143" stroke-linecap="round" stroke-linejoin="round" stroke-miterlimit="10"/><path d="M4.75944 39.8166 27.2796 39.8166" stroke="#66737C" stroke-width="3.57143" stroke-linecap="round" stroke-linejoin="round" stroke-miterlimit="10"/><path d="M40.0488 32.3872C40.7392 19.7298 38.2358 8.44112 34.3479 2.5914" stroke="#66737C" stroke-width="3.57143" stroke-linecap="round" stroke-linejoin="round" stroke-miterlimit="10"/><path d="M15.2069 50.4963C7.08111 46.0851 1.74127 37.4949 1.74127 27.7439 1.74127 13.3496 13.3496 1.74125 27.7439 1.74125 42.1382 1.74125 53.7466 13.3496 53.7466 27.7439" stroke="#66737C" stroke-width="3.57143" stroke-linecap="round" stroke-linejoin="round" stroke-miterlimit="10"/><path d="M53.9787 36.7984 41.9061 48.8711 36.1019 43.0669 25.6544 53.9787" stroke="#66737C" stroke-width="3.57143" stroke-linecap="round" stroke-linejoin="round" stroke-miterlimit="10"/><path d="M46.5494 36.7984 53.9787 36.7984 53.9787 44.2277" stroke="#66737C" stroke-width="3.57143" stroke-linecap="round" stroke-linejoin="round" stroke-miterlimit="10"/></svg>