<svg width="60" height="60" viewBox="-3.075 -1.875 60 60" xmlns="http://www.w3.org/2000/svg" xmlns:xlink="http://www.w3.org/1999/xlink" id="Amazon-Web-Service-Format-Catalog--Streamline-Ultimate" fill="none" overflow="hidden"><path d="M37.125 31.273 27 36.898 16.875 31.273 16.875 20.473 27 14.848 37.125 20.473 37.125 31.273Z" stroke="#66737C" stroke-width="3.33333" stroke-linecap="round" stroke-linejoin="round" stroke-miterlimit="10"/><path d="M37.125 20.473 27 26.098 16.875 20.473" stroke="#66737C" stroke-width="3.33333" stroke-linecap="round" stroke-linejoin="round" stroke-miterlimit="10"/><path d="M27 26.098 27 36.898" stroke="#66737C" stroke-width="3.33333" stroke-linecap="round" stroke-linejoin="round" stroke-miterlimit="10"/><path d="M9.70312 10.749C13.8544 5.84705 20.0812 2.8125 27 2.8125 33.9188 2.8125 40.1456 5.84705 44.2969 10.749" stroke="#66737C" stroke-width="3.33333" stroke-linecap="round" stroke-linejoin="round" stroke-miterlimit="10"/><path d="M31.5702 48.375C42.1555 46.3039 50.0114 36.8701 50.0114 25.8246 50.0114 23.373 49.5797 20.9215 48.9254 18.679" stroke="#66737C" stroke-width="3.33333" stroke-linecap="round" stroke-linejoin="round" stroke-miterlimit="10"/><path d="M22.4121 48.3926C11.8269 46.3217 3.98873 36.8696 3.98873 25.8242 3.98873 23.5231 4.44895 21.222 4.90918 18.9209L4.97515 18.6295" stroke="#66737C" stroke-width="3.33333" stroke-linecap="round" stroke-linejoin="round" stroke-miterlimit="10"/><path d="M27 53.4377C29.5418 53.4377 31.6024 51.3772 31.6024 48.8354 31.6024 46.2938 29.5418 44.2332 27 44.2332 24.4584 44.2332 22.3978 46.2938 22.3978 48.8354 22.3978 51.3772 24.4584 53.4377 27 53.4377Z" stroke="#66737C" stroke-width="3.33333" stroke-linecap="round" stroke-linejoin="round" stroke-miterlimit="10"/><path d="M46.9049 19.1455C49.4467 19.1455 51.5072 17.085 51.5072 14.5433 51.5072 12.0015 49.4467 9.94097 46.9049 9.94097 44.363 9.94097 42.3025 12.0015 42.3025 14.5433 42.3025 17.085 44.363 19.1455 46.9049 19.1455Z" stroke="#66737C" stroke-width="3.33333" stroke-linecap="round" stroke-linejoin="round" stroke-miterlimit="10"/><path d="M7.09535 19.1455C9.63711 19.1455 11.6976 17.085 11.6976 14.5433 11.6976 12.0015 9.63711 9.94097 7.09535 9.94097 4.55357 9.94097 2.49307 12.0015 2.49307 14.5433 2.49307 17.085 4.55357 19.1455 7.09535 19.1455Z" stroke="#66737C" stroke-width="3.33333" stroke-linecap="round" stroke-linejoin="round" stroke-miterlimit="10"/></svg>