<svg width="60" height="60" viewBox="-1.875 -1.875 60 60" xmlns="http://www.w3.org/2000/svg" xmlns:xlink="http://www.w3.org/1999/xlink" id="Database-Bug--Streamline-Ultimate" overflow="hidden"><path d="M28.125 22.8539C13.5633 22.8539 1.75781 18.1313 1.75781 12.307 1.75781 6.48281 13.5633 1.76016 28.125 1.76016 42.6867 1.76016 54.4922 6.48047 54.4922 12.307 54.4922 15.4242 51.1102 18.2273 45.7313 20.1562" stroke="#66737C" stroke-width="3.33333" stroke-linecap="round" stroke-linejoin="round" fill="none"/><path d="M54.4922 19.4086 54.4922 12.307" stroke="#66737C" stroke-width="3.33333" stroke-linecap="round" stroke-linejoin="round" fill="none"/><path d="M1.75781 12.307 1.75781 26.3695C1.75781 30.9469 9.05156 34.8445 19.2445 36.3023" stroke="#66737C" stroke-width="3.33333" stroke-linecap="round" stroke-linejoin="round" fill="none"/><path d="M1.75781 26.3695 1.75781 40.432C1.75781 45.532 10.8117 49.7883 22.8516 50.7656" stroke="#66737C" stroke-width="3.33333" stroke-linecap="round" stroke-linejoin="round" fill="none"/><path d="M49.2188 46.7977C49.395 50.862 46.2511 54.3034 42.1875 54.4945 38.1239 54.3034 34.98 50.862 35.1562 46.7977L35.1562 38.7516C34.9801 34.6877 38.1242 31.2469 42.1875 31.057 46.2508 31.2469 49.3949 34.6877 49.2188 38.7516Z" stroke="#66737C" stroke-width="3.33333" stroke-linecap="round" stroke-linejoin="round" fill="none"/><path d="M48.3609 35.0672 54.4922 30.4711" stroke="#66737C" stroke-width="3.33333" stroke-linecap="round" stroke-linejoin="round" fill="none"/><path d="M48.6094 49.9359 54.4922 54.4945" stroke="#66737C" stroke-width="3.33333" stroke-linecap="round" stroke-linejoin="round" fill="none"/><path d="M49.2188 43.3617 54.4922 43.3617" stroke="#66737C" stroke-width="3.33333" stroke-linecap="round" stroke-linejoin="round" fill="none"/><path d="M36.0141 35.0672 29.8828 30.4711" stroke="#66737C" stroke-width="3.33333" stroke-linecap="round" stroke-linejoin="round" fill="none"/><path d="M35.7656 49.9359 29.8828 54.4945" stroke="#66737C" stroke-width="3.33333" stroke-linecap="round" stroke-linejoin="round" fill="none"/><path d="M35.1562 43.3617 29.8828 43.3617" stroke="#66737C" stroke-width="3.33333" stroke-linecap="round" stroke-linejoin="round" fill="none"/><path d="M35.1562 39.8461 49.2188 39.8461" stroke="#66737C" stroke-width="3.33333" stroke-linecap="round" stroke-linejoin="round" fill="none"/></svg>