<svg width="60" height="60" viewBox="-1.875 -1.875 60 60" xmlns="http://www.w3.org/2000/svg" xmlns:xlink="http://www.w3.org/1999/xlink" id="Surveillance-Location--Streamline-Ultimate" overflow="hidden"><path d="M8.78906 28.125C8.78906 38.8039 17.4461 47.4609 28.125 47.4609 38.8039 47.4609 47.4609 38.8039 47.4609 28.125 47.4609 17.4461 38.8039 8.78906 28.125 8.78906 17.4461 8.78906 8.78906 17.4461 8.78906 28.125Z" stroke="#66737C" stroke-width="3.33333" stroke-linecap="round" stroke-linejoin="round" fill="none"/><path d="M28.125 8.78906 28.125 1.75781" stroke="#66737C" stroke-width="3.33333" stroke-linecap="round" stroke-linejoin="round" fill="none"/><path d="M8.78906 28.125 1.75781 28.125" stroke="#66737C" stroke-width="3.33333" stroke-linecap="round" stroke-linejoin="round" fill="none"/><path d="M28.125 47.4609 28.125 54.4922" stroke="#66737C" stroke-width="3.33333" stroke-linecap="round" stroke-linejoin="round" fill="none"/><path d="M47.4609 28.125 54.4922 28.125" stroke="#66737C" stroke-width="3.33333" stroke-linecap="round" stroke-linejoin="round" fill="none"/><path d="M33.3984 21.0938C37.2817 24.0062 38.0687 29.5152 35.1562 33.3984 32.2438 37.2817 26.7348 38.0687 22.8516 35.1562 22.1853 34.6566 21.5934 34.0647 21.0938 33.3984" stroke="#66737C" stroke-width="3.33333" stroke-linecap="round" stroke-linejoin="round" fill="none"/><path d="M11.0977 18.9562 28.125 28.125 20.5078 10.3477" stroke="#66737C" stroke-width="3.33333" stroke-linecap="round" stroke-linejoin="round" fill="none"/></svg>