<svg width="60" height="60" viewBox="-1.875 -1.875 60 60" xmlns="http://www.w3.org/2000/svg" xmlns:xlink="http://www.w3.org/1999/xlink" id="Monetization-Idea--Streamline-Ultimate" overflow="hidden"><style>
.MsftOfcResponsive_Stroke_66737c {
 stroke:#66737C; 
}
</style>
<path d="M43.9453 33.3984 39.1805 33.3984C37.4434 33.3997 36.0361 34.8088 36.0374 36.5459 36.0382 37.8289 36.8183 38.9828 38.0086 39.4617L42.8461 41.3953C44.4589 42.0405 45.2434 43.871 44.5982 45.4839 44.12 46.6792 42.9616 47.4624 41.6742 47.4609L36.9141 47.4609" class="MsftOfcResponsive_Stroke_66737c" stroke="#66737C" stroke-width="3.33333" stroke-linecap="round" stroke-linejoin="round" fill="none"/><path d="M40.4297 33.3984 40.4297 31.6406" class="MsftOfcResponsive_Stroke_66737c" stroke="#66737C" stroke-width="3.33333" stroke-linecap="round" stroke-linejoin="round" fill="none"/><path d="M40.4297 49.2188 40.4297 47.4609" class="MsftOfcResponsive_Stroke_66737c" stroke="#66737C" stroke-width="3.33333" stroke-linecap="round" stroke-linejoin="round" fill="none"/><path d="M26.3672 40.4297C26.3672 48.1962 32.6632 54.4922 40.4297 54.4922 48.1962 54.4922 54.4922 48.1962 54.4922 40.4297 54.4922 32.6632 48.1962 26.3672 40.4297 26.3672 32.6632 26.3672 26.3672 32.6632 26.3672 40.4297Z" class="MsftOfcResponsive_Stroke_66737c" stroke="#66737C" stroke-width="3.33333" stroke-linecap="round" stroke-linejoin="round" fill="none"/><path d="M10.5469 54.4922 19.3359 49.2188 14.0625 40.4297" class="MsftOfcResponsive_Stroke_66737c" stroke="#66737C" stroke-width="3.33333" stroke-linecap="round" stroke-linejoin="round" fill="none"/><path d="M2.10938 37.0547C4.54775 43.7409 11.1496 47.9769 18.2437 47.407" class="MsftOfcResponsive_Stroke_66737c" stroke="#66737C" stroke-width="3.33333" stroke-linecap="round" stroke-linejoin="round" fill="none"/><path d="M45.7031 1.75781 36.9141 7.03125 42.1875 15.8203" class="MsftOfcResponsive_Stroke_66737c" stroke="#66737C" stroke-width="3.33333" stroke-linecap="round" stroke-linejoin="round" fill="none"/><path d="M54.1406 19.193C51.7023 12.5067 45.1004 8.27075 38.0062 8.84062" class="MsftOfcResponsive_Stroke_66737c" stroke="#66737C" stroke-width="3.33333" stroke-linecap="round" stroke-linejoin="round" fill="none"/><path d="M26.3672 10.5469C26.3723 5.69281 22.4414 1.75369 17.5873 1.7486 12.7333 1.74352 8.79416 5.67439 8.78907 10.5284 8.78541 14.0265 10.8565 17.1937 14.0625 18.593L14.0625 22.8516 21.0938 22.8516 21.0938 18.593C24.2953 17.1984 26.366 14.039 26.3672 10.5469Z" class="MsftOfcResponsive_Stroke_66737c" stroke="#66737C" stroke-width="3.33333" stroke-linecap="round" stroke-linejoin="round" fill="none"/><path d="M14.0625 28.125 21.0938 28.125" class="MsftOfcResponsive_Stroke_66737c" stroke="#66737C" stroke-width="3.33333" stroke-linecap="round" stroke-linejoin="round" fill="none"/></svg>