<svg width="60" height="60" viewBox="-2.14 -2.14 60 60" xmlns="http://www.w3.org/2000/svg" xmlns:xlink="http://www.w3.org/1999/xlink" id="3-D-Pen-Box--Streamline-Ultimate.svg" overflow="hidden"><path d="M36.2435 21.4011C35.3369 22.3075 33.8673 22.3075 32.9607 21.4011L29.6755 18.109C28.7684 17.2028 28.7676 15.7328 29.6737 14.8257 29.6743 14.8251 29.6749 14.8244 29.6755 14.8238L41.9804 2.51901C43.7619 0.674435 46.7015 0.623344 48.5461 2.40489 50.3906 4.18644 50.4417 7.12599 48.6602 8.97056 48.6228 9.00926 48.5847 9.04731 48.5461 9.08468Z" stroke="#66737C" stroke-width="3.57143" stroke-linecap="round" stroke-linejoin="round" fill="none"/><path d="M31.3193 23.0425C30.4128 23.9497 28.9425 23.9502 28.0353 23.0437 27.1281 22.1372 27.1276 20.6669 28.0341 19.7597L29.6755 18.1183 32.9677 21.4011Z" stroke="#66737C" stroke-width="3.57143" stroke-linecap="round" stroke-linejoin="round" fill="none"/><path d="M28.0341 23.0425 24.7513 26.3254" stroke="#66737C" stroke-width="3.57143" stroke-linecap="round" stroke-linejoin="round" fill="none"/><path d="M49.9158 5.80417C51.1981 5.80417 52.2375 6.84361 52.2375 8.12583L52.2375 26.6992C52.2375 27.9814 53.2769 29.0208 54.5592 29.0208" stroke="#66737C" stroke-width="3.57143" stroke-linecap="round" stroke-linejoin="round" fill="none"/><path d="M1.16083 26.6992 1.16083 45.2725 17.4125 54.5592 33.6642 45.2725 33.6642 26.6992" stroke="#66737C" stroke-width="3.57143" stroke-linecap="round" stroke-linejoin="round" fill="none"/><path d="M17.4125 35.9858 17.4125 54.5592" stroke="#66737C" stroke-width="3.57143" stroke-linecap="round" stroke-linejoin="round" fill="none"/><path d="M22.5829 20.368 17.4125 17.4125 1.16083 26.6992 17.4125 35.9858 33.6642 26.6992" stroke="#66737C" stroke-width="3.57143" stroke-linecap="round" stroke-linejoin="round" fill="none"/></svg>