<svg width="60" height="60" viewBox="-2.14 -2.14 60 60" xmlns="http://www.w3.org/2000/svg" xmlns:xlink="http://www.w3.org/1999/xlink" id="3d-Video-Playback--Streamline-Ultimate.svg" fill="none" overflow="hidden"><path d="M9.26895 15.2829C5.07788 14.0149 2.5158 12.3174 2.5158 10.452 2.5158 6.52648 13.8628 3.3442 27.86 3.3442 41.8573 3.3442 53.2042 6.52648 53.2042 10.452 53.2042 12.3174 50.6421 14.0149 46.451 15.2829" stroke="#66737C" stroke-width="3.57143" stroke-linecap="round"/><path d="M2.5158 45.2679C2.5158 49.1936 13.8628 52.3759 27.86 52.3759 41.8573 52.3759 53.2042 49.1936 53.2042 45.2679" stroke="#66737C" stroke-width="3.57143" stroke-linecap="round"/><path d="M53.2042 45.2618 53.2042 10.5606M2.5158 45.2618 2.5158 10.5229" stroke="#66737C" stroke-width="3.57143" stroke-linecap="round"/><path d="M53.2042 10.4426C53.2042 12.575 49.8562 14.488 44.5537 15.7908M2.5158 10.4426C2.5158 12.575 5.8639 14.488 11.1662 15.7908" stroke="#66737C" stroke-width="3.57143" stroke-linecap="round"/><path d="M53.2042 25.7577C53.2042 27.8899 49.8562 29.803 44.5537 31.1059M2.5158 25.7577C2.5158 27.8899 5.8639 29.803 11.1662 31.1059" stroke="#66737C" stroke-width="3.57143" stroke-linecap="round"/><path d="M17.9449 4.15843 17.9449 10.5228" stroke="#66737C" stroke-width="3.57143" stroke-linecap="round"/><path d="M37.7751 4.15843 37.7751 10.5228" stroke="#66737C" stroke-width="3.57143" stroke-linecap="round"/><path d="M11.1254 15.7908 11.1254 50.0867" stroke="#66737C" stroke-width="3.57143" stroke-linecap="round"/><path d="M44.5946 15.7908 44.5946 50.0867" stroke="#66737C" stroke-width="3.57143" stroke-linecap="round"/><path d="M20.3462 39.1224 20.3462 23.1713C20.3475 22.9044 20.4195 22.6426 20.5546 22.4125 20.6898 22.1824 20.8834 21.9921 21.1158 21.8609 21.3482 21.7297 21.6112 21.6622 21.8781 21.6654 22.1449 21.6686 22.4062 21.7423 22.6354 21.879L36.2974 29.8176C36.5275 29.9504 36.7183 30.1415 36.8511 30.3718 36.9839 30.6019 37.0538 30.8628 37.0538 31.1284 37.0538 31.394 36.9839 31.655 36.8511 31.8851 36.7183 32.1152 36.5275 32.3062 36.2974 32.4393L22.6354 40.4149C22.4062 40.5514 22.1449 40.6252 21.8781 40.6282 21.6112 40.6315 21.3482 40.5642 21.1158 40.433 20.8834 40.3016 20.6898 40.1114 20.5546 39.8814 20.4195 39.651 20.3475 39.3894 20.3462 39.1224L20.3462 39.1224Z" stroke="#66737C" stroke-width="3.57143" stroke-linecap="round" stroke-linejoin="round"/></svg>