<svg width="60" height="60" viewBox="-1.875 -1.875 60 60" xmlns="http://www.w3.org/2000/svg" xmlns:xlink="http://www.w3.org/1999/xlink" id="Accounting-Coins-Stack-1--Streamline-Ultimate" overflow="hidden"><style>
.MsftOfcResponsive_Stroke_66737c {
 stroke:#66737C; 
}
</style>
<defs></defs><path d="M17.5781 43.9453 42.1875 43.9453C42.1875 43.9453 43.9453 43.9453 43.9453 45.7031L43.9453 52.7344C43.9453 52.7344 43.9453 54.4922 42.1875 54.4922L17.5781 54.4922C17.5781 54.4922 15.8203 54.4922 15.8203 52.7344L15.8203 45.7031C15.8203 45.7031 15.8203 43.9453 17.5781 43.9453" class="MsftOfcResponsive_Stroke_66737c" stroke="#66737C" stroke-width="3.33333" stroke-linecap="round" stroke-linejoin="round" fill="none"/><path d="M21.0938 33.3984 45.7031 33.3984C45.7031 33.3984 47.4609 33.3984 47.4609 35.1562L47.4609 42.1875C47.4609 42.1875 47.4609 43.9453 45.7031 43.9453L21.0938 43.9453C21.0938 43.9453 19.3359 43.9453 19.3359 42.1875L19.3359 35.1562C19.3359 35.1562 19.3359 33.3984 21.0938 33.3984" class="MsftOfcResponsive_Stroke_66737c" stroke="#66737C" stroke-width="3.33333" stroke-linecap="round" stroke-linejoin="round" fill="none"/><path d="M10.5469 22.8516 35.1562 22.8516C35.1562 22.8516 36.9141 22.8516 36.9141 24.6094L36.9141 31.6406C36.9141 31.6406 36.9141 33.3984 35.1562 33.3984L10.5469 33.3984C10.5469 33.3984 8.78906 33.3984 8.78906 31.6406L8.78906 24.6094C8.78906 24.6094 8.78906 22.8516 10.5469 22.8516" class="MsftOfcResponsive_Stroke_66737c" stroke="#66737C" stroke-width="3.33333" stroke-linecap="round" stroke-linejoin="round" fill="none"/><path d="M14.0625 12.3047 38.6719 12.3047C38.6719 12.3047 40.4297 12.3047 40.4297 14.0625L40.4297 21.0938C40.4297 21.0938 40.4297 22.8516 38.6719 22.8516L14.0625 22.8516C14.0625 22.8516 12.3047 22.8516 12.3047 21.0938L12.3047 14.0625C12.3047 14.0625 12.3047 12.3047 14.0625 12.3047" class="MsftOfcResponsive_Stroke_66737c" stroke="#66737C" stroke-width="3.33333" stroke-linecap="round" stroke-linejoin="round" fill="none"/><path d="M50.9766 17.5781 50.9766 24.6094" class="MsftOfcResponsive_Stroke_66737c" stroke="#66737C" stroke-width="3.33333" stroke-linecap="round" stroke-linejoin="round" fill="none"/><path d="M47.4609 21.0938 54.4922 21.0938" class="MsftOfcResponsive_Stroke_66737c" stroke="#66737C" stroke-width="3.33333" stroke-linecap="round" stroke-linejoin="round" fill="none"/><path d="M5.27344 1.75781 5.27344 8.78906" class="MsftOfcResponsive_Stroke_66737c" stroke="#66737C" stroke-width="3.33333" stroke-linecap="round" stroke-linejoin="round" fill="none"/><path d="M1.75781 5.27344 8.78906 5.27344" class="MsftOfcResponsive_Stroke_66737c" stroke="#66737C" stroke-width="3.33333" stroke-linecap="round" stroke-linejoin="round" fill="none"/></svg>