<svg width="60" height="60" viewBox="-2.14 -2.14 60 60" xmlns="http://www.w3.org/2000/svg" xmlns:xlink="http://www.w3.org/1999/xlink" id="Accounting-Invoice--Streamline-Ultimate.svg" overflow="hidden"><defs></defs><path d="M16.261 29.0208 39.4776 29.0208C39.4776 29.0208 40.6385 29.0208 40.6385 30.1817L40.6385 46.4333C40.6385 46.4333 40.6385 47.5942 39.4776 47.5942L16.261 47.5942C16.261 47.5942 15.1001 47.5942 15.1001 46.4333L15.1001 30.1817C15.1001 30.1817 15.1001 29.0208 16.261 29.0208" stroke="#66737C" stroke-width="3.57143" stroke-linecap="round" stroke-linejoin="round" fill="none"/><path d="M15.1001 33.6642 40.6385 33.6642" stroke="#66737C" stroke-width="3.57143" stroke-linecap="round" stroke-linejoin="round" fill="none"/><path d="M22.0651 29.0208 22.0651 47.5942" stroke="#66737C" stroke-width="3.57143" stroke-linecap="round" stroke-linejoin="round" fill="none"/><path d="M29.0301 29.0208 29.0301 47.5942" stroke="#66737C" stroke-width="3.57143" stroke-linecap="round" stroke-linejoin="round" fill="none"/><path d="M47.5942 52.2375C47.5942 53.5197 46.5547 54.5592 45.2725 54.5592L10.4475 54.5592C9.16528 54.5592 8.12583 53.5197 8.12583 52.2375L8.12583 3.4825C8.12583 2.20028 9.16528 1.16083 10.4475 1.16083L31.3425 1.16083 47.5942 17.4125Z" stroke="#66737C" stroke-width="3.57143" stroke-linecap="round" stroke-linejoin="round" fill="none"/><path d="M31.3425 1.16083 31.3425 15.0908C31.3425 16.3731 32.3819 17.4125 33.6642 17.4125L47.5942 17.4125" stroke="#66737C" stroke-width="3.57143" stroke-linecap="round" stroke-linejoin="round" fill="none"/><path d="M19.7435 19.7342 19.7435 22.0558" stroke="#66737C" stroke-width="3.57143" stroke-linecap="round" stroke-linejoin="round" fill="none"/><path d="M19.7435 8.12583 19.7435 10.4475" stroke="#66737C" stroke-width="3.57143" stroke-linecap="round" stroke-linejoin="round" fill="none"/><path d="M15.0908 19.7342 22.0558 19.7342C23.3381 19.7342 24.3775 18.6947 24.3775 17.4125 24.3775 16.1303 23.3381 15.0908 22.0558 15.0908L17.4125 15.0908C16.1303 15.0908 15.0908 14.0514 15.0908 12.7692 15.0908 11.4869 16.1303 10.4475 17.4125 10.4475L24.3775 10.4475" stroke="#66737C" stroke-width="3.57143" stroke-linecap="round" stroke-linejoin="round" fill="none"/></svg>