<svg width="60" height="60" viewBox="-2.14 -2.14 60 60" xmlns="http://www.w3.org/2000/svg" xmlns:xlink="http://www.w3.org/1999/xlink" id="Add-Bold--Streamline-Ultimate.svg" overflow="hidden"><path d="M54.5592 22.0558C54.5592 20.7736 53.5197 19.7342 52.2375 19.7342L35.9858 19.7342 35.9858 3.4825C35.9858 2.20028 34.9464 1.16083 33.6642 1.16083L22.0558 1.16083C20.7736 1.16083 19.7342 2.20028 19.7342 3.4825L19.7342 19.7342 3.4825 19.7342C2.20028 19.7342 1.16083 20.7736 1.16083 22.0558L1.16083 33.6642C1.16083 34.9464 2.20028 35.9858 3.4825 35.9858L19.7342 35.9858 19.7342 52.2375C19.7342 53.5197 20.7736 54.5592 22.0558 54.5592L33.6642 54.5592C34.9464 54.5592 35.9858 53.5197 35.9858 52.2375L35.9858 35.9858 52.2375 35.9858C53.5197 35.9858 54.5592 34.9464 54.5592 33.6642Z" stroke="#66737C" stroke-width="3.57143" stroke-linecap="round" stroke-linejoin="round" fill="none"/></svg>