<svg width="60" height="60" viewBox="-1.875 -1.875 60 60" xmlns="http://www.w3.org/2000/svg" xmlns:xlink="http://www.w3.org/1999/xlink" id="Adventure-Car--Streamline-Ultimate" overflow="hidden"><path d="M35.1562 40.7227C35.1562 44.1205 37.9107 46.875 41.3086 46.875 44.7064 46.875 47.4609 44.1205 47.4609 40.7227 47.4609 37.3248 44.7064 34.5703 41.3086 34.5703 37.9107 34.5703 35.1562 37.3248 35.1562 40.7227Z" stroke="#66737C" stroke-width="3.57143" stroke-linecap="round" stroke-linejoin="round" fill="none"/><path d="M5.27344 40.7227C5.27344 44.1205 8.02794 46.875 11.4258 46.875 14.8236 46.875 17.5781 44.1205 17.5781 40.7227 17.5781 37.3248 14.8236 34.5703 11.4258 34.5703 8.02794 34.5703 5.27344 37.3248 5.27344 40.7227Z" stroke="#66737C" stroke-width="3.57143" stroke-linecap="round" stroke-linejoin="round" fill="none"/><path d="M47.4 41.6016 50.9766 41.6016C52.9182 41.6016 54.4922 40.0276 54.4922 38.0859L54.4922 25.7812C54.4922 23.8396 52.9182 22.2656 50.9766 22.2656L38.6719 22.2656 31.6406 32.8125 22.8516 32.8125C20.475 28.057 20.6602 25.7812 17.5781 25.7812L5.27344 25.7812C3.33181 25.7812 1.75781 27.3552 1.75781 29.2969L1.75781 38.0859C1.78732 40.0399 3.38253 41.6069 5.33672 41.6016" stroke="#66737C" stroke-width="3.57143" stroke-linecap="round" stroke-linejoin="round" fill="none"/><path d="M38.6719 22.2656 35.1562 8.20312" stroke="#66737C" stroke-width="3.57143" stroke-linecap="round" stroke-linejoin="round" fill="none"/><path d="M8.96484 25.7812 7.71094 18.4336C7.45557 16.9277 8.46934 15.4999 9.97526 15.2445 11.2572 15.0271 12.5175 15.7321 13.0031 16.9383L16.5539 25.7812" stroke="#66737C" stroke-width="3.57143" stroke-linecap="round" stroke-linejoin="round" fill="none"/><path d="M35.2195 41.6016 17.5148 41.6016" stroke="#66737C" stroke-width="3.57143" stroke-linecap="round" stroke-linejoin="round" fill="none"/></svg>