<svg width="60" height="60" viewBox="-1.875 -1.875 60 60" xmlns="http://www.w3.org/2000/svg" xmlns:xlink="http://www.w3.org/1999/xlink" id="Advertising-Megaphone--Streamline-Ultimate" overflow="hidden"><path d="M22.6477 38.5828C20.0124 39.9902 19.017 43.2674 20.4243 45.9026 20.4264 45.9064 20.4284 45.9103 20.4305 45.9141L20.4445 45.9141C21.867 48.5603 25.161 49.5588 27.8133 48.1477L28.6313 47.7047C42.8508 40.0453 45.1617 40.9664 53.9062 40.3758L43.6969 21.2062C37.8398 28.9078 37.6148 30.4383 22.6477 38.5828Z" stroke="#66737C" stroke-width="3.33333" stroke-linecap="round" stroke-linejoin="round" fill="none"/><path d="M26.9531 36.1969 33.9609 51.0305C35.3714 53.6752 38.658 54.677 41.3039 53.2687" stroke="#66737C" stroke-width="3.33333" stroke-linecap="round" stroke-linejoin="round" fill="none"/><path d="M30.4336 24.0234 30.4336 11.2078" stroke="#66737C" stroke-width="3.33333" stroke-linecap="round" stroke-linejoin="round" fill="none"/><path d="M9.33984 11.2078 9.33984 27.5391C9.33984 29.4807 10.9138 31.0547 12.8555 31.0547L23.4023 31.0547" stroke="#66737C" stroke-width="3.33333" stroke-linecap="round" stroke-linejoin="round" fill="none"/><path d="M37.4648 17.5359 22.2305 3.83203C20.8934 2.62857 18.8636 2.62857 17.5266 3.83203L2.30859 17.5359" stroke="#66737C" stroke-width="3.33333" stroke-linecap="round" stroke-linejoin="round" fill="none"/><path d="M33.9492 14.3719 33.9492 4.6875" stroke="#66737C" stroke-width="3.33333" stroke-linecap="round" stroke-linejoin="round" fill="none"/></svg>