<svg width="60" height="60" viewBox="-1.875 -1.875 60 60" xmlns="http://www.w3.org/2000/svg" xmlns:xlink="http://www.w3.org/1999/xlink" id="Adventure-Car-Atv-1--Streamline-Ultimate" overflow="hidden"><path d="M39.1195 42.7734C39.1195 45.6859 41.4805 48.0469 44.393 48.0469 47.3054 48.0469 49.6664 45.6859 49.6664 42.7734 49.6664 39.861 47.3054 37.5 44.393 37.5 41.4805 37.5 39.1195 39.861 39.1195 42.7734Z" stroke="#66737C" stroke-width="3.57143" stroke-linecap="round" stroke-linejoin="round" fill="none"/><path d="M6.58359 42.7734C6.58359 45.6859 8.94459 48.0469 11.857 48.0469 14.7695 48.0469 17.1305 45.6859 17.1305 42.7734 17.1305 39.861 14.7695 37.5 11.857 37.5 8.94459 37.5 6.58359 39.861 6.58359 42.7734Z" stroke="#66737C" stroke-width="3.57143" stroke-linecap="round" stroke-linejoin="round" fill="none"/><path d="M54.4922 35.7422C50.6077 30.1645 42.9372 28.7919 37.3596 32.6764 36.1642 33.5088 35.1262 34.5469 34.2938 35.7422L21.9562 35.7422C18.0718 30.1645 10.4013 28.7919 4.82362 32.6764 3.62831 33.5088 2.59027 34.5469 1.75781 35.7422" stroke="#66737C" stroke-width="3.57143" stroke-linecap="round" stroke-linejoin="round" fill="none"/><path d="M4.82578 32.6742 4.82578 21.6797C4.82578 19.7381 6.39978 18.1641 8.34141 18.1641L11.857 18.1641 17.1305 23.4375 35.6039 23.4375 35.6039 14.6484 42.9375 14.6484C43.8693 14.6486 44.7628 15.0187 45.4219 15.6773L50.3906 20.6508C51.0493 21.3098 51.4193 22.2034 51.4195 23.1352L51.4195 32.6766" stroke="#66737C" stroke-width="3.57143" stroke-linecap="round" stroke-linejoin="round" fill="none"/><path d="M32.0883 5.85938 37.3617 5.85938 40.8773 14.6484" stroke="#66737C" stroke-width="3.57143" stroke-linecap="round" stroke-linejoin="round" fill="none"/><path d="M17.1305 11.1328 17.1305 23.4375" stroke="#66737C" stroke-width="3.57143" stroke-linecap="round" stroke-linejoin="round" fill="none"/></svg>