<svg width="60" height="60" viewBox="-2.14 -2.14 60 60" xmlns="http://www.w3.org/2000/svg" xmlns:xlink="http://www.w3.org/1999/xlink" id="Ai-Chip-Spark--Streamline-Ultimate.svg" fill="none" overflow="hidden"><path d="M14.1877 9.54902 41.53 9.54902C41.53 9.54902 46.1733 9.54902 46.1733 14.1923L46.1733 41.5346C46.1733 41.5346 46.1733 46.178 41.53 46.178L14.1877 46.178C14.1877 46.178 9.54437 46.178 9.54437 41.5346L9.54437 14.1923C9.54437 14.1923 9.54437 9.54902 14.1877 9.54902" stroke="#66737C" stroke-width="3.57143" stroke-linejoin="round"/><path d="M20.7816 2.4033 20.7816 9.54632" stroke="#66737C" stroke-width="3.57143" stroke-linecap="round"/><path d="M2.4033 34.9429 9.54542 34.9429" stroke="#66737C" stroke-width="3.57143" stroke-linecap="round"/><path d="M34.9383 2.4033 34.9383 9.54632" stroke="#66737C" stroke-width="3.57143" stroke-linecap="round"/><path d="M2.4033 20.7771 9.54542 20.7771" stroke="#66737C" stroke-width="3.57143" stroke-linecap="round"/><path d="M20.7816 46.1793 20.7816 53.3134" stroke="#66737C" stroke-width="3.57143" stroke-linecap="round"/><path d="M46.1749 34.9429 53.3171 34.9429" stroke="#66737C" stroke-width="3.57143" stroke-linecap="round"/><path d="M34.9383 46.1793 34.9383 53.3134" stroke="#66737C" stroke-width="3.57143" stroke-linecap="round"/><path d="M46.1749 20.7771 53.3171 20.7771" stroke="#66737C" stroke-width="3.57143" stroke-linecap="round"/><path d="M18.7139 27.8535C23.2724 26.9371 26.9425 23.2225 27.8602 18.5461 28.778 23.2225 32.4474 26.9371 37.0057 27.8535M37.0057 27.8588C32.4474 28.7754 28.7773 32.4901 27.8593 37.1664 26.9415 32.4901 23.2724 28.7754 18.7139 27.8588" stroke="#66737C" stroke-width="3.57143" stroke-linecap="round" stroke-linejoin="round"/></svg>