<svg width="60" height="60" viewBox="-1.875 -1.875 60 60" xmlns="http://www.w3.org/2000/svg" xmlns:xlink="http://www.w3.org/1999/xlink" id="Ai-Database-Spark--Streamline-Ultimate" fill="none" overflow="hidden"><path d="M30.2147 41.5343C35.6341 40.4449 39.9975 36.0284 41.0887 30.4688 42.1798 36.0284 46.5422 40.4449 51.9616 41.5343M51.9616 41.5406C46.5422 42.6302 42.1788 47.0466 41.0876 52.6062 39.9966 47.0466 35.6341 42.6302 30.2147 41.5406" stroke="#66737C" stroke-width="3.33333" stroke-linecap="round" stroke-linejoin="round"/><path d="M21.2563 20.6108C30.627 20.6108 38.2233 16.8126 38.2233 12.1273 38.2233 7.44199 30.627 3.6438 21.2563 3.6438 11.8856 3.6438 4.28925 7.44199 4.28925 12.1273 4.28925 16.8126 11.8856 20.6108 21.2563 20.6108Z" stroke="#66737C" stroke-width="3.33333" stroke-linecap="round" stroke-linejoin="round" stroke-miterlimit="10"/><path d="M4.28925 12.1307 4.28925 26.5526C4.28925 31.2185 11.9244 35.0363 21.2563 35.0363 24.173 35.0363 26.9241 34.6631 29.328 34.008M38.2233 24.7763 38.2233 12.1307" stroke="#66737C" stroke-width="3.33333" stroke-linecap="round" stroke-linejoin="round" stroke-miterlimit="10"/><path d="M4.28925 26.5411 4.28925 40.9631C4.28925 45.6291 11.9244 49.4468 21.2563 49.4468 24.2555 49.4468 27.0797 49.0523 29.5312 48.3621" stroke="#66737C" stroke-width="3.33333" stroke-linecap="round" stroke-linejoin="round" stroke-miterlimit="10"/></svg>