<svg width="60" height="60" viewBox="-1.875 -1.875 60 60" xmlns="http://www.w3.org/2000/svg" xmlns:xlink="http://www.w3.org/1999/xlink" id="Ai-File-Robot--Streamline-Ultimate" fill="none" overflow="hidden"><path d="M29.5631 54.4922 48.912 54.4922C51.5009 54.4922 53.5995 52.3936 53.5995 49.8047L53.5995 19.0336C53.5995 18.1018 53.2294 17.2083 52.5705 16.5492L38.808 2.78672C38.149 2.12808 37.2555 1.75801 36.3237 1.75781L11.412 1.75781C9.4972 1.75781 7.89642 3.35859 7.89642 5.27344L7.89642 25.7965" stroke="#66737C" stroke-width="3.33333" stroke-linecap="round" stroke-linejoin="round"/><path d="M53.5995 19.3359 39.537 19.3359C38.6046 19.3359 37.7105 18.9655 37.0512 18.3062 36.3919 17.6469 36.0213 16.7527 36.0213 15.8203L36.0213 1.75781" stroke="#66737C" stroke-width="3.33333" stroke-linecap="round" stroke-linejoin="round"/><path d="M7.33828 39.2039 17.618 39.2039C17.618 39.2039 22.3055 39.2039 22.3055 43.8914L22.3055 49.807C22.3055 49.807 22.3055 54.4945 17.618 54.4945L7.33828 54.4945C7.33828 54.4945 2.65078 54.4945 2.65078 49.807L2.65078 43.8914C2.65078 43.8914 2.65078 39.2039 7.33828 39.2039" stroke="#66737C" stroke-width="3.33333" stroke-linejoin="round"/><path d="M12.4763 33.172 12.4763 39.203" stroke="#66737C" stroke-width="3.33333" stroke-linecap="round" stroke-linejoin="round"/><path d="M8.87834 45.9844 8.87834 47.7173" stroke="#66737C" stroke-width="3.33333" stroke-linecap="round" stroke-linejoin="round"/><path d="M16.0766 45.9844 16.0767 47.7173" stroke="#66737C" stroke-width="3.33333" stroke-linecap="round" stroke-linejoin="round"/></svg>