<svg width="60" height="60" viewBox="-1.875 -1.875 60 60" xmlns="http://www.w3.org/2000/svg" xmlns:xlink="http://www.w3.org/1999/xlink" id="Ai-Generate-Variation-Robot--Streamline-Ultimate" fill="none" overflow="hidden"><path d="M5.25938 3.29531 21.8859 3.29531C21.8859 3.29531 24.2297 3.29531 24.2297 5.63906L24.2297 22.2656C24.2297 22.2656 24.2297 24.6094 21.8859 24.6094L5.25938 24.6094C5.25938 24.6094 2.91563 24.6094 2.91563 22.2656L2.91563 5.63906C2.91563 5.63906 2.91563 3.29531 5.25938 3.29531" stroke="#66737C" stroke-width="3.33333" stroke-linejoin="round"/><path d="M5.25938 32.1164 21.8859 32.1164C21.8859 32.1164 24.2297 32.1164 24.2297 34.4602L24.2297 51.0867C24.2297 51.0867 24.2297 53.4305 21.8859 53.4305L5.25938 53.4305C5.25938 53.4305 2.91563 53.4305 2.91563 51.0867L2.91563 34.4602C2.91563 34.4602 2.91563 32.1164 5.25938 32.1164" stroke="#66737C" stroke-width="3.33333" stroke-linejoin="round"/><path d="M34.3641 32.1164 50.9906 32.1164C50.9906 32.1164 53.3344 32.1164 53.3344 34.4602L53.3344 51.0867C53.3344 51.0867 53.3344 53.4305 50.9906 53.4305L34.3641 53.4305C34.3641 53.4305 32.0203 53.4305 32.0203 51.0867L32.0203 34.4602C32.0203 34.4602 32.0203 32.1164 34.3641 32.1164" stroke="#66737C" stroke-width="3.33333" stroke-linejoin="round"/><path d="M37.5375 8.86172 47.8172 8.86172C47.8172 8.86172 52.5047 8.86172 52.5047 13.5492L52.5047 19.4648C52.5047 19.4648 52.5047 24.1523 47.8172 24.1523L37.5375 24.1523C37.5375 24.1523 32.85 24.1523 32.85 19.4648L32.85 13.5492C32.85 13.5492 32.85 8.86172 37.5375 8.86172" stroke="#66737C" stroke-width="3.33333" stroke-linejoin="round"/><path d="M42.6773 2.83144 42.6773 8.8623" stroke="#66737C" stroke-width="3.33333" stroke-linecap="round" stroke-linejoin="round"/><path d="M39.0792 15.6439 39.0792 17.3767" stroke="#66737C" stroke-width="3.33333" stroke-linecap="round" stroke-linejoin="round"/><path d="M46.2752 15.6439 46.2752 17.3767" stroke="#66737C" stroke-width="3.33333" stroke-linecap="round" stroke-linejoin="round"/></svg>