<svg width="60" height="60" viewBox="-1.875 -1.875 60 60" xmlns="http://www.w3.org/2000/svg" xmlns:xlink="http://www.w3.org/1999/xlink" id="Ai-Map-Generating-Robot--Streamline-Ultimate" fill="none" overflow="hidden"><path d="M18.0371 54.207 2.1286 47.1762 2.1286 10.3729 18.0371 17.4037" stroke="#66737C" stroke-width="3.33333" stroke-linecap="round" stroke-linejoin="round"/><path d="M33.9445 30 33.9445 47.1741 18.0359 54.2048 18.0359 17.4016 27.3621 13.2019" stroke="#66737C" stroke-width="3.33333" stroke-linecap="round" stroke-linejoin="round"/><path d="M33.9431 47.1757 49.8518 54.2065 49.8518 29.9927" stroke="#66737C" stroke-width="3.33333" stroke-linecap="round" stroke-linejoin="round"/><path d="M39.157 8.07422 49.4367 8.07422C49.4367 8.07422 54.1242 8.07422 54.1242 12.7617L54.1242 18.6773C54.1242 18.6773 54.1242 23.3648 49.4367 23.3648L39.157 23.3648C39.157 23.3648 34.4695 23.3648 34.4695 18.6773L34.4695 12.7617C34.4695 12.7617 34.4695 8.07422 39.157 8.07422" stroke="#66737C" stroke-width="3.33333" stroke-linejoin="round"/><path d="M44.2978 2.04407 44.2978 8.07495" stroke="#66737C" stroke-width="3.33333" stroke-linecap="round" stroke-linejoin="round"/><path d="M40.6997 14.8566 40.6997 16.5893" stroke="#66737C" stroke-width="3.33333" stroke-linecap="round" stroke-linejoin="round"/><path d="M47.8957 14.8566 47.8957 16.5893" stroke="#66737C" stroke-width="3.33333" stroke-linecap="round" stroke-linejoin="round"/></svg>