<svg width="60" height="60" viewBox="-1.875 -1.875 60 60" xmlns="http://www.w3.org/2000/svg" xmlns:xlink="http://www.w3.org/1999/xlink" id="Ai-Network-Robot--Streamline-Ultimate" fill="none" overflow="hidden"><path d="M39.1641 8.37656 49.4437 8.37656C49.4437 8.37656 54.1312 8.37656 54.1312 13.0641L54.1312 18.9797C54.1312 18.9797 54.1312 23.6672 49.4437 23.6672L39.1641 23.6672C39.1641 23.6672 34.4766 23.6672 34.4766 18.9797L34.4766 13.0641C34.4766 13.0641 34.4766 8.37656 39.1641 8.37656" stroke="#66737C" stroke-width="3.33333" stroke-linejoin="round"/><path d="M44.3046 2.34619 44.3046 8.37708" stroke="#66737C" stroke-width="3.33333" stroke-linecap="round" stroke-linejoin="round"/><path d="M40.7067 15.1587 40.7067 16.8915" stroke="#66737C" stroke-width="3.33333" stroke-linecap="round" stroke-linejoin="round"/><path d="M47.9027 15.1587 47.9027 16.8915" stroke="#66737C" stroke-width="3.33333" stroke-linecap="round" stroke-linejoin="round"/><path d="M25.7058 13.0826C24.7029 12.932 23.6761 12.854 22.6307 12.854 11.3153 12.854 2.11945 22.0157 2.11945 33.3652L2.11945 33.3994C2.11945 44.7148 11.2811 53.9107 22.6307 53.9107 33.9462 53.9107 43.1419 44.749 43.1419 33.3994 43.1419 32.6623 43.1032 31.9341 43.028 31.2171" stroke="#66737C" stroke-width="3.33333" stroke-linecap="round" stroke-linejoin="round"/><path d="M22.6317 12.854C18.0508 12.854 14.328 22.0157 14.328 33.3652L14.328 33.3994C14.328 44.7148 18.037 53.9107 22.6317 53.9107 27.2126 53.9107 30.9354 44.749 30.9354 33.3994 30.9354 31.1714 30.7924 29.0264 30.528 27.0176" stroke="#66737C" stroke-width="3.33333" stroke-linecap="round" stroke-linejoin="round"/><path d="M2.11945 33.3893 43.1423 33.3893" stroke="#66737C" stroke-width="3.33333" stroke-linecap="round" stroke-linejoin="round" stroke-miterlimit="10"/></svg>