<svg width="60" height="60" viewBox="-1.875 -1.875 60 60" xmlns="http://www.w3.org/2000/svg" xmlns:xlink="http://www.w3.org/1999/xlink" id="Ai-Technology-Robot--Streamline-Ultimate" fill="none" overflow="hidden"><path d="M30.3623 29.1216C27.8055 31.6784 26.385 35.3716 26.385 39.0649L26.385 43.8945C26.385 47.0194 23.8282 49.5764 20.7032 49.5764L17.8622 49.5764C14.7372 49.5764 12.1804 47.0194 12.1804 43.8945L12.1804 39.0649C12.1804 35.3716 10.7599 31.6784 8.20303 29.1216 5.3621 26.5648 3.65754 22.5874 3.65754 18.326 3.65754 9.80316 10.7599 2.7008 19.2827 2.7008 22.3845 2.7008 25.298 3.64148 27.7495 5.24899" stroke="#66737C" stroke-width="3.33333" stroke-linecap="round" stroke-linejoin="round" stroke-miterlimit="10"/><path d="M19.2856 49.5757 19.2856 53.553" stroke="#66737C" stroke-width="3.33333" stroke-linecap="round" stroke-linejoin="round" stroke-miterlimit="10"/><path d="M12.1811 38.2141 26.3857 38.2141" stroke="#66737C" stroke-width="3.33333" stroke-linecap="round" stroke-linejoin="round" stroke-miterlimit="10"/><path d="M37.6242 8.73516 47.9039 8.73516C47.9039 8.73516 52.5914 8.73516 52.5914 13.4227L52.5914 19.3383C52.5914 19.3383 52.5914 24.0258 47.9039 24.0258L37.6242 24.0258C37.6242 24.0258 32.9367 24.0258 32.9367 19.3383L32.9367 13.4227C32.9367 13.4227 32.9367 8.73516 37.6242 8.73516" stroke="#66737C" stroke-width="3.33333" stroke-linejoin="round"/><path d="M42.7643 2.70326 42.7643 8.73413" stroke="#66737C" stroke-width="3.33333" stroke-linecap="round" stroke-linejoin="round"/><path d="M39.1662 15.5157 39.1662 17.2485" stroke="#66737C" stroke-width="3.33333" stroke-linecap="round" stroke-linejoin="round"/><path d="M46.3622 15.5157 46.3622 17.2485" stroke="#66737C" stroke-width="3.33333" stroke-linecap="round" stroke-linejoin="round"/></svg>