<svg width="60" height="60" viewBox="-1.875 -1.875 60 60" xmlns="http://www.w3.org/2000/svg" xmlns:xlink="http://www.w3.org/1999/xlink" id="Ai-Tagging-Robot--Streamline-Ultimate" fill="none" overflow="hidden"><path d="M50.6086 29.0576 50.6086 29.0576C51.7242 27.942 52.3477 26.427 52.3402 24.8491L52.2698 9.93776C52.2518 6.08041 49.1292 2.95791 45.2719 2.9397L30.8269 2.87147C28.9505 2.86259 27.1486 3.60405 25.8218 4.93083L3.31912 27.4338C1.48857 29.2643 1.48857 32.2322 3.31915 34.0629L21.1468 51.8904C22.9774 53.7211 25.9453 53.7211 27.776 51.8904L28.7013 50.9651" stroke="#66737C" stroke-width="3.33333" stroke-linecap="round" stroke-linejoin="round"/><path d="M44.3857 10.8225C44.0374 10.4741 43.3406 10.4741 42.9921 10.8225 42.6438 11.1709 42.6438 11.8676 42.9921 12.216" stroke="#66737C" stroke-width="3.33333" stroke-linecap="round" stroke-linejoin="round" stroke-miterlimit="10"/><path d="M44.3883 10.8206C44.7368 11.1689 44.7368 11.8657 44.3883 12.2141 44.04 12.5625 43.3432 12.5625 42.9949 12.2141" stroke="#66737C" stroke-width="3.33333" stroke-linecap="round" stroke-linejoin="round" stroke-miterlimit="10"/><path d="M39.2438 38.8008 49.5234 38.8008C49.5234 38.8008 54.2109 38.8008 54.2109 43.4883L54.2109 49.4039C54.2109 49.4039 54.2109 54.0914 49.5234 54.0914L39.2438 54.0914C39.2438 54.0914 34.5563 54.0914 34.5563 49.4039L34.5563 43.4883C34.5563 43.4883 34.5563 38.8008 39.2438 38.8008" stroke="#66737C" stroke-width="3.33333" stroke-linejoin="round"/><path d="M44.3848 32.7691 44.3848 38.8001" stroke="#66737C" stroke-width="3.33333" stroke-linecap="round" stroke-linejoin="round"/><path d="M40.7866 45.5817 40.7866 47.3145" stroke="#66737C" stroke-width="3.33333" stroke-linecap="round" stroke-linejoin="round"/><path d="M47.9829 45.5817 47.9829 47.3145" stroke="#66737C" stroke-width="3.33333" stroke-linecap="round" stroke-linejoin="round"/></svg>