<svg width="60" height="60" viewBox="-1.875 -1.875 60 60" xmlns="http://www.w3.org/2000/svg" xmlns:xlink="http://www.w3.org/1999/xlink" id="Aircraft-Military-Plane--Streamline-Ultimate" overflow="hidden"><path d="M28.125 12.3047 28.125 22.8516" stroke="#66737C" stroke-width="3.57143" stroke-linecap="round" stroke-linejoin="round" fill="none"/><path d="M14.0625 47.4609 14.0625 54.4922" stroke="#66737C" stroke-width="3.57143" stroke-linecap="round" stroke-linejoin="round" fill="none"/><path d="M21.0938 40.4297 21.0938 33.3984" stroke="#66737C" stroke-width="3.57143" stroke-linecap="round" stroke-linejoin="round" fill="none"/><path d="M51.6609 43.1578 35.1562 22.8516 35.1562 12.3047C35.1562 7.03125 32.0086 1.75781 28.125 1.75781 24.2414 1.75781 21.0938 7.03125 21.0938 12.3047L21.0938 22.8516 4.58906 43.1578C2.91926 45.2135 3.23206 48.2335 5.2877 49.9033 6.14234 50.5976 7.20986 50.9765 8.31094 50.9766L24.6094 50.9766C24.6094 52.9182 26.1834 54.4922 28.125 54.4922 30.0666 54.4922 31.6406 52.9182 31.6406 50.9766L47.9391 50.9766C50.5874 50.9765 52.7343 48.8294 52.7342 46.181 52.7341 45.08 52.3552 44.0125 51.6609 43.1578Z" stroke="#66737C" stroke-width="3.57143" stroke-linecap="round" stroke-linejoin="round" fill="none"/><path d="M42.1875 47.4609 42.1875 54.4922" stroke="#66737C" stroke-width="3.57143" stroke-linecap="round" stroke-linejoin="round" fill="none"/><path d="M35.1562 40.4297 35.1562 33.3984" stroke="#66737C" stroke-width="3.57143" stroke-linecap="round" stroke-linejoin="round" fill="none"/></svg>