<svg width="60" height="60" viewBox="-2.14 -2.14 60 60" xmlns="http://www.w3.org/2000/svg" xmlns:xlink="http://www.w3.org/1999/xlink" id="Airport--Streamline-Ultimate.svg" overflow="hidden"><g><path d="M13.2567 38.3075C12.7408 38.3075 12.2868 37.967 12.1423 37.4717L8.17227 21.22C8.08045 20.8688 8.14843 20.4949 8.358 20.1985 8.57476 19.9032 8.92041 19.7304 9.28667 19.7342L46.4333 19.7342C46.7996 19.7304 47.1452 19.9032 47.362 20.1985 47.5716 20.4949 47.6395 20.8688 47.5477 21.22L43.5777 37.4717C43.4332 37.967 42.9792 38.3075 42.4633 38.3075Z" stroke="#66737C" stroke-width="3.57143" stroke-linecap="round" stroke-linejoin="round" fill="none"/><path d="M37.1467 8.12583 37.1467 4.64333" stroke="#66737C" stroke-width="3.57143" stroke-linecap="round" stroke-linejoin="round" fill="none"/><path d="M27.86 8.12583 27.86 1.16083" stroke="#66737C" stroke-width="3.57143" stroke-linecap="round" stroke-linejoin="round" fill="none"/><path d="M18.5733 8.12583 18.5733 4.64333" stroke="#66737C" stroke-width="3.57143" stroke-linecap="round" stroke-linejoin="round" fill="none"/><path d="M19.7342 54.5592 19.7342 38.3075" stroke="#66737C" stroke-width="3.57143" stroke-linecap="round" stroke-linejoin="round" fill="none"/><path d="M35.9858 38.3075 35.9858 54.5592" stroke="#66737C" stroke-width="3.57143" stroke-linecap="round" stroke-linejoin="round" fill="none"/><path d="M19.7342 25.5383 20.895 32.5033" stroke="#66737C" stroke-width="3.57143" stroke-linecap="round" stroke-linejoin="round" fill="none"/><path d="M35.9858 25.5383 34.825 32.5033" stroke="#66737C" stroke-width="3.57143" stroke-linecap="round" stroke-linejoin="round" fill="none"/><path d="M9.24023 25.5383 46.4798 25.5383" stroke="#66737C" stroke-width="3.57143" stroke-linecap="round" stroke-linejoin="round" fill="none"/><path d="M10.9351 32.5033 44.785 32.5033" stroke="#66737C" stroke-width="3.57143" stroke-linecap="round" stroke-linejoin="round" fill="none"/><path d="M38.3075 19.7342 17.4125 19.7342 15.0908 12.7692 17.9233 8.12583 37.7967 8.12583 40.6524 12.7692 38.3075 19.7342Z" stroke="#66737C" stroke-width="3.57143" stroke-linecap="round" stroke-linejoin="round" fill="none"/><path d="M15.0908 12.7692 40.6292 12.7692" stroke="#66737C" stroke-width="3.57143" stroke-linecap="round" stroke-linejoin="round" fill="none"/><path d="M23.2167 12.7692 24.3775 19.7342" stroke="#66737C" stroke-width="3.57143" stroke-linecap="round" stroke-linejoin="round" fill="none"/><path d="M32.5033 12.7692 31.3425 19.7342" stroke="#66737C" stroke-width="3.57143" stroke-linecap="round" stroke-linejoin="round" fill="none"/></g></svg>