<svg width="60" height="60" viewBox="-2.14 -2.14 60 60" xmlns="http://www.w3.org/2000/svg" xmlns:xlink="http://www.w3.org/1999/xlink" id="Alert-Diamond--Streamline-Ultimate.svg" fill="none" overflow="hidden"><path d="M27.86 40.0488C27.3792 40.0488 26.9894 39.6589 26.9894 39.1781 26.9894 38.6973 27.3792 38.3075 27.86 38.3075" stroke="#66737C" stroke-width="3.57143"/><path d="M27.86 40.0488C28.3408 40.0488 28.7306 39.6589 28.7306 39.1781 28.7306 38.6973 28.3408 38.3075 27.86 38.3075" stroke="#66737C" stroke-width="3.57143"/><path d="M27.86 31.3425 27.86 13.93" stroke="#66737C" stroke-width="3.57143" stroke-linecap="round" stroke-miterlimit="10"/><path d="M2.97162 30.8341C2.18377 30.0452 1.74125 28.976 1.74125 27.8612 1.74125 26.7463 2.18377 25.6769 2.97162 24.8883L24.888 2.97401C25.2781 2.58316 25.7412 2.27305 26.2511 2.06146 26.7612 1.84988 27.3077 1.74097 27.8598 1.74097 28.4119 1.74097 28.9586 1.84988 29.4687 2.06146 29.9785 2.27305 30.4417 2.58316 30.8315 2.97401L52.748 24.8883C53.536 25.6769 53.9785 26.7463 53.9785 27.8612 53.9785 28.976 53.536 30.0452 52.748 30.8341L30.8315 52.7483C30.0433 53.536 28.9744 53.9783 27.8598 53.9783 26.7454 53.9783 25.6765 53.536 24.888 52.7483L2.97162 30.8341Z" stroke="#66737C" stroke-width="3.57143" stroke-linecap="round" stroke-linejoin="round"/></svg>