<svg width="60" height="60" viewBox="-1.875 -1.875 60 60" xmlns="http://www.w3.org/2000/svg" xmlns:xlink="http://www.w3.org/1999/xlink" id="Amazon-Relational-Database-Service--Streamline-Ultimate" fill="none" overflow="hidden"><path d="M28.0078 22.6172C33.1854 22.6172 37.3828 20.5186 37.3828 17.9297 37.3828 15.3409 33.1854 13.2422 28.0078 13.2422 22.83 13.2422 18.6327 15.3409 18.6327 17.9297 18.6327 20.5186 22.83 22.6172 28.0078 22.6172Z" stroke="#66737C" stroke-width="3.33333" stroke-linecap="round" stroke-linejoin="round" stroke-miterlimit="10"/><path d="M18.6327 17.9297 18.6327 25.8984C18.6327 28.4766 22.8514 30.5859 28.0078 30.5859 33.1641 30.5859 37.3828 28.4766 37.3828 25.8984L37.3828 17.9297" stroke="#66737C" stroke-width="3.33333" stroke-linecap="round" stroke-linejoin="round" stroke-miterlimit="10"/><path d="M18.6327 26.1328 18.6327 34.1016C18.6327 36.6797 22.8514 38.7891 28.0078 38.7891 33.1641 38.7891 37.3828 36.6797 37.3828 34.1016L37.3828 26.1328" stroke="#66737C" stroke-width="3.33333" stroke-linecap="round" stroke-linejoin="round" stroke-miterlimit="10"/><path d="M1.75781 8.78906 1.75781 1.75781 8.78906 1.75781" stroke="#66737C" stroke-width="3.33333" stroke-linecap="round" stroke-linejoin="round" stroke-miterlimit="10"/><path d="M1.75781 1.75781 9.96094 9.96094" stroke="#66737C" stroke-width="3.33333" stroke-linecap="round" stroke-linejoin="round" stroke-miterlimit="10"/><path d="M54.4922 8.78906 54.4922 1.75781 47.4609 1.75781" stroke="#66737C" stroke-width="3.33333" stroke-linecap="round" stroke-linejoin="round" stroke-miterlimit="10"/><path d="M54.4922 1.75781 46.2891 9.96094" stroke="#66737C" stroke-width="3.33333" stroke-linecap="round" stroke-linejoin="round" stroke-miterlimit="10"/><path d="M1.75781 47.4609 1.75781 54.4922 8.78906 54.4922" stroke="#66737C" stroke-width="3.33333" stroke-linecap="round" stroke-linejoin="round" stroke-miterlimit="10"/><path d="M1.75781 54.4922 9.96094 46.2891" stroke="#66737C" stroke-width="3.33333" stroke-linecap="round" stroke-linejoin="round" stroke-miterlimit="10"/><path d="M54.4922 47.4609 54.4922 54.4922 47.4609 54.4922" stroke="#66737C" stroke-width="3.33333" stroke-linecap="round" stroke-linejoin="round" stroke-miterlimit="10"/><path d="M54.4922 54.4922 46.2891 46.2891" stroke="#66737C" stroke-width="3.33333" stroke-linecap="round" stroke-linejoin="round" stroke-miterlimit="10"/><path d="M42.0703 39.4922C47.6953 36.9141 51.4453 32.9297 51.4453 28.2422 51.4453 24.4922 48.8672 20.9765 44.6484 18.3984" stroke="#66737C" stroke-width="3.33333" stroke-linecap="round" stroke-linejoin="round" stroke-miterlimit="10"/><path d="M11.8358 18.1641C7.38272 20.7422 4.5702 24.2578 4.5702 28.2422 4.5702 32.9297 8.3202 36.9141 13.9452 39.4922" stroke="#66737C" stroke-width="3.33333" stroke-linecap="round" stroke-linejoin="round" stroke-miterlimit="10"/></svg>