<svg width="60" height="60" viewBox="-2.14 -2.14 60 60" xmlns="http://www.w3.org/2000/svg" xmlns:xlink="http://www.w3.org/1999/xlink" id="Amazon-Web-Service-Cloudhsm-Hardware-Based-Key-Storage-1--Streamline-Ultimate.svg" fill="none" overflow="hidden"><path d="M19.1537 44.6921 22.6362 41.2096 36.1019 41.2096C37.4949 37.7271 40.7453 35.4054 44.6921 35.4054 49.7998 35.4054 53.9787 39.5844 53.9787 44.6921 53.9787 49.7998 49.7998 53.9787 44.6921 53.9787 40.7453 53.9787 37.4949 51.6571 36.1019 48.1746L22.6362 48.1746 19.1537 44.6921Z" stroke="#66737C" stroke-width="3.57143" stroke-linecap="round" stroke-linejoin="round" stroke-miterlimit="10"/><path d="M6.38458 37.7271 6.38458 40.0488C6.38458 42.6026 8.47408 44.6921 11.0279 44.6921L12.1888 44.6921" stroke="#66737C" stroke-width="3.57143" stroke-linecap="round" stroke-linejoin="round" stroke-miterlimit="10"/><path d="M6.38458 7.54542 6.38458 6.38458C6.38458 3.83075 8.47408 1.74125 11.0279 1.74125L41.2096 1.74125C43.7634 1.74125 45.8529 3.83075 45.8529 6.38458L45.8529 28.4404" stroke="#66737C" stroke-width="3.57143" stroke-linecap="round" stroke-linejoin="round" stroke-miterlimit="10"/><path d="M11.0279 12.1888C11.0279 13.5817 10.0992 14.5104 8.70625 14.5104L4.06292 14.5104C2.66992 14.5104 1.74125 13.5817 1.74125 12.1888L1.74125 9.86708C1.74125 8.47408 2.66992 7.54542 4.06292 7.54542L8.70625 7.54542C10.0992 7.54542 11.0279 8.47408 11.0279 9.86708L11.0279 12.1888Z" stroke="#66737C" stroke-width="3.57143" stroke-linecap="round" stroke-linejoin="round" stroke-miterlimit="10"/><path d="M11.0279 35.4054C11.0279 36.7984 10.0992 37.7271 8.70625 37.7271L4.06292 37.7271C2.66992 37.7271 1.74125 36.7984 1.74125 35.4054L1.74125 33.0838C1.74125 31.6908 2.66992 30.7621 4.06292 30.7621L8.70625 30.7621C10.0992 30.7621 11.0279 31.6908 11.0279 33.0838L11.0279 35.4054Z" stroke="#66737C" stroke-width="3.57143" stroke-linecap="round" stroke-linejoin="round" stroke-miterlimit="10"/><path d="M27.2796 34.2446C33.6906 34.2446 38.8879 29.0473 38.8879 22.6362 38.8879 16.2252 33.6906 11.0279 27.2796 11.0279 20.8685 11.0279 15.6713 16.2252 15.6713 22.6362 15.6713 29.0473 20.8685 34.2446 27.2796 34.2446Z" stroke="#66737C" stroke-width="3.57143" stroke-linecap="round" stroke-linejoin="round" stroke-miterlimit="10"/><path d="M27.2796 26.1187C29.2029 26.1187 30.7621 24.5595 30.7621 22.6362 30.7621 20.7129 29.2029 19.1537 27.2796 19.1537 25.3563 19.1537 23.7971 20.7129 23.7971 22.6362 23.7971 24.5595 25.3563 26.1187 27.2796 26.1187Z" stroke="#66737C" stroke-width="3.57143" stroke-linecap="round" stroke-linejoin="round" stroke-miterlimit="10"/><path d="M38.8877 22.6362 30.7621 22.6362" stroke="#66737C" stroke-width="3.57143" stroke-linecap="round" stroke-linejoin="round" stroke-miterlimit="10"/><path d="M6.38458 30.7621 6.38458 14.5104" stroke="#66737C" stroke-width="3.57143" stroke-linecap="round" stroke-linejoin="round" stroke-miterlimit="10"/><path d="M47.2371 46.9833C48.5024 46.9833 49.5283 45.9576 49.5283 44.6923 49.5283 43.4268 48.5024 42.4011 47.2371 42.4011 45.9718 42.4011 44.9458 43.4268 44.9458 44.6923 44.9458 45.9576 45.9718 46.9833 47.2371 46.9833Z" stroke="#66737C" stroke-width="3.57143" stroke-linecap="round" stroke-linejoin="round" stroke-miterlimit="10"/></svg>