<svg width="60" height="60" viewBox="-1.875 -1.875 60 60" xmlns="http://www.w3.org/2000/svg" xmlns:xlink="http://www.w3.org/1999/xlink" id="Amazon-Cloud-Front--Streamline-Ultimate" fill="none" overflow="hidden"><path d="M16.4064 31.6406C18.9952 31.6406 21.0939 29.542 21.0939 26.9531 21.0939 24.3642 18.9952 22.2656 16.4064 22.2656 13.8176 22.2656 11.7189 24.3642 11.7189 26.9531 11.7189 29.542 13.8176 31.6406 16.4064 31.6406Z" stroke="#66737C" stroke-width="3.33333" stroke-linecap="round" stroke-linejoin="round" stroke-miterlimit="10"/><path d="M30.469 12.8906C33.0577 12.8906 35.1565 10.792 35.1565 8.20312 35.1565 5.61429 33.0577 3.51562 30.469 3.51562 27.8801 3.51562 25.7815 5.61429 25.7815 8.20312 25.7815 10.792 27.8801 12.8906 30.469 12.8906Z" stroke="#66737C" stroke-width="3.33333" stroke-linecap="round" stroke-linejoin="round" stroke-miterlimit="10"/><path d="M45.7034 44.5312C48.292 44.5312 50.3909 42.4327 50.3909 39.8438 50.3909 37.2548 48.292 35.1562 45.7034 35.1562 43.1145 35.1562 41.0159 37.2548 41.0159 39.8438 41.0159 42.4327 43.1145 44.5312 45.7034 44.5312Z" stroke="#66737C" stroke-width="3.33333" stroke-linecap="round" stroke-linejoin="round" stroke-miterlimit="10"/><path d="M1.87497 30.7045C4.92185 29.5327 8.43748 28.8295 11.9531 28.3608" stroke="#66737C" stroke-width="3.33333" stroke-linecap="round" stroke-linejoin="round" stroke-miterlimit="10"/><path d="M17.6331 22.4304C19.7397 17.7753 22.7828 13.5857 26.2941 10.3271" stroke="#66737C" stroke-width="3.33333" stroke-linecap="round" stroke-linejoin="round" stroke-miterlimit="10"/><path d="M35.0646 9.15527C42.1659 15.6379 47.1366 25.0017 48.0834 35.8062" stroke="#66737C" stroke-width="3.33333" stroke-linecap="round" stroke-linejoin="round" stroke-miterlimit="10"/><path d="M20.8832 28.3631C29.565 29.3027 36.8388 32.5913 41.7663 37.2895" stroke="#66737C" stroke-width="3.33333" stroke-linecap="round" stroke-linejoin="round" stroke-miterlimit="10"/><path d="M15.4633 51.2604C14.5295 47.757 14.0626 43.7862 14.0626 39.8156 14.0626 37.0127 14.2961 34.2101 14.763 31.4072" stroke="#66737C" stroke-width="3.33333" stroke-linecap="round" stroke-linejoin="round" stroke-miterlimit="10"/><path d="M28.125 54.4922C42.6872 54.4922 54.4922 42.6872 54.4922 28.125 54.4922 13.5628 42.6872 1.75781 28.125 1.75781 13.5628 1.75781 1.75781 13.5628 1.75781 28.125 1.75781 42.6872 13.5628 54.4922 28.125 54.4922Z" stroke="#66737C" stroke-width="3.33333" stroke-linecap="round" stroke-linejoin="round" stroke-miterlimit="10"/></svg>