<svg width="60" height="60" viewBox="-1.875 -1.875 60 60" xmlns="http://www.w3.org/2000/svg" xmlns:xlink="http://www.w3.org/1999/xlink" id="Amazon-Web-Service-Internet-Of-Thing-Device-Defender-1--Streamline-Ultimate" fill="none" overflow="hidden"><path d="M14.0625 29.4141C16.0041 29.4141 17.5782 27.8402 17.5782 25.8984 17.5782 23.9569 16.0041 22.3829 14.0625 22.3829 12.1209 22.3829 10.5469 23.9569 10.5469 25.8984 10.5469 27.8402 12.1209 29.4141 14.0625 29.4141Z" stroke="#66737C" stroke-width="3.33333" stroke-linecap="round" stroke-linejoin="round" stroke-miterlimit="10"/><path d="M28.125 17.6954C30.0666 17.6954 31.6406 16.1214 31.6406 14.1798 31.6406 12.2382 30.0666 10.6642 28.125 10.6642 26.1834 10.6642 24.6094 12.2382 24.6094 14.1798 24.6094 16.1214 26.1834 17.6954 28.125 17.6954Z" stroke="#66737C" stroke-width="3.33333" stroke-linecap="round" stroke-linejoin="round" stroke-miterlimit="10"/><path d="M28.125 17.6954 28.125 43.4766" stroke="#66737C" stroke-width="3.33333" stroke-linecap="round" stroke-linejoin="round" stroke-miterlimit="10"/><path d="M17.5781 25.8984 19.4531 25.8984C20.8594 25.8984 21.7969 26.8359 21.7969 28.2422L21.7969 43.4766" stroke="#66737C" stroke-width="3.33333" stroke-linecap="round" stroke-linejoin="round" stroke-miterlimit="10"/><path d="M42.1875 29.4141C44.1291 29.4141 45.7031 27.8402 45.7031 25.8984 45.7031 23.9569 44.1291 22.3829 42.1875 22.3829 40.2459 22.3829 38.6719 23.9569 38.6719 25.8984 38.6719 27.8402 40.2459 29.4141 42.1875 29.4141Z" stroke="#66737C" stroke-width="3.33333" stroke-linecap="round" stroke-linejoin="round" stroke-miterlimit="10"/><path d="M38.6721 25.8984 37.0312 25.8984C35.625 25.8984 34.6875 26.8359 34.6875 28.2422L34.6875 43.4766" stroke="#66737C" stroke-width="3.33333" stroke-linecap="round" stroke-linejoin="round" stroke-miterlimit="10"/><path d="M5.39074 9.24949 5.39074 27.0422C5.39074 38.5139 12.422 48.8149 23.2032 53.029L25.5471 53.9653C27.1877 54.6677 29.0625 54.6677 30.7031 53.9653L33.0469 53.029C43.8281 48.8149 50.8594 38.5139 50.8594 27.0422L50.8594 9.24949C50.8594 7.84479 50.1562 6.67423 48.75 5.97188 45.4688 4.33305 37.969 1.75781 27.8909 1.75781 17.8126 1.75781 10.547 4.56717 7.03137 5.97188 6.09387 6.67423 5.39074 7.84479 5.39074 9.24949Z" stroke="#66737C" stroke-width="3.33333" stroke-linecap="round" stroke-linejoin="round" stroke-miterlimit="10"/></svg>