<svg width="60" height="60" viewBox="-1.875 -1.875 60 60" xmlns="http://www.w3.org/2000/svg" xmlns:xlink="http://www.w3.org/1999/xlink" id="Amazon-Inspector--Streamline-Ultimate" fill="none" overflow="hidden"><path d="M28.7112 46.7573C38.6782 46.7573 46.7578 38.6775 46.7578 28.7105 46.7578 18.7435 38.6782 10.6636 28.7112 10.6636 18.7441 10.6636 10.6642 18.7435 10.6642 28.7105 10.6642 38.6775 18.7441 46.7573 28.7112 46.7573Z" stroke="#66737C" stroke-width="3.33333" stroke-linecap="round" stroke-linejoin="round" stroke-miterlimit="10"/><path d="M54.4924 54.492 41.6018 41.367" stroke="#66737C" stroke-width="3.33333" stroke-linecap="round" stroke-linejoin="round" stroke-miterlimit="10"/><path d="M22.3829 25.6622C25.6191 25.6622 28.2422 23.0389 28.2422 19.8029 28.2422 16.5668 25.6191 13.9435 22.3829 13.9435 19.1469 13.9435 16.5236 16.5668 16.5236 19.8029 16.5236 23.0389 19.1469 25.6622 22.3829 25.6622Z" stroke="#66737C" stroke-width="3.33333" stroke-linecap="round" stroke-linejoin="round" stroke-miterlimit="10"/><path d="M5.97668 8.78906C7.91831 8.78906 9.4923 7.21507 9.4923 5.27344 9.4923 3.3318 7.91831 1.75781 5.97668 1.75781 4.03505 1.75781 2.46105 3.3318 2.46105 5.27344 2.46105 7.21507 4.03505 8.78906 5.97668 8.78906Z" stroke="#66737C" stroke-width="3.33333" stroke-linecap="round" stroke-linejoin="round" stroke-miterlimit="10"/><path d="M5.27344 47.4609C7.21507 47.4609 8.78906 45.8869 8.78906 43.9453 8.78906 42.0037 7.21507 40.4297 5.27344 40.4297 3.3318 40.4297 1.75781 42.0037 1.75781 43.9453 1.75781 45.8869 3.3318 47.4609 5.27344 47.4609Z" stroke="#66737C" stroke-width="3.33333" stroke-linecap="round" stroke-linejoin="round" stroke-miterlimit="10"/><path d="M22.3829 38.0859C24.3246 38.0859 25.8984 36.5119 25.8984 34.5703 25.8984 32.6287 24.3246 31.0547 22.3829 31.0547 20.4413 31.0547 18.8673 32.6287 18.8673 34.5703 18.8673 36.5119 20.4413 38.0859 22.3829 38.0859Z" stroke="#66737C" stroke-width="3.33333" stroke-linecap="round" stroke-linejoin="round" stroke-miterlimit="10"/><path d="M36.4453 33.8653C38.3871 33.8653 39.9609 32.2912 39.9609 30.3497 39.9609 28.4081 38.3871 26.8341 36.4453 26.8341 34.5037 26.8341 32.9297 28.4081 32.9297 30.3497 32.9297 32.2912 34.5037 33.8653 36.4453 33.8653Z" stroke="#66737C" stroke-width="3.33333" stroke-linecap="round" stroke-linejoin="round" stroke-miterlimit="10"/><path d="M25.8152 33.6028 33.142 31.5422" stroke="#66737C" stroke-width="3.33333" stroke-linecap="round" stroke-linejoin="round" stroke-miterlimit="10"/><path d="M22.3829 25.6622 22.3829 31.0547" stroke="#66737C" stroke-width="3.33333" stroke-linecap="round" stroke-linejoin="round" stroke-miterlimit="10"/><path d="M8.62427 42.8559 14.5477 39.8941" stroke="#66737C" stroke-width="3.33333" stroke-linecap="round" stroke-linejoin="round" stroke-miterlimit="10"/><path d="M8.55473 7.61719 12.5391 10.664" stroke="#66737C" stroke-width="3.33333" stroke-linecap="round" stroke-linejoin="round" stroke-miterlimit="10"/></svg>