<svg width="60" height="60" viewBox="-1.875 -1.875 60 60" xmlns="http://www.w3.org/2000/svg" xmlns:xlink="http://www.w3.org/1999/xlink" id="Amazon-Timestream--Streamline-Ultimate" fill="none" overflow="hidden"><path d="M20.039 17.6953C30.1355 17.6953 38.3203 14.1276 38.3203 9.72656 38.3203 5.32554 30.1355 1.75781 20.039 1.75781 9.94259 1.75781 1.75781 5.32554 1.75781 9.72656 1.75781 14.1276 9.94259 17.6953 20.039 17.6953Z" stroke="#66737C" stroke-width="3.33333" stroke-linecap="round" stroke-linejoin="round" stroke-miterlimit="10"/><path d="M38.3203 19.8047 38.3203 9.72661" stroke="#66737C" stroke-width="3.33333" stroke-linecap="round" stroke-linejoin="round" stroke-miterlimit="10"/><path d="M1.75781 9.72661 1.75781 21.9141C1.75781 26.3672 9.96091 29.8828 20.039 29.8828" stroke="#66737C" stroke-width="3.33333" stroke-linecap="round" stroke-linejoin="round" stroke-miterlimit="10"/><path d="M1.75781 21.6797 1.75781 33.8672C1.75781 38.3203 9.96091 41.8359 20.039 41.8359L22.3828 41.8359" stroke="#66737C" stroke-width="3.33333" stroke-linecap="round" stroke-linejoin="round" stroke-miterlimit="10"/><path d="M29.8828 29.4141 29.8828 54.4922 54.4922 54.4922" stroke="#66737C" stroke-width="3.33333" stroke-linecap="round" stroke-linejoin="round" stroke-miterlimit="10"/><path d="M29.8676 50.992 39.258 41.6016 45.1174 47.4609 54.4755 38.1028" stroke="#66737C" stroke-width="3.33333" stroke-linecap="round" stroke-linejoin="round" stroke-miterlimit="10"/><path d="M48.6328 38.0859 54.4922 38.0859 54.4922 43.9453" stroke="#66737C" stroke-width="3.33333" stroke-linecap="round" stroke-linejoin="round" stroke-miterlimit="10"/><path d="M29.8845 39.2566 38.5549 30.5859 42.7737 34.5703" stroke="#66737C" stroke-width="3.33333" stroke-linecap="round" stroke-linejoin="round" stroke-miterlimit="10"/></svg>