<svg width="60" height="60" viewBox="-2.14 -2.14 60 60" xmlns="http://www.w3.org/2000/svg" xmlns:xlink="http://www.w3.org/1999/xlink" id="Amazon-Pin-Location--Streamline-Ultimate.svg" fill="none" overflow="hidden"><path d="M40.8613 32.3875C48.2907 34.477 53.3983 38.1917 53.3983 42.3706 53.3983 48.8713 42.0222 53.979 27.86 53.979 13.6978 53.979 2.32167 48.8713 2.32167 42.3706 2.32167 37.9595 7.89367 34.0126 16.2517 32.1553" stroke="#66737C" stroke-width="3.57143" stroke-linecap="round" stroke-linejoin="round" stroke-miterlimit="10"/><path d="M36.218 38.656C39.4683 39.5846 41.79 40.7457 41.79 42.3709 41.79 44.9247 35.5215 47.0142 27.86 47.0142 20.1985 47.0142 13.93 44.9247 13.93 42.3709 13.93 40.7457 16.2517 39.3525 19.7342 38.656" stroke="#66737C" stroke-width="3.57143" stroke-linecap="round" stroke-linejoin="round" stroke-miterlimit="10"/><path d="M28.0924 12.1893C28.5567 12.1893 29.0211 12.6536 29.0211 13.118 29.0211 13.5823 28.5567 14.0466 28.0924 14.0466" stroke="#66737C" stroke-width="3.57143" stroke-linecap="round" stroke-linejoin="round" stroke-miterlimit="10"/><path d="M28.0926 12.1893C27.6283 12.1893 27.164 12.6536 27.164 13.118 27.164 13.5823 27.6283 14.0466 28.0926 14.0466" stroke="#66737C" stroke-width="3.57143" stroke-linecap="round" stroke-linejoin="round" stroke-miterlimit="10"/><path d="M28.0924 1.74182C35.0574 1.74182 40.8616 7.54597 40.8616 14.511 40.8616 19.8508 33.2001 30.2982 29.7176 34.7094 29.2532 35.1737 28.7889 35.6383 28.0924 35.6383 27.3959 35.6383 26.9316 35.4059 26.4672 34.7094 22.9847 30.2982 15.3232 19.8508 15.3232 14.511 15.3232 7.54597 21.1274 1.74182 28.0924 1.74182Z" stroke="#66737C" stroke-width="3.57143" stroke-linecap="round" stroke-linejoin="round" stroke-miterlimit="10"/></svg>