<svg width="60" height="60" viewBox="-2.14 -2.14 60 60" xmlns="http://www.w3.org/2000/svg" xmlns:xlink="http://www.w3.org/1999/xlink" id="Amazon-Pinpoint--Streamline-Ultimate.svg" fill="none" overflow="hidden"><path d="M51.4251 20.3146C52.3538 22.8684 52.8181 25.6544 52.8181 28.4404 52.8181 42.6026 41.442 53.9787 27.2798 53.9787 13.1176 53.9787 1.74139 42.6026 1.74139 28.4404 1.74139 14.2782 13.1176 2.90208 27.2798 2.90208 30.0658 2.90208 32.8518 3.36644 35.4056 4.29511" stroke="#66737C" stroke-width="3.57143" stroke-linecap="round" stroke-linejoin="round" stroke-miterlimit="10"/><path d="M42.3706 22.6362C43.0672 24.4936 43.5315 26.3509 43.5315 28.4404 43.5315 37.4949 36.3343 44.6921 27.2798 44.6921 18.2252 44.6921 11.0281 37.4949 11.0281 28.4404 11.0281 19.3859 18.2252 12.1888 27.2798 12.1888 29.3693 12.1888 31.2266 12.6531 33.084 13.3496" stroke="#66737C" stroke-width="3.57143" stroke-linecap="round" stroke-linejoin="round" stroke-miterlimit="10"/><path d="M33.7805 30.5299C32.8518 33.3159 30.298 35.1732 27.2798 35.1732 23.333 35.1732 20.3147 32.1551 20.3147 28.2083 20.3147 25.1901 22.4042 22.4041 25.1903 21.4754" stroke="#66737C" stroke-width="3.57143" stroke-linecap="round" stroke-linejoin="round" stroke-miterlimit="10"/><path d="M28.4402 27.2798 44.0754 11.6446" stroke="#66737C" stroke-width="3.57143" stroke-linecap="round" stroke-linejoin="round" stroke-miterlimit="10"/><path d="M48.1744 13.3496C51.3801 13.3496 53.9785 10.751 53.9785 7.54542 53.9785 4.33987 51.3801 1.74125 48.1744 1.74125 44.9688 1.74125 42.3702 4.33987 42.3702 7.54542 42.3702 10.751 44.9688 13.3496 48.1744 13.3496Z" stroke="#66737C" stroke-width="3.57143" stroke-linecap="round" stroke-linejoin="round" stroke-miterlimit="10"/></svg>