<svg width="60" height="60" viewBox="-2.14 -2.14 60 60" xmlns="http://www.w3.org/2000/svg" xmlns:xlink="http://www.w3.org/1999/xlink" id="Ambulance-Call--Streamline-Ultimate.svg" overflow="hidden"><path d="M12.9015 38.8577 16.8623 42.8185C20.4555 46.4144 24.4314 49.6063 28.719 52.3373L28.7422 52.3513C32.8742 54.9831 38.28 54.3904 41.7436 50.9258L43.2039 49.4631C44.5634 48.1032 44.5634 45.8988 43.2039 44.5389L37.0492 38.3818C35.6896 37.0214 33.4846 37.0206 32.1242 38.3802 32.1236 38.3807 32.1231 38.3813 32.1226 38.3818L32.1226 38.3818C30.7627 39.7413 28.5582 39.7413 27.1983 38.3818L17.3452 28.5263C15.9857 27.1664 15.9857 24.962 17.3452 23.6021L17.3452 23.6021C18.7056 22.2425 18.7063 20.0375 17.3467 18.6771 17.3462 18.6765 17.3457 18.676 17.3452 18.6755L11.1881 12.5207C9.8282 11.1612 7.62377 11.1612 6.26386 12.5207L4.80121 13.9811C1.33656 17.4446 0.743851 22.8504 3.3757 26.9824L3.38963 27.0056C6.11876 31.2912 9.30834 35.2656 12.9015 38.8577Z" stroke="#66737C" stroke-width="3.57143" stroke-linecap="round" stroke-linejoin="round" fill="none"/><path d="M53.9787 10.4475C53.9787 9.48583 53.1992 8.70625 52.2375 8.70625L47.0137 8.70625 47.0137 3.4825C47.0137 2.52083 46.2342 1.74125 45.2725 1.74125L38.3075 1.74125C37.3458 1.74125 36.5662 2.52083 36.5662 3.4825L36.5662 8.70625 31.3425 8.70625C30.3808 8.70625 29.6013 9.48583 29.6013 10.4475L29.6012 17.4125C29.6012 18.3742 30.3808 19.1537 31.3425 19.1537L36.5662 19.1537 36.5662 24.3775C36.5662 25.3392 37.3458 26.1187 38.3075 26.1187L45.2725 26.1187C46.2342 26.1187 47.0137 25.3392 47.0137 24.3775L47.0137 19.1537 52.2375 19.1537C53.1992 19.1537 53.9787 18.3742 53.9787 17.4125Z" stroke="#66737C" stroke-width="3.57143" stroke-linecap="round" stroke-linejoin="round" fill="none"/></svg>