<svg width="60" height="60" viewBox="-1.875 -1.875 60 60" xmlns="http://www.w3.org/2000/svg" xmlns:xlink="http://www.w3.org/1999/xlink" id="American-Football-Helmet--Streamline-Ultimate" overflow="hidden"><path d="M25.1648 43.0758 30.9539 49.6898C33.6245 52.742 37.4827 54.4925 41.5383 54.4922L47.4609 54.4922C51.3442 54.4922 54.4922 51.3442 54.4922 47.4609L54.4922 43.9453C54.4922 42.0037 52.9182 40.4297 50.9766 40.4297L26.3672 40.4297" stroke="#66737C" stroke-width="3.57143" stroke-linecap="round" stroke-linejoin="round" fill="none"/><path d="M19.3359 40.4297C19.3359 42.3713 20.9099 43.9453 22.8516 43.9453 24.7932 43.9453 26.3672 42.3713 26.3672 40.4297 26.3672 38.4881 24.7932 36.9141 22.8516 36.9141 20.9099 36.9141 19.3359 38.4881 19.3359 40.4297Z" stroke="#66737C" stroke-width="3.57143" stroke-linecap="round" stroke-linejoin="round" fill="none"/><path d="M22.8516 36.9141 22.8516 33.3984C22.8516 25.6319 29.1476 19.3359 36.9141 19.3359L53.0414 19.3359" stroke="#66737C" stroke-width="3.57143" stroke-linecap="round" stroke-linejoin="round" fill="none"/><path d="M26.2195 54.4242C11.6964 53.3411 0.801053 40.6897 1.88415 26.1666 2.96725 11.6434 15.6186 0.748107 30.1418 1.83121 40.5708 2.60897 49.5547 9.47635 53.0414 19.3359 54.0135 22.08 52.5771 25.0925 49.833 26.0646 49.2677 26.2649 48.6724 26.3672 48.0727 26.3672L36.9141 26.3672C33.0308 26.3672 29.8828 29.5152 29.8828 33.3984" stroke="#66737C" stroke-width="3.57143" stroke-linecap="round" stroke-linejoin="round" fill="none"/><path d="M36.9141 40.4297 36.9141 47.4609C36.9169 49.4443 36.0788 51.336 34.6078 52.6664" stroke="#66737C" stroke-width="3.57143" stroke-linecap="round" stroke-linejoin="round" fill="none"/><path d="M47.4609 40.4297 47.4609 47.4609C47.4618 51.1628 44.5921 54.2313 40.8984 54.4781" stroke="#66737C" stroke-width="3.57143" stroke-linecap="round" stroke-linejoin="round" fill="none"/></svg>