<svg width="60" height="60" viewBox="-2.14 -2.14 60 60" xmlns="http://www.w3.org/2000/svg" xmlns:xlink="http://www.w3.org/1999/xlink" id="American-Football-Helmet--Streamline-Ultimate.svg" overflow="hidden"><path d="M24.9277 42.6699 30.6623 49.2217C33.3077 52.245 37.1296 53.9791 41.1469 53.9788L47.0137 53.9787C50.8604 53.9787 53.9787 50.8604 53.9787 47.0137L53.9787 43.5312C53.9787 41.6079 52.4196 40.0488 50.4963 40.0488L26.1187 40.0488" stroke="#66737C" stroke-width="3.57143" stroke-linecap="round" stroke-linejoin="round" fill="none"/><path d="M19.1537 40.0488C19.1537 41.9721 20.7129 43.5312 22.6362 43.5312 24.5596 43.5312 26.1187 41.9721 26.1187 40.0488 26.1187 38.1254 24.5596 36.5663 22.6362 36.5663 20.7129 36.5663 19.1537 38.1254 19.1537 40.0488Z" stroke="#66737C" stroke-width="3.57143" stroke-linecap="round" stroke-linejoin="round" fill="none"/><path d="M22.6362 36.5662 22.6362 33.0838C22.6362 25.3904 28.8729 19.1538 36.5662 19.1538L52.5416 19.1537" stroke="#66737C" stroke-width="3.57143" stroke-linecap="round" stroke-linejoin="round" fill="none"/><path d="M25.9725 53.9114C11.5862 52.8385 0.793504 40.3064 1.8664 25.92 2.93929 11.5337 15.4715 0.741062 29.8578 1.81396 40.1885 2.5844 49.0877 9.38706 52.5416 19.1538 53.5046 21.8719 52.0817 24.8561 49.3635 25.819 48.8035 26.0174 48.2138 26.1188 47.6197 26.1187L36.5662 26.1187C32.7196 26.1187 29.6012 29.2371 29.6012 33.0837" stroke="#66737C" stroke-width="3.57143" stroke-linecap="round" stroke-linejoin="round" fill="none"/><path d="M36.5662 40.0488 36.5662 47.0137C36.569 48.9785 35.7388 50.8523 34.2817 52.1702" stroke="#66737C" stroke-width="3.57143" stroke-linecap="round" stroke-linejoin="round" fill="none"/><path d="M47.0137 40.0488 47.0137 47.0137C47.0146 50.6808 44.172 53.7203 40.5131 53.9648" stroke="#66737C" stroke-width="3.57143" stroke-linecap="round" stroke-linejoin="round" fill="none"/></svg>