<svg width="60" height="60" viewBox="-1.875 -1.875 60 60" xmlns="http://www.w3.org/2000/svg" xmlns:xlink="http://www.w3.org/1999/xlink" id="American-Football-Score--Streamline-Ultimate" overflow="hidden"><path d="M19.3359 28.125 19.3359 29.8828C19.3359 31.8244 20.9099 33.3984 22.8516 33.3984L50.9766 33.3984C52.9182 33.3984 54.4922 31.8244 54.4922 29.8828L54.4922 5.27344" stroke="#66737C" stroke-width="3.57143" stroke-linecap="round" stroke-linejoin="round" fill="none"/><path d="M19.3359 5.27344 19.3359 12.3047" stroke="#66737C" stroke-width="3.57143" stroke-linecap="round" stroke-linejoin="round" fill="none"/><path d="M36.9141 33.3984 36.9141 50.9766" stroke="#66737C" stroke-width="3.57143" stroke-linecap="round" stroke-linejoin="round" fill="none"/><path d="M26.3672 50.9766 47.4609 50.9766" stroke="#66737C" stroke-width="3.57143" stroke-linecap="round" stroke-linejoin="round" fill="none"/><path d="M16.5141 22.8563C10.4039 27.382 3.51562 35.1562 1.75781 50.9766" stroke="#66737C" stroke-width="3.57143" stroke-linecap="round" stroke-linejoin="round" fill="none"/><path d="M23.0264 19.1349C23.5118 21.0149 26.9534 21.7519 30.7133 20.781 34.4733 19.8102 37.1278 17.4991 36.6423 15.6192 36.1569 13.7392 32.7154 13.0022 28.9554 13.9731 25.1955 14.9439 22.541 17.2549 23.0264 19.1349Z" stroke="#66737C" stroke-width="3.57143" stroke-linecap="round" stroke-linejoin="round" fill="none"/></svg>