<svg width="60" height="60" viewBox="-1.875 -1.875 60 60" xmlns="http://www.w3.org/2000/svg" xmlns:xlink="http://www.w3.org/1999/xlink" id="Animal-Products-Cheese--Streamline-Ultimate" fill="none" overflow="hidden"><path d="M1.75781 26.6039 28.7531 2.88745C29.1105 2.57058 29.5284 2.32937 29.9815 2.17832 30.4348 2.02727 30.9138 1.96952 31.3898 2.00854 41.7023 2.95777 49.9266 7.91245 54.4922 19.5726" stroke="#66737C" stroke-width="3.33333" stroke-linecap="round" stroke-linejoin="round"/><path d="M1.75781 26.6039 1.75781 36.1242C1.75771 36.8084 1.95723 37.4775 2.33191 38.0501 2.70659 38.6224 3.24016 39.0731 3.86719 39.3469 4.8897 39.7934 5.7443 40.5525 6.30818 41.5153 6.87209 42.4781 7.11623 43.5947 7.00554 44.7049 6.89487 45.8152 6.43505 46.8619 5.69217 47.6944 4.9493 48.5269 3.96162 49.1023 2.87109 49.3383 2.55602 49.4053 2.27353 49.5785 2.07089 49.8291 1.86824 50.0794 1.75772 50.3918 1.75781 50.7141 1.75768 51.2154 1.86478 51.7109 2.07192 52.1674 2.27907 52.624 2.58145 53.0309 2.95882 53.3611 3.33619 53.6911 3.77977 53.9367 4.25984 54.0811 4.73988 54.2257 5.24531 54.266 5.74219 54.1992L51.4453 48.1055C52.2891 47.9918 53.063 47.576 53.6234 46.935 54.1838 46.294 54.4924 45.4716 54.4922 44.6203L54.4922 19.5725 1.75781 26.6039Z" stroke="#66737C" stroke-width="3.33333" stroke-linecap="round" stroke-linejoin="round"/><path d="M25.4883 45.9398C27.9152 45.9398 29.8828 43.9723 29.8828 41.5453 29.8828 39.1181 27.9152 37.1508 25.4883 37.1508 23.0613 37.1508 21.0938 39.1181 21.0938 41.5453 21.0938 43.9723 23.0613 45.9398 25.4883 45.9398Z" stroke="#66737C" stroke-width="3.33333" stroke-linecap="round" stroke-linejoin="round"/><path d="M43.0664 35.393C45.4934 35.393 47.4609 33.4254 47.4609 30.9984 47.4609 28.5713 45.4934 26.6039 43.0664 26.6039 40.6395 26.6039 38.6719 28.5713 38.6719 30.9984 38.6719 33.4254 40.6395 35.393 43.0664 35.393Z" stroke="#66737C" stroke-width="3.33333" stroke-linecap="round" stroke-linejoin="round"/><path d="M30.7617 31.8773C30.2763 31.8773 29.8828 31.4838 29.8828 30.9984 29.8828 30.5128 30.2763 30.1195 30.7617 30.1195" stroke="#66737C" stroke-width="3.33333"/><path d="M30.7617 31.8773C31.2471 31.8773 31.6406 31.4838 31.6406 30.9984 31.6406 30.5128 31.2471 30.1195 30.7617 30.1195" stroke="#66737C" stroke-width="3.33333"/><path d="M39.5508 44.1797C39.0654 44.1797 38.6719 43.7862 38.6719 43.3008 38.6719 42.8154 39.0654 42.4219 39.5508 42.4219" stroke="#66737C" stroke-width="3.33333"/><path d="M39.5508 44.1797C40.0362 44.1797 40.4297 43.7862 40.4297 43.3008 40.4297 42.8154 40.0362 42.4219 39.5508 42.4219" stroke="#66737C" stroke-width="3.33333"/><g><path d="M14.9414 33.6352C14.456 33.6352 14.0625 33.2416 14.0625 32.7562 14.0625 32.2706 14.456 31.8773 14.9414 31.8773" stroke="#66737C" stroke-width="3.33333"/><path d="M14.9414 33.6352C15.4268 33.6352 15.8203 33.2416 15.8203 32.7562 15.8203 32.2706 15.4268 31.8773 14.9414 31.8773" stroke="#66737C" stroke-width="3.33333"/></g></svg>