<svg width="44.8" height="44.8" viewBox="-1.6 -1.6 44.8 44.8" xmlns="http://www.w3.org/2000/svg" xmlns:xlink="http://www.w3.org/1999/xlink" id="Announcement-Megaphone--Streamline-Core" fill="none" overflow="hidden"><g id="announcement-megaphone"><path d="M20.9397 11.0076 32.5514 31.1198" id="Vector" stroke="#66737C" stroke-width="2.67857" stroke-linecap="round" stroke-linejoin="round"/><path d="M31.9435 30.0631 3.31909 36.7096 1.48571 33.5341 21.5541 12.068" id="Vector_2" stroke="#66737C" stroke-width="2.67857" stroke-linecap="round" stroke-linejoin="round"/><path d="M9.54598 35.2622 11.1221 37.9921C11.6939 38.9721 12.6316 39.6849 13.7289 39.9734 14.8262 40.2623 15.9932 40.103 16.9732 39.5313 17.9532 38.9596 18.6659 38.0218 18.9546 36.9245 19.2432 35.8271 19.0841 34.6602 18.5124 33.6803L18.2599 33.2432" id="Vector_3" stroke="#66737C" stroke-width="2.67857" stroke-linecap="round" stroke-linejoin="round"/><path d="M20.7988 5.48339 20.7988 1.48571" id="Vector 591" stroke="#66737C" stroke-width="2.67857" stroke-linecap="round" stroke-linejoin="round"/><path d="M36.1165 20.8015 40.1143 20.8015" id="Vector 602" stroke="#66737C" stroke-width="2.67857" stroke-linecap="round" stroke-linejoin="round"/><path d="M1.48608 20.8015 5.48374 20.8015" id="Vector 603" stroke="#66737C" stroke-width="2.67857" stroke-linecap="round" stroke-linejoin="round"/><path d="M7.13886 7.14328 9.96561 9.97006" id="Vector 605" stroke="#66737C" stroke-width="2.67857" stroke-linecap="round" stroke-linejoin="round"/><path d="M31.6309 9.96932 34.4576 7.14257" id="Vector 600" stroke="#66737C" stroke-width="2.67857" stroke-linecap="round" stroke-linejoin="round"/></g></svg>