<svg width="60" height="60" viewBox="-1.875 -1.875 60 60" xmlns="http://www.w3.org/2000/svg" xmlns:xlink="http://www.w3.org/1999/xlink" id="Arrow-Thick-Circle-Down-1--Streamline-Ultimate" overflow="hidden"><path d="M1.75781 28.125C1.75781 42.6872 13.5628 54.4922 28.125 54.4922 42.6872 54.4922 54.4922 42.6872 54.4922 28.125 54.4922 13.5628 42.6872 1.75781 28.125 1.75781 13.5628 1.75781 1.75781 13.5628 1.75781 28.125Z" stroke="#66737C" stroke-width="3.57143" stroke-linecap="round" stroke-linejoin="round" fill="none"/><path d="M24.6094 12.3047C23.6386 12.3047 22.8516 13.0917 22.8516 14.0625L22.8516 29.8828 18.8203 25.8516C18.1352 25.1655 17.0237 25.1647 16.3377 25.8498 16.3371 25.8504 16.3365 25.851 16.3359 25.8516L13.5469 28.6406C12.8608 29.3257 12.86 30.4372 13.5451 31.1232 13.5457 31.1238 13.5463 31.1244 13.5469 31.125L26.8828 44.4609C27.5679 45.147 28.6794 45.1478 29.3654 44.4627 29.366 44.4621 29.3666 44.4615 29.3672 44.4609L42.7031 31.125C43.3892 30.4399 43.39 29.3284 42.7049 28.6424 42.7043 28.6418 42.7037 28.6412 42.7031 28.6406L39.9141 25.8516C39.229 25.1655 38.1175 25.1647 37.4315 25.8498 37.4309 25.8504 37.4303 25.851 37.4297 25.8516L33.3984 29.8828 33.3984 14.0625C33.3984 13.0917 32.6114 12.3047 31.6406 12.3047Z" stroke="#66737C" stroke-width="3.57143" stroke-linecap="round" stroke-linejoin="round" fill="none"/></svg>