<svg width="60" height="60" viewBox="-1.875 -1.875 60 60" xmlns="http://www.w3.org/2000/svg" xmlns:xlink="http://www.w3.org/1999/xlink" id="Artificial-Intelligence-Robot--Streamline-Ultimate" fill="none" overflow="hidden"><path d="M25.4836 46.9666C25.4836 50.8573 22.3431 53.9979 18.4525 53.9979 14.5618 53.9979 11.4212 50.8573 11.4212 46.9666 11.4212 46.4979 11.4681 46.0526 11.5618 45.6073 11.14 45.7245 10.7181 45.7948 10.2493 45.7948 7.67121 45.7948 5.56184 43.6854 5.56184 41.1073 5.56184 39.6776 6.19465 38.412 7.20246 37.5448 4.29621 37.1932 2.0462 34.7323 2.0462 31.7323 2.0462 28.7323 4.29621 26.2713 7.20246 25.9198 6.19465 25.0526 5.56184 23.787 5.56184 22.3572 5.56184 19.779 7.67121 17.6697 10.2493 17.6697 10.8353 17.6697 11.4212 17.7869 11.9368 17.9744 11.6087 17.154 11.4212 16.2634 11.4212 15.3259 11.4212 11.4353 14.5618 8.29467 18.4525 8.29467 22.3431 8.29467 25.4836 11.4353 25.4836 15.3259" stroke="#66737C" stroke-width="3.33333" stroke-linecap="round" stroke-linejoin="round"/><path d="M25.4836 46.9673C25.4836 50.858 28.6242 53.9986 32.5148 53.9986 36.4055 53.9986 39.5461 50.858 39.5461 46.9673 39.5461 46.4986 39.4992 46.0533 39.4055 45.608 39.8273 45.7252 40.2492 45.7955 40.718 45.7955 43.2961 45.7955 45.4055 43.6861 45.4055 41.108 45.4055 39.6783 44.7727 38.4127 43.7648 37.5455 46.6711 37.1939 48.9211 34.733 48.9211 31.733M25.4836 15.3267C25.4836 13.4426 26.2202 11.7345 27.4216 10.4736" stroke="#66737C" stroke-width="3.33333" stroke-linecap="round" stroke-linejoin="round"/><path d="M25.4836 46.9758 25.4836 14.5752" stroke="#66737C" stroke-width="3.33333" stroke-linecap="round"/><path d="M7.09533 25.9509C9.86063 25.7559 11.3465 26.809 12.3515 28.4958" stroke="#66737C" stroke-width="3.33333" stroke-linecap="round" stroke-linejoin="round"/><path d="M11.5402 45.6141C14.4339 44.8378 15.8481 43.0355 16.4186 41.4002" stroke="#66737C" stroke-width="3.33333" stroke-linecap="round" stroke-linejoin="round"/><path d="M39.4273 45.6141C36.5334 44.8378 35.1195 43.0355 34.5488 41.4002" stroke="#66737C" stroke-width="3.33333" stroke-linecap="round" stroke-linejoin="round"/><path d="M25.4836 15.1978C25.4836 19.1582 22.1329 21.3586 20.3476 21.5607" stroke="#66737C" stroke-width="3.33333" stroke-linecap="round" stroke-linejoin="round"/><path d="M39.2344 8.27578 49.5141 8.27578C49.5141 8.27578 54.2016 8.27578 54.2016 12.9633L54.2016 18.8789C54.2016 18.8789 54.2016 23.5664 49.5141 23.5664L39.2344 23.5664C39.2344 23.5664 34.5469 23.5664 34.5469 18.8789L34.5469 12.9633C34.5469 12.9633 34.5469 8.27578 39.2344 8.27578" stroke="#66737C" stroke-width="3.33333" stroke-linejoin="round"/><path d="M44.3756 2.24549 44.3756 8.27637" stroke="#66737C" stroke-width="3.33333" stroke-linecap="round" stroke-linejoin="round"/><path d="M40.7775 15.058 40.7775 16.7908" stroke="#66737C" stroke-width="3.33333" stroke-linecap="round" stroke-linejoin="round"/><path d="M47.9735 15.058 47.9738 16.7908" stroke="#66737C" stroke-width="3.33333" stroke-linecap="round" stroke-linejoin="round"/></svg>