<svg width="60" height="60" viewBox="-2.14 -2.14 60 60" xmlns="http://www.w3.org/2000/svg" xmlns:xlink="http://www.w3.org/1999/xlink" id="Attach-Clipping-Object--Streamline-Ultimate.svg" fill="none" overflow="hidden"><path d="M43.5312 45.7368 43.5312 50.3802C43.5312 52.2375 41.9061 53.8627 40.0488 53.8627L5.22375 53.8627C3.36642 53.8627 1.74125 52.2375 1.74125 50.3802L1.74125 15.5551C1.74125 13.6977 3.36642 12.0726 5.22375 12.0726L24.4936 12.0726" stroke="#66737C" stroke-width="3.57143" stroke-linecap="round" stroke-linejoin="round" stroke-miterlimit="10"/><path d="M53.9787 8.12583 53.9787 27.6278C53.9787 33.8963 48.8711 38.7721 42.8348 38.7721 36.5662 38.7721 31.6908 33.6642 31.6908 27.6278L31.6908 9.28667C31.6908 5.10767 34.9411 1.85745 39.1201 1.85745 43.2991 1.85745 46.5494 5.10767 46.5494 9.28667L46.5494 27.6278C46.5494 29.4852 45.1564 31.3425 42.8348 31.3425 40.7453 31.3425 39.1201 29.7173 39.1201 27.6278L39.1201 9.28667" stroke="#66737C" stroke-width="3.57143" stroke-linecap="round" stroke-linejoin="round" stroke-miterlimit="10"/></svg>