<svg width="60" height="60" viewBox="-2.14 -2.14 60 60" xmlns="http://www.w3.org/2000/svg" xmlns:xlink="http://www.w3.org/1999/xlink" id="Autism-Disorder-Symptoms-2--Streamline-Ultimate.svg" fill="none" overflow="hidden"><path d="M18.9471 53.4942 18.9471 41.5704C16.3172 39.134 14.4832 35.9612 13.6844 32.4664 13.5994 32.0947 13.4681 31.5939 13.4074 31.2192L20.9169 31.1897C20.9169 33.3844 22.6729 35.1635 24.839 35.1635 27.0052 35.1635 28.761 33.3844 28.761 31.1897L33.8796 31.2192 33.8641 25.3635C31.6798 25.3635 29.9091 23.6074 29.9091 21.4414 29.9091 19.2753 31.6798 17.5193 33.8641 17.5193L33.8671 10.8431C45.1019 12.2973 47.9508 22.7676 52.4441 34.4236 52.5272 34.64 52.5563 34.8731 52.5291 35.1031 52.5019 35.3332 52.4193 35.5533 52.2881 35.7444 52.1572 35.9355 51.9814 36.0917 51.7766 36.1999 51.5716 36.3078 51.3437 36.3645 51.112 36.365L47.4957 36.365 47.4957 42.0746C47.4957 43.5891 46.8942 45.0413 45.8234 46.112 44.7527 47.1828 43.3002 47.7843 41.7861 47.7843L38.9311 47.7843 38.9311 53.4942" stroke="#66737C" stroke-width="3.57143" stroke-linecap="round" stroke-linejoin="round"/><path d="M14.1096 19.2764C14.2994 18.8454 14.4125 18.4 14.4548 17.9557L19.0272 19.9693 20.9904 15.5112C20.8618 15.4706 20.734 15.4226 20.6076 15.3669 18.7355 14.5425 17.8848 12.3594 18.7076 10.491 19.5304 8.62262 21.7152 7.77633 23.5872 8.6008 23.7137 8.65645 23.8354 8.7183 23.9522 8.78579L26.0705 3.97565C15.4562-0.464754 5.89706 3.90999 3.18096 12.9909L7.07602 14.7062C6.77683 15.0374 6.52463 15.4215 6.33478 15.8525 5.38518 18.0089 6.35579 20.5234 8.50276 21.4689 10.6497 22.4144 13.16 21.4328 14.1096 19.2764Z" stroke="#66737C" stroke-width="3.57143" stroke-linejoin="round"/></svg>