<svg width="60" height="60" viewBox="-1.875 -1.875 60 60" xmlns="http://www.w3.org/2000/svg" xmlns:xlink="http://www.w3.org/1999/xlink" id="Automatic-Gear-Box-Warning--Streamline-Ultimate" fill="none" overflow="hidden"><style>
.MsftOfcResponsive_Stroke_66737c {
 stroke:#66737C; 
}
</style>
<path d="M28.125 38.9062C27.2189 38.9062 26.4844 38.1717 26.4844 37.2656 26.4844 36.3595 27.2189 35.625 28.125 35.625" class="MsftOfcResponsive_Stroke_66737c" stroke="#66737C" stroke-width="3.33333" stroke-linecap="round" stroke-linejoin="round" stroke-miterlimit="10"/><path d="M28.1245 38.9062C29.0306 38.9062 29.7652 38.1717 29.7652 37.2656 29.7652 36.3595 29.0306 35.625 28.1245 35.625" class="MsftOfcResponsive_Stroke_66737c" stroke="#66737C" stroke-width="3.33333" stroke-linecap="round" stroke-linejoin="round" stroke-miterlimit="10"/><path d="M28.125 29.2969 28.125 17.1094" class="MsftOfcResponsive_Stroke_66737c" stroke="#66737C" stroke-width="3.33333" stroke-linecap="round" stroke-linejoin="round" stroke-miterlimit="10"/><path d="M24.6056 5.60063C25.5441 6.53916 26.7173 7.0084 28.125 7.0084 29.5327 7.0084 30.7059 6.53916 31.6444 5.60063L33.7561 3.25434C35.1637 1.84657 37.0409 1.37731 38.918 2.0812 40.7951 2.78508 41.7335 4.66212 41.7335 6.53916L41.4989 9.82395C41.4989 11.2317 41.9681 12.4049 42.9066 13.3434 43.845 14.2819 45.0183 14.7512 46.4259 14.7512L49.7109 14.5165C51.5878 14.5165 53.4649 15.455 54.1688 17.3321 54.8726 19.2091 54.4034 21.0861 52.9957 22.4939L50.6494 24.6056C49.7109 25.5441 49.2415 26.7173 49.2415 28.125 49.2415 29.5327 49.7109 30.7059 50.6494 31.6444L52.9957 33.7561C54.4034 35.1637 54.8726 37.0409 54.1688 38.918 53.4649 40.7948 51.5878 41.7335 49.7109 41.7335L46.4259 41.4989C45.0183 41.4989 43.845 41.9681 42.9066 42.9066 41.9681 43.8452 41.4989 45.0183 41.4989 46.4259L41.7335 49.7109C41.7335 51.5878 40.7951 53.4649 38.918 54.1688 37.0409 54.8726 35.1637 54.4034 33.7561 52.9957L31.6444 50.6494C30.7059 49.7109 29.5327 49.2415 28.125 49.2415 26.7173 49.2415 25.5441 49.7109 24.6056 50.6494L22.4939 52.9957C21.0862 54.4034 19.2091 54.8726 17.3321 54.1688 15.455 53.4649 14.5166 51.5878 14.5166 49.7109L14.7511 46.4259C14.7511 45.0183 14.2819 43.8452 13.3434 42.9066 12.4049 41.9681 11.2318 41.4989 9.82399 41.4989L6.53913 41.7335C4.66209 41.7335 2.78508 40.7948 2.0812 38.918 1.37731 37.0409 1.84657 35.1637 3.25434 33.7561L5.60063 31.6444C6.53916 30.7059 7.00842 29.5327 7.00842 28.125 7.00842 26.7173 6.53916 25.5441 5.60063 24.6056L3.25434 22.4939C1.84657 21.0861 1.37731 19.2091 2.0812 17.3321 2.78508 15.455 4.66209 14.5165 6.53913 14.5165L9.82399 14.7512C11.2318 14.7512 12.4049 14.2819 13.3434 13.3434 14.2819 12.4049 14.7511 11.2317 14.7511 9.82395L14.5166 6.53916C14.5166 4.66212 15.455 2.78508 17.3321 2.0812 19.2091 1.37731 21.0862 1.84657 22.4939 3.25434L24.6056 5.60063Z" class="MsftOfcResponsive_Stroke_66737c" stroke="#66737C" stroke-width="3.33333" stroke-linecap="round" stroke-linejoin="round" stroke-miterlimit="10"/></svg>