<svg width="60" height="60" viewBox="-2.14 -2.14 60 60" xmlns="http://www.w3.org/2000/svg" xmlns:xlink="http://www.w3.org/1999/xlink" id="Award-Medal--Streamline-Ultimate.svg" overflow="hidden"><path d="M8.70625 34.825C8.70625 45.4033 17.2817 53.9788 27.86 53.9788 38.4383 53.9788 47.0138 45.4033 47.0138 34.825 47.0138 24.2467 38.4383 15.6713 27.86 15.6713 17.2817 15.6713 8.70625 24.2467 8.70625 34.825Z" stroke="#66737C" stroke-width="3.57143" stroke-linecap="round" stroke-linejoin="round" fill="none"/><path d="M29.0928 23.8946 31.9902 29.6012 36.9284 29.6012C37.6745 29.583 38.294 30.173 38.3122 30.9191 38.3214 31.2964 38.1724 31.6604 37.9012 31.9229L33.367 36.3852 35.879 42.1545C36.1709 42.851 35.8429 43.6523 35.1464 43.9442 34.7513 44.1098 34.3016 44.0807 33.9312 43.8656L27.86 40.4411 21.7888 43.8563C21.1357 44.2355 20.2989 44.0135 19.9196 43.3604 19.7045 42.99 19.6754 42.5402 19.841 42.1452L22.353 36.3759 17.8188 31.9136C17.2826 31.3946 17.2687 30.5392 17.7877 30.003 18.0502 29.7318 18.4142 29.5827 18.7916 29.592L23.7298 29.592 26.6295 23.8853C26.9915 23.2064 27.8352 22.9495 28.5141 23.3115 28.7612 23.4433 28.9629 23.6465 29.0928 23.8946Z" stroke="#66737C" stroke-width="3.57143" stroke-linecap="round" stroke-linejoin="round" fill="none"/><path d="M19.1537 1.74125 23.0867 16.2702" stroke="#66737C" stroke-width="3.57143" stroke-linecap="round" stroke-linejoin="round" fill="none"/><path d="M11.1603 25.4408 1.74125 1.74125" stroke="#66737C" stroke-width="3.57143" stroke-linecap="round" stroke-linejoin="round" fill="none"/><path d="M36.5662 1.74125 32.6333 16.2702" stroke="#66737C" stroke-width="3.57143" stroke-linecap="round" stroke-linejoin="round" fill="none"/><path d="M44.5597 25.4408 53.9787 1.74125" stroke="#66737C" stroke-width="3.57143" stroke-linecap="round" stroke-linejoin="round" fill="none"/></svg>