<svg width="60" height="60" viewBox="-1.875 -1.875 60 60" xmlns="http://www.w3.org/2000/svg" xmlns:xlink="http://www.w3.org/1999/xlink" id="Bacteria--Streamline-Ultimate" fill="none" overflow="hidden"><path d="M27.1573 45.4275C31.7911 40.1482 27.0007 35.6667 27.6715 29.1026 28.5148 20.8506 37.0509 21.4144 36.2534 13.7522 35.0773 2.45051 11.8466 6.56105 8.15836 27.5831 4.58505 47.9501 20.377 53.152 27.1573 45.4275Z" stroke="#66737C" stroke-width="3.33333" stroke-linecap="round" stroke-linejoin="round"/><path d="M50.9972 40.1248C51.6387 36.5105 50.2751 33.2463 46.7482 32.6201 43.2213 31.9941 40.8173 34.5893 40.1759 38.2036 39.5341 41.8177 40.8652 45.0762 44.4246 45.708 47.8552 46.3172 50.3555 43.7388 50.9972 40.1248Z" stroke="#66737C" stroke-width="3.33333" stroke-linecap="round" stroke-linejoin="round"/><path d="M22.5885 37.5441C22.981 35.3332 21.9402 33.2998 19.3961 32.8481 16.852 32.3965 15.1748 33.9473 14.7823 36.1582 14.3898 38.3691 15.407 40.3983 17.9747 40.8541 20.4493 41.2936 22.196 39.7549 22.5885 37.5441Z" stroke="#66737C" stroke-width="3.33333" stroke-linecap="round" stroke-linejoin="round"/><path d="M25.1421 19.9243C26.9067 19.6484 28.1674 18.3401 27.8498 16.3097 27.5323 14.2793 25.9322 13.4184 24.1678 13.6944 22.4034 13.9704 21.1397 15.2599 21.4602 17.3091 21.7691 19.284 23.3778 20.2003 25.1421 19.9243Z" stroke="#66737C" stroke-width="3.33333" stroke-linecap="round" stroke-linejoin="round"/><path d="M15.9212 26.2847C15.5384 26.2847 15.2281 25.9744 15.2281 25.5914 15.2281 25.2087 15.5384 24.8984 15.9212 24.8984" stroke="#66737C" stroke-width="3.33333" stroke-linecap="round" stroke-linejoin="round"/><path d="M15.9214 26.2847C16.3042 26.2847 16.6145 25.9744 16.6145 25.5914 16.6145 25.2087 16.3042 24.8984 15.9214 24.8984" stroke="#66737C" stroke-width="3.33333" stroke-linecap="round" stroke-linejoin="round"/><path d="M46.2802 38.7014C45.8974 38.7014 45.5869 38.3911 45.5869 38.0084 45.5869 37.6256 45.8974 37.3151 46.2802 37.3151" stroke="#66737C" stroke-width="3.33333" stroke-linecap="round" stroke-linejoin="round"/><path d="M46.2802 38.7014C46.6631 38.7014 46.9734 38.3911 46.9734 38.0084 46.9734 37.6256 46.6631 37.3151 46.2802 37.3151" stroke="#66737C" stroke-width="3.33333" stroke-linecap="round" stroke-linejoin="round"/><path d="M30.6834 7.8281 31.1114 2.99205" stroke="#66737C" stroke-width="3.33333" stroke-linecap="round" stroke-linejoin="round"/><path d="M24.0127 8.27398 23.0381 3.7182" stroke="#66737C" stroke-width="3.33333" stroke-linecap="round" stroke-linejoin="round"/><path d="M34.9617 10.362 39.9445 7.82834" stroke="#66737C" stroke-width="3.33333" stroke-linecap="round" stroke-linejoin="round"/><path d="M36.3066 14.84 40.6116 15.4032" stroke="#66737C" stroke-width="3.33333" stroke-linecap="round" stroke-linejoin="round"/><path d="M32.6264 21.1377 35.9034 23.7391" stroke="#66737C" stroke-width="3.33333" stroke-linecap="round" stroke-linejoin="round"/><path d="M27.6598 29.389 32.3512 30.4109" stroke="#66737C" stroke-width="3.33333" stroke-linecap="round" stroke-linejoin="round"/><path d="M28.9739 38.1874 32.7598 38.0116" stroke="#66737C" stroke-width="3.33333" stroke-linecap="round" stroke-linejoin="round"/><path d="M28.1543 44.0789 32.9062 46.7114" stroke="#66737C" stroke-width="3.33333" stroke-linecap="round" stroke-linejoin="round"/><path d="M18.6853 53.0187 18.6853 48.832" stroke="#66737C" stroke-width="3.33333" stroke-linecap="round" stroke-linejoin="round"/><path d="M45.5864 32.5017 45.5864 29.6327" stroke="#66737C" stroke-width="3.33333" stroke-linecap="round" stroke-linejoin="round"/><path d="M41.6128 34.7105 40.2471 32.749" stroke="#66737C" stroke-width="3.33333" stroke-linecap="round" stroke-linejoin="round"/><path d="M40.027 40.6378 37.3312 41.6719" stroke="#66737C" stroke-width="3.33333" stroke-linecap="round" stroke-linejoin="round"/><path d="M43.0589 45.2988 41.0454 47.7082" stroke="#66737C" stroke-width="3.33333" stroke-linecap="round" stroke-linejoin="round"/><path d="M47.5088 45.3361 48.6998 47.7082" stroke="#66737C" stroke-width="3.33333" stroke-linecap="round" stroke-linejoin="round"/><path d="M50.7846 41.1544 52.9491 41.8814" stroke="#66737C" stroke-width="3.33333" stroke-linecap="round" stroke-linejoin="round"/><path d="M49.6938 34.1848 51.6832 32.9058" stroke="#66737C" stroke-width="3.33333" stroke-linecap="round" stroke-linejoin="round"/><path d="M9.84905 50.3325 13.266 46.6655" stroke="#66737C" stroke-width="3.33333" stroke-linecap="round" stroke-linejoin="round"/><path d="M5.34698 43.391 9.12952 41.1994" stroke="#66737C" stroke-width="3.33333" stroke-linecap="round" stroke-linejoin="round"/><path d="M2.99149 35.7384 7.70302 34.9903" stroke="#66737C" stroke-width="3.33333" stroke-linecap="round" stroke-linejoin="round"/><path d="M3.26728 27.8543 7.97883 28.5867" stroke="#66737C" stroke-width="3.33333" stroke-linecap="round" stroke-linejoin="round"/><path d="M4.54331 19.0978 9.80358 21.7506" stroke="#66737C" stroke-width="3.33333" stroke-linecap="round" stroke-linejoin="round"/><path d="M9.66258 12.4473 13.4857 15.4032" stroke="#66737C" stroke-width="3.33333" stroke-linecap="round" stroke-linejoin="round"/><path d="M16.0807 6.98461 18.6853 10.6493" stroke="#66737C" stroke-width="3.33333" stroke-linecap="round" stroke-linejoin="round"/><path d="M26.0695 51.6227 24.1041 47.7881" stroke="#66737C" stroke-width="3.33333" stroke-linecap="round" stroke-linejoin="round"/></svg>