<svg width="60" height="60" viewBox="-1.875 -1.875 60 60" xmlns="http://www.w3.org/2000/svg" xmlns:xlink="http://www.w3.org/1999/xlink" id="Badminton-Shuttlecock--Streamline-Ultimate" overflow="hidden"><path d="M16.7625 51.9188C13.2112 55.2279 7.64975 55.0316 4.34063 51.4803 1.19544 48.1049 1.19544 42.8722 4.34063 39.4969L5.58516 38.2547 18.007 50.6766Z" stroke="#66737C" stroke-width="3.57143" stroke-linecap="round" stroke-linejoin="round" fill="none"/><path d="M10.5479 33.2725 22.9775 45.7021 18.0056 50.6739 5.57602 38.2443Z" stroke="#66737C" stroke-width="3.57143" stroke-linecap="round" stroke-linejoin="round" fill="none"/><path d="M22.9688 45.7031 52.2656 34.2727C53.6164 33.7448 54.5044 32.4416 54.5016 30.9914L54.5016 26.3672C54.5016 24.4256 52.9276 22.8516 50.9859 22.8516L43.9547 22.8516 43.9547 15.8203C43.9547 13.8787 42.3807 12.3047 40.4391 12.3047L33.4078 12.3047 33.4078 5.27344C33.4078 3.33181 31.8338 1.75781 29.8922 1.75781L25.2539 1.75781C23.8037 1.75501 22.5005 2.643 21.9727 3.99375L10.5469 33.2812Z" stroke="#66737C" stroke-width="3.57143" stroke-linecap="round" stroke-linejoin="round" fill="none"/><path d="M33.3984 12.3047 14.618 37.3453" stroke="#66737C" stroke-width="3.57143" stroke-linecap="round" stroke-linejoin="round" fill="none"/><path d="M43.9453 22.8516 18.9047 41.632" stroke="#66737C" stroke-width="3.57143" stroke-linecap="round" stroke-linejoin="round" fill="none"/></svg>