<svg width="60" height="60" viewBox="-2.14 -2.14 60 60" xmlns="http://www.w3.org/2000/svg" xmlns:xlink="http://www.w3.org/1999/xlink" id="Beer-Glass-Foam--Streamline-Ultimate.svg" fill="none" overflow="hidden"><path d="M10.4475 11.8917 10.4475 13.3683C10.4377 18.5436 11.6728 23.6455 14.0485 28.2433L14.0485 28.2433C16.8862 33.7433 18.0891 39.9415 17.5147 46.1039L17.1456 50.1482C17.0823 50.6105 17.1155 51.0806 17.243 51.5294 17.3705 51.9782 17.5896 52.3956 17.8865 52.7555 18.1834 53.1156 18.5515 53.4099 18.9678 53.6205 19.3842 53.8311 19.8395 53.953 20.3054 53.979L32.3385 53.979C32.804 53.9527 33.2588 53.8306 33.6746 53.6201 34.0907 53.4095 34.4584 53.1151 34.7549 52.7555 35.0516 52.3958 35.2705 51.9789 35.398 51.5306 35.5254 51.0822 35.5589 50.6123 35.496 50.1506L35.1268 46.1039C34.5548 39.9415 35.7576 33.7443 38.5931 28.2433L38.5931 28.2433C40.1769 25.1929 41.2565 21.9062 41.79 18.5108" stroke="#66737C" stroke-width="3.57143" stroke-linecap="round" stroke-linejoin="round"/><path d="M11.7872 22.6362 40.8567 22.6362" stroke="#66737C" stroke-width="3.57143" stroke-linecap="round" stroke-linejoin="round"/><path d="M21.7656 29.6012C21.2848 29.6012 20.895 29.2114 20.895 28.7306 20.895 28.2498 21.2848 27.86 21.7656 27.86" stroke="#66737C" stroke-width="3.57143"/><path d="M21.7656 29.6012C22.2465 29.6012 22.6362 29.2114 22.6362 28.7306 22.6362 28.2498 22.2465 27.86 21.7656 27.86" stroke="#66737C" stroke-width="3.57143"/><path d="M28.7306 36.5662C28.2498 36.5662 27.86 36.1764 27.86 35.6956 27.86 35.2148 28.2498 34.825 28.7306 34.825" stroke="#66737C" stroke-width="3.57143"/><path d="M28.7306 36.5662C29.2114 36.5662 29.6012 36.1764 29.6012 35.6956 29.6012 35.2148 29.2114 34.825 28.7306 34.825" stroke="#66737C" stroke-width="3.57143"/><g><path d="M25.2481 45.2725C24.7673 45.2725 24.3775 44.8827 24.3775 44.4019 24.3775 43.9211 24.7673 43.5312 25.2481 43.5312" stroke="#66737C" stroke-width="3.57143"/><path d="M25.2481 45.2725C25.7289 45.2725 26.1187 44.8827 26.1187 44.4019 26.1187 43.9211 25.7289 43.5312 25.2481 43.5312" stroke="#66737C" stroke-width="3.57143"/></g><path d="M41.79 1.74125 12.1888 1.74125C10.8033 1.74125 9.47465 2.29161 8.495 3.27125 7.51535 4.2509 6.965 5.57957 6.965 6.965 6.965 8.35043 7.51535 9.6791 8.495 10.6587 9.47465 11.6384 10.8033 12.1888 12.1888 12.1888L31.5886 12.1888C31.8482 13.2309 32.3478 14.198 33.0478 15.0127 33.7477 15.8274 34.6284 16.4671 35.6195 16.8808 36.6106 17.2945 37.6848 17.4707 38.7563 17.3953 39.8275 17.32 40.8664 16.9951 41.79 16.4467L41.79 24.3775C41.79 25.3011 42.1568 26.187 42.8099 26.8401 43.463 27.4932 44.3489 27.86 45.2725 27.86 46.1961 27.86 47.082 27.4932 47.7351 26.8401 48.3882 26.187 48.755 25.3011 48.755 24.3775L48.755 8.70625C48.755 6.85902 48.0211 5.08744 46.715 3.78125 45.4088 2.47506 43.6371 1.74125 41.79 1.74125L41.79 1.74125Z" stroke="#66737C" stroke-width="3.57143" stroke-linecap="round" stroke-linejoin="round"/></svg>