<svg width="60" height="60" viewBox="-2.14 -2.14 60 60" xmlns="http://www.w3.org/2000/svg" xmlns:xlink="http://www.w3.org/1999/xlink" id="Beer-Mug--Streamline-Ultimate.svg" overflow="hidden"><g><path d="M40.0488 22.6362 44.9243 22.6362C49.7292 22.453 53.7776 26.19 53.9788 30.9942L53.9787 35.1732C53.7776 39.9775 49.7292 43.7145 44.9242 43.5312L40.0488 43.5312" stroke="#66737C" stroke-width="3.57143" stroke-linecap="round" stroke-linejoin="round" fill="none"/><path d="M40.0488 19.177 40.0488 50.7516C40.0746 52.5081 38.6716 53.9529 36.9152 53.9787 36.915 53.9787 36.9147 53.9787 36.9145 53.9788L11.8405 53.9787C10.084 53.9533 8.68079 52.5088 8.70624 50.7523 8.70624 50.7521 8.70625 50.7519 8.70625 50.7516L8.70625 21.963" stroke="#66737C" stroke-width="3.57143" stroke-linecap="round" stroke-linejoin="round" fill="none"/><path d="M19.1537 34.5928 19.1537 44.2974" stroke="#66737C" stroke-width="3.57143" stroke-linecap="round" stroke-linejoin="round" fill="none"/><path d="M29.6012 29.7405 29.6012 44.2974" stroke="#66737C" stroke-width="3.57143" stroke-linecap="round" stroke-linejoin="round" fill="none"/><path d="M44.9707 11.8405C43.7363 7.60592 39.3027 5.17381 35.0682 6.40823 34.2894 6.63524 33.5498 6.97956 32.8748 7.42933 31.0008 2.65507 25.6113 0.303959 20.837 2.17797 18.1135 3.24702 16.053 5.53707 15.2766 8.358 12.1248 5.29059 7.08318 5.35898 4.01577 8.51074 0.948369 11.6625 1.01675 16.7041 4.16851 19.7715 5.404 20.9739 6.99633 21.7429 8.70625 21.963L8.70625 21.963C8.80766 26.2829 12.3918 29.7026 16.7117 29.6012 16.8604 29.5977 17.0089 29.59 17.1571 29.578 19.8149 29.286 22.1547 27.6942 23.4024 25.3294 23.9355 24.4046 24.2603 23.3745 24.3543 22.3112 24.5014 20.496 26.0393 19.1109 27.86 19.1537L40.1184 19.1537C42.7946 19.191 45.054 17.1737 45.3189 14.5104 45.3362 13.6081 45.2188 12.7082 44.9707 11.8405Z" stroke="#66737C" stroke-width="3.57143" stroke-linecap="round" stroke-linejoin="round" fill="none"/></g></svg>