<svg width="60" height="60" viewBox="-1.875 -1.875 60 60" xmlns="http://www.w3.org/2000/svg" xmlns:xlink="http://www.w3.org/1999/xlink" id="Binary--Streamline-Ultimate" fill="none" overflow="hidden"><path d="M28.125 2.71453 28.125 24.2934" stroke="#66737C" stroke-width="3.33333" stroke-linecap="round" stroke-linejoin="round"/><path d="M22.7302 8.10928 24.5285 8.10928C26.5148 8.10928 28.125 6.49908 28.125 4.5128L28.125 2.71453" stroke="#66737C" stroke-width="3.33333" stroke-linecap="round" stroke-linejoin="round"/><path d="M33.5198 24.2934 22.7302 24.2934" stroke="#66737C" stroke-width="3.33333" stroke-linecap="round" stroke-linejoin="round"/><path d="M8.34045 31.9566 8.34045 53.5355" stroke="#66737C" stroke-width="3.33333" stroke-linecap="round" stroke-linejoin="round"/><path d="M2.94572 37.3512 4.74396 37.3512C6.73024 37.3512 8.34045 35.741 8.34045 33.7547L8.34045 31.9566" stroke="#66737C" stroke-width="3.33333" stroke-linecap="round" stroke-linejoin="round"/><path d="M13.7352 53.5355 2.94572 53.5355" stroke="#66737C" stroke-width="3.33333" stroke-linecap="round" stroke-linejoin="round"/><path d="M47.9095 31.9566 47.9095 53.5355" stroke="#66737C" stroke-width="3.33333" stroke-linecap="round" stroke-linejoin="round"/><path d="M42.5147 37.3512 44.313 37.3512C46.2994 37.3512 47.9095 35.741 47.9095 33.7547L47.9095 31.9566" stroke="#66737C" stroke-width="3.33333" stroke-linecap="round" stroke-linejoin="round"/><path d="M53.3044 53.5355 42.5147 53.5355" stroke="#66737C" stroke-width="3.33333" stroke-linecap="round" stroke-linejoin="round"/><path d="M2.94572 7.95942 2.94572 19.0486C2.94572 21.9453 5.29392 24.2934 8.19061 24.2934L8.4903 24.2934C11.387 24.2934 13.7352 21.9453 13.7352 19.0486L13.7352 7.95942C13.7352 5.06276 11.387 2.71453 8.4903 2.71453L8.19061 2.71453C5.29392 2.71453 2.94572 5.06276 2.94572 7.95942Z" stroke="#66737C" stroke-width="3.33333" stroke-linecap="round" stroke-linejoin="round"/><path d="M22.7302 37.2014 22.7302 48.2906C22.7302 51.1873 25.0784 53.5355 27.9752 53.5355L28.2748 53.5355C31.1716 53.5355 33.5198 51.1873 33.5198 48.2906L33.5198 37.2014C33.5198 34.3048 31.1716 31.9566 28.2748 31.9566L27.9752 31.9566C25.0784 31.9566 22.7302 34.3048 22.7302 37.2014Z" stroke="#66737C" stroke-width="3.33333" stroke-linecap="round" stroke-linejoin="round"/><path d="M42.5147 7.95942 42.5147 19.0486C42.5147 21.9453 44.8631 24.2934 47.7598 24.2934L48.0593 24.2934C50.9562 24.2934 53.3044 21.9453 53.3044 19.0486L53.3044 7.95942C53.3044 5.06276 50.9562 2.71453 48.0593 2.71453L47.7598 2.71453C44.8631 2.71453 42.5147 5.06276 42.5147 7.95942Z" stroke="#66737C" stroke-width="3.33333" stroke-linecap="round" stroke-linejoin="round"/></svg>