<svg width="60" height="60" viewBox="-1.875 -1.875 60 60" xmlns="http://www.w3.org/2000/svg" xmlns:xlink="http://www.w3.org/1999/xlink" id="Blood-Sample-1--Streamline-Ultimate" fill="none" overflow="hidden"><path d="M34.7684 39.3998C34.7684 43.3582 33.0846 47.1544 30.0874 49.9533 27.0905 52.7522 23.0254 54.3246 18.7869 54.3246 14.5484 54.3246 10.4835 52.7522 7.48636 49.9533 4.48927 47.1544 2.80552 43.3582 2.80552 39.3998 2.80552 26.7173 16.4936 11.7926 18.7869 11.7926 21.0802 11.7926 34.7684 26.7173 34.7684 39.3998Z" stroke="#66737C" stroke-width="3.33333" stroke-linecap="round" stroke-linejoin="round"/><path d="M34.7684 20.3477 34.7684 12.2257 51.3049 12.2257 51.3049 46.0563C51.3049 50.6229 47.6032 54.3246 43.0366 54.3246 40.9608 54.3246 39.0638 53.5598 37.6116 52.2963" stroke="#66737C" stroke-width="3.33333" stroke-linecap="round" stroke-linejoin="round"/><path d="M54.2009 1.92547 31.8729 1.92547 31.8729 12.2258 54.2009 12.2258 54.2009 1.92547Z" stroke="#66737C" stroke-width="3.33333" stroke-linejoin="round"/><path d="M51.3049 22.2433 43.4252 22.2433 43.4252 37.0366 51.3049 37.0366 51.3049 22.2433Z" stroke="#66737C" stroke-width="3.33333" stroke-linejoin="round"/><path d="M39.2114 1.97754 39.2114 12.2258" stroke="#66737C" stroke-width="3.33333" stroke-linecap="round" stroke-linejoin="round"/><path d="M46.8623 1.97754 46.8623 12.2258" stroke="#66737C" stroke-width="3.33333" stroke-linecap="round" stroke-linejoin="round"/><path d="M13.0863 31.0399 24.4884 31.0399" stroke="#66737C" stroke-width="3.33333" stroke-linecap="round"/><path d="M18.7866 25.3397 18.7866 36.7418" stroke="#66737C" stroke-width="3.33333" stroke-linecap="round"/><path d="M13.0863 43.6298 24.4884 43.6298" stroke="#66737C" stroke-width="3.33333" stroke-linecap="round"/></svg>