<svg width="60" height="60" viewBox="-2.14 -2.14 60 60" xmlns="http://www.w3.org/2000/svg" xmlns:xlink="http://www.w3.org/1999/xlink" id="Boxing-Glove--Streamline-Ultimate.svg" overflow="hidden"><path d="M22.6362 1.74125C16.8663 1.74125 12.1887 6.41876 12.1887 12.1888L12.1888 20.895C12.1888 18.01 9.85 15.6713 6.965 15.6713 4.08 15.6713 1.74125 18.01 1.74125 20.895L1.74125 29.6012C1.74125 35.3712 6.41876 40.0487 12.1888 40.0487L12.1888 50.4963C12.1888 52.4196 13.7479 53.9787 15.6713 53.9787L43.5312 53.9787C45.4546 53.9787 47.0137 52.4196 47.0137 50.4963L47.0137 40.0488C47.0137 34.825 53.9787 33.0838 53.9787 26.1187L53.9787 15.6713C53.9787 7.97792 47.7421 1.74125 40.0487 1.74125Z" stroke="#66737C" stroke-width="3.57143" stroke-linecap="round" stroke-linejoin="round" fill="none"/><path d="M40.0488 22.6362C40.0488 26.4829 36.9304 29.6012 33.0838 29.6012L17.4125 29.6012C14.5275 29.6012 12.1888 27.2625 12.1888 24.3775L12.1888 20.895" stroke="#66737C" stroke-width="3.57143" stroke-linecap="round" stroke-linejoin="round" fill="none"/><path d="M26.1187 43.5312C26.1187 45.4546 24.5596 47.0137 22.6362 47.0137L12.1888 47.0137 12.1888 40.0488 22.6362 40.0488C24.5596 40.0488 26.1187 41.6079 26.1187 43.5312Z" stroke="#66737C" stroke-width="3.57143" stroke-linecap="round" stroke-linejoin="round" fill="none"/></svg>