<svg width="60" height="60" viewBox="-2.14 -2.14 60 60" xmlns="http://www.w3.org/2000/svg" xmlns:xlink="http://www.w3.org/1999/xlink" id="Business-Climb-Top-1--Streamline-Ultimate.svg" overflow="hidden"><path d="M9.86708 53.93 29.6012 22.5875C30.5862 21.3053 32.4242 21.0643 33.7064 22.0493 33.9085 22.2045 34.0894 22.3855 34.2446 22.5875L53.9787 53.93Z" stroke="#66737C" stroke-width="3.57143" stroke-linecap="round" stroke-linejoin="round" fill="none"/><path d="M9.86708 53.93 1.74125 53.93 10.4475 38.2587 15.4971 44.9916" stroke="#66737C" stroke-width="3.57143" stroke-linecap="round" stroke-linejoin="round" fill="none"/><path d="M20.224 37.481 25.6498 42.1034C26.5714 42.8835 27.937 42.827 28.791 41.9734L30.2815 40.4829C31.1881 39.5766 32.6577 39.5766 33.5643 40.4829L35.0548 41.9734C35.9088 42.827 37.2745 42.8835 38.1961 42.1034L43.6589 37.539" stroke="#66737C" stroke-width="3.57143" stroke-linecap="round" stroke-linejoin="round" fill="none"/><path d="M31.3425 21.5149 31.3425 1.69249" stroke="#66737C" stroke-width="3.57143" stroke-linecap="round" stroke-linejoin="round" fill="none"/><path d="M31.3425 1.69249 40.0488 1.69249 40.0488 5.17499 50.4963 5.17499 47.0137 10.3987 50.4963 15.6225 40.0488 15.6225 40.0488 13.8812 31.3425 13.8812" stroke="#66737C" stroke-width="3.57143" stroke-linecap="round" stroke-linejoin="round" fill="none"/></svg>