<svg width="60" height="60" viewBox="-1.875 -1.875 60 60" xmlns="http://www.w3.org/2000/svg" xmlns:xlink="http://www.w3.org/1999/xlink" id="Car-Fast-Charge--Streamline-Ultimate" fill="none" overflow="hidden"><path d="M2.15092 13.5876C2.15092 15.4686 2.89812 17.2725 4.22817 18.6026 5.5582 19.9326 7.36214 20.6798 9.24309 20.6798 11.1241 20.6798 12.928 19.9326 14.258 18.6026 15.5881 17.2725 16.3353 15.4686 16.3353 13.5876L16.3353 7.13998 2.15092 7.13998 2.15092 13.5876Z" stroke="#66737C" stroke-width="3.57143" stroke-linecap="round" stroke-linejoin="round"/><path d="M5.34839 7.13998 5.34839 2.06108" stroke="#66737C" stroke-width="3.57143" stroke-linecap="round" stroke-linejoin="round"/><path d="M9.24396 28.3711 9.24396 20.6806" stroke="#66737C" stroke-width="3.57143" stroke-linecap="round" stroke-linejoin="round"/><path d="M13.1556 7.13998 13.1556 2.06108" stroke="#66737C" stroke-width="3.57143" stroke-linecap="round" stroke-linejoin="round"/><path d="M18.0568 54.1884C20.6028 54.1884 22.6668 52.1243 22.6668 49.5783 22.6668 47.0323 20.6028 44.9684 18.0568 44.9684 15.5108 44.9684 13.4468 47.0323 13.4468 49.5783 13.4468 52.1243 15.5108 54.1884 18.0568 54.1884Z" stroke="#66737C" stroke-width="3.57143" stroke-linecap="round" stroke-linejoin="round"/><path d="M41.3873 54.1884C43.9334 54.1884 45.9973 52.1243 45.9973 49.5783 45.9973 47.0323 43.9334 44.9684 41.3873 44.9684 38.8413 44.9684 36.7774 47.0323 36.7774 49.5783 36.7774 52.1243 38.8413 54.1884 41.3873 54.1884Z" stroke="#66737C" stroke-width="3.57143" stroke-linecap="round" stroke-linejoin="round"/><path d="M22.6619 49.5785 36.7772 49.5785M13.3019 49.5785 10.8366 49.5785C9.90626 49.5785 9.01404 49.2089 8.3562 48.551 7.69838 47.8931 7.32879 47.0009 7.32879 46.0706L7.32879 41.8613C7.32888 41.1687 7.53391 40.4918 7.9181 39.9157L14.776 35.5378 18.217 27.4139C18.4497 26.7152 18.8963 26.1075 19.4935 25.677 20.0908 25.2464 20.8084 25.0146 21.5447 25.0146L35.197 25.0146C35.9334 25.0146 36.6511 25.2464 37.2483 25.677 37.8455 26.1075 38.2903 26.6984 38.6566 27.3366L43.5713 35.5378 53.5102 39.9157C53.8943 40.4918 54.0994 41.1687 54.0994 41.8613L54.0994 46.0706C54.0994 47.0009 53.7298 47.8931 53.0721 48.551 52.4142 49.2089 51.522 49.5785 50.5917 49.5785L45.9984 49.5785" stroke="#66737C" stroke-width="3.57143" stroke-linecap="round" stroke-linejoin="round"/><path d="M14.7881 35.5373 43.5863 35.5373" stroke="#66737C" stroke-width="3.57143" stroke-linecap="round" stroke-linejoin="round"/><path d="M28.549 25.0146 28.549 35.5376" stroke="#66737C" stroke-width="3.57143" stroke-linecap="round" stroke-linejoin="round"/></svg>