<svg width="60" height="60" viewBox="-1.875 -1.875 60 60" xmlns="http://www.w3.org/2000/svg" xmlns:xlink="http://www.w3.org/1999/xlink" id="Card-Game-Cards--Streamline-Ultimate" fill="none" overflow="hidden"><path d="M15.7313 14.1164 4.51409 16.5352C3.60816 16.7323 2.81745 17.2808 2.31562 18.0604 1.81379 18.8399 1.64183 19.7868 1.83751 20.693L8.49846 51.4406C8.69552 52.3465 9.24408 53.1373 10.0236 53.6391 10.8032 54.1409 11.75 54.3129 12.6563 54.1172L29.0086 50.5734" stroke="#66737C" stroke-width="3.57143" stroke-linecap="round" stroke-linejoin="round"/><path d="M52.856 17.7435 30.6773 10.674C29.4441 10.2808 28.1257 10.9619 27.7324 12.1952L17.4776 44.3667C17.0845 45.6 17.7656 46.9184 18.9989 47.3116L41.1776 54.3811C42.4109 54.7744 43.7292 54.0933 44.1223 52.86L54.3773 20.6884C54.7704 19.4551 54.0893 18.1366 52.856 17.7435Z" stroke="#66737C" stroke-width="3.57143" stroke-linecap="round" stroke-linejoin="round"/><path d="M38.0508 25.8656 30.9328 30.9352 33.8039 39.1898 40.9242 34.1203 38.0508 25.8656Z" stroke="#66737C" stroke-width="3.57143" stroke-linecap="round" stroke-linejoin="round"/><path d="M43.706 14.8266 43.706 5.25703C43.6711 4.3376 43.2888 3.46561 42.6366 2.81674 41.9841 2.16786 41.1101 1.79032 40.1904 1.76016L19.453 1.76016C18.5044 1.74721 17.5874 2.1014 16.8938 2.7487 16.2002 3.396 15.7836 4.28632 15.7311 5.23359L15.7311 36.6961C15.7261 37.5544 16.0369 38.3845 16.6043 39.0286 17.1718 39.6727 17.9563 40.0854 18.8085 40.1883" stroke="#66737C" stroke-width="3.57143" stroke-linecap="round" stroke-linejoin="round"/><path d="M8.35076 22.8516C7.86534 22.8516 7.47185 22.4581 7.47185 21.9727 7.47185 21.4872 7.86534 21.0938 8.35076 21.0938" stroke="#66737C" stroke-width="3.57143"/><path d="M8.35076 22.8516C8.83617 22.8516 9.22966 22.4581 9.22966 21.9727 9.22966 21.4872 8.83617 21.0938 8.35076 21.0938" stroke="#66737C" stroke-width="3.57143"/><path d="M22.0244 8.76797C21.539 8.76797 21.1455 8.37445 21.1455 7.88906 21.1455 7.40365 21.539 7.01016 22.0244 7.01016" stroke="#66737C" stroke-width="3.57143"/><path d="M22.0244 8.76797C22.5098 8.76797 22.9033 8.37445 22.9033 7.88906 22.9033 7.40365 22.5098 7.01016 22.0244 7.01016" stroke="#66737C" stroke-width="3.57143"/><g><path d="M32.4143 18.5267C31.9289 18.5267 31.5354 18.1332 31.5354 17.6478 31.5354 17.1624 31.9289 16.7689 32.4143 16.7689" stroke="#66737C" stroke-width="3.57143"/><path d="M32.4143 18.5267C32.8997 18.5267 33.2932 18.1332 33.2932 17.6478 33.2932 17.1624 32.8997 16.7689 32.4143 16.7689" stroke="#66737C" stroke-width="3.57143"/></g><g><path d="M39.4411 48.2852C38.9557 48.2852 38.5622 47.8917 38.5622 47.4063 38.5622 46.9207 38.9557 46.5274 39.4411 46.5274" stroke="#66737C" stroke-width="3.57143"/><path d="M39.4411 48.2852C39.9267 48.2852 40.32 47.8917 40.32 47.4063 40.32 46.9207 39.9267 46.5274 39.4411 46.5274" stroke="#66737C" stroke-width="3.57143"/></g></svg>