<svg width="60" height="60" viewBox="-1.875 -1.875 60 60" xmlns="http://www.w3.org/2000/svg" xmlns:xlink="http://www.w3.org/1999/xlink" id="Card-Game-Symbols--Streamline-Ultimate" overflow="hidden"><defs></defs><path d="M44.1305 53.7047C43.0478 54.7543 41.3272 54.7543 40.2445 53.7047L31.7016 45.2344C29.8177 43.4892 29.3375 40.6979 30.5297 38.4234L30.5297 38.4234C32.2467 35.3497 36.1305 34.2499 39.2042 35.967 39.6607 36.222 40.0841 36.5322 40.4648 36.8906L42.1781 38.5172 43.8914 36.8906C46.4563 34.4768 50.4924 34.5993 52.9062 37.1642 53.2642 37.5445 53.5741 37.9675 53.8289 38.4234L53.8289 38.4234C55.0186 40.6983 54.5386 43.488 52.657 45.2344Z" stroke="#66737C" stroke-width="3.57143" stroke-linecap="round" stroke-linejoin="round" fill="none"/><path d="M12.1195 32.4281C13.2022 31.3785 14.9228 31.3785 16.0055 32.4281L24.5484 40.9031C26.4323 42.6483 26.9125 45.4396 25.7203 47.7141L25.7203 47.7141C24.0032 50.7878 20.1195 51.8876 17.0458 50.1705 16.5893 49.9155 16.1659 49.6053 15.7852 49.2469L14.0625 47.6203 12.3492 49.2469C9.78432 51.6607 5.74827 51.5382 3.33444 48.9734 2.97645 48.593 2.66656 48.17 2.41172 47.7141L2.41172 47.7141C1.22201 45.4392 1.702 42.6495 3.58359 40.9031Z" stroke="#66737C" stroke-width="3.57143" stroke-linecap="round" stroke-linejoin="round" fill="none"/><path d="M14.0625 47.6203 14.0625 54.4922" stroke="#66737C" stroke-width="3.57143" stroke-linecap="round" stroke-linejoin="round" fill="none"/><path d="M48.3398 24.6094C51.7377 24.6251 54.5048 21.8833 54.5205 18.4855 54.5362 15.0877 51.7945 12.3205 48.3966 12.3048 47.5037 12.3007 46.6206 12.491 45.8086 12.8625 48.5556 10.8626 49.1612 7.01454 47.1613 4.26757 45.1615 1.5206 41.3134 0.914958 38.5664 2.91483 35.8194 4.91471 35.2138 8.76279 37.2137 11.5098 37.5913 12.0284 38.0477 12.4849 38.5664 12.8625 35.474 11.4607 31.8308 12.8312 30.429 15.9235 29.0272 19.0159 30.3977 22.6591 33.49 24.0609 34.2895 24.4234 35.1574 24.6104 36.0352 24.6094Z" stroke="#66737C" stroke-width="3.57143" stroke-linecap="round" stroke-linejoin="round" fill="none"/><path d="M42.1875 24.6094 42.1875 28.125" stroke="#66737C" stroke-width="3.57143" stroke-linecap="round" stroke-linejoin="round" fill="none"/><path d="M14.0625 26.3672 3.51562 14.0625 14.0625 1.75781 24.6094 14.0625 14.0625 26.3672Z" stroke="#66737C" stroke-width="3.57143" stroke-linecap="round" stroke-linejoin="round" fill="none"/></svg>