<svg width="60" height="60" viewBox="-2.14 -2.14 60 60" xmlns="http://www.w3.org/2000/svg" xmlns:xlink="http://www.w3.org/1999/xlink" id="Cash-Target--Streamline-Ultimate.svg" overflow="hidden"><path d="M8.70625 27.86C8.70625 38.4383 17.2817 47.0138 27.86 47.0138 38.4383 47.0138 47.0138 38.4383 47.0138 27.86 47.0138 17.2817 38.4383 8.70625 27.86 8.70625 17.2817 8.70625 8.70625 17.2817 8.70625 27.86Z" stroke="#66737C" stroke-width="3.33333" stroke-linecap="round" stroke-linejoin="round" fill="none"/><path d="M23.5463 33.0118C24.566 34.353 26.1766 35.1115 27.86 35.0432 30.5044 35.0432 32.6473 33.4343 32.6473 31.4516 32.6473 29.4689 30.5044 27.86 27.86 27.86 25.2156 27.86 23.0704 26.2511 23.0704 24.2661 23.0704 22.281 25.2156 20.6628 27.86 20.6628 29.5432 20.5958 31.1532 21.354 32.1737 22.6943" stroke="#66737C" stroke-width="3.33333" stroke-linecap="round" stroke-linejoin="round" fill="none"/><path d="M27.86 35.0432 27.86 37.4369" stroke="#66737C" stroke-width="3.33333" stroke-linecap="round" stroke-linejoin="round" fill="none"/><path d="M27.86 18.2831 27.86 20.6744" stroke="#66737C" stroke-width="3.33333" stroke-linecap="round" stroke-linejoin="round" fill="none"/><path d="M27.86 3.4825 27.86 12.1888" stroke="#66737C" stroke-width="3.33333" stroke-linecap="round" stroke-linejoin="round" fill="none"/><path d="M27.86 43.5312 27.86 52.2375" stroke="#66737C" stroke-width="3.33333" stroke-linecap="round" stroke-linejoin="round" fill="none"/><path d="M52.2375 27.86 43.5312 27.86" stroke="#66737C" stroke-width="3.33333" stroke-linecap="round" stroke-linejoin="round" fill="none"/><path d="M12.1888 27.86 3.4825 27.86" stroke="#66737C" stroke-width="3.33333" stroke-linecap="round" stroke-linejoin="round" fill="none"/></svg>