<svg width="60" height="60" viewBox="-1.875 -1.875 60 60" xmlns="http://www.w3.org/2000/svg" xmlns:xlink="http://www.w3.org/1999/xlink" id="Cash-Briefcase--Streamline-Ultimate" overflow="hidden"><defs></defs><path d="M22.8516 37.3523C22.8516 39.5367 25.2117 41.3086 28.125 41.3086 31.0383 41.3086 33.3984 39.5367 33.3984 37.3523 33.3984 35.168 31.0383 33.3984 28.125 33.3984 25.2117 33.3984 22.8516 31.6266 22.8516 29.4422 22.8516 27.2578 25.2117 25.4883 28.125 25.4883 31.0383 25.4883 33.3984 27.2578 33.3984 29.4422" stroke="#66737C" stroke-width="3.33333" stroke-linecap="round" stroke-linejoin="round" fill="none"/><path d="M28.125 22.8516 28.125 25.4883" stroke="#66737C" stroke-width="3.33333" stroke-linecap="round" stroke-linejoin="round" fill="none"/><path d="M28.125 41.3086 28.125 43.9453" stroke="#66737C" stroke-width="3.33333" stroke-linecap="round" stroke-linejoin="round" fill="none"/><path d="M7.03125 15.8203 49.2188 15.8203C49.2188 15.8203 52.7344 15.8203 52.7344 19.3359L52.7344 47.4609C52.7344 47.4609 52.7344 50.9766 49.2188 50.9766L7.03125 50.9766C7.03125 50.9766 3.51562 50.9766 3.51562 47.4609L3.51562 19.3359C3.51562 19.3359 3.51562 15.8203 7.03125 15.8203" stroke="#66737C" stroke-width="3.33333" stroke-linecap="round" stroke-linejoin="round" fill="none"/><path d="M35.9578 7.67578C35.4788 6.24083 34.1355 5.27324 32.6227 5.27344L23.6273 5.27344C22.1145 5.27324 20.7712 6.24083 20.2922 7.67578L17.5781 15.8203 38.6719 15.8203Z" stroke="#66737C" stroke-width="3.33333" stroke-linecap="round" stroke-linejoin="round" fill="none"/></svg>