<svg width="60" height="60" viewBox="-2.14 -2.14 60 60" xmlns="http://www.w3.org/2000/svg" xmlns:xlink="http://www.w3.org/1999/xlink" id="Cash-Molecule--Streamline-Ultimate.svg" overflow="hidden"><path d="M32.5033 22.0558 25.9864 22.0558C24.5703 21.9423 23.3302 22.9983 23.2167 24.4144 23.2057 24.5513 23.2057 24.6888 23.2167 24.8256 23.2167 27.86 32.5033 30.1817 32.5033 33.2161 32.5305 34.7186 31.3345 35.9587 29.832 35.9858 29.7992 35.9864 29.7664 35.9864 29.7336 35.9858L23.2167 35.9858" stroke="#66737C" stroke-width="3.57143" stroke-linecap="round" stroke-linejoin="round" fill="none"/><path d="M27.86 22.0558 27.86 18.5733" stroke="#66737C" stroke-width="3.57143" stroke-linecap="round" stroke-linejoin="round" fill="none"/><path d="M27.86 39.4683 27.86 35.9858" stroke="#66737C" stroke-width="3.57143" stroke-linecap="round" stroke-linejoin="round" fill="none"/><path d="M6.965 19.7342 6.965 35.9858" stroke="#66737C" stroke-width="3.57143" stroke-linecap="round" stroke-linejoin="round" fill="none"/><path d="M24.3775 4.64333C24.3775 6.56667 25.9367 8.12583 27.86 8.12583 29.7833 8.12583 31.3425 6.56667 31.3425 4.64333 31.3425 2.72 29.7833 1.16083 27.86 1.16083 25.9367 1.16083 24.3775 2.72 24.3775 4.64333Z" stroke="#66737C" stroke-width="3.57143" stroke-linecap="round" stroke-linejoin="round" fill="none"/><path d="M3.4825 16.2517C3.4825 18.175 5.04167 19.7342 6.965 19.7342 8.88833 19.7342 10.4475 18.175 10.4475 16.2517 10.4475 14.3283 8.88833 12.7692 6.965 12.7692 5.04167 12.7692 3.4825 14.3283 3.4825 16.2517Z" stroke="#66737C" stroke-width="3.57143" stroke-linecap="round" stroke-linejoin="round" fill="none"/><path d="M3.4825 39.4683C3.4825 41.3917 5.04167 42.9508 6.965 42.9508 8.88833 42.9508 10.4475 41.3917 10.4475 39.4683 10.4475 37.545 8.88833 35.9858 6.965 35.9858 5.04167 35.9858 3.4825 37.545 3.4825 39.4683Z" stroke="#66737C" stroke-width="3.57143" stroke-linecap="round" stroke-linejoin="round" fill="none"/><path d="M45.2725 16.2517C45.2725 18.175 46.8317 19.7342 48.755 19.7342 50.6783 19.7342 52.2375 18.175 52.2375 16.2517 52.2375 14.3283 50.6783 12.7692 48.755 12.7692 46.8317 12.7692 45.2725 14.3283 45.2725 16.2517Z" stroke="#66737C" stroke-width="3.57143" stroke-linecap="round" stroke-linejoin="round" fill="none"/><path d="M45.2725 39.4683C45.2725 41.3917 46.8317 42.9508 48.755 42.9508 50.6783 42.9508 52.2375 41.3917 52.2375 39.4683 52.2375 37.545 50.6783 35.9858 48.755 35.9858 46.8317 35.9858 45.2725 37.545 45.2725 39.4683Z" stroke="#66737C" stroke-width="3.57143" stroke-linecap="round" stroke-linejoin="round" fill="none"/><path d="M24.3775 51.0767C24.3775 53 25.9367 54.5592 27.86 54.5592 29.7833 54.5592 31.3425 53 31.3425 51.0767 31.3425 49.1533 29.7833 47.5942 27.86 47.5942 25.9367 47.5942 24.3775 49.1533 24.3775 51.0767Z" stroke="#66737C" stroke-width="3.57143" stroke-linecap="round" stroke-linejoin="round" fill="none"/><path d="M10.0087 41.1608 24.8163 49.3842" stroke="#66737C" stroke-width="3.57143" stroke-linecap="round" stroke-linejoin="round" fill="none"/><path d="M30.9037 49.3842 45.7113 41.1608" stroke="#66737C" stroke-width="3.57143" stroke-linecap="round" stroke-linejoin="round" fill="none"/><path d="M48.755 35.9858 48.755 19.7342" stroke="#66737C" stroke-width="3.57143" stroke-linecap="round" stroke-linejoin="round" fill="none"/><path d="M45.7113 14.5592 30.9037 6.33583" stroke="#66737C" stroke-width="3.57143" stroke-linecap="round" stroke-linejoin="round" fill="none"/><path d="M24.8163 6.33583 10.0087 14.5592" stroke="#66737C" stroke-width="3.57143" stroke-linecap="round" stroke-linejoin="round" fill="none"/></svg>