<svg width="60" height="60" viewBox="-1.875 -1.875 60 60" xmlns="http://www.w3.org/2000/svg" xmlns:xlink="http://www.w3.org/1999/xlink" id="Casino-Chip-5--Streamline-Ultimate" overflow="hidden"><path d="M1.75781 28.125C1.75781 42.6872 13.5628 54.4922 28.125 54.4922 42.6872 54.4922 54.4922 42.6872 54.4922 28.125 54.4922 13.5628 42.6872 1.75781 28.125 1.75781 13.5628 1.75781 1.75781 13.5628 1.75781 28.125Z" stroke="#66737C" stroke-width="3.57143" stroke-linecap="round" stroke-linejoin="round" fill="none"/><path d="M11.175 28.125C11.175 37.4862 18.7638 45.075 28.125 45.075 37.4862 45.075 45.075 37.4862 45.075 28.125 45.075 18.7638 37.4862 11.175 28.125 11.175 18.7638 11.175 11.175 18.7638 11.175 28.125Z" stroke="#66737C" stroke-width="3.57143" stroke-linecap="round" stroke-linejoin="round" fill="none"/><path d="M23.7703 33.3258C24.7997 34.6797 26.4256 35.4454 28.125 35.3766 30.7945 35.3766 32.9602 33.7523 32.9602 31.7508 32.9602 29.7492 30.7945 28.125 28.125 28.125 25.4555 28.125 23.2922 26.5008 23.2922 24.4969 23.2922 22.493 25.4555 20.8734 28.125 20.8734 29.8244 20.8046 31.4503 21.5703 32.4797 22.9242" stroke="#66737C" stroke-width="3.57143" stroke-linecap="round" stroke-linejoin="round" fill="none"/><path d="M28.125 35.3766 28.125 37.793" stroke="#66737C" stroke-width="3.57143" stroke-linecap="round" stroke-linejoin="round" fill="none"/><path d="M28.125 18.457 28.125 20.8734" stroke="#66737C" stroke-width="3.57143" stroke-linecap="round" stroke-linejoin="round" fill="none"/><path d="M23.1187 2.23125 24.907 11.4844" stroke="#66737C" stroke-width="3.57143" stroke-linecap="round" stroke-linejoin="round" fill="none"/><path d="M31.1555 11.4445 32.8383 2.17734" stroke="#66737C" stroke-width="3.57143" stroke-linecap="round" stroke-linejoin="round" fill="none"/><path d="M3.19922 19.5141 12.1055 22.5891" stroke="#66737C" stroke-width="3.57143" stroke-linecap="round" stroke-linejoin="round" fill="none"/><path d="M15.1945 17.1609 8.01094 11.0695" stroke="#66737C" stroke-width="3.57143" stroke-linecap="round" stroke-linejoin="round" fill="none"/><path d="M8.20312 45.4055 15.3188 39.2344" stroke="#66737C" stroke-width="3.57143" stroke-linecap="round" stroke-linejoin="round" fill="none"/><path d="M12.1641 33.8414 3.29766 37.0148" stroke="#66737C" stroke-width="3.57143" stroke-linecap="round" stroke-linejoin="round" fill="none"/><path d="M33.1312 54.0187 31.343 44.7656" stroke="#66737C" stroke-width="3.57143" stroke-linecap="round" stroke-linejoin="round" fill="none"/><path d="M25.0945 44.8055 23.4117 54.0727" stroke="#66737C" stroke-width="3.57143" stroke-linecap="round" stroke-linejoin="round" fill="none"/><path d="M53.0508 36.7359 44.1445 33.6609" stroke="#66737C" stroke-width="3.57143" stroke-linecap="round" stroke-linejoin="round" fill="none"/><path d="M41.0555 39.0891 48.2391 45.1805" stroke="#66737C" stroke-width="3.57143" stroke-linecap="round" stroke-linejoin="round" fill="none"/><path d="M48.0469 10.8445 40.9313 17.0156" stroke="#66737C" stroke-width="3.57143" stroke-linecap="round" stroke-linejoin="round" fill="none"/><path d="M44.0859 22.4086 52.9523 19.2352" stroke="#66737C" stroke-width="3.57143" stroke-linecap="round" stroke-linejoin="round" fill="none"/></svg>