<svg width="60" height="60" viewBox="-1.875 -1.875 60 60" xmlns="http://www.w3.org/2000/svg" xmlns:xlink="http://www.w3.org/1999/xlink" id="Casino-777-Slot-Machine--Streamline-Ultimate" fill="none" overflow="hidden"><path d="M41.6016 12.3047 4.10156 12.3047C2.80716 12.3047 1.75781 13.354 1.75781 14.6484L1.75781 52.1484C1.75781 53.4429 2.80716 54.4922 4.10156 54.4922L41.6016 54.4922C42.896 54.4922 43.9453 53.4429 43.9453 52.1484L43.9453 14.6484C43.9453 13.354 42.896 12.3047 41.6016 12.3047Z" stroke="#66737C" stroke-width="3.57143" stroke-linecap="round" stroke-linejoin="round"/><path d="M1.75781 19.3359 43.9453 19.3359" stroke="#66737C" stroke-width="3.57143" stroke-linecap="round" stroke-linejoin="round"/><path d="M1.75781 36.9141 43.9453 36.9141" stroke="#66737C" stroke-width="3.57143" stroke-linecap="round" stroke-linejoin="round"/><path d="M15.8203 19.3359 15.8203 36.9141" stroke="#66737C" stroke-width="3.57143" stroke-linecap="round" stroke-linejoin="round"/><path d="M29.8828 19.3359 29.8828 36.9141" stroke="#66737C" stroke-width="3.57143" stroke-linecap="round" stroke-linejoin="round"/><path d="M38.6719 12.3047 38.6719 11.4258C38.6719 6.09375 31.5891 1.75781 22.8516 1.75781 14.1141 1.75781 7.03125 6.09375 7.03125 11.4258L7.03125 12.3047" stroke="#66737C" stroke-width="3.57143" stroke-linecap="round" stroke-linejoin="round"/><path d="M8.78906 47.4609 15.8203 47.4609" stroke="#66737C" stroke-width="3.57143" stroke-linecap="round" stroke-linejoin="round"/><path d="M50.9766 28.125 50.9766 40.4297C50.9766 42.2944 50.2357 44.0829 48.9171 45.4015 47.5985 46.7201 45.81 47.4609 43.9453 47.4609" stroke="#66737C" stroke-width="3.57143" stroke-linecap="round" stroke-linejoin="round"/><path d="M50.9766 28.125C52.9181 28.125 54.4922 26.5509 54.4922 24.6094 54.4922 22.6677 52.9181 21.0938 50.9766 21.0938 49.035 21.0938 47.4609 22.6677 47.4609 24.6094 47.4609 26.5509 49.035 28.125 50.9766 28.125Z" stroke="#66737C" stroke-width="3.57143" stroke-linecap="round" stroke-linejoin="round"/><path d="M8.78906 29.0039C8.30365 29.0039 7.91016 28.6104 7.91016 28.125 7.91016 27.6396 8.30365 27.2461 8.78906 27.2461" stroke="#66737C" stroke-width="3.57143"/><path d="M8.78906 29.0039C9.27448 29.0039 9.66797 28.6104 9.66797 28.125 9.66797 27.6396 9.27448 27.2461 8.78906 27.2461" stroke="#66737C" stroke-width="3.57143"/><path d="M22.8516 29.0039C22.3661 29.0039 21.9727 28.6104 21.9727 28.125 21.9727 27.6396 22.3661 27.2461 22.8516 27.2461" stroke="#66737C" stroke-width="3.57143"/><path d="M22.8516 29.0039C23.337 29.0039 23.7305 28.6104 23.7305 28.125 23.7305 27.6396 23.337 27.2461 22.8516 27.2461" stroke="#66737C" stroke-width="3.57143"/><g><path d="M36.9141 29.0039C36.4287 29.0039 36.0352 28.6104 36.0352 28.125 36.0352 27.6396 36.4287 27.2461 36.9141 27.2461" stroke="#66737C" stroke-width="3.57143"/><path d="M36.9141 29.0039C37.3995 29.0039 37.793 28.6104 37.793 28.125 37.793 27.6396 37.3995 27.2461 36.9141 27.2461" stroke="#66737C" stroke-width="3.57143"/></g></svg>