<svg width="60" height="60" viewBox="-1.875 -1.875 60 60" xmlns="http://www.w3.org/2000/svg" xmlns:xlink="http://www.w3.org/1999/xlink" id="Casino-Player-Diamond--Streamline-Ultimate" overflow="hidden"><g><g><path d="M17.5781 12.3047 17.5781 29.8828" stroke="#66737C" stroke-width="3.33333" stroke-linecap="round" stroke-linejoin="round" fill="none"/><path d="M17.5781 29.8828 32.8125 13.3125C33.4031 12.7242 33.4917 11.799 33.0234 11.1094L26.8828 2.53125C26.5538 2.05166 26.0113 1.76292 25.4297 1.75781L9.72656 1.75781C9.14496 1.76292 8.60249 2.05166 8.27344 2.53125L2.0625 11.1094C1.61208 11.8153 1.73042 12.7423 2.34375 13.3125L17.5781 29.8828" stroke="#66737C" stroke-width="3.33333" stroke-linecap="round" stroke-linejoin="round" fill="none"/><path d="M1.78125 12.3047 33.375 12.3047" stroke="#66737C" stroke-width="3.33333" stroke-linecap="round" stroke-linejoin="round" fill="none"/><path d="M8.27344 2.53125 17.5781 12.3047 26.8828 2.53125" stroke="#66737C" stroke-width="3.33333" stroke-linecap="round" stroke-linejoin="round" fill="none"/></g><g><path d="M39.0938 54.4922 39.0938 49.2188 41.4375 49.6172C45.2664 50.2648 48.8953 47.6858 49.5429 43.857 49.6139 43.4371 49.6466 43.0117 49.6406 42.5859L49.6406 36.9141 51.8203 36.375C53.7142 35.8916 54.8576 33.9644 54.3741 32.0706 54.2778 31.693 54.1197 31.3339 53.9062 31.0078L49.6406 24.6094 49.6406 22.8516C49.4676 16.7431 46.0323 11.1965 40.6406 8.32031" stroke="#66737C" stroke-width="3.33333" stroke-linecap="round" stroke-linejoin="round" fill="none"/><path d="M8.55469 33.1406C10.2041 37.9676 13.5306 42.0427 17.9297 44.625L17.9297 54.4922" stroke="#66737C" stroke-width="3.33333" stroke-linecap="round" stroke-linejoin="round" fill="none"/></g></g></svg>