<svg width="60" height="60" viewBox="-1.875 -1.875 60 60" xmlns="http://www.w3.org/2000/svg" xmlns:xlink="http://www.w3.org/1999/xlink" id="Ccpa-Shield-Protection--Streamline-Ultimate" overflow="hidden"><g><path d="M8.08594 39.8438C11.7371 46.6542 17.9273 51.7495 25.3125 54.0234 26.9345 54.646 28.7296 54.646 30.3516 54.0234 37.7504 51.7748 43.9492 46.6724 47.5781 39.8438" stroke="#66737C" stroke-width="3.33333" stroke-linecap="round" stroke-linejoin="round" fill="none"/><path d="M50.6719 11.7188 50.6719 9.1875C50.6867 7.82066 49.8975 6.57255 48.6562 6 42.0942 3.13824 35.0024 1.69272 27.8438 1.75781 20.6852 1.69342 13.5935 3.13892 7.03125 6 5.79293 6.57945 4.99913 7.82034 4.99219 9.1875L4.99219 11.7188" stroke="#66737C" stroke-width="3.33333" stroke-linecap="round" stroke-linejoin="round" fill="none"/><path d="M31.0547 33.2578 31.0547 19.1953" stroke="#66737C" stroke-width="3.33333" stroke-linecap="round" stroke-linejoin="round" fill="none"/><path d="M31.0547 19.1953 33.7031 19.1953C36.1302 19.3727 37.9539 21.484 37.7765 23.911 37.6172 26.0913 35.8834 27.825 33.7031 27.9844L31.0547 27.9844" stroke="#66737C" stroke-width="3.33333" stroke-linecap="round" stroke-linejoin="round" fill="none"/><path d="M10.5469 19.1953 8.20312 19.1953C5.61429 19.1953 3.51562 21.294 3.51562 23.8828L3.51562 28.5703C3.51562 31.1591 5.61429 33.2578 8.20312 33.2578L10.5469 33.2578" stroke="#66737C" stroke-width="3.33333" stroke-linecap="round" stroke-linejoin="round" fill="none"/><path d="M24.6094 19.1953 22.2656 19.1953C19.6768 19.1953 17.5781 21.294 17.5781 23.8828L17.5781 28.5703C17.5781 31.1591 19.6768 33.2578 22.2656 33.2578L24.6094 33.2578" stroke="#66737C" stroke-width="3.33333" stroke-linecap="round" stroke-linejoin="round" fill="none"/><path d="M45.7031 33.0469 45.7031 22.7109C45.7031 20.7693 47.2771 19.1953 49.2188 19.1953 51.1604 19.1953 52.7344 20.7693 52.7344 22.7109L52.7344 33.2578" stroke="#66737C" stroke-width="3.33333" stroke-linecap="round" stroke-linejoin="round" fill="none"/><path d="M45.7031 28.5703 52.7344 28.5703" stroke="#66737C" stroke-width="3.33333" stroke-linecap="round" stroke-linejoin="round" fill="none"/></g></svg>