<svg width="60" height="60" viewBox="-2.14 -2.14 60 60" xmlns="http://www.w3.org/2000/svg" xmlns:xlink="http://www.w3.org/1999/xlink" id="Ceiling-Lamp--Streamline-Ultimate.svg" overflow="hidden"><path d="M34.825 18.7382 34.825 16.045C34.9022 12.5427 32.4558 9.48952 29.0208 8.80144 25.228 8.16033 21.6335 10.7153 20.9924 14.5082 20.9275 14.8925 20.8949 15.2815 20.895 15.6713L20.895 18.7382C14.17 21.3641 9.49158 27.5466 8.79215 34.7321 8.73308 35.6843 9.45705 36.504 10.4092 36.5631 10.4529 36.5658 10.4966 36.5669 10.5404 36.5663L45.1796 36.5662C46.1335 36.5796 46.9176 35.8172 46.931 34.8633 46.9316 34.8196 46.9306 34.7758 46.9278 34.7321 46.2284 27.5466 41.55 21.3641 34.825 18.7382Z" stroke="#66737C" stroke-width="3.57143" stroke-linecap="round" stroke-linejoin="round" fill="none"/><path d="M27.86 1.74125 27.86 8.70625" stroke="#66737C" stroke-width="3.57143" stroke-linecap="round" stroke-linejoin="round" fill="none"/><path d="M34.825 36.5662C34.825 40.4129 31.7067 43.5312 27.86 43.5312 24.0133 43.5312 20.895 40.4129 20.895 36.5662" stroke="#66737C" stroke-width="3.57143" stroke-linecap="round" stroke-linejoin="round" fill="none"/><path d="M27.86 53.9787 27.86 50.4963" stroke="#66737C" stroke-width="3.57143" stroke-linecap="round" stroke-linejoin="round" fill="none"/><path d="M40.0488 47.0137 43.5312 52.2375" stroke="#66737C" stroke-width="3.57143" stroke-linecap="round" stroke-linejoin="round" fill="none"/><path d="M15.6713 47.0137 12.1888 52.2375" stroke="#66737C" stroke-width="3.57143" stroke-linecap="round" stroke-linejoin="round" fill="none"/></svg>