<svg width="60" height="60" viewBox="-2.14 -2.14 60 60" xmlns="http://www.w3.org/2000/svg" xmlns:xlink="http://www.w3.org/1999/xlink" id="Certified-Certificate--Streamline-Ultimate.svg" fill="none" overflow="hidden"><path d="M15.6713 43.5312 15.6713 48.755C15.6713 50.1403 15.1209 51.469 14.1412 52.4488 13.1616 53.4283 11.8329 53.9787 10.4475 53.9787L34.825 53.9787C36.2103 53.9787 37.539 53.4283 38.5188 52.4488 39.4983 51.469 40.0488 50.1403 40.0488 48.755L40.0488 9.07772C40.0488 7.76365 41.0656 1.74125 47.0137 1.74125 48.8609 1.74125 50.6325 2.47506 51.9387 3.78125 53.2449 5.08744 53.9787 6.85902 53.9787 8.70625L53.9787 15.6713 40.0488 15.6713" stroke="#66737C" stroke-width="3.57143" stroke-linecap="round" stroke-linejoin="round"/><path d="M47.0137 1.74125 26.1187 1.74125" stroke="#66737C" stroke-width="3.57143" stroke-linecap="round" stroke-linejoin="round"/><path d="M6.3544 20.8556 4.48546 34.5046C4.41922 34.87 4.47132 35.2468 4.63416 35.5805 4.797 35.9141 5.06209 36.1871 5.39082 36.3596 5.71954 36.5321 6.09475 36.5953 6.46183 36.5398 6.82888 36.4841 7.16866 36.313 7.43165 36.0508L12.1888 31.2914 16.9482 36.0508C17.2112 36.313 17.5509 36.4841 17.918 36.5398 18.2851 36.5953 18.6603 36.5321 18.989 36.3596 19.3177 36.1871 19.5828 35.9141 19.7457 35.5805 19.9085 35.2468 19.9606 34.87 19.8944 34.5046L18.037 20.8556" stroke="#66737C" stroke-width="3.57143" stroke-linecap="round" stroke-linejoin="round"/><path d="M12.1888 22.6362C17.9587 22.6362 22.6362 17.9587 22.6362 12.1888 22.6362 6.41876 17.9587 1.74125 12.1888 1.74125 6.41876 1.74125 1.74125 6.41876 1.74125 12.1888 1.74125 17.9587 6.41876 22.6362 12.1888 22.6362Z" stroke="#66737C" stroke-width="3.57143" stroke-linecap="round" stroke-linejoin="round"/><path d="M12.1888 13.0594C11.7079 13.0594 11.3181 12.6696 11.3181 12.1888 11.3181 11.7079 11.7079 11.3181 12.1888 11.3181" stroke="#66737C" stroke-width="3.57143"/><path d="M12.1888 13.0594C12.6696 13.0594 13.0594 12.6696 13.0594 12.1888 13.0594 11.7079 12.6696 11.3181 12.1888 11.3181" stroke="#66737C" stroke-width="3.57143"/></svg>