<svg width="60" height="60" viewBox="-1.875 -1.875 60 60" xmlns="http://www.w3.org/2000/svg" xmlns:xlink="http://www.w3.org/1999/xlink" id="Chat-Translate--Streamline-Ultimate" overflow="hidden"><path d="M10.5469 19.3359 10.5469 12.3047C10.5469 10.3631 12.1209 8.78906 14.0625 8.78906 16.0041 8.78906 17.5781 10.3631 17.5781 12.3047L17.5781 19.3359" stroke="#66737C" stroke-width="3.33333" stroke-linecap="round" stroke-linejoin="round" fill="none"/><path d="M10.5469 15.8203 17.5781 15.8203" stroke="#66737C" stroke-width="3.33333" stroke-linecap="round" stroke-linejoin="round" fill="none"/><path d="M38.6719 24.6094 38.6719 28.125" stroke="#66737C" stroke-width="3.33333" stroke-linecap="round" stroke-linejoin="round" fill="none"/><path d="M31.6406 28.125 45.7031 28.125" stroke="#66737C" stroke-width="3.33333" stroke-linecap="round" stroke-linejoin="round" fill="none"/><path d="M42.1875 28.125C42.1875 28.125 38.6719 38.6719 31.6406 38.6719" stroke="#66737C" stroke-width="3.33333" stroke-linecap="round" stroke-linejoin="round" fill="none"/><path d="M38.6719 34.6102C40.2607 36.9793 42.8571 38.4792 45.7031 38.6719" stroke="#66737C" stroke-width="3.33333" stroke-linecap="round" stroke-linejoin="round" fill="none"/><path d="M26.3672 43.9453C24.4256 43.9453 22.8516 42.3713 22.8516 40.4297L22.8516 22.8516C22.8516 20.9099 24.4256 19.3359 26.3672 19.3359L50.9766 19.3359C52.9182 19.3359 54.4922 20.9099 54.4922 22.8516L54.4922 40.4297C54.4922 42.3713 52.9182 43.9453 50.9766 43.9453L47.4609 43.9453 47.4609 54.4922 36.9141 43.9453Z" stroke="#66737C" stroke-width="3.33333" stroke-linecap="round" stroke-linejoin="round" fill="none"/><path d="M15.8203 29.8828 8.78906 36.9141 8.78906 26.3672 5.27344 26.3672C3.33181 26.3672 1.75781 24.7932 1.75781 22.8516L1.75781 5.27344C1.75781 3.33181 3.33181 1.75781 5.27344 1.75781L29.8828 1.75781C31.8244 1.75781 33.3984 3.33181 33.3984 5.27344L33.3984 12.3047" stroke="#66737C" stroke-width="3.33333" stroke-linecap="round" stroke-linejoin="round" fill="none"/></svg>