<svg width="60" height="60" viewBox="-1.875 -1.875 60 60" xmlns="http://www.w3.org/2000/svg" xmlns:xlink="http://www.w3.org/1999/xlink" id="Chemical-Hexagon-1--Streamline-Ultimate" fill="none" overflow="hidden"><path d="M20.6371 10.5709 31.3685 16.7667 31.3685 29.1584 20.6371 35.3541 9.90563 29.1584 9.90563 16.7667 20.6371 10.5709Z" stroke="#66737C" stroke-width="3.33333" stroke-linejoin="round"/><path d="M31.3962 29.0309 42.1277 35.2266 42.1277 47.6182 31.3962 53.8141 20.6648 47.6182 20.6648 35.2266 31.3962 29.0309Z" stroke="#66737C" stroke-width="3.33333" stroke-linejoin="round"/><path d="M42.1554 10.5709 52.887 16.7667 52.887 29.1584 42.1554 35.3541 31.4241 29.1584 31.4241 16.7667 42.1554 10.5709Z" stroke="#66737C" stroke-width="3.33333" stroke-linejoin="round"/><path d="M42.0752 10.6329 42.0752 1.93806" stroke="#66737C" stroke-width="3.33333" stroke-linecap="round" stroke-linejoin="round"/><path d="M46.8258 25.6748 46.8258 19.681" stroke="#66737C" stroke-width="3.33333" stroke-linecap="round" stroke-linejoin="round"/><path d="M32.5331 47.2676 26.9955 43.7187" stroke="#66737C" stroke-width="3.33333" stroke-linecap="round" stroke-linejoin="round"/><path d="M21.0217 28.0823 25.6106 25.4895" stroke="#66737C" stroke-width="3.33333" stroke-linecap="round" stroke-linejoin="round"/><path d="M20.696 47.8678 10.3649 54.3122" stroke="#66737C" stroke-width="3.33333" stroke-linecap="round" stroke-linejoin="round"/><path d="M10.0583 16.8731 2.07825 12.7813" stroke="#66737C" stroke-width="3.33333" stroke-linecap="round" stroke-linejoin="round"/><path d="M42.5876 47.7654 51.5883 53.5959" stroke="#66737C" stroke-width="3.33333" stroke-linecap="round" stroke-linejoin="round"/></svg>