<svg width="60" height="60" viewBox="-2.14 -2.14 60 60" xmlns="http://www.w3.org/2000/svg" xmlns:xlink="http://www.w3.org/1999/xlink" id="Chess-Figures--Streamline-Ultimate.svg" overflow="hidden"><path d="M36.5662 41.79 49.2867 41.79C50.9891 41.7895 52.4424 43.0198 52.7227 44.6991L53.9323 48.1815C54.249 50.0786 52.9679 51.8733 51.0708 52.19 50.8809 52.2217 50.6888 52.2376 50.4962 52.2375L38.3075 52.2375" stroke="#66737C" stroke-width="3.57143" stroke-linecap="round" stroke-linejoin="round" fill="none"/><path d="M6.52853 41.79 6.52853 39.2362C6.53025 32.7778 9.46699 26.6703 14.5104 22.6363L5.12624 22.6362C3.25548 22.6345 1.74032 21.1166 1.74203 19.2458 1.74285 18.3493 2.09907 17.4897 2.7326 16.8553L11.3228 8.26513 11.3228 3.4825 12.1679 3.67056C20.062 5.42872 25.6744 12.436 25.666 20.5235L25.666 22.6362C17.6865 30.6181 27.268 41.8364 27.268 41.8364" stroke="#66737C" stroke-width="3.57143" stroke-linecap="round" stroke-linejoin="round" fill="none"/><path d="M35.0386 21.4545 32.6078 34.825" stroke="#66737C" stroke-width="3.57143" stroke-linecap="round" stroke-linejoin="round" fill="none"/><path d="M47.0137 41.79 43.3177 21.4592" stroke="#66737C" stroke-width="3.57143" stroke-linecap="round" stroke-linejoin="round" fill="none"/><path d="M31.3425 14.8006C31.3425 19.1281 34.8506 22.6362 39.1781 22.6362 43.5056 22.6362 47.0138 19.1281 47.0138 14.8006 47.0138 10.4731 43.5056 6.965 39.1781 6.965 34.8506 6.965 31.3425 10.4731 31.3425 14.8006Z" stroke="#66737C" stroke-width="3.57143" stroke-linecap="round" stroke-linejoin="round" fill="none"/><path d="M31.1637 47.6545 30.0029 44.172C29.5292 42.7497 28.1983 41.7901 26.6992 41.79L6.38458 41.79C4.88542 41.7901 3.55459 42.7497 3.08085 44.172L1.92002 47.6545C1.31225 49.4793 2.29882 51.4513 4.1236 52.0591 4.47836 52.1772 4.84983 52.2375 5.22375 52.2375L27.86 52.2375C29.7833 52.2373 31.3424 50.678 31.3422 48.7547 31.3421 48.3808 31.2819 48.0093 31.1637 47.6545Z" stroke="#66737C" stroke-width="3.57143" stroke-linecap="round" stroke-linejoin="round" fill="none"/></svg>