<svg width="60" height="60" viewBox="-2.14 -2.14 60 60" xmlns="http://www.w3.org/2000/svg" xmlns:xlink="http://www.w3.org/1999/xlink" id="Circle-Pad-Finger--Streamline-Ultimate.svg" overflow="hidden"><path d="M23.7971 53.9718 14.8587 42.057C13.9535 40.8501 13.907 39.2038 14.7426 37.9476L14.7426 37.9476C15.835 36.312 18.0466 35.8716 19.6822 36.964 19.7354 36.9995 19.7875 37.0364 19.8386 37.0747L23.7855 40.0418 23.7855 17.4125C23.7855 15.4892 25.3446 13.93 27.268 13.93 27.2718 13.93 27.2757 13.93 27.2796 13.93L27.2796 13.93C29.2029 13.93 30.7621 15.4892 30.7621 17.4125L30.7621 31.3425 40.4527 33.497C43.8722 34.2568 46.1954 37.4379 45.8785 40.9263L44.6921 53.9787Z" stroke="#66737C" stroke-width="3.57143" stroke-linecap="round" stroke-linejoin="round" fill="none"/><path d="M15.0908 31.5747C8.22743 24.8387 8.12417 13.8142 14.8602 6.95075 21.5962 0.0873541 32.6207-0.0159137 39.4841 6.7201 45.154 12.2848 46.3386 20.9816 42.3635 27.86" stroke="#66737C" stroke-width="3.57143" stroke-linecap="round" stroke-linejoin="round" fill="none"/></svg>