<svg width="60" height="60" viewBox="-2.14 -2.14 60 60" xmlns="http://www.w3.org/2000/svg" xmlns:xlink="http://www.w3.org/1999/xlink" id="Clean-Car-Gas--Streamline-Ultimate.svg" overflow="hidden"><path d="M33.6758 48.2233C33.6758 48.2233 36.5082 54.0136 41.2699 53.5794 50.9234 52.6972 50.2757 39.8653 53.8069 35.3334 47.7514 32.3177 40.6182 32.3825 34.6184 35.5076 29.6152 38.333 29.253 43.1017 33.6758 48.2233Z" stroke="#66737C" stroke-width="3.57143" stroke-linecap="round" stroke-linejoin="round" fill="none"/><path d="M40.5061 42.3379C40.5061 42.3379 34.2376 43.1133 29.7707 54.0159" stroke="#66737C" stroke-width="3.57143" stroke-linecap="round" stroke-linejoin="round" fill="none"/><path d="M14.0995 22.6757 41.9595 22.6757 41.9595 5.26322C41.9595 3.33989 40.4003 1.78072 38.477 1.78072L17.582 1.78072C15.6587 1.78072 14.0995 3.33989 14.0995 5.26322Z" stroke="#66737C" stroke-width="3.57143" stroke-linecap="round" stroke-linejoin="round" fill="none"/><path d="M21.0645 8.74572 34.9945 8.74572 34.9945 15.7107 21.0645 15.7107Z" stroke="#66737C" stroke-width="3.57143" stroke-linecap="round" stroke-linejoin="round" fill="none"/><path d="M41.9595 26.1582 41.9595 22.6757 14.0995 22.6757 14.0995 43.5707C14.0995 45.494 15.6587 47.0532 17.582 47.0532L24.547 47.0532" stroke="#66737C" stroke-width="3.57143" stroke-linecap="round" stroke-linejoin="round" fill="none"/><path d="M14.0995 34.8645C10.617 34.8645 7.13448 33.1232 7.13448 26.1582L7.13448 10.4196C7.13495 9.36113 6.65397 8.35986 5.82738 7.69865L1.91073 5.26322" stroke="#66737C" stroke-width="3.57143" stroke-linecap="round" stroke-linejoin="round" fill="none"/></svg>