<svg width="60" height="60" viewBox="-1.875 -1.875 60 60" xmlns="http://www.w3.org/2000/svg" xmlns:xlink="http://www.w3.org/1999/xlink" id="Coding-Apps-Website-Translation-Smartphone--Streamline-Ultimate" overflow="hidden"><defs></defs><path d="M13.0828 7.0875 13.0828 5.06719C13.0815 3.21099 14.5852 1.7052 16.4414 1.70391 16.443 1.7039 16.4445 1.7039 16.4461 1.70391L39.9961 1.70391C41.8536 1.70391 43.3594 3.2097 43.3594 5.06719L43.3594 27.007" stroke="#66737C" stroke-width="3.33333" stroke-linecap="round" stroke-linejoin="round" fill="none"/><path d="M28.125 54.5461 16.4461 54.5461C14.5899 54.5474 13.0841 53.0437 13.0828 51.1875 13.0828 51.1859 13.0828 51.1844 13.0828 51.1828L13.0828 39.7875" stroke="#66737C" stroke-width="3.33333" stroke-linecap="round" stroke-linejoin="round" fill="none"/><path d="M35.4141 17.0719 21.2531 17.0719" stroke="#66737C" stroke-width="3.33333" stroke-linecap="round" stroke-linejoin="round" fill="none"/><path d="M30.5227 12.1805 35.4141 17.0719 30.5227 21.9609" stroke="#66737C" stroke-width="3.33333" stroke-linecap="round" stroke-linejoin="round" fill="none"/><path d="M21.2531 32.2266 35.4141 32.2266" stroke="#66737C" stroke-width="3.33333" stroke-linecap="round" stroke-linejoin="round" fill="none"/><path d="M26.1445 27.3352 21.2531 32.2266 26.1445 37.118" stroke="#66737C" stroke-width="3.33333" stroke-linecap="round" stroke-linejoin="round" fill="none"/><path d="M1.75781 30.5227 1.75781 16.4602C1.75781 13.8713 3.85648 11.7727 6.44531 11.7727 9.03415 11.7727 11.1328 13.8713 11.1328 16.4602L11.1328 30.5227" stroke="#66737C" stroke-width="3.33333" stroke-linecap="round" stroke-linejoin="round" fill="none"/><path d="M1.75781 25.8352 11.1328 25.8352" stroke="#66737C" stroke-width="3.33333" stroke-linecap="round" stroke-linejoin="round" fill="none"/><path d="M45.1172 35.7961 45.1172 40.4836" stroke="#66737C" stroke-width="3.33333" stroke-linecap="round" stroke-linejoin="round" fill="none"/><path d="M35.7422 40.4836 54.4922 40.4836" stroke="#66737C" stroke-width="3.33333" stroke-linecap="round" stroke-linejoin="round" fill="none"/><path d="M50.3906 40.4836C50.3906 40.4836 45.1172 54.5461 35.7422 54.5461" stroke="#66737C" stroke-width="3.33333" stroke-linecap="round" stroke-linejoin="round" fill="none"/><path d="M54.4922 54.5461C45.1172 54.5461 39.8438 40.4836 39.8438 40.4836" stroke="#66737C" stroke-width="3.33333" stroke-linecap="round" stroke-linejoin="round" fill="none"/></svg>