<svg width="60" height="60" viewBox="-2.14 -2.14 60 60" xmlns="http://www.w3.org/2000/svg" xmlns:xlink="http://www.w3.org/1999/xlink" id="Coding-Apps-Website-Big-Data-Arrow--Streamline-Ultimate.svg" overflow="hidden"><defs></defs><path d="M2.90208 27.86 46.4333 27.86" stroke="#66737C" stroke-width="3.57143" stroke-linecap="round" stroke-linejoin="round" fill="none"/><path d="M37.7271 20.3146 46.4333 27.86 37.7271 35.4054" stroke="#66737C" stroke-width="3.57143" stroke-linecap="round" stroke-linejoin="round" fill="none"/><path d="M52.8179 1.74125 52.8179 13.3496C52.8179 15.2729 51.2587 16.8321 49.3354 16.8321 47.4121 16.8321 45.8529 15.2729 45.8529 13.3496L45.8529 1.74125" stroke="#66737C" stroke-width="3.57143" stroke-linecap="round" stroke-linejoin="round" fill="none"/><path d="M45.8529 53.9787 45.8529 42.3704C45.8529 40.4471 47.4121 38.8879 49.3354 38.8879 51.2588 38.8879 52.8179 40.4471 52.8179 42.3704L52.8179 53.9787" stroke="#66737C" stroke-width="3.57143" stroke-linecap="round" stroke-linejoin="round" fill="none"/><path d="M36.218 1.74125 36.218 10.4475C36.218 12.3708 34.6588 13.93 32.7355 13.93 30.8122 13.93 29.253 12.3708 29.253 10.4475L29.253 1.74125" stroke="#66737C" stroke-width="3.57143" stroke-linecap="round" stroke-linejoin="round" fill="none"/><path d="M29.253 53.9787 29.253 45.2725C29.253 43.3492 30.8122 41.79 32.7355 41.79 34.6588 41.79 36.218 43.3492 36.218 45.2725L36.218 53.9787" stroke="#66737C" stroke-width="3.57143" stroke-linecap="round" stroke-linejoin="round" fill="none"/><path d="M18.5733 1.74125 18.5733 9.86708" stroke="#66737C" stroke-width="3.57143" stroke-linecap="round" stroke-linejoin="round" fill="none"/><path d="M5.80417 1.74125 5.80417 7.54542" stroke="#66737C" stroke-width="3.57143" stroke-linecap="round" stroke-linejoin="round" fill="none"/><path d="M18.5733 45.8529 18.5733 53.9787" stroke="#66737C" stroke-width="3.57143" stroke-linecap="round" stroke-linejoin="round" fill="none"/><path d="M5.80417 48.1746 5.80417 53.9787" stroke="#66737C" stroke-width="3.57143" stroke-linecap="round" stroke-linejoin="round" fill="none"/></svg>