<svg width="60" height="60" viewBox="-1.875 -1.875 60 60" xmlns="http://www.w3.org/2000/svg" xmlns:xlink="http://www.w3.org/1999/xlink" id="Coding-Apps-Website-Detect-Virus-Monitor-Alert--Streamline-Ultimate" fill="none" overflow="hidden"><path d="M19.3359 8.78906 6.44531 8.78906C5.20212 8.78906 4.00983 9.28291 3.13076 10.162 2.25167 11.0411 1.75781 12.2334 1.75781 13.4766L1.75781 38.6719C1.75781 39.915 2.25167 41.1073 3.13076 41.9864 4.00983 42.8655 5.20212 43.3594 6.44531 43.3594L41.6016 43.3594C42.8447 43.3594 44.037 42.8655 44.9161 41.9864 45.7952 41.1073 46.2891 39.915 46.2891 38.6719L46.2891 33.9844" stroke="#66737C" stroke-width="3.33333" stroke-linecap="round" stroke-linejoin="round"/><path d="M13.4766 54.4922 34.5703 54.4922" stroke="#66737C" stroke-width="3.33333" stroke-linecap="round" stroke-linejoin="round"/><path d="M20.5078 43.3594 16.9922 54.4922 31.0547 54.4922 27.5391 43.3594 20.5078 43.3594Z" stroke="#66737C" stroke-width="3.33333" stroke-linecap="round" stroke-linejoin="round"/><path d="M24.0234 31.7484C22.4458 31.7484 20.9328 31.1217 19.8173 30.0061 18.7017 28.8907 18.075 27.3776 18.075 25.8L18.075 22.8258C18.0739 21.7808 18.3483 20.7539 18.8704 19.8487 19.3926 18.9435 20.1441 18.1918 21.0492 17.6695" stroke="#66737C" stroke-width="3.33333" stroke-linecap="round" stroke-linejoin="round"/><path d="M18.6 20.3766 13.6125 15.3867" stroke="#66737C" stroke-width="3.33333" stroke-linecap="round" stroke-linejoin="round"/><path d="M19.8164 30.0047 15.0984 34.7227" stroke="#66737C" stroke-width="3.33333" stroke-linecap="round" stroke-linejoin="round"/><path d="M18.075 25.8 12.1242 25.8" stroke="#66737C" stroke-width="3.33333" stroke-linecap="round" stroke-linejoin="round"/><path d="M41.0145 23.4205C40.6908 23.4205 40.4285 23.1581 40.4285 22.8345 40.4285 22.5109 40.6908 22.2486 41.0145 22.2486" stroke="#66737C" stroke-width="3.33333"/><path d="M41.0145 23.4205C41.3381 23.4205 41.6004 23.1581 41.6004 22.8345 41.6004 22.5109 41.3381 22.2486 41.0145 22.2486" stroke="#66737C" stroke-width="3.33333"/><path d="M41.0156 16.9195 41.0156 10.1812" stroke="#66737C" stroke-width="3.33333" stroke-linecap="round" stroke-linejoin="round"/><path d="M54.0703 22.9453C54.3738 23.5526 54.5173 24.2276 54.4866 24.9059 54.4561 25.5841 54.2527 26.2434 53.8959 26.8209 53.539 27.3984 53.0402 27.8754 52.4475 28.2061 51.8545 28.537 51.1868 28.7107 50.5078 28.7109L31.5234 28.7109C30.8442 28.7112 30.1763 28.5377 29.583 28.207 28.9898 27.8763 28.4909 27.3996 28.1337 26.8219 27.7765 26.2444 27.573 25.5848 27.5423 24.9063 27.5116 24.2278 27.6551 23.5528 27.9586 22.9453L37.4508 3.96096C37.7815 3.29855 38.2903 2.74139 38.9198 2.35195 39.5496 1.96253 40.2752 1.75624 41.0156 1.75624 41.756 1.75624 42.4816 1.96253 43.1114 2.35195 43.7412 2.74139 44.2498 3.29855 44.5805 3.96096L54.0703 22.9453Z" stroke="#66737C" stroke-width="3.33333" stroke-linecap="round" stroke-linejoin="round"/></svg>