<svg width="60" height="60" viewBox="-2.14 -2.14 60 60" xmlns="http://www.w3.org/2000/svg" xmlns:xlink="http://www.w3.org/1999/xlink" id="Coding-Apps-Website-Data-Conversion-Documents-1--Streamline-Ultimate.svg" overflow="hidden"><defs></defs><path d="M33.0838 50.4963C33.0838 52.4196 31.5246 53.9787 29.6013 53.9787L8.70625 53.9787C6.78292 53.9787 5.22375 52.4196 5.22375 50.4963L5.22375 22.6362C5.22375 20.7129 6.78292 19.1537 8.70625 19.1537L22.3553 19.1537C23.2783 19.1539 24.1634 19.5205 24.8163 20.173L32.0645 27.4212C32.717 28.0741 33.0836 28.9592 33.0837 29.8822Z" stroke="#66737C" stroke-width="3.57143" stroke-linecap="round" stroke-linejoin="round" fill="none"/><path d="M12.1888 27.2796 20.3146 27.2796" stroke="#66737C" stroke-width="3.57143" stroke-linecap="round" stroke-linejoin="round" fill="none"/><path d="M12.1888 34.825 26.1187 34.825" stroke="#66737C" stroke-width="3.57143" stroke-linecap="round" stroke-linejoin="round" fill="none"/><path d="M12.1888 42.3704 26.1187 42.3704" stroke="#66737C" stroke-width="3.57143" stroke-linecap="round" stroke-linejoin="round" fill="none"/><path d="M29.6012 9.86708 37.7271 9.86708" stroke="#66737C" stroke-width="3.57143" stroke-linecap="round" stroke-linejoin="round" fill="none"/><path d="M31.3425 17.4125 43.5312 17.4125" stroke="#66737C" stroke-width="3.57143" stroke-linecap="round" stroke-linejoin="round" fill="none"/><path d="M38.8879 24.9579 43.5312 24.9579" stroke="#66737C" stroke-width="3.57143" stroke-linecap="round" stroke-linejoin="round" fill="none"/><path d="M40.0488 36.5662 47.0137 36.5662C48.9371 36.5662 50.4962 35.0071 50.4962 33.0838L50.4963 12.4697C50.4961 11.5467 50.1295 10.6616 49.477 10.0087L42.2288 2.76046C41.5759 2.10803 40.6908 1.74145 39.7678 1.74125L26.1187 1.74125C24.1954 1.74125 22.6362 3.30042 22.6362 5.22375L22.6362 12.1888" stroke="#66737C" stroke-width="3.57143" stroke-linecap="round" stroke-linejoin="round" fill="none"/><path d="M12.1888 2.90208 15.6713 6.38458 9.86708 6.38458C8.58486 6.38458 7.54542 7.42403 7.54542 8.70625L7.54542 12.1888" stroke="#66737C" stroke-width="3.57143" stroke-linecap="round" stroke-linejoin="round" fill="none"/><path d="M43.5312 52.8179 40.0488 49.3354 45.8529 49.3354C47.1351 49.3354 48.1746 48.296 48.1746 47.0137L48.1746 43.5312" stroke="#66737C" stroke-width="3.57143" stroke-linecap="round" stroke-linejoin="round" fill="none"/></svg>