<svg width="60" height="60" viewBox="-2.14 -2.14 60 60" xmlns="http://www.w3.org/2000/svg" xmlns:xlink="http://www.w3.org/1999/xlink" id="Coffee-Cup--Streamline-Ultimate.svg" overflow="hidden"><path d="M8.70625 8.70625 36.5662 8.70625C38.4896 8.70625 40.0487 10.2654 40.0487 12.1888L40.0488 29.6012C40.0488 39.2179 32.2529 47.0137 22.6363 47.0137L22.6362 47.0137C13.0196 47.0137 5.22375 39.2179 5.22375 29.6012L5.22375 12.1888C5.22375 10.2654 6.78292 8.70625 8.70625 8.70625Z" stroke="#66737C" stroke-width="3.57143" stroke-linecap="round" stroke-linejoin="round" fill="none"/><path d="M1.74125 47.0137 53.9787 47.0137" stroke="#66737C" stroke-width="3.57143" stroke-linecap="round" stroke-linejoin="round" fill="none"/><path d="M40.0488 12.1888 43.5312 12.1888C49.2944 12.2053 53.9622 16.8731 53.9787 22.6362L53.9787 22.6362C53.9622 28.3994 49.2944 33.0672 43.5312 33.0837L39.7005 33.0838" stroke="#66737C" stroke-width="3.57143" stroke-linecap="round" stroke-linejoin="round" fill="none"/></svg>