<svg width="60" height="60" viewBox="-2.14 -2.14 60 60" xmlns="http://www.w3.org/2000/svg" xmlns:xlink="http://www.w3.org/1999/xlink" id="Cog-Circle--Streamline-Ultimate.svg" overflow="hidden"><path d="M24.67 27.8623C24.67 29.7049 26.1637 31.1986 28.0063 31.1986 29.8488 31.1986 31.3425 29.7049 31.3425 27.8623 31.3425 26.0198 29.8488 24.5261 28.0063 24.5261 26.1637 24.5261 24.67 26.0198 24.67 27.8623Z" stroke="#66737C" stroke-width="3.57143" stroke-linecap="round" stroke-linejoin="round" fill="none"/><path d="M30.841 14.9515 31.8231 18.1833C32.1589 19.2974 33.301 19.9603 34.435 19.6993L37.7108 18.9402C39.3157 18.5784 40.9099 19.5862 41.2716 21.191 41.488 22.151 41.2163 23.1559 40.5456 23.876L38.2541 26.3463C37.463 27.2022 37.463 28.5225 38.2541 29.3784L40.5456 31.8486C41.6668 33.0525 41.5997 34.9373 40.3959 36.0585 39.6757 36.7291 38.6708 37.0009 37.7108 36.7845L34.435 36.0253C33.301 35.7643 32.1589 36.4273 31.8231 37.5414L30.841 40.7731C30.368 42.3393 28.7148 43.2255 27.1486 42.7525 26.199 42.4657 25.456 41.7227 25.1692 40.7731L24.1871 37.5414C23.8513 36.4273 22.7092 35.7643 21.5752 36.0253L18.2994 36.7845C16.6945 37.1462 15.1003 36.1385 14.7386 34.5337 14.5222 33.5737 14.794 32.5688 15.4646 31.8486L17.7561 29.3784C18.5473 28.5225 18.5473 27.2022 17.7561 26.3463L15.4646 23.876C14.3434 22.6722 14.4105 20.7873 15.6143 19.6662 16.3345 18.9955 17.3394 18.7238 18.2994 18.9402L21.5752 19.6993C22.7092 19.9603 23.8513 19.2974 24.1871 18.1833L25.1692 14.9515C25.6422 13.3853 27.2954 12.4991 28.8617 12.9722 29.8112 13.259 30.5542 14.002 30.841 14.9515Z" stroke="#66737C" stroke-width="3.57143" stroke-linecap="round" stroke-linejoin="round" fill="none"/><path d="M1.16083 27.8623C1.16083 42.6079 13.1145 54.5615 27.86 54.5615 42.6055 54.5615 54.5592 42.6079 54.5592 27.8623 54.5592 13.1168 42.6055 1.16316 27.86 1.16316 13.1145 1.16316 1.16083 13.1168 1.16083 27.8623Z" stroke="#66737C" stroke-width="3.57143" stroke-linecap="round" stroke-linejoin="round" fill="none"/></svg>