<svg width="60" height="60" viewBox="-2.14 -2.14 60 60" xmlns="http://www.w3.org/2000/svg" xmlns:xlink="http://www.w3.org/1999/xlink" id="Cog-2--Streamline-Ultimate.svg" overflow="hidden"><path d="M10.4475 27.8623C10.4475 37.479 18.2433 45.2748 27.86 45.2748 37.4767 45.2748 45.2725 37.479 45.2725 27.8623 45.2725 18.2457 37.4767 10.4498 27.86 10.4498 18.2433 10.4498 10.4475 18.2457 10.4475 27.8623Z" stroke="#66737C" stroke-width="3.57143" stroke-linecap="round" stroke-linejoin="round" fill="none"/><path d="M3.4825 27.8623 10.4475 27.8623" stroke="#66737C" stroke-width="3.57143" stroke-linecap="round" stroke-linejoin="round" fill="none"/><path d="M45.2725 27.8623 52.2375 27.8623" stroke="#66737C" stroke-width="3.57143" stroke-linecap="round" stroke-linejoin="round" fill="none"/><path d="M27.86 3.48482 27.86 10.4498" stroke="#66737C" stroke-width="3.57143" stroke-linecap="round" stroke-linejoin="round" fill="none"/><path d="M27.86 45.2748 27.86 52.2398" stroke="#66737C" stroke-width="3.57143" stroke-linecap="round" stroke-linejoin="round" fill="none"/><path d="M10.6216 10.6239 15.5505 15.5505" stroke="#66737C" stroke-width="3.57143" stroke-linecap="round" stroke-linejoin="round" fill="none"/><path d="M40.1718 40.1718 45.0984 45.1007" stroke="#66737C" stroke-width="3.57143" stroke-linecap="round" stroke-linejoin="round" fill="none"/><path d="M45.0984 10.6239 40.1718 15.5505" stroke="#66737C" stroke-width="3.57143" stroke-linecap="round" stroke-linejoin="round" fill="none"/><path d="M15.5505 40.1718 10.6216 45.1007" stroke="#66737C" stroke-width="3.57143" stroke-linecap="round" stroke-linejoin="round" fill="none"/><path d="M22.6362 27.8623C22.6362 30.7473 24.975 33.0861 27.86 33.0861 30.745 33.0861 33.0837 30.7473 33.0837 27.8623 33.0837 24.9773 30.745 22.6386 27.86 22.6386 24.975 22.6386 22.6362 24.9773 22.6362 27.8623Z" stroke="#66737C" stroke-width="3.57143" stroke-linecap="round" stroke-linejoin="round" fill="none"/></svg>