<svg width="60" height="60" viewBox="-2.14 -2.14 60 60" xmlns="http://www.w3.org/2000/svg" xmlns:xlink="http://www.w3.org/1999/xlink" id="Color-Brush-Paint--Streamline-Ultimate.svg" overflow="hidden"><path d="M24.6584 41.5091C28.3475 37.0979 24.8906 31.4377 28.1711 27.6232 30.4034 24.8788 34.4378 24.4636 37.1822 26.696 39.9266 28.9283 40.3418 32.9627 38.1095 35.7071 38.0334 35.8007 37.9546 35.8921 37.8733 35.9812 34.6793 39.9303 29.713 42.0077 24.6584 41.5091Z" stroke="#66737C" stroke-width="3.57143" stroke-linecap="round" stroke-linejoin="round" fill="none"/><path d="M38.5397 28.5356 53.006 9.37489C54.5596 7.27373 54.1157 4.31094 52.0146 2.75731 49.9134 1.20368 46.9506 1.64754 45.397 3.7487 45.2423 3.95787 45.1052 4.17945 44.9869 4.41117L34.4698 25.5755" stroke="#66737C" stroke-width="3.57143" stroke-linecap="round" stroke-linejoin="round" fill="none"/><path d="M17.5448 39.6309C5.24 36.5129 10.0644 30.0749 4.64333 30.0749-2.40525 30.0749 4.43903 46.2522 16.0009 52.2584 22.5518 55.3241 30.318 53.9956 35.4774 48.9268L35.6654 48.7364" stroke="#66737C" stroke-width="3.57143" stroke-linecap="round" stroke-linejoin="round" fill="none"/></svg>