<svg width="60" height="60" viewBox="-1.875 -1.875 60 60" xmlns="http://www.w3.org/2000/svg" xmlns:xlink="http://www.w3.org/1999/xlink" id="Common-File-Text-Question--Streamline-Ultimate" fill="none" overflow="hidden"><path d="M40.4297 54.4922C48.1962 54.4922 54.4922 48.1962 54.4922 40.4297 54.4922 32.6632 48.1962 26.3672 40.4297 26.3672 32.6632 26.3672 26.3672 32.6632 26.3672 40.4297 26.3672 48.1962 32.6632 54.4922 40.4297 54.4922Z" stroke="#66737C" stroke-width="3.33333" stroke-linecap="round" stroke-linejoin="round"/><path d="M36.0352 37.793C36.0352 36.9239 36.293 36.0741 36.7758 35.3515 37.2586 34.6289 37.9451 34.0655 38.748 33.7329 39.551 33.4003 40.4346 33.3134 41.287 33.4828 42.1395 33.6525 42.9225 34.0711 43.537 34.6856 44.1516 35.3002 44.5702 36.0832 44.7398 36.9356 44.9093 37.788 44.8223 38.6716 44.4898 39.4746 44.1572 40.2776 43.5938 40.9641 42.8712 41.4469 42.1486 41.9297 41.2988 42.1875 40.4297 42.1875" stroke="#66737C" stroke-width="3.33333" stroke-linecap="round" stroke-linejoin="round"/><path d="M40.4297 49.2188C39.9443 49.2188 39.5508 48.8252 39.5508 48.3398 39.5508 47.8545 39.9443 47.4609 40.4297 47.4609" stroke="#66737C" stroke-width="3.33333"/><path d="M40.4297 49.2188C40.9151 49.2188 41.3086 48.8252 41.3086 48.3398 41.3086 47.8545 40.9151 47.4609 40.4297 47.4609" stroke="#66737C" stroke-width="3.33333"/><path d="M8.78906 15.8203 33.3984 15.8203" stroke="#66737C" stroke-width="3.33333" stroke-linecap="round" stroke-linejoin="round"/><path d="M8.78906 26.3672 22.8516 26.3672" stroke="#66737C" stroke-width="3.33333" stroke-linecap="round" stroke-linejoin="round"/><path d="M8.78906 36.9141 17.5781 36.9141" stroke="#66737C" stroke-width="3.33333" stroke-linecap="round" stroke-linejoin="round"/><path d="M17.5781 47.4609 5.27344 47.4609C4.34105 47.4609 3.44681 47.0906 2.78752 46.4313 2.12821 45.772 1.75781 44.8777 1.75781 43.9453L1.75781 5.27344C1.75781 4.34105 2.12821 3.44681 2.78752 2.78752 3.44681 2.12821 4.34105 1.75781 5.27344 1.75781L30.1852 1.75781C31.1168 1.75801 32.0105 2.12808 32.6695 2.78672L39.4008 9.51797C40.0594 10.177 40.4295 11.0706 40.4297 12.0023L40.4297 17.5781" stroke="#66737C" stroke-width="3.33333" stroke-linecap="round" stroke-linejoin="round"/></svg>