<svg width="60" height="60" viewBox="-1.875 -1.875 60 60" xmlns="http://www.w3.org/2000/svg" xmlns:xlink="http://www.w3.org/1999/xlink" id="Common-File-Text-Star--Streamline-Ultimate" overflow="hidden"><path d="M42.0633 27.375 45.675 35.1562 52.7062 35.1562C53.6569 35.1189 54.4578 35.8594 54.4951 36.81 54.5153 37.3243 54.3045 37.8207 53.9203 38.1633L47.8266 44.1703 51.2062 51.9352C51.5963 52.8748 51.1508 53.9528 50.2111 54.3428 49.6816 54.5626 49.08 54.5234 48.5836 54.2367L40.4062 49.6477 32.2336 54.2438C31.3525 54.7525 30.2258 54.4507 29.7171 53.5697 29.4304 53.0732 29.3912 52.4716 29.6109 51.9422L32.993 44.1773 26.8992 38.1703C26.184 37.5449 26.1113 36.4581 26.7367 35.7429 27.0784 35.3521 27.5782 35.1366 28.0969 35.1562L35.1281 35.1562 38.7469 27.368C39.2322 26.4532 40.3672 26.105 41.2819 26.5903 41.6154 26.7673 41.8878 27.0407 42.0633 27.375Z" stroke="#66737C" stroke-width="3.33333" stroke-linecap="round" stroke-linejoin="round" fill="none"/><path d="M8.78906 15.8203 33.3984 15.8203" stroke="#66737C" stroke-width="3.33333" stroke-linecap="round" stroke-linejoin="round" fill="none"/><path d="M8.78906 26.3672 26.3672 26.3672" stroke="#66737C" stroke-width="3.33333" stroke-linecap="round" stroke-linejoin="round" fill="none"/><path d="M8.78906 36.9141 17.5781 36.9141" stroke="#66737C" stroke-width="3.33333" stroke-linecap="round" stroke-linejoin="round" fill="none"/><path d="M17.5781 47.4609 5.27344 47.4609C3.33181 47.4609 1.75781 45.8869 1.75781 43.9453L1.75781 5.27344C1.75781 3.33181 3.33181 1.75781 5.27344 1.75781L30.1852 1.75781C31.1169 1.75801 32.0105 2.12808 32.6695 2.78672L39.4008 9.51797C40.0594 10.177 40.4295 11.0706 40.4297 12.0023L40.4297 17.5781" stroke="#66737C" stroke-width="3.33333" stroke-linecap="round" stroke-linejoin="round" fill="none"/></svg>