<svg width="60" height="60" viewBox="-1.875 -1.875 60 60" xmlns="http://www.w3.org/2000/svg" xmlns:xlink="http://www.w3.org/1999/xlink" id="Common-File-Text-Settings--Streamline-Ultimate" overflow="hidden"><path d="M36.9141 38.6719C36.9141 40.6135 38.4881 42.1875 40.4297 42.1875 42.3713 42.1875 43.9453 40.6135 43.9453 38.6719 43.9453 36.7302 42.3713 35.1562 40.4297 35.1562 38.4881 35.1562 36.9141 36.7302 36.9141 38.6719Z" stroke="#66737C" stroke-width="3.33333" stroke-linecap="round" stroke-linejoin="round" fill="none"/><path d="M43.4156 25.0781 44.4516 28.4836C44.8063 29.6564 46.0089 30.354 47.2031 30.0797L50.6531 29.2805C52.3439 28.8994 54.0235 29.9612 54.4046 31.652 54.6323 32.6625 54.3467 33.7203 53.6414 34.4789L51.225 37.0828C50.3884 37.9824 50.3884 39.3754 51.225 40.275L53.6414 42.8789C54.8216 44.1482 54.7494 46.134 53.48 47.3142 52.7214 48.0195 51.6636 48.3051 50.6531 48.0773L47.2031 47.2781C46.0089 47.0038 44.8063 47.7014 44.4516 48.8742L43.4156 52.2656C42.9213 53.9147 41.1838 54.8509 39.5347 54.3566 38.5304 54.0555 37.7448 53.2699 37.4438 52.2656L36.4078 48.8602C36.0531 47.6873 34.8505 46.9897 33.6562 47.2641L30.2062 48.0633C28.5154 48.4443 26.8358 47.3826 26.4548 45.6917 26.2271 44.6812 26.5126 43.6235 27.218 42.8648L29.6344 40.2609C30.471 39.3613 30.471 37.9684 29.6344 37.0687L27.218 34.4648C26.0378 33.1955 26.11 31.2098 27.3794 30.0296 28.138 29.3242 29.1957 29.0387 30.2062 29.2664L33.6562 30.0656C34.8505 30.34 36.0531 29.6424 36.4078 28.4695L37.4437 25.0641C37.9419 23.4161 39.6817 22.4841 41.3296 22.9822 42.3331 23.2856 43.117 24.0731 43.4156 25.0781Z" stroke="#66737C" stroke-width="3.33333" stroke-linecap="round" stroke-linejoin="round" fill="none"/><path d="M8.78906 15.8203 33.3984 15.8203" stroke="#66737C" stroke-width="3.33333" stroke-linecap="round" stroke-linejoin="round" fill="none"/><path d="M8.78906 26.3672 17.5781 26.3672" stroke="#66737C" stroke-width="3.33333" stroke-linecap="round" stroke-linejoin="round" fill="none"/><path d="M8.78906 36.9141 17.5781 36.9141" stroke="#66737C" stroke-width="3.33333" stroke-linecap="round" stroke-linejoin="round" fill="none"/><path d="M17.5781 47.4609 5.27344 47.4609C3.33181 47.4609 1.75781 45.8869 1.75781 43.9453L1.75781 5.27344C1.75781 3.33181 3.33181 1.75781 5.27344 1.75781L30.1852 1.75781C31.1169 1.75801 32.0105 2.12808 32.6695 2.78672L39.4008 9.51797C40.0594 10.177 40.4295 11.0706 40.4297 12.0023L40.4297 15.8203" stroke="#66737C" stroke-width="3.33333" stroke-linecap="round" stroke-linejoin="round" fill="none"/></svg>