<svg width="60" height="60" viewBox="-2.14 -2.14 60 60" xmlns="http://www.w3.org/2000/svg" xmlns:xlink="http://www.w3.org/1999/xlink" id="Compass-Direction--Streamline-Ultimate.svg" overflow="hidden"><path d="M22.2416 33.4784 26.5436 41.2235C27.0113 42.0638 28.0716 42.3658 28.9119 41.8981 29.2776 41.6945 29.5578 41.366 29.7011 40.9728L36.9725 20.9786C37.3009 20.0747 36.8343 19.0758 35.9304 18.7475 35.5464 18.6079 35.1255 18.6079 34.7414 18.7475L14.7472 26.0189C13.8437 26.3481 13.3781 27.3475 13.7073 28.2511 13.8506 28.6443 14.1308 28.9728 14.4965 29.1764Z" stroke="#66737C" stroke-width="3.57143" stroke-linecap="round" stroke-linejoin="round" fill="none"/><path d="M1.74125 27.86C1.74125 42.285 13.435 53.9788 27.86 53.9788 42.285 53.9788 53.9788 42.285 53.9788 27.86 53.9788 13.435 42.285 1.74125 27.86 1.74125 13.435 1.74125 1.74125 13.435 1.74125 27.86Z" stroke="#66737C" stroke-width="3.57143" stroke-linecap="round" stroke-linejoin="round" fill="none"/></svg>