<svg width="60" height="60" viewBox="-2.14 -2.14 60 60" xmlns="http://www.w3.org/2000/svg" xmlns:xlink="http://www.w3.org/1999/xlink" id="Construction-Fence--Streamline-Ultimate.svg" overflow="hidden"><path d="M5.22375 5.22375C3.30042 5.22375 1.74125 6.78292 1.74125 8.70625L1.74125 50.4963C1.74125 52.4196 3.30042 53.9787 5.22375 53.9787L50.4963 53.9787C52.4196 53.9787 53.9787 52.4196 53.9787 50.4963L53.9787 43.5312C53.9787 41.6079 52.4196 40.0488 50.4963 40.0488L34.5255 40.0488C33.6025 40.0486 32.7174 39.682 32.0645 39.0295L23.6555 30.6205C23.003 29.9676 22.6364 29.0825 22.6363 28.1595L22.6362 22.6362C22.6362 20.7129 21.0771 19.1537 19.1537 19.1537L15.6713 19.1537C13.7479 19.1537 12.1888 17.5946 12.1888 15.6712L12.1888 8.70625C12.1888 6.78292 10.6296 5.22375 8.70625 5.22375Z" stroke="#66737C" stroke-width="3.57143" stroke-linecap="round" stroke-linejoin="round" fill="none"/><path d="M12.1888 8.70625 53.9787 8.70625" stroke="#66737C" stroke-width="3.57143" stroke-linecap="round" stroke-linejoin="round" fill="none"/><path d="M29.6012 19.1537 53.9787 19.1537" stroke="#66737C" stroke-width="3.57143" stroke-linecap="round" stroke-linejoin="round" fill="none"/><path d="M31.3425 29.6012 53.9787 29.6012" stroke="#66737C" stroke-width="3.57143" stroke-linecap="round" stroke-linejoin="round" fill="none"/><path d="M22.6362 1.74125 22.6362 12.1888" stroke="#66737C" stroke-width="3.57143" stroke-linecap="round" stroke-linejoin="round" fill="none"/><path d="M33.0838 1.74125 33.0838 29.6012" stroke="#66737C" stroke-width="3.57143" stroke-linecap="round" stroke-linejoin="round" fill="none"/><path d="M43.5312 1.74125 43.5312 40.0488" stroke="#66737C" stroke-width="3.57143" stroke-linecap="round" stroke-linejoin="round" fill="none"/></svg>