<svg width="60" height="60" viewBox="-2.14 -2.14 60 60" xmlns="http://www.w3.org/2000/svg" xmlns:xlink="http://www.w3.org/1999/xlink" id="Currency-Euro-Decrease--Streamline-Ultimate.svg" overflow="hidden"><path d="M52.2375 43.5359 52.2375 53.9834 41.79 53.9834" stroke="#66737C" stroke-width="3.57143" stroke-linecap="round" stroke-linejoin="round" fill="none"/><path d="M52.2375 53.9834 40.5131 42.2543C39.1541 40.8965 37.1598 40.3937 35.3195 40.9449L22.0558 44.4901C20.2538 44.9711 18.3321 44.4552 17.0132 43.1366L3.4825 29.5966" stroke="#66737C" stroke-width="3.57143" stroke-linecap="round" stroke-linejoin="round" fill="none"/><path d="M27.86 26.1234C24.0133 26.1234 20.895 23.0051 20.895 19.1584 20.895 15.3117 24.0133 12.1934 27.86 12.1934" stroke="#66737C" stroke-width="3.57143" stroke-linecap="round" stroke-linejoin="round" fill="none"/><path d="M19.1537 19.1584 27.86 19.1584" stroke="#66737C" stroke-width="3.57143" stroke-linecap="round" stroke-linejoin="round" fill="none"/><path d="M7.30861 22.6061C5.40491 13.1797 11.5032 3.9949 20.9296 2.09121 30.3559 0.187517 39.5407 6.28583 41.4444 15.7122 42.7741 22.2962 40.1982 29.0579 34.825 33.0884" stroke="#66737C" stroke-width="3.57143" stroke-linecap="round" stroke-linejoin="round" fill="none"/></svg>