<svg width="60" height="60" viewBox="-2.14 -2.14 60 60" xmlns="http://www.w3.org/2000/svg" xmlns:xlink="http://www.w3.org/1999/xlink" id="Currency-Pound-Increase--Streamline-Ultimate.svg" overflow="hidden"><path d="M52.2375 40.0441 52.2375 29.5966 41.79 29.5966" stroke="#66737C" stroke-width="3.57143" stroke-linecap="round" stroke-linejoin="round" fill="none"/><path d="M52.2375 29.5966 40.5131 41.3257C39.1544 42.6839 37.1602 43.1876 35.3195 42.6374L22.0558 39.0899C20.2538 38.6089 18.3321 39.1248 17.0132 40.4434L3.4825 53.9834" stroke="#66737C" stroke-width="3.57143" stroke-linecap="round" stroke-linejoin="round" fill="none"/><path d="M41.4464 22.6061C43.3512 13.1799 37.254 3.99441 27.8278 2.0896 18.4017 0.184794 9.21618 6.28203 7.31137 15.7082 5.98082 22.2925 8.55642 29.0551 13.93 33.0861" stroke="#66737C" stroke-width="3.57143" stroke-linecap="round" stroke-linejoin="round" fill="none"/><path d="M27.86 13.93C27.86 12.0067 26.3008 10.4475 24.3775 10.4475 22.4542 10.4475 20.895 12.0067 20.895 13.93L20.895 22.6362C20.895 24.5596 19.3358 26.1187 17.4125 26.1187L27.86 26.1187" stroke="#66737C" stroke-width="3.57143" stroke-linecap="round" stroke-linejoin="round" fill="none"/><path d="M17.4125 19.1491 24.3775 19.1491" stroke="#66737C" stroke-width="3.57143" stroke-linecap="round" stroke-linejoin="round" fill="none"/></svg>