<svg width="60" height="60" viewBox="-2.14 -2.14 60 60" xmlns="http://www.w3.org/2000/svg" xmlns:xlink="http://www.w3.org/1999/xlink" id="Customer-Relationship-Management-Referral-Tracking-2--Streamline-Ultimate.svg" overflow="hidden"><defs></defs><path d="M4.33687 24.3682C4.33687 28.6957 7.845 32.2038 12.1725 32.2038 16.5 32.2038 20.0081 28.6957 20.0081 24.3682 20.0081 20.0407 16.5 16.5326 12.1725 16.5326 7.845 16.5326 4.33687 20.0407 4.33687 24.3682" stroke="#66737C" stroke-width="3.57143" stroke-linecap="round" stroke-linejoin="round" fill="none"/><path d="M18.4526 37.1652C12.8151 34.3546 5.99674 35.6309 1.7575 40.2902" stroke="#66737C" stroke-width="3.57143" stroke-linecap="round" stroke-linejoin="round" fill="none"/><path d="M35.7119 24.3682C35.7119 28.6957 39.22 32.2038 43.5475 32.2038 47.875 32.2038 51.3831 28.6957 51.3831 24.3682 51.3831 20.0407 47.875 16.5326 43.5475 16.5326 39.22 16.5326 35.7119 20.0407 35.7119 24.3682" stroke="#66737C" stroke-width="3.57143" stroke-linecap="round" stroke-linejoin="round" fill="none"/><path d="M53.9625 40.2902C49.716 35.6264 42.8858 34.3562 37.2465 37.1815" stroke="#66737C" stroke-width="3.57143" stroke-linecap="round" stroke-linejoin="round" fill="none"/><path d="M12.7529 10.7377C15.4105 5.54079 20.851 2.36718 26.6829 2.61187 32.5148 2.36718 37.9553 5.54079 40.6129 10.7377" stroke="#66737C" stroke-width="3.57143" stroke-linecap="round" stroke-linejoin="round" fill="none"/><path d="M33.6479 10.7377 41.7737 10.7377 41.7737 2.61188" stroke="#66737C" stroke-width="3.57143" stroke-linecap="round" stroke-linejoin="round" fill="none"/><path d="M31.3425 37.4369 26.6179 37.4369C24.8972 37.4381 23.5032 38.834 23.5044 40.5547 23.5053 41.8256 24.278 42.9686 25.4571 43.443L30.249 45.3607C31.8454 46.003 32.6188 47.8178 31.9765 49.4142 31.5021 50.5933 30.3591 51.366 29.0882 51.3669L24.3775 51.3669" stroke="#66737C" stroke-width="3.57143" stroke-linecap="round" stroke-linejoin="round" fill="none"/><path d="M27.8554 37.4369 27.8554 35.6956" stroke="#66737C" stroke-width="3.57143" stroke-linecap="round" stroke-linejoin="round" fill="none"/><path d="M27.8554 53.1081 27.8554 51.3669" stroke="#66737C" stroke-width="3.57143" stroke-linecap="round" stroke-linejoin="round" fill="none"/></svg>