<svg width="60" height="60" viewBox="-2.14 -2.14 60 60" xmlns="http://www.w3.org/2000/svg" xmlns:xlink="http://www.w3.org/1999/xlink" id="Damaged-Package-Broken--Streamline-Ultimate.svg" fill="none" overflow="hidden"><path d="M32.9677 43.6473 43.6471 43.6473" stroke="#66737C" stroke-width="3.57143" stroke-linecap="round" stroke-linejoin="round" stroke-miterlimit="10"/><path d="M8.12583 16.9483 12.7692 26.2348 19.7342 26.2348 22.0558 35.5215" stroke="#66737C" stroke-width="3.57143" stroke-linecap="round" stroke-linejoin="round" stroke-miterlimit="10"/><path d="M19.7342 26.2348 24.3775 23.9132" stroke="#66737C" stroke-width="3.57143" stroke-linecap="round" stroke-linejoin="round" stroke-miterlimit="10"/><path d="M48.755 54.0948 6.965 54.0948C5.10767 54.0948 3.4825 52.4697 3.4825 50.6123L3.4825 19.0375C3.4825 17.1802 5.10767 15.5551 6.965 15.5551L48.755 15.5551C50.6123 15.5551 52.2375 17.1802 52.2375 19.0375L52.2375 50.6123C52.2375 52.4697 50.6123 54.0948 48.755 54.0948Z" stroke="#66737C" stroke-width="3.57143" stroke-linecap="round" stroke-linejoin="round" stroke-miterlimit="10"/><path d="M51.8893 17.4124 46.3172 3.71455C45.8529 2.55372 44.4599 1.62505 43.0669 1.62505L12.6532 1.62505C11.2602 1.62505 10.0993 2.32154 9.4028 3.71455L3.8308 17.4124" stroke="#66737C" stroke-width="3.57143" stroke-linecap="round" stroke-linejoin="round" stroke-miterlimit="10"/><path d="M27.86 15.555 27.86 1.85716" stroke="#66737C" stroke-width="3.57143" stroke-linecap="round" stroke-linejoin="round" stroke-miterlimit="10"/></svg>