<svg width="60" height="60" viewBox="-1.875 -1.875 60 60" xmlns="http://www.w3.org/2000/svg" xmlns:xlink="http://www.w3.org/1999/xlink" id="Database-Search--Streamline-Ultimate" overflow="hidden"><path d="M22.8914 22.6453C10.8375 21.675 1.75781 17.4141 1.75781 12.307 1.75781 6.48047 13.5633 1.76016 28.125 1.76016 42.6867 1.76016 54.4922 6.48047 54.4922 12.307 54.4922 15.075 51.825 17.5945 47.4609 19.4766" stroke="#66737C" stroke-width="3.33333" stroke-linecap="round" stroke-linejoin="round" fill="none"/><path d="M54.4922 26.3695 54.4922 12.307" stroke="#66737C" stroke-width="3.33333" stroke-linecap="round" stroke-linejoin="round" fill="none"/><path d="M1.75781 12.307 1.75781 26.3695C1.75781 30.7055 8.30156 34.4297 17.6531 36.0516" stroke="#66737C" stroke-width="3.33333" stroke-linecap="round" stroke-linejoin="round" fill="none"/><path d="M1.75781 26.3695 1.75781 40.432C1.75781 45.5391 10.8375 49.807 22.8914 50.7703" stroke="#66737C" stroke-width="3.33333" stroke-linecap="round" stroke-linejoin="round" fill="none"/><path d="M24.6094 36.9164C24.6094 43.7121 30.1184 49.2211 36.9141 49.2211 43.7098 49.2211 49.2188 43.7121 49.2188 36.9164 49.2188 30.1207 43.7098 24.6117 36.9141 24.6117 30.1184 24.6117 24.6094 30.1207 24.6094 36.9164Z" stroke="#66737C" stroke-width="3.33333" stroke-linecap="round" stroke-linejoin="round" fill="none"/><path d="M54.4922 54.4945 45.6141 45.6164" stroke="#66737C" stroke-width="3.33333" stroke-linecap="round" stroke-linejoin="round" fill="none"/></svg>