<svg width="60" height="60" viewBox="-1.875 -1.875 60 60" xmlns="http://www.w3.org/2000/svg" xmlns:xlink="http://www.w3.org/1999/xlink" id="Data-File-Bars-Refresh--Streamline-Ultimate" overflow="hidden"><path d="M45.7031 36.9141 54.4922 36.9141 54.4922 26.3672" stroke="#66737C" stroke-width="3.33333" stroke-linecap="round" stroke-linejoin="round" fill="none"/><path d="M54.0492 36.9141C52.1087 29.3939 44.4392 24.8707 36.9191 26.8113 29.3989 28.7519 24.8757 36.4213 26.8163 43.9415 28.7569 51.4616 36.4263 55.9848 43.9465 54.0442 46.897 53.2828 49.5205 51.5836 51.4219 49.2023" stroke="#66737C" stroke-width="3.33333" stroke-linecap="round" stroke-linejoin="round" fill="none"/><path d="M8.78906 33.3984 19.3359 33.3984" stroke="#66737C" stroke-width="3.33333" stroke-linecap="round" stroke-linejoin="round" fill="none"/><path d="M19.3359 33.3984 19.3359 15.8203" stroke="#66737C" stroke-width="3.33333" stroke-linecap="round" stroke-linejoin="round" fill="none"/><path d="M26.3672 22.8516 26.3672 19.3359" stroke="#66737C" stroke-width="3.33333" stroke-linecap="round" stroke-linejoin="round" fill="none"/><path d="M12.3047 33.3984 12.3047 22.8516" stroke="#66737C" stroke-width="3.33333" stroke-linecap="round" stroke-linejoin="round" fill="none"/><path d="M17.5781 47.4609 5.27344 47.4609C3.33181 47.4609 1.75781 45.8869 1.75781 43.9453L1.75781 5.27344C1.75781 3.33181 3.33181 1.75781 5.27344 1.75781L30.1852 1.75781C31.1169 1.75801 32.0105 2.12808 32.6695 2.78672L39.4008 9.51797C40.0594 10.177 40.4295 11.0706 40.4297 12.0023L40.4297 17.5781" stroke="#66737C" stroke-width="3.33333" stroke-linecap="round" stroke-linejoin="round" fill="none"/></svg>