<svg width="60" height="60" viewBox="-1.875 -1.875 60 60" xmlns="http://www.w3.org/2000/svg" xmlns:xlink="http://www.w3.org/1999/xlink" id="Deepfake-Ai--Streamline-Ultimate" fill="none" overflow="hidden"><path d="M36.1488 14.6484C30.2895 11.1327 26.7738 21.6796 26.7738 21.6796L36.1488 20.5077" stroke="#66737C" stroke-width="3.33333" stroke-linecap="round" stroke-linejoin="round" stroke-miterlimit="10"/><path d="M49.0392 35.7422 49.0392 40.4297C49.0392 41.8359 48.1017 42.7734 46.6955 42.7734L46.6955 48.6328C46.6955 51.2109 44.5861 53.3203 42.008 53.3203L30.2892 53.3203C30.2892 53.3203 28.1798 32.2266 16.4612 32.2266L16.4612 7.56729" stroke="#66737C" stroke-width="3.33333" stroke-linecap="round" stroke-linejoin="round" stroke-miterlimit="10"/><path d="M42.0082 28.7109 43.1801 27.5391" stroke="#66737C" stroke-width="3.33333" stroke-linecap="round" stroke-linejoin="round" stroke-miterlimit="10"/><path d="M5.27344 20.7423C7.21507 20.7423 8.78906 19.1683 8.78906 17.2267 8.78906 15.285 7.21507 13.711 5.27344 13.711 3.3318 13.711 1.75781 15.285 1.75781 17.2267 1.75781 19.1683 3.3318 20.7423 5.27344 20.7423Z" stroke="#66737C" stroke-width="3.33333" stroke-linecap="round" stroke-linejoin="round" stroke-miterlimit="10"/><path d="M5.27344 38.3203C7.21507 38.3203 8.78906 36.7465 8.78906 34.8047 8.78906 32.8631 7.21507 31.2891 5.27344 31.2891 3.3318 31.2891 1.75781 32.8631 1.75781 34.8047 1.75781 36.7465 3.3318 38.3203 5.27344 38.3203Z" stroke="#66737C" stroke-width="3.33333" stroke-linecap="round" stroke-linejoin="round" stroke-miterlimit="10"/><path d="M10.5157 54.4922C12.4574 54.4922 14.0314 52.9181 14.0314 50.9766 14.0314 49.035 12.4574 47.4609 10.5157 47.4609 8.57414 47.4609 7.00012 49.035 7.00012 50.9766 7.00012 52.9181 8.57414 54.4922 10.5157 54.4922Z" stroke="#66737C" stroke-width="3.33333" stroke-linecap="round" stroke-linejoin="round" stroke-miterlimit="10"/><path d="M29.9559 50.9766 14.0259 50.9766" stroke="#66737C" stroke-width="3.33333" stroke-linecap="round" stroke-linejoin="round" stroke-miterlimit="10"/><path d="M8.70094 34.0542 16.4612 32.2266" stroke="#66737C" stroke-width="3.33333" stroke-linecap="round" stroke-linejoin="round" stroke-miterlimit="10"/><path d="M14.5862 42.5391 19.5081 41.6016 20.68 50.9766" stroke="#66737C" stroke-width="3.33333" stroke-linecap="round" stroke-linejoin="round" stroke-miterlimit="10"/><path d="M9.42994 25.4297 16.4612 22.6172" stroke="#66737C" stroke-width="3.33333" stroke-linecap="round" stroke-linejoin="round" stroke-miterlimit="10"/><path d="M45.5238 16.9922 50.4473 21.2123" stroke="#66737C" stroke-width="3.33333" stroke-linecap="round" stroke-linejoin="round" stroke-miterlimit="10"/><path d="M50.2113 35.7422 43.1801 35.7422C43.1801 35.7422 38.4926 38.0859 36.1488 38.0859" stroke="#66737C" stroke-width="3.33333" stroke-linecap="round" stroke-linejoin="round" stroke-miterlimit="10"/><path d="M7.77211 14.7773 16.4612 7.56727" stroke="#66737C" stroke-width="3.33333" stroke-linecap="round" stroke-linejoin="round" stroke-miterlimit="10"/></svg>