<svg width="60" height="60" viewBox="-1.875 -1.875 60 60" xmlns="http://www.w3.org/2000/svg" xmlns:xlink="http://www.w3.org/1999/xlink" id="Diagram-Arrow-Bend-Down--Streamline-Ultimate" overflow="hidden"><path d="M2.25 16.2211 26.8594 16.2211" stroke="#66737C" stroke-width="3.33333" stroke-linecap="round" stroke-linejoin="round" fill="none"/><path d="M14.5547 2.15859 2.25 2.15859" stroke="#66737C" stroke-width="3.33333" stroke-linecap="round" stroke-linejoin="round" fill="none"/><path d="M47.9531 39.0727 53.0273 39.0727C53.514 39.0749 53.9068 39.4713 53.9045 39.958 53.9035 40.1715 53.825 40.3775 53.6836 40.5375L41.5406 54.1969C41.2197 54.5593 40.6657 54.593 40.3033 54.2721 40.2895 54.2599 40.2762 54.2474 40.2633 54.2344L26.6016 40.575C26.2585 40.2297 26.2604 39.6718 26.6056 39.3287 26.7697 39.1657 26.9913 39.0737 27.2227 39.0727L33.8906 39.0727 33.8906 21.4945C33.8906 9.39375 30.5438 2.15859 14.5547 2.15859L36.1172 2.15859C44.407 2.15859 47.9602 7.4625 47.9602 14.0016Z" stroke="#66737C" stroke-width="3.33333" stroke-linecap="round" stroke-linejoin="round" fill="none"/></svg>