<svg width="60" height="60" viewBox="-1.875 -1.875 60 60" xmlns="http://www.w3.org/2000/svg" xmlns:xlink="http://www.w3.org/1999/xlink" id="Diagram-Arrow-Corner-Point-Right--Streamline-Ultimate" overflow="hidden"><path d="M53.932 16.2914 39.5203 1.99922C39.0516 1.56562 38.6719 1.73203 38.6719 2.36953L38.6719 10.5469 5.27344 10.5469C3.33181 10.5469 1.75781 12.1209 1.75781 14.0625L1.75781 50.9766C1.75781 52.9182 3.33181 54.4922 5.27344 54.4922L10.5469 54.4922C12.4885 54.4922 14.0625 52.9182 14.0625 50.9766L14.0625 28.125C14.0625 26.1834 15.6365 24.6094 17.5781 24.6094L38.6719 24.6094 38.6719 32.7867C38.6719 33.4242 39.0539 33.5906 39.5203 33.157L53.932 18.8602C54.644 18.2001 54.686 17.0879 54.026 16.376 53.9959 16.3435 53.9645 16.3122 53.932 16.282Z" stroke="#66737C" stroke-width="3.33333" stroke-linecap="round" stroke-linejoin="round" fill="none"/></svg>