<svg width="60" height="60" viewBox="-2.14 -2.14 60 60" xmlns="http://www.w3.org/2000/svg" xmlns:xlink="http://www.w3.org/1999/xlink" id="Diamond-Hold--Streamline-Ultimate.svg" overflow="hidden"><g><path d="M37.7967 21.6611C40.8977 23.5637 42.8609 26.8732 43.0437 30.5067 43.1312 32.2076 42.5476 33.8749 41.4185 35.15L39.0969 37.7735C38.2975 38.6904 37.1549 39.2364 35.9394 39.2826 34.7354 39.3104 33.5713 38.8498 32.7123 38.0057L28.2315 33.432C26.9492 32.1498 24.8704 32.1498 23.5881 33.432 22.3059 34.7142 22.3059 36.7931 23.5881 38.0753L31.7372 47.362C33.5124 49.1104 34.451 51.5372 34.3142 54.0252" stroke="#66737C" stroke-width="3.57143" stroke-linecap="round" stroke-linejoin="round" fill="none"/><path d="M53.9787 53.9787 53.9787 32.6659C53.9075 30.6607 53.5877 28.6721 53.0269 26.7456 51.5188 21.5036 47.7085 17.2321 42.6722 15.1373" stroke="#66737C" stroke-width="3.57143" stroke-linecap="round" stroke-linejoin="round" fill="none"/><path d="M2.04307 12.7692 36.2644 12.7692" stroke="#66737C" stroke-width="3.57143" stroke-linecap="round" stroke-linejoin="round" fill="none"/><path d="M8.05618 1.76447C7.24709 1.75979 6.50329 2.20787 6.1292 2.9253L1.9502 10.9351C1.57707 11.6215 1.69987 12.4717 2.25202 13.0246L17.6911 29.2762C18.4604 30.084 19.739 30.1152 20.5467 29.3459 20.5705 29.3232 20.5938 29.3 20.6164 29.2762L36.0555 13.0246C36.6076 12.4717 36.7304 11.6216 36.3573 10.9351L31.83 2.87887C31.4552 2.19048 30.7333 1.76273 29.9495 1.76447Z" stroke="#66737C" stroke-width="3.57143" stroke-linecap="round" stroke-linejoin="round" fill="none"/><g><path d="M1.74125 34.825 8.70625 34.825" stroke="#66737C" stroke-width="3.57143" stroke-linecap="round" stroke-linejoin="round" fill="none"/><path d="M5.22375 31.3425 5.22375 38.3075" stroke="#66737C" stroke-width="3.57143" stroke-linecap="round" stroke-linejoin="round" fill="none"/></g><g><path d="M47.0137 5.22375 53.9787 5.22375" stroke="#66737C" stroke-width="3.57143" stroke-linecap="round" stroke-linejoin="round" fill="none"/><path d="M50.4963 1.74125 50.4963 8.70625" stroke="#66737C" stroke-width="3.57143" stroke-linecap="round" stroke-linejoin="round" fill="none"/></g><path d="M10.3546 1.76447 17.3196 12.7692" stroke="#66737C" stroke-width="3.57143" stroke-linecap="round" stroke-linejoin="round" fill="none"/><path d="M27.9529 1.76447 20.9879 12.7692" stroke="#66737C" stroke-width="3.57143" stroke-linecap="round" stroke-linejoin="round" fill="none"/><path d="M19.0609 12.7692 19.0609 29.8799" stroke="#66737C" stroke-width="3.57143" stroke-linecap="round" stroke-linejoin="round" fill="none"/></g></svg>