<svg width="60" height="60" viewBox="-1.875 -1.875 60 60" xmlns="http://www.w3.org/2000/svg" xmlns:xlink="http://www.w3.org/1999/xlink" id="Digital-Policies-Data-Breach--Streamline-Ultimate" overflow="hidden"><defs></defs><path d="M31.6406 28.2352 31.6406 52.5187C31.6393 53.6099 30.7537 54.4935 29.6625 54.4922 29.6617 54.4922 29.6609 54.4922 29.6602 54.4922L3.75 54.4922C2.65881 54.4948 1.77213 53.6123 1.76954 52.5211 1.76953 52.5203 1.76953 52.5195 1.76953 52.5187L1.76953 20.7234C1.77082 19.6322 2.65646 18.7487 3.74765 18.75 3.74843 18.75 3.74922 18.75 3.75 18.75L25.8844 18.75" stroke="#66737C" stroke-width="3.33333" stroke-linecap="round" stroke-linejoin="round" fill="none"/><path d="M27.2016 16.6219 22.9008 23.5055C21.4536 25.8218 22.1582 28.8728 24.4746 30.3199 26.791 31.7671 29.8419 31.0625 31.2891 28.7461L40.1953 15.8203 44.0508 15.8203" stroke="#66737C" stroke-width="3.33333" stroke-linecap="round" stroke-linejoin="round" fill="none"/><path d="M54.4922 18.1641 44.0438 18.1641 44.0438 1.75781 54.4922 1.75781" stroke="#66737C" stroke-width="3.33333" stroke-linecap="round" stroke-linejoin="round" fill="none"/><path d="M9.375 27.5227 15.2344 27.5227" stroke="#66737C" stroke-width="3.33333" stroke-linecap="round" stroke-linejoin="round" fill="none"/><path d="M9.375 35.7258 21.0938 35.7258" stroke="#66737C" stroke-width="3.33333" stroke-linecap="round" stroke-linejoin="round" fill="none"/><path d="M9.375 43.9289 21.0938 43.9289" stroke="#66737C" stroke-width="3.33333" stroke-linecap="round" stroke-linejoin="round" fill="none"/><path d="M44.0438 4.10156 28.8094 4.10156C21.9844 4.10156 16.8563 5.93906 13.575 9.5625 11.2317 12.0248 10.0323 15.3592 10.2703 18.75" stroke="#66737C" stroke-width="3.33333" stroke-linecap="round" stroke-linejoin="round" fill="none"/></svg>