<svg width="60" height="60" viewBox="-1.875 -1.875 60 60" xmlns="http://www.w3.org/2000/svg" xmlns:xlink="http://www.w3.org/1999/xlink" id="Discount-Coupon--Streamline-Ultimate" overflow="hidden"><g><path d="M54.4922 35.1562 54.4922 43.3594C54.4922 45.301 52.9182 46.875 50.9766 46.875L5.27344 46.875C3.33181 46.875 1.75781 45.301 1.75781 43.3594L1.75781 35.1562C5.64106 35.1562 8.78906 32.0083 8.78906 28.125 8.78906 24.2417 5.64106 21.0938 1.75781 21.0938L1.75781 12.8906C1.75781 10.949 3.33181 9.375 5.27344 9.375L50.9766 9.375C52.9182 9.375 54.4922 10.949 54.4922 12.8906L54.4922 21.0938C50.6089 21.0938 47.4609 24.2417 47.4609 28.125 47.4609 32.0083 50.6089 35.1562 54.4922 35.1562Z" stroke="#66737C" stroke-width="3.33333" stroke-linecap="round" stroke-linejoin="round" fill="none"/><path d="M16.9922 21.0938C16.9922 23.0354 18.5662 24.6094 20.5078 24.6094 22.4494 24.6094 24.0234 23.0354 24.0234 21.0938 24.0234 19.1521 22.4494 17.5781 20.5078 17.5781 18.5662 17.5781 16.9922 19.1521 16.9922 21.0938" stroke="#66737C" stroke-width="3.33333" stroke-linecap="round" stroke-linejoin="round" fill="none"/><path d="M33.9844 35.1562C33.9844 37.0979 35.5584 38.6719 37.5 38.6719 39.4416 38.6719 41.0156 37.0979 41.0156 35.1562 41.0156 33.2146 39.4416 31.6406 37.5 31.6406 35.5584 31.6406 33.9844 33.2146 33.9844 35.1562" stroke="#66737C" stroke-width="3.33333" stroke-linecap="round" stroke-linejoin="round" fill="none"/><path d="M36.9141 19.3359 19.3359 36.9141" stroke="#66737C" stroke-width="3.33333" stroke-linecap="round" stroke-linejoin="round" fill="none"/></g></svg>