<svg width="60" height="60" viewBox="-1.875 -1.875 60 60" xmlns="http://www.w3.org/2000/svg" xmlns:xlink="http://www.w3.org/1999/xlink" id="Discount-Square--Streamline-Ultimate" overflow="hidden"><g><path d="M15.8203 40.4297 40.4297 15.8203" stroke="#66737C" stroke-width="3.33333" stroke-linecap="round" stroke-linejoin="round" fill="none"/><path d="M14.6484 18.75C14.6484 21.0152 16.4848 22.8516 18.75 22.8516 21.0152 22.8516 22.8516 21.0152 22.8516 18.75 22.8516 16.4848 21.0152 14.6484 18.75 14.6484 16.4848 14.6484 14.6484 16.4848 14.6484 18.75" stroke="#66737C" stroke-width="3.33333" stroke-linecap="round" stroke-linejoin="round" fill="none"/><path d="M33.3984 37.5C33.3984 39.7652 35.2348 41.6016 37.5 41.6016 39.7652 41.6016 41.6016 39.7652 41.6016 37.5 41.6016 35.2348 39.7652 33.3984 37.5 33.3984 35.2348 33.3984 33.3984 35.2348 33.3984 37.5" stroke="#66737C" stroke-width="3.33333" stroke-linecap="round" stroke-linejoin="round" fill="none"/><path d="M1.75781 8.78906 1.75781 5.27344C1.75781 3.33181 3.33181 1.75781 5.27344 1.75781L8.78906 1.75781" stroke="#66737C" stroke-width="3.33333" stroke-linecap="round" stroke-linejoin="round" fill="none"/><path d="M8.78906 54.4922 5.27344 54.4922C3.33181 54.4922 1.75781 52.9182 1.75781 50.9766L1.75781 47.4609" stroke="#66737C" stroke-width="3.33333" stroke-linecap="round" stroke-linejoin="round" fill="none"/><path d="M1.75781 17.5781 1.75781 24.6094" stroke="#66737C" stroke-width="3.33333" stroke-linecap="round" stroke-linejoin="round" fill="none"/><path d="M1.75781 31.6406 1.75781 38.6719" stroke="#66737C" stroke-width="3.33333" stroke-linecap="round" stroke-linejoin="round" fill="none"/><path d="M54.4922 17.5781 54.4922 24.6094" stroke="#66737C" stroke-width="3.33333" stroke-linecap="round" stroke-linejoin="round" fill="none"/><path d="M17.5781 1.75781 24.6094 1.75781" stroke="#66737C" stroke-width="3.33333" stroke-linecap="round" stroke-linejoin="round" fill="none"/><path d="M54.4922 47.4609 54.4922 50.9766C54.4922 52.9182 52.9182 54.4922 50.9766 54.4922L47.4609 54.4922" stroke="#66737C" stroke-width="3.33333" stroke-linecap="round" stroke-linejoin="round" fill="none"/><path d="M54.4922 38.6719 54.4922 31.6406" stroke="#66737C" stroke-width="3.33333" stroke-linecap="round" stroke-linejoin="round" fill="none"/><path d="M38.6719 54.4922 31.6406 54.4922" stroke="#66737C" stroke-width="3.33333" stroke-linecap="round" stroke-linejoin="round" fill="none"/><path d="M31.6406 1.75781 38.6719 1.75781" stroke="#66737C" stroke-width="3.33333" stroke-linecap="round" stroke-linejoin="round" fill="none"/><path d="M47.4609 1.75781 50.9766 1.75781C52.9182 1.75781 54.4922 3.33181 54.4922 5.27344L54.4922 8.78906" stroke="#66737C" stroke-width="3.33333" stroke-linecap="round" stroke-linejoin="round" fill="none"/><path d="M24.6094 54.4922 17.5781 54.4922" stroke="#66737C" stroke-width="3.33333" stroke-linecap="round" stroke-linejoin="round" fill="none"/></g></svg>