<svg width="60" height="60" viewBox="-2.14 -2.14 60 60" xmlns="http://www.w3.org/2000/svg" xmlns:xlink="http://www.w3.org/1999/xlink" id="Discount-Circle-Dash--Streamline-Ultimate.svg" fill="none" overflow="hidden"><path d="M27.86 53.9787C42.285 53.9787 53.9787 42.285 53.9787 27.86 53.9787 13.435 42.285 1.74125 27.86 1.74125 13.435 1.74125 1.74125 13.435 1.74125 27.86 1.74125 42.285 13.435 53.9787 27.86 53.9787Z" stroke="#66737C" stroke-width="3.57143" stroke-linecap="round" stroke-linejoin="round"/><path d="M19.4088 36.3111 36.645 19.0727" stroke="#66737C" stroke-width="3.57143" stroke-linecap="round" stroke-linejoin="round"/><path d="M20.0244 20.5583C19.5435 20.5583 19.1537 20.1685 19.1537 19.6877 19.1537 19.2068 19.5435 18.8171 20.0244 18.8171" stroke="#66737C" stroke-width="3.57143"/><path d="M20.0244 20.5583C20.5052 20.5583 20.895 20.1685 20.895 19.6877 20.895 19.2068 20.5052 18.8171 20.0244 18.8171" stroke="#66737C" stroke-width="3.57143"/><g><path d="M36.0299 36.5662C35.5491 36.5662 35.1593 36.1764 35.1593 35.6956 35.1593 35.2148 35.5491 34.825 36.0299 34.825" stroke="#66737C" stroke-width="3.57143"/><path d="M36.0299 36.5662C36.5108 36.5662 36.9006 36.1764 36.9006 35.6956 36.9006 35.2148 36.5108 34.825 36.0299 34.825" stroke="#66737C" stroke-width="3.57143"/></g></svg>