<svg width="60" height="60" viewBox="-1.875 -1.875 60 60" xmlns="http://www.w3.org/2000/svg" xmlns:xlink="http://www.w3.org/1999/xlink" id="Document-Scanning-Mode-Camera--Streamline-Ultimate" fill="none" overflow="hidden"><path d="M54.4922 43.9453 54.4922 50.9766C54.4922 52.8516 52.8516 54.4922 50.9766 54.4922L43.9453 54.4922" stroke="#66737C" stroke-width="3.33333" stroke-linecap="round" stroke-linejoin="round" stroke-miterlimit="10"/><path d="M43.9453 1.75781 50.9766 1.75781C52.8516 1.75781 54.4922 3.39844 54.4922 5.27344L54.4922 12.3047" stroke="#66737C" stroke-width="3.33333" stroke-linecap="round" stroke-linejoin="round" stroke-miterlimit="10"/><path d="M1.75781 12.3047 1.75781 5.27344C1.75781 3.39844 3.39844 1.75781 5.27344 1.75781L12.3047 1.75781" stroke="#66737C" stroke-width="3.33333" stroke-linecap="round" stroke-linejoin="round" stroke-miterlimit="10"/><path d="M12.3047 54.4922 5.27344 54.4922C3.39844 54.4922 1.75781 52.8516 1.75781 50.9766L1.75781 43.9453" stroke="#66737C" stroke-width="3.33333" stroke-linecap="round" stroke-linejoin="round" stroke-miterlimit="10"/><path d="M41.8364 40.8982C41.8364 42.3045 40.8989 43.242 39.4927 43.242L16.7582 43.242C15.3519 43.242 14.4144 42.3045 14.4144 40.8982L14.4144 15.1171C14.4144 13.7108 15.3519 12.7733 16.7582 12.7733L39.4927 12.7733C40.8989 12.7733 41.8364 13.7108 41.8364 15.1171L41.8364 40.8982Z" stroke="#66737C" stroke-width="3.33333" stroke-linecap="round" stroke-linejoin="round" stroke-miterlimit="10"/><path d="M21.2111 20.5078 27.3049 20.5078" stroke="#66737C" stroke-width="3.33333" stroke-linecap="round" stroke-linejoin="round" stroke-miterlimit="10"/><path d="M21.2111 27.5391 35.2734 27.5391" stroke="#66737C" stroke-width="3.33333" stroke-linecap="round" stroke-linejoin="round" stroke-miterlimit="10"/><path d="M21.2111 34.5703 35.2734 34.5703" stroke="#66737C" stroke-width="3.33333" stroke-linecap="round" stroke-linejoin="round" stroke-miterlimit="10"/></svg>