<svg width="60" height="60" viewBox="-2.14 -2.14 60 60" xmlns="http://www.w3.org/2000/svg" xmlns:xlink="http://www.w3.org/1999/xlink" id="Drugs-Logistic-Truck--Streamline-Ultimate.svg" overflow="hidden"><defs></defs><path d="M30.6321 14.5104 41.2096 25.0879C44.1777 27.9616 48.9134 27.885 51.7871 24.9168 54.5952 22.0163 54.5952 17.4109 51.7871 14.5104L41.2096 3.9329C38.2414 1.05925 33.5057 1.13586 30.6321 4.10401 27.8239 7.00449 27.8239 11.6099 30.6321 14.5104Z" stroke="#66737C" stroke-width="3.57143" stroke-linecap="round" stroke-linejoin="round" fill="none"/><path d="M35.9208 19.7992 46.4983 9.22166" stroke="#66737C" stroke-width="3.57143" stroke-linecap="round" stroke-linejoin="round" fill="none"/><path d="M44.6921 48.1746 48.1746 48.1746C49.4568 48.1746 50.4963 47.1351 50.4963 45.8529L50.4963 35.4054" stroke="#66737C" stroke-width="3.57143" stroke-linecap="round" stroke-linejoin="round" fill="none"/><path d="M27.2796 22.6362 22.6362 22.6362C21.354 22.6362 20.3146 23.6757 20.3146 24.9579L20.3146 48.1746 33.0838 48.1746" stroke="#66737C" stroke-width="3.57143" stroke-linecap="round" stroke-linejoin="round" fill="none"/><path d="M8.70625 48.1746 4.06292 48.1746C2.7807 48.1746 1.74125 47.1351 1.74125 45.8529L1.74125 38.001C1.74172 37.1219 2.23871 36.3184 3.02513 35.9255L6.38458 34.2446 9.2263 28.5565C9.61928 27.7701 10.4227 27.2731 11.3019 27.2726L20.3146 27.2726 20.3146 48.1676" stroke="#66737C" stroke-width="3.57143" stroke-linecap="round" stroke-linejoin="round" fill="none"/><path d="M33.0838 48.1746C33.0838 51.3801 35.6824 53.9787 38.8879 53.9787 42.0935 53.9787 44.6921 51.3801 44.6921 48.1746 44.6921 44.969 42.0935 42.3704 38.8879 42.3704 35.6824 42.3704 33.0838 44.969 33.0838 48.1746" stroke="#66737C" stroke-width="3.57143" stroke-linecap="round" stroke-linejoin="round" fill="none"/><path d="M8.70625 48.1746C8.70625 51.3801 11.3049 53.9787 14.5104 53.9787 17.716 53.9787 20.3146 51.3801 20.3146 48.1746 20.3146 44.969 17.716 42.3704 14.5104 42.3704 11.3049 42.3704 8.70625 44.969 8.70625 48.1746" stroke="#66737C" stroke-width="3.57143" stroke-linecap="round" stroke-linejoin="round" fill="none"/></svg>