<svg width="60" height="60" viewBox="-1.875 -1.875 60 60" xmlns="http://www.w3.org/2000/svg" xmlns:xlink="http://www.w3.org/1999/xlink" id="Duct-Tape-1--Streamline-Ultimate" fill="none" overflow="hidden"><path d="M32.9297 36.3281C35.5186 36.3281 37.6172 32.6555 37.6172 28.125 37.6172 23.5945 35.5186 19.9219 32.9297 19.9219 30.3408 19.9219 28.2422 23.5945 28.2422 28.125 28.2422 32.6555 30.3408 36.3281 32.9297 36.3281Z" stroke="#66737C" stroke-width="3.33333" stroke-linecap="round" stroke-linejoin="round" stroke-miterlimit="10"/><path d="M32.9297 48.0469C39.5313 48.0469 44.8828 39.1275 44.8828 28.125 44.8828 17.1225 39.5313 8.20312 32.9297 8.20312 26.3283 8.20312 20.9766 17.1225 20.9766 28.125 20.9766 39.1275 26.3283 48.0469 32.9297 48.0469Z" stroke="#66737C" stroke-width="3.33333" stroke-linecap="round" stroke-linejoin="round" stroke-miterlimit="10"/><path d="M31.7578 8.20312 13.7109 8.20312C7.14841 8.20312 1.75781 17.1094 1.75781 28.125 1.75781 39.1406 7.14841 48.0469 13.7109 48.0469L54.4922 48.0469" stroke="#66737C" stroke-width="3.33333" stroke-linecap="round" stroke-linejoin="round" stroke-miterlimit="10"/></svg>