<svg width="60" height="60" viewBox="-2.14 -2.14 60 60" xmlns="http://www.w3.org/2000/svg" xmlns:xlink="http://www.w3.org/1999/xlink" id="E-Commerce-Cart-Monitor--Streamline-Ultimate.svg" fill="none" overflow="hidden"><path d="M39.1781 1.74125 33.9544 19.1537 20.0244 19.1537 16.5419 8.70625 37.0886 8.70625" stroke="#66737C" stroke-width="3.57143" stroke-linecap="round" stroke-linejoin="round"/><path d="M20.895 26.1187C20.4142 26.1187 20.0244 25.7289 20.0244 25.2481 20.0244 24.7673 20.4142 24.3775 20.895 24.3775" stroke="#66737C" stroke-width="3.57143"/><path d="M20.895 26.1187C21.3758 26.1187 21.7656 25.7289 21.7656 25.2481 21.7656 24.7673 21.3758 24.3775 20.895 24.3775" stroke="#66737C" stroke-width="3.57143"/><path d="M33.0838 26.1187C32.6029 26.1187 32.2131 25.7289 32.2131 25.2481 32.2131 24.7673 32.6029 24.3775 33.0838 24.3775" stroke="#66737C" stroke-width="3.57143"/><path d="M33.0838 26.1187C33.5646 26.1187 33.9544 25.7289 33.9544 25.2481 33.9544 24.7673 33.5646 24.3775 33.0838 24.3775" stroke="#66737C" stroke-width="3.57143"/><path d="M17.4125 53.9787 38.3075 53.9787" stroke="#66737C" stroke-width="3.57143" stroke-linecap="round" stroke-linejoin="round"/><path d="M1.74125 34.825 53.9787 34.825" stroke="#66737C" stroke-width="3.57143" stroke-linecap="round" stroke-linejoin="round"/><path d="M45.2725 8.70625 50.4963 8.70625C51.4198 8.70625 52.3058 9.07317 52.9588 9.72625 53.6119 10.3793 53.9787 11.2651 53.9787 12.1888L53.9787 40.0488C53.9787 40.9723 53.6119 41.8583 52.9588 42.5113 52.3058 43.1644 51.4198 43.5312 50.4963 43.5312L5.22375 43.5312C4.30014 43.5312 3.41434 43.1644 2.76125 42.5113 2.10815 41.8583 1.74125 40.9723 1.74125 40.0488L1.74125 12.1888C1.74125 11.2651 2.10815 10.3793 2.76125 9.72625 3.41434 9.07317 4.30014 8.70625 5.22375 8.70625L8.70625 8.70625" stroke="#66737C" stroke-width="3.57143" stroke-linecap="round" stroke-linejoin="round"/><path d="M27.86 53.9787 27.86 43.5312" stroke="#66737C" stroke-width="3.57143" stroke-linecap="round" stroke-linejoin="round"/></svg>