<svg width="60" height="60" viewBox="-1.875 -1.875 60 60" xmlns="http://www.w3.org/2000/svg" xmlns:xlink="http://www.w3.org/1999/xlink" id="E-Commerce-Buy--Streamline-Ultimate" overflow="hidden"><path d="M38.3344 38.332 44.5477 54.4922 48.2766 48.2766 54.4922 44.5477 38.3344 38.332Z" stroke="#66737C" stroke-width="3.57143" stroke-linecap="round" stroke-linejoin="round" fill="none"/><path d="M54.4922 54.4922 48.2766 48.2766" stroke="#66737C" stroke-width="3.57143" stroke-linecap="round" stroke-linejoin="round" fill="none"/><path d="M10.5469 28.125 10.5469 10.5469" stroke="#66737C" stroke-width="3.57143" stroke-linecap="round" stroke-linejoin="round" fill="none"/><path d="M10.5469 10.5469 14.0625 10.5469C16.0041 10.5469 17.5781 12.1209 17.5781 14.0625L17.5781 15.8203C17.5781 17.7619 16.0041 19.3359 14.0625 19.3359L10.5469 19.3359" stroke="#66737C" stroke-width="3.57143" stroke-linecap="round" stroke-linejoin="round" fill="none"/><path d="M10.5469 19.3359 14.0625 19.3359C16.0041 19.3359 17.5781 20.9099 17.5781 22.8516L17.5781 24.6094C17.5781 26.551 16.0041 28.125 14.0625 28.125L10.5469 28.125" stroke="#66737C" stroke-width="3.57143" stroke-linecap="round" stroke-linejoin="round" fill="none"/><path d="M24.6094 10.5469 24.6094 24.6094C24.6094 26.551 26.1834 28.125 28.125 28.125 30.0666 28.125 31.6406 26.551 31.6406 24.6094L31.6406 10.5469" stroke="#66737C" stroke-width="3.57143" stroke-linecap="round" stroke-linejoin="round" fill="none"/><path d="M38.6719 10.5469 38.6719 15.8203C38.6719 17.7619 40.2459 19.3359 42.1875 19.3359 44.1291 19.3359 45.7031 17.7619 45.7031 15.8203L45.7031 10.5469" stroke="#66737C" stroke-width="3.57143" stroke-linecap="round" stroke-linejoin="round" fill="none"/><path d="M42.1875 19.3359 42.1875 28.125" stroke="#66737C" stroke-width="3.57143" stroke-linecap="round" stroke-linejoin="round" fill="none"/><path d="M29.8828 36.9141 8.78906 36.9141C4.90581 36.9141 1.75781 33.7661 1.75781 29.8828L1.75781 8.78906C1.75781 4.90581 4.90581 1.75781 8.78906 1.75781L47.4609 1.75781C51.3442 1.75781 54.4922 4.90581 54.4922 8.78906L54.4922 29.8828C54.4928 32.4349 53.1104 34.787 50.8805 36.0281" stroke="#66737C" stroke-width="3.57143" stroke-linecap="round" stroke-linejoin="round" fill="none"/></svg>