<svg width="60" height="60" viewBox="-2.14 -2.14 60 60" xmlns="http://www.w3.org/2000/svg" xmlns:xlink="http://www.w3.org/1999/xlink" id="Ecology-Globe-Hand--Streamline-Ultimate.svg" overflow="hidden"><g><g><path d="M1.74125 33.0838 1.74125 53.9787" stroke="#66737C" stroke-width="3.57143" stroke-linecap="round" stroke-linejoin="round" fill="none"/><path d="M36.5662 50.4963C36.5662 46.6496 33.4479 43.5312 29.6012 43.5312L20.895 43.5312C20.895 39.6846 17.7767 36.5662 13.93 36.5662L1.74125 36.5662 1.74125 50.4963Z" stroke="#66737C" stroke-width="3.57143" stroke-linecap="round" stroke-linejoin="round" fill="none"/><path d="M13.93 43.5312 20.895 43.5312" stroke="#66737C" stroke-width="3.57143" stroke-linecap="round" stroke-linejoin="round" fill="none"/></g><path d="M19.1537 19.1537C19.1537 28.7704 26.9496 36.5662 36.5662 36.5662 46.1829 36.5662 53.9787 28.7704 53.9787 19.1537 53.9787 9.53709 46.1829 1.74125 36.5662 1.74125 26.9496 1.74125 19.1537 9.53709 19.1537 19.1537" stroke="#66737C" stroke-width="3.57143" stroke-linecap="round" stroke-linejoin="round" fill="none"/><path d="M27.0242 4.64333 36.752 11.144C37.7239 11.7897 38.3079 12.8792 38.3075 14.0461L38.3075 18.0394C38.3148 19.7049 37.1342 21.1392 35.4983 21.4522L29.6012 22.6362 30.8549 27.6975C31.1552 28.8792 30.8112 30.1317 29.9495 30.9942L27.0242 33.7338" stroke="#66737C" stroke-width="3.57143" stroke-linecap="round" stroke-linejoin="round" fill="none"/><path d="M53.8859 20.895 46.4333 23.4024C44.761 23.9549 43.7644 25.669 44.1117 27.3957L45.4814 34.1053" stroke="#66737C" stroke-width="3.57143" stroke-linecap="round" stroke-linejoin="round" fill="none"/></g></svg>