<svg width="60" height="60" viewBox="-1.875 -1.875 60 60" xmlns="http://www.w3.org/2000/svg" xmlns:xlink="http://www.w3.org/1999/xlink" id="Elastic-Load-Balance-Circle--Streamline-Ultimate" fill="none" overflow="hidden"><path d="M13.4766 39.7268C19.9486 39.7268 25.1953 34.4801 25.1953 28.008 25.1953 21.5359 19.9486 16.2892 13.4766 16.2892 7.00448 16.2892 1.75781 21.5359 1.75781 28.008 1.75781 34.4801 7.00448 39.7268 13.4766 39.7268Z" stroke="#66737C" stroke-width="3.33333" stroke-linecap="round" stroke-linejoin="round" stroke-miterlimit="10"/><path d="M43.2422 9.96066 25.1953 28.0076 43.2422 46.0545" stroke="#66737C" stroke-width="3.33333" stroke-linecap="round" stroke-linejoin="round" stroke-miterlimit="10"/><path d="M25.1953 28.008 42.7734 28.008" stroke="#66737C" stroke-width="3.33333" stroke-linecap="round" stroke-linejoin="round" stroke-miterlimit="10"/><path d="M48.6328 33.8674C51.8688 33.8674 54.4922 31.2441 54.4922 28.008 54.4922 24.772 51.8688 22.1486 48.6328 22.1486 45.3968 22.1486 42.7734 24.772 42.7734 28.008 42.7734 31.2441 45.3968 33.8674 48.6328 33.8674Z" stroke="#66737C" stroke-width="3.33333" stroke-linecap="round" stroke-linejoin="round" stroke-miterlimit="10"/><path d="M48.6328 13.4763C51.8688 13.4763 54.4922 10.8529 54.4922 7.61691 54.4922 4.38087 51.8688 1.75753 48.6328 1.75753 45.3968 1.75753 42.7734 4.38087 42.7734 7.61691 42.7734 10.8529 45.3968 13.4763 48.6328 13.4763Z" stroke="#66737C" stroke-width="3.33333" stroke-linecap="round" stroke-linejoin="round" stroke-miterlimit="10"/><path d="M48.6328 54.4924C51.8688 54.4924 54.4922 51.8691 54.4922 48.633 54.4922 45.397 51.8688 42.7737 48.6328 42.7737 45.3968 42.7737 42.7734 45.397 42.7734 48.633 42.7734 51.8691 45.3968 54.4924 48.6328 54.4924Z" stroke="#66737C" stroke-width="3.33333" stroke-linecap="round" stroke-linejoin="round" stroke-miterlimit="10"/></svg>