<svg width="60" height="60" viewBox="-2.14 -2.14 60 60" xmlns="http://www.w3.org/2000/svg" xmlns:xlink="http://www.w3.org/1999/xlink" id="Elastic-Compute-Cloud-1--Streamline-Ultimate.svg" fill="none" overflow="hidden"><path d="M27.5234 50.9441C27.5234 51.6174 27.0746 52.5149 26.4013 52.7394 25.728 53.1882 25.0547 53.1882 24.1569 52.964L4.63166 43.9868C3.50952 43.538 2.61181 42.1914 2.61181 40.8448L2.61181 17.2798C2.61181 16.6065 3.06065 15.7088 3.73394 15.4844 4.40722 15.0355 5.08053 15.0355 5.97822 15.2599L25.5035 24.237C26.6256 24.6858 27.5234 26.0324 27.5234 27.379L27.5234 50.9441Z" stroke="#66737C" stroke-width="3.57143" stroke-linecap="round" stroke-linejoin="round" stroke-miterlimit="10"/><path d="M14.0578 11.4034 34.2564 20.6049C35.3785 21.0538 36.2763 22.4003 36.2763 23.7469L36.2763 47.3119" stroke="#66737C" stroke-width="3.57143" stroke-linecap="round" stroke-linejoin="round" stroke-miterlimit="10"/><path d="M22.8104 6.91476 43.0089 16.1163C44.1312 16.5652 45.0287 17.9118 45.0287 19.2583L45.0287 42.8234" stroke="#66737C" stroke-width="3.57143" stroke-linecap="round" stroke-linejoin="round" stroke-miterlimit="10"/><path d="M31.5631 2.61188 51.0883 11.589C52.2103 12.0379 53.1081 13.3844 53.1081 14.731L53.1081 38.2959" stroke="#66737C" stroke-width="3.57143" stroke-linecap="round" stroke-linejoin="round" stroke-miterlimit="10"/></svg>