<svg width="60" height="60" viewBox="-2.14 -2.14 60 60" xmlns="http://www.w3.org/2000/svg" xmlns:xlink="http://www.w3.org/1999/xlink" id="Electricity-Tower-1--Streamline-Ultimate.svg" overflow="hidden"><path d="M1.74125 53.9787 53.9787 53.9787" stroke="#66737C" stroke-width="3.57143" stroke-linecap="round" stroke-linejoin="round" fill="none"/><path d="M22.6362 5.22375 33.0838 5.22375 33.0838 53.9787 22.6362 53.9787Z" stroke="#66737C" stroke-width="3.57143" stroke-linecap="round" stroke-linejoin="round" fill="none"/><path d="M22.6362 15.6713 33.0838 15.6713" stroke="#66737C" stroke-width="3.57143" stroke-linecap="round" stroke-linejoin="round" fill="none"/><path d="M22.6362 26.1187 33.0838 26.1187" stroke="#66737C" stroke-width="3.57143" stroke-linecap="round" stroke-linejoin="round" fill="none"/><path d="M22.6362 36.5662 33.0838 36.5662" stroke="#66737C" stroke-width="3.57143" stroke-linecap="round" stroke-linejoin="round" fill="none"/><path d="M12.1888 5.22375 22.6362 5.22375" stroke="#66737C" stroke-width="3.57143" stroke-linecap="round" stroke-linejoin="round" fill="none"/><path d="M12.1888 15.6713 22.6362 15.6713" stroke="#66737C" stroke-width="3.57143" stroke-linecap="round" stroke-linejoin="round" fill="none"/><path d="M22.6362 26.1187 20.5955 26.1187C19.6725 26.1189 18.7874 26.4855 18.1345 27.138L10.1921 35.0804C9.85233 35.4206 9.85267 35.9718 10.1929 36.3116 10.3559 36.4745 10.5769 36.566 10.8074 36.5662L22.6479 36.5662" stroke="#66737C" stroke-width="3.57143" stroke-linecap="round" stroke-linejoin="round" fill="none"/><path d="M43.5312 5.22375 33.0838 5.22375" stroke="#66737C" stroke-width="3.57143" stroke-linecap="round" stroke-linejoin="round" fill="none"/><path d="M43.5312 15.6713 33.0838 15.6713" stroke="#66737C" stroke-width="3.57143" stroke-linecap="round" stroke-linejoin="round" fill="none"/><path d="M33.0838 26.1187 35.1245 26.1187C36.0475 26.1189 36.9326 26.4855 37.5855 27.138L45.5279 35.0804C45.8677 35.4206 45.8673 35.9718 45.5271 36.3116 45.3641 36.4745 45.1431 36.566 44.9126 36.5662L33.0838 36.5662" stroke="#66737C" stroke-width="3.57143" stroke-linecap="round" stroke-linejoin="round" fill="none"/></svg>