<svg width="60" height="60" viewBox="-2.14 -2.14 60 60" xmlns="http://www.w3.org/2000/svg" xmlns:xlink="http://www.w3.org/1999/xlink" id="Election-Campaign-4--Streamline-Ultimate.svg" overflow="hidden"><defs></defs><path d="M51.8126 24.1662 27.0938 25.0461 24.0501 16.0706 44.2045 1.72964 51.8126 24.1662Z" stroke="#66737C" stroke-width="3.57143" stroke-linecap="round" stroke-linejoin="round" fill="none"/><path d="M16.9765 18.4694 24.0497 16.0707 24.0497 16.0707 27.0933 25.0457 27.0933 25.0457 20.0201 27.4444C17.7313 28.2192 15.2474 26.9934 14.4701 24.7054L14.2382 24.0216C13.4619 21.7323 14.6876 19.2469 16.9765 18.4694Z" stroke="#66737C" stroke-width="3.57143" stroke-linecap="round" stroke-linejoin="round" fill="none"/><path d="M27.0938 25.0461 28.6401 32.0413" stroke="#66737C" stroke-width="3.57143" stroke-linecap="round" stroke-linejoin="round" fill="none"/><path d="M22.0419 33.1604 20.3819 27.3214" stroke="#66737C" stroke-width="3.57143" stroke-linecap="round" stroke-linejoin="round" fill="none"/><path d="M17.2732 50.0923C18.6565 53.1812 22.1551 54.7198 25.3665 53.6514L33.1813 51.0511C35.7685 50.1903 37.1691 47.3962 36.3109 44.8082L33.1998 35.424C32.3392 32.8347 29.5424 31.4334 26.9532 32.2941 26.9529 32.2942 26.9525 32.2943 26.9522 32.2944L23.1679 33.5272" stroke="#66737C" stroke-width="3.57143" stroke-linecap="round" stroke-linejoin="round" fill="none"/><path d="M22.1185 41.2769C22.6254 42.7866 24.2601 43.5996 25.7698 43.0928 25.9221 43.0416 26.0699 42.9778 26.2116 42.9021 27.4693 42.183 28.0292 40.6647 27.5396 39.3012L27.0288 37.7619C25.9896 34.4575 22.6271 32.4675 19.2304 33.1464 16.5795 33.7433 14.5669 35.9062 14.1622 38.5931" stroke="#66737C" stroke-width="3.57143" stroke-linecap="round" stroke-linejoin="round" fill="none"/><path d="M25.3735 43.2318 26.6736 47.1414" stroke="#66737C" stroke-width="3.57143" stroke-linecap="round" stroke-linejoin="round" fill="none"/><path d="M17.2732 50.0923 7.65918 53.2892" stroke="#66737C" stroke-width="3.57143" stroke-linecap="round" stroke-linejoin="round" fill="none"/><path d="M3.90737 42.0082 14.1715 38.5931" stroke="#66737C" stroke-width="3.57143" stroke-linecap="round" stroke-linejoin="round" fill="none"/></svg>