<svg width="60" height="60" viewBox="-1.875 -1.875 60 60" xmlns="http://www.w3.org/2000/svg" xmlns:xlink="http://www.w3.org/1999/xlink" id="Embassy-Building-2--Streamline-Ultimate" fill="none" overflow="hidden"><path d="M28.4297 2.09063 38.1258 2.09063 38.1258 10.2445 28.4297 10.2445Z" stroke="#66737C" stroke-width="3.57143" stroke-linejoin="round"/><path d="M28.4309 17.8474 28.4309 8.81152" stroke="#66737C" stroke-width="3.57143" stroke-linecap="round" stroke-linejoin="round"/><path d="M30.0752 54.1603 10.8507 54.1603 10.8507 32.0878C10.8507 31.71 11.0007 31.3479 11.2678 31.0809 11.5349 30.8137 11.8971 30.6637 12.2748 30.6637L28.6512 30.6637C29.029 30.6637 29.3911 30.8137 29.658 31.0809 29.9252 31.3479 30.0752 31.71 30.0752 32.0878L30.0752 54.1603Z" stroke="#66737C" stroke-width="3.57143" stroke-linecap="round" stroke-linejoin="round"/><path d="M30.0752 54.1603 45.0277 54.1603 45.0277 19.9834C45.0277 19.4169 44.8024 18.8736 44.4019 18.473 44.0013 18.0724 43.458 17.8474 42.8916 17.8474L23.667 17.8474C23.1004 17.8474 22.5571 18.0724 22.1565 18.473 21.756 18.8736 21.5309 19.4169 21.5309 19.9834L21.5309 30.6637" stroke="#66737C" stroke-width="3.57143" stroke-linecap="round" stroke-linejoin="round"/><path d="M49.6713 54.1603 6.57863 54.1603" stroke="#66737C" stroke-width="3.57143" stroke-linecap="round" stroke-linejoin="round"/><path d="M21.5309 39.2079 30.0752 39.2079" stroke="#66737C" stroke-width="3.57143" stroke-linecap="round" stroke-linejoin="round"/><path d="M38.6196 30.6637 45.0277 30.6637" stroke="#66737C" stroke-width="3.57143" stroke-linecap="round" stroke-linejoin="round"/><path d="M38.6196 39.2079 45.0277 39.2079" stroke="#66737C" stroke-width="3.57143" stroke-linecap="round" stroke-linejoin="round"/></svg>