<svg width="60" height="60" viewBox="-1.875 -1.875 60 60" xmlns="http://www.w3.org/2000/svg" xmlns:xlink="http://www.w3.org/1999/xlink" id="Embassy-Building-1--Streamline-Ultimate" fill="none" overflow="hidden"><path d="M28.125 2.24531 37.8211 2.24531 37.8211 10.3992 28.125 10.3992Z" stroke="#66737C" stroke-width="3.57143" stroke-linejoin="round"/><path d="M23.2763 45.9954C23.2763 43.3177 25.447 41.1469 28.1248 41.1469 30.8025 41.1469 32.9733 43.3177 32.9733 45.9954L32.9733 53.8601 23.2763 53.8601 23.2763 45.9954Z" stroke="#66737C" stroke-width="3.57143" stroke-linejoin="round"/><path d="M28.125 16.5697 28.125 8.9663" stroke="#66737C" stroke-width="3.57143" stroke-linecap="round" stroke-linejoin="round"/><path d="M14.0524 30.6424 14.0524 53.8601 42.1976 53.8601 42.1976 30.6424" stroke="#66737C" stroke-width="3.57143" stroke-linejoin="round"/><path d="M42.3129 37.2183 53.869 37.2183 53.869 53.8601 2.38088 53.8601 2.38088 37.2183 13.8722 37.2183" stroke="#66737C" stroke-width="3.57143" stroke-linejoin="round"/><path d="M10.6945 30.6424 45.5555 30.6424" stroke="#66737C" stroke-width="3.57143" stroke-linecap="round" stroke-linejoin="round"/><path d="M42.1976 30.6424C42.1976 22.8702 35.8971 16.5697 28.125 16.5697 20.3528 16.5697 14.0523 22.8702 14.0523 30.6424" stroke="#66737C" stroke-width="3.57143"/></svg>