<svg width="60" height="60" viewBox="-1.875 -1.875 60 60" xmlns="http://www.w3.org/2000/svg" xmlns:xlink="http://www.w3.org/1999/xlink" id="Emergency-Valve-Caution--Streamline-Ultimate" fill="none" overflow="hidden"><path d="M52.0202 31.8295C52.7112 31.3256 53.2472 30.6387 53.568 29.846 53.8889 29.0536 53.9815 28.1871 53.8357 27.3445 53.6897 26.502 53.3109 25.7173 52.7423 25.0786 52.1738 24.4402 51.4378 23.9733 50.618 23.7312 50.037 20.7261 48.8562 17.8689 47.1462 15.3304 47.6241 14.4607 47.8069 13.4594 47.667 12.477 47.527 11.4945 47.0721 10.584 46.3704 9.88233 45.6687 9.18063 44.7581 8.72564 43.7759 8.58574 42.7934 8.44584 41.7921 8.62859 40.9223 9.10652 38.3843 7.39416 35.527 6.21105 32.5216 5.62795 32.2413 4.67965 31.6617 3.84741 30.8698 3.25549 30.0776 2.66358 29.1152 2.34375 28.1264 2.34375 27.1376 2.34375 26.1752 2.66358 25.383 3.25549 24.5909 3.84741 24.0115 4.67965 23.7312 5.62795 20.7256 6.21105 17.8684 7.39416 15.3304 9.10652 14.4607 8.62859 13.4594 8.44584 12.477 8.58574 11.4945 8.72564 10.584 9.18063 9.88233 9.88233 9.18063 10.584 8.72564 11.4945 8.58574 12.477 8.44584 13.4594 8.62859 14.4607 9.10652 15.3304 7.39416 17.8684 6.21105 20.7255 5.62795 23.7312 4.67965 24.0115 3.84741 24.5909 3.25549 25.383 2.66358 26.1752 2.34375 27.1376 2.34375 28.1264 2.34375 29.1152 2.66358 30.0776 3.25549 30.8698 3.84741 31.6617 4.67965 32.2413 5.62795 32.5216 6.21105 35.527 7.39416 38.3843 9.10652 40.9223 8.62859 41.7921 8.44584 42.7934 8.58574 43.7759 8.72564 44.7581 9.18063 45.6687 9.88233 46.3704 10.584 47.0721 11.4945 47.527 12.477 47.667 13.4594 47.8069 14.4607 47.6241 15.3304 47.1462 16.0556 47.6346 16.8085 48.0806 17.5853 48.4821" stroke="#66737C" stroke-width="3.33333" stroke-linecap="round" stroke-linejoin="round"/><path d="M41.7448 19.6477C40.4468 17.5646 38.688 15.8073 36.604 14.5109 34.5199 13.2144 32.1661 12.4136 29.7239 12.1699 27.2815 11.9261 24.8159 12.2461 22.5168 13.1052 20.2177 13.9642 18.1463 15.3394 16.4622 17.1248 14.7781 18.9102 13.5262 21.0583 12.8028 23.4037 12.0794 25.7491 11.9039 28.2291 12.2897 30.653 12.6755 33.0769 13.6124 35.3798 15.0283 37.3847 16.4441 39.3895 18.3011 41.0428 20.4563 42.217" stroke="#66737C" stroke-width="3.33333" stroke-linecap="round" stroke-linejoin="round"/><path d="M28.1262 12.0855 28.1262 23.5432" stroke="#66737C" stroke-width="3.33333" stroke-linecap="round" stroke-linejoin="round"/><path d="M14.2349 36.1467 24.1573 30.4179" stroke="#66737C" stroke-width="3.33333" stroke-linecap="round" stroke-linejoin="round"/><path d="M53.4844 48.8189 42.0429 27.9155C41.7584 27.3769 41.3323 26.9259 40.8105 26.6114 40.2888 26.2969 39.6914 26.1307 39.082 26.1307 38.4729 26.1307 37.8752 26.2969 37.3535 26.6114 36.8318 26.9259 36.4059 27.3769 36.1214 27.9155L24.6888 48.8189C24.4024 49.3425 24.2573 49.9315 24.2677 50.5282 24.2777 51.1247 24.4432 51.7085 24.7474 52.2218 25.0519 52.7351 25.4845 53.1602 26.003 53.4555 26.5214 53.7511 27.1078 53.9062 27.7045 53.9062L50.4689 53.9062C51.0654 53.9062 51.652 53.7511 52.1705 53.4555 52.6889 53.1602 53.1216 52.7351 53.4258 52.2218 53.7302 51.7085 53.8955 51.1247 53.9058 50.5282 53.9161 49.9315 53.7708 49.3425 53.4844 48.8189L53.4844 48.8189Z" stroke="#66737C" stroke-width="3.33333" stroke-linecap="round" stroke-linejoin="round"/><path d="M39.082 34.428 39.082 40.1569" stroke="#66737C" stroke-width="3.33333" stroke-linecap="round" stroke-linejoin="round"/><path d="M39.0823 47.891C38.6077 47.891 38.2228 47.5062 38.2228 47.0316 38.2228 46.557 38.6077 46.1723 39.0823 46.1723" stroke="#66737C" stroke-width="3.33333"/><path d="M39.082 47.891C39.5566 47.891 39.9415 47.5062 39.9415 47.0316 39.9415 46.557 39.5566 46.1723 39.082 46.1723" stroke="#66737C" stroke-width="3.33333"/><path d="M30.3741 24.1322C29.8463 23.835 29.2648 23.6454 28.6631 23.5744 28.0615 23.5031 27.4519 23.5521 26.8692 23.718 26.2866 23.8842 25.7428 24.1641 25.2691 24.5416 24.7952 24.9192 24.4013 25.3868 24.1092 25.9177 23.8174 26.4485 23.6337 27.0319 23.5688 27.6342 23.5038 28.2366 23.5589 28.8457 23.7309 29.4265 23.9027 30.0075 24.1882 30.5484 24.5705 31.0184 24.9527 31.4883 25.4245 31.8776 25.9582 32.164" stroke="#66737C" stroke-width="3.33333" stroke-linecap="round" stroke-linejoin="round"/></svg>