<svg width="60" height="60" viewBox="-2.14 -2.14 60 60" xmlns="http://www.w3.org/2000/svg" xmlns:xlink="http://www.w3.org/1999/xlink" id="Emergency-Valve--Streamline-Ultimate.svg" overflow="hidden"><defs></defs><path d="M51.9426 23.8366 50.1851 23.8366C49.6183 20.6387 48.3679 17.6009 46.5192 14.9306L47.7544 13.6978C48.5429 12.9106 48.544 11.6332 47.7568 10.8446 47.756 10.8438 47.7552 10.843 47.7544 10.8422L44.8987 7.98653C44.1127 7.19861 42.8367 7.19709 42.0488 7.98314 42.0476 7.98427 42.0465 7.9854 42.0454 7.98653L40.8172 9.21469C38.1504 7.35446 35.1133 6.09211 31.9136 5.51396L31.9136 3.77735C31.9123 2.66235 31.0088 1.75878 29.8938 1.7575L25.8564 1.7575C24.7409 1.7575 23.8366 2.66182 23.8366 3.77735L23.8366 5.50699C20.6326 6.0755 17.5892 7.32913 14.9144 9.18219L13.6978 7.96564C12.9106 7.17707 11.6332 7.17598 10.8446 7.9632 10.8438 7.96401 10.843 7.96483 10.8422 7.96564L7.98653 10.8213C7.19797 11.6085 7.19688 12.8859 7.9841 13.6745 7.98491 13.6753 7.98572 13.6761 7.98653 13.6769L9.20076 14.8912C7.34332 17.5628 6.08419 20.6037 5.50931 23.8064L3.77735 23.8064C2.66235 23.8076 1.75878 24.7112 1.7575 25.8262L1.7575 29.8636C1.7575 30.9791 2.66182 31.8834 3.77735 31.8834L5.50932 31.8834C6.08255 35.0837 7.34015 38.1223 9.19612 40.7917L7.96564 42.0222C7.17707 42.8094 7.17598 44.0868 7.9632 44.8754 7.96401 44.8762 7.96483 44.877 7.96564 44.8778L10.8213 47.7335C11.6073 48.5214 12.8833 48.5229 13.6712 47.7369 13.6724 47.7357 13.6735 47.7346 13.6746 47.7335L14.9074 46.503C17.5752 48.3537 20.6104 49.608 23.8064 50.1805L23.8064 51.9426C23.8076 53.0577 24.7112 53.9612 25.8262 53.9625L29.8636 53.9625C30.9791 53.9625 31.8834 53.0582 31.8834 51.9426L31.8834 50.1805C35.0767 49.6085 38.1093 48.3558 40.7754 46.5076L42.0222 47.7544C42.8094 48.5429 44.0868 48.544 44.8754 47.7568 44.8762 47.756 44.877 47.7552 44.8778 47.7544L47.7335 44.8987C48.522 44.1115 48.5231 42.8341 47.7359 42.0455 47.7351 42.0447 47.7343 42.0439 47.7335 42.0431L46.4891 40.7986C48.3425 38.1365 49.6 35.1059 50.1759 31.9136L51.9426 31.9136C53.0577 31.9123 53.9612 31.0088 53.9625 29.8938L53.9625 25.8564C53.9625 24.7409 53.0582 23.8366 51.9426 23.8366Z" stroke="#66737C" stroke-width="3.57143" stroke-linecap="round" stroke-linejoin="round" fill="none"/><path d="M11.5921 27.8437C11.5921 36.8193 18.8682 44.0954 27.8437 44.0954 36.8193 44.0954 44.0954 36.8193 44.0954 27.8437 44.0954 18.8682 36.8193 11.5921 27.8437 11.5921 18.8682 11.5921 11.5921 18.8682 11.5921 27.8437" stroke="#66737C" stroke-width="3.57143" stroke-linecap="round" stroke-linejoin="round" fill="none"/><path d="M23.2004 27.8437C23.2004 30.4082 25.2793 32.4871 27.8437 32.4871 30.4082 32.4871 32.4871 30.4082 32.4871 27.8437 32.4871 25.2793 30.4082 23.2004 27.8437 23.2004 25.2793 23.2004 23.2004 25.2793 23.2004 27.8437" stroke="#66737C" stroke-width="3.57143" stroke-linecap="round" stroke-linejoin="round" fill="none"/><path d="M27.8437 11.5921 27.8437 23.2004" stroke="#66737C" stroke-width="3.57143" stroke-linecap="round" stroke-linejoin="round" fill="none"/><path d="M13.7698 19.7179 23.8203 25.5221" stroke="#66737C" stroke-width="3.57143" stroke-linecap="round" stroke-linejoin="round" fill="none"/><path d="M13.7721 35.9673 23.8203 30.1654" stroke="#66737C" stroke-width="3.57143" stroke-linecap="round" stroke-linejoin="round" fill="none"/><path d="M27.8437 44.0954 27.8437 32.4871" stroke="#66737C" stroke-width="3.57143" stroke-linecap="round" stroke-linejoin="round" fill="none"/><path d="M41.9154 35.9673 31.8602 30.1631" stroke="#66737C" stroke-width="3.57143" stroke-linecap="round" stroke-linejoin="round" fill="none"/><path d="M41.9177 19.7179 32.248 25.2992" stroke="#66737C" stroke-width="3.57143" stroke-linecap="round" stroke-linejoin="round" fill="none"/></svg>