<svg width="60" height="60" viewBox="-1.875 -1.875 60 60" xmlns="http://www.w3.org/2000/svg" xmlns:xlink="http://www.w3.org/1999/xlink" id="Empathy-Authentication-Heart-Outside--Streamline-Ultimate" fill="none" overflow="hidden"><path d="M15.2994 21.9691 5.52265 11.8089C3.79734 10.0836 3.41393 7.39976 4.37243 5.09934 6.09776 1.6487 10.8903 0.881916 13.5741 3.56573L15.1078 5.09934 16.6414 3.56573C19.5169 0.690213 24.1177 1.457 25.8431 5.09934 26.9932 7.39976 26.6098 10.0836 24.6928 11.8089L15.2994 21.9691Z" stroke="#66737C" stroke-width="3.33333" stroke-linecap="round" stroke-linejoin="round" stroke-miterlimit="10"/><path d="M14.4066 54.4486 14.4066 40.9657C11.4329 38.2109 9.35899 34.6233 8.45576 30.6715 7.90202 28.2488 7.80403 25.7583 8.15252 23.3241M37.0038 54.4486 37.0038 47.9923 40.2319 47.9923C41.9442 47.9923 43.5865 47.3121 44.7973 46.1013 46.008 44.8905 46.6882 43.2483 46.6882 41.5359L46.6882 35.0796 50.7773 35.0796C51.0394 35.0791 51.2972 35.0152 51.529 34.8928 51.7605 34.7707 51.9591 34.594 52.1074 34.3779 52.2555 34.162 52.3491 33.9131 52.3798 33.653 52.4107 33.3928 52.3777 33.1291 52.2839 32.8845 47.4045 20.2267 44.2399 8.80563 32.7443 6.46362" stroke="#66737C" stroke-width="3.33333" stroke-linecap="round" stroke-linejoin="round"/></svg>