<svg width="60" height="60" viewBox="-1.875 -1.875 60 60" xmlns="http://www.w3.org/2000/svg" xmlns:xlink="http://www.w3.org/1999/xlink" id="Equipment-Pressure-Measure--Streamline-Ultimate" fill="none" overflow="hidden"><path d="M45.1172 1.75781 11.1328 1.75781C9.83841 1.75781 8.78906 2.80716 8.78906 4.10156L8.78906 52.1484C8.78906 53.4429 9.83841 54.4922 11.1328 54.4922L45.1172 54.4922C46.4116 54.4922 47.4609 53.4429 47.4609 52.1484L47.4609 4.10156C47.4609 2.80716 46.4116 1.75781 45.1172 1.75781Z" stroke="#66737C" stroke-width="3.33333" stroke-linecap="round" stroke-linejoin="round"/><path d="M47.4609 8.78906 8.78906 8.78906 8.78906 29.8828 47.4609 29.8828 47.4609 8.78906Z" stroke="#66737C" stroke-width="3.33333" stroke-linecap="round" stroke-linejoin="round"/><path d="M21.0938 29.8828C21.0938 28.0181 21.8345 26.2296 23.1532 24.911 24.4718 23.5924 26.2603 22.8516 28.125 22.8516 29.9897 22.8516 31.7782 23.5924 33.0968 24.911 34.4154 26.2296 35.1562 28.0181 35.1562 29.8828L21.0938 29.8828Z" stroke="#66737C" stroke-width="3.33333" stroke-linecap="round" stroke-linejoin="round"/><path d="M32.025 24.0328 38.6719 14.0625" stroke="#66737C" stroke-width="3.33333" stroke-linecap="round" stroke-linejoin="round"/><path d="M22.8516 47.4609C25.7639 47.4609 28.125 45.0998 28.125 42.1875 28.125 39.2752 25.7639 36.9141 22.8516 36.9141 19.9391 36.9141 17.5781 39.2752 17.5781 42.1875 17.5781 45.0998 19.9391 47.4609 22.8516 47.4609Z" stroke="#66737C" stroke-width="3.33333" stroke-linecap="round" stroke-linejoin="round"/><path d="M38.6719 39.5508C38.1865 39.5508 37.793 39.1573 37.793 38.6719 37.793 38.1865 38.1865 37.793 38.6719 37.793" stroke="#66737C" stroke-width="3.33333"/><path d="M38.6719 39.5508C39.1573 39.5508 39.5508 39.1573 39.5508 38.6719 39.5508 38.1865 39.1573 37.793 38.6719 37.793" stroke="#66737C" stroke-width="3.33333"/><g><path d="M38.6719 46.582C38.1865 46.582 37.793 46.1885 37.793 45.7031 37.793 45.2177 38.1865 44.8242 38.6719 44.8242" stroke="#66737C" stroke-width="3.33333"/><path d="M38.6719 46.582C39.1573 46.582 39.5508 46.1885 39.5508 45.7031 39.5508 45.2177 39.1573 44.8242 38.6719 44.8242" stroke="#66737C" stroke-width="3.33333"/></g></svg>