<svg width="60" height="60" viewBox="-1.875 -1.875 60 60" xmlns="http://www.w3.org/2000/svg" xmlns:xlink="http://www.w3.org/1999/xlink" id="Explosive-Gas--Streamline-Ultimate" fill="none" overflow="hidden"><path d="M39.8438 12.3047C43.8281 12.3047 46.875 15.3516 46.875 19.3359L46.875 40.4297C46.875 44.4141 43.8281 47.4609 39.8438 47.4609L16.4062 47.4609C12.4219 47.4609 9.375 44.4141 9.375 40.4297L9.375 19.3359C9.375 15.3516 12.4219 12.3047 16.4062 12.3047L39.8438 12.3047 39.8438 12.3047Z" stroke="#66737C" stroke-width="3.33333" stroke-linecap="round" stroke-linejoin="round" stroke-miterlimit="10"/><path d="M7.03125 22.617 14.5312 22.617" stroke="#66737C" stroke-width="3.33333" stroke-linecap="round" stroke-linejoin="round" stroke-miterlimit="10"/><path d="M7.03125 36.6795 14.5312 36.6795" stroke="#66737C" stroke-width="3.33333" stroke-linecap="round" stroke-linejoin="round" stroke-miterlimit="10"/><path d="M37.5 1.75781 18.75 1.75781 18.75 12.3047 37.5 12.3047 37.5 1.75781Z" stroke="#66737C" stroke-width="3.33333" stroke-linecap="round" stroke-linejoin="round" stroke-miterlimit="10"/><path d="M39.8438 47.4609 16.4062 47.4609 16.4062 54.4922 39.8438 54.4922 39.8438 47.4609Z" stroke="#66737C" stroke-width="3.33333" stroke-linecap="round" stroke-linejoin="round" stroke-miterlimit="10"/><path d="M14.0625 1.75781 42.1875 1.75781" stroke="#66737C" stroke-width="3.33333" stroke-linecap="round" stroke-linejoin="round" stroke-miterlimit="10"/><path d="M26.4844 20.5078C28.5938 22.6172 28.5938 26.1328 27.1875 28.4766 25.7812 28.7109 24.6094 27.3047 24.6094 26.3672 22.7344 27.3047 21.5625 29.4141 21.5625 31.7578 21.5625 35.2734 24.375 38.0859 27.8906 38.0859 31.4062 38.0859 34.2188 35.2734 34.2188 31.7578 34.6875 25.4297 30.9375 22.1484 26.4844 20.5078Z" stroke="#66737C" stroke-width="3.33333" stroke-linecap="round" stroke-linejoin="round" stroke-miterlimit="10"/><path d="M41.7188 22.617 49.2188 22.617" stroke="#66737C" stroke-width="3.33333" stroke-linecap="round" stroke-linejoin="round" stroke-miterlimit="10"/><path d="M41.7188 36.6795 49.2188 36.6795" stroke="#66737C" stroke-width="3.33333" stroke-linecap="round" stroke-linejoin="round" stroke-miterlimit="10"/></svg>