<svg width="60" height="60" viewBox="-1.875 -1.875 60 60" xmlns="http://www.w3.org/2000/svg" xmlns:xlink="http://www.w3.org/1999/xlink" id="Factory-Manufacturing-Line-Packing-Robot-Arm--Streamline-Ultimate" overflow="hidden"><defs></defs><path d="M22.4555 11.475 13.0195 17.0273 14.7773 24.607" stroke="#66737C" stroke-width="3.33333" stroke-linecap="round" stroke-linejoin="round" fill="none"/><path d="M33.7945 11.475 43.2305 17.0273 41.4727 24.607" stroke="#66737C" stroke-width="3.33333" stroke-linecap="round" stroke-linejoin="round" fill="none"/><path d="M22.0406 25.0617 34.2117 25.0617C34.2117 25.0617 35.3836 25.0617 35.3836 26.2336L35.3836 36.1945C35.3836 36.1945 35.3836 37.3664 34.2117 37.3664L22.0406 37.3664C22.0406 37.3664 20.8687 37.3664 20.8687 36.1945L20.8687 26.2336C20.8687 26.2336 20.8687 25.0617 22.0406 25.0617" stroke="#66737C" stroke-width="3.33333" stroke-linecap="round" stroke-linejoin="round" fill="none"/><path d="M11.7188 54.3586 11.7188 44.9836 44.5312 44.9836 44.5312 54.3586" stroke="#66737C" stroke-width="3.33333" stroke-linecap="round" stroke-linejoin="round" fill="none"/><path d="M11.7188 44.9836 1.75781 34.4367" stroke="#66737C" stroke-width="3.33333" stroke-linecap="round" stroke-linejoin="round" fill="none"/><path d="M44.5312 44.9836 54.4922 34.4367" stroke="#66737C" stroke-width="3.33333" stroke-linecap="round" stroke-linejoin="round" fill="none"/><path d="M22.4555 11.475C22.4555 14.6062 24.9938 17.1445 28.125 17.1445 31.2562 17.1445 33.7945 14.6062 33.7945 11.475 33.7945 8.3438 31.2562 5.80547 28.125 5.80547 24.9938 5.80547 22.4555 8.3438 22.4555 11.475" stroke="#66737C" stroke-width="3.33333" stroke-linecap="round" stroke-linejoin="round" fill="none"/><path d="M28.125 1.89141 28.125 5.80781" stroke="#66737C" stroke-width="3.33333" stroke-linecap="round" stroke-linejoin="round" fill="none"/></svg>