<svg width="60" height="60" viewBox="-1.875 -1.875 60 60" xmlns="http://www.w3.org/2000/svg" xmlns:xlink="http://www.w3.org/1999/xlink" id="Factory-Building-Power-Plant--Streamline-Ultimate" overflow="hidden"><defs></defs><path d="M19.3359 28.7109 4.10156 28.7109C2.80715 28.7109 1.75781 29.7603 1.75781 31.0547L1.75781 52.1484C1.75781 53.4429 2.80715 54.4922 4.10156 54.4922L52.1484 54.4922C53.4429 54.4922 54.4922 53.4429 54.4922 52.1484L54.4922 31.0547C54.4922 29.7603 53.4429 28.7109 52.1484 28.7109L38.0859 28.7109" stroke="#66737C" stroke-width="3.33333" stroke-linecap="round" stroke-linejoin="round" fill="none"/><path d="M5.85938 19.3359 16.9922 19.3359 16.9922 28.7109 5.85938 28.7109Z" stroke="#66737C" stroke-width="3.33333" stroke-linecap="round" stroke-linejoin="round" fill="none"/><path d="M19.3359 19.3359 3.51562 19.3359" stroke="#66737C" stroke-width="3.33333" stroke-linecap="round" stroke-linejoin="round" fill="none"/><path d="M19.3359 12.3047 3.51562 12.3047" stroke="#66737C" stroke-width="3.33333" stroke-linecap="round" stroke-linejoin="round" fill="none"/><path d="M19.3359 5.27344 3.51562 5.27344" stroke="#66737C" stroke-width="3.33333" stroke-linecap="round" stroke-linejoin="round" fill="none"/><path d="M11.1328 5.27344 11.1328 1.75781" stroke="#66737C" stroke-width="3.33333" stroke-linecap="round" stroke-linejoin="round" fill="none"/><path d="M39.2578 19.3359 50.3906 19.3359 50.3906 28.7109 39.2578 28.7109Z" stroke="#66737C" stroke-width="3.33333" stroke-linecap="round" stroke-linejoin="round" fill="none"/><path d="M36.9141 19.3359 52.7344 19.3359" stroke="#66737C" stroke-width="3.33333" stroke-linecap="round" stroke-linejoin="round" fill="none"/><path d="M36.9141 12.3047 52.7344 12.3047" stroke="#66737C" stroke-width="3.33333" stroke-linecap="round" stroke-linejoin="round" fill="none"/><path d="M36.9141 5.27344 52.7344 5.27344" stroke="#66737C" stroke-width="3.33333" stroke-linecap="round" stroke-linejoin="round" fill="none"/><path d="M45.1172 5.27344 45.1172 1.75781" stroke="#66737C" stroke-width="3.33333" stroke-linecap="round" stroke-linejoin="round" fill="none"/><path d="M31.3078 25.793 19.9359 37.1648C19.6252 37.4765 19.626 37.9811 19.9377 38.2918 20.0837 38.4374 20.2805 38.5207 20.4867 38.5242L24.9398 38.5242 24.9398 48.0727 36.3281 36.6984C36.6375 36.3854 36.6345 35.8809 36.3215 35.5715 36.1734 35.4251 35.9739 35.3425 35.7656 35.3414L31.3125 35.3414Z" stroke="#66737C" stroke-width="3.33333" stroke-linecap="round" stroke-linejoin="round" fill="none"/></svg>