<svg width="60" height="60" viewBox="-1.875 -1.875 60 60" xmlns="http://www.w3.org/2000/svg" xmlns:xlink="http://www.w3.org/1999/xlink" id="Factory-Industrial-Robot-Arm-1--Streamline-Ultimate" overflow="hidden"><defs></defs><path d="M21.6797 44.2406 6.41719 33.2672" stroke="#66737C" stroke-width="3.33333" stroke-linecap="round" stroke-linejoin="round" fill="none"/><path d="M13.4531 27.0023 25.507 35.9391" stroke="#66737C" stroke-width="3.33333" stroke-linecap="round" stroke-linejoin="round" fill="none"/><path d="M1.76016 27.5414C1.76016 30.7775 4.38349 33.4008 7.61953 33.4008 10.8556 33.4008 13.4789 30.7774 13.4789 27.5414 13.4789 24.3054 10.8556 21.682 7.61953 21.682 4.38349 21.682 1.76016 24.3054 1.76016 27.5414" stroke="#66737C" stroke-width="3.33333" stroke-linecap="round" stroke-linejoin="round" fill="none"/><path d="M13.2117 25.793 26.3625 12.9844" stroke="#66737C" stroke-width="3.33333" stroke-linecap="round" stroke-linejoin="round" fill="none"/><path d="M24.3563 3.69844 2.94609 24.0234" stroke="#66737C" stroke-width="3.33333" stroke-linecap="round" stroke-linejoin="round" fill="none"/><path d="M22.8492 7.61719C22.8492 10.8532 25.4725 13.4766 28.7086 13.4766 31.9446 13.4766 34.568 10.8532 34.568 7.61719 34.568 4.38114 31.9446 1.75781 28.7086 1.75781 25.4726 1.75781 22.8492 4.38114 22.8492 7.61719" stroke="#66737C" stroke-width="3.33333" stroke-linecap="round" stroke-linejoin="round" fill="none"/><path d="M38.1891 17.3016 32.7984 11.7937" stroke="#66737C" stroke-width="3.33333" stroke-linecap="round" stroke-linejoin="round" fill="none"/><path d="M36.9141 20.5102C36.9141 23.099 39.0127 25.1977 41.6016 25.1977 44.1904 25.1977 46.2891 23.099 46.2891 20.5102 46.2891 17.9213 44.1904 15.8227 41.6016 15.8227 39.0127 15.8227 36.9141 17.9213 36.9141 20.5102" stroke="#66737C" stroke-width="3.33333" stroke-linecap="round" stroke-linejoin="round" fill="none"/><path d="M46.1719 19.4531C49.9891 18.7399 53.6617 21.2562 54.3749 25.0734 54.4548 25.5008 54.4948 25.9347 54.4945 26.3695" stroke="#66737C" stroke-width="3.33333" stroke-linecap="round" stroke-linejoin="round" fill="none"/><path d="M47.4609 33.4008C43.5777 33.4021 40.4286 30.2552 40.4273 26.372 40.4271 25.9379 40.4672 25.5048 40.5469 25.0781" stroke="#66737C" stroke-width="3.33333" stroke-linecap="round" stroke-linejoin="round" fill="none"/><path d="M2.34375 54.4945 53.9062 54.4945" stroke="#66737C" stroke-width="3.33333" stroke-linecap="round" stroke-linejoin="round" fill="none"/><path d="M21.6797 54.4945 21.6797 42.1875C21.6797 38.3042 24.8277 35.1562 28.7109 35.1562 32.5942 35.1562 35.7422 38.3042 35.7422 42.1875L35.7422 54.4922" stroke="#66737C" stroke-width="3.33333" stroke-linecap="round" stroke-linejoin="round" fill="none"/></svg>