<svg width="60" height="60" viewBox="-1.875 -1.875 60 60" xmlns="http://www.w3.org/2000/svg" xmlns:xlink="http://www.w3.org/1999/xlink" id="Factory-Assembly-Line-Belt-Arm-Box-2--Streamline-Ultimate" overflow="hidden"><defs></defs><path d="M19.9219 19.3359 36.3281 19.3359C36.3281 19.3359 38.6719 19.3359 38.6719 21.6797L38.6719 35.7422C38.6719 35.7422 38.6719 38.0859 36.3281 38.0859L19.9219 38.0859C19.9219 38.0859 17.5781 38.0859 17.5781 35.7422L17.5781 21.6797C17.5781 21.6797 17.5781 19.3359 19.9219 19.3359" stroke="#66737C" stroke-width="3.33333" stroke-linecap="round" stroke-linejoin="round" fill="none"/><path d="M10.5469 21.6797 6.44531 12.8906 16.9922 5.85938" stroke="#66737C" stroke-width="3.33333" stroke-linecap="round" stroke-linejoin="round" fill="none"/><path d="M45.7031 21.6797 49.8047 12.8906 39.2578 5.85938" stroke="#66737C" stroke-width="3.33333" stroke-linecap="round" stroke-linejoin="round" fill="none"/><path d="M16.9922 8.20312 16.9922 2.92969C16.9922 2.28248 17.5169 1.75781 18.1641 1.75781L38.0859 1.75781C38.7331 1.75781 39.2578 2.28248 39.2578 2.92969L39.2578 8.20312C32.5918 12.9402 23.6582 12.9402 16.9922 8.20312Z" stroke="#66737C" stroke-width="3.33333" stroke-linecap="round" stroke-linejoin="round" fill="none"/><path d="M24.6094 19.3359 31.6406 19.3359 31.6406 27.5391 24.6094 27.5391Z" stroke="#66737C" stroke-width="3.33333" stroke-linecap="round" stroke-linejoin="round" fill="none"/><path d="M54.4922 49.8047C54.4922 52.3935 52.3935 54.4922 49.8047 54.4922L6.44531 54.4922C3.85648 54.4922 1.75781 52.3935 1.75781 49.8047 1.75781 47.2159 3.85648 45.1172 6.44531 45.1172L49.8047 45.1172C52.3935 45.1172 54.4922 47.2159 54.4922 49.8047Z" stroke="#66737C" stroke-width="3.33333" stroke-linecap="round" stroke-linejoin="round" fill="none"/></svg>