<svg width="60" height="60" viewBox="-1.875 -1.875 60 60" xmlns="http://www.w3.org/2000/svg" xmlns:xlink="http://www.w3.org/1999/xlink" id="Factory-Assembly-Line-Belt-Bottle--Streamline-Ultimate" overflow="hidden"><defs></defs><path d="M11.1328 1.75781 11.1328 7.03125 13.4766 14.6484 13.4766 28.7109C13.4766 30.0054 12.4272 31.0547 11.1328 31.0547L4.10156 31.0547C2.80715 31.0547 1.75781 30.0054 1.75781 28.7109L1.75781 14.6484 4.10156 7.03125 4.10156 1.75781" stroke="#66737C" stroke-width="3.33333" stroke-linecap="round" stroke-linejoin="round" fill="none"/><path d="M31.6406 1.75781 31.6406 7.03125 33.9844 14.6484 33.9844 28.7109C33.9844 30.0054 32.935 31.0547 31.6406 31.0547L24.6094 31.0547C23.315 31.0547 22.2656 30.0054 22.2656 28.7109L22.2656 14.6484 24.6094 7.03125 24.6094 1.75781" stroke="#66737C" stroke-width="3.33333" stroke-linecap="round" stroke-linejoin="round" fill="none"/><path d="M53.9062 1.75781 43.3594 1.75781" stroke="#66737C" stroke-width="3.33333" stroke-linecap="round" stroke-linejoin="round" fill="none"/><path d="M22.9875 12.3047 33.2625 12.3047" stroke="#66737C" stroke-width="3.33333" stroke-linecap="round" stroke-linejoin="round" fill="none"/><path d="M54.4922 28.7109C54.4922 30.0054 53.4429 31.0547 52.1484 31.0547L45.1172 31.0547C43.8228 31.0547 42.7734 30.0054 42.7734 28.7109L42.7734 14.6484 45.1172 7.03125 45.1172 1.75781 52.1484 1.75781 52.1484 7.03125 54.4922 14.6484Z" stroke="#66737C" stroke-width="3.33333" stroke-linecap="round" stroke-linejoin="round" fill="none"/><path d="M43.4953 12.3047 53.7703 12.3047" stroke="#66737C" stroke-width="3.33333" stroke-linecap="round" stroke-linejoin="round" fill="none"/><path d="M26.9531 48.6328 29.2969 46.2891 26.9531 43.9453" stroke="#66737C" stroke-width="3.33333" stroke-linecap="round" stroke-linejoin="round" fill="none"/><path d="M42.1875 48.6328 44.5312 46.2891 42.1875 43.9453" stroke="#66737C" stroke-width="3.33333" stroke-linecap="round" stroke-linejoin="round" fill="none"/><path d="M46.2891 38.0859 9.96094 38.0859C5.43048 38.0859 1.75781 41.7586 1.75781 46.2891 1.75781 50.8195 5.43048 54.4922 9.96094 54.4922L46.2891 54.4922C50.8195 54.4922 54.4922 50.8195 54.4922 46.2891 54.4922 41.7586 50.8195 38.0859 46.2891 38.0859Z" stroke="#66737C" stroke-width="3.33333" stroke-linecap="round" stroke-linejoin="round" fill="none"/><path d="M11.7188 48.6328 14.0625 46.2891 11.7188 43.9453" stroke="#66737C" stroke-width="3.33333" stroke-linecap="round" stroke-linejoin="round" fill="none"/></svg>