<svg width="60" height="60" viewBox="-1.875 -1.875 60 60" xmlns="http://www.w3.org/2000/svg" xmlns:xlink="http://www.w3.org/1999/xlink" id="Factory-Industrial-Robot-Assembly-Line-2--Streamline-Ultimate" overflow="hidden"><defs></defs><path d="M54.4922 48.6328C54.4922 51.8689 51.8689 54.4922 48.6328 54.4922L7.61719 54.4922C4.38114 54.4922 1.75781 51.8689 1.75781 48.6328 1.75781 45.3968 4.38114 42.7734 7.61719 42.7734L48.6328 42.7734C51.8689 42.7734 54.4922 45.3968 54.4922 48.6328Z" stroke="#66737C" stroke-width="3.33333" stroke-linecap="round" stroke-linejoin="round" fill="none"/><path d="M9.375 33.3984 18.6609 33.3984C19.9554 33.3984 21.0047 34.4478 21.0047 35.7422L21.0047 42.7734 21.0047 42.7734 7.03125 42.7734 7.03125 42.7734 7.03125 35.7422C7.03125 34.4478 8.08058 33.3984 9.375 33.3984Z" stroke="#66737C" stroke-width="3.33333" stroke-linecap="round" stroke-linejoin="round" fill="none"/><path d="M31.8234 33.3984 41.1094 33.3984C42.4038 33.3984 43.4531 34.4478 43.4531 35.7422L43.4531 42.7734 43.4531 42.7734 29.4797 42.7734 29.4797 42.7734 29.4797 35.7422C29.4797 34.4478 30.529 33.3984 31.8234 33.3984Z" stroke="#66737C" stroke-width="3.33333" stroke-linecap="round" stroke-linejoin="round" fill="none"/><path d="M41.0156 15.8203C41.0156 17.7619 42.5896 19.3359 44.5312 19.3359 46.4729 19.3359 48.0469 17.7619 48.0469 15.8203 48.0469 13.8787 46.4729 12.3047 44.5312 12.3047 42.5896 12.3047 41.0156 13.8787 41.0156 15.8203" stroke="#66737C" stroke-width="3.33333" stroke-linecap="round" stroke-linejoin="round" fill="none"/><path d="M38.0859 1.75781 44.5312 12.3047" stroke="#66737C" stroke-width="3.33333" stroke-linecap="round" stroke-linejoin="round" fill="none"/><path d="M19.9219 15.8203 41.0156 15.8203" stroke="#66737C" stroke-width="3.33333" stroke-linecap="round" stroke-linejoin="round" fill="none"/><path d="M12.8906 15.8203C12.8906 17.7619 14.4646 19.3359 16.4062 19.3359 18.3479 19.3359 19.9219 17.7619 19.9219 15.8203 19.9219 13.8787 18.3479 12.3047 16.4062 12.3047 14.4646 12.3047 12.8906 13.8787 12.8906 15.8203" stroke="#66737C" stroke-width="3.33333" stroke-linecap="round" stroke-linejoin="round" fill="none"/><path d="M16.4062 19.3359 16.4062 25.1953" stroke="#66737C" stroke-width="3.33333" stroke-linecap="round" stroke-linejoin="round" fill="none"/><path d="M9.96094 48.6328 11.1328 48.6328" stroke="#66737C" stroke-width="3.33333" stroke-linecap="round" stroke-linejoin="round" fill="none"/><path d="M21.6797 48.6328 22.8516 48.6328" stroke="#66737C" stroke-width="3.33333" stroke-linecap="round" stroke-linejoin="round" fill="none"/><path d="M33.3984 48.6328 34.5703 48.6328" stroke="#66737C" stroke-width="3.33333" stroke-linecap="round" stroke-linejoin="round" fill="none"/><path d="M45.1172 48.6328 46.2891 48.6328" stroke="#66737C" stroke-width="3.33333" stroke-linecap="round" stroke-linejoin="round" fill="none"/></svg>