<svg width="60" height="60" viewBox="-1.875 -1.875 60 60" xmlns="http://www.w3.org/2000/svg" xmlns:xlink="http://www.w3.org/1999/xlink" id="Factory-Manufacturing-Line-Package-Right-1--Streamline-Ultimate" overflow="hidden"><defs></defs><path d="M54.4922 46.4766C54.4922 49.7126 51.8689 52.3359 48.6328 52.3359L7.61719 52.3359C4.38114 52.3359 1.75781 49.7126 1.75781 46.4766 1.75781 43.2405 4.38114 40.6172 7.61719 40.6172L48.6328 40.6172C51.8689 40.6172 54.4922 43.2405 54.4922 46.4766Z" stroke="#66737C" stroke-width="3.33333" stroke-linecap="round" stroke-linejoin="round" fill="none"/><path d="M9.96094 46.4766 11.1328 46.4766" stroke="#66737C" stroke-width="3.33333" stroke-linecap="round" stroke-linejoin="round" fill="none"/><path d="M21.6797 46.4766 22.8516 46.4766" stroke="#66737C" stroke-width="3.33333" stroke-linecap="round" stroke-linejoin="round" fill="none"/><path d="M33.3984 46.4766 34.5703 46.4766" stroke="#66737C" stroke-width="3.33333" stroke-linecap="round" stroke-linejoin="round" fill="none"/><path d="M45.1172 46.4766 46.2891 46.4766" stroke="#66737C" stroke-width="3.33333" stroke-linecap="round" stroke-linejoin="round" fill="none"/><path d="M11.1328 26.1773 25.1953 26.1773C26.4897 26.1773 27.5391 27.2267 27.5391 28.5211L27.5391 40.6172 27.5391 40.6172 8.78906 40.6172 8.78906 40.6172 8.78906 28.5211C8.78906 27.2267 9.8384 26.1773 11.1328 26.1773Z" stroke="#66737C" stroke-width="3.33333" stroke-linecap="round" stroke-linejoin="round" fill="none"/><path d="M53.9156 15.4219 15.8297 15.4219" stroke="#66737C" stroke-width="3.33333" stroke-linecap="round" stroke-linejoin="round" fill="none"/><path d="M40.6477 3.91406 53.9156 15.4219 40.6477 26.932" stroke="#66737C" stroke-width="3.33333" stroke-linecap="round" stroke-linejoin="round" fill="none"/><path d="M18.1641 26.1773 18.1641 32.5055" stroke="#66737C" stroke-width="3.33333" stroke-linecap="round" stroke-linejoin="round" fill="none"/></svg>