<svg width="60" height="60" viewBox="-1.875 -1.875 60 60" xmlns="http://www.w3.org/2000/svg" xmlns:xlink="http://www.w3.org/1999/xlink" id="Farming-Barn-Silo--Streamline-Ultimate" fill="none" overflow="hidden"><path d="M25.1227 12.1875C23.9018 9.68873 21.8707 7.67712 19.3602 6.48052 16.8497 5.28389 14.008 4.97285 11.2981 5.59807 8.58823 6.22327 6.16999 7.74788 4.43754 9.92339 2.70506 12.0989 1.76051 14.7971 1.75781 17.5781L1.75781 54.4922 8.78906 54.4922" stroke="#66737C" stroke-width="3.33333" stroke-linecap="round" stroke-linejoin="round"/><path d="M1.75781 29.8828 8.78906 29.8828" stroke="#66737C" stroke-width="3.33333" stroke-linecap="round" stroke-linejoin="round"/><path d="M1.75781 19.3359 21.0938 19.3359" stroke="#66737C" stroke-width="3.33333" stroke-linecap="round" stroke-linejoin="round"/><path d="M50.9766 35.1562 50.9766 54.4922 15.8203 54.4922 15.8203 35.1562" stroke="#66737C" stroke-width="3.33333" stroke-linecap="round" stroke-linejoin="round"/><path d="M12.3047 38.6719 30.9117 20.0648C31.2382 19.7381 31.6259 19.479 32.0527 19.3022 32.4792 19.1254 32.9365 19.0343 33.3984 19.0343 33.8604 19.0343 34.3177 19.1254 34.7442 19.3022 35.171 19.479 35.5587 19.7381 35.8852 20.0648L54.4922 38.6719" stroke="#66737C" stroke-width="3.33333" stroke-linecap="round" stroke-linejoin="round"/><path d="M33.3984 30.7617C32.913 30.7617 32.5195 30.3682 32.5195 29.8828 32.5195 29.3974 32.913 29.0039 33.3984 29.0039" stroke="#66737C" stroke-width="3.33333"/><path d="M33.3984 30.7617C33.8838 30.7617 34.2773 30.3682 34.2773 29.8828 34.2773 29.3974 33.8838 29.0039 33.3984 29.0039" stroke="#66737C" stroke-width="3.33333"/><path d="M40.4297 40.4297 26.3672 40.4297C25.4348 40.4297 24.5405 40.8 23.8812 41.4593 23.222 42.1186 22.8516 43.013 22.8516 43.9453L22.8516 54.4922 43.9453 54.4922 43.9453 43.9453C43.9453 43.013 43.575 42.1186 42.9157 41.4593 42.2564 40.8 41.362 40.4297 40.4297 40.4297Z" stroke="#66737C" stroke-width="3.33333" stroke-linecap="round" stroke-linejoin="round"/></svg>