<svg width="60" height="60" viewBox="-2.14 -2.14 60 60" xmlns="http://www.w3.org/2000/svg" xmlns:xlink="http://www.w3.org/1999/xlink" id="Fast-Food-Burger--Streamline-Ultimate.svg" fill="none" overflow="hidden"><path d="M48.755 26.1211 6.965 26.1211C4.08 26.1211 1.74125 28.4599 1.74125 31.3448 1.74125 34.2297 4.08 36.5686 6.965 36.5686L48.755 36.5686C51.6399 36.5686 53.9787 34.2297 53.9787 31.3448 53.9787 28.4599 51.6399 26.1211 48.755 26.1211Z" stroke="#66737C" stroke-width="3.57143" stroke-linecap="round" stroke-linejoin="round"/><path d="M14.8006 18.2855C14.3198 18.2855 13.93 17.8957 13.93 17.4148 13.93 16.934 14.3198 16.5442 14.8006 16.5442" stroke="#66737C" stroke-width="3.57143"/><path d="M14.8006 18.2855C15.2815 18.2855 15.6713 17.8957 15.6713 17.4148 15.6713 16.934 15.2815 16.5442 14.8006 16.5442" stroke="#66737C" stroke-width="3.57143"/><path d="M24.1453 20.8973C23.6645 20.8973 23.2747 20.5075 23.2747 20.0267 23.2747 19.5459 23.6645 19.1561 24.1453 19.1561" stroke="#66737C" stroke-width="3.57143"/><path d="M24.1453 20.8973C24.6262 20.8973 25.016 20.5075 25.016 20.0267 25.016 19.5459 24.6262 19.1561 24.1453 19.1561" stroke="#66737C" stroke-width="3.57143"/><path d="M32.8562 17.4148C32.3754 17.4148 31.9856 17.025 31.9856 16.5442 31.9856 16.0634 32.3754 15.6736 32.8562 15.6736" stroke="#66737C" stroke-width="3.57143"/><path d="M32.8562 17.4148C33.337 17.4148 33.7269 17.025 33.7269 16.5442 33.7269 16.0634 33.337 15.6736 32.8562 15.6736" stroke="#66737C" stroke-width="3.57143"/><g><path d="M40.9194 20.8973C40.4386 20.8973 40.0488 20.5075 40.0488 20.0267 40.0488 19.5459 40.4386 19.1561 40.9194 19.1561" stroke="#66737C" stroke-width="3.57143"/><path d="M40.9194 20.8973C41.4002 20.8973 41.79 20.5075 41.79 20.0267 41.79 19.5459 41.4002 19.1561 40.9194 19.1561" stroke="#66737C" stroke-width="3.57143"/></g><path d="M50.4963 26.4206 50.4963 23.0774C50.4963 21.1902 50.1245 19.3216 49.4023 17.5782 48.68 15.8347 47.6213 14.2506 46.2868 12.9163 44.9523 11.582 43.368 10.5237 41.6245 9.80168 39.8809 9.07971 38.0122 8.70829 36.1251 8.7086L19.5949 8.7086C17.7077 8.70829 15.839 9.07971 14.0955 9.80168 12.3519 10.5237 10.7676 11.582 9.43309 12.9163 8.09858 14.2506 7.03997 15.8347 6.31774 17.5782 5.5955 19.3216 5.22375 21.1902 5.22375 23.0774L5.22375 26.4206" stroke="#66737C" stroke-width="3.57143" stroke-linecap="round" stroke-linejoin="round"/><path d="M50.4963 36.2714 50.4963 40.0511C50.4963 41.8982 49.7624 43.6699 48.4562 44.976 47.15 46.2822 45.3784 47.0161 43.5312 47.0161L12.1888 47.0161C10.3415 47.0161 8.56995 46.2822 7.26375 44.976 5.95756 43.6699 5.22375 41.8982 5.22375 40.0511L5.22375 36.2714" stroke="#66737C" stroke-width="3.57143" stroke-linecap="round" stroke-linejoin="round"/></svg>