<svg width="60" height="60" viewBox="-2.14 -2.14 60 60" xmlns="http://www.w3.org/2000/svg" xmlns:xlink="http://www.w3.org/1999/xlink" id="Fast-Food-Pizza-Slice--Streamline-Ultimate.svg" overflow="hidden"><defs></defs><path d="M51.736 15.6643C44.0971 8.87098 34.2122 5.14891 23.9898 5.21678 21.3189 5.21678 19.1537 7.38194 19.1537 10.0528 19.1537 10.0559 19.1537 10.059 19.1537 10.0621 19.1013 12.6511 21.135 14.8036 23.7228 14.8981 26.1814 14.8981 38.2936 16.4722 45.3468 22.7338" stroke="#66737C" stroke-width="3.57143" stroke-linecap="round" stroke-linejoin="round" fill="none"/><path d="M21.5033 14.2759 1.74125 43.919 47.1925 24.1569" stroke="#66737C" stroke-width="3.57143" stroke-linecap="round" stroke-linejoin="round" fill="none"/><path d="M1.74125 43.919 3.4825 50.4986 53.9787 29.6036 53.9787 19.7342C53.9794 17.062 51.8138 14.8953 49.1416 14.8946 46.4695 14.8939 44.3027 17.0596 44.302 19.7317 44.3016 21.6529 45.4378 23.3923 47.1972 24.1639" stroke="#66737C" stroke-width="3.57143" stroke-linecap="round" stroke-linejoin="round" fill="none"/><path d="M28.8281 22.6386 23.024 24.5725" stroke="#66737C" stroke-width="3.57143" stroke-linecap="round" stroke-linejoin="round" fill="none"/><path d="M17.2198 32.3106 17.2198 36.1809" stroke="#66737C" stroke-width="3.57143" stroke-linecap="round" stroke-linejoin="round" fill="none"/></svg>