<svg width="60" height="60" viewBox="-2.14 -2.14 60 60" xmlns="http://www.w3.org/2000/svg" xmlns:xlink="http://www.w3.org/1999/xlink" id="Fast-Food-Burger-Drink--Streamline-Ultimate.svg" overflow="hidden"><defs></defs><path d="M15.6713 53.9811 6.965 53.9811 1.74125 15.6736 31.3425 15.6736 30.4928 21.9026" stroke="#66737C" stroke-width="3.57143" stroke-linecap="round" stroke-linejoin="round" fill="none"/><path d="M13.93 40.0511 19.1537 1.74357 29.6012 3.48482" stroke="#66737C" stroke-width="3.57143" stroke-linecap="round" stroke-linejoin="round" fill="none"/><path d="M26.1187 47.0161 50.4963 47.0161 50.4963 50.4986C50.4963 52.4219 48.9371 53.9811 47.0138 53.9811L29.6012 53.9811C27.6779 53.9811 26.1187 52.4219 26.1187 50.4986Z" stroke="#66737C" stroke-width="3.57143" stroke-linecap="round" stroke-linejoin="round" fill="none"/><path d="M33.0838 29.6036 43.5312 29.6036C47.3779 29.6036 50.4963 32.7219 50.4963 36.5686L50.4963 40.0511 26.1187 40.0511 26.1187 36.5686C26.1187 32.7219 29.2371 29.6036 33.0837 29.6036Z" stroke="#66737C" stroke-width="3.57143" stroke-linecap="round" stroke-linejoin="round" fill="none"/><path d="M26.1187 40.0511 50.4963 40.0511C50.4963 40.0511 53.9787 40.0511 53.9787 43.5336L53.9787 43.5336C53.9787 43.5336 53.9787 47.0161 50.4963 47.0161L26.1187 47.0161C26.1187 47.0161 22.6362 47.0161 22.6362 43.5336L22.6362 43.5336C22.6362 43.5336 22.6362 40.0511 26.1187 40.0511" stroke="#66737C" stroke-width="3.57143" stroke-linecap="round" stroke-linejoin="round" fill="none"/></svg>