<svg width="60" height="60" viewBox="-2.14 -2.14 60 60" xmlns="http://www.w3.org/2000/svg" xmlns:xlink="http://www.w3.org/1999/xlink" id="Fast-Food-Pizza--Streamline-Ultimate.svg" fill="none" overflow="hidden"><path d="M33.966 20.895 51.3785 12.1888C50.2385 9.33702 48.3357 6.85389 45.8789 5.01118 43.4219 3.16847 40.5054 2.03722 37.4485 1.74125L33.966 20.895Z" stroke="#66737C" stroke-width="3.57143" stroke-linecap="round" stroke-linejoin="round"/><path d="M46.4333 14.6265C44.1372 11.0132 40.508 8.45187 36.3341 7.49901" stroke="#66737C" stroke-width="3.57143" stroke-linecap="round" stroke-linejoin="round"/><g><path d="M27.001 31.2034 28.4636 10.1458C28.4762 9.94495 28.4478 9.74362 28.3803 9.55405 28.313 9.36447 28.2076 9.1906 28.0708 9.04296 27.9338 8.89535 27.7685 8.77704 27.5847 8.69522 27.4008 8.61343 27.2023 8.56983 27.001 8.56707 22.158 8.55158 17.4368 10.085 13.5272 12.9434 9.61764 15.8018 6.72443 19.8355 5.27023 24.455 3.81601 29.0747 3.877 34.0382 5.44426 38.6207 7.01155 43.2032 10.003 47.1644 13.9816 49.926 17.9603 52.6874 22.7177 54.1046 27.5589 53.9699 32.4 53.8355 37.0714 52.1567 40.8906 49.1785 44.71 46.2005 47.4769 42.079 48.7873 37.4167 50.0976 32.7543 49.8831 27.795 48.1746 23.2633 48.088 23.0454 47.9589 22.847 47.7945 22.6797 47.6304 22.5123 47.4344 22.3794 47.2183 22.2886 47.0021 22.1978 46.7702 22.151 46.5357 22.1509 46.3012 22.1508 46.0691 22.1975 45.8529 22.2881L27.001 31.2034Z" stroke="#66737C" stroke-width="3.57143" stroke-linecap="round" stroke-linejoin="round"/><path d="M41.1632 24.4938C42.1392 26.597 42.6537 28.8848 42.6722 31.2034 42.6743 34.3488 41.7296 37.422 39.9615 40.0234 38.193 42.6246 35.6829 44.6338 32.7573 45.7891 29.8318 46.9446 26.6263 47.1927 23.5577 46.5016 20.4892 45.8104 17.6996 44.212 15.5518 41.914 13.404 39.616 11.9975 36.7248 11.5151 33.6166 11.0328 30.5083 11.4969 27.3269 12.8472 24.4862 14.1974 21.6452 16.3713 19.2764 19.0861 17.6878 21.8008 16.0991 24.9308 15.3642 28.069 15.5785" stroke="#66737C" stroke-width="3.57143" stroke-linecap="round" stroke-linejoin="round"/><path d="M21.0261 36.4156C20.5452 36.4156 20.1555 36.0258 20.1555 35.5449 20.1555 35.0641 20.5452 34.6743 21.0261 34.6743" stroke="#66737C" stroke-width="3.57143"/><path d="M21.0261 36.4156C21.5069 36.4156 21.8967 36.0258 21.8967 35.5449 21.8967 35.0641 21.5069 34.6743 21.0261 34.6743" stroke="#66737C" stroke-width="3.57143"/><path d="M21.0261 27.7093C20.5452 27.7093 20.1555 27.3195 20.1555 26.8387 20.1555 26.3579 20.5452 25.9681 21.0261 25.9681" stroke="#66737C" stroke-width="3.57143"/><path d="M21.0261 27.7093C21.5069 27.7093 21.8967 27.3195 21.8967 26.8387 21.8967 26.3579 21.5069 25.9681 21.0261 25.9681" stroke="#66737C" stroke-width="3.57143"/><g><path d="M33.2381 38.18C32.7573 38.18 32.3675 37.7902 32.3675 37.3094 32.3675 36.8286 32.7573 36.4388 33.2381 36.4388" stroke="#66737C" stroke-width="3.57143"/><path d="M33.2381 38.18C33.719 38.18 34.1088 37.7902 34.1088 37.3094 34.1088 36.8286 33.719 36.4388 33.2381 36.4388" stroke="#66737C" stroke-width="3.57143"/></g></g></svg>