<svg width="60" height="60" viewBox="-1.875 -1.875 60 60" xmlns="http://www.w3.org/2000/svg" xmlns:xlink="http://www.w3.org/1999/xlink" id="File-Iso--Streamline-Ultimate" overflow="hidden"><path d="M19.3148 54.5016 5.25234 54.5016C3.31072 54.5016 1.73672 52.9276 1.73672 50.9859L1.73672 5.28281C1.73672 3.34119 3.31072 1.76719 5.25234 1.76719L30.1641 1.76719C31.0958 1.76739 31.9894 2.13746 32.6484 2.79609L46.4062 16.5562C47.0655 17.2159 47.4356 18.1104 47.4352 19.043L47.4352 29.8922" stroke="#66737C" stroke-width="3.33333" stroke-linecap="round" stroke-linejoin="round" fill="none"/><path d="M47.4398 19.3453 33.3773 19.3453C31.4357 19.3453 29.8617 17.7713 29.8617 15.8297L29.8617 1.76719" stroke="#66737C" stroke-width="3.33333" stroke-linecap="round" stroke-linejoin="round" fill="none"/><path d="M26.3461 54.5016 26.3461 36.9234" stroke="#66737C" stroke-width="3.33333" stroke-linecap="round" stroke-linejoin="round" fill="none"/><path d="M40.4086 36.9234 36.893 36.9234C34.9513 36.9234 33.3773 38.4974 33.3773 40.4391 33.3773 45.7125 40.4086 45.7125 40.4086 50.9859 40.4086 52.9276 38.8346 54.5016 36.893 54.5016L33.3773 54.5016" stroke="#66737C" stroke-width="3.33333" stroke-linecap="round" stroke-linejoin="round" fill="none"/><path d="M50.9555 36.9234C49.0138 36.9234 47.4398 38.4974 47.4398 40.4391L47.4398 50.9859C47.4398 52.9276 49.0138 54.5016 50.9555 54.5016 52.8971 54.5016 54.4711 52.9276 54.4711 50.9859L54.4711 40.4391C54.4711 38.4974 52.8971 36.9234 50.9555 36.9234Z" stroke="#66737C" stroke-width="3.33333" stroke-linecap="round" stroke-linejoin="round" fill="none"/></svg>