<svg width="44.8" height="44.8" viewBox="-1.6 -1.6 44.8 44.8" xmlns="http://www.w3.org/2000/svg" xmlns:xlink="http://www.w3.org/1999/xlink" id="File-Dollar--Streamline-Core" fill="none" overflow="hidden"><g id="file-dollar--common-money-currency-cash-file"><path d="M24.9143 2.97143 5.71429 2.97143C4.98683 2.97143 4.28917 3.2604 3.77478 3.77478 3.2604 4.28917 2.97143 4.98683 2.97143 5.71429L2.97143 35.8856C2.97143 36.6131 3.2604 37.3107 3.77478 37.8251 4.28917 38.3395 4.98683 38.6286 5.71429 38.6286L35.8856 38.6286C36.6131 38.6286 37.3107 38.3395 37.8251 37.8251 38.3395 37.3107 38.6286 36.6131 38.6286 35.8856L38.6286 16.6857 24.9143 2.97143Z" id="Vector" stroke="#66737C" stroke-width="2.67857" stroke-linecap="round" stroke-linejoin="round"/><path d="M24.9144 15.3143 24.9144 2.97143 38.6286 16.6857 26.2858 16.6857C25.9221 16.6857 25.5732 16.5412 25.316 16.284 25.0589 16.0268 24.9144 15.678 24.9144 15.3143Z" id="Vector_2" stroke="#66737C" stroke-width="2.67857" stroke-linecap="round" stroke-linejoin="round"/><path d="M24.9144 28.2286 32.3428 28.2286" id="Vector_3" stroke="#66737C" stroke-width="2.67857" stroke-linecap="round" stroke-linejoin="round"/><path d="M18.4258 16.1779C18.2736 15.7473 18.0388 15.3557 17.7403 15.0223 17.1056 14.3131 16.1831 13.8667 15.1564 13.8667L12.473 13.8667C10.764 13.8667 9.37857 15.2522 9.37857 16.9612 9.37857 18.4154 10.3911 19.6734 11.8118 19.9842L15.8972 20.8779C17.4887 21.226 18.6231 22.6364 18.6231 24.2655 18.6231 26.1801 17.071 27.7335 15.1564 27.7335L12.8452 27.7335C11.3359 27.7335 10.0517 26.7688 9.57584 25.4224" id="Vector 3" stroke="#66737C" stroke-width="2.67857" stroke-linecap="round" stroke-linejoin="round"/><path d="M14.0007 13.8668 14.0007 10.4" id="Vector 2489" stroke="#66737C" stroke-width="2.67857" stroke-linecap="round" stroke-linejoin="round"/><path d="M14.0007 31.2 14.0007 27.7333" id="Vector 2490" stroke="#66737C" stroke-width="2.67857" stroke-linecap="round" stroke-linejoin="round"/></g></svg>