<svg width="60" height="60" viewBox="-1.875 -1.875 60 60" xmlns="http://www.w3.org/2000/svg" xmlns:xlink="http://www.w3.org/1999/xlink" id="File-Code-Warning--Streamline-Ultimate" fill="none" overflow="hidden"><path d="M40.3992 49.2188C39.9138 49.2188 39.5203 48.8252 39.5203 48.3398 39.5203 47.8545 39.9138 47.4609 40.3992 47.4609" stroke="#66737C" stroke-width="3.33333"/><path d="M40.3992 49.2188C40.8846 49.2188 41.2781 48.8252 41.2781 48.3398 41.2781 47.8545 40.8846 47.4609 40.3992 47.4609" stroke="#66737C" stroke-width="3.33333"/><path d="M40.3992 42.1875 40.3992 35.1562" stroke="#66737C" stroke-width="3.33333" stroke-linecap="round" stroke-linejoin="round"/><path d="M54.0211 48.4739C54.3382 49.1079 54.4882 49.8122 54.4566 50.5202 54.4249 51.2283 54.213 51.9166 53.8404 52.5197 53.468 53.1227 52.9477 53.6205 52.3287 53.9658 51.7097 54.3112 51.0127 54.4924 50.3039 54.4927L30.4945 54.4927C29.7858 54.4922 29.0888 54.3108 28.47 53.9655 27.851 53.6201 27.3305 53.1225 26.958 52.5195 26.5854 51.9166 26.373 51.2285 26.3409 50.5205 26.3088 49.8124 26.4584 49.1081 26.775 48.4739L36.6797 28.6645C37.0252 27.9743 37.5558 27.3935 38.2125 26.9878 38.8692 26.5821 39.626 26.3672 40.398 26.3672 41.1701 26.3672 41.9266 26.5821 42.5834 26.9878 43.2401 27.3935 43.7709 27.9743 44.1164 28.6645L54.0211 48.4739Z" stroke="#66737C" stroke-width="3.33333" stroke-linecap="round" stroke-linejoin="round"/><g><path d="M19.3359 47.4701 5.27344 47.4701C4.34105 47.4701 3.44681 47.0998 2.78752 46.4405 2.12821 45.7812 1.75781 44.8868 1.75781 43.9545L1.75781 5.2826C1.75781 4.35019 2.12821 3.45598 2.78752 2.79668 3.44681 2.13736 4.34105 1.76697 5.27344 1.76697L30.1828 1.76697C30.6445 1.76676 31.1018 1.85752 31.5286 2.03406 31.9552 2.2106 32.3428 2.46947 32.6695 2.79588L39.4055 9.52479C39.7322 9.8512 39.9916 10.2388 40.1686 10.6655 40.3455 11.0922 40.4367 11.5496 40.4367 12.0115L40.4367 19.3451" stroke="#66737C" stroke-width="3.33333" stroke-linecap="round" stroke-linejoin="round"/><path d="M21.0938 12.3139 17.5781 12.3139C16.6073 12.3139 15.8203 13.1008 15.8203 14.0717L15.8203 21.1029C15.8203 22.0737 16.6073 22.8607 17.5781 22.8607L21.0938 22.8607C22.0646 22.8607 22.8516 22.0737 22.8516 21.1029L22.8516 14.0717C22.8516 13.1008 22.0646 12.3139 21.0938 12.3139Z" stroke="#66737C" stroke-width="3.33333" stroke-linecap="round" stroke-linejoin="round"/><path d="M8.78906 12.3139 8.78906 22.8607" stroke="#66737C" stroke-width="3.33333" stroke-linecap="round" stroke-linejoin="round"/><path d="M29.8828 12.3139 29.8828 22.8607" stroke="#66737C" stroke-width="3.33333" stroke-linecap="round" stroke-linejoin="round"/><path d="M14.0625 29.892 10.5469 29.892C9.57607 29.892 8.78906 30.679 8.78906 31.6498L8.78906 38.681C8.78906 39.6518 9.57607 40.4388 10.5469 40.4388L14.0625 40.4388C15.0333 40.4388 15.8203 39.6518 15.8203 38.681L15.8203 31.6498C15.8203 30.679 15.0333 29.892 14.0625 29.892Z" stroke="#66737C" stroke-width="3.33333" stroke-linecap="round" stroke-linejoin="round"/></g></svg>