<svg width="60" height="60" viewBox="-1.875 -1.875 60 60" xmlns="http://www.w3.org/2000/svg" xmlns:xlink="http://www.w3.org/1999/xlink" id="File-Code-Edit--Streamline-Ultimate" overflow="hidden"><defs></defs><path d="M53.0109 33.1008 35.1258 50.9859 26.3367 52.7438 28.0945 43.9547 45.9797 26.0695C47.9155 24.1338 51.054 24.1338 52.9898 26.0695L53.0109 26.0906C54.9467 28.0265 54.9467 31.165 53.0109 33.1008Z" stroke="#66737C" stroke-width="3.33333" stroke-linecap="round" stroke-linejoin="round" fill="none"/><path d="M19.3078 47.4703 5.24531 47.4703C3.30369 47.4703 1.72969 45.8963 1.72969 43.9547L1.72969 5.28281C1.72969 3.34119 3.30369 1.76719 5.24531 1.76719L30.1547 1.76719C31.0873 1.76676 31.9818 2.13688 32.6414 2.79609L39.375 9.525C40.0351 10.1842 40.4061 11.0788 40.4062 12.0117L40.4062 19.3453" stroke="#66737C" stroke-width="3.33333" stroke-linecap="round" stroke-linejoin="round" fill="none"/><path d="M17.55 12.3141 21.0656 12.3141C21.0656 12.3141 22.8234 12.3141 22.8234 14.0719L22.8234 21.1031C22.8234 21.1031 22.8234 22.8609 21.0656 22.8609L17.55 22.8609C17.55 22.8609 15.7922 22.8609 15.7922 21.1031L15.7922 14.0719C15.7922 14.0719 15.7922 12.3141 17.55 12.3141" stroke="#66737C" stroke-width="3.33333" stroke-linecap="round" stroke-linejoin="round" fill="none"/><path d="M8.76094 12.3141 8.76094 22.8609" stroke="#66737C" stroke-width="3.33333" stroke-linecap="round" stroke-linejoin="round" fill="none"/><path d="M29.8547 12.3141 29.8547 22.8609" stroke="#66737C" stroke-width="3.33333" stroke-linecap="round" stroke-linejoin="round" fill="none"/><path d="M10.5188 29.8922 14.0344 29.8922C14.0344 29.8922 15.7922 29.8922 15.7922 31.65L15.7922 38.6813C15.7922 38.6813 15.7922 40.4391 14.0344 40.4391L10.5188 40.4391C10.5188 40.4391 8.76094 40.4391 8.76094 38.6813L8.76094 31.65C8.76094 31.65 8.76094 29.8922 10.5188 29.8922" stroke="#66737C" stroke-width="3.33333" stroke-linecap="round" stroke-linejoin="round" fill="none"/><path d="M22.8234 30.2203 22.8234 40.7672" stroke="#66737C" stroke-width="3.33333" stroke-linecap="round" stroke-linejoin="round" fill="none"/></svg>