<svg width="60" height="60" viewBox="-1.875 -1.875 60 60" xmlns="http://www.w3.org/2000/svg" xmlns:xlink="http://www.w3.org/1999/xlink" id="Filter-1--Streamline-Ultimate" overflow="hidden"><path d="M54.375 4.81406C54.4384 3.84403 53.7035 3.00624 52.7334 2.94281 52.6963 2.94038 52.6591 2.93913 52.6219 2.93906L3.51562 2.93906C2.54481 2.93949 1.75816 3.72684 1.75859 4.69765 1.75861 4.73649 1.75991 4.77531 1.7625 4.81406 2.60962 16.6096 11.2041 26.3996 22.7906 28.7672L22.7906 51.9117C22.791 52.8825 23.5783 53.6692 24.5491 53.6689 24.9599 53.6687 25.3578 53.5247 25.6734 53.2617L32.7047 47.4023C33.106 47.0689 33.338 46.5741 33.3375 46.0523L33.3375 28.7672C44.9281 26.404 53.5276 16.6127 54.375 4.81406Z" stroke="#66737C" stroke-width="3.33333" stroke-linecap="round" stroke-linejoin="round" fill="none"/></svg>