<svg width="60" height="60" viewBox="-2.14 -2.14 60 60" xmlns="http://www.w3.org/2000/svg" xmlns:xlink="http://www.w3.org/1999/xlink" id="Filter--Streamline-Ultimate.svg" overflow="hidden"><path d="M5.80417 9.28899C5.80417 13.7768 15.6789 17.4148 27.86 17.4148 40.0411 17.4148 49.9158 13.7768 49.9158 9.28899 49.9158 4.80121 40.0411 1.16315 27.86 1.16315 15.6789 1.16315 5.80417 4.80121 5.80417 9.28899Z" stroke="#66737C" stroke-width="3.57143" stroke-linecap="round" stroke-linejoin="round" fill="none"/><path d="M5.80417 9.28667 5.80417 15.0908C5.96329 18.0309 7.12239 20.8283 9.08932 23.0193L24.3775 38.3075" stroke="#66737C" stroke-width="3.57143" stroke-linecap="round" stroke-linejoin="round" fill="none"/><path d="M49.9158 9.28667 49.9158 15.0908C49.757 18.0299 48.5988 20.8264 46.633 23.017L31.3425 38.3075" stroke="#66737C" stroke-width="3.57143" stroke-linecap="round" stroke-linejoin="round" fill="none"/><path d="M31.3425 38.3075 31.3425 52.2375C31.3425 53.5197 30.3031 54.5592 29.0208 54.5592L26.6992 54.5592C25.4169 54.5592 24.3775 53.5197 24.3775 52.2375L24.3775 38.3075" stroke="#66737C" stroke-width="3.57143" stroke-linecap="round" stroke-linejoin="round" fill="none"/><path d="M31.3425 43.1993C37.2917 46.9861 45.1844 45.2331 48.9713 39.2839 52.3245 34.0158 51.3757 27.0953 46.7282 22.9241" stroke="#66737C" stroke-width="3.57143" stroke-linecap="round" stroke-linejoin="round" fill="none"/></svg>