<svg width="60" height="60" viewBox="-2.14 -2.14 60 60" xmlns="http://www.w3.org/2000/svg" xmlns:xlink="http://www.w3.org/1999/xlink" id="Flower-Pot--Streamline-Ultimate.svg" overflow="hidden"><path d="M43.5312 14.2782C43.5443 10.8342 40.7629 8.03173 37.3189 8.01869 36.1603 8.0143 35.0234 8.33278 34.0356 8.93842 34.0907 8.63175 34.1218 8.32125 34.1285 8.00975 34.1285 4.54775 31.322 1.74125 27.86 1.74125 24.398 1.74125 21.5915 4.54775 21.5915 8.00975 21.5982 8.32125 21.6293 8.63175 21.6844 8.93842 18.7263 7.15452 14.8822 8.10634 13.0984 11.0644 11.3145 14.0224 12.2663 17.8665 15.2243 19.6504 16.1507 20.2091 17.2063 20.5179 18.2878 20.5467 15.6599 22.7828 15.3423 26.7258 17.5784 29.3537 19.8145 31.9815 23.7575 32.2991 26.3853 30.063 26.9891 29.5493 27.4895 28.9254 27.86 28.2245 29.4889 31.2663 33.2752 32.4116 36.317 30.7827 39.3588 29.1538 40.5041 25.3675 38.8752 22.3257 38.5096 21.6431 38.0203 21.0343 37.4322 20.5305 40.8216 20.4388 43.5237 17.6688 43.5312 14.2782Z" stroke="#66737C" stroke-width="3.57143" stroke-linecap="round" stroke-linejoin="round" fill="none"/><path d="M34.753 53.9787 21.5195 53.9787C20.806 54.0094 20.1645 53.5465 19.9687 52.8597L17.4357 41.7157C17.3166 40.9206 17.8645 40.1795 18.6596 40.0604 18.7686 40.0441 18.8791 40.0402 18.9889 40.0487L37.2767 40.0488C38.0768 39.9845 38.7775 40.581 38.8417 41.3811 38.8507 41.4927 38.8467 41.605 38.8299 41.7157L36.2969 52.8597C36.1017 53.5439 35.464 54.0061 34.753 53.9787Z" stroke="#66737C" stroke-width="3.57143" stroke-linecap="round" stroke-linejoin="round" fill="none"/><path d="M27.86 28.2245 27.86 40.0488" stroke="#66737C" stroke-width="3.57143" stroke-linecap="round" stroke-linejoin="round" fill="none"/><path d="M24.3775 17.4125C24.3775 19.3358 25.9367 20.895 27.86 20.895 29.7833 20.895 31.3425 19.3358 31.3425 17.4125 31.3425 15.4892 29.7833 13.93 27.86 13.93 25.9367 13.93 24.3775 15.4892 24.3775 17.4125Z" stroke="#66737C" stroke-width="3.57143" stroke-linecap="round" stroke-linejoin="round" fill="none"/></svg>