<svg width="60" height="60" viewBox="-2.14 -2.14 60 60" xmlns="http://www.w3.org/2000/svg" xmlns:xlink="http://www.w3.org/1999/xlink" id="Flower--Streamline-Ultimate.svg" overflow="hidden"><path d="M14.1877 15.381C14.1826 23.0744 20.4151 29.3152 28.1085 29.3203 28.5682 29.3206 29.0277 29.2981 29.4852 29.253 36.7523 28.3479 42.1691 22.1113 42.0477 14.789L42.0477 4.93354C42.0477 3.97188 41.2681 3.19229 40.3065 3.19229 39.9297 3.19229 39.5631 3.31449 39.2617 3.54054L35.0827 6.67479 30.2072 3.01817C28.969 2.0895 27.2664 2.0895 26.0282 3.01817L21.1527 6.67479 16.9737 3.54054C16.2044 2.96354 15.113 3.11946 14.536 3.88879 14.3099 4.1902 14.1877 4.55679 14.1877 4.93354Z" stroke="#66737C" stroke-width="3.57143" stroke-linecap="round" stroke-linejoin="round" fill="none"/><path d="M28.1177 29.311 28.1177 53.6885" stroke="#66737C" stroke-width="3.57143" stroke-linecap="round" stroke-linejoin="round" fill="none"/><path d="M12.696 44.5735C16.9349 45.3924 20.7225 44.2376 21.1559 41.9942 21.5893 39.7507 18.5044 37.2682 14.2655 36.4493 10.0267 35.6304 6.23902 36.7852 5.80559 39.0287 5.37215 41.2721 8.45706 43.7546 12.6959 44.5735 12.696 44.5735 12.696 44.5735 12.696 44.5735Z" stroke="#66737C" stroke-width="3.57143" stroke-linecap="round" stroke-linejoin="round" fill="none"/><path d="M35.0819 42.2282C35.5152 44.4717 39.3028 45.6265 43.5417 44.8076 47.7806 43.9887 50.8655 41.5062 50.4322 39.2628 50.4322 39.2628 50.4322 39.2628 50.4322 39.2628 49.9988 37.0193 46.2112 35.8645 41.9723 36.6834 37.7334 37.5022 34.6485 39.9847 35.0819 42.2282 35.0819 42.2282 35.0819 42.2282 35.0819 42.2282Z" stroke="#66737C" stroke-width="3.57143" stroke-linecap="round" stroke-linejoin="round" fill="none"/></svg>