<svg width="60" height="60" viewBox="-1.875 -1.875 60 60" xmlns="http://www.w3.org/2000/svg" xmlns:xlink="http://www.w3.org/1999/xlink" id="Folder-Media--Streamline-Ultimate" overflow="hidden"><path d="M43.9453 15.8203 43.9453 12.3047C43.9453 10.3631 42.3713 8.78906 40.4297 8.78906L19.3359 8.78906 19.3359 5.27344C19.3359 3.33181 17.7619 1.75781 15.8203 1.75781L5.27344 1.75781C3.33181 1.75781 1.75781 3.33181 1.75781 5.27344L1.75781 43.4766" stroke="#66737C" stroke-width="3.33333" stroke-linecap="round" stroke-linejoin="round" fill="none"/><path d="M8.78906 47.4609 8.78906 19.3359C8.78906 17.3943 10.3631 15.8203 12.3047 15.8203L47.4609 15.8203C49.4026 15.8203 50.9766 17.3943 50.9766 19.3359L50.9766 22.8516" stroke="#66737C" stroke-width="3.33333" stroke-linecap="round" stroke-linejoin="round" fill="none"/><path d="M15.8203 22.8516 54.4922 22.8516 54.4922 54.4922 15.8203 54.4922Z" stroke="#66737C" stroke-width="3.33333" stroke-linecap="round" stroke-linejoin="round" fill="none"/><path d="M29.2687 47.25C28.2772 47.7445 27.0725 47.3415 26.578 46.3499 26.4394 46.0719 26.3672 45.7654 26.3672 45.4547L26.3672 31.8891C26.3672 30.781 27.2655 29.8829 28.3735 29.8829 28.6842 29.8829 28.9907 29.9551 29.2688 30.0938L42.8367 36.8789C43.827 37.3732 44.229 38.5766 43.7348 39.5668 43.5407 39.9556 43.2255 40.2708 42.8367 40.4648Z" stroke="#66737C" stroke-width="3.33333" stroke-linecap="round" stroke-linejoin="round" fill="none"/></svg>