<svg width="60" height="60" viewBox="-1.875 -1.875 60 60" xmlns="http://www.w3.org/2000/svg" xmlns:xlink="http://www.w3.org/1999/xlink" id="Folder-Bookmark-1--Streamline-Ultimate" overflow="hidden"><path d="M33.3984 12.3047 24.6094 12.3047 20.3906 6.67969C19.7267 5.79443 18.6847 5.27344 17.5781 5.27344L5.27344 5.27344C3.33181 5.27344 1.75781 6.84744 1.75781 8.78906L1.75781 47.4609C1.75781 49.4026 3.33181 50.9766 5.27344 50.9766L50.9766 50.9766C52.9182 50.9766 54.4922 49.4026 54.4922 47.4609L54.4922 15.8203C54.4922 13.8787 52.9182 12.3047 50.9766 12.3047L47.4609 12.3047" stroke="#66737C" stroke-width="3.33333" stroke-linecap="round" stroke-linejoin="round" fill="none"/><path d="M47.4609 31.6406 40.4297 26.3672 33.3984 31.6406 33.3984 10.5469C33.3984 9.57606 34.1854 8.78906 35.1562 8.78906L45.7031 8.78906C46.6739 8.78906 47.4609 9.57606 47.4609 10.5469Z" stroke="#66737C" stroke-width="3.33333" stroke-linecap="round" stroke-linejoin="round" fill="none"/></svg>