<svg width="60" height="60" viewBox="-1.875 -1.875 60 60" xmlns="http://www.w3.org/2000/svg" xmlns:xlink="http://www.w3.org/1999/xlink" id="Fossil-Energy-Gas-Latern--Streamline-Ultimate" overflow="hidden"><defs></defs><path d="M25.9758 22.8516C27.8611 25.1044 28.1418 28.2939 26.6789 30.8414 25.369 30.9426 24.2049 30.0111 24.0164 28.7109 22.0899 29.7681 20.9502 31.8455 21.0937 34.0383 21.0937 37.5682 23.9553 40.4297 27.4852 40.4297 30.9954 40.3818 33.8297 37.5485 33.8789 34.0383 34.3195 28.8825 30.9824 24.1589 25.9758 22.8516Z" stroke="#66737C" stroke-width="3.33333" stroke-linecap="round" stroke-linejoin="round" fill="none"/><path d="M17.5781 15.8203 38.6719 15.8203C38.6719 15.8203 45.7031 15.8203 45.7031 22.8516L45.7031 40.4297C45.7031 40.4297 45.7031 47.4609 38.6719 47.4609L17.5781 47.4609C17.5781 47.4609 10.5469 47.4609 10.5469 40.4297L10.5469 22.8516C10.5469 22.8516 10.5469 15.8203 17.5781 15.8203" stroke="#66737C" stroke-width="3.33333" stroke-linecap="round" stroke-linejoin="round" fill="none"/><path d="M45.7031 54.4922 10.5469 54.4922C11.2946 50.5217 14.6957 47.6006 18.7336 47.4609L37.5164 47.4609C41.5543 47.6006 44.9554 50.5217 45.7031 54.4922Z" stroke="#66737C" stroke-width="3.33333" stroke-linecap="round" stroke-linejoin="round" fill="none"/><path d="M17.5781 1.75781 38.6719 1.75781 38.6719 15.8203 17.5781 15.8203Z" stroke="#66737C" stroke-width="3.33333" stroke-linecap="round" stroke-linejoin="round" fill="none"/><path d="M14.0625 1.75781 42.1875 1.75781" stroke="#66737C" stroke-width="3.33333" stroke-linecap="round" stroke-linejoin="round" fill="none"/><path d="M28.125 15.8203 28.125 8.78906" stroke="#66737C" stroke-width="3.33333" stroke-linecap="round" stroke-linejoin="round" fill="none"/></svg>