<svg width="60" height="60" viewBox="-2.14 -2.14 60 60" xmlns="http://www.w3.org/2000/svg" xmlns:xlink="http://www.w3.org/1999/xlink" id="Global-Colaboration-Handshake--Streamline-Ultimate.svg" overflow="hidden"><defs></defs><path d="M47.1066 43.854 37.0817 45.1448" stroke="#66737C" stroke-width="3.57143" stroke-linecap="round" stroke-linejoin="round" fill="none"/><path d="M33.4691 30.2444 25.4176 32.905C24.1278 33.3307 22.7238 32.7202 22.1557 31.4864 21.5401 30.1656 22.0836 28.5946 23.3838 27.9366L31.1823 24.013C32.5258 23.3354 34.09 23.2447 35.5029 23.7623L47.0486 27.9877" stroke="#66737C" stroke-width="3.57143" stroke-linecap="round" stroke-linejoin="round" fill="none"/><path d="M8.55534 43.8795 14.2318 43.8795 22.3855 53.0176C23.5042 54.3234 25.4696 54.475 26.7754 53.3564 26.7825 53.3503 26.7896 53.3441 26.7967 53.338L37.0933 45.1518C38.2919 43.9531 38.4275 42.0557 37.4113 40.6988L30.112 31.3541" stroke="#66737C" stroke-width="3.57143" stroke-linecap="round" stroke-linejoin="round" fill="none"/><path d="M24.5702 27.3353 23.739 26.6527C22.3813 25.6528 20.6033 25.4254 19.0377 26.0514L8.70625 30.1817" stroke="#66737C" stroke-width="3.57143" stroke-linecap="round" stroke-linejoin="round" fill="none"/><path d="M1.74125 26.2348 6.38458 26.2348C7.61283 26.1837 8.65103 27.1357 8.70625 28.3638L8.70625 43.2596C8.65103 44.4877 7.61283 45.4397 6.38458 45.3886L1.74125 45.3886" stroke="#66737C" stroke-width="3.57143" stroke-linecap="round" stroke-linejoin="round" fill="none"/><path d="M53.9787 45.3863 49.3354 45.3863C48.1072 45.4374 47.069 44.4854 47.0137 43.2573L47.0137 28.3615C47.069 27.1334 48.1072 26.1814 49.3354 26.2325L53.9787 26.2325" stroke="#66737C" stroke-width="3.57143" stroke-linecap="round" stroke-linejoin="round" fill="none"/><path d="M13.1964 19.7992C11.335 11.8384 16.2795 3.87606 24.2402 2.01469 32.2009 0.15331 40.1633 5.09781 42.0247 13.0585 42.3758 14.5603 42.4901 16.1076 42.3635 17.6447" stroke="#66737C" stroke-width="3.57143" stroke-linecap="round" stroke-linejoin="round" fill="none"/><path d="M14.2341 10.0853 17.0387 10.0853C19.2998 10.2547 21.0971 12.052 21.2665 14.3131L21.2665 18.2599C21.2665 18.8426 21.7865 19.3464 22.3623 19.8038" stroke="#66737C" stroke-width="3.57143" stroke-linecap="round" stroke-linejoin="round" fill="none"/><path d="M30.9757 2.01289C30.9757 2.01289 28.5077 3.94683 27.6046 4.64333 26.0742 5.81499 25.7738 8.00096 26.9313 9.54205L29.0557 12.3745C29.7214 13.2542 30.7617 13.77 31.8649 13.7675L33.9242 13.7675C34.8559 13.7673 35.7495 14.1373 36.4084 14.796L38.0335 16.4211" stroke="#66737C" stroke-width="3.57143" stroke-linecap="round" stroke-linejoin="round" fill="none"/></svg>