<svg width="60" height="60" viewBox="-1.875 -1.875 60 60" xmlns="http://www.w3.org/2000/svg" xmlns:xlink="http://www.w3.org/1999/xlink" id="Global-Accelerator--Streamline-Ultimate" fill="none" overflow="hidden"><path d="M28.125 44.5312C37.1859 44.5312 44.5312 37.1859 44.5312 28.125 44.5312 19.0641 37.1859 11.7188 28.125 11.7188 19.0641 11.7188 11.7188 19.0641 11.7188 28.125 11.7188 37.1859 19.0641 44.5312 28.125 44.5312Z" stroke="#66737C" stroke-width="3.33333" stroke-linecap="round" stroke-linejoin="round" stroke-miterlimit="10"/><path d="M12.6563 33.75 43.5938 33.75" stroke="#66737C" stroke-width="3.33333" stroke-linecap="round" stroke-linejoin="round" stroke-miterlimit="10"/><path d="M12.6563 22.7344 43.5938 22.7344" stroke="#66737C" stroke-width="3.33333" stroke-linecap="round" stroke-linejoin="round" stroke-miterlimit="10"/><path d="M24.6094 12.1051C23.4375 16.5507 22.7344 21.4642 22.7344 26.3777 22.7344 32.6951 23.9062 38.7785 26.0156 44.3939" stroke="#66737C" stroke-width="3.33333" stroke-linecap="round" stroke-linejoin="round" stroke-miterlimit="10"/><path d="M31.6406 12.1051C32.8125 16.5507 33.5156 21.4642 33.5156 26.3777 33.5156 32.6951 32.3438 38.7785 30.2344 44.3939" stroke="#66737C" stroke-width="3.33333" stroke-linecap="round" stroke-linejoin="round" stroke-miterlimit="10"/><path d="M52.1058 9.39375 50.9128 15.3592 45.1861 14.1661" stroke="#66737C" stroke-width="3.33333" stroke-linecap="round" stroke-linejoin="round" stroke-miterlimit="10"/><path d="M1.75781 28.2443C1.75781 13.6887 13.4501 1.99642 28.0057 1.99642 37.789 1.99642 46.3793 7.4846 50.913 15.359" stroke="#66737C" stroke-width="3.33333" stroke-linecap="round" stroke-linejoin="round" stroke-miterlimit="10"/><path d="M11.0638 48.0495C7.24596 44.7089 4.38255 40.4137 2.95085 35.4028" stroke="#66737C" stroke-width="3.33333" stroke-linecap="round" stroke-linejoin="round" stroke-miterlimit="10"/><path d="M23.9489 54.2536C21.5629 53.7764 19.1767 53.0606 17.0291 52.106" stroke="#66737C" stroke-width="3.33333" stroke-linecap="round" stroke-linejoin="round" stroke-miterlimit="10"/><path d="M36.3574 53.0609C34.9256 53.538 33.4938 53.7766 31.8237 54.0152" stroke="#66737C" stroke-width="3.33333" stroke-linecap="round" stroke-linejoin="round" stroke-miterlimit="10"/><path d="M46.1405 47.3337C44.9475 48.288 43.7543 49.2427 42.5613 50.197" stroke="#66737C" stroke-width="3.33333" stroke-linecap="round" stroke-linejoin="round" stroke-miterlimit="10"/><path d="M52.106 38.7438C51.6288 39.6982 51.1516 40.6528 50.6742 41.6072" stroke="#66737C" stroke-width="3.33333" stroke-linecap="round" stroke-linejoin="round" stroke-miterlimit="10"/><path d="M54.4922 29.1991C54.4922 30.1537 54.4922 30.8695 54.2536 31.5853" stroke="#66737C" stroke-width="3.33333" stroke-linecap="round" stroke-linejoin="round" stroke-miterlimit="10"/></svg>