<svg width="60" height="60" viewBox="-2.14 -2.14 60 60" xmlns="http://www.w3.org/2000/svg" xmlns:xlink="http://www.w3.org/1999/xlink" id="Gold-Bars--Streamline-Ultimate.svg" overflow="hidden"><path d="M20.7673 31.3425 8.08172 31.3425C6.38497 31.3249 4.91176 32.5076 4.56207 34.168L1.80626 48.098C1.45974 50.0068 2.72622 51.8351 4.63503 52.1816 4.86291 52.223 5.09433 52.2417 5.3259 52.2375L23.5231 52.2375C25.4615 52.2728 27.0615 50.73 27.0968 48.7916 27.1011 48.5591 27.0822 48.3268 27.0405 48.098L24.2846 34.168C23.9359 32.5079 22.4635 31.3251 20.7673 31.3425Z" stroke="#66737C" stroke-width="3.57143" stroke-linecap="round" stroke-linejoin="round" fill="none"/><path d="M47.6383 31.3425 34.9527 31.3425C33.2565 31.3251 31.7841 32.5079 31.4354 34.168L28.6795 48.098C28.3317 50.0052 29.5959 51.8333 31.5032 52.1811 31.732 52.2229 31.9644 52.2417 32.1969 52.2375L50.3941 52.2375C52.3338 52.2725 53.9346 50.7285 53.9697 48.7888 53.9738 48.5573 53.9551 48.3259 53.9137 48.098L51.1579 34.168C50.8082 32.5076 49.335 31.3249 47.6383 31.3425Z" stroke="#66737C" stroke-width="3.57143" stroke-linecap="round" stroke-linejoin="round" fill="none"/><path d="M34.6973 10.4475 22.0117 10.4475C20.315 10.4299 18.8418 11.6126 18.4921 13.273L15.7363 27.203C15.3897 29.1118 16.6562 30.9401 18.565 31.2866 18.7929 31.328 19.0243 31.3467 19.2559 31.3425L37.4531 31.3425C39.3915 31.3778 40.9915 29.835 41.0268 27.8966 41.0311 27.6641 41.0122 27.4318 40.9704 27.203L38.2146 13.273C37.8659 11.6129 36.3935 10.4301 34.6973 10.4475Z" stroke="#66737C" stroke-width="3.57143" stroke-linecap="round" stroke-linejoin="round" fill="none"/><path d="M47.0137 6.965 53.9787 6.965" stroke="#66737C" stroke-width="3.57143" stroke-linecap="round" stroke-linejoin="round" fill="none"/><path d="M50.4963 3.4825 50.4963 10.4475" stroke="#66737C" stroke-width="3.57143" stroke-linecap="round" stroke-linejoin="round" fill="none"/><path d="M1.74125 15.6713 8.70625 15.6713" stroke="#66737C" stroke-width="3.57143" stroke-linecap="round" stroke-linejoin="round" fill="none"/><path d="M5.22375 12.1888 5.22375 19.1537" stroke="#66737C" stroke-width="3.57143" stroke-linecap="round" stroke-linejoin="round" fill="none"/></svg>