<svg width="60" height="60" viewBox="-1.875 -1.875 60 60" xmlns="http://www.w3.org/2000/svg" xmlns:xlink="http://www.w3.org/1999/xlink" id="Golf-Hole--Streamline-Ultimate" overflow="hidden"><path d="M26.3672 1.75781 26.3672 45.7031" stroke="#66737C" stroke-width="3.57143" stroke-linecap="round" stroke-linejoin="round" fill="none"/><path d="M26.3672 5.27344 52.7344 5.27344C53.7052 5.2738 54.4919 6.0611 54.4915 7.03191 54.4914 7.44275 54.3473 7.84057 54.0844 8.15625L46.1156 14.6953C45.5718 15.3467 45.5718 16.2939 46.1156 16.9453L54.0844 23.4844C54.7057 24.2303 54.6047 25.3387 53.8587 25.96 53.543 26.223 53.1452 26.367 52.7344 26.3672L26.3672 26.3672" stroke="#66737C" stroke-width="3.57143" stroke-linecap="round" stroke-linejoin="round" fill="none"/><path d="M33.375 37.2656C43.5539 38.3438 50.9766 41.7188 50.9766 45.7031 50.9766 50.557 39.9609 54.4922 26.3672 54.4922 12.7734 54.4922 1.75781 50.557 1.75781 45.7031 1.75781 41.7914 8.91562 38.475 18.8109 37.3359" stroke="#66737C" stroke-width="3.57143" stroke-linecap="round" stroke-linejoin="round" fill="none"/></svg>