<svg width="44.8" height="44.8" viewBox="-1.6 -1.6 44.8 44.8" xmlns="http://www.w3.org/2000/svg" xmlns:xlink="http://www.w3.org/1999/xlink" id="Graph-Arrow-User-Increase--Streamline-Core" fill="none" overflow="hidden"><g id="graph-arrow-user-increase--ascend-growth-up-arrow-stats-graph-right-grow-user"><path d="M20.8 25.2571C13.4152 25.2571 7.42857 31.2437 7.42857 38.6286L7.42857 40.1143 34.1714 40.1143 34.1714 38.6286C34.1714 31.2437 28.1848 25.2571 20.8 25.2571Z" id="Ellipse 1772" stroke="#66737C" stroke-width="2.67857" stroke-linecap="round" stroke-linejoin="round"/><path d="M20.8 19.3143C24.9027 19.3143 28.2286 15.9884 28.2286 11.8857 28.2286 7.78303 24.9027 4.45714 20.8 4.45714 16.6973 4.45714 13.3714 7.78303 13.3714 11.8857 13.3714 15.9884 16.6973 19.3143 20.8 19.3143Z" id="Vector" stroke="#66737C" stroke-width="2.67857" stroke-linecap="round" stroke-linejoin="round"/><path d="M34.1714 7.42857 40.1143 1.48571" id="Vector_2" stroke="#66737C" stroke-width="2.67857" stroke-linecap="round" stroke-linejoin="round"/><path d="M31.2 1.48571 40.1143 1.48571 40.1143 10.4" id="Vector_3" stroke="#66737C" stroke-width="2.67857" stroke-linecap="round" stroke-linejoin="round"/><path d="M1.48571 22.2857 7.42857 16.3429 11.6183 20.5326" id="Vector_4" stroke="#66737C" stroke-width="2.67857" stroke-linecap="round" stroke-linejoin="round"/></g></svg>