<svg width="60" height="60" viewBox="-2.14 -2.14 60 60" xmlns="http://www.w3.org/2000/svg" xmlns:xlink="http://www.w3.org/1999/xlink" id="Graphic-Tablet-Pen--Streamline-Ultimate.svg" overflow="hidden"><g><path d="M53.9787 22.6362 53.9787 50.4963C53.9787 52.4196 52.4196 53.9787 50.4963 53.9787L5.22375 53.9787C3.30042 53.9787 1.74125 52.4196 1.74125 50.4963L1.74125 15.6713C1.74125 13.7479 3.30042 12.1888 5.22375 12.1888L26.1187 12.1888" stroke="#66737C" stroke-width="3.57143" stroke-linecap="round" stroke-linejoin="round" fill="none"/><path d="M45.8529 27.86 45.8529 44.1117C45.8404 45.0681 45.0681 45.8404 44.1117 45.8529L11.6083 45.8529C10.6519 45.8404 9.87959 45.0681 9.86708 44.1117L9.86708 22.0558C9.87959 21.0994 10.6519 20.3271 11.6083 20.3146L22.6362 20.3146" stroke="#66737C" stroke-width="3.57143" stroke-linecap="round" stroke-linejoin="round" fill="none"/><path d="M52.1679 9.63492 37.1467 29.5084 28.6726 32.5033 29.2066 23.6346 44.3206 3.7611C45.9249 1.58259 48.9915 1.1171 51.17 2.72139 51.209 2.75009 51.2475 2.77937 51.2856 2.80922L51.2856 2.80922C53.386 4.46651 53.7778 7.49806 52.1679 9.63492Z" stroke="#66737C" stroke-width="3.57143" stroke-linecap="round" stroke-linejoin="round" fill="none"/><path d="M18.5733 33.0838 9.86708 33.0838" stroke="#66737C" stroke-width="3.57143" stroke-linecap="round" stroke-linejoin="round" fill="none"/><path d="M18.5733 45.8529 18.5733 20.3146" stroke="#66737C" stroke-width="3.57143" stroke-linecap="round" stroke-linejoin="round" fill="none"/></g></svg>