<svg width="44.8" height="44.8" viewBox="-1.6 -1.6 44.8 44.8" xmlns="http://www.w3.org/2000/svg" xmlns:xlink="http://www.w3.org/1999/xlink" id="Group-Meeting-Call--Streamline-Core" fill="none" overflow="hidden"><g id="group-meeting-call--group-meeting-call-work"><path d="M35.0088 1.48571 6.59131 1.48571C5.41264 1.48571 4.45714 2.44122 4.45714 3.61988L4.45714 18.438C4.45714 19.6166 5.41264 20.5721 6.59131 20.5721L35.0088 20.5721C36.1872 20.5721 37.1429 19.6166 37.1429 18.438L37.1429 3.61988C37.1429 2.44122 36.1872 1.48571 35.0088 1.48571Z" id="Vector" stroke="#66737C" stroke-width="2.67857" stroke-linecap="round" stroke-linejoin="round"/><path d="M7.55337 28.9714C7.55337 31.0228 9.21631 32.6857 11.2677 32.6857 13.319 32.6857 14.9819 31.0228 14.9819 28.9714 14.9819 26.9201 13.319 25.2571 11.2677 25.2571 9.21631 25.2571 7.55337 26.9201 7.55337 28.9714" id="Ellipse 1134" stroke="#66737C" stroke-width="2.67857" stroke-linecap="round" stroke-linejoin="round"/><path d="M26.6181 28.9714C26.6181 31.0228 28.281 32.6857 30.3323 32.6857 32.3837 32.6857 34.0466 31.0228 34.0466 28.9714 34.0466 26.9201 32.3837 25.2571 30.3323 25.2571 28.281 25.2571 26.6181 26.9201 26.6181 28.9714" id="Ellipse 1137" stroke="#66737C" stroke-width="2.67857" stroke-linecap="round" stroke-linejoin="round"/><path d="M4.45714 40.1149C5.60346 37.4914 8.22141 35.6577 11.2676 35.6577 14.3138 35.6577 16.9317 37.4914 18.0781 40.1149" id="Ellipse 1136" stroke="#66737C" stroke-width="2.67857" stroke-linecap="round" stroke-linejoin="round"/><path d="M23.5219 40.1149C24.6682 37.4914 27.2861 35.6577 30.3323 35.6577 33.3787 35.6577 35.9965 37.4914 37.1429 40.1149" id="Ellipse 1138" stroke="#66737C" stroke-width="2.67857" stroke-linecap="round" stroke-linejoin="round"/><path d="M17.4571 9.42834C17.4571 11.2746 18.9538 12.7712 20.8 12.7712 22.6462 12.7712 24.1429 11.2746 24.1429 9.42834 24.1429 7.58213 22.6462 6.08549 20.8 6.08549 18.9538 6.08549 17.4571 7.58213 17.4571 9.42834" id="Ellipse 1139" stroke="#66737C" stroke-width="2.67857" stroke-linecap="round" stroke-linejoin="round"/><path d="M13.9895 20.5679 13.9895 20.1078C15.1358 17.4842 17.7538 15.6507 20.8 15.6507 23.8462 15.6507 26.4641 17.4842 27.6104 20.1078L27.6104 20.5679" id="Ellipse 1143" stroke="#66737C" stroke-width="2.67857" stroke-linecap="round" stroke-linejoin="round"/></g></svg>