<svg width="60" height="60" viewBox="-2.14 -2.14 60 60" xmlns="http://www.w3.org/2000/svg" xmlns:xlink="http://www.w3.org/1999/xlink" id="Headphones-Human--Streamline-Ultimate.svg" overflow="hidden"><path d="M20.231 5.91561C9.06584 8.77658 2.33397 20.147 5.19495 31.3122 6.59157 36.7626 10.1298 41.4181 15.0073 44.2231L15.0073 53.9741" stroke="#66737C" stroke-width="3.57143" stroke-linecap="round" stroke-linejoin="round" fill="none"/><path d="M16.7485 26.1187C16.7485 30.9271 20.6464 34.825 25.4548 34.825 30.2631 34.825 34.161 30.9271 34.161 26.1188 34.161 21.3104 30.2631 17.4125 25.4548 17.4125 20.6464 17.4125 16.7485 21.3104 16.7485 26.1188Z" stroke="#66737C" stroke-width="3.57143" stroke-linecap="round" stroke-linejoin="round" fill="none"/><path d="M30.6785 19.1537 30.6785 3.4825C30.6785 2.52083 29.8989 1.74125 28.9373 1.74125L21.9723 1.74125C21.0106 1.74125 20.231 2.52083 20.231 3.4825L20.231 19.1537" stroke="#66737C" stroke-width="3.57143" stroke-linecap="round" stroke-linejoin="round" fill="none"/><path d="M35.9023 53.9787 35.9023 48.7782 38.2379 49.1683C42.032 49.8017 45.6213 47.2394 46.2547 43.4452 46.3179 43.0662 46.3497 42.6827 46.3498 42.2984L46.3498 36.5895 48.5205 36.0485C50.3865 35.5823 51.5212 33.6917 51.0549 31.8257 50.958 31.4377 50.7949 31.0692 50.5729 30.7365L46.3498 24.4007 46.3498 22.6595C46.3498 14.4384 39.6912 7.54542 30.6785 5.7113" stroke="#66737C" stroke-width="3.57143" stroke-linecap="round" stroke-linejoin="round" fill="none"/></svg>