<svg width="60" height="60" viewBox="-2.14 -2.14 60 60" xmlns="http://www.w3.org/2000/svg" xmlns:xlink="http://www.w3.org/1999/xlink" id="Heavy-Equipment-Flattener--Streamline-Ultimate.svg" fill="none" overflow="hidden"><path d="M17.4125 52.2375C24.1442 52.2375 29.6012 46.7804 29.6012 40.0488 29.6012 33.3171 24.1442 27.86 17.4125 27.86 10.6809 27.86 5.22375 33.3171 5.22375 40.0488 5.22375 46.7804 10.6809 52.2375 17.4125 52.2375Z" stroke="#66737C" stroke-width="3.57143" stroke-linecap="round" stroke-linejoin="round"/><path d="M46.1431 52.2375C50.4707 52.2375 53.9787 48.7295 53.9787 44.4019 53.9787 40.0743 50.4707 36.5662 46.1431 36.5662 41.8155 36.5662 38.3075 40.0743 38.3075 44.4019 38.3075 48.7295 41.8155 52.2375 46.1431 52.2375Z" stroke="#66737C" stroke-width="3.57143" stroke-linecap="round" stroke-linejoin="round"/><path d="M48.755 22.6362 48.755 6.965C48.755 6.04139 48.3882 5.15559 47.7351 4.5025 47.082 3.84942 46.1961 3.4825 45.2725 3.4825L30.8155 3.4825C30.0953 3.48259 29.393 3.70591 28.8052 4.1217 28.2173 4.53747 27.7727 5.12527 27.5326 5.80417L19.625 28.062" stroke="#66737C" stroke-width="3.57143" stroke-linecap="round" stroke-linejoin="round"/><path d="M21.5521 22.6362 50.4963 22.6362C51.4198 22.6362 52.3058 23.0032 52.9588 23.6562 53.6119 24.3092 53.9787 25.1952 53.9787 26.1187L53.9787 44.4019" stroke="#66737C" stroke-width="3.57143" stroke-linecap="round" stroke-linejoin="round"/><path d="M36.5662 3.4825 36.5662 22.6362" stroke="#66737C" stroke-width="3.57143" stroke-linecap="round" stroke-linejoin="round"/><path d="M1.74125 40.0488 33.0838 40.0488" stroke="#66737C" stroke-width="3.57143" stroke-linecap="round" stroke-linejoin="round"/><path d="M46.1431 45.2725C45.6623 45.2725 45.2725 44.8827 45.2725 44.4019 45.2725 43.9211 45.6623 43.5312 46.1431 43.5312" stroke="#66737C" stroke-width="3.57143"/><path d="M46.1431 45.2725C46.6239 45.2725 47.0137 44.8827 47.0137 44.4019 47.0137 43.9211 46.6239 43.5312 46.1431 43.5312" stroke="#66737C" stroke-width="3.57143"/></svg>