<svg width="60" height="60" viewBox="-2.14 -2.14 60 60" xmlns="http://www.w3.org/2000/svg" xmlns:xlink="http://www.w3.org/1999/xlink" id="Heavy-Equipment-Mortar-Truck-1--Streamline-Ultimate.svg" overflow="hidden"><path d="M6.965 43.5312C6.965 46.4162 9.30375 48.755 12.1888 48.755 15.0737 48.755 17.4125 46.4162 17.4125 43.5312 17.4125 40.6463 15.0737 38.3075 12.1888 38.3075 9.30375 38.3075 6.965 40.6463 6.965 43.5312Z" stroke="#66737C" stroke-width="3.57143" stroke-linecap="round" stroke-linejoin="round" fill="none"/><path d="M38.3075 43.5312C38.3075 46.4162 40.6463 48.755 43.5312 48.755 46.4162 48.755 48.755 46.4162 48.755 43.5312 48.755 40.6463 46.4162 38.3075 43.5312 38.3075 40.6463 38.3075 38.3075 40.6463 38.3075 43.5312Z" stroke="#66737C" stroke-width="3.57143" stroke-linecap="round" stroke-linejoin="round" fill="none"/><path d="M17.1153 45.2725 38.607 45.2725" stroke="#66737C" stroke-width="3.57143" stroke-linecap="round" stroke-linejoin="round" fill="none"/><path d="M7.26217 45.2725 5.22375 45.2725C3.30042 45.2725 1.74125 43.7133 1.74125 41.79L1.74125 34.825C1.74125 33.7289 2.25734 32.6967 3.13425 32.039L7.83563 28.5124C8.40242 28.0872 8.82601 27.4991 9.04986 26.8269L11.3947 19.7945C11.8685 18.3722 13.1993 17.4126 14.6985 17.4125L19.1537 17.4125C21.0771 17.4125 22.6362 18.9717 22.6362 20.895L22.6362 38.3075 1.74125 38.3075" stroke="#66737C" stroke-width="3.57143" stroke-linecap="round" stroke-linejoin="round" fill="none"/><path d="M22.6362 38.3075 53.9787 38.3075" stroke="#66737C" stroke-width="3.57143" stroke-linecap="round" stroke-linejoin="round" fill="none"/><path d="M35.1013 10.0667 50.877 25.8425" stroke="#66737C" stroke-width="3.57143" stroke-linecap="round" stroke-linejoin="round" fill="none"/><path d="M53.6514 15.0467C53.6967 14.1876 53.3752 13.3496 52.7668 12.7413L48.2024 8.17691C47.5953 7.56681 46.7565 7.24498 45.897 7.29236 37.8455 7.72883 30.9176 10.942 27.2053 17.9906 25.2244 22.009 26.0692 26.8472 29.2948 29.9565L30.9942 31.6559C34.1035 34.8815 38.9417 35.7263 42.9601 33.7454 50.0017 30.0261 53.2149 23.0983 53.6514 15.0467Z" stroke="#66737C" stroke-width="3.57143" stroke-linecap="round" stroke-linejoin="round" fill="none"/></svg>