<svg width="60" height="60" viewBox="-2.14 -2.14 60 60" xmlns="http://www.w3.org/2000/svg" xmlns:xlink="http://www.w3.org/1999/xlink" id="Heavy-Equipment-Tractor--Streamline-Ultimate.svg" fill="none" overflow="hidden"><path d="M41.79 53.9787C48.5217 53.9787 53.9787 48.5217 53.9787 41.79 53.9787 35.0583 48.5217 29.6012 41.79 29.6012 35.0583 29.6012 29.6012 35.0583 29.6012 41.79 29.6012 48.5217 35.0583 53.9787 41.79 53.9787Z" stroke="#66737C" stroke-width="3.57143" stroke-linecap="round" stroke-linejoin="round"/><path d="M41.79 47.0137C44.6749 47.0137 47.0137 44.6749 47.0137 41.79 47.0137 38.9051 44.6749 36.5662 41.79 36.5662 38.9051 36.5662 36.5662 38.9051 36.5662 41.79 36.5662 44.6749 38.9051 47.0137 41.79 47.0137Z" stroke="#66737C" stroke-width="3.57143" stroke-linecap="round" stroke-linejoin="round"/><path d="M9.57687 53.9787C13.9044 53.9787 17.4125 50.4707 17.4125 46.1431 17.4125 41.8155 13.9044 38.3075 9.57687 38.3075 5.24938 38.3075 1.74125 41.8155 1.74125 46.1431 1.74125 50.4707 5.24938 53.9787 9.57687 53.9787Z" stroke="#66737C" stroke-width="3.57143" stroke-linecap="round" stroke-linejoin="round"/><path d="M17.3637 47.0137 30.7737 47.0137" stroke="#66737C" stroke-width="3.57143" stroke-linecap="round" stroke-linejoin="round"/><path d="M53.9787 41.79 53.9787 12.1888C53.9787 11.2651 53.6119 10.3793 52.9588 9.72625 52.3058 9.07317 51.4198 8.70625 50.4963 8.70625L35.9858 8.70625C35.17 8.70618 34.3802 8.99247 33.754 9.51521 33.1276 10.0379 32.7049 10.7639 32.5591 11.5665L31.0662 19.776C30.9207 20.5778 30.4983 21.3032 29.8731 21.8258 29.2479 22.3485 28.459 22.6352 27.6441 22.6362L12.1888 22.6362C10.3415 22.6362 8.56995 23.3701 7.26375 24.6763 5.95756 25.9825 5.22375 27.7541 5.22375 29.6012L5.22375 39.6309" stroke="#66737C" stroke-width="3.57143" stroke-linecap="round" stroke-linejoin="round"/><path d="M8.70625 1.74125 12.1888 1.74125C13.1124 1.74125 13.9982 2.10815 14.6512 2.76125 15.3043 3.41434 15.6713 4.30014 15.6713 5.22375L15.6713 8.70625" stroke="#66737C" stroke-width="3.57143" stroke-linecap="round" stroke-linejoin="round"/><path d="M38.3075 19.1537 47.0137 19.1537" stroke="#66737C" stroke-width="3.57143" stroke-linecap="round" stroke-linejoin="round"/><path d="M13.3496 8.70625 17.9929 8.70625C18.3008 8.70625 18.5961 8.82856 18.8137 9.04626 19.0314 9.26394 19.1537 9.55921 19.1537 9.86708L19.1537 22.6362 12.1888 22.6362 12.1888 9.86708C12.1888 9.55921 12.3111 9.26394 12.5288 9.04626 12.7464 8.82856 13.0417 8.70625 13.3496 8.70625L13.3496 8.70625Z" stroke="#66737C" stroke-width="3.57143" stroke-linecap="round" stroke-linejoin="round"/><path d="M9.57687 47.0137C9.09604 47.0137 8.70625 46.6239 8.70625 46.1431 8.70625 45.6623 9.09604 45.2725 9.57687 45.2725" stroke="#66737C" stroke-width="3.57143"/><path d="M9.57687 47.0137C10.0577 47.0137 10.4475 46.6239 10.4475 46.1431 10.4475 45.6623 10.0577 45.2725 9.57687 45.2725" stroke="#66737C" stroke-width="3.57143"/></svg>