<svg width="60" height="60" viewBox="-1.875 -1.875 60 60" xmlns="http://www.w3.org/2000/svg" xmlns:xlink="http://www.w3.org/1999/xlink" id="Help-Question-Network--Streamline-Ultimate" fill="none" overflow="hidden"><path d="M7.03125 54.4922C9.94369 54.4922 12.3047 52.1311 12.3047 49.2188 12.3047 46.3064 9.94369 43.9453 7.03125 43.9453 4.11881 43.9453 1.75781 46.3064 1.75781 49.2188 1.75781 52.1311 4.11881 54.4922 7.03125 54.4922Z" stroke="#66737C" stroke-width="3.33333" stroke-linecap="round" stroke-linejoin="round"/><path d="M10.9686 45.7031 15.8201 42.1875" stroke="#66737C" stroke-width="3.33333" stroke-linecap="round" stroke-linejoin="round"/><path d="M7.03125 12.3047C9.94369 12.3047 12.3047 9.94369 12.3047 7.03125 12.3047 4.11881 9.94369 1.75781 7.03125 1.75781 4.11881 1.75781 1.75781 4.11881 1.75781 7.03125 1.75781 9.94369 4.11881 12.3047 7.03125 12.3047Z" stroke="#66737C" stroke-width="3.33333" stroke-linecap="round" stroke-linejoin="round"/><path d="M10.9686 10.5469 15.8201 14.0625" stroke="#66737C" stroke-width="3.33333" stroke-linecap="round" stroke-linejoin="round"/><path d="M49.2188 54.4922C52.1311 54.4922 54.4922 52.1311 54.4922 49.2188 54.4922 46.3064 52.1311 43.9453 49.2188 43.9453 46.3064 43.9453 43.9453 46.3064 43.9453 49.2188 43.9453 52.1311 46.3064 54.4922 49.2188 54.4922Z" stroke="#66737C" stroke-width="3.33333" stroke-linecap="round" stroke-linejoin="round"/><path d="M45.2812 45.7031 40.4297 42.1875" stroke="#66737C" stroke-width="3.33333" stroke-linecap="round" stroke-linejoin="round"/><g><path d="M49.2188 12.3047C52.1311 12.3047 54.4922 9.94369 54.4922 7.03125 54.4922 4.11881 52.1311 1.75781 49.2188 1.75781 46.3064 1.75781 43.9453 4.11881 43.9453 7.03125 43.9453 9.94369 46.3064 12.3047 49.2188 12.3047Z" stroke="#66737C" stroke-width="3.33333" stroke-linecap="round" stroke-linejoin="round"/><path d="M45.2812 10.5469 40.4297 14.0625" stroke="#66737C" stroke-width="3.33333" stroke-linecap="round" stroke-linejoin="round"/></g><g><path d="M27.9928 44.543C27.5074 44.543 27.1139 44.1495 27.1139 43.6641 27.1139 43.1787 27.5074 42.7852 27.9928 42.7852" stroke="#66737C" stroke-width="3.33333"/><path d="M27.9928 44.543C28.4782 44.543 28.8717 44.1495 28.8717 43.6641 28.8717 43.1787 28.4782 42.7852 27.9928 42.7852" stroke="#66737C" stroke-width="3.33333"/></g><path d="M21.0938 25.1953C21.0944 23.9065 21.4494 22.6425 22.1198 21.5417 22.7902 20.4409 23.7504 19.5456 24.8951 18.9535 26.04 18.3614 27.3255 18.0955 28.6113 18.1846 29.8973 18.2738 31.1339 18.7147 32.186 19.4591 33.2381 20.2035 34.0655 21.2228 34.5776 22.4057 35.0897 23.5884 35.2666 24.8892 35.0895 26.1659 34.9123 27.4425 34.3875 28.646 33.5726 29.6445 32.7577 30.6431 31.684 31.3985 30.4688 31.8281 29.7811 32.0712 29.1863 32.5221 28.7663 33.1186 28.3463 33.7148 28.1222 34.4269 28.125 35.1562L28.125 36.6562" stroke="#66737C" stroke-width="3.33333" stroke-linecap="round" stroke-linejoin="round"/></svg>