<svg width="60" height="60" viewBox="-1.875 -1.875 60 60" xmlns="http://www.w3.org/2000/svg" xmlns:xlink="http://www.w3.org/1999/xlink" id="Herbal-Medicine-2--Streamline-Ultimate" fill="none" overflow="hidden"><path d="M38.5777 31.6941C41.438 31.7745 44.1539 32.9672 46.1484 35.0187 48.143 37.0702 49.2588 39.8184 49.2588 42.6797 49.2588 45.5409 48.143 48.2895 46.1484 50.3409 44.1539 52.3924 41.438 53.5849 38.5777 53.6655L17.7394 53.6655C14.8777 53.603 12.1534 52.4264 10.1458 50.3862 8.13825 48.3459 7.00591 45.6028 6.98965 42.7406 6.97338 39.8782 8.07448 37.1227 10.0587 35.0597 12.0429 32.9967 14.7537 31.7892 17.6145 31.6941L38.5777 31.6941Z" stroke="#66737C" stroke-width="3.33333" stroke-linecap="round" stroke-linejoin="round"/><path d="M28.1262 31.6941 28.1262 53.6653" stroke="#66737C" stroke-width="3.33333" stroke-linecap="round" stroke-linejoin="round"/><path d="M44.2059 20.5256C43.5316 21.1125 42.7451 21.5562 41.8941 21.8299 41.043 22.1035 40.1454 22.2014 39.2555 22.1175 38.3653 22.0335 37.5016 21.7696 36.717 21.3417 35.932 20.9138 35.2423 20.3309 34.6896 19.6283 34.137 18.9257 33.7329 18.1181 33.5018 17.2545 33.2707 16.391 33.2177 15.4895 33.3457 14.6048 33.4737 13.7201 33.7802 12.8706 34.2466 12.108 34.713 11.3454 35.3295 10.6855 36.0586 10.1684 38.8952 7.92541 47.9002 9.2448 47.9002 9.2448 47.9002 9.2448 47.0756 18.2826 44.2059 20.5256Z" stroke="#66737C" stroke-width="3.33333" stroke-linecap="round" stroke-linejoin="round"/><path d="M34.1981 19.5999C32.2912 21.1624 31.2335 22.6046 30.0991 24.7936 28.965 26.9827 28.2888 29.3801 28.1121 31.8391 28.1121 21.9438 23.1644 15.3468 14.9182 10.3991" stroke="#66737C" stroke-width="3.33333" stroke-linecap="round" stroke-linejoin="round"/><path d="M9.70493 16.9964C11.3199 18.3834 13.3992 19.1093 15.5265 19.0287 17.6539 18.948 19.6723 18.0668 21.1776 16.5615 22.6829 15.0562 23.5641 13.0378 23.6447 10.9105 23.7253 8.78311 22.9995 6.70383 21.6124 5.08887 18.3139 1.82338 6.67034 2.15322 6.67034 2.15322 6.67034 2.15322 6.40648 13.6979 9.70493 16.9964Z" stroke="#66737C" stroke-width="3.33333" stroke-linecap="round" stroke-linejoin="round"/></svg>