<svg width="60" height="60" viewBox="-2.14 -2.14 60 60" xmlns="http://www.w3.org/2000/svg" xmlns:xlink="http://www.w3.org/1999/xlink" id="Ice-Cream-Cone--Streamline-Ultimate.svg" overflow="hidden"><path d="M17.4125 26.1187 17.4125 22.6362C17.4125 20.7129 18.9717 19.1537 20.895 19.1537L20.895 19.1537C22.8183 19.1537 24.3775 20.7129 24.3775 22.6362L24.3775 26.1187" stroke="#66737C" stroke-width="3.57143" stroke-linecap="round" stroke-linejoin="round" fill="none"/><path d="M31.3425 26.1187 31.3425 26.1187C31.3425 28.0421 29.7833 29.6012 27.86 29.6012L27.86 29.6012C25.9367 29.6012 24.3775 28.0421 24.3775 26.1187L24.3775 26.1187" stroke="#66737C" stroke-width="3.57143" stroke-linecap="round" stroke-linejoin="round" fill="none"/><path d="M31.3425 26.1187 31.3425 22.6362C31.3425 20.7129 32.9017 19.1537 34.825 19.1537L34.825 19.1537C36.7483 19.1537 38.3075 20.7129 38.3075 22.6362L38.3075 26.1187" stroke="#66737C" stroke-width="3.57143" stroke-linecap="round" stroke-linejoin="round" fill="none"/><path d="M17.4125 26.1187 17.4125 26.1187C17.4125 28.0421 15.8533 29.6012 13.93 29.6012L13.93 29.6012C12.0067 29.6012 10.4475 28.0421 10.4475 26.1187L10.4475 19.1537C10.4756 9.54873 18.255 1.7693 27.86 1.74125L27.86 1.74125C37.465 1.7693 45.2444 9.54873 45.2725 19.1537L45.2725 26.1187C45.2725 28.0421 43.7133 29.6012 41.79 29.6012L41.79 29.6012C39.8667 29.6012 38.3075 28.0421 38.3075 26.1187L38.3075 26.1187" stroke="#66737C" stroke-width="3.57143" stroke-linecap="round" stroke-linejoin="round" fill="none"/><path d="M39.3012 28.5565 31.0685 51.8475C30.3208 53.6195 28.2781 54.4498 26.5061 53.7021 25.6698 53.3492 25.0043 52.6838 24.6515 51.8475L16.4188 28.5565" stroke="#66737C" stroke-width="3.57143" stroke-linecap="round" stroke-linejoin="round" fill="none"/></svg>