<svg width="60" height="60" viewBox="-1.875 -1.875 60 60" xmlns="http://www.w3.org/2000/svg" xmlns:xlink="http://www.w3.org/1999/xlink" id="Internet-Connection-Speed-5g--Streamline-Ultimate" fill="none" overflow="hidden"><path d="M23.5549 30.3518C11.3675 31.5237 1.7581 41.8362 1.7581 54.4924" stroke="#66737C" stroke-width="3.33333" stroke-linecap="round" stroke-linejoin="round"/><path d="M49.5708 54.4922C49.5708 47.6953 46.7583 41.6016 42.3052 37.1484" stroke="#66737C" stroke-width="3.33333" stroke-linecap="round" stroke-linejoin="round"/><path d="M30.1174 51.2109C28.2424 54.2578 24.4924 55.1953 21.4456 53.3203 18.3987 51.4453 17.4612 47.6953 19.3362 44.6484 21.2112 41.6016 37.1487 27.3047 37.1487 27.3047 37.1487 27.3047 31.9924 48.1641 30.1174 51.2109Z" stroke="#66737C" stroke-width="3.33333" stroke-linecap="round" stroke-linejoin="round"/><path d="M49.3106 11.9141 53.4122 11.9141 53.4122 14.6484C53.4122 16.9137 51.5759 18.75 49.3106 18.75L46.5764 18.75C44.3112 18.75 42.4748 16.9137 42.4748 14.6484L42.4748 6.44531C42.4748 4.18008 44.3112 2.34375 46.5764 2.34375L49.3106 2.34375C51.0966 2.34375 52.6158 3.48511 53.1787 5.07816" stroke="#66737C" stroke-width="3.33333" stroke-linecap="round" stroke-linejoin="round"/><path d="M36.0352 2.34375 27.1484 2.34375 25.7812 10.5469 26.7837 10.0457C27.9227 9.47618 29.1785 9.1797 30.4521 9.1797L32.6173 9.1797C34.8825 9.1797 36.7188 11.016 36.7188 13.2813L36.7188 14.6484C36.7188 16.9137 34.8825 18.75 32.6173 18.75L29.8828 18.75C28.0969 18.75 26.5777 17.6087 26.0147 16.0156" stroke="#66737C" stroke-width="3.33333" stroke-linecap="round" stroke-linejoin="round"/></svg>