<svg width="60" height="60" viewBox="-2.14 -2.14 60 60" xmlns="http://www.w3.org/2000/svg" xmlns:xlink="http://www.w3.org/1999/xlink" id="Lab-Whisk-Cup--Streamline-Ultimate.svg" fill="none" overflow="hidden"><path d="M33.6642 47.0137C35.5874 47.0137 37.1467 45.4545 37.1467 43.5312 37.1467 41.608 35.5874 40.0488 33.6642 40.0488 31.7409 40.0488 30.1817 41.608 30.1817 43.5312 30.1817 45.4545 31.7409 47.0137 33.6642 47.0137Z" stroke="#66737C" stroke-width="3.57143" stroke-linecap="round" stroke-linejoin="round"/><path d="M35.3035 40.4574 44.1119 5.22375" stroke="#66737C" stroke-width="3.57143" stroke-linecap="round" stroke-linejoin="round"/><path d="M28.4404 33.0838 45.8529 33.0838" stroke="#66737C" stroke-width="3.57143" stroke-linecap="round" stroke-linejoin="round"/><path d="M12.7692 24.3775 17.9929 24.3775" stroke="#66737C" stroke-width="3.57143" stroke-linecap="round" stroke-linejoin="round"/><path d="M12.7692 41.79 17.9929 41.79" stroke="#66737C" stroke-width="3.57143" stroke-linecap="round" stroke-linejoin="round"/><path d="M12.7692 33.0838 17.9929 33.0838" stroke="#66737C" stroke-width="3.57143" stroke-linecap="round" stroke-linejoin="round"/><path d="M31.9227 15.6713 11.0278 15.6713C10.7126 15.6713 10.4034 15.7568 10.1331 15.9188 9.86272 16.0807 9.64139 16.3131 9.49269 16.5909 9.34399 16.8688 9.27348 17.1818 9.28869 17.4965 9.30392 17.8113 9.40426 18.1161 9.57908 18.3783L12.4765 20.4562 12.7691 21.025 12.7691 50.4963C12.7691 51.4198 13.1359 52.3058 13.7891 52.9588 14.4421 53.6119 15.3279 53.9787 16.2516 53.9787L42.3702 53.9787C43.294 53.9787 44.1797 53.6119 44.8328 52.9588 45.4859 52.3058 45.8527 51.4198 45.8527 50.4963L45.8527 26.1187" stroke="#66737C" stroke-width="3.57143" stroke-linecap="round" stroke-linejoin="round"/><path d="M27.5698 26.1178C27.089 26.1178 26.6992 25.728 26.6992 25.2472 26.6992 24.7664 27.089 24.3766 27.5698 24.3766" stroke="#66737C" stroke-width="3.57143"/><path d="M27.5698 26.1178C28.0506 26.1178 28.4404 25.728 28.4404 25.2472 28.4404 24.7664 28.0506 24.3766 27.5698 24.3766" stroke="#66737C" stroke-width="3.57143"/><path d="M20.621 9.5931C20.1401 9.5931 19.7503 9.20332 19.7503 8.72248 19.7503 8.24164 20.1401 7.85185 20.621 7.85185" stroke="#66737C" stroke-width="3.57143"/><path d="M20.621 9.5931C21.1018 9.5931 21.4916 9.20332 21.4916 8.72248 21.4916 8.24164 21.1018 7.85185 20.621 7.85185" stroke="#66737C" stroke-width="3.57143"/><g><path d="M33.6479 3.49873C33.1671 3.49873 32.7773 3.10894 32.7773 2.6281 32.7773 2.14727 33.1671 1.75748 33.6479 1.75748" stroke="#66737C" stroke-width="3.57143"/><path d="M33.6479 3.49873C34.1287 3.49873 34.5185 3.10894 34.5185 2.6281 34.5185 2.14727 34.1287 1.75748 33.6479 1.75748" stroke="#66737C" stroke-width="3.57143"/></g></svg>