<svg width="60" height="60" viewBox="-1.875 -1.875 60 60" xmlns="http://www.w3.org/2000/svg" xmlns:xlink="http://www.w3.org/1999/xlink" id="Language-Class-Chinese--Streamline-Ultimate" fill="none" overflow="hidden"><path d="M17.8125 14.8828 38.4375 14.8828" stroke="#66737C" stroke-width="3.33333" stroke-linecap="round" stroke-linejoin="round" stroke-miterlimit="10"/><path d="M22.9686 14.8828C22.9686 21.6796 29.531 28.2422 36.0935 30.5859" stroke="#66737C" stroke-width="3.33333" stroke-linecap="round" stroke-linejoin="round" stroke-miterlimit="10"/><path d="M33.2812 14.8828C33.2812 21.6796 26.7188 28.2422 20.1562 30.5859" stroke="#66737C" stroke-width="3.33333" stroke-linecap="round" stroke-linejoin="round" stroke-miterlimit="10"/><path d="M25.5466 7.14844 28.1248 9.72656" stroke="#66737C" stroke-width="3.33333" stroke-linecap="round" stroke-linejoin="round" stroke-miterlimit="10"/><path d="M12.5872 5.27168C10.4684 5.03789 8.11413 4.8041 5.5245 4.57031 3.4057 4.57031 1.75781 5.97307 1.75781 8.07722L1.75781 39.172C1.75781 41.0423 3.17032 42.6787 5.05371 42.6787 18.9436 43.3802 26.948 47.8223 28.125 51.7969 29.302 47.8223 37.3064 43.3802 51.1964 42.6787 53.0796 42.6787 54.4922 41.0423 54.4922 39.172L54.4922 8.07722C54.4922 5.97307 52.8443 4.57031 50.7253 4.57031 48.3713 4.8041 46.017 5.03789 44.1338 5.27168" stroke="#66737C" stroke-width="3.33333" stroke-linecap="round" stroke-linejoin="round" stroke-miterlimit="10"/><path d="M28.125 39.7266 28.125 51.9141" stroke="#66737C" stroke-width="3.33333" stroke-linecap="round" stroke-linejoin="round" stroke-miterlimit="10"/></svg>