<svg width="60" height="60" viewBox="-2.14 -2.14 60 60" xmlns="http://www.w3.org/2000/svg" xmlns:xlink="http://www.w3.org/1999/xlink" id="Layers--Streamline-Ultimate.svg" overflow="hidden"><path d="M53.2056 14.3943 29.5037 2.14058C28.4726 1.60808 27.2474 1.60808 26.2163 2.14058L2.51436 14.3943C1.81299 14.7576 1.53887 15.6206 1.90209 16.322 2.03801 16.5844 2.25191 16.7983 2.51436 16.9342L26.2163 29.195C27.2474 29.7275 28.4726 29.7275 29.5037 29.195L53.2056 16.9482C53.907 16.5849 54.1811 15.7219 53.8179 15.0205 53.682 14.7581 53.4681 14.5442 53.2056 14.4083Z" stroke="#66737C" stroke-width="3.57143" stroke-linecap="round" stroke-linejoin="round" fill="none"/><path d="M11.8405 21.7656 2.51436 26.59C1.81299 26.9533 1.53887 27.8163 1.90209 28.5177 2.03801 28.7801 2.25191 28.994 2.51436 29.13L26.2163 41.3907C27.2474 41.9232 28.4726 41.9232 29.5037 41.3907L53.2056 29.13C53.907 28.7667 54.1811 27.9037 53.8179 27.2023 53.682 26.9399 53.4681 26.726 53.2056 26.59L43.8795 21.7656" stroke="#66737C" stroke-width="3.57143" stroke-linecap="round" stroke-linejoin="round" fill="none"/><path d="M11.8405 33.9544 2.51436 38.7718C1.81299 39.1351 1.53887 39.9981 1.90209 40.6995 2.03801 40.9619 2.25191 41.1758 2.51436 41.3117L26.2163 53.5725C27.2474 54.105 28.4726 54.105 29.5037 53.5725L53.2056 41.3257C53.907 40.9624 54.1811 40.0994 53.8179 39.398 53.682 39.1356 53.4681 38.9217 53.2056 38.7858L43.8795 33.9544" stroke="#66737C" stroke-width="3.57143" stroke-linecap="round" stroke-linejoin="round" fill="none"/></svg>