<svg width="60" height="60" viewBox="-1.875 -1.875 60 60" xmlns="http://www.w3.org/2000/svg" xmlns:xlink="http://www.w3.org/1999/xlink" id="Layout-Bullets--Streamline-Ultimate" overflow="hidden"><defs></defs><path d="M22.8516 1.75078 50.9766 1.75078C50.9766 1.75078 54.4922 1.75078 54.4922 5.26641L54.4922 8.78203C54.4922 8.78203 54.4922 12.2977 50.9766 12.2977L22.8516 12.2977C22.8516 12.2977 19.3359 12.2977 19.3359 8.78203L19.3359 5.26641C19.3359 5.26641 19.3359 1.75078 22.8516 1.75078" stroke="#66737C" stroke-width="3.33333" stroke-linecap="round" stroke-linejoin="round" fill="none"/><path d="M22.8516 22.8445 50.9766 22.8445C50.9766 22.8445 54.4922 22.8445 54.4922 26.3602L54.4922 29.8758C54.4922 29.8758 54.4922 33.3914 50.9766 33.3914L22.8516 33.3914C22.8516 33.3914 19.3359 33.3914 19.3359 29.8758L19.3359 26.3602C19.3359 26.3602 19.3359 22.8445 22.8516 22.8445" stroke="#66737C" stroke-width="3.33333" stroke-linecap="round" stroke-linejoin="round" fill="none"/><path d="M22.8516 43.9383 50.9766 43.9383C50.9766 43.9383 54.4922 43.9383 54.4922 47.4539L54.4922 50.9695C54.4922 50.9695 54.4922 54.4852 50.9766 54.4852L22.8516 54.4852C22.8516 54.4852 19.3359 54.4852 19.3359 50.9695L19.3359 47.4539C19.3359 47.4539 19.3359 43.9383 22.8516 43.9383" stroke="#66737C" stroke-width="3.33333" stroke-linecap="round" stroke-linejoin="round" fill="none"/><path d="M5.27344 1.75078 8.78906 1.75078C8.78906 1.75078 12.3047 1.75078 12.3047 5.26641L12.3047 8.78203C12.3047 8.78203 12.3047 12.2977 8.78906 12.2977L5.27344 12.2977C5.27344 12.2977 1.75781 12.2977 1.75781 8.78203L1.75781 5.26641C1.75781 5.26641 1.75781 1.75078 5.27344 1.75078" stroke="#66737C" stroke-width="3.33333" stroke-linecap="round" stroke-linejoin="round" fill="none"/><path d="M5.27344 22.8445 8.78906 22.8445C8.78906 22.8445 12.3047 22.8445 12.3047 26.3602L12.3047 29.8758C12.3047 29.8758 12.3047 33.3914 8.78906 33.3914L5.27344 33.3914C5.27344 33.3914 1.75781 33.3914 1.75781 29.8758L1.75781 26.3602C1.75781 26.3602 1.75781 22.8445 5.27344 22.8445" stroke="#66737C" stroke-width="3.33333" stroke-linecap="round" stroke-linejoin="round" fill="none"/><path d="M5.27344 43.9383 8.78906 43.9383C8.78906 43.9383 12.3047 43.9383 12.3047 47.4539L12.3047 50.9695C12.3047 50.9695 12.3047 54.4852 8.78906 54.4852L5.27344 54.4852C5.27344 54.4852 1.75781 54.4852 1.75781 50.9695L1.75781 47.4539C1.75781 47.4539 1.75781 43.9383 5.27344 43.9383" stroke="#66737C" stroke-width="3.33333" stroke-linecap="round" stroke-linejoin="round" fill="none"/></svg>