<svg width="60" height="60" viewBox="-1.875 -1.875 60 60" xmlns="http://www.w3.org/2000/svg" xmlns:xlink="http://www.w3.org/1999/xlink" id="Layout-Dashboard--Streamline-Ultimate" overflow="hidden"><path d="M24.6094 29.3578C24.612 30.6228 23.5892 31.6508 22.3242 31.6547L4.04297 31.6547C2.77833 31.6521 1.75522 30.6248 1.75781 29.3602 1.75781 29.3594 1.75781 29.3586 1.75781 29.3578L1.75781 4.06875C1.75522 2.80281 2.77937 1.77447 4.0453 1.77187L22.3266 1.80234C23.5907 1.80751 24.612 2.8351 24.6094 4.09922Z" stroke="#66737C" stroke-width="3.33333" stroke-linecap="round" stroke-linejoin="round" fill="none"/><path d="M54.4828 15.3375C54.4738 16.5909 53.451 17.6 52.1977 17.5922L33.9164 17.5922C32.6634 17.6013 31.6404 16.5929 31.6313 15.3399 31.6313 15.3391 31.6313 15.3383 31.6312 15.3375L31.6313 4.05703C31.639 2.80495 32.6596 1.79585 33.9117 1.80234L52.193 1.77188C53.4477 1.76278 54.4725 2.77188 54.4828 4.02656Z" stroke="#66737C" stroke-width="3.33333" stroke-linecap="round" stroke-linejoin="round" fill="none"/><path d="M24.6094 52.2445C24.6016 53.5014 23.5765 54.514 22.3196 54.5062 22.3196 54.5062 22.3196 54.5062 22.3195 54.5062L4.03828 54.4758C2.7849 54.481 1.76427 53.4698 1.75781 52.2164L1.75781 40.9453C1.76426 39.691 2.78628 38.6795 4.04055 38.6859 4.04136 38.6859 4.04216 38.6859 4.04297 38.6859L22.3242 38.6859C23.5789 38.6794 24.6016 39.6906 24.6094 40.9453Z" stroke="#66737C" stroke-width="3.33333" stroke-linecap="round" stroke-linejoin="round" fill="none"/><path d="M33.9188 54.5062C32.6528 54.5037 31.6287 53.4753 31.6312 52.2094 31.6312 52.2086 31.6312 52.2078 31.6313 52.207L31.6313 26.9227C31.6274 25.6567 32.6505 24.6273 33.9164 24.6234L52.1977 24.6234C53.4636 24.6273 54.4867 25.6567 54.4828 26.9226L54.4828 52.1766C54.4854 53.4411 53.4645 54.4693 52.2 54.4758Z" stroke="#66737C" stroke-width="3.33333" stroke-linecap="round" stroke-linejoin="round" fill="none"/></svg>