<svg width="60" height="60" viewBox="-2.14 -2.14 60 60" xmlns="http://www.w3.org/2000/svg" xmlns:xlink="http://www.w3.org/1999/xlink" id="Light-Bulb-Shine--Streamline-Ultimate.svg" overflow="hidden"><path d="M31.375 54.5592 24.41 54.5592" stroke="#66737C" stroke-width="3.57143" stroke-linecap="round" stroke-linejoin="round" fill="none"/><path d="M33.6967 49.9158 22.0883 49.9158" stroke="#66737C" stroke-width="3.57143" stroke-linecap="round" stroke-linejoin="round" fill="none"/><path d="M27.8925 1.16083 27.8925 8.12583" stroke="#66737C" stroke-width="3.57143" stroke-linecap="round" stroke-linejoin="round" fill="none"/><path d="M8.19084 9.32149 13.1174 14.2457" stroke="#66737C" stroke-width="3.57143" stroke-linecap="round" stroke-linejoin="round" fill="none"/><path d="M47.5918 9.32149 42.6676 14.2457" stroke="#66737C" stroke-width="3.57143" stroke-linecap="round" stroke-linejoin="round" fill="none"/><path d="M1.19334 29.0208 8.15834 29.0208" stroke="#66737C" stroke-width="3.57143" stroke-linecap="round" stroke-linejoin="round" fill="none"/><path d="M54.5917 29.0208 47.6267 29.0208" stroke="#66737C" stroke-width="3.57143" stroke-linecap="round" stroke-linejoin="round" fill="none"/><path d="M41.8225 29.0208C41.831 21.3275 35.6012 15.084 27.9079 15.0755 20.2145 15.067 13.971 21.2968 13.9625 28.9901 13.9575 33.5529 16.1873 37.8289 19.9315 40.4365 20.5555 40.8705 20.9275 41.5825 20.9275 42.3426L20.9275 44.1117C20.9275 44.7528 21.4472 45.2725 22.0883 45.2725L33.6967 45.2725C34.3378 45.2725 34.8575 44.7528 34.8575 44.1117L34.8575 42.3402C34.8575 41.5801 35.2295 40.8682 35.8535 40.4341 39.5943 37.8386 41.8247 33.5739 41.8225 29.0208Z" stroke="#66737C" stroke-width="3.57143" stroke-linecap="round" stroke-linejoin="round" fill="none"/></svg>