<svg width="60" height="60" viewBox="-1.8775 -1.875 60 60" xmlns="http://www.w3.org/2000/svg" xmlns:xlink="http://www.w3.org/1999/xlink" id="Local-Language-Content-2--Streamline-Ultimate" overflow="hidden"><defs></defs><path d="M24.4289 44.5922 1.16953 44.5922 1.16953 10.8398 16.2258 10.8398 24.4289 17.8711 24.4289 44.5922Z" stroke="#66737C" stroke-width="3.33333" stroke-linecap="round" stroke-linejoin="round" fill="none"/><path d="M30.1313 19.7484 34.4039 16.3008" stroke="#66737C" stroke-width="3.33333" stroke-linecap="round" stroke-linejoin="round" fill="none"/><path d="M30.1313 38.257 34.4039 41.7047" stroke="#66737C" stroke-width="3.33333" stroke-linecap="round" stroke-linejoin="round" fill="none"/><path d="M38.6695 42.4805 55.0758 42.4805" stroke="#66737C" stroke-width="3.33333" stroke-linecap="round" stroke-linejoin="round" fill="none"/><path d="M46.8727 42.4805 46.8727 38.3789" stroke="#66737C" stroke-width="3.33333" stroke-linecap="round" stroke-linejoin="round" fill="none"/><path d="M51.3469 42.4805C51.3469 42.4805 50.2289 54.7852 39.0422 54.7852" stroke="#66737C" stroke-width="3.33333" stroke-linecap="round" stroke-linejoin="round" fill="none"/><path d="M43.9313 47.1609C45.5297 51.7427 49.86 54.8049 54.7125 54.7852" stroke="#66737C" stroke-width="3.33333" stroke-linecap="round" stroke-linejoin="round" fill="none"/><path d="M42.7711 20.6063 42.7711 12.4031C42.7711 10.1379 44.6074 8.30156 46.8727 8.30156 49.1379 8.30156 50.9742 10.1379 50.9742 12.4031L50.9742 20.6063" stroke="#66737C" stroke-width="3.33333" stroke-linecap="round" stroke-linejoin="round" fill="none"/><path d="M42.7711 15.1359 50.9742 15.1359" stroke="#66737C" stroke-width="3.33333" stroke-linecap="round" stroke-linejoin="round" fill="none"/><path d="M40.0359 4.2C40.0359 4.2 42.7711 1.46484 44.1375 1.46484 45.5039 1.46484 49.6055 4.2 50.9742 4.2 52.343 4.2 55.0781 1.46484 55.0781 1.46484" stroke="#66737C" stroke-width="3.33333" stroke-linecap="round" stroke-linejoin="round" fill="none"/></svg>