<svg width="60" height="60" viewBox="-1.875 -1.875 60 60" xmlns="http://www.w3.org/2000/svg" xmlns:xlink="http://www.w3.org/1999/xlink" id="Location-User--Streamline-Ultimate" overflow="hidden"><path d="M43.9125 32.3438C50.3344 34.5867 54.4922 38.1656 54.4922 42.1992 54.4922 48.9961 42.6867 54.5039 28.125 54.5039 13.5633 54.5039 1.75781 48.9844 1.75781 42.1875 1.75781 38.168 5.88516 34.6008 12.2695 32.3555" stroke="#66737C" stroke-width="3.57143" stroke-linecap="round" stroke-linejoin="round" fill="none"/><path d="M21.9727 7.91016C21.9727 11.308 24.7272 14.0625 28.125 14.0625 31.5228 14.0625 34.2773 11.308 34.2773 7.91016 34.2773 4.51231 31.5228 1.75781 28.125 1.75781 24.7272 1.75781 21.9727 4.51231 21.9727 7.91016Z" stroke="#66737C" stroke-width="3.57143" stroke-linecap="round" stroke-linejoin="round" fill="none"/><path d="M36.9141 29.8711 36.9141 24.6094C36.9141 19.7553 32.9791 15.8203 28.125 15.8203 23.2709 15.8203 19.3359 19.7553 19.3359 24.6094L19.3359 29.8828 22.8516 29.8828 24.6094 43.9453 31.6406 43.9453 33.3984 29.8828Z" stroke="#66737C" stroke-width="3.57143" stroke-linecap="round" stroke-linejoin="round" fill="none"/></svg>