<svg width="60" height="60" viewBox="-2.14 -2.14 60 60" xmlns="http://www.w3.org/2000/svg" xmlns:xlink="http://www.w3.org/1999/xlink" id="Logic-Chart-Organize--Streamline-Ultimate.svg" fill="none" overflow="hidden"><path d="M22.346 20.3146 3.77271 20.3146C2.81105 20.3146 2.03146 21.0942 2.03146 22.0558L2.03146 33.6642C2.03146 34.6258 2.81105 35.4054 3.77271 35.4054L22.346 35.4054C23.3077 35.4054 24.0873 34.6258 24.0873 33.6642L24.0873 22.0558C24.0873 21.0942 23.3077 20.3146 22.346 20.3146Z" stroke="#66737C" stroke-width="3.57143" stroke-linecap="round" stroke-linejoin="round"/><path d="M24.0873 27.86 43.241 27.86" stroke="#66737C" stroke-width="3.57143" stroke-linecap="round" stroke-linejoin="round"/><path d="M43.241 48.755 36.276 48.755C35.3525 48.755 34.4665 48.3882 33.8134 47.7351 33.1604 47.082 32.7935 46.1961 32.7935 45.2725L32.7935 10.4475C32.7935 9.52389 33.1604 8.63811 33.8134 7.985 34.4665 7.33192 35.3525 6.965 36.276 6.965L43.241 6.965" stroke="#66737C" stroke-width="3.57143" stroke-linecap="round" stroke-linejoin="round"/><path d="M53.6885 48.755C53.6885 45.8701 51.3497 43.5312 48.4648 43.5312 45.5799 43.5312 43.241 45.8701 43.241 48.755 43.241 51.6399 45.5799 53.9787 48.4648 53.9787 51.3497 53.9787 53.6885 51.6399 53.6885 48.755Z" stroke="#66737C" stroke-width="3.57143" stroke-linecap="round" stroke-linejoin="round"/><path d="M53.6885 27.86C53.6885 24.9751 51.3497 22.6362 48.4648 22.6362 45.5799 22.6362 43.241 24.9751 43.241 27.86 43.241 30.7449 45.5799 33.0838 48.4648 33.0838 51.3497 33.0838 53.6885 30.7449 53.6885 27.86Z" stroke="#66737C" stroke-width="3.57143" stroke-linecap="round" stroke-linejoin="round"/><path d="M53.6885 6.965C53.6885 4.08 51.3497 1.74125 48.4648 1.74125 45.5799 1.74125 43.241 4.08 43.241 6.965 43.241 9.85 45.5799 12.1888 48.4648 12.1888 51.3497 12.1888 53.6885 9.85 53.6885 6.965Z" stroke="#66737C" stroke-width="3.57143" stroke-linecap="round" stroke-linejoin="round"/></svg>