<svg width="60" height="60" viewBox="-2.14 -2.14 60 60" xmlns="http://www.w3.org/2000/svg" xmlns:xlink="http://www.w3.org/1999/xlink" id="Machine-Learning-Infrastructure--Streamline-Ultimate.svg" fill="none" overflow="hidden"><path d="M20.4306 26.5831C25.5595 26.5831 29.7173 24.504 29.7173 21.9396 29.7173 19.3752 25.5595 17.2963 20.4306 17.2963 15.3018 17.2963 11.144 19.3752 11.144 21.9396 11.144 24.504 15.3018 26.5831 20.4306 26.5831Z" stroke="#66737C" stroke-width="3.57143" stroke-linecap="round" stroke-linejoin="round" stroke-miterlimit="10"/><path d="M11.144 21.9396 11.144 29.8334C11.144 32.3872 15.323 34.4765 20.4306 34.4765" stroke="#66737C" stroke-width="3.57143" stroke-linecap="round" stroke-linejoin="round" stroke-miterlimit="10"/><path d="M11.144 29.8332 11.144 37.7269C11.144 40.2807 15.323 42.3702 20.4306 42.3702" stroke="#66737C" stroke-width="3.57143" stroke-linecap="round" stroke-linejoin="round" stroke-miterlimit="10"/><path d="M36.218 38.1914C41.347 38.1914 45.5047 36.1124 45.5047 33.5481 45.5047 30.9836 41.347 28.9048 36.218 28.9048 31.0892 28.9048 26.9313 30.9836 26.9313 33.5481 26.9313 36.1124 31.0892 38.1914 36.218 38.1914Z" stroke="#66737C" stroke-width="3.57143" stroke-linecap="round" stroke-linejoin="round" stroke-miterlimit="10"/><path d="M26.9313 33.5481 26.9313 41.4415C26.9313 43.9953 31.1103 46.0849 36.218 46.0849 41.3257 46.0849 45.5047 43.9953 45.5047 41.4415L45.5047 33.5481" stroke="#66737C" stroke-width="3.57143" stroke-linecap="round" stroke-linejoin="round" stroke-miterlimit="10"/><path d="M26.9313 41.4415 26.9313 49.3352C26.9313 51.889 31.1103 53.9785 36.218 53.9785 41.3257 53.9785 45.5047 51.889 45.5047 49.3352L45.5047 41.4415" stroke="#66737C" stroke-width="3.57143" stroke-linecap="round" stroke-linejoin="round" stroke-miterlimit="10"/><path d="M52.1295 31.4586C53.2853 29.6012 53.9787 27.5117 53.9787 25.1901 53.9787 18.9216 48.8936 13.8139 42.653 13.8139 40.3415 13.8139 38.0301 14.5104 36.1811 15.9034 34.5631 7.77761 27.6288 1.74125 19.0767 1.74125 9.6 1.74125 1.74125 9.63492 1.74125 19.1537 1.74125 22.4041 2.66581 25.4223 4.28378 27.9761" stroke="#66737C" stroke-width="3.57143" stroke-linecap="round" stroke-linejoin="round" stroke-miterlimit="10"/></svg>