<svg width="60" height="60" viewBox="-1.875 -1.875 60 60" xmlns="http://www.w3.org/2000/svg" xmlns:xlink="http://www.w3.org/1999/xlink" id="Map-Marks--Streamline-Ultimate" fill="none" overflow="hidden"><path d="M6.76195 6.71531C6.43139 6.62503 6.08482 6.60984 5.74762 6.67085 5.41043 6.73188 5.09116 6.86759 4.81322 7.068 4.53527 7.26841 4.3057 7.5285 4.14129 7.82916 3.9769 8.12981 3.88186 8.46345 3.86313 8.80559L1.81189 46.5684C1.78029 47.1028 1.93628 47.6313 2.25292 48.063 2.56955 48.4945 3.02695 48.802 3.54614 48.9321L14.9049 51.7713C15.2869 51.8672 15.6871 51.8632 16.0672 51.7598L27.5177 48.6382C27.9134 48.5304 28.3305 48.5304 28.7259 48.6382L40.1766 51.7598C40.5567 51.8632 40.9568 51.8672 41.3388 51.7713L52.7023 48.9321C53.2198 48.8027 53.6761 48.4971 53.993 48.068 54.3098 47.6388 54.4676 47.1127 54.4388 46.5799L52.399 8.81709C52.3802 8.47493 52.2853 8.1413 52.1208 7.84064 51.9565 7.53998 51.7268 7.2799 51.4488 7.07948 51.1709 6.87907 50.8516 6.74337 50.5146 6.68234 50.1773 6.62133 49.8307 6.63652 49.5002 6.7268L40.2455 9.25352C39.8313 9.36773 39.3933 9.36216 38.9822 9.23744L31.1766 6.88523" stroke="#66737C" stroke-width="3.57143" stroke-linecap="round" stroke-linejoin="round"/><path d="M39.2363 23.0106C41.3658 23.0106 43.4081 23.8566 44.9137 25.3624 46.4196 26.868 47.2655 28.9104 47.2655 31.0399 47.2655 34.4674 42.4695 40.9905 40.2909 43.7759 40.1658 43.9362 40.0057 44.0655 39.8229 44.1548 39.6403 44.2439 39.4397 44.2901 39.2363 44.2901 39.033 44.2901 38.8324 44.2439 38.6498 44.1548 38.467 44.0655 38.307 43.9362 38.1818 43.7759 36.0033 40.9889 31.2073 34.4674 31.2073 31.0399 31.2073 28.9104 32.0531 26.868 33.559 25.3624 35.0646 23.8566 37.107 23.0106 39.2363 23.0106L39.2363 23.0106Z" stroke="#66737C" stroke-width="3.57143" stroke-linecap="round" stroke-linejoin="round"/><path d="M19.194 4.40998C21.3235 4.40998 23.3658 5.25591 24.8716 6.76167 26.3773 8.26744 27.2231 10.3097 27.2231 12.4392 27.2231 15.8667 22.4271 22.39 20.2485 25.1752 20.1234 25.3355 19.9634 25.4651 19.7807 25.5541 19.5979 25.6432 19.3973 25.6896 19.194 25.6896 18.9907 25.6896 18.7901 25.6432 18.6074 25.5541 18.4247 25.4651 18.2647 25.3355 18.1395 25.1752 15.961 22.3882 11.1649 15.8667 11.1649 12.4392 11.1649 10.3097 12.0108 8.26744 13.5165 6.76167 15.0223 5.25591 17.0646 4.40998 19.194 4.40998L19.194 4.40998Z" stroke="#66737C" stroke-width="3.57143" stroke-linecap="round" stroke-linejoin="round"/><path d="M39.2367 31.5509C38.8662 31.5509 38.5657 31.2506 38.5657 30.8798 38.5657 30.5093 38.8662 30.2091 39.2367 30.2091" stroke="#66737C" stroke-width="3.57143" stroke-linecap="round" stroke-linejoin="round"/><path d="M39.2365 31.5509C39.607 31.5509 39.9075 31.2506 39.9075 30.8798 39.9075 30.5093 39.607 30.2091 39.2365 30.2091" stroke="#66737C" stroke-width="3.57143" stroke-linecap="round" stroke-linejoin="round"/><path d="M19.1944 12.9503C18.8238 12.9503 18.5234 12.6499 18.5234 12.2793 18.5234 11.9087 18.8238 11.6083 19.1944 11.6083" stroke="#66737C" stroke-width="3.57143" stroke-linecap="round" stroke-linejoin="round"/><path d="M19.1942 12.9503C19.5648 12.9503 19.8652 12.6499 19.8652 12.2793 19.8652 11.9087 19.5648 11.6083 19.1942 11.6083" stroke="#66737C" stroke-width="3.57143" stroke-linecap="round" stroke-linejoin="round"/></svg>