<svg width="60" height="60" viewBox="-1.875 -1.875 60 60" xmlns="http://www.w3.org/2000/svg" xmlns:xlink="http://www.w3.org/1999/xlink" id="Maps-Pin-2--Streamline-Ultimate" overflow="hidden"><path d="M19.3359 27.5836C18.8889 27.5832 18.4459 27.4981 18.0305 27.3328L4.16953 21.7969C3.2684 21.4357 2.24511 21.8735 1.88395 22.7746 1.79949 22.9853 1.75665 23.2105 1.75781 23.4375L1.75781 45.3516C1.75757 46.7894 2.63293 48.0825 3.96797 48.6164L18.0305 54.2414C18.8685 54.5766 19.8034 54.5766 20.6414 54.2414L35.6086 48.2531C36.4466 47.918 37.3815 47.918 38.2195 48.2531L52.0805 53.7984C52.9816 54.1596 54.0049 53.7219 54.366 52.8207 54.4505 52.61 54.4933 52.3849 54.4922 52.1578L54.4922 30.2344C54.4924 28.7965 53.6171 27.5035 52.282 26.9695L38.2195 21.3445C37.3815 21.0094 36.4466 21.0094 35.6086 21.3445L33.4852 22.1953" stroke="#66737C" stroke-width="3.57143" stroke-linecap="round" stroke-linejoin="round" fill="none"/><path d="M19.3359 27.5836 19.3359 54.4922" stroke="#66737C" stroke-width="3.57143" stroke-linecap="round" stroke-linejoin="round" fill="none"/><path d="M36.9141 21.0938 36.9141 48.0023" stroke="#66737C" stroke-width="3.57143" stroke-linecap="round" stroke-linejoin="round" fill="none"/><path d="M26.3672 15.8203 26.3672 36.9141" stroke="#66737C" stroke-width="3.57143" stroke-linecap="round" stroke-linejoin="round" fill="none"/><path d="M19.3359 8.78906C19.3359 12.6723 22.4839 15.8203 26.3672 15.8203 30.2504 15.8203 33.3984 12.6723 33.3984 8.78906 33.3984 4.90581 30.2504 1.75781 26.3672 1.75781 22.4839 1.75781 19.3359 4.90581 19.3359 8.78906Z" stroke="#66737C" stroke-width="3.57143" stroke-linecap="round" stroke-linejoin="round" fill="none"/></svg>