<svg width="60" height="60" viewBox="-1.875 -1.875 60 60" xmlns="http://www.w3.org/2000/svg" xmlns:xlink="http://www.w3.org/1999/xlink" id="Maze-Strategy--Streamline-Ultimate" overflow="hidden"><path d="M45.7031 8.73984 49.2188 8.73984C51.1604 8.73984 52.7344 10.3138 52.7344 12.2555L52.7344 50.9273C52.7344 52.869 51.1604 54.443 49.2188 54.443L31.6406 54.443" stroke="#66737C" stroke-width="3.33333" stroke-linecap="round" stroke-linejoin="round" fill="none"/><path d="M24.6094 54.443 24.6094 40.3805 17.5781 40.3805 17.5781 29.8336 24.6094 29.8336 24.6094 15.7711 31.6406 15.7711 31.6406 1.70859" stroke="#66737C" stroke-width="3.33333" stroke-linecap="round" stroke-linejoin="round" fill="none"/><path d="M24.6094 8.66484 31.6406 1.70859 38.6719 8.66484" stroke="#66737C" stroke-width="3.33333" stroke-linecap="round" stroke-linejoin="round" fill="none"/><path d="M35.1562 36.8648 35.1562 47.4117" stroke="#66737C" stroke-width="3.33333" stroke-linecap="round" stroke-linejoin="round" fill="none"/><path d="M15.8203 8.73984 7.03125 8.73984C5.08962 8.73984 3.51562 10.3138 3.51562 12.2555L3.51562 50.9273C3.51562 52.869 5.08962 54.443 7.03125 54.443L17.5781 54.443 17.5781 47.4117 10.5469 47.4117 10.5469 42.1383" stroke="#66737C" stroke-width="3.33333" stroke-linecap="round" stroke-linejoin="round" fill="none"/><path d="M42.1875 54.443 42.1875 33.3492 45.7031 33.3492" stroke="#66737C" stroke-width="3.33333" stroke-linecap="round" stroke-linejoin="round" fill="none"/><path d="M52.7344 26.318 35.1562 26.318 35.1562 29.8336" stroke="#66737C" stroke-width="3.33333" stroke-linecap="round" stroke-linejoin="round" fill="none"/><path d="M10.5469 17.5289 10.5469 22.8023 15.8203 22.8023" stroke="#66737C" stroke-width="3.33333" stroke-linecap="round" stroke-linejoin="round" fill="none"/><path d="M42.1875 26.318 42.1875 19.2867" stroke="#66737C" stroke-width="3.33333" stroke-linecap="round" stroke-linejoin="round" fill="none"/></svg>