<svg width="60" height="60" viewBox="-1.875 -1.875 60 60" xmlns="http://www.w3.org/2000/svg" xmlns:xlink="http://www.w3.org/1999/xlink" id="Measure-Ruler-Divider--Streamline-Ultimate" overflow="hidden"><path d="M9.34688 47.557 8.18203 54.4922" stroke="#66737C" stroke-width="3.33333" stroke-linecap="round" stroke-linejoin="round" fill="none"/><path d="M28.1133 47.557 29.2758 54.4922" stroke="#66737C" stroke-width="3.33333" stroke-linecap="round" stroke-linejoin="round" fill="none"/><path d="M11.8242 15.0703 5.88047 46.9758 12.8133 48.1406 17.9508 21.0516" stroke="#66737C" stroke-width="3.33333" stroke-linecap="round" stroke-linejoin="round" fill="none"/><path d="M19.5094 21.0492 24.6445 48.1406 31.5797 46.9758 25.6641 15.2344" stroke="#66737C" stroke-width="3.33333" stroke-linecap="round" stroke-linejoin="round" fill="none"/><path d="M25.7602 14.0625C25.7614 17.9458 22.6144 21.0948 18.7312 21.096 18.3377 21.0961 17.945 21.0632 17.557 20.9977 14.0903 20.3032 11.6208 17.2223 11.6977 13.6875L11.6977 10.5469C11.6977 9.57606 12.4847 8.78906 13.4555 8.78906L24.0023 8.78906C24.9732 8.78906 25.7602 9.57606 25.7602 10.5469Z" stroke="#66737C" stroke-width="3.33333" stroke-linecap="round" stroke-linejoin="round" fill="none"/><path d="M18.7289 8.78906 18.7289 1.75781" stroke="#66737C" stroke-width="3.33333" stroke-linecap="round" stroke-linejoin="round" fill="none"/><path d="M36.307 54.4922 46.8539 54.4922C48.7955 54.4922 50.3695 52.9182 50.3695 50.9766L50.3695 5.27344C50.3695 3.33181 48.7955 1.75781 46.8539 1.75781L36.307 1.75781C34.3654 1.75781 32.7914 3.33181 32.7914 5.27344L32.7914 17.5781" stroke="#66737C" stroke-width="3.33333" stroke-linecap="round" stroke-linejoin="round" fill="none"/><path d="M43.3383 12.3047 50.3695 12.3047" stroke="#66737C" stroke-width="3.33333" stroke-linecap="round" stroke-linejoin="round" fill="none"/><path d="M43.3383 22.8516 50.3695 22.8516" stroke="#66737C" stroke-width="3.33333" stroke-linecap="round" stroke-linejoin="round" fill="none"/><path d="M43.3383 33.3984 50.3695 33.3984" stroke="#66737C" stroke-width="3.33333" stroke-linecap="round" stroke-linejoin="round" fill="none"/><path d="M43.3383 43.9453 50.3695 43.9453" stroke="#66737C" stroke-width="3.33333" stroke-linecap="round" stroke-linejoin="round" fill="none"/></svg>