<svg width="60" height="60" viewBox="-2.14 -2.14 60 60" xmlns="http://www.w3.org/2000/svg" xmlns:xlink="http://www.w3.org/1999/xlink" id="Meeting-Headphones-1--Streamline-Ultimate.svg" overflow="hidden"><g><path d="M7.08108 23.356C6.53935 11.9186 15.3721 2.20754 26.8095 1.66581 38.2469 1.12408 47.9579 9.95678 48.4996 21.3942 48.5306 22.0478 48.5306 22.7024 48.4996 23.356" stroke="#66737C" stroke-width="3.57143" stroke-linecap="round" stroke-linejoin="round" fill="none"/><path d="M45.4814 42.4169C42.2771 46.9219 37.4028 49.9568 31.9461 50.8445" stroke="#66737C" stroke-width="3.57143" stroke-linecap="round" stroke-linejoin="round" fill="none"/><path d="M13.4192 36.7984C13.8495 39.6564 11.8876 42.3241 9.03128 42.7651 6.20333 43.1529 3.5877 41.199 3.15747 38.3771L1.8109 29.3691C1.35609 26.5331 3.28638 23.8655 6.12232 23.4107 6.14008 23.4078 6.15785 23.4051 6.17563 23.4024 9.0271 23.0169 11.6534 25.01 12.0494 27.86Z" stroke="#66737C" stroke-width="3.57143" stroke-linecap="round" stroke-linejoin="round" fill="none"/><path d="M42.3008 36.7984C41.6953 39.606 43.4804 42.3729 46.288 42.9784 49.0957 43.584 51.8626 41.7988 52.4681 38.9912 52.5118 38.7886 52.5433 38.5835 52.5625 38.3772L53.9091 29.3691C54.4177 26.5553 52.5491 23.862 49.7353 23.3534 46.9216 22.8447 44.2282 24.7134 43.7196 27.5272 43.6997 27.6375 43.6833 27.7485 43.6706 27.86Z" stroke="#66737C" stroke-width="3.57143" stroke-linecap="round" stroke-linejoin="round" fill="none"/><path d="M23.472 49.6604C23.472 52.0582 25.4054 54.002 27.7903 54.002 30.1753 54.002 32.1087 52.0582 32.1087 49.6604 32.1087 47.2627 30.1753 45.3189 27.7903 45.3189 25.4054 45.3189 23.472 47.2627 23.472 49.6604" stroke="#66737C" stroke-width="3.57143" stroke-linecap="round" stroke-linejoin="round" fill="none"/></g></svg>