<svg width="60" height="60" viewBox="-1.875 -1.875 60 60" xmlns="http://www.w3.org/2000/svg" xmlns:xlink="http://www.w3.org/1999/xlink" id="Messages-Bubble-Question--Streamline-Ultimate" fill="none" overflow="hidden"><path d="M29.8582 1.75785C25.4763 1.75153 21.1728 2.91898 17.3939 5.13905 13.615 7.35912 10.4985 10.5509 8.36796 14.3832 6.23737 18.2155 5.17029 22.5486 5.27742 26.933 5.38458 31.3172 6.66204 35.5929 8.97727 39.3164L1.75781 54.4922 16.918 47.2641C20.1511 49.2769 23.8071 50.5106 27.5979 50.868 31.3884 51.2255 35.2104 50.697 38.7623 49.3242 42.3141 47.9512 45.4987 45.7716 48.0656 42.9567 50.6323 40.1419 52.5108 36.769 53.553 33.1038 54.5953 29.4384 54.7727 25.5811 54.0717 21.8353 53.3705 18.0897 51.8098 14.5582 49.5127 11.5191 47.2153 8.48006 44.2441 6.0165 40.8335 4.3226 37.4229 2.62868 33.6656 1.75071 29.8582 1.75785L29.8582 1.75785Z" stroke="#66737C" stroke-width="3.57143" stroke-linecap="round" stroke-linejoin="round"/><path d="M29.8828 36.9141C29.3974 36.9141 29.0039 36.5205 29.0039 36.0352 29.0039 35.5498 29.3974 35.1562 29.8828 35.1562" stroke="#66737C" stroke-width="3.57143"/><path d="M29.8828 36.9141C30.3682 36.9141 30.7617 36.5205 30.7617 36.0352 30.7617 35.5498 30.3682 35.1562 29.8828 35.1562" stroke="#66737C" stroke-width="3.57143"/><path d="M22.8516 22.8516C22.8516 21.4609 23.2639 20.1015 24.0366 18.9452 24.8091 17.7889 25.9073 16.8877 27.192 16.3555 28.4768 15.8234 29.8905 15.6841 31.2546 15.9554 32.6184 16.2267 33.8714 16.8964 34.8546 17.8797 35.838 18.8631 36.5077 20.1159 36.7791 21.4798 37.0502 22.8438 36.911 24.2576 36.3787 25.5424 35.8467 26.827 34.9455 27.9253 33.7891 28.6978 32.633 29.4705 31.2734 29.8828 29.8828 29.8828" stroke="#66737C" stroke-width="3.57143" stroke-linecap="round" stroke-linejoin="round"/></svg>