<svg width="60" height="60" viewBox="-1.875 -1.875 60 60" xmlns="http://www.w3.org/2000/svg" xmlns:xlink="http://www.w3.org/1999/xlink" id="Messages-Bubble-Square-Question--Streamline-Ultimate" fill="none" overflow="hidden"><path d="M50.9766 43.9453 26.3672 43.9453 12.3047 54.4922 12.3047 43.9453 5.27344 43.9453C4.34105 43.9453 3.44681 43.575 2.78752 42.9157 2.12821 42.2564 1.75781 41.362 1.75781 40.4297L1.75781 5.27344C1.75781 4.34105 2.12821 3.44681 2.78752 2.78752 3.44681 2.12821 4.34105 1.75781 5.27344 1.75781L50.9766 1.75781C51.9089 1.75781 52.8033 2.12821 53.4626 2.78752 54.1219 3.44681 54.4922 4.34105 54.4922 5.27344L54.4922 40.4297C54.4922 41.362 54.1219 42.2564 53.4626 42.9157 52.8033 43.575 51.9089 43.9453 50.9766 43.9453Z" stroke="#66737C" stroke-width="3.57143" stroke-linecap="round" stroke-linejoin="round"/><path d="M22.8516 15.8203C22.8518 14.5313 23.2064 13.2671 23.8765 12.166 24.5468 11.0649 25.5066 10.1692 26.6515 9.57687 27.7962 8.98448 29.082 8.71819 30.3677 8.80711 31.6537 8.89601 32.8905 9.3367 33.9429 10.081 34.9952 10.8253 35.8228 11.8446 36.3349 13.0274 36.8473 14.2103 37.0245 15.5112 36.8473 16.7879 36.6701 18.0647 36.1455 19.2682 35.3306 20.2669 34.5157 21.2656 33.4418 22.0211 32.2266 22.4507 31.5413 22.693 30.9478 23.1418 30.528 23.7354 30.1083 24.3288 29.8828 25.0378 29.8828 25.7648L29.8828 26.3672" stroke="#66737C" stroke-width="3.57143" stroke-linecap="round" stroke-linejoin="round"/><path d="M29.8828 35.1562C29.3974 35.1562 29.0039 34.7627 29.0039 34.2773 29.0039 33.792 29.3974 33.3984 29.8828 33.3984" stroke="#66737C" stroke-width="3.57143"/><path d="M29.8828 35.1562C30.3682 35.1562 30.7617 34.7627 30.7617 34.2773 30.7617 33.792 30.3682 33.3984 29.8828 33.3984" stroke="#66737C" stroke-width="3.57143"/></svg>