<svg width="60" height="60" viewBox="-1.875 -1.875 60 60" xmlns="http://www.w3.org/2000/svg" xmlns:xlink="http://www.w3.org/1999/xlink" id="Mini-Computer-Board--Streamline-Ultimate" fill="none" overflow="hidden"><path d="M50.9766 25.4297 50.9766 32.2266" stroke="#66737C" stroke-width="3.33333" stroke-linecap="round" stroke-linejoin="round" stroke-miterlimit="10"/><path d="M50.9766 41.858 50.9766 46.2891C50.9766 48.8672 48.8672 50.9766 46.2891 50.9766L9.96094 50.9766C7.38281 50.9766 5.27344 48.8672 5.27344 46.2891L5.27344 6.44531C5.27344 3.86719 7.38281 1.75781 9.96094 1.75781L46.2891 1.75781C48.8672 1.75781 50.9766 3.86719 50.9766 6.44531L50.9766 15.8203" stroke="#66737C" stroke-width="3.33333" stroke-linecap="round" stroke-linejoin="round" stroke-miterlimit="10"/><path d="M17.8711 10.0781C17.3857 10.0781 16.9922 9.68463 16.9922 9.19922 16.9922 8.71383 17.3857 8.32031 17.8711 8.32031" stroke="#66737C" stroke-width="3.33333" stroke-linecap="round" stroke-linejoin="round" stroke-miterlimit="10"/><path d="M17.8711 10.0781C18.3565 10.0781 18.75 9.68463 18.75 9.19922 18.75 8.71383 18.3565 8.32031 17.8711 8.32031" stroke="#66737C" stroke-width="3.33333" stroke-linecap="round" stroke-linejoin="round" stroke-miterlimit="10"/><path d="M28.2422 10.0781C27.7568 10.0781 27.3633 9.68463 27.3633 9.19922 27.3633 8.71383 27.7568 8.32031 28.2422 8.32031" stroke="#66737C" stroke-width="3.33333" stroke-linecap="round" stroke-linejoin="round" stroke-miterlimit="10"/><path d="M28.2422 10.0781C28.7276 10.0781 29.1211 9.68463 29.1211 9.19922 29.1211 8.71383 28.7276 8.32031 28.2422 8.32031" stroke="#66737C" stroke-width="3.33333" stroke-linecap="round" stroke-linejoin="round" stroke-miterlimit="10"/><path d="M38.6133 10.0781C38.1279 10.0781 37.7344 9.68463 37.7344 9.19922 37.7344 8.71383 38.1279 8.32031 38.6133 8.32031" stroke="#66737C" stroke-width="3.33333" stroke-linecap="round" stroke-linejoin="round" stroke-miterlimit="10"/><path d="M38.6133 10.0781C39.0987 10.0781 39.4922 9.68463 39.4922 9.19922 39.4922 8.71383 39.0987 8.32031 38.6133 8.32031" stroke="#66737C" stroke-width="3.33333" stroke-linecap="round" stroke-linejoin="round" stroke-miterlimit="10"/><path d="M34.5703 33.3984 22.8516 33.3984 22.8516 23.0859 31.0547 23.0859 34.5703 26.3672 34.5703 33.3984Z" stroke="#66737C" stroke-width="3.33333" stroke-linecap="round" stroke-linejoin="round" stroke-miterlimit="10"/><path d="M54.4922 16.0547 45.1172 16.0547 45.1172 25.4297 54.4922 25.4297 54.4922 16.0547Z" stroke="#66737C" stroke-width="3.33333" stroke-linecap="round" stroke-linejoin="round" stroke-miterlimit="10"/><path d="M54.4922 32.4609 45.1172 32.4609 45.1172 41.8359 54.4922 41.8359 54.4922 32.4609Z" stroke="#66737C" stroke-width="3.33333" stroke-linecap="round" stroke-linejoin="round" stroke-miterlimit="10"/><path d="M13.4766 16.0547 5.27344 16.0547 5.27344 40.6641 13.4766 40.6641 13.4766 16.0547Z" stroke="#66737C" stroke-width="3.33333" stroke-linecap="round" stroke-linejoin="round" stroke-miterlimit="10"/><path d="M1.75781 21.6797 5.27344 21.6797" stroke="#66737C" stroke-width="3.33333" stroke-linecap="round" stroke-linejoin="round" stroke-miterlimit="10"/><path d="M1.75781 28.7109 5.27344 28.7109" stroke="#66737C" stroke-width="3.33333" stroke-linecap="round" stroke-linejoin="round" stroke-miterlimit="10"/><path d="M1.75781 35.7422 5.27344 35.7422" stroke="#66737C" stroke-width="3.33333" stroke-linecap="round" stroke-linejoin="round" stroke-miterlimit="10"/><path d="M26.3672 46.5234 26.3672 54.4922" stroke="#66737C" stroke-width="3.33333" stroke-linecap="round" stroke-linejoin="round" stroke-miterlimit="10"/><path d="M18.8672 46.5234 18.8672 54.4922" stroke="#66737C" stroke-width="3.33333" stroke-linecap="round" stroke-linejoin="round" stroke-miterlimit="10"/><path d="M33.8672 46.5234 33.8672 54.4922" stroke="#66737C" stroke-width="3.33333" stroke-linecap="round" stroke-linejoin="round" stroke-miterlimit="10"/></svg>