<svg width="60" height="60" viewBox="-1.875 -1.875 60 60" xmlns="http://www.w3.org/2000/svg" xmlns:xlink="http://www.w3.org/1999/xlink" id="Module-Puzzle-2--Streamline-Ultimate" fill="none" overflow="hidden"><path d="M45.7034 36.9141 53.4635 29.1539C54.1226 28.4946 54.4927 27.6005 54.4927 26.6684 54.4927 25.736 54.1226 24.8421 53.4635 24.1828L48.5159 19.2469C47.9562 20.5746 47.0789 21.7444 45.9609 22.6532 44.843 23.5622 43.5187 24.1823 42.1048 24.4589 40.6908 24.7357 39.2304 24.6607 37.8523 24.2402 36.4741 23.8198 35.2205 23.0672 34.2016 22.0484 33.183 21.0296 32.4302 19.7759 32.01 18.3978 31.5895 17.0197 31.5143 15.5594 31.7911 14.1454 32.0679 12.7314 32.688 11.4072 33.597 10.2893 34.5059 9.17128 35.6756 8.29392 37.0034 7.73438L32.0674 2.78672C31.4081 2.12763 30.514 1.75738 29.5819 1.75738 28.6495 1.75738 27.7554 2.12763 27.0963 2.78672L19.3361 10.5469C19.3361 8.80856 18.8206 7.10927 17.8549 5.66393 16.8891 4.21856 15.5164 3.09206 13.9104 2.42684 12.3045 1.76161 10.5373 1.58756 8.83235 1.92668 7.12744 2.26581 5.56137 3.10289 4.33221 4.33207 3.10303 5.56123 2.26595 7.1273 1.92683 8.83221 1.5877 10.5371 1.76175 12.3043 2.42698 13.9103 3.0922 15.5163 4.21873 16.8889 5.66407 17.8547 7.10941 18.8205 8.8087 19.3359 10.547 19.3359L2.78686 27.0961C2.12778 27.7554 1.75753 28.6493 1.75753 29.5816 1.75753 30.5138 2.12778 31.4079 2.78686 32.0672L7.73452 37.0031C8.29406 35.6754 9.17142 34.5056 10.2894 33.5967 11.4073 32.6878 12.7316 32.0677 14.1456 31.7911 15.5595 31.5143 17.0198 31.5893 18.398 32.0098 19.7761 32.43 21.0297 33.1828 22.0485 34.2016 23.0673 35.2205 23.82 36.4741 24.2405 37.8523 24.6607 39.2302 24.7359 40.6905 24.4591 42.1045 24.1823 43.5185 23.5622 44.8427 22.6534 45.9607 21.7445 47.0787 20.5747 47.9562 19.247 48.5156L24.183 53.4539C24.8421 54.113 25.7362 54.4833 26.6686 54.4833 27.6007 54.4833 28.4948 54.113 29.1541 53.4539L36.9143 45.7031C36.9143 47.4415 37.4297 49.1407 38.3953 50.5861 39.3612 52.0315 40.7339 53.1579 42.3398 53.823 43.9458 54.4884 45.713 54.6623 47.4178 54.3232 49.1229 53.9841 50.689 53.1471 51.918 51.9178 53.1473 50.6888 53.9843 49.1227 54.3234 47.4178 54.6626 45.713 54.4884 43.9458 53.8233 42.3396 53.1581 40.7337 52.0315 39.3609 50.5861 38.3953 49.1409 37.4295 47.4415 36.9141 45.7034 36.9141Z" stroke="#66737C" stroke-width="3.33333" stroke-linecap="round" stroke-linejoin="round"/></svg>