<svg width="60" height="60" viewBox="-1.875 -1.875 60 60" xmlns="http://www.w3.org/2000/svg" xmlns:xlink="http://www.w3.org/1999/xlink" id="Module-Four--Streamline-Ultimate" overflow="hidden"><defs></defs><path d="M52.7344 17.5781 52.7344 42.1875 28.125 52.7344 3.51562 42.1875 3.51562 17.5781 28.125 28.125 52.7344 17.5781Z" stroke="#66737C" stroke-width="3.33333" stroke-linecap="round" stroke-linejoin="round" fill="none"/><path d="M28.125 52.7344 28.125 28.125" stroke="#66737C" stroke-width="3.33333" stroke-linecap="round" stroke-linejoin="round" fill="none"/><path d="M17.5781 11.5523 3.51562 17.5781" stroke="#66737C" stroke-width="3.33333" stroke-linecap="round" stroke-linejoin="round" fill="none"/><path d="M38.6719 11.5523 52.7344 17.5781" stroke="#66737C" stroke-width="3.33333" stroke-linecap="round" stroke-linejoin="round" fill="none"/><path d="M17.5781 7.03125C17.5781 8.97288 22.3001 10.5469 28.125 10.5469 33.9499 10.5469 38.6719 8.97288 38.6719 7.03125 38.6719 5.08962 33.9499 3.51562 28.125 3.51562 22.3001 3.51562 17.5781 5.08962 17.5781 7.03125" stroke="#66737C" stroke-width="3.33333" stroke-linecap="round" stroke-linejoin="round" fill="none"/><path d="M17.5781 7.03125 17.5781 14.0625C17.5781 16.0031 22.3008 17.5781 28.125 17.5781 33.9492 17.5781 38.6719 16.0031 38.6719 14.0625L38.6719 7.03125" stroke="#66737C" stroke-width="3.33333" stroke-linecap="round" stroke-linejoin="round" fill="none"/></svg>