<svg width="60" height="60" viewBox="-1.875 -1.875 60 60" xmlns="http://www.w3.org/2000/svg" xmlns:xlink="http://www.w3.org/1999/xlink" id="Module-Puzzle--Streamline-Ultimate" fill="none" overflow="hidden"><path d="M47.5908 28.125 47.5908 27.5391C47.5908 26.1405 47.0473 24.7992 46.0798 23.8102 45.1123 22.8212 43.8002 22.2656 42.432 22.2656 41.0637 22.2656 39.7516 22.8212 38.7841 23.8102 37.8166 24.7992 37.2731 26.1405 37.2731 27.5391L37.2731 28.125 30.9909 28.125 30.9909 35.1562 31.564 35.1562C32.9323 35.1562 34.2445 35.712 35.2118 36.7008 36.1793 37.6898 36.7228 39.0312 36.7228 40.4297 36.7228 41.8282 36.1793 43.1695 35.2118 44.1586 34.2445 45.1474 32.9323 45.7031 31.564 45.7031L30.9909 45.7031 30.9909 52.7344 52.1993 52.7344C52.8073 52.7344 53.3906 52.4873 53.8205 52.0479 54.2505 51.6084 54.4922 51.0122 54.4922 50.3906L54.4922 28.125 47.5908 28.125Z" stroke="#66737C" stroke-width="3.33333" stroke-linecap="round" stroke-linejoin="round"/><path d="M31.5642 35.1562 30.9909 35.1562 30.9909 28.125 25.2361 28.125 25.2361 28.7109C25.2361 30.1095 24.6926 31.4508 23.7251 32.4398 22.7576 33.4287 21.4455 33.9844 20.0773 33.9844 18.7091 33.9844 17.3969 33.4287 16.4295 32.4398 15.462 31.4508 14.9185 30.1095 14.9185 28.7109L14.9185 28.125 7.4898 28.125 7.4898 35.1562 6.91662 35.1562C5.54841 35.1562 4.23626 35.712 3.26878 36.7008 2.30133 37.6898 1.75781 39.0312 1.75781 40.4297 1.75781 41.8282 2.30133 43.1695 3.26878 44.1586 4.23626 45.1474 5.54841 45.7031 6.91662 45.7031L7.4898 45.7031 7.4898 50.3906C7.4898 51.0122 7.73138 51.6084 8.16136 52.0479 8.59134 52.4873 9.17452 52.7344 9.7826 52.7344L30.9909 52.7344 30.9909 45.7031 31.5642 45.7031C32.9325 45.7031 34.2445 45.1474 35.212 44.1586 36.1795 43.1695 36.723 41.8282 36.723 40.4297 36.723 39.0312 36.1795 37.6898 35.212 36.7008 34.2445 35.712 32.9325 35.1562 31.5642 35.1562Z" stroke="#66737C" stroke-width="3.33333" stroke-linecap="round" stroke-linejoin="round"/><path d="M30.9912 21.0938 30.4179 21.0938C29.0496 21.0938 27.7376 20.5382 26.7701 19.5492 25.8026 18.5602 25.2591 17.2189 25.2591 15.8203 25.2591 14.4217 25.8026 13.0804 26.7701 12.0914 27.7376 11.1025 29.0496 10.5469 30.4179 10.5469L30.9912 10.5469 30.9912 3.51562 9.78267 3.51562C9.17459 3.51562 8.59139 3.76256 8.16141 4.20209 7.73145 4.64163 7.48987 5.23777 7.48987 5.85938L7.48987 10.5469 8.06306 10.5469C9.43127 10.5469 10.7434 11.1025 11.7109 12.0914 12.6784 13.0804 13.2219 14.4217 13.2219 15.8203 13.2219 17.2189 12.6784 18.5602 11.7109 19.5492 10.7434 20.5382 9.43127 21.0938 8.06306 21.0938L7.48987 21.0938 7.48987 28.125 14.9644 28.125 14.9644 28.7109C14.9644 30.1095 15.5079 31.4508 16.4754 32.4398 17.4428 33.4287 18.755 33.9844 20.1232 33.9844 21.4914 33.9844 22.8036 33.4287 23.771 32.4398 24.7385 31.4508 25.282 30.1095 25.282 28.7109L25.282 28.125 31.0369 28.125 30.9912 21.0938Z" stroke="#66737C" stroke-width="3.33333" stroke-linecap="round" stroke-linejoin="round"/><path d="M47.591 3.51562 47.591 4.10156C47.591 5.50017 47.0475 6.84148 46.08 7.83045 45.1125 8.81941 43.8005 9.375 42.4322 9.375 41.0639 9.375 39.7519 8.81941 38.7844 7.83045 37.8169 6.84148 37.2734 5.50017 37.2734 4.10156L37.2734 3.51562 30.9912 3.51562 30.9912 10.5469 30.4179 10.5469C29.0496 10.5469 27.7376 11.1025 26.7701 12.0914 25.8026 13.0804 25.2591 14.4217 25.2591 15.8203 25.2591 17.2189 25.8026 18.5602 26.7701 19.5492 27.7376 20.5382 29.0496 21.0938 30.4179 21.0938L30.9912 21.0938 30.9912 28.125 37.2963 28.125 37.2963 27.5391C37.2963 26.1405 37.8398 24.7992 38.8073 23.8102 39.7748 22.8212 41.0869 22.2656 42.4552 22.2656 43.8232 22.2656 45.1355 22.8212 46.103 23.8102 47.0705 24.7992 47.614 26.1405 47.614 27.5391L47.614 28.125 54.4922 28.125 54.4922 5.85938C54.4922 5.23777 54.2508 4.64163 53.8207 4.20209 53.3909 3.76256 52.8075 3.51562 52.1995 3.51562L47.591 3.51562Z" stroke="#66737C" stroke-width="3.33333" stroke-linecap="round" stroke-linejoin="round"/></svg>