<svg width="60" height="60" viewBox="-1.875 -1.875 60 60" xmlns="http://www.w3.org/2000/svg" xmlns:xlink="http://www.w3.org/1999/xlink" id="Mood-Happy--Streamline-Ultimate" fill="none" overflow="hidden"><path d="M29.8589 1.75782C25.477 1.75149 21.1733 2.91895 17.3943 5.139 13.6153 7.35907 10.4988 10.5509 8.36815 14.3831 6.23749 18.2154 5.17038 22.5486 5.27752 26.933 5.38467 31.3172 6.66218 35.5929 8.97748 39.3164L1.75781 54.4922 16.9207 47.2664C20.1541 49.2785 23.8102 50.5116 27.6007 50.8683 31.3915 51.2252 35.213 50.6963 38.7647 49.323 42.3162 47.9498 45.5006 45.7699 48.0668 42.9551 50.6332 40.1402 52.5115 36.7673 53.5535 33.1022 54.5953 29.4373 54.7727 25.5799 54.0715 21.8345 53.3702 18.0891 51.8095 14.5579 49.5124 11.519 47.2153 8.48018 44.2444 6.01676 40.8338 4.32286 37.4234 2.62896 33.6663 1.75089 29.8589 1.75782L29.8589 1.75782Z" stroke="#66737C" stroke-width="3.33333" stroke-linecap="round" stroke-linejoin="round"/><path d="M36.9141 31.6406C36.9141 33.5053 36.1732 35.2938 34.8546 36.6124 33.536 37.931 31.7475 38.6719 29.8828 38.6719 28.0181 38.6719 26.2296 37.931 24.911 36.6124 23.5924 35.2938 22.8516 33.5053 22.8516 31.6406L36.9141 31.6406Z" stroke="#66737C" stroke-width="3.33333" stroke-linecap="round" stroke-linejoin="round"/><path d="M19.3359 23.7305C18.8505 23.7305 18.457 23.337 18.457 22.8516 18.457 22.3661 18.8505 21.9727 19.3359 21.9727" stroke="#66737C" stroke-width="3.33333"/><path d="M19.3359 23.7305C19.8214 23.7305 20.2148 23.337 20.2148 22.8516 20.2148 22.3661 19.8214 21.9727 19.3359 21.9727" stroke="#66737C" stroke-width="3.33333"/><g><path d="M40.4297 23.7305C39.9443 23.7305 39.5508 23.337 39.5508 22.8516 39.5508 22.3661 39.9443 21.9727 40.4297 21.9727" stroke="#66737C" stroke-width="3.33333"/><path d="M40.4297 23.7305C40.9151 23.7305 41.3086 23.337 41.3086 22.8516 41.3086 22.3661 40.9151 21.9727 40.4297 21.9727" stroke="#66737C" stroke-width="3.33333"/></g></svg>