<svg width="60" height="60" viewBox="-1.875 -1.875 60 60" xmlns="http://www.w3.org/2000/svg" xmlns:xlink="http://www.w3.org/1999/xlink" id="Moving-Toward-User-Object--Streamline-Ultimate" fill="none" overflow="hidden"><path d="M44.906 11.0823 53.7244 2.26389" stroke="#66737C" stroke-width="3.33333" stroke-linecap="round" stroke-linejoin="round"/><path d="M44.5692 44.831 53.7246 53.9864" stroke="#66737C" stroke-width="3.33333" stroke-linecap="round" stroke-linejoin="round"/><path d="M11.5829 11.322 2.52506 2.26417" stroke="#66737C" stroke-width="3.33333" stroke-linecap="round" stroke-linejoin="round"/><path d="M11.632 44.88 2.52537 53.9866" stroke="#66737C" stroke-width="3.33333" stroke-linecap="round" stroke-linejoin="round"/><path d="M10.4513 2.26332 2.52593 2.26332 2.52593 10.1887" stroke="#66737C" stroke-width="3.33333" stroke-linecap="round" stroke-linejoin="round"/><path d="M2.526 46.0612 2.526 53.9866 10.4514 53.9866" stroke="#66737C" stroke-width="3.33333" stroke-linecap="round" stroke-linejoin="round"/><path d="M45.7995 53.9866 53.7248 53.9866 53.7248 46.0612" stroke="#66737C" stroke-width="3.33333" stroke-linecap="round" stroke-linejoin="round"/><path d="M53.7248 10.1887 53.7248 2.26332 45.7995 2.26332" stroke="#66737C" stroke-width="3.33333" stroke-linecap="round" stroke-linejoin="round"/><path d="M27.6077 41.5167 20.736 43.358 13.7657 39.3338 11.9244 32.4621 15.9487 25.4916 22.8204 23.6503 29.7907 27.6748 31.632 34.5464 27.6077 41.5167Z" stroke="#66737C" stroke-width="3.33333" stroke-linecap="round" stroke-linejoin="round"/><path d="M33.3998 23.0825 30.4692 20.1521 30.4692 15.4635 33.3998 12.5331 38.0883 12.5331 41.0187 15.4635 41.0187 20.1521 38.0883 23.0825 33.3998 23.0825Z" stroke="#66737C" stroke-width="3.33333" stroke-linecap="round" stroke-linejoin="round"/></svg>