<svg width="60" height="60" viewBox="-1.875 -1.875 60 60" xmlns="http://www.w3.org/2000/svg" xmlns:xlink="http://www.w3.org/1999/xlink" id="Multiple-Actions-Setting--Streamline-Ultimate" overflow="hidden"><path d="M36.9141 38.6719C36.9141 40.6135 38.4881 42.1875 40.4297 42.1875 42.3713 42.1875 43.9453 40.6135 43.9453 38.6719 43.9453 36.7302 42.3713 35.1562 40.4297 35.1562 38.4881 35.1562 36.9141 36.7302 36.9141 38.6719Z" stroke="#66737C" stroke-width="3.33333" stroke-linecap="round" stroke-linejoin="round" fill="none"/><path d="M43.4156 25.0781 44.4516 28.4836C44.8053 29.6561 46.0072 30.3539 47.2008 30.0797L50.6531 29.2781C52.344 28.8972 54.0235 29.9591 54.4044 31.6499 54.6323 32.6614 54.3459 33.7203 53.6391 34.4789L51.225 37.0828C50.3884 37.9824 50.3884 39.3754 51.225 40.275L53.6391 42.8789C54.8211 44.1448 54.7531 46.1292 53.4872 47.3112 52.7278 48.0203 51.6664 48.3073 50.6531 48.0773L47.2008 47.2781C46.007 47.0027 44.8043 47.7009 44.4516 48.8742L43.4156 52.2656C42.919 53.9154 41.179 54.8501 39.5293 54.3535 38.5272 54.0518 37.7431 53.2677 37.4414 52.2656L36.4055 48.8625C36.0527 47.6892 34.8501 46.991 33.6562 47.2664L30.2039 48.0656C28.5149 48.4488 26.835 47.3903 26.4518 45.7013 26.2219 44.688 26.5088 43.6266 27.218 42.8672L29.632 40.2633C30.4686 39.3637 30.4686 37.9707 29.632 37.0711L27.218 34.4672C26.0365 33.199 26.1068 31.2132 27.3749 30.0318 28.1336 29.325 29.1924 29.0385 30.2039 29.2664L33.6562 30.068C34.8499 30.3422 36.0518 29.6444 36.4055 28.4719L37.4414 25.0664C37.9413 23.4176 39.6831 22.4863 41.3318 22.9862 42.3334 23.2898 43.1159 24.0754 43.4156 25.0781Z" stroke="#66737C" stroke-width="3.33333" stroke-linecap="round" stroke-linejoin="round" fill="none"/><path d="M24.0375 23.6719C21.6308 21.9838 18.76 21.0831 15.8203 21.0938 8.6915 21.0379 2.64872 26.3253 1.75781 33.3984" stroke="#66737C" stroke-width="3.33333" stroke-linecap="round" stroke-linejoin="round" fill="none"/><path d="M7.91016 9.66797C7.91016 14.0366 11.4517 17.5781 15.8203 17.5781 20.189 17.5781 23.7305 14.0366 23.7305 9.66797 23.7305 5.29931 20.189 1.75781 15.8203 1.75781 11.4517 1.75781 7.91016 5.29931 7.91016 9.66797Z" stroke="#66737C" stroke-width="3.33333" stroke-linecap="round" stroke-linejoin="round" fill="none"/><path d="M32.5195 7.91016C32.5195 11.308 35.274 14.0625 38.6719 14.0625 42.0697 14.0625 44.8242 11.308 44.8242 7.91016 44.8242 4.51231 42.0697 1.75781 38.6719 1.75781 35.274 1.75781 32.5195 4.51231 32.5195 7.91016Z" stroke="#66737C" stroke-width="3.33333" stroke-linecap="round" stroke-linejoin="round" fill="none"/><path d="M45.7641 18.5648C41.4528 14.6479 34.7825 14.9676 30.8656 19.2789 30.8204 19.3287 30.7756 19.379 30.7312 19.4297" stroke="#66737C" stroke-width="3.33333" stroke-linecap="round" stroke-linejoin="round" fill="none"/></svg>