<svg width="60" height="60" viewBox="-1.875 -1.875 60 60" xmlns="http://www.w3.org/2000/svg" xmlns:xlink="http://www.w3.org/1999/xlink" id="Multiple-Actions-Refresh--Streamline-Ultimate" overflow="hidden"><path d="M35.1562 43.9453 26.3672 43.9453 26.3672 52.7344" stroke="#66737C" stroke-width="3.33333" stroke-linecap="round" stroke-linejoin="round" fill="none"/><path d="M53.1258 45.6633C50.7907 52.4873 43.3657 56.1263 36.5417 53.7912 32.1252 52.2799 28.8511 48.5262 27.9539 43.9453" stroke="#66737C" stroke-width="3.33333" stroke-linecap="round" stroke-linejoin="round" fill="none"/><path d="M45.7031 36.9141 54.4922 36.9141 54.4922 28.125" stroke="#66737C" stroke-width="3.33333" stroke-linecap="round" stroke-linejoin="round" fill="none"/><path d="M27.7313 35.1961C30.0663 28.3721 37.4913 24.7331 44.3153 27.0682 48.7319 28.5794 52.0059 32.3331 52.9031 36.9141" stroke="#66737C" stroke-width="3.33333" stroke-linecap="round" stroke-linejoin="round" fill="none"/><path d="M25.268 24.6398C22.6604 22.3389 19.2979 21.0768 15.8203 21.0938 8.6915 21.0379 2.64872 26.3253 1.75781 33.3984" stroke="#66737C" stroke-width="3.33333" stroke-linecap="round" stroke-linejoin="round" fill="none"/><path d="M7.91016 9.66797C7.91016 14.0366 11.4517 17.5781 15.8203 17.5781 20.189 17.5781 23.7305 14.0366 23.7305 9.66797 23.7305 5.29931 20.189 1.75781 15.8203 1.75781 11.4517 1.75781 7.91016 5.29931 7.91016 9.66797Z" stroke="#66737C" stroke-width="3.33333" stroke-linecap="round" stroke-linejoin="round" fill="none"/><path d="M32.5195 7.91016C32.5195 11.308 35.274 14.0625 38.6719 14.0625 42.0697 14.0625 44.8242 11.308 44.8242 7.91016 44.8242 4.51231 42.0697 1.75781 38.6719 1.75781 35.274 1.75781 32.5195 4.51231 32.5195 7.91016Z" stroke="#66737C" stroke-width="3.33333" stroke-linecap="round" stroke-linejoin="round" fill="none"/><path d="M47.8125 21.0938C44.8978 16.0506 38.4466 14.3251 33.4035 17.2399 32.4017 17.8188 31.5021 18.5586 30.7406 19.4297" stroke="#66737C" stroke-width="3.33333" stroke-linecap="round" stroke-linejoin="round" fill="none"/></svg>