<svg width="60" height="60" viewBox="-1.875 -1.875 60 60" xmlns="http://www.w3.org/2000/svg" xmlns:xlink="http://www.w3.org/1999/xlink" id="Network-And-Content-Delivery--Streamline-Ultimate" fill="none" overflow="hidden"><path d="M41.4844 32.6953C47.1094 32.6953 51.5625 28.2422 51.5625 22.6172 51.5625 16.9922 47.1094 12.5391 41.4844 12.5391 39.375 12.5391 37.5 13.2422 35.8594 14.414 34.4531 7.14841 28.125 1.75781 20.6249 1.75781 11.953 1.75781 5.15613 8.78909 5.15613 17.2266 5.15613 25.8984 12.1874 32.6953 20.6249 32.6953L41.4844 32.6953 41.4844 32.6953Z" stroke="#66737C" stroke-width="3.33333" stroke-linecap="round" stroke-linejoin="round" stroke-miterlimit="10"/><path d="M28.125 54.4922C30.7139 54.4922 32.8125 52.3936 32.8125 49.8047 32.8125 47.2158 30.7139 45.1172 28.125 45.1172 25.5361 45.1172 23.4375 47.2158 23.4375 49.8047 23.4375 52.3936 25.5361 54.4922 28.125 54.4922Z" stroke="#66737C" stroke-width="3.33333" stroke-linecap="round" stroke-linejoin="round" stroke-miterlimit="10"/><path d="M7.03125 53.3203C9.62009 53.3203 11.7188 51.2217 11.7188 48.6328 11.7188 46.0439 9.62009 43.9453 7.03125 43.9453 4.44241 43.9453 2.34375 46.0439 2.34375 48.6328 2.34375 51.2217 4.44241 53.3203 7.03125 53.3203Z" stroke="#66737C" stroke-width="3.33333" stroke-linecap="round" stroke-linejoin="round" stroke-miterlimit="10"/><path d="M49.2188 53.3203C51.8077 53.3203 53.9062 51.2217 53.9062 48.6328 53.9062 46.0439 51.8077 43.9453 49.2188 43.9453 46.6298 43.9453 44.5312 46.0439 44.5312 48.6328 44.5312 51.2217 46.6298 53.3203 49.2188 53.3203Z" stroke="#66737C" stroke-width="3.33333" stroke-linecap="round" stroke-linejoin="round" stroke-miterlimit="10"/><path d="M10.7812 45.8201 28.125 32.7466 28.125 45.1069" stroke="#66737C" stroke-width="3.33333" stroke-linecap="round" stroke-linejoin="round" stroke-miterlimit="10"/><path d="M45.4688 45.8201 28.125 32.7466" stroke="#66737C" stroke-width="3.33333" stroke-linecap="round" stroke-linejoin="round" stroke-miterlimit="10"/></svg>