<svg width="60" height="60" viewBox="-1.875 -1.875 60 60" xmlns="http://www.w3.org/2000/svg" xmlns:xlink="http://www.w3.org/1999/xlink" id="Office-Employee--Streamline-Ultimate" overflow="hidden"><path d="M42.0258 54.4922 14.2242 54.4922 10.6102 38.1586C10.4494 37.4431 10.5901 36.693 10.9992 36.0844 11.372 35.512 12.0038 35.161 12.6867 35.1469L43.5633 35.1469C44.2462 35.161 44.878 35.512 45.2508 36.0844 45.6599 36.693 45.8006 37.4431 45.6398 38.1586Z" stroke="#66737C" stroke-width="3.33333" stroke-linecap="round" stroke-linejoin="round" fill="none"/><path d="M1.75781 54.4922 54.4922 54.4922" stroke="#66737C" stroke-width="3.33333" stroke-linecap="round" stroke-linejoin="round" fill="none"/><path d="M24.6094 43.9453C24.6094 45.8869 26.1834 47.4609 28.125 47.4609 30.0666 47.4609 31.6406 45.8869 31.6406 43.9453 31.6406 42.0037 30.0666 40.4297 28.125 40.4297 26.1834 40.4297 24.6094 42.0037 24.6094 43.9453Z" stroke="#66737C" stroke-width="3.33333" stroke-linecap="round" stroke-linejoin="round" fill="none"/><path d="M19.793 6.51797C22.8185 9.65481 26.9895 11.4264 31.3477 11.4258 33.5341 11.4273 35.6979 10.9823 37.7062 10.118" stroke="#66737C" stroke-width="3.33333" stroke-linecap="round" stroke-linejoin="round" fill="none"/><path d="M18.457 11.4258C18.457 16.7653 22.7855 21.0938 28.125 21.0938 33.4645 21.0938 37.793 16.7653 37.793 11.4258 37.793 6.08631 33.4645 1.75781 28.125 1.75781 22.7855 1.75781 18.457 6.08631 18.457 11.4258Z" stroke="#66737C" stroke-width="3.33333" stroke-linecap="round" stroke-linejoin="round" fill="none"/><path d="M39.8438 29.8828C34.1177 23.4107 24.2291 22.806 17.757 28.5321 17.2797 28.9544 16.8286 29.4055 16.4062 29.8828" stroke="#66737C" stroke-width="3.33333" stroke-linecap="round" stroke-linejoin="round" fill="none"/></svg>