<svg width="60" height="60" viewBox="-1.875 -1.875 60 60" xmlns="http://www.w3.org/2000/svg" xmlns:xlink="http://www.w3.org/1999/xlink" id="Party-Confetti--Streamline-Ultimate" fill="none" overflow="hidden"><path d="M35.7253 37.9256C38.1279 35.5228 36.1802 29.6798 31.3751 24.8745 26.5697 20.0692 20.7265 18.1215 18.3239 20.5241 15.9213 22.9267 17.869 28.77 22.6743 33.5752 27.4795 38.3805 33.3227 40.3282 35.7253 37.9256Z" stroke="#66737C" stroke-width="3.33333" stroke-linecap="round" stroke-linejoin="round"/><path d="M17.3437 22.7344 2.0812 49.5023C1.77926 50.1555 1.68498 50.8854 1.81109 51.5939 1.93719 52.3022 2.2776 52.9549 2.78637 53.4635 3.29515 53.9723 3.94777 54.3129 4.65614 54.439 5.36452 54.5651 6.09452 54.4706 6.74761 54.1688L33.5156 38.918" stroke="#66737C" stroke-width="3.33333" stroke-linecap="round" stroke-linejoin="round"/><path d="M30.1336 1.75781C30.6284 6.18731 30.2048 10.6712 28.8891 14.9297" stroke="#66737C" stroke-width="3.33333" stroke-linecap="round" stroke-linejoin="round"/><path d="M38.8334 4.98748 37.5912 11.2008" stroke="#66737C" stroke-width="3.33333" stroke-linecap="round" stroke-linejoin="round"/><path d="M54.4922 26.1164C50.0627 25.6216 45.5787 26.0454 41.3203 27.3609" stroke="#66737C" stroke-width="3.33333" stroke-linecap="round" stroke-linejoin="round"/><path d="M51.2623 17.4165 45.049 18.6587" stroke="#66737C" stroke-width="3.33333" stroke-linecap="round" stroke-linejoin="round"/><path d="M18.9454 12.0797C18.46 12.0797 18.0665 11.6862 18.0665 11.2008 18.0665 10.7153 18.46 10.3219 18.9454 10.3219" stroke="#66737C" stroke-width="3.33333"/><path d="M18.9454 12.0797C19.4308 12.0797 19.8243 11.6862 19.8243 11.2008 19.8243 10.7153 19.4308 10.3219 18.9454 10.3219" stroke="#66737C" stroke-width="3.33333"/><path d="M36.3471 19.5391C35.8615 19.5391 35.4682 19.1456 35.4682 18.6602 35.4682 18.1747 35.8615 17.7813 36.3471 17.7813" stroke="#66737C" stroke-width="3.33333"/><path d="M36.3471 19.5391C36.8325 19.5391 37.226 19.1456 37.226 18.6602 37.226 18.1747 36.8325 17.7813 36.3471 17.7813" stroke="#66737C" stroke-width="3.33333"/><g><path d="M46.2912 9.59529C45.8055 9.59529 45.4123 9.2018 45.4123 8.71638 45.4123 8.23099 45.8055 7.83748 46.2912 7.83748" stroke="#66737C" stroke-width="3.33333"/><path d="M46.2912 9.59529C46.7766 9.59529 47.1701 9.2018 47.1701 8.71638 47.1701 8.23099 46.7766 7.83748 46.2912 7.83748" stroke="#66737C" stroke-width="3.33333"/></g><g><path d="M46.2912 34.4538C45.8055 34.4538 45.4123 34.0603 45.4123 33.5749 45.4123 33.0895 45.8055 32.696 46.2912 32.696" stroke="#66737C" stroke-width="3.33333"/><path d="M46.2912 34.4538C46.7766 34.4538 47.1701 34.0603 47.1701 33.5749 47.1701 33.0895 46.7766 32.696 46.2912 32.696" stroke="#66737C" stroke-width="3.33333"/></g></svg>