<svg width="60" height="60" viewBox="-2.14 -2.14 60 60" xmlns="http://www.w3.org/2000/svg" xmlns:xlink="http://www.w3.org/1999/xlink" id="Passport-Globe--Streamline-Ultimate.svg" overflow="hidden"><defs></defs><path d="M11.2322 6.39387 23.7437 11.144C25.3435 11.7438 26.2719 13.4157 25.9353 15.0908L25.2063 18.7335C24.9424 20.0531 23.9418 21.1025 22.6362 21.429L17.8095 22.6362 15.1303 29.3319C14.6109 30.6395 13.7065 31.7584 12.537 32.5405L7.93081 35.5215" stroke="#66737C" stroke-width="3.57143" stroke-linecap="round" stroke-linejoin="round" fill="none"/><path d="M39.2547 7.96332 36.9888 11.0163C35.633 12.8415 35.2534 15.2136 35.9719 17.3707L36.5662 19.1537" stroke="#66737C" stroke-width="3.57143" stroke-linecap="round" stroke-linejoin="round" fill="none"/><path d="M34.825 26.1187 48.755 26.1187C48.755 26.1187 52.2375 26.1187 52.2375 29.6012L52.2375 50.4963C52.2375 50.4963 52.2375 53.9787 48.755 53.9787L34.825 53.9787C34.825 53.9787 31.3425 53.9787 31.3425 50.4963L31.3425 29.6012C31.3425 29.6012 31.3425 26.1187 34.825 26.1187" stroke="#66737C" stroke-width="3.57143" stroke-linecap="round" stroke-linejoin="round" fill="none"/><path d="M20.895 43.2434C9.51684 41.3175 1.85422 30.5325 3.78005 19.1543 5.70589 7.77619 16.4909 0.113564 27.8691 2.0394 36.6251 3.52143 43.4878 10.3762 44.98 19.1305" stroke="#66737C" stroke-width="3.57143" stroke-linecap="round" stroke-linejoin="round" fill="none"/><path d="M36.5662 40.0488C36.5662 42.9338 38.905 45.2725 41.79 45.2725 44.675 45.2725 47.0138 42.9338 47.0138 40.0488 47.0138 37.1638 44.675 34.825 41.79 34.825 38.905 34.825 36.5662 37.1638 36.5662 40.0488" stroke="#66737C" stroke-width="3.57143" stroke-linecap="round" stroke-linejoin="round" fill="none"/></svg>