<svg width="60" height="60" viewBox="-2.14 -2.14 60 60" xmlns="http://www.w3.org/2000/svg" xmlns:xlink="http://www.w3.org/1999/xlink" id="Pen-Write--Streamline-Ultimate.svg" overflow="hidden"><path d="M19.7156 26.1536 17.2546 36.0044 27.1031 33.5411 41.8782 18.766 34.4907 11.3785 19.7156 26.1536Z" stroke="#66737C" stroke-width="3.57143" stroke-linecap="round" stroke-linejoin="round" fill="none"/><path d="M50.4986 10.148 52.9595 12.609C54.32 13.9685 54.3207 16.1735 52.9611 17.534 52.9606 17.5345 52.9601 17.535 52.9595 17.5355L45.2725 25.2203" stroke="#66737C" stroke-width="3.57143" stroke-linecap="round" stroke-linejoin="round" fill="none"/><path d="M41.8782 18.766 50.4986 10.148C51.8581 8.78809 51.8581 6.58367 50.4986 5.22375L48.0353 2.76046C46.6754 1.40096 44.4709 1.40096 43.111 2.76046L34.4907 11.3762" stroke="#66737C" stroke-width="3.57143" stroke-linecap="round" stroke-linejoin="round" fill="none"/><path d="M43.5312 33.0838 43.5312 50.4963C43.5312 52.4196 41.9721 53.9787 40.0488 53.9787L5.22375 53.9787C3.30042 53.9787 1.74125 52.4196 1.74125 50.4963L1.74125 15.6713C1.74125 13.7479 3.30042 12.1888 5.22375 12.1888L22.6362 12.1888" stroke="#66737C" stroke-width="3.57143" stroke-linecap="round" stroke-linejoin="round" fill="none"/></svg>