<svg width="60" height="60" viewBox="-1.875 -1.875 60 60" xmlns="http://www.w3.org/2000/svg" xmlns:xlink="http://www.w3.org/1999/xlink" id="People-Woman-1--Streamline-Ultimate" overflow="hidden"><path d="M41.7398 44.5922C44.4749 44.1316 47.1438 43.3398 49.6875 42.2344 51.4384 41.4475 52.2344 39.4016 51.4758 37.6383L48.2508 30.1148C47.6879 28.8018 47.3977 27.388 47.3977 25.9594L47.3977 21.0938C47.3977 10.4148 38.7407 1.75781 28.0617 1.75781 17.3828 1.75781 8.72578 10.4148 8.72578 21.0938L8.72578 25.9594C8.72578 27.388 8.43554 28.8018 7.87266 30.1148L4.65 37.6383C3.89105 39.401 4.68594 41.4466 6.43594 42.2344 8.97968 43.3399 11.6485 44.1316 14.3836 44.5922" stroke="#66737C" stroke-width="3.33333" stroke-linecap="round" stroke-linejoin="round" fill="none"/><path d="M50.2711 54.4922C44.468 42.2263 29.8202 36.9871 17.5543 42.7902 12.4178 45.2203 8.28245 49.3557 5.85235 54.4922" stroke="#66737C" stroke-width="3.33333" stroke-linecap="round" stroke-linejoin="round" fill="none"/><path d="M33.3352 54.4922 38.1023 42.5719" stroke="#66737C" stroke-width="3.33333" stroke-linecap="round" stroke-linejoin="round" fill="none"/><path d="M18.0211 42.5719 22.7883 54.4922" stroke="#66737C" stroke-width="3.33333" stroke-linecap="round" stroke-linejoin="round" fill="none"/><path d="M28.0617 12.3047C28.0617 12.3047 24.7031 20.7422 16.2703 21.082 14.3194 27.5917 18.0149 34.4503 24.5245 36.4013 31.0342 38.3522 37.8928 34.6567 39.8438 28.147 40.5344 25.8427 40.5344 23.3864 39.8438 21.082 31.4227 20.7352 28.0617 12.3047 28.0617 12.3047Z" stroke="#66737C" stroke-width="3.33333" stroke-linecap="round" stroke-linejoin="round" fill="none"/></svg>