<svg width="60" height="60" viewBox="-2.14 -2.14 60 60" xmlns="http://www.w3.org/2000/svg" xmlns:xlink="http://www.w3.org/1999/xlink" id="Performance-Presentation-Graph--Streamline-Ultimate.svg" overflow="hidden"><defs></defs><path d="M8.70625 27.1635 12.9619 22.9056C13.843 22.0252 15.2707 22.0252 16.1518 22.9056L18.8055 25.5662C19.6866 26.4465 21.1144 26.4465 21.9955 25.5662L28.3243 19.2489C29.2055 18.3686 30.6332 18.3686 31.5143 19.2489L36.3689 24.1035C37.25 24.9839 38.6778 24.9839 39.5589 24.1035L47.0137 16.716" stroke="#66737C" stroke-width="3.57143" stroke-linecap="round" stroke-linejoin="round" fill="none"/><path d="M27.4142 1.74125 27.4142 5.07981" stroke="#66737C" stroke-width="3.57143" stroke-linecap="round" stroke-linejoin="round" fill="none"/><path d="M4.06292 5.07981 51.6571 5.07981C51.6571 5.07981 53.9787 5.07981 53.9787 7.40147L53.9787 39.3244C53.9787 39.3244 53.9787 41.6461 51.6571 41.6461L4.06292 41.6461C4.06292 41.6461 1.74125 41.6461 1.74125 39.3244L1.74125 7.40147C1.74125 7.40147 1.74125 5.07981 4.06292 5.07981" stroke="#66737C" stroke-width="3.57143" stroke-linecap="round" stroke-linejoin="round" fill="none"/><path d="M27.86 41.6461 27.86 48.6111" stroke="#66737C" stroke-width="3.57143" stroke-linecap="round" stroke-linejoin="round" fill="none"/><path d="M20.7116 53.9718 27.86 48.6111 35.0014 53.9671" stroke="#66737C" stroke-width="3.57143" stroke-linecap="round" stroke-linejoin="round" fill="none"/></svg>