<svg width="60" height="60" viewBox="-2.14 -2.14 60 60" xmlns="http://www.w3.org/2000/svg" xmlns:xlink="http://www.w3.org/1999/xlink" id="Performance-Decrease-1--Streamline-Ultimate.svg" overflow="hidden"><g><path d="M53.9787 53.9787 1.74125 53.9787" stroke="#66737C" stroke-width="3.57143" stroke-linecap="round" stroke-linejoin="round" fill="none"/><path d="M41.79 38.8879 48.755 38.8879C49.7114 38.9004 50.4837 39.6727 50.4963 40.6292L50.4963 53.9787 40.0488 53.9787 40.0488 40.6292C40.0613 39.6727 40.8336 38.9004 41.79 38.8879Z" stroke="#66737C" stroke-width="3.57143" stroke-linecap="round" stroke-linejoin="round" fill="none"/><path d="M24.3775 23.7971 31.3425 23.7971C32.2989 23.8096 33.0712 24.5819 33.0838 25.5383L33.0838 53.9787 22.6362 53.9787 22.6362 25.5383C22.6488 24.5819 23.4211 23.8096 24.3775 23.7971Z" stroke="#66737C" stroke-width="3.57143" stroke-linecap="round" stroke-linejoin="round" fill="none"/><path d="M6.965 31.9229 13.93 31.9229C14.8864 31.9354 15.6587 32.7077 15.6713 33.6642L15.6713 53.9787 5.22375 53.9787 5.22375 33.6642C5.23625 32.7077 6.00856 31.9354 6.965 31.9229Z" stroke="#66737C" stroke-width="3.57143" stroke-linecap="round" stroke-linejoin="round" fill="none"/><path d="M53.9787 15.6713 53.9787 26.1187 43.5312 26.1187" stroke="#66737C" stroke-width="3.57143" stroke-linecap="round" stroke-linejoin="round" fill="none"/><path d="M53.9787 26.1187 42.2543 14.5104C40.9329 13.1499 38.98 12.6084 37.1467 13.0942L23.7971 16.6231C21.9978 17.1095 20.0758 16.5958 18.7591 15.2766L5.22375 1.74125" stroke="#66737C" stroke-width="3.57143" stroke-linecap="round" stroke-linejoin="round" fill="none"/></g></svg>