<svg width="60" height="60" viewBox="-1.875 -1.875 60 60" xmlns="http://www.w3.org/2000/svg" xmlns:xlink="http://www.w3.org/1999/xlink" id="Pin--Streamline-Ultimate" overflow="hidden"><path d="M19.3359 19.3359C19.3359 24.19 23.2709 28.125 28.125 28.125 32.9791 28.125 36.9141 24.19 36.9141 19.3359 36.9141 14.4819 32.9791 10.5469 28.125 10.5469 23.2709 10.5469 19.3359 14.4819 19.3359 19.3359Z" stroke="#66737C" stroke-width="3.57143" stroke-linecap="round" stroke-linejoin="round" fill="none"/><path d="M28.125 1.75781C37.8331 1.75781 45.7031 9.62781 45.7031 19.3359 45.7031 27.3211 33.8109 47.3438 29.5898 53.707 29.0532 54.516 27.9623 54.7368 27.1533 54.2002 26.9576 54.0704 26.79 53.9027 26.6602 53.707 22.4391 47.3438 10.5469 27.3211 10.5469 19.3359 10.5469 9.62781 18.4169 1.75781 28.125 1.75781Z" stroke="#66737C" stroke-width="3.57143" stroke-linecap="round" stroke-linejoin="round" fill="none"/></svg>