<svg width="60" height="60" viewBox="-2.14 -2.14 60 60" xmlns="http://www.w3.org/2000/svg" xmlns:xlink="http://www.w3.org/1999/xlink" id="Ping-Pong-Paddle--Streamline-Ultimate.svg" overflow="hidden"><path d="M9.96227 16.9273 38.7927 45.7577" stroke="#66737C" stroke-width="3.57143" stroke-linecap="round" stroke-linejoin="round" fill="none"/><path d="M19.1537 6.965C19.1537 9.85 21.4925 12.1888 24.3775 12.1888 27.2625 12.1888 29.6012 9.85 29.6012 6.965 29.6012 4.08 27.2625 1.74125 24.3775 1.74125 21.4925 1.74125 19.1537 4.08 19.1537 6.965Z" stroke="#66737C" stroke-width="3.57143" stroke-linecap="round" stroke-linejoin="round" fill="none"/><path d="M12.941 11.1928C7.73055 18.4674 7.29291 28.1282 11.8242 35.8442L3.41053 44.2579C1.22668 46.5215 1.29128 50.1268 3.55483 52.3107 5.76077 54.4389 9.25551 54.4394 11.4621 52.3118L19.8758 43.8981C30.6564 50.2306 44.5294 46.6248 50.862 35.8441 57.1945 25.0635 53.5886 11.1905 42.808 4.85793 40.5699 3.54329 38.1225 2.62332 35.5726 2.13826" stroke="#66737C" stroke-width="3.57143" stroke-linecap="round" stroke-linejoin="round" fill="none"/></svg>