<svg width="60" height="60" viewBox="-2.14 -2.14 60 60" xmlns="http://www.w3.org/2000/svg" xmlns:xlink="http://www.w3.org/1999/xlink" id="Plane-Take-Off--Streamline-Ultimate.svg" overflow="hidden"><path d="M43.3409 9.84387 14.0182 24.6631 9.47008 21.2316 4.59458 23.3792C3.33304 24.0099 2.82169 25.544 3.45246 26.8055 3.60466 27.1099 3.81615 27.3808 4.07452 27.6023L13.3496 35.496C14.8989 36.8251 17.0927 37.0994 18.9216 36.1925L27.326 32.0135 27.326 44.9846C27.3068 46.3757 28.4189 47.519 29.81 47.5382 30.2118 47.5437 30.6091 47.4531 30.9687 47.2738L35.3358 45.1077C36.0131 44.7708 36.5063 44.1509 36.6823 43.4152L41.0238 25.2179 49.0127 21.2549C52.1638 19.6886 53.4485 15.8645 51.8823 12.7134 50.3161 9.56239 46.4919 8.27763 43.3409 9.84387Z" stroke="#66737C" stroke-width="3.57143" stroke-linecap="round" stroke-linejoin="round" fill="none"/><path d="M35.7328 13.6978 25.3781 8.45319C24.6604 8.09515 23.816 8.09515 23.0983 8.45319L18.8055 10.5729C17.5445 11.2048 17.0346 12.7393 17.6666 14.0003 17.8413 14.3489 18.0935 14.6528 18.4039 14.8888L24.3775 19.4277" stroke="#66737C" stroke-width="3.57143" stroke-linecap="round" stroke-linejoin="round" fill="none"/></svg>