<svg width="60" height="60" viewBox="-2.14 -2.14 60 60" xmlns="http://www.w3.org/2000/svg" xmlns:xlink="http://www.w3.org/1999/xlink" id="Plane-With-Wheel--Streamline-Ultimate.svg" fill="none" overflow="hidden"><path d="M2.32167 13.93 7.41916 24.9746C8.55762 27.4412 11.0264 29.0208 13.7431 29.0208L25.5383 29.0208 16.2517 42.9508 26.6992 42.9508 38.3075 29.0208 48.1746 29.0208C51.0595 29.0208 53.3983 26.682 53.3983 23.7971 53.3983 20.9121 51.0595 18.5733 48.1746 18.5733L16.2517 18.5733 10.4475 13.93 2.32167 13.93Z" stroke="#66737C" stroke-width="3.57143" stroke-linecap="round" stroke-linejoin="round"/><path d="M24.7487 12.9677 19.7342 5.80417 29.0208 5.80417 35.2893 12.7692" stroke="#66737C" stroke-width="3.57143" stroke-linecap="round" stroke-linejoin="round"/><path d="M42.9508 34.2446 42.9508 29.0208" stroke="#66737C" stroke-width="3.57143" stroke-linecap="round" stroke-linejoin="round"/><path d="M2.32167 35.9858 11.6083 35.9858" stroke="#66737C" stroke-width="3.57143" stroke-linecap="round" stroke-linejoin="round"/><path d="M51.0767 35.9858 53.3983 35.9858" stroke="#66737C" stroke-width="3.57143" stroke-linecap="round" stroke-linejoin="round"/><path d="M2.32167 45.2725 9.28667 45.2725" stroke="#66737C" stroke-width="3.57143" stroke-linecap="round" stroke-linejoin="round"/><path d="M34.825 45.2725 53.3983 45.2725" stroke="#66737C" stroke-width="3.57143" stroke-linecap="round" stroke-linejoin="round"/><path d="M41.2096 35.9858C41.2096 36.9475 41.9892 37.7271 42.9508 37.7271 43.9125 37.7271 44.6921 36.9475 44.6921 35.9858 44.6921 35.0242 43.9125 34.2446 42.9508 34.2446 41.9892 34.2446 41.2096 35.0242 41.2096 35.9858" stroke="#66737C" stroke-width="3.57143" stroke-linecap="round" stroke-linejoin="round"/></svg>