<svg width="60" height="60" viewBox="-2.14 -2.14 60 60" xmlns="http://www.w3.org/2000/svg" xmlns:xlink="http://www.w3.org/1999/xlink" id="Plane-Trip-Cloud--Streamline-Ultimate.svg" overflow="hidden"><path d="M49.3099 12.7692 12.4116 12.7692 8.10726 8.4648C7.88971 8.24779 7.59499 8.1259 7.28771 8.12583L2.68152 8.12583C2.04041 8.12586 1.52071 8.6456 1.52073 9.28671 1.52074 9.46725 1.56286 9.64531 1.64374 9.80672L7.44791 21.4151C7.64472 21.8078 8.04638 22.0558 8.48569 22.0558L26.3416 22.0558 14.3943 34.0031C13.9404 34.4559 13.9395 35.1909 14.3923 35.6448 14.6105 35.8636 14.9071 35.9864 15.2162 35.9858L23.5417 35.9858C23.849 35.9858 24.1437 35.8639 24.3612 35.6469L37.95 22.0558 49.5583 22.0558C52.1227 22.0564 54.2021 19.9779 54.2026 17.4135 54.2027 17.1517 54.1806 16.8905 54.1366 16.6324 53.676 14.3454 51.6422 12.7176 49.3099 12.7692Z" stroke="#66737C" stroke-width="3.57143" stroke-linecap="round" stroke-linejoin="round" fill="none"/><path d="M37.95 12.7692 26.6806 1.4998C26.463 1.28279 26.1683 1.1609 25.861 1.16083L19.8572 1.16083C19.2161 1.15969 18.6955 1.67848 18.6943 2.31959 18.6938 2.62869 18.8165 2.92525 19.0353 3.14354L28.6633 12.7692" stroke="#66737C" stroke-width="3.57143" stroke-linecap="round" stroke-linejoin="round" fill="none"/><path d="M46.0387 46.8977C47.7055 44.9489 50.6366 44.7203 52.5854 46.3872 54.5342 48.0541 54.7628 50.9852 53.0959 52.934 52.2117 53.9678 50.9186 54.5618 49.5583 54.5592L39.1108 54.5592C35.2641 54.5604 32.1448 51.4431 32.1436 47.5964 32.1423 43.7497 35.2597 40.6304 39.1063 40.6292 42.6841 40.628 45.6809 43.3378 46.0387 46.8977" stroke="#66737C" stroke-width="3.57143" stroke-linecap="round" stroke-linejoin="round" fill="none"/></svg>