<svg width="60" height="60" viewBox="-2.14 -2.14 60 60" xmlns="http://www.w3.org/2000/svg" xmlns:xlink="http://www.w3.org/1999/xlink" id="Plane-Trip-Round--Streamline-Ultimate.svg" overflow="hidden"><path d="M23.075 35.5981C23.6498 36.5437 24.8823 36.8443 25.8279 36.2695 26.4454 35.8941 26.8129 35.2153 26.7897 34.493L26.2697 20.3842 32.6101 13.3983C33.9133 11.9148 33.7671 9.65573 32.2835 8.35256 30.9315 7.16492 28.9075 7.16725 27.5582 8.358L20.5723 14.6869 6.46352 14.1622C5.35753 14.1266 4.43213 14.9944 4.39657 16.1003 4.37334 16.8226 4.74088 17.5015 5.35841 17.8768L13.2521 22.613 10.4034 25.7008C10.1437 25.9837 9.81606 26.1955 9.4515 26.3161L5.35841 27.6812C4.47821 27.9722 4.00055 28.9216 4.29152 29.8018 4.37456 30.053 4.51579 30.281 4.7037 30.4672 5.02025 30.7853 5.42437 31.0019 5.86453 31.0894L7.72186 31.4609C8.62069 31.6402 9.32329 32.3428 9.50258 33.2416L9.87405 35.099C9.96141 35.5392 10.178 35.9433 10.4963 36.2598 11.1491 36.9179 12.2119 36.9222 12.8701 36.2693 13.0581 36.0828 13.1994 35.8544 13.2823 35.6028L14.6474 31.5097C14.7687 31.1467 14.9795 30.8201 15.2603 30.5601L18.3412 27.7044Z" stroke="#66737C" stroke-width="3.57143" stroke-linecap="round" stroke-linejoin="round" fill="none"/><path d="M38.3075 4.64333C44.6828 1.45569 49.9367 0.742933 52.4557 3.26194 57.2964 8.10262 50.2084 23.0379 36.6243 36.6243 23.0402 50.2107 8.10262 57.2964 3.26426 52.4557 0.977422 50.1689 1.35121 45.6324 3.8145 40.0464" stroke="#66737C" stroke-width="3.57143" stroke-linecap="round" stroke-linejoin="round" fill="none"/></svg>