<svg width="60" height="60" viewBox="-2.14 -2.14 60 60" xmlns="http://www.w3.org/2000/svg" xmlns:xlink="http://www.w3.org/1999/xlink" id="Plane-1--Streamline-Ultimate.svg" overflow="hidden"><g><path d="M47.6174 19.1537 12.1655 19.1537 9.6117 14.1157 4.29508 13.93C2.88473 13.946 1.75435 15.1022 1.7703 16.5126 1.77407 16.8459 1.84307 17.1753 1.97342 17.4822L6.77927 28.3243C7.56935 30.1903 9.39625 31.4052 11.4226 31.4121L20.895 31.4121 15.0444 43.3455C14.4157 44.5937 14.9179 46.1153 16.1662 46.744 16.5379 46.9312 16.95 47.0239 17.3661 47.0138L22.2416 47.0137C22.9963 47.0047 23.7091 46.6653 24.1918 46.0851L36.1716 31.3425 47.7799 31.3425C51.1223 31.5093 53.9671 28.9349 54.1339 25.5924 54.1382 25.5048 54.1407 25.4171 54.1413 25.3294 54.1197 21.8931 51.3165 19.1249 47.8802 19.1465 47.7926 19.1471 47.7049 19.1495 47.6174 19.1538Z" stroke="#66737C" stroke-width="3.57143" stroke-linecap="round" stroke-linejoin="round" fill="none"/><path d="M36.5662 19.177 29.6012 9.72778C29.1214 9.0818 28.3629 8.70255 27.5582 8.70625L22.7059 8.70625C21.2956 8.68674 20.1365 9.8142 20.117 11.2245 20.1114 11.6313 20.203 12.0335 20.3842 12.3977L23.7274 19.1537" stroke="#66737C" stroke-width="3.57143" stroke-linecap="round" stroke-linejoin="round" fill="none"/></g></svg>