<svg width="44.8" height="44.8" viewBox="-1.6 -1.6 44.8 44.8" xmlns="http://www.w3.org/2000/svg" xmlns:xlink="http://www.w3.org/1999/xlink" id="Production-Belt--Streamline-Core" fill="none" overflow="hidden"><g id="production-belt--production-produce-box-belt-factory-product-package-business"><path d="M9.84286 24.8857 31.7571 24.8857C35.5522 24.8857 38.6286 27.9622 38.6286 31.7571 38.6286 35.5522 35.5522 38.6286 31.7571 38.6286L9.84286 38.6286C6.04787 38.6286 2.97143 35.5522 2.97143 31.7571 2.97143 27.9622 6.04787 24.8857 9.84286 24.8857Z" id="Vector" stroke="#66737C" stroke-width="2.67857" stroke-linecap="round" stroke-linejoin="round"/><path d="M31.0366 2.95982 10.2371 2.95982C9.19283 2.95982 8.34627 3.71494 8.34627 4.64642L8.34627 23.1991C8.34627 24.1306 9.19283 24.8857 10.2371 24.8857L31.0366 24.8857C32.0807 24.8857 32.9273 24.1306 32.9273 23.1991L32.9273 4.64642C32.9273 3.71494 32.0807 2.95982 31.0366 2.95982Z" id="Vector_2" stroke="#66737C" stroke-width="2.67857" stroke-linecap="round" stroke-linejoin="round"/><path d="M24.4191 2.95982 24.4191 11.3928C24.4191 11.6165 24.3195 11.831 24.1422 11.9892 23.9649 12.1473 23.7245 12.2362 23.4737 12.2362L17.8012 12.2362C17.5504 12.2362 17.31 12.1473 17.1327 11.9892 16.9554 11.831 16.8558 11.6165 16.8558 11.3928L16.8558 2.95982" id="Vector_3" stroke="#66737C" stroke-width="2.67857" stroke-linecap="round" stroke-linejoin="round"/><g id="Group 4581"><path d="M11.098 32.5C10.6877 32.5 10.3551 32.1675 10.3551 31.7571 10.3551 31.3468 10.6877 31.0143 11.098 31.0143" id="Ellipse 1123" stroke="#66737C" stroke-width="2.67857" stroke-linecap="round" stroke-linejoin="round"/><path d="M11.098 32.5C11.5082 32.5 11.8408 32.1675 11.8408 31.7571 11.8408 31.3468 11.5082 31.0143 11.098 31.0143" id="Ellipse 1124" stroke="#66737C" stroke-width="2.67857" stroke-linecap="round" stroke-linejoin="round"/></g><g id="Group 4582"><path d="M20.7998 32.5C20.3896 32.5 20.057 32.1675 20.057 31.7571 20.057 31.3468 20.3896 31.0143 20.7998 31.0143" id="Ellipse 1125" stroke="#66737C" stroke-width="2.67857" stroke-linecap="round" stroke-linejoin="round"/><path d="M20.7998 32.5C21.2101 32.5 21.5427 32.1675 21.5427 31.7571 21.5427 31.3468 21.2101 31.0143 20.7998 31.0143" id="Ellipse 1126" stroke="#66737C" stroke-width="2.67857" stroke-linecap="round" stroke-linejoin="round"/></g><g id="Group 4583"><path d="M30.5017 32.5C30.0914 32.5 29.7589 32.1675 29.7589 31.7571 29.7589 31.3468 30.0914 31.0143 30.5017 31.0143" id="Ellipse 1121" stroke="#66737C" stroke-width="2.67857" stroke-linecap="round" stroke-linejoin="round"/><path d="M30.5017 32.5C30.9121 32.5 31.2446 32.1675 31.2446 31.7571 31.2446 31.3468 30.9121 31.0143 30.5017 31.0143" id="Ellipse 1122" stroke="#66737C" stroke-width="2.67857" stroke-linecap="round" stroke-linejoin="round"/></g></g></svg>