<svg width="44.8" height="44.8" viewBox="-1.6 -1.6 44.8 44.8" xmlns="http://www.w3.org/2000/svg" xmlns:xlink="http://www.w3.org/1999/xlink" id="Production-Belt-User--Streamline-Core" fill="none" overflow="hidden"><g id="production-belt-user--production-produce-box-clock-belt-factory-user"><path d="M40.1143 20.8C40.1143 17.8285 38.3314 15.1543 35.6571 13.9657 34.6882 13.5185 33.682 13.2957 32.6946 13.2737 31.7072 13.2957 30.7011 13.5185 29.7321 13.9657 27.0579 15.1543 25.2751 17.8285 25.2751 20.8" id="Vector" stroke="#66737C" stroke-width="2.67857" stroke-linecap="round" stroke-linejoin="round"/><path d="M32.6857 10.4C35.1472 10.4 37.1429 8.40448 37.1429 5.94286 37.1429 3.48124 35.1472 1.48571 32.6857 1.48571 30.2242 1.48571 28.2286 3.48124 28.2286 5.94286 28.2286 8.40448 30.2242 10.4 32.6857 10.4Z" id="Vector_2" stroke="#66737C" stroke-width="2.67857" stroke-linecap="round" stroke-linejoin="round"/><path d="M13.3714 13.3714 1.48571 13.3714 1.48571 25.2571 13.3714 25.2571 13.3714 13.3714Z" id="Vector_3" stroke="#66737C" stroke-width="2.67857" stroke-linecap="round" stroke-linejoin="round"/><path d="M1.48571 40.1143 32.6857 40.1143C36.8457 40.1143 40.1143 36.8457 40.1143 32.6857 40.1143 28.5257 36.8457 25.2571 32.6857 25.2571L1.48571 25.2571" id="Vector_4" stroke="#66737C" stroke-width="2.67857" stroke-linecap="round" stroke-linejoin="round"/><g id="Group 4578"><path d="M8.17143 33.4286C8.58169 33.4286 8.91429 33.0961 8.91429 32.6857 8.91429 32.2754 8.58169 31.9429 8.17143 31.9429" id="Ellipse 1118" stroke="#66737C" stroke-width="2.67857" stroke-linecap="round" stroke-linejoin="round"/><path d="M8.17143 33.4286C7.76116 33.4286 7.42857 33.0961 7.42857 32.6857 7.42857 32.2754 7.76116 31.9429 8.17143 31.9429" id="Ellipse 1119" stroke="#66737C" stroke-width="2.67857" stroke-linecap="round" stroke-linejoin="round"/></g><g id="Group 4579"><path d="M19.3143 33.4286C19.7246 33.4286 20.0571 33.0961 20.0571 32.6857 20.0571 32.2754 19.7246 31.9429 19.3143 31.9429" id="Ellipse 1120" stroke="#66737C" stroke-width="2.67857" stroke-linecap="round" stroke-linejoin="round"/><path d="M19.3143 33.4286C18.904 33.4286 18.5714 33.0961 18.5714 32.6857 18.5714 32.2754 18.904 31.9429 19.3143 31.9429" id="Ellipse 1121" stroke="#66737C" stroke-width="2.67857" stroke-linecap="round" stroke-linejoin="round"/></g><g id="Group 4580"><path d="M30.4571 33.4286C30.8675 33.4286 31.2 33.0961 31.2 32.6857 31.2 32.2754 30.8675 31.9429 30.4571 31.9429" id="Ellipse 1117" stroke="#66737C" stroke-width="2.67857" stroke-linecap="round" stroke-linejoin="round"/><path d="M30.4571 33.4286C30.0468 33.4286 29.7143 33.0961 29.7143 32.6857 29.7143 32.2754 30.0468 31.9429 30.4571 31.9429" id="Ellipse 1116" stroke="#66737C" stroke-width="2.67857" stroke-linecap="round" stroke-linejoin="round"/></g></g></svg>