<svg width="60" height="60" viewBox="-1.875 -1.875 60 60" xmlns="http://www.w3.org/2000/svg" xmlns:xlink="http://www.w3.org/1999/xlink" fill="none" overflow="hidden"><path d="M28.1885 17.5781 36.2285 17.5781 36.2285 16.9922C36.2285 15.5937 36.772 14.2523 37.7395 13.2633 38.707 12.2743 40.0191 11.7188 41.3873 11.7188 42.7556 11.7188 44.0677 12.2743 45.0352 13.2633 46.0027 14.2523 46.5462 15.5937 46.5462 16.9922L46.5462 17.5781 53.4476 17.5781 53.4476 39.8438C53.4476 40.4653 53.2059 41.0616 52.7759 41.501 52.346 41.9405 51.7627 42.1875 51.1547 42.1875L28.1885 42.1875M28.1885 17.5781 28.1885 24.6094 28.7616 24.6094C30.1298 24.6094 31.4421 25.1651 32.4094 26.1539 33.3769 27.143 33.9204 28.4843 33.9204 29.8828 33.9204 31.2813 33.3769 32.6227 32.4094 33.6117 31.4421 34.6005 30.1298 35.1562 28.7616 35.1562L28.1885 35.1562 28.1885 42.1875M28.1885 17.5781 20.676 17.5781 20.676 18.1641C20.676 19.5626 20.1325 20.9039 19.165 21.893 18.1975 22.8818 16.8854 23.4375 15.5171 23.4375 14.149 23.4375 12.8368 22.8818 11.8693 21.893 10.9019 20.9039 10.3584 19.5626 10.3584 18.1641L10.3584 17.5781 2.92969 17.5781 2.92969 39.8438C2.92969 40.4653 3.17126 41.0616 3.60124 41.501 4.03123 41.9405 4.6144 42.1875 5.22248 42.1875L28.1885 42.1875M28.125 53.9062 28.125 49.2188M38.9648 52.6922 36.6211 48.6328M17.2851 52.6922 19.6289 48.6328M28.125 2.34375 28.125 7.03125M38.9648 3.5577 36.6211 7.61719M17.2852 3.5577 19.6289 7.61719" stroke="#66737C" stroke-width="3.33333" stroke-linecap="round" stroke-linejoin="round"/></svg>