<svg width="60" height="60" viewBox="-2.14 -2.14 60 60" xmlns="http://www.w3.org/2000/svg" xmlns:xlink="http://www.w3.org/1999/xlink" id="Rain-Umbrella--Streamline-Ultimate.svg" overflow="hidden"><path d="M5.90864 12.3977C16.1087 2.19763 32.6463 2.19763 42.8464 12.3977 53.0464 22.5978 53.0464 39.1353 42.8464 49.3354L42.6142 46.8953C42.069 40.8859 36.7555 36.4562 30.746 37.0013 30.6724 37.008 30.5988 37.0154 30.5253 37.0236 30.5253 30.2278 25.0162 24.7188 18.2204 24.7188 18.8931 18.7223 14.5772 13.3159 8.58063 12.6432 8.5065 12.6349 8.43229 12.6274 8.358 12.6206Z" stroke="#66737C" stroke-width="3.57143" stroke-linecap="round" stroke-linejoin="round" fill="none"/><path d="M26.9313 28.3243 8.37193 46.8721C7.01149 48.2319 7.01097 50.4371 8.37077 51.7975 9.73057 53.158 11.9357 53.1585 13.2962 51.7987" stroke="#66737C" stroke-width="3.57143" stroke-linecap="round" stroke-linejoin="round" fill="none"/><path d="M42.8464 12.3977 45.3096 9.93441" stroke="#66737C" stroke-width="3.57143" stroke-linecap="round" stroke-linejoin="round" fill="none"/></svg>