<svg width="60" height="60" viewBox="-1.875 -1.875 60 60" xmlns="http://www.w3.org/2000/svg" xmlns:xlink="http://www.w3.org/1999/xlink" id="Real-Estate-Action-House-Lock--Streamline-Ultimate" fill="none" overflow="hidden"><path d="M24.6094 45.7031 14.0625 45.7031C13.1301 45.7031 12.2359 45.3328 11.5766 44.6735 10.9173 44.0142 10.5469 43.1198 10.5469 42.1875L10.5469 24.6094" stroke="#66737C" stroke-width="3.33333" stroke-linecap="round" stroke-linejoin="round"/><path d="M3.51562 21.0939 24.0961 3.67987C24.7308 3.14266 25.5356 2.84787 26.3672 2.84787 27.1987 2.84787 28.0036 3.14266 28.6383 3.67987L45.7477 18.1572" stroke="#66737C" stroke-width="3.33333" stroke-linecap="round" stroke-linejoin="round"/><path d="M38.6719 3.51562 45.7031 3.51562 45.7031 10.5469" stroke="#66737C" stroke-width="3.33333" stroke-linecap="round" stroke-linejoin="round"/><path d="M50.3906 35.1562 33.9844 35.1562C32.6899 35.1562 31.6406 36.2055 31.6406 37.5L31.6406 50.3906C31.6406 51.6851 32.6899 52.7344 33.9844 52.7344L50.3906 52.7344C51.6851 52.7344 52.7344 51.6851 52.7344 50.3906L52.7344 37.5C52.7344 36.2055 51.6851 35.1562 50.3906 35.1562Z" stroke="#66737C" stroke-width="3.33333" stroke-linecap="round" stroke-linejoin="round"/><path d="M42.1875 24.6094C40.3228 24.6094 38.5343 25.3502 37.2157 26.6688 35.8971 27.9874 35.1562 29.7759 35.1562 31.6406L35.1562 35.1562 49.2188 35.1562 49.2188 31.6406C49.2188 29.7759 48.4779 27.9874 47.1593 26.6688 45.8407 25.3502 44.0522 24.6094 42.1875 24.6094Z" stroke="#66737C" stroke-width="3.33333" stroke-linecap="round" stroke-linejoin="round"/><path d="M42.1875 44.8826C41.7021 44.8826 41.3086 44.4891 41.3086 44.0037 41.3086 43.5183 41.7021 43.1248 42.1875 43.1248" stroke="#66737C" stroke-width="3.33333"/><path d="M42.1875 44.8826C42.6729 44.8826 43.0664 44.4891 43.0664 44.0037 43.0664 43.5183 42.6729 43.1248 42.1875 43.1248" stroke="#66737C" stroke-width="3.33333"/></svg>