<svg width="60" height="60" viewBox="-1.875 -1.875 60 60" xmlns="http://www.w3.org/2000/svg" xmlns:xlink="http://www.w3.org/1999/xlink" id="Real-Estate-Location-Building-Pin--Streamline-Ultimate" overflow="hidden"><path d="M10.5469 19.3359C10.5469 24.19 14.4819 28.125 19.3359 28.125 24.19 28.125 28.125 24.19 28.125 19.3359 28.125 14.4819 24.19 10.5469 19.3359 10.5469 14.4819 10.5469 10.5469 14.4819 10.5469 19.3359Z" stroke="#66737C" stroke-width="3.33333" stroke-linecap="round" stroke-linejoin="round" fill="none"/><path d="M16.1203 50.9766C11.0484 42.8555 1.75781 26.393 1.75781 19.3359 1.75181 9.62781 9.61693 1.75295 19.3251 1.74694 27.01 1.74219 33.8071 6.73008 36.1078 14.0625" stroke="#66737C" stroke-width="3.33333" stroke-linecap="round" stroke-linejoin="round" fill="none"/><path d="M27.5391 35.1562 41.0156 35.1562C41.6628 35.1562 42.1875 35.6809 42.1875 36.3281L42.1875 54.4922 42.1875 54.4922 26.3672 54.4922 26.3672 54.4922 26.3672 36.3281C26.3672 35.6809 26.8919 35.1562 27.5391 35.1562Z" stroke="#66737C" stroke-width="3.33333" stroke-linecap="round" stroke-linejoin="round" fill="none"/><path d="M42.1875 54.4922 54.4922 54.4922 54.4922 22.8516C54.4922 21.8807 53.7052 21.0938 52.7344 21.0938L36.9141 21.0938C35.9432 21.0938 35.1562 21.8807 35.1562 22.8516L35.1562 35.1562" stroke="#66737C" stroke-width="3.33333" stroke-linecap="round" stroke-linejoin="round" fill="none"/><path d="M26.3672 54.4922 22.8516 54.4922" stroke="#66737C" stroke-width="3.33333" stroke-linecap="round" stroke-linejoin="round" fill="none"/><path d="M35.1562 42.1875 42.1875 42.1875" stroke="#66737C" stroke-width="3.33333" stroke-linecap="round" stroke-linejoin="round" fill="none"/><path d="M49.2188 28.125 54.4922 28.125" stroke="#66737C" stroke-width="3.33333" stroke-linecap="round" stroke-linejoin="round" fill="none"/><path d="M49.2188 35.1562 54.4922 35.1562" stroke="#66737C" stroke-width="3.33333" stroke-linecap="round" stroke-linejoin="round" fill="none"/></svg>