<svg width="60" height="60" viewBox="-1.875 -1.875 60 60" xmlns="http://www.w3.org/2000/svg" xmlns:xlink="http://www.w3.org/1999/xlink" id="Realtime-Processing-1--Streamline-Ultimate" fill="none" overflow="hidden"><path d="M28.0078 31.6406C29.9494 31.6406 31.5234 30.0666 31.5234 28.125 31.5234 26.1834 29.9494 24.6094 28.0078 24.6094 26.066 24.6094 24.4922 26.1834 24.4922 28.125 24.4922 30.0666 26.066 31.6406 28.0078 31.6406Z" stroke="#66737C" stroke-width="3.33333" stroke-linecap="round" stroke-linejoin="round" stroke-miterlimit="10"/><path d="M20.5079 39.8438C16.7579 37.2656 14.1798 33.0469 14.1798 28.125 14.1798 20.3906 20.5079 14.0625 28.2422 14.0625 32.2266 14.0625 35.7422 15.7031 38.0859 18.2812L30.5859 25.5464" stroke="#66737C" stroke-width="3.33333" stroke-linecap="round" stroke-linejoin="round" stroke-miterlimit="10"/><path d="M42.0703 28.125C42.0703 29.0625 42.0703 30 41.8359 30.9375" stroke="#66737C" stroke-width="3.33333" stroke-linecap="round" stroke-linejoin="round" stroke-miterlimit="10"/><path d="M38.3203 37.7334C35.7422 40.5459 32.2266 42.1866 28.0078 42.1866" stroke="#66737C" stroke-width="3.33333" stroke-linecap="round" stroke-linejoin="round" stroke-miterlimit="10"/><path d="M48.0469 43.3594C48.0469 45.9375 45.9375 48.0469 43.3594 48.0469L12.8906 48.0469C10.3125 48.0469 8.20312 45.9375 8.20312 43.3594L8.20312 12.8906C8.20312 10.3125 10.3125 8.20312 12.8906 8.20312L43.3594 8.20312C45.9375 8.20312 48.0469 10.3125 48.0469 12.8906L48.0469 43.3594Z" stroke="#66737C" stroke-width="3.33333" stroke-linecap="round" stroke-linejoin="round" stroke-miterlimit="10"/><path d="M1.75781 12.3047 8.20312 12.3047" stroke="#66737C" stroke-width="3.33333" stroke-linecap="round" stroke-linejoin="round" stroke-miterlimit="10"/><path d="M1.75781 22.8516 8.20312 22.8516" stroke="#66737C" stroke-width="3.33333" stroke-linecap="round" stroke-linejoin="round" stroke-miterlimit="10"/><path d="M1.75781 33.3984 8.20312 33.3984" stroke="#66737C" stroke-width="3.33333" stroke-linecap="round" stroke-linejoin="round" stroke-miterlimit="10"/><path d="M48.0469 22.8516 54.4922 22.8516" stroke="#66737C" stroke-width="3.33333" stroke-linecap="round" stroke-linejoin="round" stroke-miterlimit="10"/><path d="M48.0469 33.3984 54.4922 33.3984" stroke="#66737C" stroke-width="3.33333" stroke-linecap="round" stroke-linejoin="round" stroke-miterlimit="10"/><path d="M1.75781 43.9453 8.20312 43.9453" stroke="#66737C" stroke-width="3.33333" stroke-linecap="round" stroke-linejoin="round" stroke-miterlimit="10"/><path d="M54.4922 12.3047 48.0469 12.3047" stroke="#66737C" stroke-width="3.33333" stroke-linecap="round" stroke-linejoin="round" stroke-miterlimit="10"/><path d="M54.4922 43.9453 48.0469 43.9453" stroke="#66737C" stroke-width="3.33333" stroke-linecap="round" stroke-linejoin="round" stroke-miterlimit="10"/><path d="M43.8279 54.4922 43.8279 48.0469" stroke="#66737C" stroke-width="3.33333" stroke-linecap="round" stroke-linejoin="round" stroke-miterlimit="10"/><path d="M33.3593 54.4922 33.3593 48.0469" stroke="#66737C" stroke-width="3.33333" stroke-linecap="round" stroke-linejoin="round" stroke-miterlimit="10"/><path d="M22.8906 54.4922 22.8906 48.0469" stroke="#66737C" stroke-width="3.33333" stroke-linecap="round" stroke-linejoin="round" stroke-miterlimit="10"/><path d="M33.3593 8.20312 33.3593 1.75781" stroke="#66737C" stroke-width="3.33333" stroke-linecap="round" stroke-linejoin="round" stroke-miterlimit="10"/><path d="M22.8906 8.20312 22.8906 1.75781" stroke="#66737C" stroke-width="3.33333" stroke-linecap="round" stroke-linejoin="round" stroke-miterlimit="10"/><path d="M12.422 54.4922 12.422 48.0469" stroke="#66737C" stroke-width="3.33333" stroke-linecap="round" stroke-linejoin="round" stroke-miterlimit="10"/><path d="M43.8279 1.75781 43.8279 8.20312" stroke="#66737C" stroke-width="3.33333" stroke-linecap="round" stroke-linejoin="round" stroke-miterlimit="10"/><path d="M12.422 1.75781 12.422 8.20312" stroke="#66737C" stroke-width="3.33333" stroke-linecap="round" stroke-linejoin="round" stroke-miterlimit="10"/></svg>