<svg width="60" height="60" viewBox="-1.875 -1.875 60 60" xmlns="http://www.w3.org/2000/svg" xmlns:xlink="http://www.w3.org/1999/xlink" id="Real-Estate-Location-House-Pin-1--Streamline-Ultimate" overflow="hidden"><path d="M26.3672 42.7313 26.3672 50.9766C26.3672 52.9182 27.9412 54.4922 29.8828 54.4922L43.9453 54.4922C45.8869 54.4922 47.4609 52.9182 47.4609 50.9766L47.4609 42.7313" stroke="#66737C" stroke-width="3.33333" stroke-linecap="round" stroke-linejoin="round" fill="none"/><path d="M54.4922 40.9734 39.2578 27.2695C37.9211 26.0675 35.8929 26.0675 34.5563 27.2695L19.3219 40.9734" stroke="#66737C" stroke-width="3.33333" stroke-linecap="round" stroke-linejoin="round" fill="none"/><path d="M50.9766 37.8094 50.9766 28.125" stroke="#66737C" stroke-width="3.33333" stroke-linecap="round" stroke-linejoin="round" fill="none"/><path d="M10.5469 19.3359C10.5469 24.19 14.4819 28.125 19.3359 28.125 24.19 28.125 28.125 24.19 28.125 19.3359 28.125 14.4819 24.19 10.5469 19.3359 10.5469 14.4819 10.5469 10.5469 14.4819 10.5469 19.3359Z" stroke="#66737C" stroke-width="3.33333" stroke-linecap="round" stroke-linejoin="round" fill="none"/><path d="M19.3359 54.4922C18.7464 54.4923 18.1962 54.1965 17.8711 53.7047 13.65 47.3438 1.75781 27.3211 1.75781 19.3359 1.75781 9.62781 9.62781 1.75781 19.3359 1.75781 29.0441 1.75781 36.9141 9.62781 36.9141 19.3359" stroke="#66737C" stroke-width="3.33333" stroke-linecap="round" stroke-linejoin="round" fill="none"/></svg>