<svg width="60" height="60" viewBox="-1.875 -1.875 60 60" xmlns="http://www.w3.org/2000/svg" xmlns:xlink="http://www.w3.org/1999/xlink" id="Real-Estate-Dimensions-Map--Streamline-Ultimate" overflow="hidden"><path d="M6.38438 1.93828C4.54224 1.32473 2.55151 2.32069 1.93796 4.16283 1.81867 4.52096 1.75785 4.89596 1.75781 5.27344L1.75781 45.7031C1.75764 47.0928 2.57609 48.3522 3.84609 48.9164L16.282 54.1898C17.1141 54.5579 18.0561 54.5906 18.9117 54.2812L35.6531 47.6156C36.4655 47.3201 37.3583 47.3343 38.1609 47.6555L49.6711 52.1789C51.4739 52.8999 53.5198 52.0229 54.2408 50.2201 54.4067 49.8055 54.492 49.363 54.4922 48.9164L54.4922 9.64688C54.4925 8.09411 53.474 6.72507 51.9867 6.27891L37.8773 2.04609C37.2477 1.85769 36.5778 1.84957 35.9437 2.02266L18.6 6.90703C17.9304 7.08974 17.2218 7.07016 16.5633 6.85078Z" stroke="#66737C" stroke-width="3.33333" stroke-linecap="round" stroke-linejoin="round" fill="none"/><path d="M8.78906 10.5469 8.78906 43.9453 17.5781 47.4609 36.9141 40.4297 47.4609 43.9453 47.4609 12.3047 36.9141 8.78906 17.5781 14.0625 8.78906 10.5469Z" stroke="#66737C" stroke-width="3.33333" stroke-linecap="round" stroke-linejoin="round" fill="none"/><path d="M8.78906 23.1539 17.5781 26.6695 26.3672 23.1539" stroke="#66737C" stroke-width="3.33333" stroke-linecap="round" stroke-linejoin="round" fill="none"/><path d="M33.3984 9.74766 33.3984 18.8977" stroke="#66737C" stroke-width="3.33333" stroke-linecap="round" stroke-linejoin="round" fill="none"/><path d="M8.78906 33.7008 17.5781 36.9141 22.8516 35.4586 22.8516 45.5438" stroke="#66737C" stroke-width="3.33333" stroke-linecap="round" stroke-linejoin="round" fill="none"/><path d="M33.3984 41.707 33.3984 33.3984 36.9141 31.6406 47.4609 35.1562" stroke="#66737C" stroke-width="3.33333" stroke-linecap="round" stroke-linejoin="round" fill="none"/></svg>