<svg width="60" height="60" viewBox="-2.14 -2.14 60 60" xmlns="http://www.w3.org/2000/svg" xmlns:xlink="http://www.w3.org/1999/xlink" id="Renewable-Energy-Wind-Turbine--Streamline-Ultimate.svg" overflow="hidden"><path d="M24.1662 32.3849C24.1662 34.9186 26.2202 36.9725 28.7538 36.9725 31.2875 36.9725 33.3415 34.9186 33.3415 32.3849 33.3415 29.8513 31.2875 27.7973 28.7538 27.7973 26.2202 27.7973 24.1662 29.8513 24.1662 32.3849Z" stroke="#66737C" stroke-width="3.57143" stroke-linecap="round" stroke-linejoin="round" fill="none"/><path d="M40.9797 15.7548C45.4599 19.0455 48.4218 24.0057 49.1938 29.5107" stroke="#66737C" stroke-width="3.57143" stroke-linecap="round" stroke-linejoin="round" fill="none"/><path d="M16.5279 15.7548C12.0485 19.0463 9.0869 24.0061 8.31389 29.5107" stroke="#66737C" stroke-width="3.57143" stroke-linecap="round" stroke-linejoin="round" fill="none"/><path d="M37.6319 51.0209C31.7622 53.8186 24.917 53.6852 19.1607 50.6611" stroke="#66737C" stroke-width="3.57143" stroke-linecap="round" stroke-linejoin="round" fill="none"/><path d="M27.1937 28.0713 24.4773 25.7496C22.3008 23.8796 21.5486 20.8356 22.6037 18.167L28.0922 4.34616C28.5798 2.99266 30.0723 2.29069 31.4258 2.77829 32.5314 3.17659 33.2335 4.2659 33.1395 5.43734L31.3425 28.6006" stroke="#66737C" stroke-width="3.57143" stroke-linecap="round" stroke-linejoin="round" fill="none"/><path d="M25.7984 35.893 25.139 39.4103C24.6116 42.235 22.3457 44.4114 19.502 44.8244L4.79656 46.9789C3.37826 47.2276 2.02693 46.2794 1.77828 44.8611 1.57674 43.7114 2.16383 42.5679 3.21551 42.0616L24.1732 32.032" stroke="#66737C" stroke-width="3.57143" stroke-linecap="round" stroke-linejoin="round" fill="none"/><path d="M33.2695 33.1998 36.6452 32.0111C39.3528 31.0566 42.3678 31.9279 44.1488 34.1796L53.3682 45.839C54.2909 46.9444 54.1428 48.5886 53.0374 49.5113 52.1432 50.2577 50.8624 50.3205 49.8996 49.6651L30.7342 36.5314" stroke="#66737C" stroke-width="3.57143" stroke-linecap="round" stroke-linejoin="round" fill="none"/></svg>