<svg width="60" height="60" viewBox="-2.14 -2.14 60 60" xmlns="http://www.w3.org/2000/svg" xmlns:xlink="http://www.w3.org/1999/xlink" id="Renewable-Energy-Battery-Leaf--Streamline-Ultimate.svg" overflow="hidden"><path d="M31.5259 48.1839C31.5259 48.1839 34.356 53.9764 39.1178 53.54 48.7713 52.6577 48.1258 39.8259 51.6548 35.294 45.5991 32.2786 38.4661 32.3434 32.4662 35.4681 27.4653 38.2936 27.1101 43.0623 31.5259 48.1839Z" stroke="#66737C" stroke-width="3.57143" stroke-linecap="round" stroke-linejoin="round" fill="none"/><path d="M38.3539 42.2984C38.3539 42.2984 32.0854 43.0739 27.6209 53.9764" stroke="#66737C" stroke-width="3.57143" stroke-linecap="round" stroke-linejoin="round" fill="none"/><path d="M20.3146 53.9787 8.12583 53.9787C6.2025 53.9787 4.64333 52.4196 4.64333 50.4963L4.64333 12.1888C4.64333 10.2654 6.2025 8.70625 8.12583 8.70625L32.5033 8.70625C34.4267 8.70625 35.9858 10.2654 35.9858 12.1888L35.9858 27.86" stroke="#66737C" stroke-width="3.57143" stroke-linecap="round" stroke-linejoin="round" fill="none"/><path d="M15.6713 1.74125 24.9579 1.74125C26.2401 1.74125 27.2796 2.7807 27.2796 4.06292L27.2796 8.70625 27.2796 8.70625 13.3496 8.70625 13.3496 8.70625 13.3496 4.06292C13.3496 2.7807 14.389 1.74125 15.6713 1.74125Z" stroke="#66737C" stroke-width="3.57143" stroke-linecap="round" stroke-linejoin="round" fill="none"/></svg>