<svg width="60" height="60" viewBox="-2.14 -2.14 60 60" xmlns="http://www.w3.org/2000/svg" xmlns:xlink="http://www.w3.org/1999/xlink" id="Safety-Helmet-Mine-1--Streamline-Ultimate.svg" overflow="hidden"><path d="M16.2517 9.91816 16.2517 23.8482" stroke="#66737C" stroke-width="3.57143" stroke-linecap="round" stroke-linejoin="round" fill="none"/><path d="M39.4683 9.91816 39.4683 23.8482" stroke="#66737C" stroke-width="3.57143" stroke-linecap="round" stroke-linejoin="round" fill="none"/><path d="M32.5033 10.2153C32.5033 9.64864 32.094 9.16482 31.5352 9.07075 29.1018 8.66523 26.6182 8.66523 24.1848 9.07075 23.626 9.16482 23.2167 9.64864 23.2167 10.2153L23.2167 21.5265C23.2167 24.0909 25.2956 26.1698 27.86 26.1698 30.4244 26.1698 32.5033 24.0909 32.5033 21.5265Z" stroke="#66737C" stroke-width="3.57143" stroke-linecap="round" stroke-linejoin="round" fill="none"/><path d="M16.2517 12.0541C9.75501 16.0754 5.80236 23.1726 5.80417 30.8132 4.52195 30.8132 3.4825 31.8526 3.4825 33.1348L3.4825 35.4565C3.4825 36.7387 4.52195 37.7782 5.80417 37.7782L11.4435 37.7782 12.2886 40.736C12.5726 41.7329 13.4831 42.4207 14.5197 42.4215L41.2003 42.4215C42.2369 42.4207 43.1474 41.7329 43.4314 40.736L44.2765 37.7782 49.9158 37.7782C51.1981 37.7782 52.2375 36.7387 52.2375 35.4565L52.2375 33.1348C52.2375 31.8526 51.1981 30.8132 49.9158 30.8132 49.9176 23.1726 45.965 16.0754 39.4683 12.0541" stroke="#66737C" stroke-width="3.57143" stroke-linecap="round" stroke-linejoin="round" fill="none"/><path d="M19.7342 33.1348 35.9858 33.1348" stroke="#66737C" stroke-width="3.57143" stroke-linecap="round" stroke-linejoin="round" fill="none"/></svg>