<svg width="60" height="60" viewBox="-1.875 -1.875 60 60" xmlns="http://www.w3.org/2000/svg" xmlns:xlink="http://www.w3.org/1999/xlink" id="Sailing-Boat-Water-1--Streamline-Ultimate" overflow="hidden"><path d="M1.75781 54.4922C5.6237 54.9707 9.49905 53.6789 12.3047 50.9766 16.2489 55.3452 22.9877 55.6893 27.3564 51.7452 27.6255 51.5022 27.882 51.2457 28.125 50.9766 32.0692 55.3452 38.808 55.6893 43.1767 51.7452 43.4458 51.5022 43.7024 51.2457 43.9453 50.9766 46.7509 53.6789 50.6263 54.9707 54.4922 54.4922" stroke="#66737C" stroke-width="3.57143" stroke-linecap="round" stroke-linejoin="round" fill="none"/><path d="M8.35781 53.6297 4.78828 46.4883C4.35465 45.6197 4.70725 44.564 5.57584 44.1304 5.81965 44.0087 6.08843 43.9453 6.36094 43.9453L49.8891 43.9453C50.8599 43.9453 51.6468 44.7324 51.6468 45.7032 51.6468 45.9757 51.5834 46.2445 51.4617 46.4883L47.8922 53.6297" stroke="#66737C" stroke-width="3.57143" stroke-linecap="round" stroke-linejoin="round" fill="none"/><path d="M28.125 43.9453 28.125 8.78906C28.125 4.90581 24.977 1.75781 21.0938 1.75781 17.4445 11.9672 12.3469 28.6547 5.27344 35.1562L28.125 35.1562" stroke="#66737C" stroke-width="3.57143" stroke-linecap="round" stroke-linejoin="round" fill="none"/><path d="M35.1562 7.03125C40.7812 12.293 46.0781 27.5484 50.9766 35.1562L36.9141 35.1562" stroke="#66737C" stroke-width="3.57143" stroke-linecap="round" stroke-linejoin="round" fill="none"/></svg>