<svg width="60" height="60" viewBox="-2.14 -2.14 60 60" xmlns="http://www.w3.org/2000/svg" xmlns:xlink="http://www.w3.org/1999/xlink" id="Saving-Safe--Streamline-Ultimate.svg" overflow="hidden"><defs></defs><path d="M5.22375 1.74125 50.4963 1.74125C50.4963 1.74125 53.9787 1.74125 53.9787 5.22375L53.9787 47.0137C53.9787 47.0137 53.9787 50.4963 50.4963 50.4963L5.22375 50.4963C5.22375 50.4963 1.74125 50.4963 1.74125 47.0137L1.74125 5.22375C1.74125 5.22375 1.74125 1.74125 5.22375 1.74125" stroke="#66737C" stroke-width="3.57143" stroke-linecap="round" stroke-linejoin="round" fill="none"/><path d="M15.6713 8.70625 43.5312 8.70625C43.5312 8.70625 47.0137 8.70625 47.0137 12.1888L47.0137 40.0488C47.0137 40.0488 47.0137 43.5312 43.5312 43.5312L15.6713 43.5312C15.6713 43.5312 12.1888 43.5312 12.1888 40.0488L12.1888 12.1888C12.1888 12.1888 12.1888 8.70625 15.6713 8.70625" stroke="#66737C" stroke-width="3.57143" stroke-linecap="round" stroke-linejoin="round" fill="none"/><path d="M8.70625 50.4963 8.70625 53.9787" stroke="#66737C" stroke-width="3.57143" stroke-linecap="round" stroke-linejoin="round" fill="none"/><path d="M47.0137 50.4963 47.0137 53.9787" stroke="#66737C" stroke-width="3.57143" stroke-linecap="round" stroke-linejoin="round" fill="none"/><path d="M8.70625 19.1537 15.6713 19.1537" stroke="#66737C" stroke-width="3.57143" stroke-linecap="round" stroke-linejoin="round" fill="none"/><path d="M8.70625 33.0838 15.6713 33.0838" stroke="#66737C" stroke-width="3.57143" stroke-linecap="round" stroke-linejoin="round" fill="none"/><path d="M23.3328 26.1187C23.3328 29.5807 26.1393 32.3872 29.6012 32.3872 33.0632 32.3872 35.8698 29.5807 35.8698 26.1187 35.8698 22.6568 33.0632 19.8503 29.6013 19.8503 26.1393 19.8503 23.3328 22.6568 23.3328 26.1187" stroke="#66737C" stroke-width="3.57143" stroke-linecap="round" stroke-linejoin="round" fill="none"/><path d="M29.6012 19.8503 29.6012 15.6713" stroke="#66737C" stroke-width="3.57143" stroke-linecap="round" stroke-linejoin="round" fill="none"/><path d="M29.6012 36.5662 29.6012 32.3872" stroke="#66737C" stroke-width="3.57143" stroke-linecap="round" stroke-linejoin="round" fill="none"/><path d="M35.8698 26.1187 40.0488 26.1187" stroke="#66737C" stroke-width="3.57143" stroke-linecap="round" stroke-linejoin="round" fill="none"/><path d="M19.1537 26.1187 23.3328 26.1187" stroke="#66737C" stroke-width="3.57143" stroke-linecap="round" stroke-linejoin="round" fill="none"/><path d="M23.1842 33.5063 25.68 31.0105" stroke="#66737C" stroke-width="3.57143" stroke-linecap="round" stroke-linejoin="round" fill="none"/><path d="M23.1842 18.7312 25.68 21.227" stroke="#66737C" stroke-width="3.57143" stroke-linecap="round" stroke-linejoin="round" fill="none"/><path d="M36.0183 33.5063 33.5225 31.0105" stroke="#66737C" stroke-width="3.57143" stroke-linecap="round" stroke-linejoin="round" fill="none"/><path d="M36.0183 18.7312 33.5225 21.227" stroke="#66737C" stroke-width="3.57143" stroke-linecap="round" stroke-linejoin="round" fill="none"/></svg>