<svg width="60" height="60" viewBox="-2.14 -2.14 60 60" xmlns="http://www.w3.org/2000/svg" xmlns:xlink="http://www.w3.org/1999/xlink" id="Saving-Bear--Streamline-Ultimate.svg" overflow="hidden"><g><path d="M24.1221 52.9804C24.2846 53.6073 24.4007 53.9787 24.4007 53.9787L30.6924 53.9787C31.6541 53.9825 32.4367 53.2059 32.4404 52.2442 32.4412 52.0443 32.4075 51.8456 32.3408 51.6571L30.5996 46.4333C32.6733 45.5568 34.1954 43.732 34.6857 41.5346" stroke="#66737C" stroke-width="3.57143" stroke-linecap="round" stroke-linejoin="round" fill="none"/><path d="M41.79 20.895 44.1117 21.6611C45.9979 22.3051 48.0309 22.3858 49.9623 21.8933L51.7964 21.429C52.7267 21.1853 53.6783 21.742 53.922 22.6723 53.9606 22.8197 53.9797 22.9715 53.9787 23.1238L53.9787 26.792C53.9757 27.4537 53.5978 28.0564 53.0036 28.3476L47.037 31.3425" stroke="#66737C" stroke-width="3.57143" stroke-linecap="round" stroke-linejoin="round" fill="none"/><path d="M48.755 32.2015 46.4333 31.0639C42.702 29.1733 40.7749 24.9529 41.79 20.895L45.6208 18.968C49.6696 16.9471 52.2306 12.8135 52.2375 8.28835 52.2376 7.56646 51.6591 6.97767 50.9374 6.965L44.2277 5.68808C42.646 5.37583 41.0049 5.62199 39.5844 6.38458 39.0975 6.56177 38.5571 6.32724 38.3539 5.8506L38.0985 5.17732C37.5921 3.83098 36.0901 3.15015 34.7437 3.65663 33.3974 4.1631 32.7166 5.6651 33.223 7.01143 33.5434 7.93983 33.0856 8.95714 32.1783 9.3331L29.578 10.4011C27.4704 11.4736 25.5932 12.9485 24.0525 14.7426 21.9994 17.5982 19.1119 19.7475 15.7873 20.895 12.4863 21.9697 9.56715 23.9776 7.3829 26.676 6.05619 25.2631 3.8833 25.0638 2.32167 26.2116 0.8358 27.8368 2.18237 30.8549 4.41117 32.248 3.51741 34.6358 3.51741 37.2663 4.41117 39.6541 5.33932 41.4861 6.75276 43.028 8.4973 44.1117L11.7709 52.8411C12.0254 53.53 12.6848 53.9851 13.4192 53.9787L17.7375 53.9787C18.5695 53.9845 19.2892 53.4009 19.4556 52.5857L21.2897 43.2991 23.147 42.5561C27.3715 40.8764 31.0284 38.025 33.6874 34.3374 35.585 35.7734 37.7976 36.7364 40.1416 37.1467L45.9226 38.0985C46.5972 38.2038 47.2729 37.9155 47.6638 37.3556L49.4283 34.825C49.9975 34.034 49.8176 32.9314 49.0266 32.3622 48.9411 32.3006 48.8502 32.2469 48.755 32.2015Z" stroke="#66737C" stroke-width="3.57143" stroke-linecap="round" stroke-linejoin="round" fill="none"/></g></svg>