<svg width="60" height="60" viewBox="-2.14 -2.14 60 60" xmlns="http://www.w3.org/2000/svg" xmlns:xlink="http://www.w3.org/1999/xlink" id="Science-Dna--Streamline-Ultimate.svg" stroke="#000000" overflow="hidden"><path d="M53.4541 21.3849 47.297 27.5419C41.8129 32.9375 32.9932 32.8656 27.5977 27.3815 22.2642 21.9604 22.2642 13.2637 27.5977 7.84259L33.7524 1.68553" stroke="#66737C" stroke-width="3.57143" stroke-linecap="round" stroke-linejoin="round" fill="none"/><path d="M21.4406 53.3983 27.5977 47.2413C33.0375 41.8002 33.0364 32.9794 27.5953 27.5396 22.1542 22.0998 13.3335 22.1008 7.89367 27.5419L1.74125 33.699M52.2212 22.6177 32.5219 2.91601M47.297 27.5419 27.5977 7.84259M33.7524 23.8482 23.9898 14.0856" stroke="#66737C" stroke-width="3.57143" stroke-linecap="round" stroke-linejoin="round" fill="none"/><path d="M1.74125 33.699 7.89367 27.5419C13.3778 22.1464 22.1975 22.2182 27.593 27.7024 32.9265 33.1234 32.9265 41.8202 27.593 47.2413L21.4406 53.3983M2.97173 32.4662 22.6734 52.1679M7.89831 27.5419 27.5977 47.2413M21.4406 31.2357 31.2032 40.9983" stroke="#66737C" stroke-width="3.57143" stroke-linecap="round" stroke-linejoin="round" fill="none"/></svg>