<svg width="60" height="60" viewBox="-1.875 -1.875 60 60" xmlns="http://www.w3.org/2000/svg" xmlns:xlink="http://www.w3.org/1999/xlink" id="Science-Cells--Streamline-Ultimate" stroke="#000000" overflow="hidden"><path d="M7.03125 29.8828 7.03125 26.3672M17.5781 49.2188 14.0625 47.4609M14.0625 8.78906 17.5781 7.03125M32.175 53.0039C31.3622 53.9475 30.179 54.4908 28.9336 54.4922 26.5066 54.4922 24.5391 52.5247 24.5391 50.0977 24.5391 47.6706 26.5066 45.7031 28.9336 45.7031 30.1751 45.7042 31.355 46.2437 32.168 47.182M32.175 9.05859C31.3622 10.0022 30.179 10.5455 28.9336 10.5469 26.5261 10.5275 24.59 8.56017 24.6094 6.15263 24.6094 6.15253 24.6094 6.15244 24.6094 6.15234 24.5899 3.74481 26.5258 1.77731 28.9333 1.75781 28.9334 1.75781 28.9335 1.75781 28.9336 1.75781 30.1751 1.75889 31.355 2.29842 32.168 3.23672M11.0813 19.6055C10.2685 20.5491 9.08527 21.0924 7.83984 21.0938 5.41281 21.0938 3.44531 19.1263 3.44531 16.6992 3.44531 14.2722 5.41281 12.3047 7.83984 12.3047 9.08132 12.3058 10.2613 12.8453 11.0742 13.7836M11.0813 42.457C10.2685 43.4007 9.08527 43.9439 7.83984 43.9453 5.41281 43.9453 3.44531 41.9778 3.44531 39.5508 3.44531 37.1237 5.41281 35.1562 7.83984 35.1562 9.08132 35.1573 10.2613 35.6969 11.0742 36.6352M49.2188 29.8828 49.2188 26.3672M38.6719 49.2188 42.1875 47.4609M42.1875 8.78906 38.6719 7.03125M52.7344 19.6055C51.9207 20.5492 50.7367 21.0924 49.4906 21.0938 47.0636 21.0938 45.0961 19.1263 45.0961 16.6992 45.0961 14.2722 47.0636 12.3047 49.4906 12.3047 50.7321 12.3058 51.9121 12.8453 52.725 13.7836M52.7344 42.457C51.9207 43.4008 50.7367 43.944 49.4906 43.9453 47.0636 43.9453 45.0961 41.9778 45.0961 39.5508 45.0961 37.1237 47.0636 35.1562 49.4906 35.1562 50.7321 35.1573 51.9121 35.6969 52.725 36.6352" stroke="#66737C" stroke-width="3.57143" stroke-linecap="round" stroke-linejoin="round" fill="none"/></svg>