<svg width="60" height="60" viewBox="-2.14 -2.14 60 60" xmlns="http://www.w3.org/2000/svg" xmlns:xlink="http://www.w3.org/1999/xlink" id="Science-Molecule--Streamline-Ultimate.svg" stroke="#000000" overflow="hidden"><path d="M22.6571 27.8809C22.6571 30.7659 24.9959 33.1046 27.8809 33.1046 30.7659 33.1046 33.1046 30.7659 33.1046 27.8809 33.1046 24.9959 30.7659 22.6571 27.8809 22.6571 24.9959 22.6571 22.6571 24.9959 22.6571 27.8809" stroke="#66737C" stroke-width="3.57143" stroke-linecap="round" stroke-linejoin="round" fill="none"/><path d="M3.25658 52.5075C8.01658 57.2675 22.9003 50.1013 36.5003 36.5013 50.1003 22.9013 57.2666 8.01755 52.5066 3.25754 47.7466-1.50246 32.8628 5.66378 19.2628 19.2638 5.66282 32.8638-1.50342 47.7475 3.25658 52.5075" stroke="#66737C" stroke-width="3.57143" stroke-linecap="round" stroke-linejoin="round" fill="none"/><path d="M19.2628 36.5013C32.8628 50.1013 47.7466 57.2676 52.5066 52.5077 57.2667 47.7477 50.1005 32.864 36.5005 19.264 22.9005 5.66396 8.01677-1.50234 3.25671 3.25761-1.50334 8.01756 5.66284 22.9013 19.2628 36.5013" stroke="#66737C" stroke-width="3.57143" stroke-linecap="round" stroke-linejoin="round" fill="none"/></svg>