<svg width="60" height="60" viewBox="-1.875 -1.875 60 60" xmlns="http://www.w3.org/2000/svg" xmlns:xlink="http://www.w3.org/1999/xlink" id="Science-Neurons--Streamline-Ultimate" overflow="hidden"><g><path d="M22.8516 12.375C22.8516 15.2874 25.2126 17.6484 28.125 17.6484 31.0374 17.6484 33.3984 15.2874 33.3984 12.375 33.3984 9.46256 31.0374 7.10156 28.125 7.10156 25.2126 7.10156 22.8516 9.46256 22.8516 12.375" stroke="#66737C" stroke-width="4.44444" stroke-linecap="round" stroke-linejoin="round" fill="none"/><path d="M36.9141 19.3359C36.9141 22.2484 39.2751 24.6094 42.1875 24.6094 45.0999 24.6094 47.4609 22.2484 47.4609 19.3359 47.4609 16.4235 45.0999 14.0625 42.1875 14.0625 39.2751 14.0625 36.9141 16.4235 36.9141 19.3359" stroke="#66737C" stroke-width="4.44444" stroke-linecap="round" stroke-linejoin="round" fill="none"/><path d="M36.9141 36.9141C36.9141 39.8265 39.2751 42.1875 42.1875 42.1875 45.0999 42.1875 47.4609 39.8265 47.4609 36.9141 47.4609 34.0016 45.0999 31.6406 42.1875 31.6406 39.2751 31.6406 36.9141 34.0016 36.9141 36.9141" stroke="#66737C" stroke-width="4.44444" stroke-linecap="round" stroke-linejoin="round" fill="none"/><path d="M8.78906 19.3359C8.78906 22.2484 11.1501 24.6094 14.0625 24.6094 16.9749 24.6094 19.3359 22.2484 19.3359 19.3359 19.3359 16.4235 16.9749 14.0625 14.0625 14.0625 11.1501 14.0625 8.78906 16.4235 8.78906 19.3359" stroke="#66737C" stroke-width="4.44444" stroke-linecap="round" stroke-linejoin="round" fill="none"/><path d="M8.78906 36.9141C8.78906 39.8265 11.1501 42.1875 14.0625 42.1875 16.9749 42.1875 19.3359 39.8265 19.3359 36.9141 19.3359 34.0016 16.9749 31.6406 14.0625 31.6406 11.1501 31.6406 8.78906 34.0016 8.78906 36.9141" stroke="#66737C" stroke-width="4.44444" stroke-linecap="round" stroke-linejoin="round" fill="none"/><path d="M22.8516 43.9453C22.8516 46.8577 25.2126 49.2188 28.125 49.2188 31.0374 49.2188 33.3984 46.8577 33.3984 43.9453 33.3984 41.0329 31.0374 38.6719 28.125 38.6719 25.2126 38.6719 22.8516 41.0329 22.8516 43.9453" stroke="#66737C" stroke-width="4.44444" stroke-linecap="round" stroke-linejoin="round" fill="none"/><path d="M1.75781 8.78906C3.69944 8.78906 5.27344 10.3631 5.27344 12.3047 5.27344 14.2463 3.69944 15.8203 1.75781 15.8203" stroke="#66737C" stroke-width="4.44444" stroke-linecap="round" stroke-linejoin="round" fill="none"/><path d="M18.7734 16.9688 23.3672 14.6719" stroke="#66737C" stroke-width="4.44444" stroke-linecap="round" stroke-linejoin="round" fill="none"/><path d="M32.8828 14.6719 37.4766 16.9688" stroke="#66737C" stroke-width="4.44444" stroke-linecap="round" stroke-linejoin="round" fill="none"/><path d="M18.7734 39.2812 23.4141 41.5781" stroke="#66737C" stroke-width="4.44444" stroke-linecap="round" stroke-linejoin="round" fill="none"/><path d="M32.8359 41.5781 37.4766 39.2812" stroke="#66737C" stroke-width="4.44444" stroke-linecap="round" stroke-linejoin="round" fill="none"/><path d="M14.0625 24.6094 14.0625 31.6406" stroke="#66737C" stroke-width="4.44444" stroke-linecap="round" stroke-linejoin="round" fill="none"/><path d="M28.125 49.2188 28.125 54.4922" stroke="#66737C" stroke-width="4.44444" stroke-linecap="round" stroke-linejoin="round" fill="none"/><path d="M28.125 1.75781 28.125 7.10156" stroke="#66737C" stroke-width="4.44444" stroke-linecap="round" stroke-linejoin="round" fill="none"/><path d="M42.1875 24.6094 42.1875 31.6406" stroke="#66737C" stroke-width="4.44444" stroke-linecap="round" stroke-linejoin="round" fill="none"/><path d="M9.42188 16.8281 4.92188 13.8281" stroke="#66737C" stroke-width="4.44444" stroke-linecap="round" stroke-linejoin="round" fill="none"/><path d="M1.75781 47.4609C3.69944 47.4609 5.27344 45.8869 5.27344 43.9453 5.27344 42.0037 3.69944 40.4297 1.75781 40.4297" stroke="#66737C" stroke-width="4.44444" stroke-linecap="round" stroke-linejoin="round" fill="none"/><path d="M9.42188 39.4219 4.92188 42.4219" stroke="#66737C" stroke-width="4.44444" stroke-linecap="round" stroke-linejoin="round" fill="none"/><path d="M54.4922 8.78906C52.5506 8.78906 50.9766 10.3631 50.9766 12.3047 50.9766 14.2463 52.5506 15.8203 54.4922 15.8203" stroke="#66737C" stroke-width="4.44444" stroke-linecap="round" stroke-linejoin="round" fill="none"/><path d="M46.8281 16.8281 51.3281 13.8281" stroke="#66737C" stroke-width="4.44444" stroke-linecap="round" stroke-linejoin="round" fill="none"/><path d="M54.4922 47.4609C52.5506 47.4609 50.9766 45.8869 50.9766 43.9453 50.9766 42.0037 52.5506 40.4297 54.4922 40.4297" stroke="#66737C" stroke-width="4.44444" stroke-linecap="round" stroke-linejoin="round" fill="none"/><path d="M46.8281 39.4219 51.3281 42.4219" stroke="#66737C" stroke-width="4.44444" stroke-linecap="round" stroke-linejoin="round" fill="none"/></g></svg>