<svg width="60" height="60" viewBox="-2.14 -2.14 60 60" xmlns="http://www.w3.org/2000/svg" xmlns:xlink="http://www.w3.org/1999/xlink" id="Search-Bar--Streamline-Ultimate.svg" fill="none" overflow="hidden"><path d="M50.4963 15.6713 50.4963 12.1888C50.4963 11.2651 50.1294 10.3793 49.4763 9.72625 48.8233 9.07317 47.9373 8.70625 47.0137 8.70625L5.22375 8.70625C4.30014 8.70625 3.41434 9.07317 2.76125 9.72625 2.10815 10.3793 1.74125 11.2651 1.74125 12.1888L1.74125 26.1187C1.74125 27.0423 2.10815 27.9283 2.76125 28.5813 3.41434 29.2344 4.30014 29.6012 5.22375 29.6012L17.4125 29.6012" stroke="#66737C" stroke-width="3.57143" stroke-linecap="round" stroke-linejoin="round"/><path d="M18.2831 21.7656C17.8023 21.7656 17.4125 21.3758 17.4125 20.895 17.4125 20.4142 17.8023 20.0244 18.2831 20.0244" stroke="#66737C" stroke-width="3.57143"/><path d="M18.2831 21.7656C18.764 21.7656 19.1537 21.3758 19.1537 20.895 19.1537 20.4142 18.764 20.0244 18.2831 20.0244" stroke="#66737C" stroke-width="3.57143"/><path d="M9.57687 21.7656C9.09604 21.7656 8.70625 21.3758 8.70625 20.895 8.70625 20.4142 9.09604 20.0244 9.57687 20.0244" stroke="#66737C" stroke-width="3.57143"/><path d="M9.57687 21.7656C10.0577 21.7656 10.4475 21.3758 10.4475 20.895 10.4475 20.4142 10.0577 20.0244 9.57687 20.0244" stroke="#66737C" stroke-width="3.57143"/><path d="M36.5662 41.79C43.2979 41.79 48.755 36.3329 48.755 29.6012 48.755 22.8696 43.2979 17.4125 36.5662 17.4125 29.8346 17.4125 24.3775 22.8696 24.3775 29.6012 24.3775 36.3329 29.8346 41.79 36.5662 41.79Z" stroke="#66737C" stroke-width="3.57143" stroke-linecap="round" stroke-linejoin="round"/><path d="M53.9785 47.0137 45.184 38.2193" stroke="#66737C" stroke-width="3.57143" stroke-linecap="round" stroke-linejoin="round"/></svg>