<svg width="60" height="60" viewBox="-1.875 -1.875 60 60" xmlns="http://www.w3.org/2000/svg" xmlns:xlink="http://www.w3.org/1999/xlink" id="Season-Summer--Streamline-Ultimate" overflow="hidden"><path d="M34.1695 48.6422C34.1695 48.6422 37.0266 54.4898 41.8336 54.0516 51.5789 53.1609 50.9273 40.207 54.4898 35.632 48.3771 32.5857 41.1752 32.6511 35.1188 35.8078 30.0703 38.6578 29.7117 43.4719 34.1695 48.6422Z" stroke="#66737C" stroke-width="3.33333" stroke-linecap="round" stroke-linejoin="round" fill="none"/><path d="M41.0625 42.7008C41.0625 42.7008 34.7344 43.4836 30.2273 54.4922" stroke="#66737C" stroke-width="3.33333" stroke-linecap="round" stroke-linejoin="round" fill="none"/><path d="M24.6094 43.5539C16.0892 41.6124 10.756 33.1316 12.6975 24.6114 14.6389 16.0912 23.1198 10.758 31.64 12.6995 38.2025 14.1948 43.1007 19.6782 43.8492 26.3672" stroke="#66737C" stroke-width="3.33333" stroke-linecap="round" stroke-linejoin="round" fill="none"/><path d="M28.125 5.27344 28.125 1.75781" stroke="#66737C" stroke-width="3.33333" stroke-linecap="round" stroke-linejoin="round" fill="none"/><path d="M44.2828 11.9672 46.7695 9.48047" stroke="#66737C" stroke-width="3.33333" stroke-linecap="round" stroke-linejoin="round" fill="none"/><path d="M11.9672 44.2852 9.48047 46.7695" stroke="#66737C" stroke-width="3.33333" stroke-linecap="round" stroke-linejoin="round" fill="none"/><path d="M5.27344 28.125 1.75781 28.125" stroke="#66737C" stroke-width="3.33333" stroke-linecap="round" stroke-linejoin="round" fill="none"/><path d="M11.9672 11.9672 9.48047 9.48047" stroke="#66737C" stroke-width="3.33333" stroke-linecap="round" stroke-linejoin="round" fill="none"/></svg>