<svg width="60" height="60" viewBox="-1.875 -1.875 60 60" xmlns="http://www.w3.org/2000/svg" xmlns:xlink="http://www.w3.org/1999/xlink" id="Seo-Zoom--Streamline-Ultimate" overflow="hidden"><g><path d="M11.7188 17.2266C14.7891 15.6328 22.8984 14.6484 28.125 14.6484 33.3516 14.6484 40.8047 14.9766 44.25 16.4062L52.1953 16.4062C53.4897 16.4062 54.5391 17.4556 54.5391 18.75L54.5391 28.125C54.5391 29.4194 53.4897 30.4688 52.1953 30.4688L44.25 30.4688C39.0335 32.1211 33.5969 32.9745 28.125 33 22.6823 33.0866 17.2612 32.2952 12.0703 30.6562" stroke="#66737C" stroke-width="3.33333" stroke-linecap="round" stroke-linejoin="round" fill="none"/><path d="M5.27344 30.4688 4.05469 30.4688C2.76027 30.4688 1.71094 29.4194 1.71094 28.125L1.71094 18.75C1.71094 17.4556 2.76027 16.4062 4.05469 16.4062L5.27344 16.4062" stroke="#66737C" stroke-width="3.33333" stroke-linecap="round" stroke-linejoin="round" fill="none"/><path d="M21.0938 21.6797 21.0938 25.1953" stroke="#66737C" stroke-width="3.33333" stroke-linecap="round" stroke-linejoin="round" fill="none"/><path d="M28.125 21.6797 28.125 25.1953" stroke="#66737C" stroke-width="3.33333" stroke-linecap="round" stroke-linejoin="round" fill="none"/><path d="M10.5469 23.4375C10.5469 33.1456 18.4169 41.0156 28.125 41.0156 37.8331 41.0156 45.7031 33.1456 45.7031 23.4375 45.7031 13.7294 37.8331 5.85938 28.125 5.85938 18.4169 5.85938 10.5469 13.7294 10.5469 23.4375" stroke="#66737C" stroke-width="3.33333" stroke-linecap="round" stroke-linejoin="round" fill="none"/><path d="M39.5859 36.7734 54.4922 49.8047" stroke="#66737C" stroke-width="3.33333" stroke-linecap="round" stroke-linejoin="round" fill="none"/></g></svg>