<svg width="60" height="60" viewBox="-1.875 -1.875 60 60" xmlns="http://www.w3.org/2000/svg" xmlns:xlink="http://www.w3.org/1999/xlink" id="Seo-Network-1--Streamline-Ultimate" overflow="hidden"><path d="M24.6094 27.832C24.6094 36.0839 31.2989 42.7734 39.5508 42.7734 47.8027 42.7734 54.4922 36.0839 54.4922 27.832 54.4922 19.5801 47.8027 12.8906 39.5508 12.8906 31.2989 12.8906 24.6094 19.5801 24.6094 27.832Z" stroke="#66737C" stroke-width="3.33333" stroke-linecap="round" stroke-linejoin="round" fill="none"/><path d="M24.6094 27.832 54.4922 27.832" stroke="#66737C" stroke-width="3.33333" stroke-linecap="round" stroke-linejoin="round" fill="none"/><path d="M43.0734 13.3078C44.5675 18.0028 45.2708 22.9135 45.1547 27.8391 45.2711 32.7647 44.5678 37.6754 43.0734 42.3703" stroke="#66737C" stroke-width="3.33333" stroke-linecap="round" stroke-linejoin="round" fill="none"/><path d="M36.0281 13.3078C34.5341 18.0028 33.8308 22.9135 33.9469 27.8391 33.8305 32.7647 34.5338 37.6754 36.0281 42.3703" stroke="#66737C" stroke-width="3.33333" stroke-linecap="round" stroke-linejoin="round" fill="none"/><path d="M5.27344 19.043C3.33181 19.043 1.75781 20.617 1.75781 22.5586 1.75781 27.832 5.27344 27.832 5.27344 33.1055 5.27344 35.0471 3.69944 36.6211 1.75781 36.6211" stroke="#66737C" stroke-width="3.33333" stroke-linecap="round" stroke-linejoin="round" fill="none"/><path d="M17.5781 36.6211 15.8203 36.6211C13.8787 36.6211 12.3047 35.0471 12.3047 33.1055L12.3047 22.5586C12.3047 20.617 13.8787 19.043 15.8203 19.043L17.5781 19.043" stroke="#66737C" stroke-width="3.33333" stroke-linecap="round" stroke-linejoin="round" fill="none"/><path d="M12.3047 27.832 17.5781 27.832" stroke="#66737C" stroke-width="3.33333" stroke-linecap="round" stroke-linejoin="round" fill="none"/></svg>