<svg width="60" height="60" viewBox="-2.14 -2.14 60 60" xmlns="http://www.w3.org/2000/svg" xmlns:xlink="http://www.w3.org/1999/xlink" id="Seo-Search-Graph--Streamline-Ultimate.svg" overflow="hidden"><path d="M43.854 22.7825C43.8529 34.4033 34.4316 43.823 22.8109 43.8219 18.1013 43.8215 13.528 42.2411 9.82297 39.3337" stroke="#66737C" stroke-width="3.57143" stroke-linecap="round" stroke-linejoin="round" fill="none"/><path d="M1.85733 24.6816C1.80161 24.0625 1.77375 23.4295 1.77375 22.7825 1.77199 11.163 11.19 1.74214 22.8095 1.74037 28.3003 1.73954 33.5739 3.88531 37.5042 7.71954" stroke="#66737C" stroke-width="3.57143" stroke-linecap="round" stroke-linejoin="round" fill="none"/><path d="M37.6923 37.6598 53.9787 53.9787" stroke="#66737C" stroke-width="3.57143" stroke-linecap="round" stroke-linejoin="round" fill="none"/><path d="M53.9787 14.6753 53.9787 3.4825 42.8185 3.4825" stroke="#66737C" stroke-width="3.57143" stroke-linecap="round" stroke-linejoin="round" fill="none"/><path d="M1.74125 38.3075 21.0575 18.9982C21.9166 18.1413 23.3072 18.1413 24.1662 18.9982L29.845 24.6793C30.702 25.5378 32.0926 25.539 32.9511 24.682 32.9519 24.6811 32.9528 24.6802 32.9537 24.6793L53.9787 3.4825" stroke="#66737C" stroke-width="3.57143" stroke-linecap="round" stroke-linejoin="round" fill="none"/></svg>