<svg width="60" height="60" viewBox="-1.875 -1.875 60 60" xmlns="http://www.w3.org/2000/svg" xmlns:xlink="http://www.w3.org/1999/xlink" id="Seo-Eye--Streamline-Ultimate" overflow="hidden"><g><path d="M9.375 28.125C9.375 38.4803 17.7697 46.875 28.125 46.875 38.4803 46.875 46.875 38.4803 46.875 28.125 46.875 17.7697 38.4803 9.375 28.125 9.375 17.7697 9.375 9.375 17.7697 9.375 28.125" stroke="#66737C" stroke-width="3.33333" stroke-linecap="round" stroke-linejoin="round" fill="none"/><path d="M23.4375 28.125C23.4375 30.7138 25.5362 32.8125 28.125 32.8125 30.7138 32.8125 32.8125 30.7138 32.8125 28.125 32.8125 25.5362 30.7138 23.4375 28.125 23.4375 25.5362 23.4375 23.4375 25.5362 23.4375 28.125" stroke="#66737C" stroke-width="3.33333" stroke-linecap="round" stroke-linejoin="round" fill="none"/><path d="M9.375 28.125C13.7629 34.1494 20.6767 37.8223 28.125 38.0859 35.5623 37.7812 42.4592 34.1172 46.875 28.125" stroke="#66737C" stroke-width="3.33333" stroke-linecap="round" stroke-linejoin="round" fill="none"/><path d="M9.375 28.125C13.7629 22.1006 20.6767 18.4277 28.125 18.1641 35.5623 18.4688 42.4592 22.1328 46.875 28.125" stroke="#66737C" stroke-width="3.33333" stroke-linecap="round" stroke-linejoin="round" fill="none"/><path d="M28.125 1.75781 28.125 9.375" stroke="#66737C" stroke-width="3.33333" stroke-linecap="round" stroke-linejoin="round" fill="none"/><path d="M1.75781 28.125 9.375 28.125" stroke="#66737C" stroke-width="3.33333" stroke-linecap="round" stroke-linejoin="round" fill="none"/><path d="M28.125 54.4922 28.125 46.875" stroke="#66737C" stroke-width="3.33333" stroke-linecap="round" stroke-linejoin="round" fill="none"/><path d="M54.3281 28.125 46.875 28.125" stroke="#66737C" stroke-width="3.33333" stroke-linecap="round" stroke-linejoin="round" fill="none"/><path d="M54.4922 1.75781 47.4609 8.78906" stroke="#66737C" stroke-width="3.33333" stroke-linecap="round" stroke-linejoin="round" fill="none"/><path d="M1.75781 1.75781 8.78906 8.78906" stroke="#66737C" stroke-width="3.33333" stroke-linecap="round" stroke-linejoin="round" fill="none"/><path d="M54.4922 54.4922 47.4609 47.4609" stroke="#66737C" stroke-width="3.33333" stroke-linecap="round" stroke-linejoin="round" fill="none"/><path d="M1.75781 54.4922 8.78906 47.4609" stroke="#66737C" stroke-width="3.33333" stroke-linecap="round" stroke-linejoin="round" fill="none"/></g></svg>