<svg width="60" height="60" viewBox="-2.14 -2.14 60 60" xmlns="http://www.w3.org/2000/svg" xmlns:xlink="http://www.w3.org/1999/xlink" id="Share-Play-Spatial-Experience--Streamline-Ultimate.svg" fill="none" overflow="hidden"><path d="M26.7126 6.57029 14.4033 6.57029C13.3891 6.57029 12.4922 7.22867 12.1883 8.19632L11.4593 10.5174M3.4346 43.4108 2.38572 48.5326C2.15025 49.6825 2.71368 50.8663 4.00137 50.8663L51.5967 50.8663C52.9797 50.8663 53.5718 49.6825 53.3363 48.5326L50.6462 33.4784" stroke="#66737C" stroke-width="3.57143" stroke-linecap="round"/><path d="M14.6477 24.3489C17.0037 24.3489 18.9136 22.4391 18.9136 20.0831 18.9136 17.7272 17.0037 15.8173 14.6477 15.8173 12.2918 15.8173 10.3819 17.7272 10.3819 20.0831 10.3819 22.4391 12.2918 24.3489 14.6477 24.3489Z" stroke="#66737C" stroke-width="3.57143" stroke-linecap="round" stroke-linejoin="round"/><path d="M38.9989 12.4929C41.1086 12.4929 42.8187 10.7828 42.8187 8.67326 42.8187 6.56372 41.1086 4.85358 38.9989 4.85358 36.8894 4.85358 35.1793 6.56372 35.1793 8.67326 35.1793 10.7828 36.8894 12.4929 38.9989 12.4929Z" stroke="#66737C" stroke-width="3.57143" stroke-linecap="round" stroke-linejoin="round"/><path d="M22.1129 31.814C22.1129 29.8341 21.3264 27.9352 19.9264 26.5353 18.5264 25.1353 16.6276 24.3487 14.6477 24.3487 12.6678 24.3487 10.769 25.1353 9.36897 26.5353 7.96896 27.9352 7.18245 29.8341 7.18245 31.814L7.18245 35.0133 10.3818 35.0133 11.4483 43.5449 17.8471 43.5449 18.9135 35.0133 22.1129 35.0133 22.1129 31.814Z" stroke="#66737C" stroke-width="3.57143" stroke-linecap="round" stroke-linejoin="round"/><path d="M45.6834 19.1771C45.6834 17.4042 44.9793 15.704 43.7256 14.4504 42.4721 13.1969 40.7719 12.4926 38.9991 12.4926 37.2263 12.4926 35.5259 13.1969 34.2724 14.4504 33.0187 15.704 32.3146 17.4042 32.3146 19.1771L32.3146 22.0418 35.1793 22.0418 36.1342 29.6811 41.8638 29.6811 42.8187 22.0418 45.6834 22.0418 45.6834 19.1771Z" stroke="#66737C" stroke-width="3.57143" stroke-linecap="round" stroke-linejoin="round"/></svg>