<svg width="60" height="60" viewBox="-2.14 -2.14 60 60" xmlns="http://www.w3.org/2000/svg" xmlns:xlink="http://www.w3.org/1999/xlink" id="Share--Streamline-Ultimate.svg" overflow="hidden"><path d="M18.7451 23.7089C16.4538 19.1203 10.8765 17.258 6.28792 19.5493 1.69932 21.8406-0.16299 27.4179 2.12834 32.0065 4.41967 36.5951 9.99695 38.4574 14.5856 36.1661 16.3862 35.2669 17.846 33.8071 18.7451 32.0065" stroke="#66737C" stroke-width="3.57143" stroke-linecap="round" stroke-linejoin="round" fill="none"/><path d="M45.2725 19.7342C50.4142 19.7468 54.5926 15.5888 54.6052 10.4471 54.6177 5.30542 50.4598 1.12705 45.3181 1.11446 40.1764 1.10186 35.998 5.25982 35.9854 10.4015 35.9819 11.8577 36.32 13.2945 36.9725 14.5963" stroke="#66737C" stroke-width="3.57143" stroke-linecap="round" stroke-linejoin="round" fill="none"/><path d="M36.9725 41.1214C34.6799 45.7093 36.5407 51.2871 41.1286 53.5797 45.7166 55.8723 51.2944 54.0116 53.587 49.4236 55.8796 44.8357 54.0189 39.2579 49.4309 36.9653 48.1397 36.3201 46.7159 35.9847 45.2725 35.9858" stroke="#66737C" stroke-width="3.57143" stroke-linecap="round" stroke-linejoin="round" fill="none"/><path d="M45.2725 19.7342C41.7563 19.731 38.5434 17.7421 36.9725 14.5963L18.7451 23.7089C20.0639 26.3184 20.0639 29.3993 18.7451 32.0088L36.9725 41.1237C38.5434 37.9779 41.7563 35.989 45.2725 35.9858" stroke="#66737C" stroke-width="3.57143" stroke-linecap="round" stroke-linejoin="round" fill="none"/></svg>