<svg width="60" height="60" viewBox="-2.14 -2.14 60 60" xmlns="http://www.w3.org/2000/svg" xmlns:xlink="http://www.w3.org/1999/xlink" id="Share-3--Streamline-Ultimate.svg" overflow="hidden"><path d="M36.5662 36.5662 36.5662 50.4963C36.5662 52.4196 35.0071 53.9787 33.0838 53.9787L5.22375 53.9787C3.30042 53.9787 1.74125 52.4196 1.74125 50.4963L1.74125 22.6362C1.74125 20.7129 3.30042 19.1537 5.22375 19.1537L6.965 19.1537" stroke="#66737C" stroke-width="3.57143" stroke-linecap="round" stroke-linejoin="round" fill="none"/><path d="M36.5662 29.6012 36.5662 22.6362 26.1187 22.6362C24.1954 22.6362 22.6362 24.1954 22.6362 26.1187L22.6362 33.0838C22.6362 33.0838 15.6713 29.6012 15.6713 22.6362L15.6713 15.6713C15.6713 11.8246 18.7896 8.70625 22.6362 8.70625L36.5662 8.70625 36.5662 1.74125 53.9787 15.6713Z" stroke="#66737C" stroke-width="3.57143" stroke-linecap="round" stroke-linejoin="round" fill="none"/></svg>