<svg width="60" height="60" viewBox="-1.875 -1.875 60 60" xmlns="http://www.w3.org/2000/svg" xmlns:xlink="http://www.w3.org/1999/xlink" id="Shield-Check-1--Streamline-Ultimate" overflow="hidden"><path d="M5.27344 9.19453 5.27344 27.0398C5.27354 38.5863 12.3843 48.9404 23.1609 53.0859L25.6008 54.0234C27.2256 54.6484 29.0244 54.6484 30.6492 54.0234L33.0891 53.0859C43.8657 48.9404 50.9765 38.5863 50.9766 27.0398L50.9766 9.19453C50.9857 7.82283 50.1894 6.57333 48.9422 6.00234 42.3793 3.13779 35.2855 1.69139 28.125 1.75781 20.9645 1.69139 13.8707 3.13779 7.30781 6.00234 6.06057 6.57333 5.26426 7.82283 5.27344 9.19453Z" stroke="#66737C" stroke-width="3.33333" stroke-linecap="round" stroke-linejoin="round" fill="none"/><path d="M40.3125 26.3672C39.3417 33.0932 33.1022 37.7587 26.3762 36.7879 19.6502 35.817 14.9847 29.5775 15.9555 22.8516 16.8289 16.801 22.0118 12.3092 28.125 12.3047" stroke="#66737C" stroke-width="3.33333" stroke-linecap="round" stroke-linejoin="round" fill="none"/><path d="M40.4297 15.3797 29.2125 26.5969C28.6115 27.1964 27.6385 27.1964 27.0375 26.5969L23.5219 23.0695" stroke="#66737C" stroke-width="3.33333" stroke-linecap="round" stroke-linejoin="round" fill="none"/></svg>