<svg width="60" height="60" viewBox="-2.14 -2.14 60 60" xmlns="http://www.w3.org/2000/svg" xmlns:xlink="http://www.w3.org/1999/xlink" id="Shipping-Truck-Style-2--Streamline-Ultimate.svg" fill="none" overflow="hidden"><path d="M36.5662 17.4125 41.2096 17.4125C41.9061 17.4125 42.6026 17.8768 43.0669 18.3411L47.0137 24.3775 52.3536 26.2348C53.2822 26.467 53.9787 27.3957 53.9787 28.3243L53.9787 38.3075C53.9787 39.4683 53.0501 40.6292 51.6571 40.6292L44.7197 40.6292" stroke="#66737C" stroke-width="3.57143" stroke-linecap="round" stroke-linejoin="round" stroke-miterlimit="10"/><path d="M40.0488 45.2725C42.6133 45.2725 44.6921 43.1937 44.6921 40.6292 44.6921 38.0647 42.6133 35.9858 40.0488 35.9858 37.4842 35.9858 35.4054 38.0647 35.4054 40.6292 35.4054 43.1937 37.4842 45.2725 40.0488 45.2725Z" stroke="#66737C" stroke-width="3.57143" stroke-linecap="round" stroke-linejoin="round" stroke-miterlimit="10"/><path d="M36.5662 37.5901 36.5662 12.7692C36.5662 11.3762 35.6376 10.4475 34.2446 10.4475L4.06292 10.4475C2.66992 10.4475 1.74125 11.3762 1.74125 12.7692L1.74125 38.3075C1.74125 39.4683 2.66992 40.6292 4.06292 40.6292L7.53901 40.6292M35.392 40.6292 26.1129 40.6292" stroke="#66737C" stroke-width="3.57143" stroke-linecap="round" stroke-linejoin="round" stroke-miterlimit="10"/><path d="M12.1888 45.2725C14.7532 45.2725 16.8321 43.1937 16.8321 40.6292 16.8321 38.0647 14.7532 35.9858 12.1888 35.9858 9.62431 35.9858 7.54542 38.0647 7.54542 40.6292 7.54542 43.1937 9.62431 45.2725 12.1888 45.2725Z" stroke="#66737C" stroke-width="3.57143" stroke-linecap="round" stroke-linejoin="round" stroke-miterlimit="10"/><path d="M21.4754 45.2725C24.0399 45.2725 26.1187 43.1937 26.1187 40.6292 26.1187 38.0647 24.0399 35.9858 21.4754 35.9858 18.911 35.9858 16.8321 38.0647 16.8321 40.6292 16.8321 43.1937 18.911 45.2725 21.4754 45.2725Z" stroke="#66737C" stroke-width="3.57143" stroke-linecap="round" stroke-linejoin="round" stroke-miterlimit="10"/><path d="M12.1888 10.4475 12.1888 26.6992" stroke="#66737C" stroke-width="3.57143" stroke-linecap="round" stroke-linejoin="round" stroke-miterlimit="10"/><path d="M23.7971 10.4475 23.7971 26.6992" stroke="#66737C" stroke-width="3.57143" stroke-linecap="round" stroke-linejoin="round" stroke-miterlimit="10"/></svg>