<svg width="60" height="60" viewBox="-2.14 -2.14 60 60" xmlns="http://www.w3.org/2000/svg" xmlns:xlink="http://www.w3.org/1999/xlink" id="Shipment-Plane--Streamline-Ultimate.svg" overflow="hidden"><path d="M48.2373 27.6627 27.6069 34.5928 24.8418 31.8509 20.7418 33.23C19.8311 33.535 19.3401 34.5205 19.6451 35.4312 19.7204 35.6558 19.8407 35.8628 19.9988 36.0392L25.5499 42.2543C26.4798 43.2961 27.9419 43.6818 29.2646 43.2341L35.3404 41.1933 34.1099 49.9692C33.9749 50.9201 34.6363 51.8003 35.5871 51.9354 35.856 51.9736 36.1301 51.9482 36.3875 51.8614L39.5473 50.8004C40.0364 50.6353 40.4275 50.2621 40.6152 49.7812L45.2446 37.8641 51.0209 35.9231C53.3001 35.1538 54.524 32.6825 53.7547 30.4034 52.9854 28.1242 50.5141 26.9003 48.2349 27.6696Z" stroke="#66737C" stroke-width="3.57143" stroke-linecap="round" stroke-linejoin="round" fill="none"/><path d="M42.461 29.6036 36.0067 25.1599C35.5556 24.8491 34.9843 24.7691 34.4651 24.944L31.3588 25.9887C30.448 26.2933 29.9565 27.2786 30.2612 28.1894 30.3473 28.4471 30.4926 28.6809 30.6855 28.8722L34.2074 32.378" stroke="#66737C" stroke-width="3.57143" stroke-linecap="round" stroke-linejoin="round" fill="none"/><path d="M19.1537 45.5627 5.22375 45.5627C3.30042 45.5627 1.74125 44.0035 1.74125 42.0802L1.74125 17.7027C1.74125 15.7794 3.30042 14.2202 5.22375 14.2202L40.0488 14.2202C41.9721 14.2202 43.5312 15.7794 43.5312 17.7027L43.5312 21.1852" stroke="#66737C" stroke-width="3.57143" stroke-linecap="round" stroke-linejoin="round" fill="none"/><path d="M42.4076 15.1396 35.8581 5.32358C35.2137 4.35681 34.1295 3.77512 32.9677 3.77271L12.3048 3.77271C11.1405 3.77279 10.0532 4.35476 9.40739 5.32358L2.86494 15.1396" stroke="#66737C" stroke-width="3.57143" stroke-linecap="round" stroke-linejoin="round" fill="none"/><path d="M22.6362 3.77271 22.6362 14.2202" stroke="#66737C" stroke-width="3.57143" stroke-linecap="round" stroke-linejoin="round" fill="none"/></svg>