<svg width="60" height="60" viewBox="-1.875 -1.875 60 60" xmlns="http://www.w3.org/2000/svg" xmlns:xlink="http://www.w3.org/1999/xlink" id="Shopping-Laptop-Megaphone--Streamline-Ultimate" overflow="hidden"><defs></defs><path d="M26.3672 22.9125 29.3813 27.6609" stroke="#66737C" stroke-width="3.57143" stroke-linecap="round" stroke-linejoin="round" fill="none"/><path d="M43.0359 1.75781 54.4922 19.807" stroke="#66737C" stroke-width="3.57143" stroke-linecap="round" stroke-linejoin="round" fill="none"/><path d="M53.8898 18.8555 28.7789 26.7117 26.9695 23.8617 43.6383 2.70703 53.8898 18.8555Z" stroke="#66737C" stroke-width="3.57143" stroke-linecap="round" stroke-linejoin="round" fill="none"/><path d="M34.2047 25.0148 35.7984 27.4641C36.8675 29.2153 39.1533 29.7692 40.9055 28.7016L41.0883 28.582C42.8528 27.311 43.3214 24.8851 42.157 23.0484L41.8594 22.6195" stroke="#66737C" stroke-width="3.57143" stroke-linecap="round" stroke-linejoin="round" fill="none"/><path d="M50.9766 29.8828 50.9766 43.9453" stroke="#66737C" stroke-width="3.57143" stroke-linecap="round" stroke-linejoin="round" fill="none"/><path d="M5.27344 43.9453 5.27344 19.3359C5.27344 17.3943 6.84744 15.8203 8.78906 15.8203L23.4375 15.8203" stroke="#66737C" stroke-width="3.57143" stroke-linecap="round" stroke-linejoin="round" fill="none"/><path d="M34.1813 43.9453C32.2703 47.2901 28.0097 48.4524 24.6649 46.5414 23.5832 45.9234 22.6868 45.027 22.0688 43.9453L1.75781 43.9453 1.75781 47.4609C1.75781 51.3442 4.90581 54.4922 8.78906 54.4922L47.4609 54.4922C51.3442 54.4922 54.4922 51.3442 54.4922 47.4609L54.4922 43.9453Z" stroke="#66737C" stroke-width="3.57143" stroke-linecap="round" stroke-linejoin="round" fill="none"/></svg>