<svg width="60" height="60" viewBox="-2.14 -2.14 60 60" xmlns="http://www.w3.org/2000/svg" xmlns:xlink="http://www.w3.org/1999/xlink" id="Shopping-Cart-1--Streamline-Ultimate.svg" fill="none" overflow="hidden"><path d="M13.93 44.4016 36.9633 44.4016C37.7858 44.4019 38.5819 44.1107 39.2106 43.5798 39.8391 43.049 40.2593 42.3131 40.397 41.5019L46.5192 5.51612C46.6574 4.70551 47.0778 3.96991 47.7063 3.43962 48.3348 2.9093 49.1306 2.61849 49.953 2.61868L52.2375 2.61868" stroke="#66737C" stroke-width="3.57143" stroke-linecap="round" stroke-linejoin="round"/><path d="M18.2831 51.3669C17.8023 51.3669 17.4125 50.9771 17.4125 50.4963 17.4125 50.0154 17.8023 49.6256 18.2831 49.6256" stroke="#66737C" stroke-width="3.57143"/><path d="M18.2831 51.3669C18.764 51.3669 19.1537 50.9771 19.1537 50.4963 19.1537 50.0154 18.764 49.6256 18.2831 49.6256" stroke="#66737C" stroke-width="3.57143"/><path d="M35.6956 51.3669C35.2148 51.3669 34.825 50.9771 34.825 50.4963 34.825 50.0154 35.2148 49.6256 35.6956 49.6256" stroke="#66737C" stroke-width="3.57143"/><path d="M35.6956 51.3669C36.1764 51.3669 36.5662 50.9771 36.5662 50.4963 36.5662 50.0154 36.1764 49.6256 35.6956 49.6256" stroke="#66737C" stroke-width="3.57143"/><path d="M41.6806 33.9546 13.6559 33.9546C12.1029 33.9544 10.5945 33.4352 9.37036 32.4794 8.14626 31.5238 7.27668 30.1863 6.89983 28.6798L3.53341 15.2141C3.46917 14.9573 3.46434 14.6892 3.51925 14.4303 3.57418 14.1713 3.68743 13.9283 3.85039 13.7197 4.01333 13.5111 4.2217 13.3423 4.45967 13.2263 4.69761 13.1104 4.95887 13.0502 5.22359 13.0503L45.2351 13.0503" stroke="#66737C" stroke-width="3.57143" stroke-linecap="round" stroke-linejoin="round"/></svg>