<svg width="60" height="60" viewBox="-1.875 -1.875 60 60" xmlns="http://www.w3.org/2000/svg" xmlns:xlink="http://www.w3.org/1999/xlink" id="Shopping-Cart-Star--Streamline-Ultimate" overflow="hidden"><path d="M24.3 5.20078 27.4547 11.9977 33.5977 11.9977C34.428 11.9652 35.1275 12.612 35.16 13.4424 35.1776 13.892 34.9931 14.3258 34.657 14.625L29.3273 19.875 32.2805 26.6578C32.6229 27.4771 32.2362 28.4189 31.4169 28.7612 30.9532 28.9551 30.4255 28.9208 29.9906 28.6687L22.8516 24.6539 15.7148 28.6688C14.9466 29.1141 13.9628 28.8523 13.5175 28.0841 13.2654 27.6493 13.2312 27.1216 13.425 26.6578L16.3781 19.875 11.0461 14.6297C10.4255 14.077 10.3705 13.1258 10.9233 12.5053 11.2213 12.1707 11.653 11.9863 12.1008 12.0023L18.2437 12.0023 21.4055 5.20547C21.8309 4.40547 22.8243 4.10185 23.6243 4.52731 23.9113 4.67992 24.1465 4.91432 24.3 5.20078Z" stroke="#66737C" stroke-width="3.33333" stroke-linecap="round" stroke-linejoin="round" fill="none"/><path d="M10.5469 49.1437C10.5469 51.5708 12.5144 53.5383 14.9414 53.5383 17.3684 53.5383 19.3359 51.5708 19.3359 49.1437 19.3359 46.7167 17.3684 44.7492 14.9414 44.7492 12.5144 44.7492 10.5469 46.7167 10.5469 49.1437Z" stroke="#66737C" stroke-width="3.33333" stroke-linecap="round" stroke-linejoin="round" fill="none"/><path d="M28.125 49.1437C28.125 51.5708 30.0925 53.5383 32.5195 53.5383 34.9466 53.5383 36.9141 51.5708 36.9141 49.1437 36.9141 46.7167 34.9466 44.7492 32.5195 44.7492 30.0925 44.7492 28.125 46.7167 28.125 49.1437Z" stroke="#66737C" stroke-width="3.33333" stroke-linecap="round" stroke-linejoin="round" fill="none"/><path d="M1.75781 16.6242 7.21875 35.1094C7.62951 36.6476 9.02273 37.7177 10.6148 37.718L35.9719 37.718C37.5666 37.7209 38.9636 36.6501 39.375 35.1094L46.9641 6.62344C47.5799 4.31524 49.6704 2.70933 52.0594 2.70937L54.4922 2.70937" stroke="#66737C" stroke-width="3.33333" stroke-linecap="round" stroke-linejoin="round" fill="none"/></svg>