<svg width="60" height="60" viewBox="-1.875 -1.875 60 60" xmlns="http://www.w3.org/2000/svg" xmlns:xlink="http://www.w3.org/1999/xlink" id="Single-Man-Actions-Money--Streamline-Ultimate" overflow="hidden"><path d="M1.75781 40.4297C1.76377 31.6885 8.85473 24.6072 17.5959 24.6131 19.7245 24.6146 21.8309 25.0454 23.7891 25.8797" stroke="#66737C" stroke-width="3.33333" stroke-linecap="round" stroke-linejoin="round" fill="none"/><path d="M9.24609 6.51797C12.2716 9.65481 16.4426 11.4264 20.8008 11.4258 22.9865 11.4273 25.1495 10.9822 27.157 10.118" stroke="#66737C" stroke-width="3.33333" stroke-linecap="round" stroke-linejoin="round" fill="none"/><path d="M7.91016 11.4258C7.91016 16.7653 12.2387 21.0938 17.5781 21.0938 22.9176 21.0938 27.2461 16.7653 27.2461 11.4258 27.2461 6.08631 22.9176 1.75781 17.5781 1.75781 12.2387 1.75781 7.91016 6.08631 7.91016 11.4258Z" stroke="#66737C" stroke-width="3.33333" stroke-linecap="round" stroke-linejoin="round" fill="none"/><path d="M43.9453 33.3984 39.1781 33.3984C37.441 33.3997 36.0338 34.8088 36.035 36.5459 36.0359 37.8289 36.816 38.9828 38.0062 39.4617L42.8414 41.3953C44.4543 42.0405 45.2387 43.871 44.5935 45.4839 44.1153 46.6792 42.957 47.4624 41.6695 47.4609L36.9141 47.4609" stroke="#66737C" stroke-width="3.33333" stroke-linecap="round" stroke-linejoin="round" fill="none"/><path d="M40.4297 33.3984 40.4297 31.6406" stroke="#66737C" stroke-width="3.33333" stroke-linecap="round" stroke-linejoin="round" fill="none"/><path d="M40.4297 49.2188 40.4297 47.4609" stroke="#66737C" stroke-width="3.33333" stroke-linecap="round" stroke-linejoin="round" fill="none"/><path d="M26.3672 40.4297C26.3672 48.1962 32.6632 54.4922 40.4297 54.4922 48.1962 54.4922 54.4922 48.1962 54.4922 40.4297 54.4922 32.6632 48.1962 26.3672 40.4297 26.3672 32.6632 26.3672 26.3672 32.6632 26.3672 40.4297Z" stroke="#66737C" stroke-width="3.33333" stroke-linecap="round" stroke-linejoin="round" fill="none"/></svg>