<svg width="60" height="60" viewBox="-1.875 -1.875 60 60" xmlns="http://www.w3.org/2000/svg" xmlns:xlink="http://www.w3.org/1999/xlink" id="Single-Man-Hierachy--Streamline-Ultimate" overflow="hidden"><path d="M5.27344 8.78906C5.27344 12.6723 8.42144 15.8203 12.3047 15.8203 16.1879 15.8203 19.3359 12.6723 19.3359 8.78906 19.3359 4.90581 16.1879 1.75781 12.3047 1.75781 8.42144 1.75781 5.27344 4.90581 5.27344 8.78906Z" stroke="#66737C" stroke-width="3.33333" stroke-linecap="round" stroke-linejoin="round" fill="none"/><path d="M12.3047 19.3359 12.3047 33.3984" stroke="#66737C" stroke-width="3.33333" stroke-linecap="round" stroke-linejoin="round" fill="none"/><path d="M17.5781 54.4922 19.3359 36.9141 22.8516 36.9141 22.8516 29.8828C22.8516 24.0579 18.1296 19.3359 12.3047 19.3359 6.47981 19.3359 1.75781 24.0579 1.75781 29.8828L1.75781 36.9141 5.27344 36.9141 7.03125 54.4922Z" stroke="#66737C" stroke-width="3.33333" stroke-linecap="round" stroke-linejoin="round" fill="none"/><path d="M43.9453 1.75781 54.4922 1.75781 54.4922 12.3047 43.9453 12.3047Z" stroke="#66737C" stroke-width="3.33333" stroke-linecap="round" stroke-linejoin="round" fill="none"/><path d="M43.9453 22.8516 54.4922 22.8516 54.4922 33.3984 43.9453 33.3984Z" stroke="#66737C" stroke-width="3.33333" stroke-linecap="round" stroke-linejoin="round" fill="none"/><path d="M43.9453 43.9453 54.4922 43.9453 54.4922 54.4922 43.9453 54.4922Z" stroke="#66737C" stroke-width="3.33333" stroke-linecap="round" stroke-linejoin="round" fill="none"/><path d="M43.9453 26.3672 29.8828 26.3672" stroke="#66737C" stroke-width="3.33333" stroke-linecap="round" stroke-linejoin="round" fill="none"/><path d="M43.9453 5.27344 40.4297 5.27344C38.4881 5.27344 36.9141 6.84744 36.9141 8.78906L36.9141 43.9453C36.9141 45.8869 38.4881 47.4609 40.4297 47.4609L43.9453 47.4609" stroke="#66737C" stroke-width="3.33333" stroke-linecap="round" stroke-linejoin="round" fill="none"/></svg>