<svg width="60" height="60" viewBox="-1.875 -1.875 60 60" xmlns="http://www.w3.org/2000/svg" xmlns:xlink="http://www.w3.org/1999/xlink" id="Sos-Sign--Streamline-Ultimate" fill="none" overflow="hidden"><path d="M17.6214 23.2831C17.462 22.8321 17.216 22.4219 16.9034 22.0726 16.2384 21.3297 15.2721 20.8621 14.1966 20.8621L11.3857 20.8621C9.59548 20.8621 8.14418 22.3134 8.14418 24.1036 8.14418 25.627 9.20489 26.9449 10.693 27.2705L14.9726 28.2066C16.6398 28.5713 17.8281 30.0485 17.8281 31.7552 17.8281 33.7608 16.2022 35.388 14.1966 35.388L11.7756 35.388C10.1945 35.388 8.84934 34.3774 8.35083 32.967" stroke="#66737C" stroke-width="3.33333" stroke-linecap="round" stroke-linejoin="round"/><path d="M47.7616 23.2831C47.6023 22.8321 47.3564 22.4219 47.0438 22.0726 46.3788 21.3297 45.4125 20.8621 44.337 20.8621L41.5261 20.8621C39.7357 20.8621 38.2845 22.3134 38.2845 24.1036 38.2845 25.627 39.3452 26.9449 40.8333 27.2705L45.113 28.2066C46.7801 28.5713 47.9684 30.0485 47.9684 31.7552 47.9684 33.7608 46.3425 35.388 44.337 35.388L41.9159 35.388C40.3348 35.388 38.9897 34.3774 38.4912 32.967" stroke="#66737C" stroke-width="3.33333" stroke-linecap="round" stroke-linejoin="round"/><path d="M23.2138 25.7041 23.2138 30.5461C23.2138 33.2201 25.3816 35.388 28.0556 35.388 30.7298 35.388 32.8976 33.2201 32.8976 30.5461L32.8976 25.7041C32.8976 23.03 30.7298 20.8621 28.0556 20.8621 25.3816 20.8621 23.2138 23.0299 23.2138 25.7041Z" stroke="#66737C" stroke-width="3.33333" stroke-linecap="round" stroke-linejoin="round"/><path d="M6.5625 2.53125 49.6852 2.53125C49.6852 2.53125 53.7164 2.53125 53.7164 6.5625L53.7164 49.6852C53.7164 49.6852 53.7164 53.7164 49.6852 53.7164L6.5625 53.7164C6.5625 53.7164 2.53125 53.7164 2.53125 49.6852L2.53125 6.5625C2.53125 6.5625 2.53125 2.53125 6.5625 2.53125" stroke="#66737C" stroke-width="3.33333" stroke-linecap="round" stroke-linejoin="round"/></svg>