<svg width="60" height="60" viewBox="-1.875 -1.875 60 60" xmlns="http://www.w3.org/2000/svg" xmlns:xlink="http://www.w3.org/1999/xlink" id="Space-Exploration-Colony-3--Streamline-Ultimate" fill="none" overflow="hidden"><path d="M4.6875 19.9219C5.46457 20.6988 6.51839 21.1352 7.61719 21.1352 8.71598 21.1352 9.7698 20.6988 10.5469 19.9219L19.9219 10.5469C20.6782 9.76568 21.0971 8.71847 21.0882 7.63118 21.0794 6.54387 20.6436 5.50359 19.8747 4.73473 19.1058 3.96588 18.0656 3.53002 16.9783 3.5212 15.891 3.51237 14.8437 3.93127 14.0625 4.68755L4.6875 14.0625C3.91064 14.8396 3.47421 15.8934 3.47421 16.9922 3.47421 18.091 3.91064 19.1449 4.6875 19.9219L4.6875 19.9219Z" stroke="#66737C" stroke-width="3.57143" stroke-linecap="round" stroke-linejoin="round"/><path d="M36.3281 50.3906C37.1053 51.1676 38.1591 51.604 39.2578 51.604 40.3566 51.604 41.4105 51.1676 42.1875 50.3906L51.5625 41.0156C52.3188 40.2345 52.7377 39.1873 52.7287 38.1 52.7201 37.0127 52.2841 35.9723 51.5154 35.2036 50.7464 34.4346 49.7062 33.9987 48.619 33.99 47.5315 33.9811 46.4843 34.3999 45.7031 35.1562L36.3281 44.5312C35.5512 45.3084 35.1148 46.3622 35.1148 47.4609 35.1148 48.5597 35.5512 49.6137 36.3281 50.3906L36.3281 50.3906Z" stroke="#66737C" stroke-width="3.57143" stroke-linecap="round" stroke-linejoin="round"/><path d="M15.8203 14.6484 22.8516 21.6797" stroke="#66737C" stroke-width="3.57143" stroke-linecap="round" stroke-linejoin="round"/><path d="M41.1155 3.41323 3.41391 41.1148C2.49863 42.03 2.49863 43.5141 3.41391 44.4293L11.818 52.8333C12.7333 53.7487 14.2173 53.7487 15.1325 52.8333L52.834 15.1319C53.7492 14.2166 53.7492 12.7326 52.834 11.8173L44.43 3.41323C43.5148 2.49795 42.0307 2.49795 41.1155 3.41323Z" stroke="#66737C" stroke-width="3.57143" stroke-linecap="round" stroke-linejoin="round"/><path d="M34.5703 33.3984 41.0156 39.8438" stroke="#66737C" stroke-width="3.57143" stroke-linecap="round" stroke-linejoin="round"/><path d="M34.5703 9.96094 46.2891 21.6797" stroke="#66737C" stroke-width="3.57143" stroke-linecap="round" stroke-linejoin="round"/><path d="M14.6484 42.1875C14.3248 42.1875 14.0625 41.9252 14.0625 41.6016 14.0625 41.2779 14.3248 41.0156 14.6484 41.0156" stroke="#66737C" stroke-width="3.57143"/><path d="M14.6484 42.1875C14.972 42.1875 15.2344 41.9252 15.2344 41.6016 15.2344 41.2779 14.972 41.0156 14.6484 41.0156" stroke="#66737C" stroke-width="3.57143"/><path d="M24.0234 32.8125C23.6998 32.8125 23.4375 32.5502 23.4375 32.2266 23.4375 31.9029 23.6998 31.6406 24.0234 31.6406" stroke="#66737C" stroke-width="3.57143"/><path d="M24.0234 32.8125C24.3471 32.8125 24.6094 32.5502 24.6094 32.2266 24.6094 31.9029 24.3471 31.6406 24.0234 31.6406" stroke="#66737C" stroke-width="3.57143"/><path d="M33.3984 23.4375C33.0748 23.4375 32.8125 23.1752 32.8125 22.8516 32.8125 22.528 33.0748 22.2656 33.3984 22.2656" stroke="#66737C" stroke-width="3.57143"/><path d="M33.3984 23.4375C33.7221 23.4375 33.9844 23.1752 33.9844 22.8516 33.9844 22.528 33.7221 22.2656 33.3984 22.2656" stroke="#66737C" stroke-width="3.57143"/></svg>