<svg width="60" height="60" viewBox="-1.875 -1.875 60 60" xmlns="http://www.w3.org/2000/svg" xmlns:xlink="http://www.w3.org/1999/xlink" id="Startup-Launch--Streamline-Ultimate" overflow="hidden"><path d="M40.4297 12.3047 43.9453 12.3047C45.8869 12.3047 47.4609 13.8787 47.4609 15.8203L47.4609 33.3984C47.4609 35.3401 45.8869 36.9141 43.9453 36.9141L38.6719 36.9141" stroke="#66737C" stroke-width="3.33333" stroke-linecap="round" stroke-linejoin="round" fill="none"/><path d="M17.5781 36.9141 12.3047 36.9141C10.3631 36.9141 8.78906 35.3401 8.78906 33.3984L8.78906 15.8203C8.78906 13.8787 10.3631 12.3047 12.3047 12.3047L15.8203 12.3047" stroke="#66737C" stroke-width="3.33333" stroke-linecap="round" stroke-linejoin="round" fill="none"/><path d="M43.5258 36.9141C46.1886 36.9142 48.6229 38.4185 49.8141 40.8L54.1172 49.4039C54.9857 51.1404 54.2821 53.2523 52.5456 54.1208 52.057 54.3652 51.5182 54.4924 50.9719 54.4922L5.27812 54.4922C3.3365 54.4928 1.76203 52.9192 1.76145 50.9776 1.76128 50.4313 1.88843 49.8925 2.13281 49.4039L6.43594 40.8C7.6271 38.4185 10.0614 36.9142 12.7242 36.9141" stroke="#66737C" stroke-width="3.33333" stroke-linecap="round" stroke-linejoin="round" fill="none"/><path d="M33.3984 9.27188C33.3984 5.12109 28.125 1.75781 28.125 1.75781 28.125 1.75781 22.8516 5.12109 22.8516 9.27188L22.8516 26.8055 33.3984 26.8055Z" stroke="#66737C" stroke-width="3.33333" stroke-linecap="round" stroke-linejoin="round" fill="none"/><path d="M22.8516 26.8055 16.4344 26.8055C16.041 26.8124 15.6628 26.6543 15.3914 26.3695 15.1465 26.1088 15.0574 25.7381 15.157 25.3945 16.4281 21.868 19.2748 19.1384 22.8516 18.0164" stroke="#66737C" stroke-width="3.33333" stroke-linecap="round" stroke-linejoin="round" fill="none"/><path d="M33.3984 26.8055 39.8156 26.8055C40.2081 26.8118 40.5854 26.6537 40.8563 26.3695 41.102 26.1092 41.1912 25.7381 41.0906 25.3945 39.8166 21.8707 36.9723 19.1425 33.3984 18.0164" stroke="#66737C" stroke-width="3.33333" stroke-linecap="round" stroke-linejoin="round" fill="none"/><path d="M24.6094 33.3984 24.6094 38.6719" stroke="#66737C" stroke-width="3.33333" stroke-linecap="round" stroke-linejoin="round" fill="none"/><path d="M31.6406 33.3984 31.6406 43.9453" stroke="#66737C" stroke-width="3.33333" stroke-linecap="round" stroke-linejoin="round" fill="none"/></svg>