<svg width="60" height="60" viewBox="-2.14 -2.14 60 60" xmlns="http://www.w3.org/2000/svg" xmlns:xlink="http://www.w3.org/1999/xlink" id="Steel-1--Streamline-Ultimate.svg" fill="none" overflow="hidden"><path d="M11.6083 53.3983C16.0961 53.3983 19.7342 49.7603 19.7342 45.2725 19.7342 40.7847 16.0961 37.1467 11.6083 37.1467 7.12055 37.1467 3.4825 40.7847 3.4825 45.2725 3.4825 49.7603 7.12055 53.3983 11.6083 53.3983Z" stroke="#66737C" stroke-width="3.57143" stroke-linecap="round" stroke-linejoin="round"/><path d="M11.6083 46.4333C11.1275 46.4333 10.7377 46.0435 10.7377 45.5627 10.7377 45.0819 11.1275 44.6921 11.6083 44.6921" stroke="#66737C" stroke-width="3.57143"/><path d="M11.6083 46.4333C12.0892 46.4333 12.479 46.0435 12.479 45.5627 12.479 45.0819 12.0892 44.6921 11.6083 44.6921" stroke="#66737C" stroke-width="3.57143"/><path d="M27.86 46.4333C27.3792 46.4333 26.9894 46.0435 26.9894 45.5627 26.9894 45.0819 27.3792 44.6921 27.86 44.6921" stroke="#66737C" stroke-width="3.57143"/><path d="M27.86 46.4333C28.3408 46.4333 28.7306 46.0435 28.7306 45.5627 28.7306 45.0819 28.3408 44.6921 27.86 44.6921" stroke="#66737C" stroke-width="3.57143"/><path d="M43.8215 46.4333C43.3406 46.4333 42.9508 46.0435 42.9508 45.5627 42.9508 45.0819 43.3406 44.6921 43.8215 44.6921" stroke="#66737C" stroke-width="3.57143"/><path d="M43.8215 46.4333C44.3023 46.4333 44.6921 46.0435 44.6921 45.5627 44.6921 45.0819 44.3023 44.6921 43.8215 44.6921" stroke="#66737C" stroke-width="3.57143"/><path d="M3.4825 45.2725 3.4825 10.4475C3.4825 8.29239 4.33861 6.22555 5.86251 4.70168 7.38638 3.17778 9.45322 2.32167 11.6083 2.32167 13.7634 2.32167 15.8303 3.17778 17.3542 4.70168 18.8781 6.22555 19.7342 8.29239 19.7342 10.4475L19.7342 45.2725" stroke="#66737C" stroke-width="3.57143" stroke-linecap="round" stroke-linejoin="round"/><path d="M27.86 53.3983C32.3478 53.3983 35.9858 49.7603 35.9858 45.2725 35.9858 40.7847 32.3478 37.1467 27.86 37.1467 23.3722 37.1467 19.7342 40.7847 19.7342 45.2725 19.7342 49.7603 23.3722 53.3983 27.86 53.3983Z" stroke="#66737C" stroke-width="3.57143" stroke-linecap="round" stroke-linejoin="round"/><path d="M19.7342 45.2725 19.7342 10.4475C19.7342 8.29239 20.5903 6.22555 22.1142 4.70168 23.6381 3.17778 25.7048 2.32167 27.86 2.32167 30.0152 2.32167 32.082 3.17778 33.6059 4.70168 35.1298 6.22555 35.9858 8.29239 35.9858 10.4475L35.9858 45.2725" stroke="#66737C" stroke-width="3.57143" stroke-linecap="round" stroke-linejoin="round"/><path d="M44.1117 53.3983C48.5994 53.3983 52.2375 49.7603 52.2375 45.2725 52.2375 40.7847 48.5994 37.1467 44.1117 37.1467 39.6239 37.1467 35.9858 40.7847 35.9858 45.2725 35.9858 49.7603 39.6239 53.3983 44.1117 53.3983Z" stroke="#66737C" stroke-width="3.57143" stroke-linecap="round" stroke-linejoin="round"/><path d="M35.9858 45.2725 35.9858 10.4475C35.9858 8.29239 36.8418 6.22555 38.3658 4.70168 39.8897 3.17778 41.9565 2.32167 44.1117 2.32167 46.2669 2.32167 48.3336 3.17778 49.8576 4.70168 51.3815 6.22555 52.2375 8.29239 52.2375 10.4475L52.2375 45.2725" stroke="#66737C" stroke-width="3.57143" stroke-linecap="round" stroke-linejoin="round"/></svg>