<svg width="60" height="60" viewBox="-1.875 -1.875 60 60" xmlns="http://www.w3.org/2000/svg" xmlns:xlink="http://www.w3.org/1999/xlink" id="Suply-Chain-Supplier-Puzzle--Streamline-Ultimate" overflow="hidden"><defs></defs><path d="M7.00781 8.78906C7.00781 12.6723 10.1558 15.8203 14.0391 15.8203 17.9223 15.8203 21.0703 12.6723 21.0703 8.78906 21.0703 4.90581 17.9223 1.75781 14.0391 1.75781 10.1558 1.75781 7.00781 4.90581 7.00781 8.78906" stroke="#66737C" stroke-width="3.33333" stroke-linecap="round" stroke-linejoin="round" fill="none"/><path d="M25.343 26.7703C22.6522 20.5286 15.411 17.6501 9.16927 20.3409 4.65771 22.2858 1.7351 26.7277 1.73437 31.6406L1.73438 36.9141 7.00781 36.9141 8.76562 54.4922 19.3125 54.4922 20.0602 46.9922" stroke="#66737C" stroke-width="3.33333" stroke-linecap="round" stroke-linejoin="round" fill="none"/><path d="M14.0391 19.3359 14.0391 33.3984" stroke="#66737C" stroke-width="3.33333" stroke-linecap="round" stroke-linejoin="round" fill="none"/><path d="M40.5727 47.0578C38.7422 45.2271 38.7425 42.2591 40.5733 40.4287 42.404 38.5983 45.372 38.5985 47.2024 40.4293 47.6583 40.8852 48.0152 41.4303 48.2508 42.0305 48.4871 42.633 49.1671 42.9298 49.7697 42.6935 49.9198 42.6346 50.0562 42.5453 50.1703 42.4313L53.8312 38.7727C54.7462 37.8574 54.7462 36.3738 53.8312 35.4586L50.0812 31.7086C52.5821 31.0394 54.067 28.4696 53.3978 25.9688 52.7286 23.4679 50.1588 21.983 47.658 22.6522 46.0391 23.0854 44.7746 24.3499 44.3414 25.9688L40.5914 22.2188C39.6766 21.3029 38.1926 21.3021 37.2768 22.2169 37.2762 22.2175 37.2756 22.2181 37.275 22.2188L33.8789 25.6148C33.4206 26.0718 33.4194 26.8138 33.8764 27.2721 33.9322 27.3281 33.9935 27.3783 34.0594 27.4219 34.3224 27.5963 34.5674 27.7965 34.7906 28.0195 36.6201 29.8512 36.6182 32.8192 34.7865 34.6487 32.9548 36.4781 29.9869 36.4763 28.1574 34.6446 27.9361 34.423 27.7376 34.1799 27.5648 33.9187 27.2083 33.3786 26.4814 33.2297 25.9413 33.5862 25.8752 33.6298 25.8138 33.68 25.7578 33.7359L22.3594 37.1344C21.4444 38.0496 21.4444 39.5332 22.3594 40.4484L35.618 53.707C36.5328 54.6228 38.0167 54.6237 38.9325 53.7089 38.9331 53.7083 38.9338 53.7076 38.9344 53.707L42.593 50.0461C43.0506 49.5884 43.0505 48.8464 42.5928 48.3888 42.4788 48.2747 42.3424 48.1855 42.1922 48.1266 41.5827 47.8891 41.0307 47.5248 40.5727 47.0578Z" stroke="#66737C" stroke-width="3.33333" stroke-linecap="round" stroke-linejoin="round" fill="none"/></svg>