<svg width="60" height="60" viewBox="-2.14 -2.14 60 60" xmlns="http://www.w3.org/2000/svg" xmlns:xlink="http://www.w3.org/1999/xlink" id="Synchronize-Refresh-Arrow-3--Streamline-Ultimate.svg" fill="none" overflow="hidden"><path d="M42.2701 36.9488C39.5663 41.1912 35.4231 44.3163 30.601 45.7498 25.7789 47.1835 20.6013 46.8294 16.0191 44.753 11.4368 42.6766 7.75738 39.0169 5.65622 34.4459 3.55506 29.8749 3.17323 24.6994 4.58083 19.8695 5.98842 15.0397 9.09097 10.8797 13.3189 8.15319 17.5467 5.42672 22.6163 4.3168 27.5966 5.02721 32.5769 5.73762 37.1339 8.22065 40.4309 12.0205 43.728 15.8203 45.5436 20.6819 45.5447 25.7126L45.5447 30.541" stroke="#66737C" stroke-width="3.57143" stroke-linecap="round" stroke-linejoin="round"/><path d="M51.9739 24.1053 45.5447 30.5346 39.1154 24.1053" stroke="#66737C" stroke-width="3.57143" stroke-linecap="round" stroke-linejoin="round"/></svg>