<svg width="60" height="60" viewBox="-1.875 -1.875 60 60" xmlns="http://www.w3.org/2000/svg" xmlns:xlink="http://www.w3.org/1999/xlink" id="Tablet-Ai-Robot--Streamline-Ultimate" fill="none" overflow="hidden"><path d="M29.8465 4.67834 8.16909 4.67834C4.85379 4.67834 2.31857 7.21357 2.31857 10.5289L2.31857 47.9655C2.31857 51.281 4.85379 53.816 8.16909 53.816L33.3424 53.816C36.6577 53.816 39.1929 51.281 39.1929 47.9655L39.1929 30.8217" stroke="#66737C" stroke-width="3.33333" stroke-linecap="round" stroke-linejoin="round"/><path d="M2.32086 45.337 39.1938 45.337" stroke="#66737C" stroke-width="3.33333" stroke-linecap="round" stroke-linejoin="round"/><path d="M38.9648 8.46797 49.2445 8.46797C49.2445 8.46797 53.932 8.46797 53.932 13.1555L53.932 19.0711C53.932 19.0711 53.932 23.7586 49.2445 23.7586L38.9648 23.7586C38.9648 23.7586 34.2773 23.7586 34.2773 19.0711L34.2773 13.1555C34.2773 13.1555 34.2773 8.46797 38.9648 8.46797" stroke="#66737C" stroke-width="3.33333" stroke-linejoin="round"/><path d="M44.1033 2.43776 44.1033 8.46863" stroke="#66737C" stroke-width="3.33333" stroke-linecap="round" stroke-linejoin="round"/><path d="M40.5052 15.2502 40.5052 16.983" stroke="#66737C" stroke-width="3.33333" stroke-linecap="round" stroke-linejoin="round"/><path d="M47.7035 15.2502 47.7035 16.983" stroke="#66737C" stroke-width="3.33333" stroke-linecap="round" stroke-linejoin="round"/></svg>