<svg width="60" height="60" viewBox="-1.875 -1.875 60 60" xmlns="http://www.w3.org/2000/svg" xmlns:xlink="http://www.w3.org/1999/xlink" id="Target-Miss--Streamline-Ultimate" overflow="hidden"><path d="M19.3617 38.6484C13.0629 36.239 9.90991 29.1796 12.3193 22.8808 13.8233 18.9491 17.2463 16.0693 21.3773 15.2602 22.9607 14.9585 24.5874 14.9656 26.168 15.2812" stroke="#66737C" stroke-width="3.33333" stroke-linecap="round" stroke-linejoin="round" fill="none"/><path d="M19.2703 48.7664C7.38429 46.3073-0.257705 34.6782 2.20144 22.7922 4.09209 13.654 11.5475 6.70607 20.7961 5.46328 22.936 5.18239 25.1054 5.21238 27.2367 5.55234" stroke="#66737C" stroke-width="3.33333" stroke-linecap="round" stroke-linejoin="round" fill="none"/><path d="M26.5383 42.6562C25.3116 34.9872 30.5341 27.7758 38.2031 26.5491 45.8721 25.3224 53.0835 30.545 54.3102 38.214 55.5369 45.883 50.3144 53.0944 42.6454 54.3211 41.174 54.5565 39.6745 54.5565 38.2031 54.3211 32.2051 53.3572 27.5021 48.6542 26.5383 42.6562Z" stroke="#66737C" stroke-width="3.33333" stroke-linecap="round" stroke-linejoin="round" fill="none"/><path d="M45.7031 35.1562 35.1562 45.7031" stroke="#66737C" stroke-width="3.33333" stroke-linecap="round" stroke-linejoin="round" fill="none"/><path d="M35.1562 35.1562 45.7031 45.7031" stroke="#66737C" stroke-width="3.33333" stroke-linecap="round" stroke-linejoin="round" fill="none"/><path d="M22.8516 27.7945 32.618 18.0281" stroke="#66737C" stroke-width="3.33333" stroke-linecap="round" stroke-linejoin="round" fill="none"/><path d="M32.618 18.0281 33.9492 9.23906 41.5617 1.75781 42.7383 7.90781 48.8883 9.08438 41.407 16.6969 32.618 18.0281Z" stroke="#66737C" stroke-width="3.33333" stroke-linecap="round" stroke-linejoin="round" fill="none"/></svg>