<svg width="44.8" height="44.8" viewBox="-1.6 -1.6 44.8 44.8" xmlns="http://www.w3.org/2000/svg" xmlns:xlink="http://www.w3.org/1999/xlink" id="Target-2--Streamline-Core" fill="none" overflow="hidden"><g id="target-2--shop-bullseye-arrow-target"><path d="M2.97143 19.3143C2.97143 29.1607 10.9536 37.1429 20.8 37.1429 30.6464 37.1429 38.6286 29.1607 38.6286 19.3143 38.6286 9.46784 30.6464 1.48571 20.8 1.48571 10.9536 1.48571 2.97143 9.46784 2.97143 19.3143" id="Ellipse 1474" stroke="#66737C" stroke-width="2.67857" stroke-linecap="round" stroke-linejoin="round"/><path d="M9.46275 33.0747 5.94286 40.1143" id="Vector" stroke="#66737C" stroke-width="2.67857" stroke-linecap="round" stroke-linejoin="round"/><path d="M32.1372 33.0747 35.6571 40.1143" id="Vector_2" stroke="#66737C" stroke-width="2.67857" stroke-linecap="round" stroke-linejoin="round"/><path d="M9.65714 19.3143C9.65714 25.4683 14.646 30.4571 20.8 30.4571 26.954 30.4571 31.9429 25.4683 31.9429 19.3143 31.9429 13.1603 26.954 8.17143 20.8 8.17143 14.646 8.17143 9.65714 13.1603 9.65714 19.3143" id="Ellipse 1475" stroke="#66737C" stroke-width="2.67857" stroke-linecap="round" stroke-linejoin="round"/><path d="M16.3429 19.3143C16.3429 21.7759 18.3384 23.7714 20.8 23.7714 23.2616 23.7714 25.2571 21.7759 25.2571 19.3143 25.2571 16.8527 23.2616 14.8571 20.8 14.8571 18.3384 14.8571 16.3429 16.8527 16.3429 19.3143" id="Ellipse 1476" stroke="#66737C" stroke-width="2.67857" stroke-linecap="round" stroke-linejoin="round"/></g></svg>