<svg width="60" height="60" viewBox="-1.875 -1.875 60 60" xmlns="http://www.w3.org/2000/svg" xmlns:xlink="http://www.w3.org/1999/xlink" id="Target-Path--Streamline-Ultimate" overflow="hidden"><path d="M47.4609 28.6313C49.1112 27.8465 50.5672 26.7059 51.7242 25.2914" stroke="#66737C" stroke-width="3.33333" stroke-linecap="round" stroke-linejoin="round" fill="none"/><path d="M54.4289 18.6492C54.5923 16.8294 54.3522 14.996 53.7258 13.2797" stroke="#66737C" stroke-width="3.33333" stroke-linecap="round" stroke-linejoin="round" fill="none"/><path d="M49.3828 7.56563C47.9087 6.48518 46.2065 5.75714 44.407 5.4375" stroke="#66737C" stroke-width="3.33333" stroke-linecap="round" stroke-linejoin="round" fill="none"/><path d="M8.53594 31.1531C6.81874 32.008 5.32997 33.2598 4.19297 34.8047" stroke="#66737C" stroke-width="3.33333" stroke-linecap="round" stroke-linejoin="round" fill="none"/><path d="M1.7625 41.9133C1.71952 43.83 2.13411 45.7294 2.97187 47.4539" stroke="#66737C" stroke-width="3.33333" stroke-linecap="round" stroke-linejoin="round" fill="none"/><path d="M8.12813 52.9195C9.81132 53.8366 11.6851 54.3485 13.6008 54.4148" stroke="#66737C" stroke-width="3.33333" stroke-linecap="round" stroke-linejoin="round" fill="none"/><path d="M26.3602 19.2867 26.3602 54.443" stroke="#66737C" stroke-width="3.33333" stroke-linecap="round" stroke-linejoin="round" fill="none"/><path d="M19.65 25.9992 26.3602 19.2867 33.0727 25.9992" stroke="#66737C" stroke-width="3.33333" stroke-linecap="round" stroke-linejoin="round" fill="none"/><path d="M21.0867 6.98203C21.0867 9.89447 23.4477 12.2555 26.3602 12.2555 29.2726 12.2555 31.6336 9.89447 31.6336 6.98203 31.6336 4.06959 29.2726 1.70859 26.3602 1.70859 23.4477 1.70859 21.0867 4.06959 21.0867 6.98203Z" stroke="#66737C" stroke-width="3.33333" stroke-linecap="round" stroke-linejoin="round" fill="none"/></svg>