<svg width="60" height="60" viewBox="-1.875 -1.875 60 60" xmlns="http://www.w3.org/2000/svg" xmlns:xlink="http://www.w3.org/1999/xlink" id="Target-Human-Research-Search--Streamline-Ultimate" fill="none" overflow="hidden"><path d="M1.75789 11.6016 1.75789 4.10156C1.75789 2.69531 2.69538 1.75781 4.10163 1.75781L11.6016 1.75781" stroke="#66737C" stroke-width="3.33333" stroke-linecap="round" stroke-linejoin="round" stroke-miterlimit="10"/><path d="M44.8828 11.6016 44.8828 4.10156C44.8828 2.69531 43.9453 1.75781 42.5391 1.75781L35.0391 1.75781" stroke="#66737C" stroke-width="3.33333" stroke-linecap="round" stroke-linejoin="round" stroke-miterlimit="10"/><path d="M1.75789 36.2109 1.75789 43.7109C1.75789 45.1172 2.69538 46.0547 4.10163 46.0547L11.6016 46.0547" stroke="#66737C" stroke-width="3.33333" stroke-linecap="round" stroke-linejoin="round" stroke-miterlimit="10"/><path d="M14.0259 12.2729C16.8505 15.333 21.0875 17.216 25.5598 17.216 27.9136 17.216 30.0321 16.7453 31.9153 15.8037" stroke="#66737C" stroke-width="3.33333" stroke-linecap="round" stroke-linejoin="round" stroke-miterlimit="10"/><path d="M22.3827 26.6016C27.6898 26.6016 31.9922 22.2994 31.9922 16.9923 31.9922 11.6851 27.6898 7.38286 22.3827 7.38286 17.0756 7.38286 12.7733 11.6851 12.7733 16.9923 12.7733 22.2994 17.0756 26.6016 22.3827 26.6016Z" stroke="#66737C" stroke-width="3.33333" stroke-linecap="round" stroke-linejoin="round" stroke-miterlimit="10"/><path d="M23.0858 30.8203 22.3827 30.8203C17.2265 30.8203 12.7733 32.9297 9.49209 36.2109" stroke="#66737C" stroke-width="3.33333" stroke-linecap="round" stroke-linejoin="round" stroke-miterlimit="10"/><path d="M40.4297 49.8047C45.6073 49.8047 49.8047 45.6073 49.8047 40.4297 49.8047 35.2521 45.6073 31.0547 40.4297 31.0547 35.2521 31.0547 31.0547 35.2521 31.0547 40.4297 31.0547 45.6073 35.2521 49.8047 40.4297 49.8047Z" stroke="#66737C" stroke-width="3.33333" stroke-linecap="round" stroke-linejoin="round" stroke-miterlimit="10"/><path d="M47.2266 46.9922 54.4922 54.4922" stroke="#66737C" stroke-width="3.33333" stroke-linecap="round" stroke-linejoin="round" stroke-miterlimit="10"/></svg>