<svg width="60" height="60" viewBox="-1.875 -1.875 60 60" xmlns="http://www.w3.org/2000/svg" xmlns:xlink="http://www.w3.org/1999/xlink" id="Task-List-Text--Streamline-Ultimate" overflow="hidden"><path d="M52.432 40.7344 40.732 52.4344C39.4132 53.7537 37.6241 54.4948 35.7586 54.4945L8.78906 54.4945C4.90581 54.4945 1.75781 51.3465 1.75781 47.4633L1.75781 8.79141C1.75781 4.90815 4.90581 1.76016 8.78906 1.76016L47.4609 1.76016C51.3442 1.76016 54.4922 4.90815 54.4922 8.79141L54.4922 35.7609C54.4924 37.6264 53.7513 39.4155 52.432 40.7344Z" stroke="#66737C" stroke-width="3.33333" stroke-linecap="round" stroke-linejoin="round" fill="none"/><path d="M36.9141 54.3984 36.9141 43.9477C36.9141 40.0644 40.0621 36.9164 43.9453 36.9164L54.3961 36.9164" stroke="#66737C" stroke-width="3.33333" stroke-linecap="round" stroke-linejoin="round" fill="none"/><path d="M16.4062 11.7188 16.4062 44.5312" stroke="#66737C" stroke-width="3.33333" stroke-linecap="round" stroke-linejoin="round" fill="none"/><path d="M9.375 17.5781 42.1875 17.5781" stroke="#66737C" stroke-width="3.33333" stroke-linecap="round" stroke-linejoin="round" fill="none"/><path d="M9.375 28.125 42.1875 28.125" stroke="#66737C" stroke-width="3.33333" stroke-linecap="round" stroke-linejoin="round" fill="none"/><path d="M9.375 38.6719 28.125 38.6719" stroke="#66737C" stroke-width="3.33333" stroke-linecap="round" stroke-linejoin="round" fill="none"/></svg>