<svg width="60" height="60" viewBox="-1.875 -1.875 60 60" xmlns="http://www.w3.org/2000/svg" xmlns:xlink="http://www.w3.org/1999/xlink" id="Task-List-Check-1--Streamline-Ultimate" fill="none" overflow="hidden"><path d="M12.3047 24.6352 24.6094 24.6352" stroke="#66737C" stroke-width="3.33333" stroke-linecap="round" stroke-linejoin="round"/><path d="M12.3047 33.4242 19.3359 33.4242" stroke="#66737C" stroke-width="3.33333" stroke-linecap="round" stroke-linejoin="round"/><path d="M12.3047 42.2133 19.3359 42.2133" stroke="#66737C" stroke-width="3.33333" stroke-linecap="round" stroke-linejoin="round"/><path d="M22.8516 54.4922 5.27344 54.4922C4.34105 54.4922 3.44681 54.1219 2.78752 53.4626 2.12821 52.8033 1.75781 51.9089 1.75781 50.9766L1.75781 14.0625C1.75781 13.1301 2.12821 12.2359 2.78752 11.5766 3.44681 10.9173 4.34105 10.5469 5.27344 10.5469L14.0625 10.5469C14.0625 8.21587 14.9885 5.98034 16.6368 4.33207 18.285 2.6838 20.5206 1.75781 22.8516 1.75781 25.1827 1.75781 27.4181 2.6838 29.0665 4.33207 30.7146 5.98034 31.6406 8.21587 31.6406 10.5469L40.4297 10.5469C41.362 10.5469 42.2564 10.9173 42.9157 11.5766 43.575 12.2359 43.9453 13.1301 43.9453 14.0625L43.9453 19.3359" stroke="#66737C" stroke-width="3.33333" stroke-linecap="round" stroke-linejoin="round"/><path d="M22.8516 10.5726C22.3661 10.5726 21.9727 10.1791 21.9727 9.69373 21.9727 9.20831 22.3661 8.81482 22.8516 8.81482" stroke="#66737C" stroke-width="3.33333"/><path d="M22.8516 10.5726C23.337 10.5726 23.7305 10.1791 23.7305 9.69373 23.7305 9.20831 23.337 8.81482 22.8516 8.81482" stroke="#66737C" stroke-width="3.33333"/><g><path d="M40.4297 54.4922C48.1962 54.4922 54.4922 48.1962 54.4922 40.4297 54.4922 32.6632 48.1962 26.3672 40.4297 26.3672 32.6632 26.3672 26.3672 32.6632 26.3672 40.4297 26.3672 48.1962 32.6632 54.4922 40.4297 54.4922Z" stroke="#66737C" stroke-width="3.33333" stroke-linecap="round" stroke-linejoin="round"/><path d="M46.6966 36.3398 39.888 45.4195C39.7366 45.6209 39.544 45.7875 39.3225 45.9077 39.1012 46.0282 38.8568 46.0997 38.6055 46.1175 38.3543 46.1353 38.1021 46.099 37.8661 46.0109 37.6301 45.9227 37.4156 45.7852 37.2373 45.607L33.7216 42.0914" stroke="#66737C" stroke-width="3.33333" stroke-linecap="round" stroke-linejoin="round"/></g></svg>