<svg width="60" height="60" viewBox="-1.875 -1.875 60 60" xmlns="http://www.w3.org/2000/svg" xmlns:xlink="http://www.w3.org/1999/xlink" id="Task-List-Multiple--Streamline-Ultimate" overflow="hidden"><defs></defs><path d="M25.1953 15.8461 52.1484 15.8461C52.1484 15.8461 54.4922 15.8461 54.4922 18.1898L54.4922 52.1742C54.4922 52.1742 54.4922 54.518 52.1484 54.518L25.1953 54.518C25.1953 54.518 22.8516 54.518 22.8516 52.1742L22.8516 18.1898C22.8516 18.1898 22.8516 15.8461 25.1953 15.8461" stroke="#66737C" stroke-width="3.57143" stroke-linecap="round" stroke-linejoin="round" fill="none"/><path d="M22.8516 47.4867 15.8203 47.4867C13.8787 47.4867 12.3047 45.9127 12.3047 43.9711L12.3047 12.3305C12.3047 10.3888 13.8787 8.81484 15.8203 8.81484L40.4297 8.81484C42.3713 8.81484 43.9453 10.3888 43.9453 12.3305L43.9453 15.8461" stroke="#66737C" stroke-width="3.57143" stroke-linecap="round" stroke-linejoin="round" fill="none"/><path d="M12.3047 40.4555 5.27344 40.4555C3.33181 40.4555 1.75781 38.8815 1.75781 36.9398L1.75781 5.29922C1.75781 3.35759 3.33181 1.78359 5.27344 1.78359L29.8828 1.78359C31.8244 1.78359 33.3984 3.35759 33.3984 5.29922L33.3984 8.81484" stroke="#66737C" stroke-width="3.57143" stroke-linecap="round" stroke-linejoin="round" fill="none"/><path d="M40.4297 26.393 47.4609 26.393" stroke="#66737C" stroke-width="3.57143" stroke-linecap="round" stroke-linejoin="round" fill="none"/><path d="M29.8828 24.6352 31.6406 26.393 35.1562 22.8773" stroke="#66737C" stroke-width="3.57143" stroke-linecap="round" stroke-linejoin="round" fill="none"/><path d="M40.4297 36.9398 47.4609 36.9398" stroke="#66737C" stroke-width="3.57143" stroke-linecap="round" stroke-linejoin="round" fill="none"/><path d="M29.8828 35.182 31.6406 36.9398 35.1562 33.4242" stroke="#66737C" stroke-width="3.57143" stroke-linecap="round" stroke-linejoin="round" fill="none"/><path d="M40.4297 47.4867 47.4609 47.4867" stroke="#66737C" stroke-width="3.57143" stroke-linecap="round" stroke-linejoin="round" fill="none"/><path d="M29.8828 45.7289 31.6406 47.4867 35.1562 43.9711" stroke="#66737C" stroke-width="3.57143" stroke-linecap="round" stroke-linejoin="round" fill="none"/></svg>