<svg width="60" height="60" viewBox="-2.14 -2.14 60 60" xmlns="http://www.w3.org/2000/svg" xmlns:xlink="http://www.w3.org/1999/xlink" id="Tea-Kettle--Streamline-Ultimate.svg" overflow="hidden"><path d="M16.0195 27.86 50.148 27.86" stroke="#66737C" stroke-width="3.57143" stroke-linecap="round" stroke-linejoin="round" fill="none"/><path d="M14.2457 33.0838 8.40676 33.0838C5.68716 33.0832 3.48203 35.2874 3.48145 38.007 3.48117 39.3136 4.0002 40.5667 4.92426 41.4905L13.93 50.4963" stroke="#66737C" stroke-width="3.57143" stroke-linecap="round" stroke-linejoin="round" fill="none"/><path d="M52.2375 50.4963C52.2375 52.4196 50.6783 53.9787 48.755 53.9787L17.4125 53.9787C15.4892 53.9787 13.93 52.4196 13.93 50.4963L13.93 36.5662C13.93 25.9879 22.5054 17.4125 33.0838 17.4125 43.6621 17.4125 52.2375 25.9879 52.2375 36.5662Z" stroke="#66737C" stroke-width="3.57143" stroke-linecap="round" stroke-linejoin="round" fill="none"/><path d="M29.6012 13.93C29.6012 15.8533 31.1604 17.4125 33.0837 17.4125 35.0071 17.4125 36.5662 15.8533 36.5662 13.93 36.5662 12.0067 35.0071 10.4475 33.0838 10.4475 31.1604 10.4475 29.6013 12.0067 29.6013 13.93Z" stroke="#66737C" stroke-width="3.57143" stroke-linecap="round" stroke-linejoin="round" fill="none"/><path d="M48.755 25.5499 48.755 18.2831C48.9633 9.40005 41.9651 2.01309 33.0838 1.74125L33.0838 1.74125C24.2024 2.01309 17.2042 9.40005 17.4125 18.2831L17.4125 25.5499" stroke="#66737C" stroke-width="3.57143" stroke-linecap="round" stroke-linejoin="round" fill="none"/></svg>