<svg width="60" height="60" viewBox="-1.875 -1.875 60 60" xmlns="http://www.w3.org/2000/svg" xmlns:xlink="http://www.w3.org/1999/xlink" id="Team-Meeting--Streamline-Ultimate" overflow="hidden"><path d="M4.39219 41.3086C4.39219 44.7064 7.14669 47.4609 10.5445 47.4609 13.9424 47.4609 16.6969 44.7064 16.6969 41.3086 16.6969 37.9107 13.9424 35.1562 10.5445 35.1562 7.14669 35.1562 4.39219 37.9107 4.39219 41.3086Z" stroke="#66737C" stroke-width="3.33333" stroke-linecap="round" stroke-linejoin="round" fill="none"/><path d="M19.3336 54.4922C16.7448 49.6381 10.7111 47.8018 5.85703 50.3906 4.11323 51.3207 2.6855 52.7484 1.75547 54.4922" stroke="#66737C" stroke-width="3.33333" stroke-linecap="round" stroke-linejoin="round" fill="none"/><path d="M39.5484 41.3086C39.5484 44.7064 42.3029 47.4609 45.7008 47.4609 49.0986 47.4609 51.8531 44.7064 51.8531 41.3086 51.8531 37.9107 49.0986 35.1562 45.7008 35.1562 42.3029 35.1562 39.5484 37.9107 39.5484 41.3086Z" stroke="#66737C" stroke-width="3.33333" stroke-linecap="round" stroke-linejoin="round" fill="none"/><path d="M54.4898 54.4922C51.901 49.6381 45.8673 47.8018 41.0133 50.3906 39.2695 51.3207 37.8417 52.7484 36.9117 54.4922" stroke="#66737C" stroke-width="3.33333" stroke-linecap="round" stroke-linejoin="round" fill="none"/><path d="M21.9703 7.91016C21.9703 11.308 24.7248 14.0625 28.1227 14.0625 31.5205 14.0625 34.275 11.308 34.275 7.91016 34.275 4.51231 31.5205 1.75781 28.1227 1.75781 24.7248 1.75781 21.9703 4.51231 21.9703 7.91016Z" stroke="#66737C" stroke-width="3.33333" stroke-linecap="round" stroke-linejoin="round" fill="none"/><path d="M35.7375 19.3359C32.1545 15.1291 25.8397 14.6233 21.6328 18.2063 21.2267 18.5521 20.849 18.9299 20.5031 19.3359" stroke="#66737C" stroke-width="3.33333" stroke-linecap="round" stroke-linejoin="round" fill="none"/><path d="M21.2109 46.1883C25.6997 47.8996 30.6638 47.8846 35.1422 46.1461" stroke="#66737C" stroke-width="3.33333" stroke-linecap="round" stroke-linejoin="round" fill="none"/><path d="M14.8781 14.0625C10.9889 17.7051 8.78267 22.7963 8.78438 28.125 8.78438 28.718 8.81953 29.2969 8.87344 29.8828" stroke="#66737C" stroke-width="3.33333" stroke-linecap="round" stroke-linejoin="round" fill="none"/><path d="M47.3695 29.8828C47.4211 29.3016 47.4586 28.7109 47.4586 28.125 47.4611 22.7961 45.2548 17.7046 41.3648 14.0625" stroke="#66737C" stroke-width="3.33333" stroke-linecap="round" stroke-linejoin="round" fill="none"/></svg>