<svg width="60" height="60" viewBox="-1.875 -1.875 60 60" xmlns="http://www.w3.org/2000/svg" xmlns:xlink="http://www.w3.org/1999/xlink" id="Team-Share-Idea--Streamline-Ultimate" overflow="hidden"><style>
.MsftOfcResponsive_Stroke_66737c {
 stroke:#66737C; 
}
</style>
<path d="M28.125 1.75781 28.125 5.27344" class="MsftOfcResponsive_Stroke_66737c" stroke="#66737C" stroke-width="3.33333" stroke-linecap="round" stroke-linejoin="round" fill="none"/><path d="M10.5469 19.3359 14.3133 19.3359" class="MsftOfcResponsive_Stroke_66737c" stroke="#66737C" stroke-width="3.33333" stroke-linecap="round" stroke-linejoin="round" fill="none"/><path d="M45.7031 19.3359 41.9367 19.3359" class="MsftOfcResponsive_Stroke_66737c" stroke="#66737C" stroke-width="3.33333" stroke-linecap="round" stroke-linejoin="round" fill="none"/><path d="M13.6266 7.85156 16.8258 11.0484" class="MsftOfcResponsive_Stroke_66737c" stroke="#66737C" stroke-width="3.33333" stroke-linecap="round" stroke-linejoin="round" fill="none"/><path d="M42.6234 7.85156 39.4242 11.0484" class="MsftOfcResponsive_Stroke_66737c" stroke="#66737C" stroke-width="3.33333" stroke-linecap="round" stroke-linejoin="round" fill="none"/><path d="M36.9141 19.3359C36.9192 14.4819 32.9883 10.5428 28.1342 10.5377 23.2802 10.5326 19.341 14.4634 19.3359 19.3175 19.3323 22.8156 21.4033 25.9828 24.6094 27.382L24.6094 31.6406 31.6406 31.6406 31.6406 27.382C34.8422 25.9874 36.9128 22.828 36.9141 19.3359Z" class="MsftOfcResponsive_Stroke_66737c" stroke="#66737C" stroke-width="3.33333" stroke-linecap="round" stroke-linejoin="round" fill="none"/><path d="M24.6094 36.9141 31.6406 36.9141" class="MsftOfcResponsive_Stroke_66737c" stroke="#66737C" stroke-width="3.33333" stroke-linecap="round" stroke-linejoin="round" fill="none"/><path d="M38.4398 39.5508C38.4398 42.9486 41.1943 45.7031 44.5922 45.7031 47.99 45.7031 50.7445 42.9486 50.7445 39.5508 50.7445 36.1529 47.99 33.3984 44.5922 33.3984 41.1943 33.3984 38.4398 36.1529 38.4398 39.5508Z" class="MsftOfcResponsive_Stroke_66737c" stroke="#66737C" stroke-width="3.33333" stroke-linecap="round" stroke-linejoin="round" fill="none"/><path d="M54.4922 54.4922C52.5853 49.0239 46.6065 46.1369 41.1382 48.0438 38.1177 49.0971 35.7432 51.4716 34.6898 54.4922" class="MsftOfcResponsive_Stroke_66737c" stroke="#66737C" stroke-width="3.33333" stroke-linecap="round" stroke-linejoin="round" fill="none"/><path d="M5.50547 39.5508C5.50547 42.9486 8.25997 45.7031 11.6578 45.7031 15.0557 45.7031 17.8102 42.9486 17.8102 39.5508 17.8102 36.1529 15.0557 33.3984 11.6578 33.3984 8.25997 33.3984 5.50547 36.1529 5.50547 39.5508Z" class="MsftOfcResponsive_Stroke_66737c" stroke="#66737C" stroke-width="3.33333" stroke-linecap="round" stroke-linejoin="round" fill="none"/><path d="M21.5625 54.4922C19.6556 49.0239 13.6768 46.1369 8.20855 48.0438 5.18801 49.0971 2.81349 51.4716 1.76016 54.4922" class="MsftOfcResponsive_Stroke_66737c" stroke="#66737C" stroke-width="3.33333" stroke-linecap="round" stroke-linejoin="round" fill="none"/></svg>