<svg width="60" height="60" viewBox="-1.875 -1.875 60 60" xmlns="http://www.w3.org/2000/svg" xmlns:xlink="http://www.w3.org/1999/xlink" id="Technology-Robot-Code--Streamline-Ultimate" fill="none" overflow="hidden"><path d="M38.9883 32.7656C47.5509 32.7656 54.4922 25.8244 54.4922 17.2617 54.4922 8.69916 47.5509 1.75781 38.9883 1.75781 30.4256 1.75781 23.4844 8.69916 23.4844 17.2617 23.4844 25.8244 30.4256 32.7656 38.9883 32.7656Z" stroke="#66737C" stroke-width="3.33333" stroke-linecap="round" stroke-linejoin="round"/><path d="M35.1117 13.385 31.2352 17.2616 35.1117 21.1381" stroke="#66737C" stroke-width="3.33333" stroke-linecap="round" stroke-linejoin="round"/><path d="M42.8648 13.385 46.7391 17.2616 42.8648 21.1381" stroke="#66737C" stroke-width="3.33333" stroke-linecap="round" stroke-linejoin="round"/><path d="M27.5391 52.1484C27.5391 52.77 27.292 53.3662 26.8526 53.8057 26.4131 54.2452 25.8169 54.4922 25.1953 54.4922L4.10156 54.4922C3.47995 54.4922 2.88382 54.2452 2.44427 53.8057 2.00474 53.3662 1.75781 52.77 1.75781 52.1484L1.75781 46.2891C1.75781 42.8702 3.11592 39.5916 5.53338 37.174 7.95084 34.7566 11.2296 33.3984 14.6484 33.3984 18.0672 33.3984 21.346 34.7566 23.7635 37.174 26.1809 39.5916 27.5391 42.8702 27.5391 46.2891L27.5391 52.1484Z" stroke="#66737C" stroke-width="3.33333" stroke-linecap="round" stroke-linejoin="round"/><path d="M9.96094 44.2383C9.47552 44.2383 9.08203 43.8448 9.08203 43.3594 9.08203 42.874 9.47552 42.4805 9.96094 42.4805" stroke="#66737C" stroke-width="3.33333"/><path d="M9.96094 44.2383C10.4464 44.2383 10.8398 43.8448 10.8398 43.3594 10.8398 42.874 10.4464 42.4805 9.96094 42.4805" stroke="#66737C" stroke-width="3.33333"/><path d="M19.3359 44.2383C18.8505 44.2383 18.457 43.8448 18.457 43.3594 18.457 42.874 18.8505 42.4805 19.3359 42.4805" stroke="#66737C" stroke-width="3.33333"/><path d="M19.3359 44.2383C19.8214 44.2383 20.2148 43.8448 20.2148 43.3594 20.2148 42.874 19.8214 42.4805 19.3359 42.4805" stroke="#66737C" stroke-width="3.33333"/><path d="M14.6484 33.3984 14.6484 28.7109" stroke="#66737C" stroke-width="3.33333" stroke-linecap="round" stroke-linejoin="round"/><path d="M14.6484 28.7109C16.5901 28.7109 18.1641 27.1369 18.1641 25.1953 18.1641 23.2537 16.5901 21.6797 14.6484 21.6797 12.7068 21.6797 11.1328 23.2537 11.1328 25.1953 11.1328 27.1369 12.7068 28.7109 14.6484 28.7109Z" stroke="#66737C" stroke-width="3.33333" stroke-linecap="round" stroke-linejoin="round"/></svg>