<svg width="60" height="60" viewBox="-1.875 -1.875 60 60" xmlns="http://www.w3.org/2000/svg" xmlns:xlink="http://www.w3.org/1999/xlink" id="Technology-Robot-Idea--Streamline-Ultimate" fill="none" overflow="hidden"><path d="M53.9062 15.7862C53.9091 13.365 53.2573 10.988 52.0195 8.90702 50.7818 6.82603 49.0045 5.11842 46.8757 3.96504 44.7466 2.81163 42.3457 2.25538 39.9265 2.35516 37.5073 2.45494 35.16 3.20702 33.1334 4.5318 31.1067 5.85659 29.4759 7.70473 28.414 9.88059 27.3518 12.0564 26.8978 14.479 27.1001 16.8918 27.3023 19.3046 28.1531 21.6178 29.5627 23.5866 30.9722 25.5551 32.888 27.1059 35.1068 28.0748L35.1068 31.8935C35.1068 32.6058 35.3897 33.2887 35.8934 33.7924 36.3968 34.2959 37.08 34.5788 37.792 34.5788L43.1627 34.5788C43.875 34.5788 44.558 34.2959 45.0616 33.7924 45.5651 33.2887 45.848 32.6058 45.848 31.8935L45.848 28.0819C48.2412 27.0377 50.2781 25.3186 51.7095 23.1348 53.1405 20.951 53.9041 18.3973 53.9062 15.7862Z" stroke="#66737C" stroke-width="3.33333" stroke-linecap="round" stroke-linejoin="round"/><path d="M35.1068 27.8726 45.848 27.8726" stroke="#66737C" stroke-width="3.33333" stroke-linecap="round" stroke-linejoin="round"/><path d="M40.4775 34.5863 40.4775 38.6142" stroke="#66737C" stroke-width="3.33333" stroke-linecap="round" stroke-linejoin="round"/><path d="M27.3764 51.2845C27.3764 51.8883 27.1366 52.467 26.7098 52.8937 26.283 53.3205 25.7041 53.5603 25.1006 53.5603L4.61944 53.5603C4.01587 53.5603 3.43706 53.3205 3.01029 52.8937 2.58352 52.467 2.34375 51.8883 2.34375 51.2845L2.34375 45.5953C2.34375 42.2759 3.66241 39.0923 6.00968 36.7451 8.35695 34.3978 11.5405 33.0792 14.86 33.0792 18.1796 33.0792 21.3631 34.3978 23.7103 36.7451 26.0576 39.0923 27.3764 42.2759 27.3764 45.5953L27.3764 51.2845Z" stroke="#66737C" stroke-width="3.33333" stroke-linecap="round" stroke-linejoin="round"/><path d="M10.3087 43.6048C9.83735 43.6048 9.45527 43.2227 9.45527 42.7514 9.45527 42.2801 9.83735 41.898 10.3087 41.898" stroke="#66737C" stroke-width="3.33333"/><path d="M10.3087 43.6048C10.78 43.6048 11.162 43.2227 11.162 42.7514 11.162 42.2801 10.78 41.898 10.3087 41.898" stroke="#66737C" stroke-width="3.33333"/><path d="M19.4114 43.6048C18.9401 43.6048 18.558 43.2227 18.558 42.7514 18.558 42.2801 18.9401 41.898 19.4114 41.898" stroke="#66737C" stroke-width="3.33333"/><path d="M19.4114 43.6048C19.8827 43.6048 20.2648 43.2227 20.2648 42.7514 20.2648 42.2801 19.8827 41.898 19.4114 41.898" stroke="#66737C" stroke-width="3.33333"/><path d="M14.86 33.0792 14.86 28.5279" stroke="#66737C" stroke-width="3.33333" stroke-linecap="round" stroke-linejoin="round"/><path d="M14.86 28.5279C16.7453 28.5279 18.2735 26.9995 18.2735 25.1145 18.2735 23.2291 16.7453 21.7009 14.86 21.7009 12.9748 21.7009 11.4465 23.2291 11.4465 25.1145 11.4465 26.9995 12.9748 28.5279 14.86 28.5279Z" stroke="#66737C" stroke-width="3.33333" stroke-linecap="round" stroke-linejoin="round"/></svg>