<svg width="60" height="60" viewBox="-2.14 -2.14 60 60" xmlns="http://www.w3.org/2000/svg" xmlns:xlink="http://www.w3.org/1999/xlink" id="Technology-Head-Ai-Microchip--Streamline-Ultimate.svg" overflow="hidden"><defs></defs><path d="M33.0675 6.38458 44.6758 6.38458C44.6758 6.38458 49.3192 6.38458 49.3192 11.0279L49.3192 22.6362C49.3192 22.6362 49.3192 27.2796 44.6758 27.2796L33.0675 27.2796C33.0675 27.2796 28.4242 27.2796 28.4242 22.6362L28.4242 11.0279C28.4242 11.0279 28.4242 6.38458 33.0675 6.38458" stroke="#66737C" stroke-width="3.57143" stroke-linecap="round" stroke-linejoin="round" fill="none"/><path d="M23.7808 12.1888 28.4242 12.1888" stroke="#66737C" stroke-width="3.57143" stroke-linecap="round" stroke-linejoin="round" fill="none"/><path d="M23.7808 21.4754 28.4242 21.4754" stroke="#66737C" stroke-width="3.57143" stroke-linecap="round" stroke-linejoin="round" fill="none"/><path d="M43.515 1.74125 43.515 6.38458" stroke="#66737C" stroke-width="3.57143" stroke-linecap="round" stroke-linejoin="round" fill="none"/><path d="M34.2283 1.74125 34.2283 6.38458" stroke="#66737C" stroke-width="3.57143" stroke-linecap="round" stroke-linejoin="round" fill="none"/><path d="M53.9625 21.4754 49.3192 21.4754" stroke="#66737C" stroke-width="3.57143" stroke-linecap="round" stroke-linejoin="round" fill="none"/><path d="M53.9625 12.1888 49.3192 12.1888" stroke="#66737C" stroke-width="3.57143" stroke-linecap="round" stroke-linejoin="round" fill="none"/><path d="M34.2283 31.9229 34.2283 27.2796" stroke="#66737C" stroke-width="3.57143" stroke-linecap="round" stroke-linejoin="round" fill="none"/><path d="M43.515 31.9229 43.515 27.2796" stroke="#66737C" stroke-width="3.57143" stroke-linecap="round" stroke-linejoin="round" fill="none"/><path d="M17.1107 53.9787 17.1107 47.5384 13.8905 47.5384C10.3337 47.5384 7.45023 44.655 7.45023 41.0981 7.45023 41.0966 7.45023 41.0951 7.45023 41.0935L7.45023 34.6555 3.36874 34.6555C2.47121 34.6485 1.7493 33.9152 1.7563 33.0177 1.75777 32.8294 1.79195 32.6428 1.85733 32.4662 6.62371 20.1289 9.751 8.97324 20.5746 6.28475" stroke="#66737C" stroke-width="3.57143" stroke-linecap="round" stroke-linejoin="round" fill="none"/><path d="M39.6564 53.9787 39.6564 42.6746C41.4589 41.7387 43.0851 40.4967 44.4622 39.004" stroke="#66737C" stroke-width="3.57143" stroke-linecap="round" stroke-linejoin="round" fill="none"/></svg>