<svg width="60" height="60" viewBox="-1.875 -1.875 60 60" xmlns="http://www.w3.org/2000/svg" xmlns:xlink="http://www.w3.org/1999/xlink" id="Technology-Device-Wearable-Smart-Watch-Square-Cloud--Streamline-Ultimate" overflow="hidden"><defs></defs><path d="M34.9219 23.7891C33.4617 23.7934 32.0794 24.4481 31.1508 25.575 30.7637 21.516 27.1595 18.5393 23.1005 18.9263 19.0415 19.3134 16.0648 22.9176 16.4518 26.9766 16.8138 30.7723 20.0066 33.668 23.8195 33.6586L34.9219 33.6586C37.6473 33.5992 39.8085 31.3417 39.7491 28.6163 39.6915 25.9745 37.5637 23.8466 34.9219 23.7891Z" stroke="#66737C" stroke-width="3.33333" stroke-linecap="round" stroke-linejoin="round" fill="none"/><path d="M15.8203 8.78906 40.4297 8.78906C40.4297 8.78906 47.4609 8.78906 47.4609 15.8203L47.4609 40.4297C47.4609 40.4297 47.4609 47.4609 40.4297 47.4609L15.8203 47.4609C15.8203 47.4609 8.78906 47.4609 8.78906 40.4297L8.78906 15.8203C8.78906 15.8203 8.78906 8.78906 15.8203 8.78906" stroke="#66737C" stroke-width="3.33333" stroke-linecap="round" stroke-linejoin="round" fill="none"/><path d="M40.4297 8.78906 15.8203 8.78906 15.8203 5.27344C15.8203 3.33181 17.3943 1.75781 19.3359 1.75781L36.9141 1.75781C38.8557 1.75781 40.4297 3.33181 40.4297 5.27344Z" stroke="#66737C" stroke-width="3.33333" stroke-linecap="round" stroke-linejoin="round" fill="none"/><path d="M36.9141 54.4922 19.3359 54.4922C17.3943 54.4922 15.8203 52.9182 15.8203 50.9766L15.8203 47.4609 40.4297 47.4609 40.4297 50.9766C40.4297 52.9182 38.8557 54.4922 36.9141 54.4922Z" stroke="#66737C" stroke-width="3.33333" stroke-linecap="round" stroke-linejoin="round" fill="none"/></svg>