<svg width="60" height="60" viewBox="-2.14 -2.14 60 60" xmlns="http://www.w3.org/2000/svg" xmlns:xlink="http://www.w3.org/1999/xlink" id="Technology-Head-Ai-Neurolink--Streamline-Ultimate.svg" overflow="hidden"><defs></defs><path d="M17.1432 54.0554 17.1432 47.6151 13.93 47.6151C10.3731 47.6151 7.4897 44.7316 7.4897 41.1748 7.4897 41.174 7.4897 41.1732 7.4897 41.1724L7.4897 34.7321 3.40124 34.7321C2.50377 34.72 1.78604 33.9827 1.79815 33.0852 1.80065 32.9 1.8348 32.7165 1.89912 32.5428 7.36433 18.3667 10.6797 5.74613 26.0027 5.74613" stroke="#66737C" stroke-width="3.57143" stroke-linecap="round" stroke-linejoin="round" fill="none"/><path d="M21.3895 12.5091 33.5945 12.5091C35.0922 12.5091 36.3062 11.2951 36.3062 9.79743L36.3062 8.4439C36.3062 6.94627 37.5203 5.7322 39.0179 5.7322L45.7949 5.73219" stroke="#66737C" stroke-width="3.57143" stroke-linecap="round" stroke-linejoin="round" fill="none"/><path d="M26.8153 20.6443 40.3738 20.6443" stroke="#66737C" stroke-width="3.57143" stroke-linecap="round" stroke-linejoin="round" fill="none"/><path d="M45.7949 5.73219C45.7949 7.97865 47.616 9.79976 49.8624 9.79976 52.1089 9.79976 53.93 7.97865 53.93 5.73219 53.93 3.48574 52.1089 1.66463 49.8624 1.66463 47.616 1.66463 45.7949 3.48574 45.7949 5.73219" stroke="#66737C" stroke-width="3.57143" stroke-linecap="round" stroke-linejoin="round" fill="none"/><path d="M21.3895 28.7887 33.5945 28.7887C35.0909 28.7874 36.3049 29.9994 36.3062 31.4957 36.3062 31.4965 36.3062 31.4973 36.3062 31.4981L36.3062 31.4981C36.3062 32.9957 37.5203 34.2098 39.0179 34.2098L45.7949 34.2098" stroke="#66737C" stroke-width="3.57143" stroke-linecap="round" stroke-linejoin="round" fill="none"/><path d="M45.7949 34.2005C45.7949 36.4469 47.616 38.268 49.8624 38.268 52.1089 38.268 53.93 36.4469 53.93 34.2005 53.93 31.954 52.1089 30.1329 49.8624 30.1329 47.616 30.1329 45.7949 31.954 45.7949 34.2005" stroke="#66737C" stroke-width="3.57143" stroke-linecap="round" stroke-linejoin="round" fill="none"/><path d="M40.3715 20.6443C40.3715 22.8907 42.1926 24.7118 44.439 24.7118 46.6855 24.7118 48.5066 22.8907 48.5066 20.6443 48.5066 18.3978 46.6855 16.5767 44.439 16.5767 42.1926 16.5767 40.3715 18.3978 40.3715 20.6443" stroke="#66737C" stroke-width="3.57143" stroke-linecap="round" stroke-linejoin="round" fill="none"/><path d="M39.6866 54.0554 39.6866 42.7512" stroke="#66737C" stroke-width="3.57143" stroke-linecap="round" stroke-linejoin="round" fill="none"/></svg>