<svg width="60" height="60" viewBox="-2.14 -2.14 60 60" xmlns="http://www.w3.org/2000/svg" xmlns:xlink="http://www.w3.org/1999/xlink" id="Technology-Robot-Head-1--Streamline-Ultimate.svg" overflow="hidden"><defs></defs><path d="M47.5942 50.1689C47.5942 52.2448 45.9113 53.9277 43.8354 53.9277L11.8846 53.9277C9.8087 53.9277 8.12583 52.2448 8.12583 50.1689L8.12583 36.0369C8.12583 25.138 16.9611 16.3027 27.86 16.3027 38.7589 16.3027 47.5942 25.138 47.5942 36.0369Z" stroke="#66737C" stroke-width="3.57143" stroke-linecap="round" stroke-linejoin="round" fill="none"/><path d="M8.12583 45.904 47.5942 45.904" stroke="#66737C" stroke-width="3.57143" stroke-linecap="round" stroke-linejoin="round" fill="none"/><path d="M16.2517 33.7152C16.2517 35.6386 17.8108 37.1977 19.7342 37.1977 21.6575 37.1977 23.2167 35.6386 23.2167 33.7152 23.2167 31.7919 21.6575 30.2327 19.7342 30.2327 17.8108 30.2327 16.2517 31.7919 16.2517 33.7152" stroke="#66737C" stroke-width="3.57143" stroke-linecap="round" stroke-linejoin="round" fill="none"/><path d="M32.5033 33.7152C32.5033 35.6386 34.0625 37.1977 35.9858 37.1977 37.9092 37.1977 39.4683 35.6386 39.4683 33.7152 39.4683 31.7919 37.9092 30.2327 35.9858 30.2327 34.0625 30.2327 32.5033 31.7919 32.5033 33.7152" stroke="#66737C" stroke-width="3.57143" stroke-linecap="round" stroke-linejoin="round" fill="none"/><path d="M27.86 16.3027 27.86 9.91816" stroke="#66737C" stroke-width="3.57143" stroke-linecap="round" stroke-linejoin="round" fill="none"/><path d="M23.7971 5.85524C23.7971 8.09913 25.6161 9.91816 27.86 9.91816 30.1039 9.91816 31.9229 8.09913 31.9229 5.85524 31.9229 3.61136 30.1039 1.79233 27.86 1.79233 25.6161 1.79233 23.7971 3.61136 23.7971 5.85524" stroke="#66737C" stroke-width="3.57143" stroke-linecap="round" stroke-linejoin="round" fill="none"/><path d="M1.74125 36.0369 1.74125 45.3236" stroke="#66737C" stroke-width="3.57143" stroke-linecap="round" stroke-linejoin="round" fill="none"/><path d="M53.9787 36.0369 53.9787 45.3236" stroke="#66737C" stroke-width="3.57143" stroke-linecap="round" stroke-linejoin="round" fill="none"/></svg>