<svg width="60" height="60" viewBox="-2.14 -2.14 60 60" xmlns="http://www.w3.org/2000/svg" xmlns:xlink="http://www.w3.org/1999/xlink" id="Technology-Head-Ai-Setting-Cog--Streamline-Ultimate.svg" overflow="hidden"><defs></defs><path d="M37.2929 16.7601C37.2929 18.6027 38.7866 20.0963 40.6292 20.0963 42.4717 20.0963 43.9654 18.6027 43.9654 16.7601 43.9654 14.9176 42.4717 13.4239 40.6292 13.4239 38.7866 13.4239 37.2929 14.9176 37.2929 16.7601" stroke="#66737C" stroke-width="3.57143" stroke-linecap="round" stroke-linejoin="round" fill="none"/><path d="M43.4639 3.84932 44.4483 7.08108C44.785 8.19332 45.9249 8.85551 47.0579 8.59713L50.3361 7.83563C51.9419 7.47864 53.5332 8.49108 53.8902 10.097 54.1026 11.0526 53.8319 12.0515 53.1662 12.7692L50.8724 15.2417C50.0804 16.0964 50.0804 17.4169 50.8724 18.2715L53.1662 20.7464C54.2873 21.9503 54.2203 23.8351 53.0164 24.9563 52.2963 25.6269 51.2914 25.8987 50.3314 25.6823L47.0532 24.9231C45.9198 24.6623 44.7785 25.3254 44.4437 26.4391L43.4593 29.6709C42.9885 31.2365 41.3378 32.124 39.7722 31.6533 38.8205 31.3672 38.0759 30.6226 37.7898 29.6709L36.8054 26.4391C36.4706 25.3254 35.3292 24.6623 34.1958 24.9231L30.9176 25.6823C29.3114 26.0375 27.7212 25.0234 27.366 23.4171 27.1547 22.4616 27.4261 21.4633 28.0922 20.7464L30.386 18.2738C31.1779 17.4192 31.1779 16.0987 30.386 15.2441L28.0922 12.7692C26.971 11.5653 27.038 9.68049 28.2419 8.55931 28.962 7.88864 29.9669 7.61692 30.9269 7.8333L34.2051 8.59481C35.3381 8.85318 36.4779 8.191 36.8147 7.07876L37.7991 3.847C38.2747 2.28289 39.9282 1.40049 41.4923 1.87612 42.4377 2.16358 43.1772 2.90376 43.4639 3.84932Z" stroke="#66737C" stroke-width="3.57143" stroke-linecap="round" stroke-linejoin="round" fill="none"/><path d="M17.0944 53.9787 17.0944 47.5384 13.8743 47.5384C10.3161 47.5397 7.43062 44.6563 7.42933 41.0981 7.42933 41.0966 7.42933 41.095 7.42933 41.0935L7.42933 34.6555 3.35249 34.6555C2.46264 34.6507 1.74521 33.9254 1.75007 33.0355 1.75113 32.8408 1.78747 32.6479 1.85733 32.4662 6.60514 20.1289 9.72778 8.97324 20.5584 6.28475" stroke="#66737C" stroke-width="3.57143" stroke-linecap="round" stroke-linejoin="round" fill="none"/><path d="M39.6378 53.9787 39.6378 42.6746C39.6378 42.6746 45.0891 39.9396 45.7856 36.4618" stroke="#66737C" stroke-width="3.57143" stroke-linecap="round" stroke-linejoin="round" fill="none"/></svg>