<svg width="60" height="60" viewBox="-1.875 -1.875 60 60" xmlns="http://www.w3.org/2000/svg" xmlns:xlink="http://www.w3.org/1999/xlink" id="Text-Flow-Rows--Streamline-Ultimate" fill="none" overflow="hidden"><path d="M4.85688 19.0613C3.56245 19.0613 2.51313 18.012 2.51313 16.7175L2.51313 4.73327C2.51313 3.43887 3.56245 2.38952 4.85688 2.38952L16.8411 2.38952C18.1355 2.38952 19.1849 3.43887 19.1849 4.73327L19.1849 16.7175C19.1849 18.012 18.1355 19.0613 16.8411 19.0613L4.85688 19.0613Z" stroke="#66737C" stroke-width="3.33333" stroke-linecap="round" stroke-linejoin="round"/><path d="M4.85688 53.1555C3.56245 53.1555 2.51313 52.1063 2.51313 50.8118L2.51313 38.8275C2.51313 37.533 3.56245 36.4837 4.85688 36.4837L16.8411 36.4837C18.1355 36.4837 19.1849 37.533 19.1849 38.8275L19.1849 50.8118C19.1849 52.1063 18.1355 53.1555 16.8411 53.1555L4.85688 53.1555Z" stroke="#66737C" stroke-width="3.33333" stroke-linecap="round" stroke-linejoin="round"/><path d="M39.409 19.0613C38.1145 19.0613 37.0652 18.012 37.0652 16.7175L37.0652 4.73327C37.0652 3.43887 38.1145 2.38952 39.409 2.38952L51.393 2.38952C52.6875 2.38952 53.7368 3.43887 53.7368 4.73327L53.7368 16.7175C53.7368 18.012 52.6875 19.0613 51.393 19.0613L39.409 19.0613Z" stroke="#66737C" stroke-width="3.33333" stroke-linecap="round" stroke-linejoin="round"/><path d="M19.1849 10.73 37.0652 10.73" stroke="#66737C" stroke-width="3.33333" stroke-linecap="round" stroke-linejoin="round"/><path d="M19.1849 44.8242 53.7368 44.8242" stroke="#66737C" stroke-width="3.33333" stroke-linecap="round" stroke-linejoin="round"/><path d="M19.1849 36.4837 36.8377 18.8309" stroke="#66737C" stroke-width="3.33333" stroke-linecap="round" stroke-linejoin="round"/><path d="M44.7007 35.7879 53.7368 44.8242 44.7007 53.8605" stroke="#66737C" stroke-width="3.33333" stroke-linecap="round" stroke-linejoin="round"/></svg>