<svg width="60" height="60" viewBox="-1.875 -1.875 60 60" xmlns="http://www.w3.org/2000/svg" xmlns:xlink="http://www.w3.org/1999/xlink" id="Ticket-Movie--Streamline-Ultimate" overflow="hidden"><path d="M45.7031 27.5391C45.7011 23.2492 48.7955 19.5843 53.025 18.8672 53.8713 18.7253 54.4914 17.9932 54.4922 17.1352L54.4922 11.7188C54.4922 9.77712 52.9182 8.20312 50.9766 8.20312L5.27344 8.20312C3.33181 8.20312 1.75781 9.77712 1.75781 11.7188L1.75781 17.1398C1.75762 17.9983 2.37824 18.7309 3.225 18.8719 8.01434 19.6698 11.25 24.1992 10.4521 28.9885 9.83469 32.6943 6.93075 35.5982 3.225 36.2156 2.37875 36.3575 1.75859 37.0896 1.75781 37.9477L1.75781 43.3594C1.75781 45.301 3.33181 46.875 5.27344 46.875L50.9766 46.875C52.9182 46.875 54.4922 45.301 54.4922 43.3594L54.4922 37.9383C54.4924 37.0799 53.8718 36.3472 53.025 36.2062 48.7972 35.4895 45.7034 31.8272 45.7031 27.5391Z" stroke="#66737C" stroke-width="3.57143" stroke-linecap="round" stroke-linejoin="round" fill="none"/><path d="M10.5469 15.2344 15.8203 15.2344" stroke="#66737C" stroke-width="3.57143" stroke-linecap="round" stroke-linejoin="round" fill="none"/><path d="M24.6094 15.2344 31.6406 15.2344" stroke="#66737C" stroke-width="3.57143" stroke-linecap="round" stroke-linejoin="round" fill="none"/><path d="M40.4297 15.2344 45.7031 15.2344" stroke="#66737C" stroke-width="3.57143" stroke-linecap="round" stroke-linejoin="round" fill="none"/><path d="M10.5469 39.8438 15.8203 39.8438" stroke="#66737C" stroke-width="3.57143" stroke-linecap="round" stroke-linejoin="round" fill="none"/><path d="M24.6094 39.8438 31.6406 39.8438" stroke="#66737C" stroke-width="3.57143" stroke-linecap="round" stroke-linejoin="round" fill="none"/><path d="M40.4297 39.8438 45.7031 39.8438" stroke="#66737C" stroke-width="3.57143" stroke-linecap="round" stroke-linejoin="round" fill="none"/><path d="M29.5875 24.4594C29.0489 23.6517 27.9575 23.4335 27.1498 23.9721 26.9568 24.1008 26.7912 24.2664 26.6625 24.4594L22.9125 30.0844C22.3766 30.8939 22.5984 31.9845 23.4079 32.5204 23.6948 32.7103 24.031 32.8119 24.375 32.8125L31.875 32.8125C32.8458 32.8124 33.6328 32.0254 33.6327 31.0546 33.6327 30.7076 33.53 30.3684 33.3375 30.0797Z" stroke="#66737C" stroke-width="3.57143" stroke-linecap="round" stroke-linejoin="round" fill="none"/></svg>