<svg width="60" height="60" viewBox="-1.875 -1.875 60 60" xmlns="http://www.w3.org/2000/svg" xmlns:xlink="http://www.w3.org/1999/xlink" id="Ticket-1--Streamline-Ultimate" overflow="hidden"><path d="M26.9039 54.1406C27.6646 54.6831 28.7063 54.5948 29.3648 53.932L53.9297 29.3648C54.5915 28.7058 54.6797 27.6649 54.1383 26.9039 51.7807 23.5863 51.7807 19.1402 54.1383 15.8227 54.6821 15.0615 54.5937 14.0183 53.9297 13.3594L42.8906 2.31797C42.2309 1.65356 41.1869 1.56524 40.425 2.10938 37.1079 4.46586 32.6631 4.46586 29.3461 2.10938 28.5848 1.56892 27.5446 1.65709 26.8852 2.31797L2.32031 26.8852C1.6587 27.544 1.56953 28.5843 2.10938 29.3461 4.46697 32.6637 4.46697 37.1098 2.10938 40.4273 1.56619 41.1891 1.65552 42.2323 2.32031 42.8906L13.3594 53.932C14.0191 54.5933 15.0607 54.6796 15.8203 54.1359 19.1394 51.7786 23.5868 51.7805 26.9039 54.1406Z" stroke="#66737C" stroke-width="3.57143" stroke-linecap="round" stroke-linejoin="round" fill="none"/><path d="M29.4773 10.5435 45.7054 26.7716 26.7727 45.7044 10.5446 29.4763Z" stroke="#66737C" stroke-width="3.57143" stroke-linecap="round" stroke-linejoin="round" fill="none"/><path d="M29.4773 21.3633 21.3633 29.4773" stroke="#66737C" stroke-width="3.57143" stroke-linecap="round" stroke-linejoin="round" fill="none"/><path d="M32.2945 29.3648 29.768 31.8914" stroke="#66737C" stroke-width="3.57143" stroke-linecap="round" stroke-linejoin="round" fill="none"/></svg>