<svg width="60" height="60" viewBox="-1.875 -1.875 60 60" xmlns="http://www.w3.org/2000/svg" xmlns:xlink="http://www.w3.org/1999/xlink" id="Time-Medicine-2--Streamline-Ultimate" fill="none" overflow="hidden"><path d="M27.4076 19.3257C28.7362 18.0697 30.5023 17.3815 32.3304 17.4071 34.1585 17.4329 35.9044 18.1705 37.1972 19.4633 38.49 20.7561 39.2278 22.5021 39.2534 24.3302 39.2791 26.1584 38.5908 27.9244 37.335 29.253L28.8741 37.714C27.5529 38.9787 25.7902 39.678 23.9613 39.663 22.1324 39.6483 20.3814 38.9205 19.0807 37.6348 17.7801 36.3488 17.0325 34.6062 16.9969 32.7776 16.9614 30.9487 17.6407 29.1785 18.8903 27.8428L27.4076 19.3257Z" stroke="#66737C" stroke-width="3.33333" stroke-linecap="round" stroke-linejoin="round"/><path d="M23.5725 23.1614 33.4999 33.0888" stroke="#66737C" stroke-width="3.33333" stroke-linecap="round" stroke-linejoin="round"/><path d="M8.34427 16.7045C2.03696 27.6291 5.77999 41.5983 16.7046 47.9055 23.7113 51.9509 31.9702 51.862 38.6569 48.3959M47.9058 39.5454C54.213 28.6207 50.4701 14.6515 39.5454 8.3442 32.1588 4.07958 23.3803 4.40963 16.5195 8.4476M46.2652 33.517 47.8777 39.5363 53.8971 37.9233M9.96223 22.721 8.34989 16.7017 2.3303 18.3147" stroke="#66737C" stroke-width="3.33333" stroke-linecap="round" stroke-linejoin="round"/></svg>