<svg width="60" height="60" viewBox="-1.875 -1.875 60 60" xmlns="http://www.w3.org/2000/svg" xmlns:xlink="http://www.w3.org/1999/xlink" id="Time-Twentfour-Hours-1--Streamline-Ultimate" overflow="hidden"><defs></defs><path d="M23.1891 17.2102 32.3391 9.20625 22.0453 2.34375" stroke="#66737C" stroke-width="3.33333" stroke-linecap="round" stroke-linejoin="round" fill="none"/><path d="M39.9188 12.2461C50.503 18.7567 53.8054 32.6149 47.2947 43.1992 40.7841 53.7835 26.9259 57.0858 16.3416 50.5752 5.75734 44.0645 2.455 30.2064 8.96564 19.6221 13.83 11.7141 23.0521 7.60602 32.1844 9.27891" stroke="#66737C" stroke-width="3.33333" stroke-linecap="round" stroke-linejoin="round" fill="none"/><path d="M38.2898 33.9328 31.2586 33.9328 31.2586 32.175C31.2586 28.2917 34.4066 25.1437 38.2898 25.1437L38.2898 39.2062" stroke="#66737C" stroke-width="3.33333" stroke-linecap="round" stroke-linejoin="round" fill="none"/><path d="M17.1961 28.6594C17.1961 26.7177 18.7701 25.1437 20.7117 25.1437L20.7117 25.1437C22.6533 25.1437 24.2273 26.7177 24.2273 28.6594L24.2273 28.6594C24.228 29.7978 23.8402 30.9024 23.1281 31.7906L17.1961 39.2062 24.2273 39.2062" stroke="#66737C" stroke-width="3.33333" stroke-linecap="round" stroke-linejoin="round" fill="none"/></svg>