<svg width="60" height="60" viewBox="-2.14 -2.14 60 60" xmlns="http://www.w3.org/2000/svg" xmlns:xlink="http://www.w3.org/1999/xlink" id="Touch-Finger-1--Streamline-Ultimate.svg" overflow="hidden"><path d="M42.9532 17.4055 35.9882 17.4055" stroke="#66737C" stroke-width="3.57143" stroke-linecap="round" stroke-linejoin="round" fill="none"/><path d="M38.3098 5.7972 33.6665 10.4405" stroke="#66737C" stroke-width="3.57143" stroke-linecap="round" stroke-linejoin="round" fill="none"/><path d="M26.7015 1.15619 26.7015 8.11887" stroke="#66737C" stroke-width="3.57143" stroke-linecap="round" stroke-linejoin="round" fill="none"/><path d="M12.7715 5.7972 17.4148 10.4405" stroke="#66737C" stroke-width="3.57143" stroke-linecap="round" stroke-linejoin="round" fill="none"/><path d="M8.12815 17.4055 15.0932 17.4055" stroke="#66737C" stroke-width="3.57143" stroke-linecap="round" stroke-linejoin="round" fill="none"/><path d="M20.0917 54.5592 11.2531 43.9236C10.0228 42.4446 10.2245 40.2482 11.7035 39.0179 13.1826 37.7876 15.3789 37.9893 16.6092 39.4683L22.0558 46.027 22.0558 23.2167C22.0558 21.2933 23.615 19.7342 25.5383 19.7342 27.4617 19.7342 29.0208 21.2933 29.0208 23.2167L29.0208 38.3075 35.9858 38.3075C41.1147 38.3075 45.2725 42.4653 45.2725 47.5942L45.2725 54.5592" stroke="#66737C" stroke-width="3.57143" stroke-linecap="round" stroke-linejoin="round" fill="none"/></svg>