<svg width="60" height="60" viewBox="-1.875 -1.875 60 60" xmlns="http://www.w3.org/2000/svg" xmlns:xlink="http://www.w3.org/1999/xlink" id="Touch-Id-2--Streamline-Ultimate" overflow="hidden"><path d="M54.4922 36.9141 54.4922 50.9766C54.4922 52.9182 52.9182 54.4922 50.9766 54.4922L36.9141 54.4922" stroke="#66737C" stroke-width="3.33333" stroke-linecap="round" stroke-linejoin="round" fill="none"/><path d="M36.9141 1.75781 50.9766 1.75781C52.9182 1.75781 54.4922 3.33181 54.4922 5.27344L54.4922 19.3359" stroke="#66737C" stroke-width="3.33333" stroke-linecap="round" stroke-linejoin="round" fill="none"/><path d="M1.75781 19.3359 1.75781 5.27344C1.75781 3.33181 3.33181 1.75781 5.27344 1.75781L19.3359 1.75781" stroke="#66737C" stroke-width="3.33333" stroke-linecap="round" stroke-linejoin="round" fill="none"/><path d="M19.3359 54.4922 5.27344 54.4922C3.33181 54.4922 1.75781 52.9182 1.75781 50.9766L1.75781 36.9141" stroke="#66737C" stroke-width="3.33333" stroke-linecap="round" stroke-linejoin="round" fill="none"/><path d="M42.1875 32.5195 42.1875 29.0039C42.1875 20.3016 35.8594 13.1836 28.125 13.1836L28.125 13.1836C20.3906 13.1836 14.0625 20.3016 14.0625 29.0039L14.0625 43.0664" stroke="#66737C" stroke-width="3.33333" stroke-linecap="round" stroke-linejoin="round" fill="none"/><path d="M42.1875 43.0664 42.1875 39.5508" stroke="#66737C" stroke-width="3.33333" stroke-linecap="round" stroke-linejoin="round" fill="none"/><path d="M21.0938 39.5508 21.0938 43.0664" stroke="#66737C" stroke-width="3.33333" stroke-linecap="round" stroke-linejoin="round" fill="none"/><path d="M35.1562 43.0664 35.1562 30.7617C35.1562 25.9266 31.9922 21.9727 28.125 21.9727L28.125 21.9727C24.2578 21.9727 21.0938 25.9266 21.0938 30.7617L21.0938 32.5195" stroke="#66737C" stroke-width="3.33333" stroke-linecap="round" stroke-linejoin="round" fill="none"/><path d="M28.125 41.3086 28.125 43.0664" stroke="#66737C" stroke-width="3.33333" stroke-linecap="round" stroke-linejoin="round" fill="none"/><path d="M28.125 29.0039 28.125 34.2773" stroke="#66737C" stroke-width="3.33333" stroke-linecap="round" stroke-linejoin="round" fill="none"/></svg>