<svg width="60" height="60" viewBox="-1.875 -1.875 60 60" xmlns="http://www.w3.org/2000/svg" xmlns:xlink="http://www.w3.org/1999/xlink" id="Trading-Sell--Streamline-Ultimate" fill="none" overflow="hidden"><path d="M54.4922 49.8047C54.4922 52.3828 52.3828 54.4922 49.8047 54.4922L6.44531 54.4922C3.86719 54.4922 1.75781 52.3828 1.75781 49.8047L1.75781 32.2266C1.75781 29.6484 3.86719 27.5391 6.44531 27.5391L49.8047 27.5391C52.3828 27.5391 54.4922 29.6484 54.4922 32.2266L54.4922 49.8047Z" stroke="#66737C" stroke-width="3.33333" stroke-linecap="round" stroke-linejoin="round" stroke-miterlimit="10"/><path d="M49.8047 1.75781 31.7578 16.2891 22.3829 6.91406 6.44531 18.6328" stroke="#66737C" stroke-width="3.33333" stroke-linecap="round" stroke-linejoin="round" stroke-miterlimit="10"/><path d="M38.7891 1.75781 49.8047 1.75781 49.8047 11.6016" stroke="#66737C" stroke-width="3.33333" stroke-linecap="round" stroke-linejoin="round" stroke-miterlimit="10"/><path d="M13.9116 37.497C13.5494 36.472 12.4217 35.7377 11.2727 35.7377 9.87023 35.7377 8.63381 36.8747 8.63381 38.2772 8.63381 39.3696 9.3773 40.3219 10.4371 40.5867L11.928 40.9596C13.0938 41.2509 13.9116 42.2984 13.9116 43.5L13.9116 43.6545C13.9116 45.112 12.7301 46.2935 11.2727 46.2935 10.1237 46.2935 8.99606 45.5592 8.63381 44.5341" stroke="#66737C" stroke-width="3.33333" stroke-linecap="round" stroke-linejoin="round"/><path d="M25.6348 35.7377 20.3569 35.7377 20.3569 46.2935 25.6348 46.2935" stroke="#66737C" stroke-width="3.33333" stroke-linecap="round" stroke-linejoin="round"/><path d="M20.3569 40.5757 24.7552 40.5757" stroke="#66737C" stroke-width="3.33333" stroke-linecap="round" stroke-linejoin="round"/><path d="M42.6314 35.7377 42.6314 46.2935 47.9091 46.2935" stroke="#66737C" stroke-width="3.33333" stroke-linecap="round" stroke-linejoin="round"/><path d="M31.4941 35.7377 31.4941 46.2935 36.772 46.2935" stroke="#66737C" stroke-width="3.33333" stroke-linecap="round" stroke-linejoin="round"/></svg>