<svg width="60" height="60" viewBox="-1.875 -1.875 60 60" xmlns="http://www.w3.org/2000/svg" xmlns:xlink="http://www.w3.org/1999/xlink" id="Translate--Streamline-Ultimate" overflow="hidden"><g><g><path d="M46.0547 1.75781 37.2656 7.03125 42.5391 15.8203" stroke="#66737C" stroke-width="3.33333" stroke-linecap="round" stroke-linejoin="round" fill="none"/><path d="M54.4922 19.1953C52.0718 12.4982 45.4644 8.25328 38.3672 8.83594" stroke="#66737C" stroke-width="3.33333" stroke-linecap="round" stroke-linejoin="round" fill="none"/></g><g><path d="M10.1953 54.4922 18.9844 49.2188 13.7109 40.4297" stroke="#66737C" stroke-width="3.33333" stroke-linecap="round" stroke-linejoin="round" fill="none"/><path d="M1.75781 37.0547C4.17817 43.7518 10.7856 47.9967 17.8828 47.4141" stroke="#66737C" stroke-width="3.33333" stroke-linecap="round" stroke-linejoin="round" fill="none"/></g><path d="M5.27344 1.75781 26.3672 1.75781C26.3672 1.75781 29.8828 1.75781 29.8828 5.27344L29.8828 26.3672C29.8828 26.3672 29.8828 29.8828 26.3672 29.8828L5.27344 29.8828C5.27344 29.8828 1.75781 29.8828 1.75781 26.3672L1.75781 5.27344C1.75781 5.27344 1.75781 1.75781 5.27344 1.75781" stroke="#66737C" stroke-width="3.33333" stroke-linecap="round" stroke-linejoin="round" fill="none"/><path d="M36.9141 26.3672 50.9766 26.3672C52.9182 26.3672 54.4922 27.9412 54.4922 29.8828L54.4922 50.9766C54.4922 52.9182 52.9182 54.4922 50.9766 54.4922L29.8828 54.4922C27.9412 54.4922 26.3672 52.9182 26.3672 50.9766L26.3672 36.9141" stroke="#66737C" stroke-width="3.33333" stroke-linecap="round" stroke-linejoin="round" fill="none"/><path d="M36.3281 42.1875 44.5312 42.1875" stroke="#66737C" stroke-width="3.33333" stroke-linecap="round" stroke-linejoin="round" fill="none"/><g><path d="M15.8203 8.78906 15.8203 12.3047" stroke="#66737C" stroke-width="3.33333" stroke-linecap="round" stroke-linejoin="round" fill="none"/><path d="M8.78906 12.3047 22.8516 12.3047" stroke="#66737C" stroke-width="3.33333" stroke-linecap="round" stroke-linejoin="round" fill="none"/><path d="M19.3359 12.3047C19.3359 12.3047 15.8203 22.8516 8.78906 22.8516" stroke="#66737C" stroke-width="3.33333" stroke-linecap="round" stroke-linejoin="round" fill="none"/><path d="M15.8203 18.75C17.4076 21.1197 20.0055 22.6178 22.8516 22.8047" stroke="#66737C" stroke-width="3.33333" stroke-linecap="round" stroke-linejoin="round" fill="none"/></g><path d="M36.3281 47.4609 36.3281 38.0859C36.3281 35.8207 38.1645 33.9844 40.4297 33.9844 42.6949 33.9844 44.5312 35.8207 44.5312 38.0859L44.5312 47.4609" stroke="#66737C" stroke-width="3.33333" stroke-linecap="round" stroke-linejoin="round" fill="none"/></g></svg>