<svg width="60" height="60" viewBox="-2.14 -2.14 60 60" xmlns="http://www.w3.org/2000/svg" xmlns:xlink="http://www.w3.org/1999/xlink" id="Travel-Luggage-1--Streamline-Ultimate.svg" overflow="hidden"><g><path d="M13.93 41.6275C3.43946 36.8192-1.16687 24.417 3.64146 13.9264 8.44979 3.4359 20.852-1.17044 31.3425 3.63789 38.7707 7.04261 43.5326 14.4649 43.5312 22.6362" stroke="#66737C" stroke-width="3.57143" stroke-linecap="round" stroke-linejoin="round" fill="none"/><path d="M9.28667 6.52388 21.5451 11.1672C23.1345 11.7782 24.0551 13.443 23.7274 15.114L23.0774 18.7358C22.8063 20.0537 21.805 21.1002 20.5003 21.429L15.6713 22.6362 13.0013 29.3227C12.4679 30.6233 11.5533 31.7322 10.3778 32.5033L6.1292 35.4519" stroke="#66737C" stroke-width="3.57143" stroke-linecap="round" stroke-linejoin="round" fill="none"/><path d="M37.1467 7.59185 33.7338 14.3711C33.3136 15.1994 33.2466 16.1625 33.5481 17.041L34.825 20.895" stroke="#66737C" stroke-width="3.57143" stroke-linecap="round" stroke-linejoin="round" fill="none"/><g><path d="M26.1187 34.825 50.4963 34.825C50.4963 34.825 53.9787 34.825 53.9787 38.3075L53.9787 50.4963C53.9787 50.4963 53.9787 53.9787 50.4963 53.9787L26.1187 53.9787C26.1187 53.9787 22.6362 53.9787 22.6362 50.4963L22.6362 38.3075C22.6362 38.3075 22.6362 34.825 26.1187 34.825" stroke="#66737C" stroke-width="3.57143" stroke-linecap="round" stroke-linejoin="round" fill="none"/><path d="M31.3425 34.825 31.3425 53.9787" stroke="#66737C" stroke-width="3.57143" stroke-linecap="round" stroke-linejoin="round" fill="none"/><path d="M45.2725 34.825 45.2725 53.9787" stroke="#66737C" stroke-width="3.57143" stroke-linecap="round" stroke-linejoin="round" fill="none"/></g><path d="M33.0838 34.825 33.0838 31.9229C33.0838 29.0379 35.4225 26.6992 38.3075 26.6992 41.1925 26.6992 43.5313 29.0379 43.5313 31.9229L43.5312 34.825" stroke="#66737C" stroke-width="3.57143" stroke-linecap="round" stroke-linejoin="round" fill="none"/></g></svg>