<svg width="60" height="60" viewBox="-2.14 -2.14 60 60" xmlns="http://www.w3.org/2000/svg" xmlns:xlink="http://www.w3.org/1999/xlink" id="Travel-Insurance-Cover--Streamline-Ultimate.svg" overflow="hidden"><path d="M36.5662 36.5662C36.5662 39.4512 38.905 41.79 41.79 41.79 44.675 41.79 47.0138 39.4512 47.0138 36.5662 47.0138 33.6813 44.675 31.3425 41.79 31.3425 38.905 31.3425 36.5662 33.6813 36.5662 36.5662Z" stroke="#66737C" stroke-width="3.57143" stroke-linecap="round" stroke-linejoin="round" fill="none"/><path d="M33.0838 53.9787C33.0838 49.1704 36.9817 45.2725 41.79 45.2725 46.5983 45.2725 50.4963 49.1704 50.4963 53.9787" stroke="#66737C" stroke-width="3.57143" stroke-linecap="round" stroke-linejoin="round" fill="none"/><path d="M8.70625 36.5662C8.70625 39.4512 11.045 41.79 13.93 41.79 16.815 41.79 19.1537 39.4512 19.1537 36.5662 19.1537 33.6813 16.815 31.3425 13.93 31.3425 11.045 31.3425 8.70625 33.6813 8.70625 36.5662Z" stroke="#66737C" stroke-width="3.57143" stroke-linecap="round" stroke-linejoin="round" fill="none"/><path d="M5.22375 53.9787C5.22375 49.1704 9.12167 45.2725 13.93 45.2725 18.7383 45.2725 22.6362 49.1704 22.6362 53.9787" stroke="#66737C" stroke-width="3.57143" stroke-linecap="round" stroke-linejoin="round" fill="none"/><path d="M47.0137 24.3775C47.0137 13.7992 38.4383 5.22375 27.86 5.22375 17.2817 5.22375 8.70625 13.7992 8.70625 24.3775Z" stroke="#66737C" stroke-width="3.57143" stroke-linecap="round" stroke-linejoin="round" fill="none"/><path d="M27.86 24.3775 27.86 41.79" stroke="#66737C" stroke-width="3.57143" stroke-linecap="round" stroke-linejoin="round" fill="none"/><path d="M27.86 5.22375 27.86 1.74125" stroke="#66737C" stroke-width="3.57143" stroke-linecap="round" stroke-linejoin="round" fill="none"/></svg>