<svg width="60" height="60" viewBox="-2.14 -2.14 60 60" xmlns="http://www.w3.org/2000/svg" xmlns:xlink="http://www.w3.org/1999/xlink" id="Tree-Christmas--Streamline-Ultimate.svg" overflow="hidden"><path d="M43.9561 46.4333C44.9165 46.4355 45.6968 45.6587 45.6989 44.6983 45.6998 44.3091 45.5701 43.9309 45.3305 43.6241L35.3288 30.7621 38.8113 30.7621C39.7742 30.7595 40.5528 29.9768 40.5502 29.0139 40.5492 28.6398 40.428 28.2759 40.2043 27.9761L31.8463 16.8321 35.561 16.8321C36.5226 16.832 37.3022 16.0524 37.3021 15.0907 37.3021 14.747 37.2003 14.411 37.0097 14.125L29.8125 3.33391C29.2777 2.53317 28.1949 2.31762 27.3942 2.85248 27.2036 2.97976 27.04 3.14336 26.9128 3.33391L19.7156 14.125C19.1822 14.9252 19.3984 16.0063 20.1986 16.5397 20.4859 16.7312 20.8237 16.833 21.169 16.8321L24.8836 16.8321 16.5256 27.9761C15.9486 28.7454 16.1045 29.8368 16.8739 30.4138 17.1753 30.6399 17.5419 30.7621 17.9186 30.7621L21.4011 30.7621 11.3947 43.6241C10.8036 44.381 10.9381 45.4738 11.695 46.0649 12.0017 46.3045 12.38 46.4342 12.7692 46.4333Z" stroke="#66737C" stroke-width="3.57143" stroke-linecap="round" stroke-linejoin="round" fill="none"/><path d="M28.3638 46.4333 28.3638 53.3983" stroke="#66737C" stroke-width="3.57143" stroke-linecap="round" stroke-linejoin="round" fill="none"/></svg>