<svg width="60" height="60" viewBox="-2.14 -2.14 60 60" xmlns="http://www.w3.org/2000/svg" xmlns:xlink="http://www.w3.org/1999/xlink" id="Tree-Chart-Organize--Streamline-Ultimate.svg" fill="none" overflow="hidden"><path d="M23.2167 30.1817 38.3075 30.1817" stroke="#66737C" stroke-width="3.57143" stroke-linecap="round" stroke-linejoin="round"/><path d="M38.3075 48.755 27.86 48.755C25.2955 48.755 23.2167 46.6762 23.2167 44.1117L23.2167 16.8321" stroke="#66737C" stroke-width="3.57143" stroke-linecap="round" stroke-linejoin="round"/><path d="M48.755 48.755C48.755 45.8701 46.4162 43.5312 43.5312 43.5312 40.6463 43.5312 38.3075 45.8701 38.3075 48.755 38.3075 51.6399 40.6463 53.9787 43.5312 53.9787 46.4162 53.9787 48.755 51.6399 48.755 48.755Z" stroke="#66737C" stroke-width="3.57143" stroke-linecap="round" stroke-linejoin="round"/><path d="M48.755 30.1817C48.755 27.2968 46.4162 24.9579 43.5312 24.9579 40.6463 24.9579 38.3075 27.2968 38.3075 30.1817 38.3075 33.0666 40.6463 35.4054 43.5312 35.4054 46.4162 35.4054 48.755 33.0666 48.755 30.1817Z" stroke="#66737C" stroke-width="3.57143" stroke-linecap="round" stroke-linejoin="round"/><path d="M37.7271 1.74125 8.70625 1.74125C7.74459 1.74125 6.965 2.52084 6.965 3.4825L6.965 15.0908C6.965 16.0525 7.74459 16.8321 8.70625 16.8321L37.7271 16.8321C38.6887 16.8321 39.4683 16.0525 39.4683 15.0908L39.4683 3.4825C39.4683 2.52084 38.6887 1.74125 37.7271 1.74125Z" stroke="#66737C" stroke-width="3.57143" stroke-linecap="round" stroke-linejoin="round"/></svg>