<svg width="16" height="16" viewBox="-0.5 -0.5 16 16" xmlns="http://www.w3.org/2000/svg" xmlns:xlink="http://www.w3.org/1999/xlink" id="Two-Person-Meeting--Streamline-Atlas" overflow="hidden"><defs></defs><path d="M5.70625 14.6875C5.70968 13.6983 6.51076 12.8972 7.5 12.8938 8.48924 12.8972 9.29032 13.6983 9.29375 14.6875" stroke="#66737C" stroke-width="0.79602" stroke-miterlimit="10" fill="none"/><path d="M6.30625 10.5C6.30625 11.1593 6.84071 11.6938 7.5 11.6938 8.15929 11.6938 8.69375 11.1593 8.69375 10.5 8.69375 9.84071 8.15929 9.30625 7.5 9.30625 6.84071 9.30625 6.30625 9.84071 6.30625 10.5" stroke="#66737C" stroke-width="0.79602" stroke-miterlimit="10" fill="none"/><path d="M5.70625 6.31875C5.70625 5.32809 6.50934 4.525 7.5 4.525 8.49066 4.525 9.29375 5.32809 9.29375 6.31875" stroke="#66737C" stroke-width="0.79602" stroke-miterlimit="10" fill="none"/><path d="M6.30625 2.13125C6.30625 2.79054 6.84071 3.325 7.5 3.325 8.15929 3.325 8.69375 2.79054 8.69375 2.13125 8.69375 1.47196 8.15929 0.9375 7.5 0.9375 6.84071 0.9375 6.30625 1.47196 6.30625 2.13125" stroke="#66737C" stroke-width="0.79602" stroke-miterlimit="10" fill="none"/><path d="M9.89375 12.2937 13.4812 12.2937 12.2812 6.9125 2.71875 6.9125 1.525 12.2937 5.10625 12.2937" stroke="#66737C" stroke-width="0.79602" stroke-miterlimit="10" fill="none"/></svg>