<svg width="60" height="60" viewBox="-1.875 -1.875 60 60" xmlns="http://www.w3.org/2000/svg" xmlns:xlink="http://www.w3.org/1999/xlink" id="Ui-Webpage-Slider--Streamline-Ultimate" overflow="hidden"><path d="M32.993 43.9453 15.8203 43.9453C13.8787 43.9453 12.3047 42.3713 12.3047 40.4297L12.3047 5.27344C12.3047 3.33181 13.8787 1.75781 15.8203 1.75781L40.4297 1.75781C42.3713 1.75781 43.9453 3.33181 43.9453 5.27344L43.9453 31.5375" stroke="#66737C" stroke-width="3.33333" stroke-linecap="round" stroke-linejoin="round" fill="none"/><path d="M12.3047 40.4297 5.27344 40.4297C3.33181 40.4297 1.75781 38.8557 1.75781 36.9141L1.75781 8.78906C1.75781 6.84744 3.33181 5.27344 5.27344 5.27344L12.3047 5.27344" stroke="#66737C" stroke-width="3.33333" stroke-linecap="round" stroke-linejoin="round" fill="none"/><path d="M43.9453 5.27344 50.9766 5.27344C52.9182 5.27344 54.4922 6.84744 54.4922 8.78906L54.4922 36.9141" stroke="#66737C" stroke-width="3.33333" stroke-linecap="round" stroke-linejoin="round" fill="none"/><path d="M19.3359 10.5469 36.9141 10.5469" stroke="#66737C" stroke-width="3.33333" stroke-linecap="round" stroke-linejoin="round" fill="none"/><path d="M19.3359 19.3359 36.9141 19.3359" stroke="#66737C" stroke-width="3.33333" stroke-linecap="round" stroke-linejoin="round" fill="none"/><path d="M19.3359 28.125 26.3672 28.125" stroke="#66737C" stroke-width="3.33333" stroke-linecap="round" stroke-linejoin="round" fill="none"/><path d="M38.3344 38.3344 44.5477 54.4922 48.2766 48.2766 54.4922 44.5477 38.3344 38.3344Z" stroke="#66737C" stroke-width="3.33333" stroke-linecap="round" stroke-linejoin="round" fill="none"/><path d="M54.4922 54.4922 48.2766 48.2766" stroke="#66737C" stroke-width="3.33333" stroke-linecap="round" stroke-linejoin="round" fill="none"/></svg>