<svg width="44.8" height="44.8" viewBox="-1.1 -1.1 16.2 16.2" xmlns="http://www.w3.org/2000/svg" xmlns:xlink="http://www.w3.org/1999/xlink" id="User-Team-Community--Streamline-Core" stroke-width="3.2" fill="none" overflow="hidden"><g id="user-team-community--user-team-community-group-person-people-organization"><path d="M6 9C6 9.55229 6.44772 10 7 10 7.55228 10 8 9.55229 8 9 8 8.44771 7.55228 8 7 8 6.44772 8 6 8.44771 6 9" id="Ellipse 1134" stroke="#66737C" stroke-width="0.952381" stroke-linecap="round" stroke-linejoin="round"/><path d="M9 13C8.77798 12.1374 7.9319 11.5 6.99998 11.5 6.06806 11.5 5.22202 12.1374 5 13" id="Ellipse 2033" stroke="#66737C" stroke-width="0.952381" stroke-linecap="round"/><path d="M2 9C2 9.55229 2.44772 10 3 10 3.55228 10 4 9.55229 4 9 4 8.44771 3.55228 8 3 8 2.44772 8 2 8.44771 2 9" id="Ellipse 2034" stroke="#66737C" stroke-width="0.952381" stroke-linecap="round" stroke-linejoin="round"/><path d="M4 5.5C4 6.05228 4.44772 6.5 5 6.5 5.55228 6.5 6 6.05228 6 5.5 6 4.94772 5.55228 4.5 5 4.5 4.44772 4.5 4 4.94772 4 5.5" id="Ellipse 2038" stroke="#66737C" stroke-width="0.952381" stroke-linecap="round" stroke-linejoin="round"/><path d="M8 5.5C8 6.05228 8.44771 6.5 9 6.5 9.55229 6.5 10 6.05228 10 5.5 10 4.94772 9.55229 4.5 9 4.5 8.44771 4.5 8 4.94772 8 5.5" id="Ellipse 2039" stroke="#66737C" stroke-width="0.952381" stroke-linecap="round" stroke-linejoin="round"/><path d="M6 2C6 2.55228 6.44772 3 7 3 7.55228 3 8 2.55228 8 2 8 1.44772 7.55228 1 7 1 6.44772 1 6 1.44772 6 2" id="Ellipse 2040" stroke="#66737C" stroke-width="0.952381" stroke-linecap="round" stroke-linejoin="round"/><path d="M5 13C4.77798 12.1374 3.9319 11.5 2.99998 11.5 2.06806 11.5 1.22202 12.1374 1 13" id="Ellipse 2035" stroke="#66737C" stroke-width="0.952381" stroke-linecap="round"/><path d="M0 1C0 1.55228 0.447715 2 1 2 1.55228 2 2 1.55228 2 1 2 0.447715 1.55228 -2.22045e-16 1 -2.22045e-16 0.447715 -4.44089e-16 -1.11022e-16 0.447715 -1.11022e-16 1" id="Ellipse 2036" stroke="#66737C" stroke-width="0.952381" stroke-linecap="round" stroke-linejoin="round" transform="matrix(-1 0 0 1 12 8)"/><path d="M9 13C9.22202 12.1374 10.0681 11.5 11 11.5 11.9319 11.5 12.778 12.1374 13 13" id="Ellipse 2037" stroke="#66737C" stroke-width="0.952381" stroke-linecap="round"/></g></svg>