<svg width="60" height="60" viewBox="-1.875 -1.875 60 60" xmlns="http://www.w3.org/2000/svg" xmlns:xlink="http://www.w3.org/1999/xlink" id="User-Multiple-Female-Male--Streamline-Ultimate" overflow="hidden"><defs></defs><path d="M32.7609 53.7609 34.3055 44.4891 40.4883 44.4891 35.8594 30.5812C34.3125 25.9453 32.4 22.8469 28.125 22.8469 23.85 22.8469 21.9445 25.9383 20.3906 30.5812L15.7617 44.4891 21.9445 44.4891 23.4891 53.7609Z" stroke="#66737C" stroke-width="3.33333" stroke-linecap="round" stroke-linejoin="round" fill="none"/><path d="M21.9445 13.582C21.9445 16.9954 24.7116 19.7625 28.125 19.7625 31.5384 19.7625 34.3055 16.9954 34.3055 13.582 34.3055 10.1687 31.5384 7.40156 28.125 7.40156 24.7116 7.40156 21.9445 10.1687 21.9445 13.582" stroke="#66737C" stroke-width="3.33333" stroke-linecap="round" stroke-linejoin="round" fill="none"/><path d="M4.92188 6.70781C4.92188 9.03776 6.81067 10.9266 9.14062 10.9266 11.4706 10.9266 13.3594 9.03776 13.3594 6.70781 13.3594 4.37786 11.4706 2.48906 9.14062 2.48906 6.81067 2.48906 4.92188 4.37786 4.92188 6.70781" stroke="#66737C" stroke-width="3.33333" stroke-linecap="round" stroke-linejoin="round" fill="none"/><path d="M14.7258 15.5883C12.0557 12.505 7.39174 12.17 4.30843 14.84 2.68962 16.2418 1.75899 18.2773 1.75781 20.4188L1.75781 23.5828 4.92188 23.5828 5.97656 34.1297 12.3047 34.1297 12.8203 28.9734" stroke="#66737C" stroke-width="3.33333" stroke-linecap="round" stroke-linejoin="round" fill="none"/><path d="M42.8906 6.70781C42.8906 9.03776 44.7794 10.9266 47.1094 10.9266 49.4393 10.9266 51.3281 9.03776 51.3281 6.70781 51.3281 4.37786 49.4393 2.48906 47.1094 2.48906 44.7794 2.48906 42.8906 4.37786 42.8906 6.70781" stroke="#66737C" stroke-width="3.33333" stroke-linecap="round" stroke-linejoin="round" fill="none"/><path d="M41.5242 15.5883C44.1943 12.505 48.8583 12.17 51.9416 14.84 53.5604 16.2418 54.491 18.2773 54.4922 20.4188L54.4922 23.5828 51.3281 23.5828 50.2734 34.1297 43.9453 34.1297 43.4297 28.9734" stroke="#66737C" stroke-width="3.33333" stroke-linecap="round" stroke-linejoin="round" fill="none"/></svg>