<svg width="60" height="60" viewBox="-1.875 -1.875 60 60" xmlns="http://www.w3.org/2000/svg" xmlns:xlink="http://www.w3.org/1999/xlink" id="User-3-D-Box--Streamline-Ultimate" overflow="hidden"><path d="M24.6094 35.1562 14.0625 29.8828 14.0625 17.5781 24.6094 22.8516 24.6094 35.1562Z" stroke="#66737C" stroke-width="3.33333" stroke-linecap="round" stroke-linejoin="round" fill="none"/><path d="M24.6094 35.1562 35.1562 29.8828 35.1562 17.5781 24.6094 22.8516 24.6094 35.1562Z" stroke="#66737C" stroke-width="3.33333" stroke-linecap="round" stroke-linejoin="round" fill="none"/><path d="M35.1562 17.5781 24.6094 12.3047 14.0625 17.5781" stroke="#66737C" stroke-width="3.33333" stroke-linecap="round" stroke-linejoin="round" fill="none"/><path d="M10.5469 54.4922 10.5469 39.8086C1.65422 31.5703 1.12373 17.683 9.36198 8.79033 13.5217 4.30017 19.3674 1.75092 25.4883 1.75781 43.0664 1.75781 46.1672 16.9922 52.7344 33.3984L45.7031 33.3984 45.7031 40.4297C45.7031 44.3129 42.5551 47.4609 38.6719 47.4609L35.1562 47.4609 35.1562 54.4922" stroke="#66737C" stroke-width="3.33333" stroke-linecap="round" stroke-linejoin="round" fill="none"/></svg>