<svg width="60" height="60" viewBox="-1.875 -1.875 60 60" xmlns="http://www.w3.org/2000/svg" xmlns:xlink="http://www.w3.org/1999/xlink" id="User-Signal--Streamline-Ultimate" overflow="hidden"><path d="M21.9727 18.457C21.9727 21.8549 24.7272 24.6094 28.125 24.6094 31.5228 24.6094 34.2773 21.8549 34.2773 18.457 34.2773 15.0592 31.5228 12.3047 28.125 12.3047 24.7272 12.3047 21.9727 15.0592 21.9727 18.457Z" stroke="#66737C" stroke-width="3.33333" stroke-linecap="round" stroke-linejoin="round" fill="none"/><path d="M36.9141 40.4297 36.9141 35.1562C36.9141 30.3022 32.9791 26.3672 28.125 26.3672 23.2709 26.3672 19.3359 30.3022 19.3359 35.1562L19.3359 40.4297 22.8516 40.4297 24.6094 54.4922 31.6406 54.4922 33.3984 40.4297Z" stroke="#66737C" stroke-width="3.33333" stroke-linecap="round" stroke-linejoin="round" fill="none"/><path d="M42.1875 17.5617C45.9868 22.6303 46.7708 29.349 44.2406 35.1562" stroke="#66737C" stroke-width="3.33333" stroke-linecap="round" stroke-linejoin="round" fill="none"/><path d="M14.0625 17.5617C10.2632 22.6303 9.47923 29.349 12.0094 35.1562" stroke="#66737C" stroke-width="3.33333" stroke-linecap="round" stroke-linejoin="round" fill="none"/><path d="M7.03125 43.9453C-1.70607 32.2956 0.654931 15.7686 12.3047 7.03125 23.9544-1.70607 40.4814 0.654931 49.2188 12.3047 56.25 21.6797 56.25 34.5703 49.2188 43.9453" stroke="#66737C" stroke-width="3.33333" stroke-linecap="round" stroke-linejoin="round" fill="none"/></svg>