<svg width="60" height="60" viewBox="-1.875 -1.875 60 60" xmlns="http://www.w3.org/2000/svg" xmlns:xlink="http://www.w3.org/1999/xlink" id="Virus-Lab-Research-Syringe--Streamline-Ultimate" fill="none" overflow="hidden"><path d="M39.7594 48.457C44.198 48.457 47.7961 44.8589 47.7961 40.4203 47.7961 35.9817 44.198 32.3836 39.7594 32.3836 35.3208 32.3836 31.7227 35.9817 31.7227 40.4203 31.7227 44.8589 35.3208 48.457 39.7594 48.457Z" stroke="#66737C" stroke-width="3.57143" stroke-linecap="round" stroke-linejoin="round"/><path d="M38.4211 26.3578 41.0977 26.3578" stroke="#66737C" stroke-width="3.57143" stroke-linecap="round" stroke-linejoin="round"/><path d="M39.7594 26.3578 39.7594 32.3836" stroke="#66737C" stroke-width="3.57143" stroke-linecap="round" stroke-linejoin="round"/><path d="M48.757 29.5289 50.6508 31.4227" stroke="#66737C" stroke-width="3.57143" stroke-linecap="round" stroke-linejoin="round"/><path d="M49.7039 30.476 45.4406 34.737" stroke="#66737C" stroke-width="3.57143" stroke-linecap="round" stroke-linejoin="round"/><path d="M53.8219 39.0797 53.8219 41.7584" stroke="#66737C" stroke-width="3.57143" stroke-linecap="round" stroke-linejoin="round"/><path d="M53.8219 40.4203 47.7961 40.4203" stroke="#66737C" stroke-width="3.57143" stroke-linecap="round" stroke-linejoin="round"/><path d="M50.6508 49.4156 48.757 51.3117" stroke="#66737C" stroke-width="3.57143" stroke-linecap="round" stroke-linejoin="round"/><path d="M49.7039 50.3625 45.4406 46.1016" stroke="#66737C" stroke-width="3.57143" stroke-linecap="round" stroke-linejoin="round"/><path d="M41.0977 54.4828 38.4211 54.4828" stroke="#66737C" stroke-width="3.57143" stroke-linecap="round" stroke-linejoin="round"/><path d="M39.7594 54.4828 39.7594 48.4547" stroke="#66737C" stroke-width="3.57143" stroke-linecap="round" stroke-linejoin="round"/><path d="M30.7617 51.3117 28.868 49.4156" stroke="#66737C" stroke-width="3.57143" stroke-linecap="round" stroke-linejoin="round"/><path d="M29.8148 50.3625 34.0781 46.1016" stroke="#66737C" stroke-width="3.57143" stroke-linecap="round" stroke-linejoin="round"/><path d="M25.6969 41.7584 25.6969 39.0797" stroke="#66737C" stroke-width="3.57143" stroke-linecap="round" stroke-linejoin="round"/><path d="M25.6969 40.4203 31.7227 40.4203" stroke="#66737C" stroke-width="3.57143" stroke-linecap="round" stroke-linejoin="round"/><path d="M28.868 31.4227 30.7617 29.5289" stroke="#66737C" stroke-width="3.57143" stroke-linecap="round" stroke-linejoin="round"/><path d="M29.8148 30.476 34.0781 34.737" stroke="#66737C" stroke-width="3.57143" stroke-linecap="round" stroke-linejoin="round"/><path d="M17.1094 40.1414 10.3289 33.3703C9.73022 32.7713 9.39391 31.9589 9.39391 31.1121 9.39391 30.2653 9.73022 29.453 10.3289 28.8539L29.5148 9.66797 40.8023 20.9531" stroke="#66737C" stroke-width="3.57143" stroke-linecap="round" stroke-linejoin="round"/><path d="M11.4569 34.4977 5.81381 40.1407 10.3282 44.6552 15.9713 39.0122 11.4569 34.4977Z" stroke="#66737C" stroke-width="3.57143" stroke-linecap="round" stroke-linejoin="round"/><path d="M2.42812 48.0422 8.07187 42.3984" stroke="#66737C" stroke-width="3.57143" stroke-linecap="round" stroke-linejoin="round"/><path d="M26.1305 6.28137 39.7594 19.9126" stroke="#66737C" stroke-width="3.57143" stroke-linecap="round" stroke-linejoin="round"/><path d="M40.8019 5.15316 32.9016 13.0534 37.4161 17.5679 45.3164 9.66759 40.8019 5.15316Z" stroke="#66737C" stroke-width="3.57143" stroke-linecap="round" stroke-linejoin="round"/><path d="M37.4156 1.76725 48.7031 13.0548" stroke="#66737C" stroke-width="3.57143" stroke-linecap="round" stroke-linejoin="round"/></svg>