<svg width="60" height="60" viewBox="-2.14 -2.14 60 60" xmlns="http://www.w3.org/2000/svg" xmlns:xlink="http://www.w3.org/1999/xlink" id="Warehouse-Cart-Package-Ribbon--Streamline-Ultimate.svg" overflow="hidden"><g><path d="M38.3075 50.4963C38.3075 52.4196 39.8667 53.9787 41.79 53.9787 43.7133 53.9787 45.2725 52.4196 45.2725 50.4963 45.2725 48.5729 43.7133 47.0138 41.79 47.0138 39.8667 47.0138 38.3075 48.5729 38.3075 50.4963" stroke="#66737C" stroke-width="3.57143" stroke-linecap="round" stroke-linejoin="round" fill="none"/><path d="M5.22375 50.4963C5.22375 52.4196 6.78292 53.9787 8.70625 53.9787 10.6296 53.9787 12.1888 52.4196 12.1888 50.4963 12.1888 48.5729 10.6296 47.0138 8.70625 47.0138 6.78292 47.0138 5.22375 48.5729 5.22375 50.4963" stroke="#66737C" stroke-width="3.57143" stroke-linecap="round" stroke-linejoin="round" fill="none"/><path d="M1.74125 41.79 38.7254 41.79C40.48 41.7924 41.9624 40.4891 42.1847 38.7486L46.6191 4.78263C46.8413 3.04214 48.3237 1.73881 50.0784 1.74125L53.9787 1.74125" stroke="#66737C" stroke-width="3.57143" stroke-linecap="round" stroke-linejoin="round" fill="none"/><path d="M10.4475 8.70625 31.3425 8.70625C31.3425 8.70625 34.825 8.70625 34.825 12.1888L34.825 31.3425C34.825 31.3425 34.825 34.825 31.3425 34.825L10.4475 34.825C10.4475 34.825 6.965 34.825 6.965 31.3425L6.965 12.1888C6.965 12.1888 6.965 8.70625 10.4475 8.70625" stroke="#66737C" stroke-width="3.57143" stroke-linecap="round" stroke-linejoin="round" fill="none"/><path d="M24.9579 20.3146 16.8321 20.3146 16.8321 8.70625 24.9579 8.70625Z" stroke="#66737C" stroke-width="3.57143" stroke-linecap="round" stroke-linejoin="round" fill="none"/></g></svg>