<svg width="60" height="60" viewBox="-2.14 -2.14 60 60" xmlns="http://www.w3.org/2000/svg" xmlns:xlink="http://www.w3.org/1999/xlink" id="Warehouse-Storage-2--Streamline-Ultimate.svg" overflow="hidden"><path d="M27.8716 39.8166 15.6829 39.8166C14.7212 39.8166 13.9416 40.5962 13.9416 41.5578L13.9416 52.0053C13.9416 52.967 14.7212 53.7466 15.6829 53.7466L26.1304 53.7466C27.092 53.7466 27.8716 52.967 27.8716 52.0053Z" stroke="#66737C" stroke-width="3.57143" stroke-linecap="round" stroke-linejoin="round" fill="none"/><path d="M40.0604 39.8166 27.8716 39.8166 27.8716 52.0053C27.8716 52.967 28.6512 53.7466 29.6129 53.7466L40.0604 53.7466C41.022 53.7466 41.8016 52.967 41.8016 52.0053L41.8016 41.5578C41.8016 40.5962 41.022 39.8166 40.0604 39.8166Z" stroke="#66737C" stroke-width="3.57143" stroke-linecap="round" stroke-linejoin="round" fill="none"/><path d="M33.0954 25.8866 22.6479 25.8866C21.6862 25.8866 20.9066 26.6662 20.9066 27.6278L20.9066 39.8166 34.8366 39.8166 34.8366 27.6278C34.8366 26.6662 34.057 25.8866 33.0954 25.8866Z" stroke="#66737C" stroke-width="3.57143" stroke-linecap="round" stroke-linejoin="round" fill="none"/><path d="M53.9904 53.7466 53.9904 17.5286C53.9908 16.2421 53.282 15.0602 52.147 14.4547L29.5107 2.38203C28.4869 1.83639 27.2586 1.83639 26.2348 2.38203L3.59858 14.4547C2.46262 15.0596 1.75286 16.2416 1.75286 17.5286L1.75286 53.7466" stroke="#66737C" stroke-width="3.57143" stroke-linecap="round" stroke-linejoin="round" fill="none"/></svg>