<svg width="60" height="60" viewBox="-2.14 -2.14 60 60" xmlns="http://www.w3.org/2000/svg" xmlns:xlink="http://www.w3.org/1999/xlink" id="Warehouse--Streamline-Ultimate.svg" overflow="hidden"><path d="M1.75286 15.6713 53.9904 15.6713 53.9904 15.6713 53.9904 51.6571C53.9904 52.9393 52.9509 53.9787 51.6687 53.9787L4.07452 53.9787C2.7923 53.9787 1.75286 52.9393 1.75286 51.6571L1.75286 15.6713 1.75286 15.6713Z" stroke="#66737C" stroke-width="3.57143" stroke-linecap="round" stroke-linejoin="round" fill="none"/><path d="M1.75286 15.6713C1.75286 7.97725 13.4471 1.74125 27.8716 1.74125 42.2961 1.74125 53.9904 7.97725 53.9904 15.6713" stroke="#66737C" stroke-width="3.57143" stroke-linecap="round" stroke-linejoin="round" fill="none"/><path d="M24.3891 8.70625 31.3541 8.70625" stroke="#66737C" stroke-width="3.57143" stroke-linecap="round" stroke-linejoin="round" fill="none"/><path d="M11.6199 26.1187 44.1233 26.1187C44.7644 26.1187 45.2841 26.6385 45.2841 27.2796L45.2841 53.9787 45.2841 53.9787 10.4591 53.9787 10.4591 53.9787 10.4591 27.2796C10.4591 26.6385 10.9788 26.1187 11.6199 26.1187Z" stroke="#66737C" stroke-width="3.57143" stroke-linecap="round" stroke-linejoin="round" fill="none"/><path d="M17.4241 36.5662 38.3191 36.5662" stroke="#66737C" stroke-width="3.57143" stroke-linecap="round" stroke-linejoin="round" fill="none"/><path d="M17.4241 45.2725 38.3191 45.2725" stroke="#66737C" stroke-width="3.57143" stroke-linecap="round" stroke-linejoin="round" fill="none"/></svg>