<svg width="60" height="60" viewBox="-2.14 -2.14 60 60" xmlns="http://www.w3.org/2000/svg" xmlns:xlink="http://www.w3.org/1999/xlink" id="Warehouse-Storage--Streamline-Ultimate.svg" overflow="hidden"><path d="M27.8716 40.0488 15.6829 40.0488C14.7212 40.0488 13.9416 40.8283 13.9416 41.79L13.9416 52.2375C13.9416 53.1992 14.7212 53.9787 15.6829 53.9787L27.8716 53.9787Z" stroke="#66737C" stroke-width="3.57143" stroke-linecap="round" stroke-linejoin="round" fill="none"/><path d="M40.0604 40.0488 27.8716 40.0488 27.8716 53.9787 40.0604 53.9787C41.022 53.9787 41.8016 53.1992 41.8016 52.2375L41.8016 41.79C41.8016 40.8283 41.022 40.0488 40.0604 40.0488Z" stroke="#66737C" stroke-width="3.57143" stroke-linecap="round" stroke-linejoin="round" fill="none"/><path d="M33.0954 26.1187 22.6479 26.1187C21.6862 26.1187 20.9066 26.8983 20.9066 27.86L20.9066 40.0488 34.8366 40.0488 34.8366 27.86C34.8366 26.8983 34.057 26.1188 33.0954 26.1188Z" stroke="#66737C" stroke-width="3.57143" stroke-linecap="round" stroke-linejoin="round" fill="none"/><path d="M1.75286 15.6713 53.9904 15.6713 53.9904 15.6713 53.9904 51.6571C53.9904 52.9393 52.9509 53.9787 51.6687 53.9787L4.07452 53.9787C2.7923 53.9787 1.75286 52.9393 1.75286 51.6571L1.75286 15.6713 1.75286 15.6713Z" stroke="#66737C" stroke-width="3.57143" stroke-linecap="round" stroke-linejoin="round" fill="none"/><path d="M1.75286 15.6713C1.75286 7.97725 13.4471 1.74125 27.8716 1.74125 42.2961 1.74125 53.9904 7.97725 53.9904 15.6713" stroke="#66737C" stroke-width="3.57143" stroke-linecap="round" stroke-linejoin="round" fill="none"/></svg>