<svg width="60" height="60" viewBox="-1.875 -1.875 60 60" xmlns="http://www.w3.org/2000/svg" xmlns:xlink="http://www.w3.org/1999/xlink" id="Water-Fountain-Drop--Streamline-Ultimate" overflow="hidden"><path d="M30.7617 1.75781C21.0584 1.76944 13.1952 9.63263 13.1836 19.3359L13.1836 44.5477C8.96934 46.0376 6.15199 50.0223 6.15234 54.4922L27.2461 54.4922C27.2465 50.0223 24.4291 46.0376 20.2148 44.5477L20.2148 19.3359C20.2148 13.5111 24.9368 8.78906 30.7617 8.78906 36.5866 8.78906 41.3086 13.5111 41.3086 19.3359L41.3086 21.0938C41.3086 23.0354 42.8826 24.6094 44.8242 24.6094 46.7658 24.6094 48.3398 23.0354 48.3398 21.0938L48.3398 19.3359C48.3282 9.63263 40.465 1.76944 30.7617 1.75781Z" stroke="#66737C" stroke-width="3.33333" stroke-linecap="round" stroke-linejoin="round" fill="none"/><path d="M20.2148 40.4297 27.2461 40.4297" stroke="#66737C" stroke-width="3.33333" stroke-linecap="round" stroke-linejoin="round" fill="none"/><path d="M50.0977 42.1875C50.0977 45.0999 47.7367 47.4609 44.8242 47.4609 41.9118 47.4609 39.5508 45.0999 39.5508 42.1875 39.5508 39.2766 44.8242 31.6406 44.8242 31.6406 44.8242 31.6406 50.0977 39.2766 50.0977 42.1875Z" stroke="#66737C" stroke-width="3.33333" stroke-linecap="round" stroke-linejoin="round" fill="none"/></svg>