<svg width="60" height="60" viewBox="-2.14 -2.14 60 60" xmlns="http://www.w3.org/2000/svg" xmlns:xlink="http://www.w3.org/1999/xlink" id="Water-Protection-Drop--Streamline-Ultimate.svg" overflow="hidden"><path d="M38.1357 31.4284C38.2214 37.1503 33.6523 41.8583 27.9304 41.9439 22.2084 42.0296 17.5005 37.4605 17.4148 31.7386 17.4133 31.6352 17.4133 31.5318 17.4148 31.4284 17.4148 22.548 26.2952 12.1888 27.7741 12.1888 29.253 12.1888 38.1357 22.548 38.1357 31.4284Z" stroke="#66737C" stroke-width="3.57143" stroke-linecap="round" stroke-linejoin="round" fill="none"/><path d="M1.97342 31.3425C1.81968 30.188 1.74213 29.0247 1.74125 27.86 1.74125 13.435 13.435 1.74125 27.86 1.74125" stroke="#66737C" stroke-width="3.57143" stroke-linecap="round" stroke-linejoin="round" fill="none"/><path d="M53.7512 31.3425C53.905 30.188 53.9825 29.0247 53.9834 27.86 53.9834 13.435 42.2896 1.74125 27.8646 1.74125 27.8631 1.74125 27.8615 1.74125 27.86 1.74125" stroke="#66737C" stroke-width="3.57143" stroke-linecap="round" stroke-linejoin="round" fill="none"/><path d="M51.8126 38.2889C50.9651 40.2647 49.8648 42.122 48.5391 43.8145" stroke="#66737C" stroke-width="3.57143" stroke-linecap="round" stroke-linejoin="round" fill="none"/><path d="M43.5034 48.7689C41.7934 50.0699 39.9201 51.1408 37.9314 51.9543" stroke="#66737C" stroke-width="3.57143" stroke-linecap="round" stroke-linejoin="round" fill="none"/><path d="M17.8467 51.9543C15.857 51.1427 13.9835 50.0716 12.2747 48.7689" stroke="#66737C" stroke-width="3.57143" stroke-linecap="round" stroke-linejoin="round" fill="none"/><path d="M7.23199 43.8168C5.90627 42.1236 4.8059 40.2654 3.95844 38.2889" stroke="#66737C" stroke-width="3.57143" stroke-linecap="round" stroke-linejoin="round" fill="none"/><path d="M31.3425 53.7489C29.0309 54.0554 26.6891 54.0554 24.3775 53.7489" stroke="#66737C" stroke-width="3.57143" stroke-linecap="round" stroke-linejoin="round" fill="none"/></svg>