<svg width="60" height="60" viewBox="-2.14 -2.14 60 60" xmlns="http://www.w3.org/2000/svg" xmlns:xlink="http://www.w3.org/1999/xlink" id="Water-Protection-Drop-1--Streamline-Ultimate.svg" overflow="hidden"><path d="M40.0511 27.86C40.0511 34.5917 34.594 40.0488 27.8623 40.0488 21.1307 40.0488 15.6736 34.5917 15.6736 27.86 15.6736 17.4125 26.1211 5.22375 27.8623 5.22375 29.6036 5.22375 40.0511 17.4125 40.0511 27.86Z" stroke="#66737C" stroke-width="3.57143" stroke-linecap="round" stroke-linejoin="round" fill="none"/><path d="M50.025 36.1576C51.3344 37.1808 52.1411 38.7173 52.2398 40.3761 52.2398 45.9667 41.328 50.4963 27.8623 50.4963 14.3967 50.4963 3.4825 45.969 3.4825 40.3761 3.58006 38.7169 4.387 37.18 5.69737 36.1576" stroke="#66737C" stroke-width="3.57143" stroke-linecap="round" stroke-linejoin="round" fill="none"/><path d="M27.86 33.0838C24.9759 33.0825 22.6386 30.7441 22.6386 27.86" stroke="#66737C" stroke-width="3.57143" stroke-linecap="round" stroke-linejoin="round" fill="none"/></svg>