<svg width="60" height="60" viewBox="-1.875 -1.875 60 60" xmlns="http://www.w3.org/2000/svg" xmlns:xlink="http://www.w3.org/1999/xlink" id="Whitesource-Logo-2--Streamline-Ultimate" fill="none" overflow="hidden"><path d="M48.7266 37.4998 48.7266 30.2341 36.2578 30.2341C36.4889 30.994 36.6073 31.7836 36.6094 32.5779 36.6094 34.8281 35.7155 36.986 34.1243 38.5772 32.5334 40.1684 30.3752 41.0623 28.125 41.0623 25.8748 41.0623 23.7169 40.1684 22.1257 38.5772 20.5346 36.986 19.6407 34.8281 19.6407 32.5779 19.6428 31.7836 19.7612 30.994 19.9922 30.2341L7.52348 30.2341 7.52348 37.4998 12.7969 37.4998C13.1663 39.1603 13.8162 40.7454 14.7188 42.1873L10.9922 45.8904 16.125 51.0232 19.8516 47.2966C21.3015 48.1835 22.884 48.8323 24.5391 49.2185L24.5391 54.492 31.8047 54.492 31.8047 49.2185C33.4598 48.8323 35.0423 48.1835 36.4922 47.2966L40.2188 51.0232 45.3516 45.8904 41.5312 42.1873C42.4338 40.7454 43.0838 39.1603 43.4531 37.4998L48.7266 37.4998Z" stroke="#66737C" stroke-width="3.33333" stroke-linecap="round" stroke-linejoin="round"/><path d="M9.93748 23.5941 9.93748 21.0939C9.93748 16.2703 11.8537 11.6442 15.2645 8.23338 16.8873 6.61059 18.7851 5.32615 20.8485 4.42542" stroke="#66737C" stroke-width="3.33333" stroke-linecap="round" stroke-linejoin="round"/><path d="M46.3125 23.5786 46.3125 21.0941C46.3125 16.2705 44.3963 11.6444 40.9854 8.23362 39.3223 6.5704 37.3702 5.26259 35.247 4.35905" stroke="#66737C" stroke-width="3.33333" stroke-linecap="round" stroke-linejoin="round"/><path d="M7.52348 23.5784 48.7266 23.5784" stroke="#66737C" stroke-width="3.33333" stroke-linecap="round" stroke-linejoin="round"/><path d="M20.8594 16.4058 20.8594 4.17138C20.8594 3.54977 21.1064 2.95362 21.5459 2.51409 21.9854 2.07455 22.5816 1.82762 23.2032 1.82762L32.9062 1.82762C33.5278 1.82762 34.1241 2.07455 34.5635 2.51409 35.0032 2.95362 35.25 3.54977 35.25 4.17138L35.25 16.4058" stroke="#66737C" stroke-width="3.33333" stroke-linecap="round" stroke-linejoin="round"/></svg>