<svg width="60" height="60" viewBox="-2.14 -2.14 60 60" xmlns="http://www.w3.org/2000/svg" xmlns:xlink="http://www.w3.org/1999/xlink" id="Wifi-Signal-3--Streamline-Ultimate.svg" overflow="hidden"><g><path d="M16.2517 54.5592 39.4683 54.5592 27.86 31.3425 16.2517 54.5592Z" stroke="#66737C" stroke-width="3.57143" stroke-linecap="round" stroke-linejoin="round" fill="none"/><path d="M47.153 46.4333C57.346 35.7781 56.9713 18.8773 46.316 8.68429 35.6607-1.50867 18.7599-1.13391 8.56695 9.52135-1.30787 19.844-1.30787 36.1106 8.56695 46.4333" stroke="#66737C" stroke-width="3.57143" stroke-linecap="round" stroke-linejoin="round" fill="none"/><path d="M13.7211 37.9825C8.10825 30.1737 9.88842 19.2934 17.6972 13.6806 25.5059 8.0678 36.3862 9.84798 41.999 17.6567 44.1356 20.6292 45.281 24.1994 45.2725 27.86 45.2798 31.4955 44.1337 35.0397 41.999 37.9825" stroke="#66737C" stroke-width="3.57143" stroke-linecap="round" stroke-linejoin="round" fill="none"/><path d="M19.7574 28.2083C19.7574 23.7205 23.3954 20.0824 27.8832 20.0824 32.371 20.0824 36.009 23.7205 36.009 28.2083" stroke="#66737C" stroke-width="3.57143" stroke-linecap="round" stroke-linejoin="round" fill="none"/><path d="M27.86 31.3425 27.86 26.6992" stroke="#66737C" stroke-width="3.57143" stroke-linecap="round" stroke-linejoin="round" fill="none"/><path d="M16.2981 54.5592 32.8284 41.2792" stroke="#66737C" stroke-width="3.57143" stroke-linecap="round" stroke-linejoin="round" fill="none"/><path d="M39.4683 54.5592 22.8916 41.2792" stroke="#66737C" stroke-width="3.57143" stroke-linecap="round" stroke-linejoin="round" fill="none"/></g></svg>