<svg width="60" height="60" viewBox="-1.875 -1.875 60 60" xmlns="http://www.w3.org/2000/svg" xmlns:xlink="http://www.w3.org/1999/xlink" id="Workflow-Milestones--Streamline-Ultimate" overflow="hidden"><defs></defs><path d="M1.75781 43.2727 9.61172 43.2727" stroke="#66737C" stroke-width="3.33333" stroke-linecap="round" stroke-linejoin="round" fill="none"/><path d="M42.15 43.2727 54.4922 43.2727" stroke="#66737C" stroke-width="3.33333" stroke-linecap="round" stroke-linejoin="round" fill="none"/><path d="M18.5883 43.2727 33.1734 43.2727" stroke="#66737C" stroke-width="3.33333" stroke-linecap="round" stroke-linejoin="round" fill="none"/><path d="M50.1539 38.7844 54.4922 43.2727 50.1539 47.7609" stroke="#66737C" stroke-width="3.33333" stroke-linecap="round" stroke-linejoin="round" fill="none"/><path d="M9.61172 43.2727C9.61172 45.7515 11.6212 47.7609 14.1 47.7609 16.5788 47.7609 18.5883 45.7515 18.5883 43.2727 18.5883 40.7938 16.5788 38.7844 14.1 38.7844 11.6212 38.7844 9.61172 40.7938 9.61172 43.2727" stroke="#66737C" stroke-width="3.33333" stroke-linecap="round" stroke-linejoin="round" fill="none"/><path d="M33.1734 43.2727C33.1734 45.7515 35.1829 47.7609 37.6617 47.7609 40.1405 47.7609 42.15 45.7515 42.15 43.2727 42.15 40.7938 40.1405 38.7844 37.6617 38.7844 35.1829 38.7844 33.1734 40.7938 33.1734 43.2727" stroke="#66737C" stroke-width="3.33333" stroke-linecap="round" stroke-linejoin="round" fill="none"/><path d="M37.6617 38.7844 37.6617 9.61172" stroke="#66737C" stroke-width="3.33333" stroke-linecap="round" stroke-linejoin="round" fill="none"/><path d="M14.1 38.7844 14.1 8.48906" stroke="#66737C" stroke-width="3.33333" stroke-linecap="round" stroke-linejoin="round" fill="none"/><path d="M14.1 8.48906 27.5648 17.2922 14.1 24.6305" stroke="#66737C" stroke-width="3.33333" stroke-linecap="round" stroke-linejoin="round" fill="none"/><path d="M37.6617 9.61172 51.1266 18.4148 37.6617 25.7508" stroke="#66737C" stroke-width="3.33333" stroke-linecap="round" stroke-linejoin="round" fill="none"/></svg>