<svg width="44.8" height="44.8" viewBox="-1.6 -1.6 44.8 44.8" xmlns="http://www.w3.org/2000/svg" xmlns:xlink="http://www.w3.org/1999/xlink" id="Workflow--Streamline-Core" fill="none" overflow="hidden"><g id="workflow--workflow-arrow-nodes-circle-diamond-direction-plan"><path d="M34.9143 2.22857C37.7862 2.22857 40.1143 4.55669 40.1143 7.42857 40.1143 10.3005 37.7862 12.6286 34.9143 12.6286 32.0424 12.6286 29.7143 10.3005 29.7143 7.42857 29.7143 4.55669 32.0424 2.22857 34.9143 2.22857Z" id="Vector 3229" stroke="#66737C" stroke-width="2.67857" stroke-linecap="round" stroke-linejoin="round"/><path d="M34.9143 29.7143C37.7862 29.7143 40.1143 32.0424 40.1143 34.9143 40.1143 37.7862 37.7862 40.1143 34.9143 40.1143 32.0424 40.1143 29.7143 37.7862 29.7143 34.9143 29.7143 32.0424 32.0424 29.7143 34.9143 29.7143Z" id="Vector 3236" stroke="#66737C" stroke-width="2.67857" stroke-linecap="round" stroke-linejoin="round"/><path d="M2.22857 37.1429 2.22857 32.6857C2.22857 31.0446 3.55894 29.7143 5.2 29.7143L9.65714 29.7143C11.2982 29.7143 12.6286 31.0446 12.6286 32.6857L12.6286 37.1429C12.6286 38.784 11.2982 40.1143 9.65714 40.1143L5.2 40.1143C3.55894 40.1143 2.22857 38.784 2.22857 37.1429Z" id="Vector 3235" stroke="#66737C" stroke-width="2.67857" stroke-linecap="round" stroke-linejoin="round"/><path d="M13.3714 7.42857 7.42857 1.48571 1.48571 7.42857 7.42857 13.3714 13.3714 7.42857Z" id="Vector 3231" stroke="#66737C" stroke-width="2.67857" stroke-linecap="round" stroke-linejoin="round"/><path d="M22.2857 30.4571 26.7429 34.9143 22.2857 39.3714" id="Vector 3232" stroke="#66737C" stroke-width="2.67857" stroke-linecap="round" stroke-linejoin="round"/><path d="M20.8 2.97143 16.3429 7.42857 20.8 11.8857" id="Vector 3234" stroke="#66737C" stroke-width="2.67857" stroke-linecap="round" stroke-linejoin="round"/><path d="M2.97143 22.2857 7.42857 26.7429 11.8857 22.2857" id="Vector 3233" stroke="#66737C" stroke-width="2.67857" stroke-linecap="round" stroke-linejoin="round"/><path d="M7.42857 26.7429 7.42857 13.3714" id="Vector 3237" stroke="#66737C" stroke-width="2.67857" stroke-linecap="round" stroke-linejoin="round"/><path d="M16.3429 7.42857 29.7143 7.42857" id="Vector 3238" stroke="#66737C" stroke-width="2.67857" stroke-linecap="round" stroke-linejoin="round"/><path d="M12.6286 34.9143 26.7429 34.9143" id="Vector 3239" stroke="#66737C" stroke-width="2.67857" stroke-linecap="round" stroke-linejoin="round"/></g></svg>