<svg width="60" height="60" viewBox="-1.875 -1.875 60 60" xmlns="http://www.w3.org/2000/svg" xmlns:xlink="http://www.w3.org/1999/xlink" id="Workflow-Teamwork-Hand-Gather--Streamline-Ultimate" overflow="hidden"><defs></defs><path d="M54.4195 49.7602 45.6773 40.9594C47.3533 37.8948 46.8124 34.0928 44.3484 31.6172L36.4711 23.8828C35.1966 22.6092 33.2966 22.1953 31.6078 22.8234 26.8444 24.4657 22.1728 26.3629 17.6133 28.507 16.6873 29.4333 16.6873 30.9347 17.6133 31.8609L26.5195 40.5938 23.1281 40.2211C21.6779 40.0301 20.3476 41.051 20.1566 42.5011 19.9881 43.7812 20.7671 44.9963 22.0008 45.3773 24.8344 46.3031 29.9016 47.9016 33.3094 48.6586 34.6061 48.9466 35.9545 48.9039 37.2305 48.5344L43.118 54.4594" stroke="#66737C" stroke-width="3.57143" stroke-linecap="round" stroke-linejoin="round" fill="none"/><path d="M16.0641 23.0578C16.255 21.6076 15.2342 20.2772 13.784 20.0863 12.5039 19.9178 11.2889 20.6968 10.9078 21.9305 9.98203 24.7664 8.38125 29.8312 7.62656 33.2391 7.33659 34.5355 7.37851 35.8842 7.74844 37.1602L1.83047 43.0477" stroke="#66737C" stroke-width="3.57143" stroke-linecap="round" stroke-linejoin="round" fill="none"/><path d="M6.52734 54.3563 15.3281 45.6141" stroke="#66737C" stroke-width="3.57143" stroke-linecap="round" stroke-linejoin="round" fill="none"/><path d="M39.3867 19.7391C38.3016 17.7141 37.118 15.6 36.1055 14.0039 35.3929 12.8836 34.4105 11.9601 33.2484 11.318L33.2812 1.79531" stroke="#66737C" stroke-width="3.57143" stroke-linecap="round" stroke-linejoin="round" fill="none"/><path d="M21.9539 1.80469 21.9117 10.6945C19.6895 11.3542 17.8656 12.9505 16.9172 15.0656" stroke="#66737C" stroke-width="3.57143" stroke-linecap="round" stroke-linejoin="round" fill="none"/></svg>