<svg width="60" height="60" viewBox="-1.875 -1.875 60 60" xmlns="http://www.w3.org/2000/svg" xmlns:xlink="http://www.w3.org/1999/xlink" id="Wrench--Streamline-Ultimate" overflow="hidden"><path d="M49.7203 29.5453C54.6832 24.5847 55.9109 17.0031 52.7672 10.7297L44.4469 19.0406C43.074 20.4131 40.8486 20.4131 39.4758 19.0406L37.6008 17.1656C36.2274 15.7931 36.2267 13.5672 37.5992 12.1938 37.5997 12.1932 37.6002 12.1927 37.6008 12.1922L46.0383 3.75469C38.1458-0.554735 28.2543 2.34988 23.9448 10.2423 21.4411 14.8278 21.2898 20.3364 23.5383 25.0523L2.8125 45.7641C1.40029 47.1746 1.39894 49.4629 2.80949 50.8751 2.81049 50.8761 2.8115 50.8771 2.8125 50.8781L5.36953 53.4375C6.78126 54.8504 9.07104 54.8513 10.4839 53.4395 10.4846 53.4389 10.4853 53.4382 10.4859 53.4375L31.1953 32.7281C37.421 35.6992 44.8433 34.4239 49.7203 29.5453Z" stroke="#66737C" stroke-width="3.33333" stroke-linecap="round" stroke-linejoin="round" fill="none"/></svg>